<svg width="145" height="85" viewBox="0 0 145 85" fill="none" xmlns="http://www.w3.org/2000/svg">
<path d="M97.9721 76.252H92.6162V77.6352H97.9721V76.252Z" fill="black"/>
<path d="M3.39565 68.2299L2.87313 81.3709V81.6476C2.87313 82.7542 3.13439 83.0308 4.83259 83.1692V83.7225C3.65691 83.5841 3.13439 83.5841 2.48123 83.5841C1.82808 83.5841 1.30556 83.5841 0.129883 83.7225V83.1692C1.82808 83.0308 2.08934 82.8925 2.08934 81.5092L2.61186 69.0598V68.9215C2.61186 67.8149 2.21997 67.5383 0.652405 67.3999V66.7083C1.56682 66.8466 1.95871 66.8466 2.61186 66.8466C3.52628 66.8466 3.91817 66.8466 4.83259 66.7083L9.27403 79.5727L13.8461 66.7083C14.8911 66.8466 15.4137 66.8466 16.1974 66.8466C16.8506 66.8466 17.2425 66.8466 18.1569 66.7083V67.3999C16.5893 67.5383 16.1974 67.8149 16.1974 68.9215V69.0598L16.4587 81.5092C16.4587 82.8925 16.72 83.0308 18.4182 83.1692V83.7225C16.8506 83.5841 16.3281 83.5841 15.4137 83.5841C14.4993 83.5841 13.9767 83.5841 12.4092 83.7225V83.1692C13.9767 83.0308 14.3686 82.7542 14.3686 81.6476V81.5092L14.1074 68.3682L10.0578 79.5727L9.79655 80.4026L9.40466 81.3709L9.1434 82.3392L8.88213 83.1692H8.49024L8.22898 82.3392L7.83709 81.3709L7.57583 80.4026L7.31457 79.4343L3.39565 68.2299ZM24.5578 83.1692C22.3371 83.1692 21.4227 81.3709 21.4227 77.3594H28.6074C28.6074 73.4863 27.0398 71.4114 24.1659 71.4114C21.292 71.4114 19.4632 73.9013 19.4632 77.7744C19.4632 81.6476 21.292 83.9991 24.2965 83.9991C26.6479 83.9991 28.2155 82.4775 28.4767 79.8493H27.5623C27.3011 81.9242 26.256 83.1692 24.5578 83.1692ZM21.4227 76.3912C21.6839 73.4863 22.5983 71.9647 24.1659 71.9647C25.7335 71.9647 26.5173 73.348 26.6479 76.3912H21.4227ZM29.9137 72.2414V71.8264C31.22 71.6881 32.1344 71.5497 33.0488 71.2731C33.1794 72.2414 33.1794 72.6563 33.3101 73.348V73.6246C33.8326 72.2414 34.8776 71.2731 36.0533 71.2731C37.229 71.2731 38.1434 72.103 38.1434 73.348C38.1434 74.0396 37.7515 74.5929 37.0983 74.5929C36.5758 74.5929 36.0533 74.1779 36.0533 73.7629C36.0533 73.7629 36.0533 73.6246 36.0533 73.4863V73.2096V73.0713C36.0533 72.6563 35.792 72.518 35.2695 72.518C33.9632 72.518 33.1794 74.1779 33.1794 76.6678V81.9242C33.1794 83.0308 33.4407 83.1692 34.8776 83.3075V83.8608C33.5713 83.7225 33.0488 83.7225 32.265 83.7225C31.3506 83.7225 30.9587 83.7225 29.5218 83.8608V83.3075C30.9587 83.1692 31.22 83.0308 31.22 81.9242V73.9013V73.4863C31.22 72.3797 31.0893 72.2414 29.783 72.2414H29.9137ZM47.4182 71.1347V75.2845H46.8956C46.5038 73.0713 45.5893 71.9647 44.1524 71.9647C42.3236 71.9647 41.2785 74.0396 41.2785 77.6361C41.2785 81.2326 42.1929 83.0308 44.0218 83.0308C45.4587 83.0308 46.3731 81.9242 46.6344 79.711H47.6794C47.4182 82.4775 45.9812 83.8608 43.8911 83.8608C41.1479 83.8608 39.1884 81.3709 39.1884 77.6361C39.1884 73.9013 41.1479 71.2731 43.8911 71.2731C44.9362 71.2731 45.5893 71.5497 46.3731 72.3797L47.0263 71.1347H47.4182ZM54.4722 83.1692C52.2515 83.1692 51.3371 81.3709 51.3371 77.3594H58.5218C58.5218 73.4863 56.9542 71.4114 54.0803 71.4114C51.2065 71.4114 49.3776 73.9013 49.3776 77.7744C49.3776 81.6476 51.2065 83.9991 54.211 83.9991C56.5623 83.9991 58.1299 82.4775 58.3911 79.8493H57.4767C57.2155 81.9242 56.1704 83.1692 54.4722 83.1692ZM51.3371 76.3912C51.5983 73.4863 52.5128 71.9647 54.0803 71.9647C55.6479 71.9647 56.4317 73.348 56.5623 76.3912H51.3371ZM69.6254 81.0943V66.4316C68.4497 66.7083 67.4047 66.9849 65.9677 67.1233V67.5383C67.5353 67.5383 67.6659 67.6766 67.6659 69.0598V73.4863C66.7515 71.9647 66.0983 71.5497 64.792 71.5497C62.1794 71.5497 60.4812 74.1779 60.4812 77.7744C60.4812 81.3709 62.3101 83.9991 64.9227 83.9991C66.229 83.9991 67.274 83.3075 67.9272 81.9242C68.0578 82.8925 68.0578 83.0308 68.3191 83.9991C69.3641 83.7225 69.756 83.5841 71.0623 83.4458H71.4542V83.0308C69.756 82.7542 69.6254 82.6159 69.6254 81.0943ZM65.0533 83.3075C63.3551 83.3075 62.4407 81.3709 62.4407 77.7744C62.4407 74.0396 63.2245 72.2414 65.0533 72.2414C66.8821 72.2414 67.7965 74.1779 67.7965 77.9127C67.6659 81.3709 66.7515 83.3075 65.0533 83.3075ZM77.3326 83.1692C75.1119 83.1692 74.1974 81.3709 74.1974 77.3594H81.3821C81.3821 73.4863 79.8146 71.4114 76.9407 71.4114C74.0668 71.4114 72.238 73.9013 72.238 77.7744C72.238 81.6476 74.0668 83.9991 77.0713 83.9991C79.4227 83.9991 80.9902 82.4775 81.2515 79.8493H80.3371C80.0758 81.9242 79.0308 83.1692 77.3326 83.1692ZM74.1974 76.3912C74.4587 73.4863 75.3731 71.9647 76.9407 71.9647C78.5083 71.9647 79.292 73.348 79.4227 76.3912H74.1974ZM83.3416 83.9991V79.711H83.8641C84.256 82.0625 85.301 83.1692 86.9992 83.1692C88.4362 83.1692 89.4812 82.2009 89.4812 80.8176C89.4812 79.9876 89.0893 79.4343 87.9137 78.7427L86.9992 78.3277L85.8236 77.9127C84.1254 77.0828 83.4722 76.3912 83.4722 74.8696C83.4722 72.7947 84.9092 71.5497 87.1299 71.5497C88.0443 71.5497 88.6974 71.8264 89.6119 72.3797L90.0038 71.2731H90.3956V75.1462H89.8731C89.6119 73.0713 88.8281 72.103 87.3911 72.103C86.0848 72.103 85.1704 73.0713 85.1704 74.1779C85.1704 75.1462 85.5623 75.5612 87.6524 76.5295L88.6975 76.9445C90.5263 77.7744 91.1794 78.6044 91.1794 80.126C91.1794 82.2009 89.6119 83.7225 87.2605 83.7225C86.2155 83.7225 85.301 83.4458 84.3866 82.6159L83.8641 83.7225H83.3416V83.9991ZM109.206 70.8581C109.206 69.4748 108.684 68.3682 107.77 67.6766C106.986 66.9849 106.071 66.7083 104.504 66.7083H98.2335V67.3999C99.9317 67.5383 100.193 67.6766 100.193 69.0598V81.3709C100.193 82.7542 100.062 82.8925 98.2335 83.0308V83.5841H104.242C106.071 83.5841 106.986 83.3075 108.031 82.7542C109.206 81.9242 109.99 80.4026 109.99 78.7427C109.99 77.3594 109.468 76.1145 108.553 75.4229C108.031 75.0079 107.508 74.7312 106.594 74.5929C108.292 73.9013 109.206 72.6563 109.206 70.8581ZM102.152 67.5383H104.242C106.202 67.5383 107.116 68.6449 107.116 70.9964C107.116 72.103 106.855 73.0713 106.333 73.6246C105.81 74.3163 105.157 74.4546 103.851 74.4546H102.152V67.5383ZM104.504 75.1462C105.81 75.1462 106.463 75.4229 106.986 75.9762C107.508 76.5295 107.9 77.6361 107.9 78.881C107.9 81.3709 106.724 82.8925 104.504 82.8925H103.589C102.283 82.8925 102.152 82.7542 102.152 81.5092V75.1462H104.504ZM117.044 83.1692C114.824 83.1692 113.909 81.3709 113.909 77.3594H121.094C121.094 73.4863 119.526 71.4114 116.652 71.4114C113.779 71.4114 111.95 73.9013 111.95 77.7744C111.95 81.6476 113.779 83.9991 116.783 83.9991C119.134 83.9991 120.702 82.4775 120.963 79.8493H120.049C119.788 81.9242 118.742 83.1692 117.044 83.1692ZM113.909 76.3912C114.17 73.4863 115.085 71.9647 116.652 71.9647C118.22 71.9647 119.004 73.348 119.134 76.3912H113.909ZM122.27 72.3797V71.9647C123.706 71.8264 124.49 71.5497 125.405 71.1347C125.535 71.6881 125.535 72.3797 125.666 73.348C126.58 71.9647 127.495 71.4114 128.932 71.4114C130.369 71.4114 131.675 72.2414 132.067 73.4863C132.328 74.0396 132.459 74.8696 132.459 75.8378V81.9242C132.459 83.0308 132.72 83.1692 134.157 83.3075V83.8608C132.851 83.7225 132.459 83.7225 131.544 83.7225C130.63 83.7225 130.238 83.7225 128.932 83.8608V83.3075C130.238 83.3075 130.499 83.0308 130.499 81.9242V75.6995C130.499 73.4863 129.846 72.6563 128.279 72.6563C126.711 72.6563 125.797 73.7629 125.797 75.8378V81.9242C125.797 82.8925 126.058 83.1692 127.364 83.3075V83.8608C126.058 83.7225 125.666 83.7225 124.752 83.7225C123.968 83.7225 123.445 83.7225 122.139 83.8608V83.3075C123.576 83.1692 123.837 83.0308 123.837 81.9242V74.0396V73.6246C123.837 72.518 123.706 72.3797 122.531 72.3797C122.531 72.3797 122.4 72.3797 122.27 72.3797ZM135.071 83.7225L141.603 72.3797H138.598C137.031 72.3797 136.639 72.7947 135.855 75.0079H135.333L135.855 71.6881H144.085L137.553 83.0308H140.297C141.864 83.0308 142.648 82.3392 143.301 79.9876H143.824L143.17 83.5841L135.071 83.7225C135.071 83.7225 135.071 83.5841 135.071 83.7225Z" fill="black"/>
<path d="M98.9683 28.6139C98.9683 43.0021 87.2907 54.6457 72.8606 54.6457C58.4305 54.6457 46.7529 43.0021 46.7529 28.6139C46.7529 14.2257 58.4305 2.58203 72.8606 2.58203C87.2907 2.58203 98.9683 14.2257 98.9683 28.6139ZM72.8606 4.16224C59.2646 4.16224 48.3377 15.0574 48.3377 28.6139C48.3377 42.1704 59.348 53.0655 72.8606 53.0655C86.4566 53.0655 97.3834 42.0872 97.3834 28.6139C97.3834 15.0574 86.4566 4.16224 72.8606 4.16224Z" fill="url(#paint0_linear_2102_5952)"/>
<path d="M72.8607 4.16211C59.2647 4.16211 48.3379 15.0572 48.3379 28.6138C48.3379 42.1703 59.3482 53.0654 72.8607 53.0654C86.4567 53.0654 97.3836 42.0871 97.3836 28.6138C97.3836 15.0572 86.4567 4.16211 72.8607 4.16211ZM72.8607 51.4852C60.1823 51.4852 49.9227 41.2554 49.9227 28.6138C49.9227 15.9721 60.1823 5.74232 72.8607 5.74232C85.5392 5.74232 95.7988 15.9721 95.7988 28.6138C95.7988 41.2554 85.5392 51.4852 72.8607 51.4852Z" fill="url(#paint1_linear_2102_5952)"/>
<path opacity="0.4" d="M72.8605 54.6459C87.2906 54.6459 98.9682 43.0022 98.9682 28.614C98.9682 14.2258 87.2906 2.58218 72.8605 2.58218C58.4304 2.58218 46.7528 14.2258 46.7528 28.614C46.7528 43.0022 58.4304 54.6459 72.8605 54.6459ZM72.8605 2C87.5408 2 99.552 13.9763 99.552 28.614C99.552 43.2518 87.5408 55.2281 72.8605 55.2281C58.1801 55.2281 46.1689 43.2518 46.1689 28.614C46.1689 13.9763 58.1801 2 72.8605 2Z" fill="url(#paint2_linear_2102_5952)"/>
<path d="M48.0039 28.6976C48.0039 15.0579 59.0976 3.83008 72.8604 3.83008C86.6232 3.83008 97.7169 14.9747 97.7169 28.6976C97.7169 42.3373 86.6232 53.3987 72.8604 53.3987C59.0976 53.3987 48.0039 42.3373 48.0039 28.6976ZM55.7611 11.5648C51.3403 15.9727 48.5878 22.0441 48.5878 28.6976C48.5878 35.3511 51.3403 41.4224 55.6777 45.7472C60.0985 50.072 66.1875 52.8165 72.8604 52.8165C79.5333 52.8165 85.6223 50.1551 89.9597 45.7472C94.3805 41.4224 97.0496 35.3511 97.0496 28.6976C97.0496 22.0441 94.2971 15.9727 89.9597 11.5648C85.6223 7.15683 79.5333 4.41226 72.8604 4.41226C66.1875 4.41226 60.0985 7.15683 55.7611 11.5648Z" fill="white"/>
<path opacity="0.4" d="M72.8603 51.5694C66.6879 51.5694 60.9325 49.1575 56.5952 44.8327C52.2578 40.5079 49.8389 34.7693 49.8389 28.6148C49.8389 22.4603 52.2578 16.7216 56.5952 12.3968C60.9325 8.07205 66.6879 5.66016 72.8603 5.66016C79.0327 5.66016 84.7881 8.07205 89.1255 12.3968C93.4629 16.7216 95.8818 22.4603 95.8818 28.6148C95.8818 34.7693 93.4629 40.5079 89.1255 44.8327C84.7881 49.1575 79.0327 51.5694 72.8603 51.5694ZM72.8603 50.904C78.7825 50.904 84.4545 48.5753 88.625 44.4168C92.879 40.1752 95.1311 34.6029 95.1311 28.6979C95.1311 22.7929 92.7956 17.1375 88.625 12.979C84.371 8.7374 78.7825 6.49184 72.8603 6.49184C66.9381 6.49184 61.2662 8.82057 57.0956 12.979C52.8417 17.0543 50.5062 22.7098 50.5062 28.6148C50.5062 34.5198 52.8417 40.1752 57.0122 44.3337C61.2662 48.5753 66.9381 50.904 72.8603 50.904Z" fill="url(#paint3_linear_2102_5952)"/>
<path d="M93.1292 39.426C92.7122 39.0934 76.6138 26.3685 76.6138 26.3685L72.8603 4.99414C72.6101 5.07731 72.2765 5.32682 72.1096 5.65949L69.4405 26.4517L52.8417 39.1765C52.8417 39.1765 52.508 39.5924 52.3412 39.8419C52.2578 40.0082 52.2578 40.2577 52.2578 40.5072L72.7769 32.1072L93.2961 40.5072C93.4629 40.0914 93.2961 39.6756 93.1292 39.426Z" fill="white"/>
<path d="M73.0272 29.2797L72.8604 33.1055L91.7113 40.6739C92.3785 41.0065 92.879 40.8402 93.3795 40.5075L73.2774 29.1966C73.194 29.1134 73.0272 29.1966 73.0272 29.2797Z" fill="#565F64"/>
<path d="M73.0273 29.2797C73.0273 29.2797 74.1117 31.1926 75.3629 32.5233C77.1145 34.4362 79.45 35.7669 79.45 35.7669L91.7114 40.6739C92.3787 41.0065 92.8792 40.8402 93.3796 40.5075L73.2776 29.1966C73.1942 29.1134 73.0273 29.1966 73.0273 29.2797Z" fill="url(#paint4_linear_2102_5952)"/>
<path d="M93.2963 39.7584C93.2963 39.6752 93.2129 39.592 93.1295 39.4257L75.9468 26.8672L73.6113 28.3642C73.6113 28.3642 73.7781 28.4474 73.8616 28.3642C74.1118 28.2811 74.6123 28.1979 75.1127 28.3642C75.5298 28.5306 93.2963 39.8415 93.2963 39.8415C93.2963 39.8415 93.2963 39.8415 93.2963 39.7584Z" fill="#A4AAAE" fill-opacity="0.6"/>
<path d="M92.7119 39.0108L76.697 26.3691L75.9463 26.8682L93.129 39.5098C93.0456 39.3435 92.8787 39.1771 92.7119 39.0108Z" fill="#333E46"/>
<path d="M73.2778 28.0327C73.1944 28.1159 73.1944 28.1159 73.1944 28.1159C73.1944 28.1159 73.1944 28.2822 73.3612 28.1991C73.4446 28.1159 75.8636 26.8684 76.6977 26.3694L73.7783 6.40883C73.6949 5.66031 73.3612 5.32763 72.7773 5.07812L73.111 28.1991L73.2778 28.0327Z" fill="#565F64"/>
<path d="M71.86 6.40705V7.48824L70.0249 25.8686C70.0249 26.1181 70.1084 26.3676 70.3586 26.5339L71.4429 27.3656L72.1936 7.0724L72.277 5.49219C72.0268 5.65853 71.9434 5.9912 71.86 6.40705ZM70.8591 27.6983L69.8581 26.8666L52.9257 39.0924C52.9257 39.0924 52.4252 39.4251 52.3418 39.7578L52.9257 39.4251L70.6922 28.2805C71.0259 28.1141 71.1093 27.9478 70.8591 27.6983Z" fill="#A4AAAE" fill-opacity="0.6"/>
<path d="M72.6101 29.2797C72.6101 29.1966 72.5267 29.1134 72.4433 29.1966L52.2578 40.5907C52.7583 40.9234 53.2587 41.0065 53.926 40.757L72.7769 33.1887L72.6101 29.2797Z" fill="#565F64"/>
<path d="M73.1943 28.1157L73.2777 28.0326C73.1943 28.1157 73.1943 28.1157 73.1943 28.1157C73.1943 28.1157 73.1943 28.1989 73.2777 28.1989H73.3612C73.4446 28.1157 75.8635 26.8682 76.6976 26.3692L76.364 23.9573L73.7782 6.40868C73.7782 6.076 73.6948 5.82649 73.528 5.66016C73.528 5.66016 74.7791 22.4603 74.7791 24.29C74.7791 26.7019 73.1943 28.1157 73.1943 28.1157Z" fill="url(#paint5_linear_2102_5952)"/>
<path d="M72.6101 29.2797C72.6101 29.1966 72.5267 29.1134 72.4433 29.1966L52.2578 40.5907C52.7583 40.9234 53.2587 41.0065 53.926 40.757L72.7769 33.1887L72.6101 29.2797Z" fill="url(#paint6_linear_2102_5952)" fill-opacity="0.8"/>
<path opacity="0.8" d="M53.9263 40.6731L72.7772 33.1047L72.6104 29.4453C72.2767 30.4433 71.6929 31.5245 70.1081 32.3562C68.9403 33.0216 57.7632 38.5107 53.7595 40.4236C53.5093 40.5899 53.1756 40.6731 53.0088 40.7563C53.3424 40.9226 53.5927 40.8394 53.9263 40.6731Z" fill="url(#paint7_linear_2102_5952)"/>
<path d="M73.2778 28.0327C73.1944 28.1159 73.1944 28.1159 73.1944 28.1159C73.1944 28.1159 73.1944 28.2822 73.3612 28.1991C73.4446 28.1159 75.8636 26.8684 76.6977 26.3694L73.7783 6.40883C73.6949 5.66031 73.3612 5.32763 72.7773 5.07812L73.111 28.1991L73.2778 28.0327Z" fill="url(#paint8_linear_2102_5952)"/>
<path d="M73.2778 28.0327C73.1944 28.1159 73.1944 28.1159 73.1944 28.1159C73.1944 28.1159 73.1944 28.2822 73.3612 28.1991C73.4446 28.1159 75.8636 26.8684 76.6977 26.3694L73.7783 6.40883C73.6949 5.66031 73.3612 5.32763 72.7773 5.07812L73.111 28.1991L73.2778 28.0327Z" fill="url(#paint9_linear_2102_5952)"/>
<path d="M50.423 38.926C49.8391 37.5953 46.5027 31.1081 50.1728 18.6328H48.7548C48.0041 21.1279 47.4202 22.6249 47.0866 24.8705C47.0866 24.8705 46.9198 25.7022 46.8363 26.617C46.7529 27.5319 46.7529 28.0309 46.7529 28.6131C46.7529 33.6032 48.0041 36.5141 48.0041 36.5141C49.3387 40.6726 51.6742 44.4152 54.8438 47.2429C57.5964 49.6548 61.8503 51.4845 65.3536 52.1499C64.7697 52.0667 54.7604 47.8251 50.423 38.926Z" fill="url(#paint10_linear_2102_5952)"/>
<path d="M73.1941 29.1126H72.4434C72.5268 29.1126 72.6102 29.1126 72.6102 29.1957L72.777 33.0215H72.8604L73.0272 29.1957C73.0272 29.1126 73.1106 29.0294 73.1941 29.1126Z" fill="url(#paint11_linear_2102_5952)"/>
<path d="M81.2015 3.91211C89.9596 7.23886 98.2173 16.3874 98.2173 27.9479C98.2173 41.9203 87.0402 53.3144 72.8604 53.3144V54.6451C87.0402 54.6451 98.968 43.0015 98.968 28.6133C98.968 17.136 91.6278 7.48837 81.2015 3.91211Z" fill="url(#paint12_linear_2102_5952)"/>
<path d="M95.2151 18.8C89.3763 5.40981 76.1974 4.66129 75.4467 4.57812C75.4467 4.57812 75.4467 4.57812 75.3633 4.57812C85.456 6.40784 91.8787 12.9782 94.1308 19.8812V19.9644C95.1317 22.6258 95.6322 25.4535 95.7156 28.5308C95.799 31.4417 95.1317 34.6853 93.8805 37.6793C93.7971 38.0952 93.7137 38.5942 93.6303 38.5942H94.9649C98.9686 31.109 97.217 23.5406 95.2151 18.8Z" fill="url(#paint13_linear_2102_5952)"/>
<path d="M48.0039 28.6976C48.0039 15.0579 59.0976 3.83008 72.8604 3.83008C86.6232 3.83008 97.7169 14.9747 97.7169 28.6976C97.7169 42.3373 86.6232 53.3987 72.8604 53.3987C59.0976 53.3987 48.0039 42.3373 48.0039 28.6976ZM55.7611 11.5648C51.3403 15.9727 48.5878 22.0441 48.5878 28.6976C48.5878 35.3511 51.3403 41.4224 55.6777 45.7472C60.0985 50.072 66.1875 52.8165 72.8604 52.8165C79.5333 52.8165 85.6223 50.1551 89.9597 45.7472C94.3805 41.4224 97.0496 35.3511 97.0496 28.6976C97.0496 22.0441 94.2971 15.9727 89.9597 11.5648C85.6223 7.15683 79.5333 4.41226 72.8604 4.41226C66.1875 4.41226 60.0985 7.15683 55.7611 11.5648Z" fill="#FBFBFB"/>
<path d="M52.7588 39.2604L69.7746 27.0346C70.6922 27.5336 72.1936 28.1989 72.3604 28.1989C72.5272 28.2821 72.5272 28.1157 72.5272 28.1157L70.4419 26.3692C70.1917 26.2029 70.1083 25.9534 70.1083 25.7039L72.1102 5.66016C72.0267 5.74333 72.0267 5.90966 71.9433 5.99283C71.8599 6.15917 71.8599 6.24234 71.8599 6.40868L68.9405 26.4524L52.9256 39.0109C52.8422 39.094 52.7588 39.1772 52.7588 39.2604Z" fill="#333F47"/>
<defs>
<linearGradient id="paint0_linear_2102_5952" x1="52.8418" y1="11.8967" x2="92.7834" y2="45.4454" gradientUnits="userSpaceOnUse">
<stop stop-color="white"/>
<stop offset="0.1" stop-color="#CDD0D0"/>
<stop offset="0.2" stop-color="#A5ACAF"/>
<stop offset="0.3" stop-color="#98A0A4"/>
<stop offset="0.4" stop-color="#828A8F"/>
<stop offset="0.5" stop-color="#667075"/>
<stop offset="0.6" stop-color="#535C63"/>
<stop offset="0.7" stop-color="#475158"/>
<stop offset="0.8" stop-color="#434D54"/>
<stop offset="1" stop-color="#475157"/>
</linearGradient>
<linearGradient id="paint1_linear_2102_5952" x1="54.0934" y1="12.8948" x2="91.5377" y2="44.44" gradientUnits="userSpaceOnUse">
<stop stop-color="#0B1F2A"/>
<stop offset="0.2" stop-color="#333F47"/>
<stop offset="0.5" stop-color="#81898D"/>
<stop offset="0.7" stop-color="#B3B8B8"/>
<stop offset="0.8" stop-color="#DEE0DD"/>
<stop offset="1" stop-color="#FBFBFB"/>
</linearGradient>
<linearGradient id="paint2_linear_2102_5952" x1="82.013" y1="53.6536" x2="63.8395" y2="3.55224" gradientUnits="userSpaceOnUse">
<stop stop-color="#E1E3E1"/>
<stop offset="0.1" stop-color="#C1C5C4"/>
<stop offset="0.3" stop-color="#9BA1A2"/>
<stop offset="0.5" stop-color="#7D8487"/>
<stop offset="0.7" stop-color="#687074" stop-opacity="0"/>
<stop offset="0.8" stop-color="#5B6469" stop-opacity="0"/>
<stop offset="1" stop-color="#576065" stop-opacity="0"/>
</linearGradient>
<linearGradient id="paint3_linear_2102_5952" x1="61.3496" y1="8.73745" x2="84.2708" y2="48.5498" gradientUnits="userSpaceOnUse">
<stop stop-color="#E1E3E1"/>
<stop offset="0.1" stop-color="#C1C5C4"/>
<stop offset="0.3" stop-color="#9BA1A2"/>
<stop offset="0.5" stop-color="#7D8487"/>
<stop offset="0.7" stop-color="#687074" stop-opacity="0"/>
<stop offset="0.8" stop-color="#5B6469" stop-opacity="0"/>
<stop offset="1" stop-color="#576065" stop-opacity="0"/>
</linearGradient>
<linearGradient id="paint4_linear_2102_5952" x1="83.2869" y1="34.929" x2="82.5641" y2="36.123" gradientUnits="userSpaceOnUse">
<stop stop-color="#27343C"/>
<stop offset="1" stop-color="#00111E" stop-opacity="0"/>
</linearGradient>
<linearGradient id="paint5_linear_2102_5952" x1="75.0482" y1="26.2029" x2="73.3556" y2="23.476" gradientUnits="userSpaceOnUse">
<stop offset="0.1" stop-color="#02131F"/>
<stop offset="0.9" stop-color="#02131F" stop-opacity="0"/>
</linearGradient>
<linearGradient id="paint6_linear_2102_5952" x1="72.8604" y1="34.1239" x2="69.5358" y2="35.0765" gradientUnits="userSpaceOnUse">
<stop offset="0.2" stop-color="#02131F"/>
<stop offset="0.9" stop-color="#02131F" stop-opacity="0"/>
</linearGradient>
<linearGradient id="paint7_linear_2102_5952" x1="63.5187" y1="35.7153" x2="63.3063" y2="35.1829" gradientUnits="userSpaceOnUse">
<stop stop-color="#02131F"/>
<stop offset="0.1" stop-color="#02131F"/>
<stop offset="1" stop-color="#02131F" stop-opacity="0"/>
</linearGradient>
<linearGradient id="paint8_linear_2102_5952" x1="74.7696" y1="16.3059" x2="74.6511" y2="16.3198" gradientUnits="userSpaceOnUse">
<stop offset="0.3" stop-color="#02131F"/>
<stop offset="0.8" stop-color="#02131F" stop-opacity="0"/>
</linearGradient>
<linearGradient id="paint9_linear_2102_5952" x1="74.772" y1="16.2228" x2="74.6861" y2="16.234" gradientUnits="userSpaceOnUse">
<stop offset="0.4" stop-color="#27343C"/>
<stop offset="1" stop-color="#3B474E" stop-opacity="0"/>
</linearGradient>
<linearGradient id="paint10_linear_2102_5952" x1="52.9246" y1="29.3616" x2="64.0675" y2="35.8104" gradientUnits="userSpaceOnUse">
<stop stop-color="#25323B" stop-opacity="0"/>
<stop offset="0.1" stop-color="#27343C"/>
</linearGradient>
<linearGradient id="paint11_linear_2102_5952" x1="72.8562" y1="33.1047" x2="72.8562" y2="29.1126" gradientUnits="userSpaceOnUse">
<stop offset="0.3" stop-color="#A5ABAF"/>
<stop offset="1" stop-color="#A5ABAF" stop-opacity="0"/>
</linearGradient>
<linearGradient id="paint12_linear_2102_5952" x1="85.956" y1="3.91211" x2="85.956" y2="54.6451" gradientUnits="userSpaceOnUse">
<stop stop-color="#6B7378"/>
<stop offset="0.2" stop-color="#333F47"/>
<stop offset="0.5" stop-color="#27343C"/>
<stop offset="0.8" stop-color="#333F47"/>
<stop offset="1" stop-color="#434D54"/>
</linearGradient>
<linearGradient id="paint13_linear_2102_5952" x1="89.5316" y1="8.73659" x2="80.3931" y2="22.1787" gradientUnits="userSpaceOnUse">
<stop offset="0.7" stop-color="#49545B"/>
<stop offset="0.8" stop-color="white" stop-opacity="0"/>
</linearGradient>
</defs>
</svg>
