<svg width="145" height="85" viewBox="0 0 145 85" fill="none" xmlns="http://www.w3.org/2000/svg">
<g clip-path="url(#clip0_2101_4745)">
<path d="M0 17H7.01514L7.00237 31.0214C9.44797 28.1164 13.1496 26.4093 17.3515 26.4093C25.883 26.4093 31.7162 33.6745 31.7162 42.706C31.7162 51.7373 25.883 58.9383 17.3515 58.9383C13.0245 58.9383 9.52201 57.2801 7.01514 54.375V58.2802H0V17ZM24.6296 42.7085C24.6296 37.212 20.8668 33.1707 15.5978 33.1707C10.6427 33.1707 7.00492 37.212 7.00492 42.7085C7.00492 48.205 10.7065 52.1821 15.5978 52.1821C20.8668 52.1821 24.6296 48.2025 24.6296 42.7085Z" fill="#0E1218"/>
<path d="M34.5859 42.7088C34.5859 33.6748 40.4192 26.4121 48.9507 26.4121C53.1526 26.4121 56.8542 28.1166 59.2998 31.0242V26.4841H66.2613V58.3139H59.2998V54.3984C56.8542 57.3035 53.1526 58.666 48.9507 58.666C40.4192 58.666 34.5859 51.6836 34.5859 42.7139V42.7088ZM59.2998 42.7088C59.2998 37.2123 55.662 33.1708 50.707 33.1708C45.438 33.1708 41.6752 37.2123 41.6752 42.7088C41.6752 48.2053 45.438 52.1823 50.707 52.1823C55.6008 52.1823 59.2998 48.2669 59.2998 42.7088Z" fill="#0E1218"/>
<path d="M69.6377 54.3939L72.2722 48.6454C74.2787 50.2883 77.4774 52.3732 82.1185 52.3732C84.9419 52.3732 88.2656 51.2985 88.2656 49.0876C88.2656 46.8767 85.1308 46.2443 82.0571 45.3598C76.1601 43.7171 71.1439 41.9484 71.1439 35.822C71.1439 29.6957 77.3523 26.4102 82.8102 26.4102C87.4513 26.4102 90.5249 27.6107 93.9125 29.6314L91.3418 35.3155C88.5821 33.7371 85.9476 32.9786 82.8741 32.9786C80.5536 32.9786 78.2331 34.0533 78.2331 35.696C78.2331 37.8428 80.8037 38.3492 83.5633 38.9173C89.3327 40.1797 95.3548 42.5191 95.3548 48.9616C95.3548 56.2886 87.8904 58.9417 82.121 58.9417C75.7236 58.9417 71.3328 56.0366 69.6403 54.3939H69.6377Z" fill="#0E1218"/>
<path d="M97.8477 42.7088C97.8477 33.739 104.809 26.4121 113.841 26.4121C122.12 26.4121 128.77 33.6773 128.77 42.4568C128.77 43.7833 128.581 45.1742 128.581 45.1742H105.059C106.063 50.1642 110.078 52.7531 114.719 52.7531C117.854 52.7531 121.117 51.8044 123.626 50.0357L126.386 55.216C122.873 57.6171 118.732 58.9436 114.594 58.9436C105.751 58.9436 97.8477 53.0049 97.8477 42.7113V42.7088ZM121.995 39.9914C121.305 35.5077 117.729 32.5385 113.463 32.5385C109.45 32.5385 105.938 35.5077 104.996 39.9914H121.995Z" fill="#0E1218"/>
<path d="M140.062 59.0007C142.789 59.0007 145 56.7747 145 54.0287C145 51.2828 142.789 49.0566 140.062 49.0566C137.336 49.0566 135.126 51.2828 135.126 54.0287C135.126 56.7747 137.336 59.0007 140.062 59.0007Z" fill="#1565C0"/>
<path d="M143.464 39.7096V17.1992H136.662L128.309 23.2973L131.28 28.7912L136.536 25.8501V39.7404C137.667 39.4577 138.85 39.306 140.067 39.306C141.284 39.306 142.377 39.45 143.469 39.7122L143.464 39.7096Z" fill="#0E1218"/>
</g>
<defs>
<clipPath id="clip0_2101_4745">
<rect width="145" height="85" fill="white"/>
</clipPath>
</defs>
</svg>
