<svg width="145" height="85" viewBox="0 0 145 85" fill="none" xmlns="http://www.w3.org/2000/svg">
<path d="M117.148 63.775L107.963 70.5372C92.6764 65.338 72.8644 65.2638 56.4772 67.9576C48.1406 69.328 40.6059 71.4279 34.9348 73.9893C32.1012 75.2691 29.6834 76.6861 27.8569 78.2218C27.3488 78.649 26.8773 79.0932 26.4517 79.554C26.5075 77.9468 26.9684 76.4582 27.7686 75.0658C29.1913 72.59 31.7458 70.3227 35.2719 68.308C42.3307 64.2747 52.8362 61.5048 64.2041 59.9809C75.5422 58.461 87.59 58.1998 97.643 59.0938C102.67 59.5409 107.165 60.274 110.807 61.2687C113.485 62.0001 115.614 62.8503 117.148 63.775Z" fill="#FEEB46" stroke="#1E1E1E" stroke-width="2.89193"/>
<mask id="path-2-outside-1_2101_4716" maskUnits="userSpaceOnUse" x="28.098" y="18.631" width="38.8721" height="51.0696" fill="black">
<rect fill="white" x="28.098" y="18.631" width="38.8721" height="51.0696"/>
<path d="M49.6984 22.4972C51.5073 22.3885 53.1254 22.6166 54.5525 23.1812C55.9797 23.7459 57.1879 24.5307 58.177 25.5355C59.1662 26.5404 59.9127 27.7224 60.4165 29.0816C60.9413 30.4395 61.1954 31.858 61.1787 33.3371C61.167 34.5499 60.9652 35.7592 60.5732 36.9653C60.1794 38.1418 59.6358 39.2831 58.9422 40.3889C58.2487 41.4948 57.414 42.5353 56.4381 43.5103C55.4833 44.4841 54.4268 45.3457 53.2685 46.0952C53.7613 46.5681 54.2104 47.1915 54.6157 47.9654C55.0211 48.7392 55.3668 49.5758 55.653 50.475C55.9392 51.3743 56.1536 52.3074 56.2961 53.2744C56.4596 54.2401 56.5574 55.1654 56.5894 56.0504L56.812 59.2297C56.8454 59.4347 56.9209 59.6371 57.0385 59.837C57.1542 60.0074 57.3489 60.0844 57.6223 60.068C57.7906 60.0579 57.936 60.0196 58.0587 59.9531C58.12 59.9198 58.1709 59.8872 58.2112 59.8552C58.4109 59.6659 58.63 59.6231 58.8684 59.7271C59.1069 59.831 59.2866 60.0124 59.4077 60.2712C59.5499 60.5287 59.6 60.8361 59.5581 61.1933C59.539 61.5788 59.3508 61.9596 58.9934 62.3358C58.2822 63.1472 57.5576 63.7376 56.8199 64.107C56.0839 64.506 55.1935 64.6186 54.1486 64.4448C53.5526 64.3623 53.045 64.1711 52.6259 63.8711C52.2279 63.5698 51.899 63.1905 51.6393 62.7331C51.3796 62.2757 51.1804 61.7703 51.0416 61.2169C50.9257 60.6918 50.85 60.1346 50.8146 59.5455C50.7863 59.0742 50.7745 58.3506 50.7793 57.3748C50.784 56.399 50.7633 55.3508 50.7171 54.2302C50.671 53.1096 50.5722 51.9921 50.4208 50.8779C50.2677 49.7341 50.0183 48.744 49.6725 47.9074C49.4044 48.0122 49.0521 48.1221 48.6157 48.237C48.2003 48.3506 47.7841 48.4495 47.3669 48.5337C46.9498 48.6178 46.5852 48.6988 46.2732 48.7767C45.9595 48.8251 45.7816 48.8506 45.7395 48.8531L44.3805 59.4441C44.3351 59.7424 44.3396 59.9934 44.3941 60.1971C44.4468 60.3713 44.5196 60.5295 44.6126 60.6717C44.7056 60.814 44.8187 60.9402 44.952 61.0505C44.6998 61.4203 44.4028 61.7486 44.0611 62.0352C43.7808 62.2885 43.4251 62.5168 42.994 62.72C42.5857 62.9515 42.1186 63.083 41.5928 63.1146C40.6883 63.1689 39.9729 62.8571 39.4467 62.1792C38.9415 61.5 38.7465 60.7136 38.8617 59.8198L41.255 41.1406L42.2111 34.3873C42.2669 33.911 42.1905 33.5165 41.9817 33.2038C41.8887 33.0616 41.7756 32.9353 41.6423 32.8251C41.8963 32.4847 42.1932 32.1564 42.5331 31.8404C42.8135 31.5871 43.1578 31.3447 43.5661 31.1132C43.9744 30.8818 44.452 30.7496 44.9989 30.7168C45.9033 30.6625 46.6082 30.9749 47.1134 31.6541C47.6186 32.3332 47.8135 33.1197 47.6983 34.0135L46.7764 40.809L46.0852 46.1717C46.7773 45.7459 47.6018 45.2381 48.5586 44.6486C49.5364 44.0577 50.4747 43.3363 51.3734 42.4841C52.2705 41.6025 53.0526 40.5652 53.7198 39.3722C54.3852 38.1498 54.7727 36.6927 54.8823 35.0011C54.9501 34.0215 54.8716 33.0654 54.6467 32.1329C54.4411 31.1697 54.0524 30.321 53.4805 29.5867C52.9297 28.8512 52.188 28.2749 51.2552 27.8579C50.3206 27.4115 49.1803 27.2287 47.8341 27.3095C46.4038 27.3954 45.1384 27.767 44.0379 28.4243C42.9585 29.0803 42.0325 29.8307 41.2599 30.6752C40.5084 31.5185 39.8953 32.3831 39.4207 33.2689C38.9654 34.124 38.6371 34.8088 38.4358 35.3235C38.1278 36.1697 37.9065 37.0551 37.772 37.9796C37.6375 38.9041 37.602 39.7192 37.6655 40.4249C37.7272 41.1011 37.8844 41.609 38.137 41.9486C38.4106 42.2869 38.7919 42.3083 39.2808 42.0129C39.428 42.0041 39.5088 42.2949 39.5232 42.8852C39.5568 43.4449 39.4467 44.0723 39.1929 44.7675C38.9601 45.4614 38.5669 46.1206 38.0133 46.7451C37.458 47.3401 36.686 47.6673 35.6974 47.7267C35.1505 47.7595 34.6789 47.64 34.2826 47.3682C33.9056 47.0656 33.5767 46.6863 33.296 46.2301C33.0346 45.7433 32.8327 45.1937 32.6904 44.5815C32.5481 43.9692 32.4583 43.3538 32.4212 42.7352C32.3257 41.1446 32.494 39.5529 32.9261 37.9602C33.3565 36.338 33.9814 34.7928 34.801 33.3246C35.6206 31.8564 36.5936 30.4824 37.72 29.2027C38.8464 27.923 40.0667 26.8003 41.3809 25.8345C42.695 24.8688 44.0628 24.0919 45.4841 23.504C46.9053 22.9161 48.3101 22.5805 49.6984 22.4972Z"/>
</mask>
<path d="M49.6984 22.4972C51.5073 22.3885 53.1254 22.6166 54.5525 23.1812C55.9797 23.7459 57.1879 24.5307 58.177 25.5355C59.1662 26.5404 59.9127 27.7224 60.4165 29.0816C60.9413 30.4395 61.1954 31.858 61.1787 33.3371C61.167 34.5499 60.9652 35.7592 60.5732 36.9653C60.1794 38.1418 59.6358 39.2831 58.9422 40.3889C58.2487 41.4948 57.414 42.5353 56.4381 43.5103C55.4833 44.4841 54.4268 45.3457 53.2685 46.0952C53.7613 46.5681 54.2104 47.1915 54.6157 47.9654C55.0211 48.7392 55.3668 49.5758 55.653 50.475C55.9392 51.3743 56.1536 52.3074 56.2961 53.2744C56.4596 54.2401 56.5574 55.1654 56.5894 56.0504L56.812 59.2297C56.8454 59.4347 56.9209 59.6371 57.0385 59.837C57.1542 60.0074 57.3489 60.0844 57.6223 60.068C57.7906 60.0579 57.936 60.0196 58.0587 59.9531C58.12 59.9198 58.1709 59.8872 58.2112 59.8552C58.4109 59.6659 58.63 59.6231 58.8684 59.7271C59.1069 59.831 59.2866 60.0124 59.4077 60.2712C59.5499 60.5287 59.6 60.8361 59.5581 61.1933C59.539 61.5788 59.3508 61.9596 58.9934 62.3358C58.2822 63.1472 57.5576 63.7376 56.8199 64.107C56.0839 64.506 55.1935 64.6186 54.1486 64.4448C53.5526 64.3623 53.045 64.1711 52.6259 63.8711C52.2279 63.5698 51.899 63.1905 51.6393 62.7331C51.3796 62.2757 51.1804 61.7703 51.0416 61.2169C50.9257 60.6918 50.85 60.1346 50.8146 59.5455C50.7863 59.0742 50.7745 58.3506 50.7793 57.3748C50.784 56.399 50.7633 55.3508 50.7171 54.2302C50.671 53.1096 50.5722 51.9921 50.4208 50.8779C50.2677 49.7341 50.0183 48.744 49.6725 47.9074C49.4044 48.0122 49.0521 48.1221 48.6157 48.237C48.2003 48.3506 47.7841 48.4495 47.3669 48.5337C46.9498 48.6178 46.5852 48.6988 46.2732 48.7767C45.9595 48.8251 45.7816 48.8506 45.7395 48.8531L44.3805 59.4441C44.3351 59.7424 44.3396 59.9934 44.3941 60.1971C44.4468 60.3713 44.5196 60.5295 44.6126 60.6717C44.7056 60.814 44.8187 60.9402 44.952 61.0505C44.6998 61.4203 44.4028 61.7486 44.0611 62.0352C43.7808 62.2885 43.4251 62.5168 42.994 62.72C42.5857 62.9515 42.1186 63.083 41.5928 63.1146C40.6883 63.1689 39.9729 62.8571 39.4467 62.1792C38.9415 61.5 38.7465 60.7136 38.8617 59.8198L41.255 41.1406L42.2111 34.3873C42.2669 33.911 42.1905 33.5165 41.9817 33.2038C41.8887 33.0616 41.7756 32.9353 41.6423 32.8251C41.8963 32.4847 42.1932 32.1564 42.5331 31.8404C42.8135 31.5871 43.1578 31.3447 43.5661 31.1132C43.9744 30.8818 44.452 30.7496 44.9989 30.7168C45.9033 30.6625 46.6082 30.9749 47.1134 31.6541C47.6186 32.3332 47.8135 33.1197 47.6983 34.0135L46.7764 40.809L46.0852 46.1717C46.7773 45.7459 47.6018 45.2381 48.5586 44.6486C49.5364 44.0577 50.4747 43.3363 51.3734 42.4841C52.2705 41.6025 53.0526 40.5652 53.7198 39.3722C54.3852 38.1498 54.7727 36.6927 54.8823 35.0011C54.9501 34.0215 54.8716 33.0654 54.6467 32.1329C54.4411 31.1697 54.0524 30.321 53.4805 29.5867C52.9297 28.8512 52.188 28.2749 51.2552 27.8579C50.3206 27.4115 49.1803 27.2287 47.8341 27.3095C46.4038 27.3954 45.1384 27.767 44.0379 28.4243C42.9585 29.0803 42.0325 29.8307 41.2599 30.6752C40.5084 31.5185 39.8953 32.3831 39.4207 33.2689C38.9654 34.124 38.6371 34.8088 38.4358 35.3235C38.1278 36.1697 37.9065 37.0551 37.772 37.9796C37.6375 38.9041 37.602 39.7192 37.6655 40.4249C37.7272 41.1011 37.8844 41.609 38.137 41.9486C38.4106 42.2869 38.7919 42.3083 39.2808 42.0129C39.428 42.0041 39.5088 42.2949 39.5232 42.8852C39.5568 43.4449 39.4467 44.0723 39.1929 44.7675C38.9601 45.4614 38.5669 46.1206 38.0133 46.7451C37.458 47.3401 36.686 47.6673 35.6974 47.7267C35.1505 47.7595 34.6789 47.64 34.2826 47.3682C33.9056 47.0656 33.5767 46.6863 33.296 46.2301C33.0346 45.7433 32.8327 45.1937 32.6904 44.5815C32.5481 43.9692 32.4583 43.3538 32.4212 42.7352C32.3257 41.1446 32.494 39.5529 32.9261 37.9602C33.3565 36.338 33.9814 34.7928 34.801 33.3246C35.6206 31.8564 36.5936 30.4824 37.72 29.2027C38.8464 27.923 40.0667 26.8003 41.3809 25.8345C42.695 24.8688 44.0628 24.0919 45.4841 23.504C46.9053 22.9161 48.3101 22.5805 49.6984 22.4972Z" fill="#FEEB46"/>
<path d="M54.5525 23.1812L53.4885 25.8703L53.4885 25.8703L54.5525 23.1812ZM58.177 25.5355L56.1161 27.5643L56.1161 27.5643L58.177 25.5355ZM60.4165 29.0816L57.7049 30.0867C57.7095 30.0992 57.7142 30.1117 57.719 30.1242L60.4165 29.0816ZM61.1787 33.3371L58.2869 33.3044L58.2869 33.3094L61.1787 33.3371ZM60.5732 36.9653L63.3156 37.8831C63.3183 37.8751 63.3209 37.8672 63.3235 37.8592L60.5732 36.9653ZM58.9422 40.3889L61.3922 41.9255L61.3922 41.9255L58.9422 40.3889ZM56.4381 43.5103L54.3941 41.4645C54.3871 41.4715 54.3801 41.4785 54.3732 41.4856L56.4381 43.5103ZM53.2685 46.0952L51.6974 43.6672C50.9555 44.1473 50.4738 44.9403 50.3897 45.8201C50.3056 46.6998 50.6284 47.5697 51.2661 48.1817L53.2685 46.0952ZM54.6157 47.9654L57.1775 46.6235L57.1775 46.6235L54.6157 47.9654ZM55.653 50.475L58.4088 49.5979L58.4088 49.5979L55.653 50.475ZM56.2961 53.2744L53.4351 53.696C53.4381 53.7164 53.4413 53.7368 53.4448 53.7572L56.2961 53.2744ZM56.5894 56.0504L53.6994 56.155C53.7006 56.1875 53.7023 56.2199 53.7046 56.2523L56.5894 56.0504ZM56.812 59.2297L53.9271 59.4317C53.9333 59.5199 53.9435 59.6078 53.9578 59.6951L56.812 59.2297ZM57.0385 59.837L54.5457 61.303C54.5775 61.3571 54.6111 61.4102 54.6464 61.4621L57.0385 59.837ZM58.0587 59.9531L56.6806 57.4106L56.6806 57.4106L58.0587 59.9531ZM58.2112 59.8552L60.0089 62.1205C60.0753 62.0678 60.1394 62.0122 60.2009 61.9539L58.2112 59.8552ZM58.8684 59.7271L60.0239 57.076L60.0239 57.076L58.8684 59.7271ZM59.4077 60.2712L56.7884 61.4968C56.8156 61.555 56.8447 61.6122 56.8758 61.6685L59.4077 60.2712ZM59.5581 61.1933L56.6858 60.8566C56.6783 60.921 56.6729 60.9857 56.6697 61.0504L59.5581 61.1933ZM58.9934 62.3358L56.8967 60.344C56.8702 60.372 56.8442 60.4005 56.8188 60.4295L58.9934 62.3358ZM56.8199 64.107L55.5249 61.5213C55.497 61.5353 55.4692 61.5497 55.4418 61.5646L56.8199 64.107ZM54.1486 64.4448L54.6231 61.5921C54.5971 61.5877 54.571 61.5838 54.545 61.5802L54.1486 64.4448ZM52.6259 63.8711L50.8807 66.177C50.9011 66.1925 50.9217 66.2077 50.9426 66.2226L52.6259 63.8711ZM51.6393 62.7331L49.1244 64.1608L49.1244 64.1608L51.6393 62.7331ZM51.0416 61.2169L48.2177 61.8405C48.2236 61.8673 48.2299 61.8939 48.2366 61.9204L51.0416 61.2169ZM50.7793 57.3748L53.6712 57.3888L53.6712 57.3888L50.7793 57.3748ZM50.7171 54.2302L53.6066 54.1111L53.6066 54.1111L50.7171 54.2302ZM50.4208 50.8779L47.5545 51.2616L47.5552 51.2671L50.4208 50.8779ZM49.6725 47.9074L52.3451 46.8028C51.7434 45.3469 50.0871 44.6405 48.6199 45.2139L49.6725 47.9074ZM48.6157 48.237L47.8794 45.4403C47.8705 45.4427 47.8616 45.4451 47.8526 45.4475L48.6157 48.237ZM46.2732 48.7767L46.7141 51.6348C46.8013 51.6214 46.8879 51.6039 46.9735 51.5826L46.2732 48.7767ZM45.7395 48.8531L45.5662 45.9664C44.1795 46.0496 43.0479 47.1071 42.8711 48.485L45.7395 48.8531ZM44.3805 59.4441L47.2395 59.8793C47.2429 59.8569 47.2461 59.8345 47.249 59.8121L44.3805 59.4441ZM44.3941 60.1971L41.6003 60.944C41.6084 60.9742 41.6169 61.0042 41.626 61.0341L44.3941 60.1971ZM44.6126 60.6717L47.0332 59.0893L47.0332 59.0893L44.6126 60.6717ZM44.952 61.0505L47.3413 62.6797C48.1827 61.4457 47.9461 59.774 46.7952 58.8221L44.952 61.0505ZM44.0611 62.0352L42.2027 59.8194C42.1754 59.8423 42.1486 59.8657 42.1222 59.8895L44.0611 62.0352ZM42.994 62.72L41.7607 60.1043C41.6952 60.1352 41.6309 60.1685 41.5679 60.2042L42.994 62.72ZM39.4467 62.1792L37.1263 63.9052C37.1382 63.9211 37.1501 63.9369 37.1623 63.9525L39.4467 62.1792ZM38.8617 59.8198L41.7299 60.1895L41.7302 60.1873L38.8617 59.8198ZM41.255 41.1406L38.3916 40.7352C38.3898 40.7478 38.3881 40.7604 38.3865 40.773L41.255 41.1406ZM42.2111 34.3873L45.0745 34.7927C45.0777 34.7698 45.0807 34.7469 45.0833 34.724L42.2111 34.3873ZM41.9817 33.2038L39.5611 34.7862C39.5662 34.7941 39.5714 34.8019 39.5766 34.8097L41.9817 33.2038ZM41.6423 32.8251L39.3244 31.0958C38.403 32.3308 38.6117 34.0713 39.799 35.0535L41.6423 32.8251ZM42.5331 31.8404L40.5942 29.6948C40.584 29.7039 40.5739 29.7132 40.5639 29.7225L42.5331 31.8404ZM43.5661 31.1132L42.1399 28.5974L42.1399 28.5974L43.5661 31.1132ZM47.1134 31.6541L44.793 33.3801L44.793 33.3801L47.1134 31.6541ZM47.6983 34.0135L50.564 34.4022C50.5649 34.3959 50.5657 34.3896 50.5665 34.3832L47.6983 34.0135ZM46.7764 40.809L43.9108 40.4203C43.9099 40.4266 43.9091 40.433 43.9082 40.4393L46.7764 40.809ZM46.0852 46.1717L43.217 45.802C43.0745 46.9072 43.5797 47.9959 44.5155 48.6006C45.4514 49.2054 46.6515 49.2187 47.6006 48.6348L46.0852 46.1717ZM48.5586 44.6486L47.063 42.1734C47.0558 42.1778 47.0486 42.1821 47.0414 42.1865L48.5586 44.6486ZM51.3734 42.4841L53.3632 44.5827C53.3757 44.5708 53.3882 44.5588 53.4005 44.5467L51.3734 42.4841ZM53.7198 39.3722L56.2438 40.7838C56.2492 40.7742 56.2545 40.7646 56.2598 40.7549L53.7198 39.3722ZM54.8823 35.0011L51.9972 34.8013L51.9964 34.8143L54.8823 35.0011ZM54.6467 32.1329L51.8185 32.7367C51.8238 32.7615 51.8294 32.7862 51.8354 32.8109L54.6467 32.1329ZM53.4805 29.5867L51.1657 31.3201C51.1766 31.3347 51.1877 31.3492 51.1989 31.3636L53.4805 29.5867ZM51.2552 27.8579L50.0086 30.4674C50.0306 30.4779 50.0527 30.4881 50.0749 30.498L51.2552 27.8579ZM44.0379 28.4243L42.5549 25.9415C42.5486 25.9453 42.5422 25.9492 42.5359 25.953L44.0379 28.4243ZM41.2599 30.6752L39.1261 28.7233C39.1176 28.7325 39.1092 28.7418 39.1009 28.7512L41.2599 30.6752ZM39.4207 33.2689L36.8716 31.9032L36.8681 31.9097L39.4207 33.2689ZM38.4358 35.3235L35.7426 34.27C35.7343 34.2913 35.7262 34.3127 35.7184 34.3342L38.4358 35.3235ZM37.772 37.9796L34.9102 37.5633L34.9102 37.5633L37.772 37.9796ZM37.6655 40.4249L34.7852 40.684L34.7856 40.6877L37.6655 40.4249ZM38.137 41.9486L35.8166 43.6746C35.8399 43.706 35.8639 43.7368 35.8885 43.7672L38.137 41.9486ZM39.2808 42.0129L39.1075 39.1262C38.6399 39.1543 38.1861 39.2955 37.7852 39.5378L39.2808 42.0129ZM39.5232 42.8852L36.6321 42.9555C36.6329 42.9899 36.6344 43.0242 36.6364 43.0586L39.5232 42.8852ZM39.1929 44.7675L36.4763 43.7757C36.4676 43.7996 36.4592 43.8237 36.4511 43.8478L39.1929 44.7675ZM38.0133 46.7451L40.1275 48.7183C40.1444 48.7002 40.161 48.6819 40.1774 48.6634L38.0133 46.7451ZM34.2826 47.3682L32.4727 49.6237C32.5291 49.669 32.5872 49.7121 32.6468 49.753L34.2826 47.3682ZM33.296 46.2301L30.7482 47.5983C30.775 47.6483 30.8034 47.6975 30.8331 47.7458L33.296 46.2301ZM32.9261 37.9602L35.7171 38.7174C35.7186 38.7121 35.72 38.7069 35.7214 38.7017L32.9261 37.9602ZM34.801 33.3246L32.2758 31.915L32.2758 31.915L34.801 33.3246ZM41.3809 25.8345L43.0934 28.1649L43.0934 28.1649L41.3809 25.8345ZM45.4841 23.504L46.5894 26.1764L46.5894 26.1764L45.4841 23.504ZM49.8717 25.3839C51.3342 25.2961 52.5191 25.4868 53.4885 25.8703L55.6165 20.4922C53.7316 19.7464 51.6804 19.481 49.525 19.6104L49.8717 25.3839ZM53.4885 25.8703C54.5745 26.3 55.4339 26.8712 56.1161 27.5643L60.2379 23.5068C58.9419 22.1901 57.3848 21.1918 55.6165 20.4922L53.4885 25.8703ZM56.1161 27.5643C56.8103 28.2695 57.3391 29.0999 57.7049 30.0867L63.1281 28.0764C62.4863 26.3449 61.5221 24.8113 60.2379 23.5068L56.1161 27.5643ZM57.719 30.1242C58.1092 31.1336 58.2996 32.1867 58.2869 33.3044L64.0704 33.3698C64.0912 31.5292 63.7735 29.7453 63.114 28.039L57.719 30.1242ZM58.2869 33.3094C58.2782 34.2147 58.1281 35.1323 57.8229 36.0713L63.3235 37.8592C63.8023 36.3862 64.0559 34.885 64.0705 33.3648L58.2869 33.3094ZM57.8308 36.0474C57.5134 36.9959 57.0705 37.9304 56.4922 38.8524L61.3922 41.9255C62.2011 40.6357 62.8455 39.2877 63.3156 37.8831L57.8308 36.0474ZM56.4922 38.8524C55.9208 39.7637 55.2246 40.6347 54.3941 41.4645L58.4822 45.5561C59.6034 44.4358 60.5766 43.226 61.3922 41.9255L56.4922 38.8524ZM54.3732 41.4856C53.5694 42.3054 52.6788 43.0322 51.6974 43.6672L54.8396 48.5231C56.1747 47.6592 57.3972 46.6628 58.503 45.535L54.3732 41.4856ZM51.2661 48.1817C51.4806 48.3876 51.7552 48.7369 52.054 49.3072L57.1775 46.6235C56.6656 45.6462 56.042 44.7487 55.271 44.0087L51.2661 48.1817ZM52.054 49.3072C52.3753 49.9207 52.6581 50.6004 52.8973 51.3521L58.4088 49.5979C58.0756 48.5511 57.6668 47.5577 57.1775 46.6235L52.054 49.3072ZM52.8973 51.3521C53.1345 52.0974 53.3145 52.8779 53.4351 53.696L59.1571 52.8528C58.9927 51.7369 58.744 50.6511 58.4088 49.5979L52.8973 51.3521ZM53.4448 53.7572C53.5893 54.6108 53.6724 55.4093 53.6994 56.155L59.4795 55.9458C59.4424 54.9216 59.33 53.8694 59.1474 52.7915L53.4448 53.7572ZM53.7046 56.2523L53.9271 59.4317L59.6969 59.0278L59.4743 55.8484L53.7046 56.2523ZM53.9578 59.6951C54.0551 60.292 54.2679 60.8307 54.5457 61.303L59.5312 58.3709C59.5739 58.4435 59.6358 58.5774 59.6662 58.7644L53.9578 59.6951ZM54.6464 61.4621C55.5209 62.7493 56.8846 63.0094 57.7956 62.9547L57.449 57.1812C57.6093 57.1716 57.9378 57.1762 58.3352 57.3334C58.7682 57.5047 59.157 57.8092 59.4306 58.2118L54.6464 61.4621ZM57.7956 62.9547C58.2995 62.9244 58.8733 62.801 59.4368 62.4955L56.6806 57.4106C56.9988 57.2382 57.2817 57.1913 57.449 57.1812L57.7956 62.9547ZM59.4368 62.4955C59.5975 62.4084 59.8 62.2862 60.0089 62.1205L56.4134 57.5899C56.5417 57.4882 56.6426 57.4312 56.6806 57.4106L59.4368 62.4955ZM60.2009 61.9539C59.995 62.149 59.6219 62.4138 59.0787 62.5197C58.5222 62.6282 58.0399 62.5206 57.7129 62.3781L60.0239 57.076C59.4585 56.8296 58.7474 56.6915 57.9718 56.8427C57.2096 56.9913 56.627 57.3721 56.2214 57.7566L60.2009 61.9539ZM57.7129 62.3781C57.5028 62.2866 57.301 62.1512 57.1282 61.9769C56.9585 61.8057 56.8518 61.6325 56.7884 61.4968L62.0271 59.0455C61.6394 58.217 60.9729 57.4896 60.0239 57.076L57.7129 62.3781ZM56.8758 61.6685C56.6666 61.2894 56.6734 60.9629 56.6858 60.8566L62.4304 61.53C62.5266 60.7092 62.4332 59.768 61.9397 58.8738L56.8758 61.6685ZM56.6697 61.0504C56.6951 60.5376 56.943 60.2953 56.8967 60.344L61.0901 64.3276C61.7586 63.6239 62.383 62.62 62.4465 61.3363L56.6697 61.0504ZM56.8188 60.4295C56.282 61.0418 55.8427 61.3621 55.5249 61.5213L58.1149 66.6928C59.2726 66.113 60.2823 65.2525 61.168 64.2422L56.8188 60.4295ZM55.4418 61.5646C55.4071 61.5834 55.204 61.6887 54.6231 61.5921L53.6742 67.2976C55.1829 67.5485 56.7606 67.4286 58.198 66.6495L55.4418 61.5646ZM54.545 61.5802C54.4371 61.5652 54.3726 61.5454 54.3406 61.5333C54.3102 61.5219 54.3035 61.5155 54.3093 61.5196L50.9426 66.2226C51.8019 66.8378 52.7699 67.1735 53.7523 67.3095L54.545 61.5802ZM54.3712 61.5652C54.3034 61.5138 54.2303 61.4393 54.1542 61.3053L49.1244 64.1608C49.5677 64.9416 50.1523 65.6258 50.8807 66.177L54.3712 61.5652ZM54.1542 61.3053C54.0339 61.0934 53.9273 60.8347 53.8467 60.5134L48.2366 61.9204C48.4336 62.7059 48.7253 63.4579 49.1244 64.1608L54.1542 61.3053ZM53.8655 60.5933C53.7853 60.2299 53.7285 59.8242 53.7014 59.3722L47.9279 59.7188C47.9715 60.445 48.0661 61.1537 48.2177 61.8405L53.8655 60.5933ZM53.7014 59.3722C53.679 58.9991 53.6665 58.3533 53.6712 57.3888L47.8874 57.3608C47.8826 58.348 47.8937 59.1493 47.9279 59.7188L53.7014 59.3722ZM53.6712 57.3888C53.6762 56.3627 53.6543 55.2697 53.6066 54.1111L47.8276 54.3492C47.8723 55.4318 47.8919 56.4353 47.8874 57.3608L53.6712 57.3888ZM53.6066 54.1111C53.5567 52.8999 53.45 51.6923 53.2865 50.4886L47.5552 51.2671C47.6944 52.292 47.7852 53.3192 47.8276 54.3492L53.6066 54.1111ZM53.2872 50.4941C53.1095 49.167 52.8083 47.9233 52.3451 46.8028L46.9999 49.0121C47.2283 49.5646 47.4259 50.3013 47.5545 51.2616L53.2872 50.4941ZM48.6199 45.2139C48.4959 45.2623 48.2613 45.3398 47.8794 45.4403L49.3519 51.0336C49.8429 50.9044 50.3129 50.7621 50.7251 50.601L48.6199 45.2139ZM47.8526 45.4475C47.4997 45.5441 47.1471 45.6278 46.7949 45.6989L47.9389 51.3685C48.421 51.2712 48.901 51.1571 49.3788 51.0264L47.8526 45.4475ZM46.7949 45.6989C46.3476 45.7891 45.9385 45.8796 45.573 45.9708L46.9735 51.5826C47.2319 51.5181 47.5519 51.4465 47.9389 51.3685L46.7949 45.6989ZM45.8323 45.9186C45.6793 45.9422 45.5683 45.9588 45.4948 45.9693C45.4573 45.9747 45.4379 45.9773 45.4315 45.9781C45.4283 45.9785 45.4354 45.9776 45.4493 45.9761C45.4565 45.9753 45.4693 45.9739 45.486 45.9724C45.5012 45.971 45.5296 45.9686 45.5662 45.9664L45.9128 51.7398C46.1293 51.7268 46.4997 51.6679 46.7141 51.6348L45.8323 45.9186ZM42.8711 48.485L41.5121 59.076L47.249 59.8121L48.6079 49.2211L42.8711 48.485ZM41.5215 59.0089C41.44 59.5443 41.4084 60.2264 41.6003 60.944L47.1879 59.4502C47.2315 59.6134 47.2401 59.738 47.2413 59.8041C47.2425 59.8703 47.2366 59.8983 47.2395 59.8793L41.5215 59.0089ZM41.626 61.0341C41.7527 61.4534 41.9379 61.8655 42.192 62.2542L47.0332 59.0893C47.1013 59.1935 47.1408 59.2892 47.1622 59.36L41.626 61.0341ZM42.192 62.2542C42.4468 62.6438 42.7557 62.9868 43.1087 63.2788L46.7952 58.8221C46.8817 58.8936 46.9644 58.9841 47.0332 59.0893L42.192 62.2542ZM42.5626 59.4212C42.4591 59.5731 42.3406 59.7038 42.2027 59.8194L45.9196 64.2509C46.4651 63.7934 46.9404 63.2676 47.3413 62.6797L42.5626 59.4212ZM42.1222 59.8895C42.0994 59.9101 41.9987 59.9921 41.7607 60.1043L44.2273 65.3358C44.8515 65.0415 45.4623 64.6668 46.0001 64.1808L42.1222 59.8895ZM41.5679 60.2042C41.573 60.2013 41.5707 60.2038 41.5537 60.2086C41.5355 60.2137 41.4932 60.2234 41.4194 60.2278L41.7661 66.0013C42.678 65.9466 43.5833 65.7103 44.4201 65.2359L41.5679 60.2042ZM41.4194 60.2278C41.3491 60.2321 41.4103 60.2168 41.5334 60.2704C41.5904 60.2952 41.6404 60.3264 41.6794 60.3576C41.7175 60.3879 41.7333 60.4086 41.7311 60.4059L37.1623 63.9525C38.3116 65.4331 39.972 66.109 41.7661 66.0013L41.4194 60.2278ZM41.7671 60.4532C41.7477 60.4271 41.739 60.4105 41.7354 60.4031C41.732 60.3959 41.7301 60.3904 41.7285 60.384C41.7265 60.3761 41.7131 60.3203 41.7299 60.1895L35.9935 59.45C35.7893 61.034 36.143 62.5833 37.1263 63.9052L41.7671 60.4532ZM41.7302 60.1873L44.1235 41.5081L38.3865 40.773L35.9932 59.4523L41.7302 60.1873ZM44.1183 41.5459L45.0745 34.7927L39.3477 33.9819L38.3916 40.7352L44.1183 41.5459ZM45.0833 34.724C45.1966 33.758 45.0726 32.6251 44.3867 31.5979L39.5766 34.8097C39.4532 34.6249 39.3863 34.4381 39.3565 34.2844C39.3284 34.1393 39.3386 34.0526 39.3388 34.0506L45.0833 34.724ZM44.4023 31.6214C44.1475 31.2317 43.8386 30.8887 43.4856 30.5967L39.799 35.0535C39.7126 34.982 39.6299 34.8915 39.5611 34.7862L44.4023 31.6214ZM43.9602 34.5544C44.1008 34.3659 44.2785 34.1664 44.5023 33.9583L40.5639 29.7225C40.1079 30.1465 39.6918 30.6034 39.3244 31.0958L43.9602 34.5544ZM44.4721 33.986C44.5632 33.9037 44.7256 33.7802 44.9922 33.6291L42.1399 28.5974C41.5899 28.9092 41.0637 29.2704 40.5942 29.6948L44.4721 33.986ZM44.9922 33.6291C44.9788 33.6366 44.9788 33.6341 45.0017 33.6277C45.026 33.621 45.08 33.6091 45.1722 33.6035L44.8255 27.8301C43.9117 27.8849 42.9913 28.1148 42.1399 28.5974L44.9922 33.6291ZM45.1722 33.6035C45.2438 33.5992 45.1723 33.6155 45.0339 33.5542C44.969 33.5254 44.9109 33.4887 44.864 33.4503C44.8183 33.4128 44.7962 33.3844 44.793 33.3801L49.4337 29.928C48.299 28.4025 46.6219 27.7222 44.8255 27.8301L45.1722 33.6035ZM44.793 33.3801C44.8124 33.4061 44.8211 33.4227 44.8247 33.4302C44.8281 33.4374 44.83 33.4428 44.8316 33.4492C44.8335 33.4572 44.847 33.513 44.8301 33.6438L50.5665 34.3832C50.7707 32.7992 50.4171 31.25 49.4337 29.928L44.793 33.3801ZM44.8327 33.6247L43.9108 40.4203L49.6421 41.1978L50.564 34.4022L44.8327 33.6247ZM43.9082 40.4393L43.217 45.802L48.9534 46.5415L49.6446 41.1788L43.9082 40.4393ZM47.6006 48.6348C48.2935 48.2085 49.1185 47.7004 50.0757 47.1106L47.0414 42.1865C46.085 42.7759 45.2612 43.2832 44.5697 43.7087L47.6006 48.6348ZM50.0542 47.1237C51.2239 46.4169 52.3262 45.5659 53.3632 44.5827L49.3837 40.3855C48.6231 41.1066 47.8488 41.6986 47.063 42.1734L50.0542 47.1237ZM53.4005 44.5467C54.5094 43.4568 55.4542 42.1956 56.2438 40.7838L51.1958 37.9606C50.6509 38.9348 50.0315 39.7482 49.3463 40.4216L53.4005 44.5467ZM56.2598 40.7549C57.1648 39.0923 57.6373 37.2091 57.7681 35.188L51.9964 34.8143C51.9082 36.1764 51.6056 37.2073 51.1798 37.9896L56.2598 40.7549ZM57.7673 35.2009C57.855 33.9337 57.7538 32.6814 57.4581 31.455L51.8354 32.8109C51.9894 33.4495 52.0452 34.1093 51.9972 34.8013L57.7673 35.2009ZM57.4749 31.5292C57.1835 30.1642 56.6181 28.9089 55.7622 27.8098L51.1989 31.3636C51.4867 31.7331 51.6987 32.1753 51.8185 32.7367L57.4749 31.5292ZM55.7954 27.8533C54.9177 26.6812 53.7661 25.8126 52.4354 25.2178L50.0749 30.498C50.6098 30.7372 50.9418 31.0211 51.1657 31.3201L55.7954 27.8533ZM52.5018 25.2484C51.0113 24.5364 49.3526 24.3212 47.6608 24.4228L48.0074 30.1962C49.008 30.1361 49.63 30.2865 50.0086 30.4674L52.5018 25.2484ZM47.6608 24.4228C45.8231 24.5331 44.0982 25.0197 42.5549 25.9415L45.5209 30.907C46.1785 30.5142 46.9845 30.2576 48.0074 30.1962L47.6608 24.4228ZM42.5359 25.953C41.2463 26.7368 40.1016 27.6568 39.1261 28.7233L43.3937 32.6272C43.9633 32.0045 44.6706 31.4239 45.5399 30.8956L42.5359 25.953ZM39.1009 28.7512C38.2162 29.7439 37.4661 30.7935 36.8716 31.9032L41.9699 34.6346C42.3245 33.9726 42.8005 33.2932 43.4189 32.5993L39.1009 28.7512ZM36.8681 31.9097C36.3929 32.8021 36.0042 33.6013 35.7426 34.27L41.129 36.377C41.2701 36.0163 41.5379 35.4458 41.9734 34.6281L36.8681 31.9097ZM35.7184 34.3342C35.3403 35.3728 35.072 36.4507 34.9102 37.5633L40.6338 38.3959C40.7409 37.6595 40.9153 36.9666 41.1533 36.3127L35.7184 34.3342ZM34.9102 37.5633C34.7528 38.6451 34.6963 39.695 34.7852 40.684L40.5458 40.1658C40.5078 39.7433 40.5222 39.1631 40.6338 38.3959L34.9102 37.5633ZM34.7856 40.6877C34.8692 41.6038 35.1087 42.7229 35.8166 43.6746L40.4574 40.2225C40.5145 40.2993 40.5495 40.3631 40.569 40.4035C40.5884 40.4435 40.5942 40.4641 40.5924 40.4581C40.5906 40.4522 40.5829 40.4259 40.5735 40.3748C40.5641 40.324 40.5539 40.2539 40.5455 40.162L34.7856 40.6877ZM35.8885 43.7672C36.4595 44.4733 37.3424 45.0426 38.4657 45.1058C39.4605 45.1617 40.2662 44.7964 40.7764 44.4881L37.7852 39.5378C37.8065 39.5249 38.1771 39.2965 38.7906 39.331C39.5327 39.3728 40.0881 39.7622 40.3855 40.1299L35.8885 43.7672ZM39.4541 44.8997C38.3416 44.9665 37.5377 44.3848 37.1302 43.8811C36.7979 43.4702 36.6899 43.0867 36.6654 42.9986C36.6071 42.7887 36.6263 42.7174 36.6321 42.9555L42.4142 42.815C42.4057 42.4627 42.3773 41.9509 42.2382 41.4502C42.1733 41.2167 42.0167 40.7253 41.6273 40.2438C41.1629 39.6696 40.2936 39.055 39.1075 39.1262L39.4541 44.8997ZM36.6364 43.0586C36.64 43.1174 36.6355 43.3398 36.4763 43.7757L41.9094 45.7593C42.2579 44.8049 42.4736 43.7724 42.4099 42.7119L36.6364 43.0586ZM36.4511 43.8478C36.358 44.1253 36.1811 44.4524 35.8493 44.8267L40.1774 48.6634C40.9527 47.7888 41.5622 46.7975 41.9347 45.6872L36.4511 43.8478ZM35.8992 44.7719C35.8988 44.7723 35.8995 44.7715 35.9013 44.77C35.903 44.7685 35.9048 44.7671 35.9061 44.7662C35.9097 44.7637 35.9059 44.7671 35.8893 44.7741C35.856 44.7882 35.7477 44.8265 35.5241 44.8399L35.8707 50.6134C37.4298 50.5198 38.9611 49.968 40.1275 48.7183L35.8992 44.7719ZM35.5241 44.8399C35.5108 44.8407 35.5573 44.8364 35.6439 44.8583C35.7347 44.8813 35.8317 44.9238 35.9184 44.9833L32.6468 49.753C33.6466 50.4388 34.7761 50.6791 35.8707 50.6134L35.5241 44.8399ZM36.0925 45.1126C36.0003 45.0386 35.8846 44.9187 35.7589 44.7145L30.8331 47.7458C31.2688 48.4539 31.8109 49.0926 32.4727 49.6237L36.0925 45.1126ZM35.8438 44.862C35.7184 44.6284 35.5995 44.3238 35.5072 43.9267L29.8735 45.2362C30.0659 46.0637 30.3508 46.8582 30.7482 47.5983L35.8438 44.862ZM35.5072 43.9267C35.4012 43.4704 35.3352 43.016 35.3079 42.5619L29.5345 42.9085C29.5815 43.6916 29.695 44.468 29.8735 45.2362L35.5072 43.9267ZM35.3079 42.5619C35.2319 41.2957 35.3643 40.0181 35.7171 38.7174L30.1351 37.2029C29.6237 39.0877 29.4195 40.9935 29.5345 42.9085L35.3079 42.5619ZM35.7214 38.7017C36.0898 37.313 36.6239 35.9922 37.3261 34.7341L32.2758 31.915C31.339 33.5933 30.6232 35.3629 30.1309 37.2186L35.7214 38.7017ZM37.3261 34.7341C38.0443 33.4476 38.898 32.2413 39.8908 31.1135L35.5492 27.2919C34.2891 28.7235 33.1968 30.2651 32.2758 31.915L37.3261 34.7341ZM39.8908 31.1135C40.8862 29.9827 41.954 29.0022 43.0934 28.1649L39.6683 23.5042C38.1794 24.5984 36.8067 25.8634 35.5492 27.2919L39.8908 31.1135ZM43.0934 28.1649C44.231 27.3289 45.3962 26.67 46.5894 26.1764L44.3787 20.8317C42.7294 21.5139 41.1591 22.4087 39.6683 23.5042L43.0934 28.1649ZM46.5894 26.1764C47.7453 25.6983 48.836 25.4461 49.8717 25.3839L49.525 19.6104C47.7843 19.7149 46.0654 20.134 44.3787 20.8317L46.5894 26.1764Z" fill="#1E1E1E" mask="url(#path-2-outside-1_2101_4716)"/>
<ellipse cx="60.4837" cy="58.7102" rx="1.70931" ry="1.57347" fill="#1E1E1E"/>
<ellipse cx="94.0814" cy="57.1477" rx="1.70931" ry="1.57347" fill="#1E1E1E"/>
<ellipse cx="47.6927" cy="56.185" rx="1.70931" ry="6.61083" fill="#1E1E1E"/>
<path d="M67.3049 31.4383C67.3049 35.0894 67.8356 40.2011 66.8916 40.2011C65.9476 40.2011 61.0635 42.7775 61.0635 39.1264C61.0635 35.4754 63.2961 29.9916 64.2401 29.9916C65.1842 29.9916 67.3049 27.7872 67.3049 31.4383Z" fill="#1E1E1E"/>
<path d="M53.6351 33.5105C53.6351 36.3051 51.0281 42.0797 49.3901 42.0797C47.7521 42.0797 49.0958 36.939 49.0958 34.1444C49.0958 31.3499 46.0655 28.5977 47.7034 28.5977C49.3414 28.5977 53.6351 30.7159 53.6351 33.5105Z" fill="#1E1E1E"/>
<path d="M60.0801 46.0566C58.6253 47.6891 56.8746 48.5032 56.1699 47.8752C55.4651 47.2471 56.0732 45.4146 57.528 43.7821C58.9828 42.1497 64.3101 35.9339 60.4953 42.8052C67.5136 39.6582 61.535 44.4242 60.0801 46.0566Z" fill="#1E1E1E"/>
<g clip-path="url(#clip0_2101_4716)">
<path fill-rule="evenodd" clip-rule="evenodd" d="M106.395 40.7958C107.722 40.753 109.041 40.6985 110.36 40.609C110.979 40.5662 111.438 39.4803 110.637 39.4414C110.03 39.3986 109.423 39.3635 108.812 39.3324C109.096 39.1884 109.201 38.6942 108.882 38.554C108.882 35.2965 109.088 32.5604 108.104 29.4001C107.175 26.3952 105.386 23.7292 102.956 21.733C100.571 19.787 97.3996 18.4326 94.5358 17.4206C92.6006 16.7354 90.5778 16.3292 88.5281 16.2141C88.628 15.8069 88.5883 15.3779 88.4153 14.996C88.0262 14.1436 87.073 13.988 86.2442 14.2409C85.5688 14.4487 84.9587 14.8282 84.4738 15.3423C84.3318 15.4774 84.2329 15.6514 84.1893 15.8425C84.1457 16.0336 84.1594 16.2332 84.2286 16.4166C79.007 17.1521 73.7153 19.6819 70.1668 23.5661C68.2174 25.7144 67.1007 28.4583 66.3419 31.206C65.6727 33.6229 64.9295 37.0439 66.5209 39.204C66.5505 39.244 66.5934 39.2723 66.6418 39.2836C66.6903 39.2951 66.7412 39.2889 66.7855 39.2663C66.8602 39.2404 66.9226 39.1877 66.9606 39.1183C67.7583 39.2468 68.5715 39.3285 69.3925 39.383C68.0384 39.4725 66.6921 39.601 65.3575 39.7722C65.1241 39.8073 65.0268 40.2081 65.307 40.247C68.7855 40.7413 72.3924 40.6362 75.902 40.6596L83.824 40.6985L84.6723 40.7102H85.3687L86.0068 40.7141H86.571L87.6177 40.7375H88.0924L89.0885 40.7219C90.2557 40.7219 91.423 40.7452 92.5903 40.7608L93.3607 40.7802L94.4424 40.7997L95.2595 40.8113C98.2283 40.862 101.205 40.8931 104.166 40.8503L106.395 40.7958Z" fill="#1E1E1E"/>
</g>
<path fill-rule="evenodd" clip-rule="evenodd" d="M104.611 39.802C105.808 39.7633 106.999 39.7142 108.19 39.6336C108.748 39.595 109.162 38.6164 108.439 38.5813C107.891 38.5428 107.343 38.5112 106.792 38.4832C107.048 38.3533 107.143 37.9079 106.855 37.7816C106.855 34.8459 107.041 32.3802 106.152 29.5321C105.315 26.8241 103.699 24.4215 101.506 22.6225C99.3528 20.8688 96.4904 19.6482 93.9054 18.7362C92.1585 18.1187 90.3326 17.7526 88.4825 17.6489C88.5726 17.282 88.5368 16.8953 88.3807 16.5511C88.0295 15.783 87.169 15.6427 86.4209 15.8707C85.8112 16.058 85.2606 16.4 84.8228 16.8633C84.6947 16.985 84.6053 17.1418 84.566 17.314C84.5266 17.4862 84.539 17.6661 84.6015 17.8314C79.8882 18.4942 75.1116 20.7741 71.9085 24.2745C70.1489 26.2106 69.1409 28.6833 68.456 31.1596C67.8519 33.3377 67.1811 36.4208 68.6175 38.3674C68.6442 38.4035 68.6829 38.4289 68.7266 38.4392C68.7704 38.4495 68.8164 38.4439 68.8564 38.4235C68.9238 38.4002 68.9801 38.3527 69.0144 38.2902C69.7344 38.406 70.4685 38.4796 71.2095 38.5287C69.9873 38.6094 68.7721 38.7251 67.5674 38.8795C67.3567 38.9111 67.2689 39.2723 67.5217 39.3074C70.6616 39.7529 73.9174 39.6581 77.0854 39.6792L84.2363 39.7142L85.002 39.7248H85.6306L86.2066 39.7283H86.7159L87.6607 39.7493H88.0892L88.9883 39.7353C90.0419 39.7353 91.0956 39.7564 92.1492 39.7703L92.8447 39.7879L93.8211 39.8055L94.5586 39.8159C97.2384 39.8616 99.9253 39.8896 102.598 39.8511L104.611 39.802ZM86.2312 16.8773C85.9696 16.9932 85.7231 17.1405 85.4972 17.3158C85.2794 17.4876 85.2794 17.5437 85.3988 17.7296C86.0638 17.6584 86.732 17.6222 87.4008 17.6209C87.4336 17.5735 87.4754 17.533 87.5237 17.5016L87.6185 17.4455C87.6712 16.7125 86.8177 16.6037 86.2312 16.8773ZM77.8827 37.6764C74.9676 37.6764 71.912 37.5432 69.025 37.978C69.0049 37.9597 68.9809 37.946 68.9549 37.9381C68.9288 37.9301 68.9013 37.9281 68.8744 37.9321C68.8475 37.9361 68.8218 37.9461 68.7992 37.9614C68.7776 37.9759 68.7593 37.995 68.7457 38.0173C68.7452 38.0183 68.7446 38.0193 68.744 38.0202C68.7446 38.0192 68.7451 38.0182 68.7457 38.0173C68.8182 37.88 68.6211 36.1019 68.6316 35.6912C68.6613 34.9986 68.7352 34.3085 68.8529 33.6253C69.0461 32.4088 69.3338 31.2091 69.7134 30.0372C70.5012 27.5041 71.97 25.2355 73.9596 23.4783C77.391 20.4268 82.4591 18.7432 87.0039 18.5679C91.921 18.3714 97.6915 20.49 101.513 23.5274C103.62 25.2075 104.944 27.8732 105.727 30.3915C106.511 32.9098 106.265 35.1966 106.258 37.7185C100.087 37.1959 93.7192 37.6308 87.5343 37.6379C84.3206 37.6343 81.0999 37.6624 77.8827 37.6764Z" fill="#FEEB46"/>
<path fill-rule="evenodd" clip-rule="evenodd" d="M68.7457 38.0173C68.7451 38.0182 68.7446 38.0192 68.744 38.0202C68.7446 38.0193 68.7452 38.0183 68.7457 38.0173Z" fill="#FEEB46"/>
<path d="M111.058 39.7223C111.058 42.6443 110.456 47.8265 83.7295 49.5425C62.3565 49.5425 59.5557 42.6442 59.5557 39.7222C63.1666 39.4535 68.6364 38.9609 83.7295 38.9609C98.8226 38.9609 108.813 39.5155 111.058 39.7223Z" fill="#1E1E1E"/>
<mask id="path-13-outside-2_2101_4716" maskUnits="userSpaceOnUse" x="55.7744" y="32.0625" width="57" height="29" fill="black">
<rect fill="white" x="55.7744" y="32.0625" width="57" height="29"/>
<path d="M71.6199 51.7759C71.7463 51.6074 71.8939 51.5126 72.0624 51.4915C72.2521 51.4494 72.4101 51.4705 72.5366 51.5547C72.6841 51.639 72.7683 51.7864 72.7894 51.997C72.8105 52.1866 72.7157 52.4394 72.5049 52.7553C72.1256 53.3661 71.641 53.9348 71.051 54.4614C70.482 54.988 69.8604 55.4619 69.1861 55.8831C68.5118 56.2833 67.7953 56.5993 67.0368 56.831C66.2782 57.0627 65.5196 57.1785 64.761 57.1785C63.7074 57.1785 62.7802 56.9995 61.9795 56.6414C61.1787 56.2623 60.5255 55.7778 60.0198 55.1881C59.514 54.5983 59.1558 53.9454 58.9451 53.2292C58.7554 52.492 58.7238 51.7759 58.8503 51.0808C59.0821 49.796 59.4508 48.6796 59.9566 47.7318C60.4834 46.7629 61.105 45.9625 61.8214 45.3307C62.5379 44.6988 63.3175 44.2249 64.1604 43.9089C65.0244 43.593 65.9199 43.435 66.8471 43.435C67.3107 43.435 67.7743 43.5192 68.2379 43.6877C68.7014 43.8562 69.1123 44.0985 69.4706 44.4144C69.8499 44.7093 70.1343 45.0779 70.324 45.5202C70.5136 45.9625 70.5663 46.447 70.482 46.9736C70.4188 47.5423 70.2292 48.0583 69.9131 48.5217C69.6181 48.964 69.2493 49.3537 68.8068 49.6907C68.3854 50.0277 67.9112 50.312 67.3844 50.5437C66.8576 50.7543 66.3308 50.9018 65.804 50.986C65.488 51.0492 65.1613 51.0703 64.8242 51.0492C64.5081 51.0282 64.2236 50.986 63.9708 50.9228C63.8022 51.7443 63.8233 52.4078 64.034 52.9133C64.2447 53.4188 64.5186 53.8085 64.8558 54.0823C65.193 54.3561 65.5406 54.5457 65.8989 54.651C66.2782 54.7352 66.5521 54.7773 66.7207 54.7773C67.1632 54.7773 67.6162 54.6931 68.0798 54.5246C68.5434 54.335 68.9965 54.1033 69.439 53.8295C69.8815 53.5346 70.2924 53.2082 70.6717 52.8501C71.051 52.492 71.3671 52.134 71.6199 51.7759ZM67.3528 45.5202C67.2264 45.5202 67.0473 45.5834 66.8155 45.7098C66.5837 45.8151 66.3308 46.0152 66.0569 46.3101C65.783 46.605 65.488 47.0051 65.1719 47.5107C64.8769 48.0162 64.6029 48.6691 64.3501 49.4695C64.6872 49.4063 65.0454 49.2905 65.4247 49.122C65.804 48.9324 66.1517 48.7007 66.4678 48.4269C66.7839 48.1531 67.0473 47.8371 67.258 47.4791C67.4898 47.121 67.6162 46.7313 67.6373 46.3101C67.6584 46.0784 67.6478 45.8888 67.6057 45.7414C67.5636 45.5939 67.4793 45.5202 67.3528 45.5202Z"/>
<path d="M81.0102 47.8898C80.5466 47.8898 80.1673 47.7634 79.8723 47.5107C79.5773 47.2368 79.4298 46.9209 79.4298 46.5628C79.4298 46.3733 79.4825 46.2258 79.5879 46.1205C79.7143 45.9941 79.8407 45.8888 79.9672 45.8046C80.0936 45.6993 80.2095 45.615 80.3148 45.5518C80.4413 45.4676 80.5045 45.3833 80.5045 45.2991C80.5045 45.2148 80.4518 45.0884 80.3464 44.9199C80.2622 44.7304 79.9882 44.6356 79.5246 44.6356C79.3561 44.6356 79.1664 44.6777 78.9557 44.762C78.766 44.8251 78.5869 44.9305 78.4184 45.0779C78.2498 45.2253 78.1023 45.4149 77.9758 45.6466C77.8705 45.8572 77.8178 46.0994 77.8178 46.3733C77.8178 46.8366 78.0391 47.279 78.4816 47.7002C78.9452 48.1215 79.4509 48.5743 79.9988 49.0588C80.5677 49.5222 81.0734 50.0487 81.5159 50.6385C81.9795 51.2283 82.2113 51.9128 82.2113 52.6921C82.2113 53.3661 82.0217 53.998 81.6424 54.5878C81.2842 55.1565 80.789 55.6515 80.1568 56.0727C79.5246 56.494 78.7977 56.831 77.9758 57.0837C77.1751 57.3154 76.3322 57.4313 75.4472 57.4313C74.7729 57.4313 74.1513 57.326 73.5823 57.1153C73.0134 56.8836 72.5287 56.5888 72.1284 56.2307C71.728 55.8726 71.4224 55.4619 71.2117 54.9985C70.9799 54.5141 70.864 54.0296 70.864 53.5452C70.864 52.7448 71.0642 52.1656 71.4646 51.8075C71.865 51.4494 72.318 51.2704 72.8237 51.2704C73.3505 51.2704 73.7298 51.4389 73.9616 51.7759C74.1934 52.0918 74.3093 52.4078 74.3093 52.7237C74.3093 53.0397 74.2356 53.2714 74.0881 53.4188C73.9406 53.5662 73.8668 53.7242 73.8668 53.8927C73.8668 54.1665 73.9932 54.4193 74.2461 54.651C74.499 54.8827 74.7413 54.9985 74.9731 54.9985C75.3313 54.9985 75.6579 54.8721 75.9529 54.6194C76.2479 54.3456 76.3954 53.998 76.3954 53.5768C76.3954 53.2819 76.1953 52.9659 75.7949 52.6289C75.3945 52.2709 74.952 51.8707 74.4674 51.4284C73.9827 50.965 73.5402 50.4279 73.1398 49.817C72.7395 49.2062 72.5393 48.4795 72.5393 47.637C72.5393 47.0894 72.6973 46.5523 73.0134 46.0257C73.3295 45.4781 73.7509 44.9936 74.2777 44.5724C74.8256 44.1511 75.4577 43.8141 76.1742 43.5614C76.8906 43.2876 77.6598 43.1506 78.4816 43.1506C79.3034 43.1506 80.0093 43.2349 80.5993 43.4034C81.1893 43.5719 81.674 43.7931 82.0533 44.0669C82.4537 44.3407 82.7487 44.6566 82.9383 45.0147C83.128 45.3517 83.2228 45.6993 83.2228 46.0573C83.2228 46.4154 83.1385 46.7208 82.9699 46.9736C82.8013 47.2052 82.5906 47.3948 82.3378 47.5423C82.106 47.6686 81.8636 47.7634 81.6108 47.8266C81.3579 47.8687 81.1577 47.8898 81.0102 47.8898Z"/>
<path d="M94.032 51.6179C94.1584 51.4494 94.3059 51.3441 94.4745 51.302C94.6641 51.2598 94.8222 51.2809 94.9486 51.3652C95.075 51.4494 95.1488 51.5969 95.1699 51.8075C95.212 51.997 95.1383 52.2498 94.9486 52.5657C94.8433 52.7553 94.5588 53.0923 94.0952 53.5768C93.6316 54.0612 93.0521 54.5667 92.3568 55.0933C91.6825 55.5988 90.9133 56.0622 90.0494 56.4834C89.2065 56.8836 88.3425 57.1153 87.4575 57.1785C86.7621 57.2206 86.1405 57.0943 85.5926 56.7994C85.0448 56.4834 84.6023 56.0727 84.2651 55.5672C83.949 55.0406 83.7383 54.4509 83.6329 53.7979C83.5276 53.1239 83.5697 52.4499 83.7594 51.7759L85.9719 43.9089C85.4873 43.951 85.0237 44.0563 84.5812 44.2248C84.4548 44.0985 84.381 43.8878 84.3599 43.593C84.3389 43.2981 84.4021 43.0032 84.5496 42.7083C84.6971 42.3924 84.9394 42.1186 85.2766 41.8869C85.6137 41.6552 86.0668 41.5393 86.6357 41.5393L87.7736 37.5585C87.8579 37.2004 87.8052 36.9055 87.6156 36.6738C87.5313 36.5685 87.4259 36.4737 87.2995 36.3895C87.5734 36.1578 87.8895 35.9366 88.2477 35.726C88.5427 35.5575 88.9009 35.41 89.3224 35.2837C89.7649 35.1362 90.2601 35.0625 90.808 35.0625C91.693 35.0625 92.3673 35.3153 92.8309 35.8208C93.2945 36.3052 93.442 36.8634 93.2734 37.4953L91.9459 42.2028C92.1355 42.266 92.3568 42.3081 92.6096 42.3292C92.8836 42.3292 93.147 42.3187 93.3998 42.2976C93.6527 42.2555 93.8845 42.2028 94.0952 42.1396C94.327 42.0554 94.5061 41.9711 94.6325 41.8869C94.759 42.0132 94.8327 42.2344 94.8538 42.5504C94.8959 42.8663 94.8538 43.1928 94.7274 43.5298C94.6009 43.8457 94.3797 44.1301 94.0636 44.3828C93.7475 44.6145 93.3155 44.7304 92.7677 44.7304C92.4937 44.7304 92.2093 44.7198 91.9142 44.6988C91.6192 44.6566 91.4085 44.604 91.2821 44.5408L88.8799 53.1028C88.8377 53.3345 88.8483 53.5346 88.9115 53.7031C88.9958 53.8506 89.1011 53.9664 89.2276 54.0507C89.3751 54.1349 89.5331 54.1876 89.7017 54.2087C89.8913 54.2297 90.0704 54.2192 90.239 54.1771C90.4919 54.0928 90.7869 53.9664 91.124 53.7979C91.4823 53.6294 91.83 53.4399 92.1671 53.2292C92.5253 52.9975 92.8625 52.7448 93.1786 52.471C93.5157 52.1971 93.8002 51.9128 94.032 51.6179Z"/>
<path d="M103.139 43.0243C104.256 43.0243 105.215 43.2244 106.015 43.6246C106.837 44.0248 107.49 44.5619 107.975 45.2359C108.46 45.8888 108.765 46.6576 108.892 47.5423C109.039 48.4058 108.997 49.3115 108.765 50.2594C108.533 51.2072 108.133 52.1234 107.564 53.0081C106.995 53.8716 106.31 54.6404 105.51 55.3145C104.73 55.9674 103.856 56.494 102.886 56.8942C101.917 57.2733 100.926 57.4629 99.915 57.4629C98.9036 57.4629 97.9975 57.2733 97.1967 56.8942C96.4171 56.494 95.7638 55.9674 95.237 55.3145C94.7313 54.6404 94.3836 53.8716 94.194 53.0081C94.0254 52.1234 94.057 51.2072 94.2888 50.2594C94.4995 49.3115 94.8894 48.4058 95.4583 47.5423C96.0483 46.6576 96.7332 45.8888 97.5128 45.2359C98.3136 44.5619 99.1986 44.0248 100.168 43.6246C101.137 43.2244 102.128 43.0243 103.139 43.0243ZM103.329 50.4489C103.476 49.8592 103.571 49.2799 103.613 48.7112C103.655 48.1425 103.634 47.637 103.55 47.1947C103.466 46.7313 103.329 46.3627 103.139 46.0889C102.97 45.8151 102.76 45.6571 102.507 45.615C102.254 45.5939 101.98 45.7098 101.685 45.9625C101.39 46.1942 101.095 46.5207 100.8 46.942C100.526 47.3422 100.263 47.8161 100.01 48.3637C99.7781 48.9113 99.5884 49.48 99.4409 50.0698C99.2723 50.6596 99.1775 51.2388 99.1564 51.8075C99.1354 52.3551 99.1564 52.8606 99.2196 53.324C99.3039 53.7663 99.4304 54.1349 99.5989 54.4298C99.7675 54.7036 99.9782 54.8511 100.231 54.8721C100.505 54.9143 100.79 54.8195 101.085 54.5878C101.38 54.335 101.664 54.0086 101.938 53.6084C102.233 53.1871 102.496 52.7027 102.728 52.155C102.96 51.6074 103.16 51.0387 103.329 50.4489Z"/>
</mask>
<path d="M71.6199 51.7759C71.7463 51.6074 71.8939 51.5126 72.0624 51.4915C72.2521 51.4494 72.4101 51.4705 72.5366 51.5547C72.6841 51.639 72.7683 51.7864 72.7894 51.997C72.8105 52.1866 72.7157 52.4394 72.5049 52.7553C72.1256 53.3661 71.641 53.9348 71.051 54.4614C70.482 54.988 69.8604 55.4619 69.1861 55.8831C68.5118 56.2833 67.7953 56.5993 67.0368 56.831C66.2782 57.0627 65.5196 57.1785 64.761 57.1785C63.7074 57.1785 62.7802 56.9995 61.9795 56.6414C61.1787 56.2623 60.5255 55.7778 60.0198 55.1881C59.514 54.5983 59.1558 53.9454 58.9451 53.2292C58.7554 52.492 58.7238 51.7759 58.8503 51.0808C59.0821 49.796 59.4508 48.6796 59.9566 47.7318C60.4834 46.7629 61.105 45.9625 61.8214 45.3307C62.5379 44.6988 63.3175 44.2249 64.1604 43.9089C65.0244 43.593 65.9199 43.435 66.8471 43.435C67.3107 43.435 67.7743 43.5192 68.2379 43.6877C68.7014 43.8562 69.1123 44.0985 69.4706 44.4144C69.8499 44.7093 70.1343 45.0779 70.324 45.5202C70.5136 45.9625 70.5663 46.447 70.482 46.9736C70.4188 47.5423 70.2292 48.0583 69.9131 48.5217C69.6181 48.964 69.2493 49.3537 68.8068 49.6907C68.3854 50.0277 67.9112 50.312 67.3844 50.5437C66.8576 50.7543 66.3308 50.9018 65.804 50.986C65.488 51.0492 65.1613 51.0703 64.8242 51.0492C64.5081 51.0282 64.2236 50.986 63.9708 50.9228C63.8022 51.7443 63.8233 52.4078 64.034 52.9133C64.2447 53.4188 64.5186 53.8085 64.8558 54.0823C65.193 54.3561 65.5406 54.5457 65.8989 54.651C66.2782 54.7352 66.5521 54.7773 66.7207 54.7773C67.1632 54.7773 67.6162 54.6931 68.0798 54.5246C68.5434 54.335 68.9965 54.1033 69.439 53.8295C69.8815 53.5346 70.2924 53.2082 70.6717 52.8501C71.051 52.492 71.3671 52.134 71.6199 51.7759ZM67.3528 45.5202C67.2264 45.5202 67.0473 45.5834 66.8155 45.7098C66.5837 45.8151 66.3308 46.0152 66.0569 46.3101C65.783 46.605 65.488 47.0051 65.1719 47.5107C64.8769 48.0162 64.6029 48.6691 64.3501 49.4695C64.6872 49.4063 65.0454 49.2905 65.4247 49.122C65.804 48.9324 66.1517 48.7007 66.4678 48.4269C66.7839 48.1531 67.0473 47.8371 67.258 47.4791C67.4898 47.121 67.6162 46.7313 67.6373 46.3101C67.6584 46.0784 67.6478 45.8888 67.6057 45.7414C67.5636 45.5939 67.4793 45.5202 67.3528 45.5202Z" fill="#FEEB46"/>
<path d="M81.0102 47.8898C80.5466 47.8898 80.1673 47.7634 79.8723 47.5107C79.5773 47.2368 79.4298 46.9209 79.4298 46.5628C79.4298 46.3733 79.4825 46.2258 79.5879 46.1205C79.7143 45.9941 79.8407 45.8888 79.9672 45.8046C80.0936 45.6993 80.2095 45.615 80.3148 45.5518C80.4413 45.4676 80.5045 45.3833 80.5045 45.2991C80.5045 45.2148 80.4518 45.0884 80.3464 44.9199C80.2622 44.7304 79.9882 44.6356 79.5246 44.6356C79.3561 44.6356 79.1664 44.6777 78.9557 44.762C78.766 44.8251 78.5869 44.9305 78.4184 45.0779C78.2498 45.2253 78.1023 45.4149 77.9758 45.6466C77.8705 45.8572 77.8178 46.0994 77.8178 46.3733C77.8178 46.8366 78.0391 47.279 78.4816 47.7002C78.9452 48.1215 79.4509 48.5743 79.9988 49.0588C80.5677 49.5222 81.0734 50.0487 81.5159 50.6385C81.9795 51.2283 82.2113 51.9128 82.2113 52.6921C82.2113 53.3661 82.0217 53.998 81.6424 54.5878C81.2842 55.1565 80.789 55.6515 80.1568 56.0727C79.5246 56.494 78.7977 56.831 77.9758 57.0837C77.1751 57.3154 76.3322 57.4313 75.4472 57.4313C74.7729 57.4313 74.1513 57.326 73.5823 57.1153C73.0134 56.8836 72.5287 56.5888 72.1284 56.2307C71.728 55.8726 71.4224 55.4619 71.2117 54.9985C70.9799 54.5141 70.864 54.0296 70.864 53.5452C70.864 52.7448 71.0642 52.1656 71.4646 51.8075C71.865 51.4494 72.318 51.2704 72.8237 51.2704C73.3505 51.2704 73.7298 51.4389 73.9616 51.7759C74.1934 52.0918 74.3093 52.4078 74.3093 52.7237C74.3093 53.0397 74.2356 53.2714 74.0881 53.4188C73.9406 53.5662 73.8668 53.7242 73.8668 53.8927C73.8668 54.1665 73.9932 54.4193 74.2461 54.651C74.499 54.8827 74.7413 54.9985 74.9731 54.9985C75.3313 54.9985 75.6579 54.8721 75.9529 54.6194C76.2479 54.3456 76.3954 53.998 76.3954 53.5768C76.3954 53.2819 76.1953 52.9659 75.7949 52.6289C75.3945 52.2709 74.952 51.8707 74.4674 51.4284C73.9827 50.965 73.5402 50.4279 73.1398 49.817C72.7395 49.2062 72.5393 48.4795 72.5393 47.637C72.5393 47.0894 72.6973 46.5523 73.0134 46.0257C73.3295 45.4781 73.7509 44.9936 74.2777 44.5724C74.8256 44.1511 75.4577 43.8141 76.1742 43.5614C76.8906 43.2876 77.6598 43.1506 78.4816 43.1506C79.3034 43.1506 80.0093 43.2349 80.5993 43.4034C81.1893 43.5719 81.674 43.7931 82.0533 44.0669C82.4537 44.3407 82.7487 44.6566 82.9383 45.0147C83.128 45.3517 83.2228 45.6993 83.2228 46.0573C83.2228 46.4154 83.1385 46.7208 82.9699 46.9736C82.8013 47.2052 82.5906 47.3948 82.3378 47.5423C82.106 47.6686 81.8636 47.7634 81.6108 47.8266C81.3579 47.8687 81.1577 47.8898 81.0102 47.8898Z" fill="#FEEB46"/>
<path d="M94.032 51.6179C94.1584 51.4494 94.3059 51.3441 94.4745 51.302C94.6641 51.2598 94.8222 51.2809 94.9486 51.3652C95.075 51.4494 95.1488 51.5969 95.1699 51.8075C95.212 51.997 95.1383 52.2498 94.9486 52.5657C94.8433 52.7553 94.5588 53.0923 94.0952 53.5768C93.6316 54.0612 93.0521 54.5667 92.3568 55.0933C91.6825 55.5988 90.9133 56.0622 90.0494 56.4834C89.2065 56.8836 88.3425 57.1153 87.4575 57.1785C86.7621 57.2206 86.1405 57.0943 85.5926 56.7994C85.0448 56.4834 84.6023 56.0727 84.2651 55.5672C83.949 55.0406 83.7383 54.4509 83.6329 53.7979C83.5276 53.1239 83.5697 52.4499 83.7594 51.7759L85.9719 43.9089C85.4873 43.951 85.0237 44.0563 84.5812 44.2248C84.4548 44.0985 84.381 43.8878 84.3599 43.593C84.3389 43.2981 84.4021 43.0032 84.5496 42.7083C84.6971 42.3924 84.9394 42.1186 85.2766 41.8869C85.6137 41.6552 86.0668 41.5393 86.6357 41.5393L87.7736 37.5585C87.8579 37.2004 87.8052 36.9055 87.6156 36.6738C87.5313 36.5685 87.4259 36.4737 87.2995 36.3895C87.5734 36.1578 87.8895 35.9366 88.2477 35.726C88.5427 35.5575 88.9009 35.41 89.3224 35.2837C89.7649 35.1362 90.2601 35.0625 90.808 35.0625C91.693 35.0625 92.3673 35.3153 92.8309 35.8208C93.2945 36.3052 93.442 36.8634 93.2734 37.4953L91.9459 42.2028C92.1355 42.266 92.3568 42.3081 92.6096 42.3292C92.8836 42.3292 93.147 42.3187 93.3998 42.2976C93.6527 42.2555 93.8845 42.2028 94.0952 42.1396C94.327 42.0554 94.5061 41.9711 94.6325 41.8869C94.759 42.0132 94.8327 42.2344 94.8538 42.5504C94.8959 42.8663 94.8538 43.1928 94.7274 43.5298C94.6009 43.8457 94.3797 44.1301 94.0636 44.3828C93.7475 44.6145 93.3155 44.7304 92.7677 44.7304C92.4937 44.7304 92.2093 44.7198 91.9142 44.6988C91.6192 44.6566 91.4085 44.604 91.2821 44.5408L88.8799 53.1028C88.8377 53.3345 88.8483 53.5346 88.9115 53.7031C88.9958 53.8506 89.1011 53.9664 89.2276 54.0507C89.3751 54.1349 89.5331 54.1876 89.7017 54.2087C89.8913 54.2297 90.0704 54.2192 90.239 54.1771C90.4919 54.0928 90.7869 53.9664 91.124 53.7979C91.4823 53.6294 91.83 53.4399 92.1671 53.2292C92.5253 52.9975 92.8625 52.7448 93.1786 52.471C93.5157 52.1971 93.8002 51.9128 94.032 51.6179Z" fill="#FEEB46"/>
<path d="M103.139 43.0243C104.256 43.0243 105.215 43.2244 106.015 43.6246C106.837 44.0248 107.49 44.5619 107.975 45.2359C108.46 45.8888 108.765 46.6576 108.892 47.5423C109.039 48.4058 108.997 49.3115 108.765 50.2594C108.533 51.2072 108.133 52.1234 107.564 53.0081C106.995 53.8716 106.31 54.6404 105.51 55.3145C104.73 55.9674 103.856 56.494 102.886 56.8942C101.917 57.2733 100.926 57.4629 99.915 57.4629C98.9036 57.4629 97.9975 57.2733 97.1967 56.8942C96.4171 56.494 95.7638 55.9674 95.237 55.3145C94.7313 54.6404 94.3836 53.8716 94.194 53.0081C94.0254 52.1234 94.057 51.2072 94.2888 50.2594C94.4995 49.3115 94.8894 48.4058 95.4583 47.5423C96.0483 46.6576 96.7332 45.8888 97.5128 45.2359C98.3136 44.5619 99.1986 44.0248 100.168 43.6246C101.137 43.2244 102.128 43.0243 103.139 43.0243ZM103.329 50.4489C103.476 49.8592 103.571 49.2799 103.613 48.7112C103.655 48.1425 103.634 47.637 103.55 47.1947C103.466 46.7313 103.329 46.3627 103.139 46.0889C102.97 45.8151 102.76 45.6571 102.507 45.615C102.254 45.5939 101.98 45.7098 101.685 45.9625C101.39 46.1942 101.095 46.5207 100.8 46.942C100.526 47.3422 100.263 47.8161 100.01 48.3637C99.7781 48.9113 99.5884 49.48 99.4409 50.0698C99.2723 50.6596 99.1775 51.2388 99.1564 51.8075C99.1354 52.3551 99.1564 52.8606 99.2196 53.324C99.3039 53.7663 99.4304 54.1349 99.5989 54.4298C99.7675 54.7036 99.9782 54.8511 100.231 54.8721C100.505 54.9143 100.79 54.8195 101.085 54.5878C101.38 54.335 101.664 54.0086 101.938 53.6084C102.233 53.1871 102.496 52.7027 102.728 52.155C102.96 51.6074 103.16 51.0387 103.329 50.4489Z" fill="#FEEB46"/>
<path d="M71.6199 51.7759C71.7463 51.6074 71.8939 51.5126 72.0624 51.4915C72.2521 51.4494 72.4101 51.4705 72.5366 51.5547C72.6841 51.639 72.7683 51.7864 72.7894 51.997C72.8105 52.1866 72.7157 52.4394 72.5049 52.7553C72.1256 53.3661 71.641 53.9348 71.051 54.4614C70.482 54.988 69.8604 55.4619 69.1861 55.8831C68.5118 56.2833 67.7953 56.5993 67.0368 56.831C66.2782 57.0627 65.5196 57.1785 64.761 57.1785C63.7074 57.1785 62.7802 56.9995 61.9795 56.6414C61.1787 56.2623 60.5255 55.7778 60.0198 55.1881C59.514 54.5983 59.1558 53.9454 58.9451 53.2292C58.7554 52.492 58.7238 51.7759 58.8503 51.0808C59.0821 49.796 59.4508 48.6796 59.9566 47.7318C60.4834 46.7629 61.105 45.9625 61.8214 45.3307C62.5379 44.6988 63.3175 44.2249 64.1604 43.9089C65.0244 43.593 65.9199 43.435 66.8471 43.435C67.3107 43.435 67.7743 43.5192 68.2379 43.6877C68.7014 43.8562 69.1123 44.0985 69.4706 44.4144C69.8499 44.7093 70.1343 45.0779 70.324 45.5202C70.5136 45.9625 70.5663 46.447 70.482 46.9736C70.4188 47.5423 70.2292 48.0583 69.9131 48.5217C69.6181 48.964 69.2493 49.3537 68.8068 49.6907C68.3854 50.0277 67.9112 50.312 67.3844 50.5437C66.8576 50.7543 66.3308 50.9018 65.804 50.986C65.488 51.0492 65.1613 51.0703 64.8242 51.0492C64.5081 51.0282 64.2236 50.986 63.9708 50.9228C63.8022 51.7443 63.8233 52.4078 64.034 52.9133C64.2447 53.4188 64.5186 53.8085 64.8558 54.0823C65.193 54.3561 65.5406 54.5457 65.8989 54.651C66.2782 54.7352 66.5521 54.7773 66.7207 54.7773C67.1632 54.7773 67.6162 54.6931 68.0798 54.5246C68.5434 54.335 68.9965 54.1033 69.439 53.8295C69.8815 53.5346 70.2924 53.2082 70.6717 52.8501C71.051 52.492 71.3671 52.134 71.6199 51.7759ZM67.3528 45.5202C67.2264 45.5202 67.0473 45.5834 66.8155 45.7098C66.5837 45.8151 66.3308 46.0152 66.0569 46.3101C65.783 46.605 65.488 47.0051 65.1719 47.5107C64.8769 48.0162 64.6029 48.6691 64.3501 49.4695C64.6872 49.4063 65.0454 49.2905 65.4247 49.122C65.804 48.9324 66.1517 48.7007 66.4678 48.4269C66.7839 48.1531 67.0473 47.8371 67.258 47.4791C67.4898 47.121 67.6162 46.7313 67.6373 46.3101C67.6584 46.0784 67.6478 45.8888 67.6057 45.7414C67.5636 45.5939 67.4793 45.5202 67.3528 45.5202Z" stroke="#1E1E1E" stroke-width="5.78386" stroke-linejoin="round" mask="url(#path-13-outside-2_2101_4716)"/>
<path d="M81.0102 47.8898C80.5466 47.8898 80.1673 47.7634 79.8723 47.5107C79.5773 47.2368 79.4298 46.9209 79.4298 46.5628C79.4298 46.3733 79.4825 46.2258 79.5879 46.1205C79.7143 45.9941 79.8407 45.8888 79.9672 45.8046C80.0936 45.6993 80.2095 45.615 80.3148 45.5518C80.4413 45.4676 80.5045 45.3833 80.5045 45.2991C80.5045 45.2148 80.4518 45.0884 80.3464 44.9199C80.2622 44.7304 79.9882 44.6356 79.5246 44.6356C79.3561 44.6356 79.1664 44.6777 78.9557 44.762C78.766 44.8251 78.5869 44.9305 78.4184 45.0779C78.2498 45.2253 78.1023 45.4149 77.9758 45.6466C77.8705 45.8572 77.8178 46.0994 77.8178 46.3733C77.8178 46.8366 78.0391 47.279 78.4816 47.7002C78.9452 48.1215 79.4509 48.5743 79.9988 49.0588C80.5677 49.5222 81.0734 50.0487 81.5159 50.6385C81.9795 51.2283 82.2113 51.9128 82.2113 52.6921C82.2113 53.3661 82.0217 53.998 81.6424 54.5878C81.2842 55.1565 80.789 55.6515 80.1568 56.0727C79.5246 56.494 78.7977 56.831 77.9758 57.0837C77.1751 57.3154 76.3322 57.4313 75.4472 57.4313C74.7729 57.4313 74.1513 57.326 73.5823 57.1153C73.0134 56.8836 72.5287 56.5888 72.1284 56.2307C71.728 55.8726 71.4224 55.4619 71.2117 54.9985C70.9799 54.5141 70.864 54.0296 70.864 53.5452C70.864 52.7448 71.0642 52.1656 71.4646 51.8075C71.865 51.4494 72.318 51.2704 72.8237 51.2704C73.3505 51.2704 73.7298 51.4389 73.9616 51.7759C74.1934 52.0918 74.3093 52.4078 74.3093 52.7237C74.3093 53.0397 74.2356 53.2714 74.0881 53.4188C73.9406 53.5662 73.8668 53.7242 73.8668 53.8927C73.8668 54.1665 73.9932 54.4193 74.2461 54.651C74.499 54.8827 74.7413 54.9985 74.9731 54.9985C75.3313 54.9985 75.6579 54.8721 75.9529 54.6194C76.2479 54.3456 76.3954 53.998 76.3954 53.5768C76.3954 53.2819 76.1953 52.9659 75.7949 52.6289C75.3945 52.2709 74.952 51.8707 74.4674 51.4284C73.9827 50.965 73.5402 50.4279 73.1398 49.817C72.7395 49.2062 72.5393 48.4795 72.5393 47.637C72.5393 47.0894 72.6973 46.5523 73.0134 46.0257C73.3295 45.4781 73.7509 44.9936 74.2777 44.5724C74.8256 44.1511 75.4577 43.8141 76.1742 43.5614C76.8906 43.2876 77.6598 43.1506 78.4816 43.1506C79.3034 43.1506 80.0093 43.2349 80.5993 43.4034C81.1893 43.5719 81.674 43.7931 82.0533 44.0669C82.4537 44.3407 82.7487 44.6566 82.9383 45.0147C83.128 45.3517 83.2228 45.6993 83.2228 46.0573C83.2228 46.4154 83.1385 46.7208 82.9699 46.9736C82.8013 47.2052 82.5906 47.3948 82.3378 47.5423C82.106 47.6686 81.8636 47.7634 81.6108 47.8266C81.3579 47.8687 81.1577 47.8898 81.0102 47.8898Z" stroke="#1E1E1E" stroke-width="5.78386" stroke-linejoin="round" mask="url(#path-13-outside-2_2101_4716)"/>
<path d="M94.032 51.6179C94.1584 51.4494 94.3059 51.3441 94.4745 51.302C94.6641 51.2598 94.8222 51.2809 94.9486 51.3652C95.075 51.4494 95.1488 51.5969 95.1699 51.8075C95.212 51.997 95.1383 52.2498 94.9486 52.5657C94.8433 52.7553 94.5588 53.0923 94.0952 53.5768C93.6316 54.0612 93.0521 54.5667 92.3568 55.0933C91.6825 55.5988 90.9133 56.0622 90.0494 56.4834C89.2065 56.8836 88.3425 57.1153 87.4575 57.1785C86.7621 57.2206 86.1405 57.0943 85.5926 56.7994C85.0448 56.4834 84.6023 56.0727 84.2651 55.5672C83.949 55.0406 83.7383 54.4509 83.6329 53.7979C83.5276 53.1239 83.5697 52.4499 83.7594 51.7759L85.9719 43.9089C85.4873 43.951 85.0237 44.0563 84.5812 44.2248C84.4548 44.0985 84.381 43.8878 84.3599 43.593C84.3389 43.2981 84.4021 43.0032 84.5496 42.7083C84.6971 42.3924 84.9394 42.1186 85.2766 41.8869C85.6137 41.6552 86.0668 41.5393 86.6357 41.5393L87.7736 37.5585C87.8579 37.2004 87.8052 36.9055 87.6156 36.6738C87.5313 36.5685 87.4259 36.4737 87.2995 36.3895C87.5734 36.1578 87.8895 35.9366 88.2477 35.726C88.5427 35.5575 88.9009 35.41 89.3224 35.2837C89.7649 35.1362 90.2601 35.0625 90.808 35.0625C91.693 35.0625 92.3673 35.3153 92.8309 35.8208C93.2945 36.3052 93.442 36.8634 93.2734 37.4953L91.9459 42.2028C92.1355 42.266 92.3568 42.3081 92.6096 42.3292C92.8836 42.3292 93.147 42.3187 93.3998 42.2976C93.6527 42.2555 93.8845 42.2028 94.0952 42.1396C94.327 42.0554 94.5061 41.9711 94.6325 41.8869C94.759 42.0132 94.8327 42.2344 94.8538 42.5504C94.8959 42.8663 94.8538 43.1928 94.7274 43.5298C94.6009 43.8457 94.3797 44.1301 94.0636 44.3828C93.7475 44.6145 93.3155 44.7304 92.7677 44.7304C92.4937 44.7304 92.2093 44.7198 91.9142 44.6988C91.6192 44.6566 91.4085 44.604 91.2821 44.5408L88.8799 53.1028C88.8377 53.3345 88.8483 53.5346 88.9115 53.7031C88.9958 53.8506 89.1011 53.9664 89.2276 54.0507C89.3751 54.1349 89.5331 54.1876 89.7017 54.2087C89.8913 54.2297 90.0704 54.2192 90.239 54.1771C90.4919 54.0928 90.7869 53.9664 91.124 53.7979C91.4823 53.6294 91.83 53.4399 92.1671 53.2292C92.5253 52.9975 92.8625 52.7448 93.1786 52.471C93.5157 52.1971 93.8002 51.9128 94.032 51.6179Z" stroke="#1E1E1E" stroke-width="5.78386" stroke-linejoin="round" mask="url(#path-13-outside-2_2101_4716)"/>
<path d="M103.139 43.0243C104.256 43.0243 105.215 43.2244 106.015 43.6246C106.837 44.0248 107.49 44.5619 107.975 45.2359C108.46 45.8888 108.765 46.6576 108.892 47.5423C109.039 48.4058 108.997 49.3115 108.765 50.2594C108.533 51.2072 108.133 52.1234 107.564 53.0081C106.995 53.8716 106.31 54.6404 105.51 55.3145C104.73 55.9674 103.856 56.494 102.886 56.8942C101.917 57.2733 100.926 57.4629 99.915 57.4629C98.9036 57.4629 97.9975 57.2733 97.1967 56.8942C96.4171 56.494 95.7638 55.9674 95.237 55.3145C94.7313 54.6404 94.3836 53.8716 94.194 53.0081C94.0254 52.1234 94.057 51.2072 94.2888 50.2594C94.4995 49.3115 94.8894 48.4058 95.4583 47.5423C96.0483 46.6576 96.7332 45.8888 97.5128 45.2359C98.3136 44.5619 99.1986 44.0248 100.168 43.6246C101.137 43.2244 102.128 43.0243 103.139 43.0243ZM103.329 50.4489C103.476 49.8592 103.571 49.2799 103.613 48.7112C103.655 48.1425 103.634 47.637 103.55 47.1947C103.466 46.7313 103.329 46.3627 103.139 46.0889C102.97 45.8151 102.76 45.6571 102.507 45.615C102.254 45.5939 101.98 45.7098 101.685 45.9625C101.39 46.1942 101.095 46.5207 100.8 46.942C100.526 47.3422 100.263 47.8161 100.01 48.3637C99.7781 48.9113 99.5884 49.48 99.4409 50.0698C99.2723 50.6596 99.1775 51.2388 99.1564 51.8075C99.1354 52.3551 99.1564 52.8606 99.2196 53.324C99.3039 53.7663 99.4304 54.1349 99.5989 54.4298C99.7675 54.7036 99.9782 54.8511 100.231 54.8721C100.505 54.9143 100.79 54.8195 101.085 54.5878C101.38 54.335 101.664 54.0086 101.938 53.6084C102.233 53.1871 102.496 52.7027 102.728 52.155C102.96 51.6074 103.16 51.0387 103.329 50.4489Z" stroke="#1E1E1E" stroke-width="5.78386" stroke-linejoin="round" mask="url(#path-13-outside-2_2101_4716)"/>
<path d="M83.9437 21.3961C80.8251 21.7088 78.1631 22.5284 75.874 24.7785C74.1398 26.487 71.9605 29.771 72.6108 32.3368C72.7409 32.8378 73.3738 32.5192 73.4779 32.1659C73.7929 30.8888 73.897 29.7189 74.4664 28.4968C75.0881 27.1919 75.9535 26.0182 77.0156 25.0391C78.9059 23.2813 81.5534 22.5197 83.9524 21.7378C84.1287 21.6799 84.1923 21.37 83.9437 21.3961Z" fill="#FEEB46"/>
<path d="M72.8103 33.1433C72.6927 33.1724 72.5858 33.2346 72.5022 33.3226C72.4187 33.4106 72.3619 33.5207 72.3385 33.64C72.3096 33.7906 72.3362 33.9466 72.4133 34.079C72.4304 34.1186 72.4571 34.1534 72.491 34.1801C72.6981 34.3476 72.9541 34.1801 73.0663 33.9866C73.1587 33.8378 73.2167 33.67 73.236 33.4956C73.239 33.4418 73.2293 33.388 73.2077 33.3386C73.1862 33.2892 73.1534 33.2456 73.1119 33.2113C73.0705 33.177 73.0216 33.153 72.9692 33.1412C72.9168 33.1293 72.8623 33.1301 72.8103 33.1433Z" fill="#FEEB46"/>
<path d="M103.036 17.0857C103.18 17.2292 103.366 17.3015 103.556 17.3015C103.742 17.3015 103.932 17.2292 104.075 17.0857C104.362 16.7991 104.362 16.3318 104.075 16.0441C103.33 15.2978 103.33 14.0842 104.075 13.3368C104.713 12.6946 105.064 11.8468 105.064 10.9423C105.064 10.037 104.713 9.18539 104.075 8.547C103.789 8.26037 103.322 8.26037 103.036 8.547C102.749 8.83477 102.749 9.29784 103.036 9.58446C103.398 9.94757 103.599 10.4281 103.599 10.9419C103.599 11.4512 103.398 11.9324 103.036 12.2951C101.717 13.6174 101.717 15.7646 103.036 17.0857H103.036Z" fill="#1E1E1E"/>
<path d="M102.499 16.5486C102.643 16.6921 102.829 16.7644 103.018 16.7644C103.205 16.7644 103.394 16.6921 103.538 16.5486C103.825 16.262 103.825 15.7947 103.538 15.507C102.793 14.7607 102.793 13.5471 103.538 12.7997C104.176 12.1575 104.527 11.3097 104.527 10.4052C104.527 9.49984 104.176 8.64828 103.538 8.00989C103.252 7.72327 102.785 7.72327 102.499 8.00989C102.212 8.29766 102.212 8.76073 102.499 9.04735C102.861 9.41046 103.062 9.89095 103.062 10.4048C103.062 10.914 102.861 11.3953 102.499 11.758C101.18 13.0803 101.18 15.2275 102.499 16.5486H102.499Z" fill="#FEEB46"/>
<path d="M99.0703 17.3295C99.1906 17.4491 99.3462 17.5085 99.5051 17.5085C99.6607 17.5085 99.8195 17.4488 99.936 17.3295C100.179 17.0917 100.179 16.7041 99.936 16.4664C99.3166 15.8463 99.3166 14.8397 99.936 14.2199C100.472 13.6901 100.766 12.984 100.766 12.2336C100.766 11.4826 100.473 10.7772 99.936 10.2467C99.697 10.0089 99.3102 10.0089 99.0709 10.2467C98.8319 10.4854 98.8319 10.873 99.0709 11.1107C99.3737 11.4091 99.5385 11.8077 99.5385 12.2343C99.5385 12.6574 99.3734 13.056 99.0709 13.3578C97.9687 14.4524 97.9687 16.234 99.0703 17.3295L99.0703 17.3295Z" fill="#1E1E1E"/>
<path d="M98.6982 17.1224C98.8185 17.2421 98.9742 17.3015 99.133 17.3015C99.2886 17.3015 99.4475 17.2418 99.564 17.1224C99.8068 16.8847 99.8068 16.4971 99.564 16.2593C98.9445 15.6393 98.9445 14.6327 99.564 14.0129C100.1 13.483 100.393 12.777 100.393 12.0266C100.393 11.2756 100.101 10.5702 99.564 10.0397C99.325 9.80189 98.9382 9.80189 98.6989 10.0397C98.4598 10.2784 98.4598 10.666 98.6989 10.9037C99.0017 11.2021 99.1665 11.6007 99.1665 12.0272C99.1665 12.4503 99.0013 12.8489 98.6989 13.1508C97.5966 14.2454 97.5966 16.027 98.6982 17.1225L98.6982 17.1224Z" fill="#FEEB46"/>
<path d="M106.8 18.9818C106.92 19.1015 107.076 19.1608 107.235 19.1608C107.39 19.1608 107.549 19.1012 107.666 18.9818C107.908 18.744 107.908 18.3564 107.666 18.1187C107.046 17.4987 107.046 16.4921 107.666 15.8723C108.202 15.3424 108.495 14.6363 108.495 13.886C108.495 13.135 108.202 12.4296 107.666 11.899C107.427 11.6613 107.04 11.6613 106.8 11.899C106.561 12.1377 106.561 12.5253 106.8 12.7631C107.103 13.0615 107.268 13.4601 107.268 13.8866C107.268 14.3097 107.103 14.7083 106.8 15.0102C105.698 16.1047 105.698 17.8863 106.8 18.9819L106.8 18.9818Z" fill="#1E1E1E"/>
<path d="M106.428 18.7767C106.548 18.8964 106.704 18.9558 106.862 18.9558C107.018 18.9558 107.177 18.8961 107.293 18.7767C107.536 18.539 107.536 18.1514 107.293 17.9136C106.674 17.2936 106.674 16.287 107.293 15.6672C107.83 15.1373 108.123 14.4313 108.123 13.6809C108.123 12.9299 107.83 12.2245 107.293 11.6939C107.054 11.4562 106.668 11.4562 106.428 11.6939C106.189 11.9327 106.189 12.3203 106.428 12.558C106.731 12.8564 106.896 13.255 106.896 13.6815C106.896 14.1046 106.731 14.5032 106.428 14.8051C105.326 15.8997 105.326 17.6812 106.428 18.7768L106.428 18.7767Z" fill="#FEEB46"/>
<mask id="path-22-outside-3_2101_4716" maskUnits="userSpaceOnUse" x="30.0489" y="-0.187485" width="45.8621" height="34.613" fill="black">
<rect fill="white" x="30.0489" y="-0.187485" width="45.8621" height="34.613"/>
<path d="M56.4794 21.8704C56.4707 21.977 56.4918 22.0741 56.5425 22.1619C56.6083 22.2487 56.7317 22.2866 56.9126 22.2756C57.2896 22.2527 57.7304 22.0366 58.2351 21.6273C58.7399 21.2181 59.1935 20.7135 59.5958 20.1137C59.6789 19.9875 59.7874 19.9052 59.9213 19.8667C60.0551 19.8283 60.1691 19.8365 60.2633 19.8914C60.3725 19.9453 60.4392 20.0472 60.4635 20.1971C60.5028 20.3462 60.454 20.5384 60.317 20.7739C60.042 21.2297 59.662 21.6995 59.177 22.1833C58.7069 22.6661 58.1805 23.0918 57.5976 23.4604C57.0156 23.8441 56.4055 24.1386 55.7673 24.344C55.13 24.5645 54.5288 24.6313 53.9636 24.5446C53.582 24.4921 53.2793 24.3667 53.0554 24.1683C52.8474 23.9841 52.69 23.759 52.583 23.493C52.476 23.2269 52.4133 22.943 52.395 22.6413C52.3908 22.3236 52.4177 22.0191 52.4756 21.7279L54.8817 10.9066C54.7301 11.4004 54.5304 11.9728 54.2824 12.6238C54.0487 13.2588 53.7711 13.9193 53.4496 14.605C53.1272 15.2758 52.7742 15.9408 52.3906 16.6C52.0061 17.2443 51.5882 17.8375 51.1369 18.3798C50.6998 18.906 50.2275 19.3512 49.72 19.7152C49.2267 20.0632 48.71 20.2763 48.17 20.3546C47.5696 20.4365 47.0718 20.3381 46.6765 20.0593C46.2954 19.7645 45.9908 19.3591 45.7627 18.843C45.5336 18.3119 45.3523 17.6945 45.2187 16.991C45.1002 16.2865 45.0029 15.5581 44.9268 14.8056C44.8499 14.0381 44.7743 13.2932 44.7001 12.5709C44.64 11.8326 44.5539 11.164 44.4418 10.5652C44.2881 11.271 44.1233 12.0457 43.9477 12.8892C43.7711 13.7176 43.5945 14.546 43.4179 15.3744C43.2413 16.2028 43.0633 17.0085 42.884 17.7917C42.7197 18.5739 42.5725 19.2642 42.4425 19.8627C42.3124 20.4611 42.1986 20.9526 42.1009 21.3371C42.0174 21.7055 41.9761 21.8973 41.977 21.9124C41.8159 22.4976 41.6148 23.0474 41.3737 23.5617C41.1467 24.0601 40.8629 24.4937 40.5221 24.8627C40.1823 25.2468 39.7771 25.5516 39.3066 25.777C38.8511 26.0016 38.3219 26.1322 37.7188 26.1689C37.4625 26.1845 37.1879 26.1482 36.895 26.06C36.6181 25.986 36.3544 25.8809 36.104 25.7448C35.8536 25.6086 35.64 25.455 35.4631 25.2841C35.3013 25.1122 35.2154 24.9433 35.2053 24.7774C35.4936 24.7901 35.7862 24.7496 36.0832 24.6558C36.3952 24.5611 36.6871 24.3844 36.9589 24.1256C37.2448 23.8508 37.5106 23.4939 37.7563 23.055C38.0162 22.6001 38.2465 22.0334 38.4474 21.3549L40.3333 13.1772L41.5863 6.53706C41.5996 6.50597 41.6044 6.46026 41.6007 6.39991C40.7784 6.81334 40.0553 7.36459 39.4314 8.05364C38.8216 8.72669 38.2735 9.4187 37.7871 10.1297C37.5227 10.5092 37.2987 10.9316 37.1151 11.397C36.9307 11.8474 36.8495 12.2536 36.8715 12.6156C36.8834 12.8117 36.9401 12.9976 37.0416 13.1731C37.1582 13.3477 37.288 13.4912 37.431 13.6037C37.5882 13.7001 37.7422 13.7437 37.8929 13.7345C38.0588 13.7244 38.197 13.6328 38.3075 13.4595C38.4884 13.4485 38.6258 13.5915 38.7195 13.8887C38.8132 14.1858 38.8108 14.5191 38.7122 14.8885C38.6127 15.2428 38.3837 15.5823 38.0251 15.9069C37.6665 16.2316 37.1329 16.4154 36.4243 16.4585C36.0625 16.4806 35.7186 16.4258 35.3928 16.2942C35.0821 16.1617 34.8059 15.9741 34.5641 15.7314C34.3214 15.4736 34.1297 15.1824 33.9889 14.8579C33.8472 14.5182 33.7644 14.1523 33.7405 13.76C33.7033 12.8992 33.8506 12.0878 34.1826 11.3256C34.5136 10.5484 34.9468 9.83309 35.4821 9.17971C36.0315 8.51033 36.661 7.91179 37.3704 7.38409C38.0789 6.84131 38.7999 6.38104 39.5336 6.00329C40.2664 5.61045 40.982 5.3095 41.6805 5.10044C42.3781 4.8763 42.9983 4.74771 43.5411 4.71469C43.9934 4.68717 44.4131 4.74491 44.8001 4.88793C45.1871 5.03094 45.5331 5.24459 45.8379 5.52888C46.1569 5.79716 46.4338 6.121 46.6688 6.50039C46.9188 6.87886 47.1183 7.29826 47.2674 7.75858C47.3424 7.99629 47.4135 8.2948 47.4808 8.65411C47.5622 8.99741 47.6384 9.37889 47.7093 9.79854C47.7793 10.2031 47.8507 10.6303 47.9235 11.0801C47.9953 11.5149 48.0596 11.9501 48.1164 12.3857C48.2542 13.407 48.3877 14.4815 48.5168 15.6093C48.5223 15.6998 48.5368 15.8125 48.5601 15.9473C48.5825 16.0671 48.6125 16.1864 48.65 16.3052C48.7016 16.4081 48.7599 16.4954 48.8248 16.5672C48.9048 16.638 49.0051 16.6698 49.1257 16.6624C49.5931 16.634 50.0572 16.3029 50.518 15.6692C50.9789 15.0355 51.4305 14.2509 51.873 13.3155C52.3296 12.3641 52.7897 11.3443 53.2531 10.2562C53.7307 9.15207 54.2209 8.13046 54.7237 7.19137C55.2407 6.23627 55.7748 5.43912 56.3261 4.79991C56.8924 4.15978 57.4922 3.82046 58.1255 3.78193C58.804 3.74065 59.3205 3.89849 59.6752 4.25546C60.044 4.59642 60.1752 5.0124 60.0689 5.50341L56.4794 21.8704Z"/>
<path d="M71.089 18.6876C71.1721 18.5614 71.2735 18.4871 71.3932 18.4647C71.527 18.4262 71.641 18.4345 71.7352 18.4893C71.8444 18.5432 71.9111 18.6451 71.9354 18.7951C71.9587 18.9299 71.9019 19.1151 71.7649 19.3506C71.3292 20.1493 70.7939 20.8027 70.159 21.3107C69.524 21.8187 68.803 22.279 67.9957 22.6915C67.7584 23.7659 67.5337 24.6729 67.3214 25.4126C67.1101 26.1674 66.8523 26.7812 66.5482 27.254C66.26 27.7409 65.8957 28.0962 65.4553 28.3198C65.031 28.5576 64.472 28.6976 63.7784 28.7398C63.4769 28.7581 63.158 28.7397 62.8217 28.6844C62.5014 28.6434 62.2005 28.5481 61.919 28.3987C61.6376 28.2492 61.3976 28.0367 61.1993 27.7611C61.0169 27.4996 60.9129 27.1577 60.8872 26.7353C60.8716 26.4788 60.8861 26.2205 60.9308 25.9604C60.9906 25.6994 61.1258 25.4337 61.3363 25.1635C61.5619 24.8924 61.8771 24.6007 62.2818 24.2883C62.7026 23.9902 63.2656 23.6682 63.9709 23.3225L64.3823 21.5032C63.9105 21.9558 63.4048 22.35 62.8653 22.6857C62.3409 23.0204 61.6791 23.2121 60.8801 23.2607C60.5333 23.2818 60.1956 23.2039 59.8671 23.0271C59.5536 22.8493 59.2737 22.6014 59.0273 22.2832C58.7951 21.9491 58.628 21.5656 58.526 21.1327C58.408 20.6856 58.4013 20.2015 58.5058 19.6803L59.4812 15.192C59.5181 15.0535 59.5188 14.9399 59.4831 14.8512C59.4466 14.7474 59.4034 14.6592 59.3535 14.5865C59.2886 14.5148 59.2091 14.4515 59.115 14.3966C59.3009 14.2188 59.5174 14.0466 59.7645 13.8802C59.9683 13.7466 60.2177 13.6179 60.5128 13.4939C60.8079 13.37 61.1515 13.2961 61.5435 13.2722C62.1767 13.2337 62.6702 13.3854 63.024 13.7273C63.3928 14.0682 63.5231 14.4691 63.4149 14.93L62.1931 20.5916C62.1817 20.6529 62.1712 20.7292 62.1617 20.8206C62.1672 20.9111 62.1798 20.9937 62.1994 21.0682C62.2191 21.1427 62.2534 21.2087 62.3023 21.2663C62.3663 21.323 62.4586 21.3477 62.5792 21.3403C62.8958 21.3211 63.2551 21.1326 63.6571 20.7751C64.0732 20.4015 64.463 19.969 64.8266 19.4774L65.8362 14.8054C65.8732 14.6668 65.8738 14.5532 65.8381 14.4646C65.8016 14.3608 65.7584 14.2726 65.7085 14.1999C65.6436 14.1281 65.5641 14.0648 65.47 14.01C65.6559 13.8321 65.8724 13.66 66.1196 13.4935C66.3233 13.36 66.5727 13.2312 66.8678 13.1073C67.163 12.9833 67.5065 12.9094 67.8985 12.8856C68.5318 12.8471 69.0252 12.9987 69.379 13.3406C69.7478 13.6816 69.8781 14.0825 69.7699 14.5433C69.6162 15.2492 69.4567 15.9857 69.2915 16.7528C69.1263 17.52 68.973 18.2334 68.8315 18.8931C68.6901 19.5528 68.5652 20.113 68.4571 20.5739C68.348 21.0196 68.2878 21.2731 68.2764 21.3344C68.9091 21.0385 69.4321 20.6811 69.8455 20.2623C70.273 19.8274 70.6875 19.3026 71.089 18.6876ZM62.7245 26.7144C62.8753 26.7052 63.005 26.5989 63.1137 26.3954C63.2384 26.2061 63.3391 25.9956 63.4158 25.7638C63.5048 25.4858 63.584 25.1706 63.6533 24.8181C63.5647 24.8538 63.4473 24.914 63.3011 24.9986C63.1709 25.0973 63.0341 25.2116 62.8907 25.3415C62.7473 25.4714 62.6194 25.6078 62.507 25.751C62.3956 25.9092 62.3298 26.0721 62.3098 26.2399C62.3002 26.3314 62.3217 26.436 62.3743 26.554C62.4269 26.6719 62.5436 26.7254 62.7245 26.7144Z"/>
</mask>
<path d="M56.4794 21.8704C56.4707 21.977 56.4918 22.0741 56.5425 22.1619C56.6083 22.2487 56.7317 22.2866 56.9126 22.2756C57.2896 22.2527 57.7304 22.0366 58.2351 21.6273C58.7399 21.2181 59.1935 20.7135 59.5958 20.1137C59.6789 19.9875 59.7874 19.9052 59.9213 19.8667C60.0551 19.8283 60.1691 19.8365 60.2633 19.8914C60.3725 19.9453 60.4392 20.0472 60.4635 20.1971C60.5028 20.3462 60.454 20.5384 60.317 20.7739C60.042 21.2297 59.662 21.6995 59.177 22.1833C58.7069 22.6661 58.1805 23.0918 57.5976 23.4604C57.0156 23.8441 56.4055 24.1386 55.7673 24.344C55.13 24.5645 54.5288 24.6313 53.9636 24.5446C53.582 24.4921 53.2793 24.3667 53.0554 24.1683C52.8474 23.9841 52.69 23.759 52.583 23.493C52.476 23.2269 52.4133 22.943 52.395 22.6413C52.3908 22.3236 52.4177 22.0191 52.4756 21.7279L54.8817 10.9066C54.7301 11.4004 54.5304 11.9728 54.2824 12.6238C54.0487 13.2588 53.7711 13.9193 53.4496 14.605C53.1272 15.2758 52.7742 15.9408 52.3906 16.6C52.0061 17.2443 51.5882 17.8375 51.1369 18.3798C50.6998 18.906 50.2275 19.3512 49.72 19.7152C49.2267 20.0632 48.71 20.2763 48.17 20.3546C47.5696 20.4365 47.0718 20.3381 46.6765 20.0593C46.2954 19.7645 45.9908 19.3591 45.7627 18.843C45.5336 18.3119 45.3523 17.6945 45.2187 16.991C45.1002 16.2865 45.0029 15.5581 44.9268 14.8056C44.8499 14.0381 44.7743 13.2932 44.7001 12.5709C44.64 11.8326 44.5539 11.164 44.4418 10.5652C44.2881 11.271 44.1233 12.0457 43.9477 12.8892C43.7711 13.7176 43.5945 14.546 43.4179 15.3744C43.2413 16.2028 43.0633 17.0085 42.884 17.7917C42.7197 18.5739 42.5725 19.2642 42.4425 19.8627C42.3124 20.4611 42.1986 20.9526 42.1009 21.3371C42.0174 21.7055 41.9761 21.8973 41.977 21.9124C41.8159 22.4976 41.6148 23.0474 41.3737 23.5617C41.1467 24.0601 40.8629 24.4937 40.5221 24.8627C40.1823 25.2468 39.7771 25.5516 39.3066 25.777C38.8511 26.0016 38.3219 26.1322 37.7188 26.1689C37.4625 26.1845 37.1879 26.1482 36.895 26.06C36.6181 25.986 36.3544 25.8809 36.104 25.7448C35.8536 25.6086 35.64 25.455 35.4631 25.2841C35.3013 25.1122 35.2154 24.9433 35.2053 24.7774C35.4936 24.7901 35.7862 24.7496 36.0832 24.6558C36.3952 24.5611 36.6871 24.3844 36.9589 24.1256C37.2448 23.8508 37.5106 23.4939 37.7563 23.055C38.0162 22.6001 38.2465 22.0334 38.4474 21.3549L40.3333 13.1772L41.5863 6.53706C41.5996 6.50597 41.6044 6.46026 41.6007 6.39991C40.7784 6.81334 40.0553 7.36459 39.4314 8.05364C38.8216 8.72669 38.2735 9.4187 37.7871 10.1297C37.5227 10.5092 37.2987 10.9316 37.1151 11.397C36.9307 11.8474 36.8495 12.2536 36.8715 12.6156C36.8834 12.8117 36.9401 12.9976 37.0416 13.1731C37.1582 13.3477 37.288 13.4912 37.431 13.6037C37.5882 13.7001 37.7422 13.7437 37.8929 13.7345C38.0588 13.7244 38.197 13.6328 38.3075 13.4595C38.4884 13.4485 38.6258 13.5915 38.7195 13.8887C38.8132 14.1858 38.8108 14.5191 38.7122 14.8885C38.6127 15.2428 38.3837 15.5823 38.0251 15.9069C37.6665 16.2316 37.1329 16.4154 36.4243 16.4585C36.0625 16.4806 35.7186 16.4258 35.3928 16.2942C35.0821 16.1617 34.8059 15.9741 34.5641 15.7314C34.3214 15.4736 34.1297 15.1824 33.9889 14.8579C33.8472 14.5182 33.7644 14.1523 33.7405 13.76C33.7033 12.8992 33.8506 12.0878 34.1826 11.3256C34.5136 10.5484 34.9468 9.83309 35.4821 9.17971C36.0315 8.51033 36.661 7.91179 37.3704 7.38409C38.0789 6.84131 38.7999 6.38104 39.5336 6.00329C40.2664 5.61045 40.982 5.3095 41.6805 5.10044C42.3781 4.8763 42.9983 4.74771 43.5411 4.71469C43.9934 4.68717 44.4131 4.74491 44.8001 4.88793C45.1871 5.03094 45.5331 5.24459 45.8379 5.52888C46.1569 5.79716 46.4338 6.121 46.6688 6.50039C46.9188 6.87886 47.1183 7.29826 47.2674 7.75858C47.3424 7.99629 47.4135 8.2948 47.4808 8.65411C47.5622 8.99741 47.6384 9.37889 47.7093 9.79854C47.7793 10.2031 47.8507 10.6303 47.9235 11.0801C47.9953 11.5149 48.0596 11.9501 48.1164 12.3857C48.2542 13.407 48.3877 14.4815 48.5168 15.6093C48.5223 15.6998 48.5368 15.8125 48.5601 15.9473C48.5825 16.0671 48.6125 16.1864 48.65 16.3052C48.7016 16.4081 48.7599 16.4954 48.8248 16.5672C48.9048 16.638 49.0051 16.6698 49.1257 16.6624C49.5931 16.634 50.0572 16.3029 50.518 15.6692C50.9789 15.0355 51.4305 14.2509 51.873 13.3155C52.3296 12.3641 52.7897 11.3443 53.2531 10.2562C53.7307 9.15207 54.2209 8.13046 54.7237 7.19137C55.2407 6.23627 55.7748 5.43912 56.3261 4.79991C56.8924 4.15978 57.4922 3.82046 58.1255 3.78193C58.804 3.74065 59.3205 3.89849 59.6752 4.25546C60.044 4.59642 60.1752 5.0124 60.0689 5.50341L56.4794 21.8704Z" fill="#FEEB46"/>
<path d="M71.089 18.6876C71.1721 18.5614 71.2735 18.4871 71.3932 18.4647C71.527 18.4262 71.641 18.4345 71.7352 18.4893C71.8444 18.5432 71.9111 18.6451 71.9354 18.7951C71.9587 18.9299 71.9019 19.1151 71.7649 19.3506C71.3292 20.1493 70.7939 20.8027 70.159 21.3107C69.524 21.8187 68.803 22.279 67.9957 22.6915C67.7584 23.7659 67.5337 24.6729 67.3214 25.4126C67.1101 26.1674 66.8523 26.7812 66.5482 27.254C66.26 27.7409 65.8957 28.0962 65.4553 28.3198C65.031 28.5576 64.472 28.6976 63.7784 28.7398C63.4769 28.7581 63.158 28.7397 62.8217 28.6844C62.5014 28.6434 62.2005 28.5481 61.919 28.3987C61.6376 28.2492 61.3976 28.0367 61.1993 27.7611C61.0169 27.4996 60.9129 27.1577 60.8872 26.7353C60.8716 26.4788 60.8861 26.2205 60.9308 25.9604C60.9906 25.6994 61.1258 25.4337 61.3363 25.1635C61.5619 24.8924 61.8771 24.6007 62.2818 24.2883C62.7026 23.9902 63.2656 23.6682 63.9709 23.3225L64.3823 21.5032C63.9105 21.9558 63.4048 22.35 62.8653 22.6857C62.3409 23.0204 61.6791 23.2121 60.8801 23.2607C60.5333 23.2818 60.1956 23.2039 59.8671 23.0271C59.5536 22.8493 59.2737 22.6014 59.0273 22.2832C58.7951 21.9491 58.628 21.5656 58.526 21.1327C58.408 20.6856 58.4013 20.2015 58.5058 19.6803L59.4812 15.192C59.5181 15.0535 59.5188 14.9399 59.4831 14.8512C59.4466 14.7474 59.4034 14.6592 59.3535 14.5865C59.2886 14.5148 59.2091 14.4515 59.115 14.3966C59.3009 14.2188 59.5174 14.0466 59.7645 13.8802C59.9683 13.7466 60.2177 13.6179 60.5128 13.4939C60.8079 13.37 61.1515 13.2961 61.5435 13.2722C62.1767 13.2337 62.6702 13.3854 63.024 13.7273C63.3928 14.0682 63.5231 14.4691 63.4149 14.93L62.1931 20.5916C62.1817 20.6529 62.1712 20.7292 62.1617 20.8206C62.1672 20.9111 62.1798 20.9937 62.1994 21.0682C62.2191 21.1427 62.2534 21.2087 62.3023 21.2663C62.3663 21.323 62.4586 21.3477 62.5792 21.3403C62.8958 21.3211 63.2551 21.1326 63.6571 20.7751C64.0732 20.4015 64.463 19.969 64.8266 19.4774L65.8362 14.8054C65.8732 14.6668 65.8738 14.5532 65.8381 14.4646C65.8016 14.3608 65.7584 14.2726 65.7085 14.1999C65.6436 14.1281 65.5641 14.0648 65.47 14.01C65.6559 13.8321 65.8724 13.66 66.1196 13.4935C66.3233 13.36 66.5727 13.2312 66.8678 13.1073C67.163 12.9833 67.5065 12.9094 67.8985 12.8856C68.5318 12.8471 69.0252 12.9987 69.379 13.3406C69.7478 13.6816 69.8781 14.0825 69.7699 14.5433C69.6162 15.2492 69.4567 15.9857 69.2915 16.7528C69.1263 17.52 68.973 18.2334 68.8315 18.8931C68.6901 19.5528 68.5652 20.113 68.4571 20.5739C68.348 21.0196 68.2878 21.2731 68.2764 21.3344C68.9091 21.0385 69.4321 20.6811 69.8455 20.2623C70.273 19.8274 70.6875 19.3026 71.089 18.6876ZM62.7245 26.7144C62.8753 26.7052 63.005 26.5989 63.1137 26.3954C63.2384 26.2061 63.3391 25.9956 63.4158 25.7638C63.5048 25.4858 63.584 25.1706 63.6533 24.8181C63.5647 24.8538 63.4473 24.914 63.3011 24.9986C63.1709 25.0973 63.0341 25.2116 62.8907 25.3415C62.7473 25.4714 62.6194 25.6078 62.507 25.751C62.3956 25.9092 62.3298 26.0721 62.3098 26.2399C62.3002 26.3314 62.3217 26.436 62.3743 26.554C62.4269 26.6719 62.5436 26.7254 62.7245 26.7144Z" fill="#FEEB46"/>
<path d="M56.4794 21.8704C56.4707 21.977 56.4918 22.0741 56.5425 22.1619C56.6083 22.2487 56.7317 22.2866 56.9126 22.2756C57.2896 22.2527 57.7304 22.0366 58.2351 21.6273C58.7399 21.2181 59.1935 20.7135 59.5958 20.1137C59.6789 19.9875 59.7874 19.9052 59.9213 19.8667C60.0551 19.8283 60.1691 19.8365 60.2633 19.8914C60.3725 19.9453 60.4392 20.0472 60.4635 20.1971C60.5028 20.3462 60.454 20.5384 60.317 20.7739C60.042 21.2297 59.662 21.6995 59.177 22.1833C58.7069 22.6661 58.1805 23.0918 57.5976 23.4604C57.0156 23.8441 56.4055 24.1386 55.7673 24.344C55.13 24.5645 54.5288 24.6313 53.9636 24.5446C53.582 24.4921 53.2793 24.3667 53.0554 24.1683C52.8474 23.9841 52.69 23.759 52.583 23.493C52.476 23.2269 52.4133 22.943 52.395 22.6413C52.3908 22.3236 52.4177 22.0191 52.4756 21.7279L54.8817 10.9066C54.7301 11.4004 54.5304 11.9728 54.2824 12.6238C54.0487 13.2588 53.7711 13.9193 53.4496 14.605C53.1272 15.2758 52.7742 15.9408 52.3906 16.6C52.0061 17.2443 51.5882 17.8375 51.1369 18.3798C50.6998 18.906 50.2275 19.3512 49.72 19.7152C49.2267 20.0632 48.71 20.2763 48.17 20.3546C47.5696 20.4365 47.0718 20.3381 46.6765 20.0593C46.2954 19.7645 45.9908 19.3591 45.7627 18.843C45.5336 18.3119 45.3523 17.6945 45.2187 16.991C45.1002 16.2865 45.0029 15.5581 44.9268 14.8056C44.8499 14.0381 44.7743 13.2932 44.7001 12.5709C44.64 11.8326 44.5539 11.164 44.4418 10.5652C44.2881 11.271 44.1233 12.0457 43.9477 12.8892C43.7711 13.7176 43.5945 14.546 43.4179 15.3744C43.2413 16.2028 43.0633 17.0085 42.884 17.7917C42.7197 18.5739 42.5725 19.2642 42.4425 19.8627C42.3124 20.4611 42.1986 20.9526 42.1009 21.3371C42.0174 21.7055 41.9761 21.8973 41.977 21.9124C41.8159 22.4976 41.6148 23.0474 41.3737 23.5617C41.1467 24.0601 40.8629 24.4937 40.5221 24.8627C40.1823 25.2468 39.7771 25.5516 39.3066 25.777C38.8511 26.0016 38.3219 26.1322 37.7188 26.1689C37.4625 26.1845 37.1879 26.1482 36.895 26.06C36.6181 25.986 36.3544 25.8809 36.104 25.7448C35.8536 25.6086 35.64 25.455 35.4631 25.2841C35.3013 25.1122 35.2154 24.9433 35.2053 24.7774C35.4936 24.7901 35.7862 24.7496 36.0832 24.6558C36.3952 24.5611 36.6871 24.3844 36.9589 24.1256C37.2448 23.8508 37.5106 23.4939 37.7563 23.055C38.0162 22.6001 38.2465 22.0334 38.4474 21.3549L40.3333 13.1772L41.5863 6.53706C41.5996 6.50597 41.6044 6.46026 41.6007 6.39991C40.7784 6.81334 40.0553 7.36459 39.4314 8.05364C38.8216 8.72669 38.2735 9.4187 37.7871 10.1297C37.5227 10.5092 37.2987 10.9316 37.1151 11.397C36.9307 11.8474 36.8495 12.2536 36.8715 12.6156C36.8834 12.8117 36.9401 12.9976 37.0416 13.1731C37.1582 13.3477 37.288 13.4912 37.431 13.6037C37.5882 13.7001 37.7422 13.7437 37.8929 13.7345C38.0588 13.7244 38.197 13.6328 38.3075 13.4595C38.4884 13.4485 38.6258 13.5915 38.7195 13.8887C38.8132 14.1858 38.8108 14.5191 38.7122 14.8885C38.6127 15.2428 38.3837 15.5823 38.0251 15.9069C37.6665 16.2316 37.1329 16.4154 36.4243 16.4585C36.0625 16.4806 35.7186 16.4258 35.3928 16.2942C35.0821 16.1617 34.8059 15.9741 34.5641 15.7314C34.3214 15.4736 34.1297 15.1824 33.9889 14.8579C33.8472 14.5182 33.7644 14.1523 33.7405 13.76C33.7033 12.8992 33.8506 12.0878 34.1826 11.3256C34.5136 10.5484 34.9468 9.83309 35.4821 9.17971C36.0315 8.51033 36.661 7.91179 37.3704 7.38409C38.0789 6.84131 38.7999 6.38104 39.5336 6.00329C40.2664 5.61045 40.982 5.3095 41.6805 5.10044C42.3781 4.8763 42.9983 4.74771 43.5411 4.71469C43.9934 4.68717 44.4131 4.74491 44.8001 4.88793C45.1871 5.03094 45.5331 5.24459 45.8379 5.52888C46.1569 5.79716 46.4338 6.121 46.6688 6.50039C46.9188 6.87886 47.1183 7.29826 47.2674 7.75858C47.3424 7.99629 47.4135 8.2948 47.4808 8.65411C47.5622 8.99741 47.6384 9.37889 47.7093 9.79854C47.7793 10.2031 47.8507 10.6303 47.9235 11.0801C47.9953 11.5149 48.0596 11.9501 48.1164 12.3857C48.2542 13.407 48.3877 14.4815 48.5168 15.6093C48.5223 15.6998 48.5368 15.8125 48.5601 15.9473C48.5825 16.0671 48.6125 16.1864 48.65 16.3052C48.7016 16.4081 48.7599 16.4954 48.8248 16.5672C48.9048 16.638 49.0051 16.6698 49.1257 16.6624C49.5931 16.634 50.0572 16.3029 50.518 15.6692C50.9789 15.0355 51.4305 14.2509 51.873 13.3155C52.3296 12.3641 52.7897 11.3443 53.2531 10.2562C53.7307 9.15207 54.2209 8.13046 54.7237 7.19137C55.2407 6.23627 55.7748 5.43912 56.3261 4.79991C56.8924 4.15978 57.4922 3.82046 58.1255 3.78193C58.804 3.74065 59.3205 3.89849 59.6752 4.25546C60.044 4.59642 60.1752 5.0124 60.0689 5.50341L56.4794 21.8704Z" stroke="#1E1E1E" stroke-width="5.72397" stroke-linejoin="round" mask="url(#path-22-outside-3_2101_4716)"/>
<path d="M71.089 18.6876C71.1721 18.5614 71.2735 18.4871 71.3932 18.4647C71.527 18.4262 71.641 18.4345 71.7352 18.4893C71.8444 18.5432 71.9111 18.6451 71.9354 18.7951C71.9587 18.9299 71.9019 19.1151 71.7649 19.3506C71.3292 20.1493 70.7939 20.8027 70.159 21.3107C69.524 21.8187 68.803 22.279 67.9957 22.6915C67.7584 23.7659 67.5337 24.6729 67.3214 25.4126C67.1101 26.1674 66.8523 26.7812 66.5482 27.254C66.26 27.7409 65.8957 28.0962 65.4553 28.3198C65.031 28.5576 64.472 28.6976 63.7784 28.7398C63.4769 28.7581 63.158 28.7397 62.8217 28.6844C62.5014 28.6434 62.2005 28.5481 61.919 28.3987C61.6376 28.2492 61.3976 28.0367 61.1993 27.7611C61.0169 27.4996 60.9129 27.1577 60.8872 26.7353C60.8716 26.4788 60.8861 26.2205 60.9308 25.9604C60.9906 25.6994 61.1258 25.4337 61.3363 25.1635C61.5619 24.8924 61.8771 24.6007 62.2818 24.2883C62.7026 23.9902 63.2656 23.6682 63.9709 23.3225L64.3823 21.5032C63.9105 21.9558 63.4048 22.35 62.8653 22.6857C62.3409 23.0204 61.6791 23.2121 60.8801 23.2607C60.5333 23.2818 60.1956 23.2039 59.8671 23.0271C59.5536 22.8493 59.2737 22.6014 59.0273 22.2832C58.7951 21.9491 58.628 21.5656 58.526 21.1327C58.408 20.6856 58.4013 20.2015 58.5058 19.6803L59.4812 15.192C59.5181 15.0535 59.5188 14.9399 59.4831 14.8512C59.4466 14.7474 59.4034 14.6592 59.3535 14.5865C59.2886 14.5148 59.2091 14.4515 59.115 14.3966C59.3009 14.2188 59.5174 14.0466 59.7645 13.8802C59.9683 13.7466 60.2177 13.6179 60.5128 13.4939C60.8079 13.37 61.1515 13.2961 61.5435 13.2722C62.1767 13.2337 62.6702 13.3854 63.024 13.7273C63.3928 14.0682 63.5231 14.4691 63.4149 14.93L62.1931 20.5916C62.1817 20.6529 62.1712 20.7292 62.1617 20.8206C62.1672 20.9111 62.1798 20.9937 62.1994 21.0682C62.2191 21.1427 62.2534 21.2087 62.3023 21.2663C62.3663 21.323 62.4586 21.3477 62.5792 21.3403C62.8958 21.3211 63.2551 21.1326 63.6571 20.7751C64.0732 20.4015 64.463 19.969 64.8266 19.4774L65.8362 14.8054C65.8732 14.6668 65.8738 14.5532 65.8381 14.4646C65.8016 14.3608 65.7584 14.2726 65.7085 14.1999C65.6436 14.1281 65.5641 14.0648 65.47 14.01C65.6559 13.8321 65.8724 13.66 66.1196 13.4935C66.3233 13.36 66.5727 13.2312 66.8678 13.1073C67.163 12.9833 67.5065 12.9094 67.8985 12.8856C68.5318 12.8471 69.0252 12.9987 69.379 13.3406C69.7478 13.6816 69.8781 14.0825 69.7699 14.5433C69.6162 15.2492 69.4567 15.9857 69.2915 16.7528C69.1263 17.52 68.973 18.2334 68.8315 18.8931C68.6901 19.5528 68.5652 20.113 68.4571 20.5739C68.348 21.0196 68.2878 21.2731 68.2764 21.3344C68.9091 21.0385 69.4321 20.6811 69.8455 20.2623C70.273 19.8274 70.6875 19.3026 71.089 18.6876ZM62.7245 26.7144C62.8753 26.7052 63.005 26.5989 63.1137 26.3954C63.2384 26.2061 63.3391 25.9956 63.4158 25.7638C63.5048 25.4858 63.584 25.1706 63.6533 24.8181C63.5647 24.8538 63.4473 24.914 63.3011 24.9986C63.1709 25.0973 63.0341 25.2116 62.8907 25.3415C62.7473 25.4714 62.6194 25.6078 62.507 25.751C62.3956 25.9092 62.3298 26.0721 62.3098 26.2399C62.3002 26.3314 62.3217 26.436 62.3743 26.554C62.4269 26.6719 62.5436 26.7254 62.7245 26.7144Z" stroke="#1E1E1E" stroke-width="5.72397" stroke-linejoin="round" mask="url(#path-22-outside-3_2101_4716)"/>
<defs>
<clipPath id="clip0_2101_4716">
<rect width="45.9221" height="26.7431" fill="white" transform="translate(65.1357 14.1191)"/>
</clipPath>
</defs>
</svg>
