<svg width="145" height="85" viewBox="0 0 145 85" fill="none" xmlns="http://www.w3.org/2000/svg">
<rect width="145" height="85" fill="#FF671F"/>
<path d="M20.2027 44.0755C20.2366 44.2782 20.2215 44.4958 20.1462 44.7133C19.9056 45.3805 19.1494 45.7344 18.4648 45.4985C18.3219 45.4469 18.194 45.3767 18.0811 45.2884V45.2847L18.0774 45.2884L17.1633 44.5548L16.2003 43.7843C16.1627 43.7474 16.1176 43.7253 16.0687 43.7069C15.8467 43.6331 15.5985 43.7474 15.5195 43.9648V43.9686L15.1057 45.115L10.8212 57.0223H9.88081L14.6731 43.7142C14.6769 43.7031 14.6806 43.6884 14.6844 43.6774C14.9251 43.0101 15.6812 42.6525 16.3658 42.8885C16.5125 42.9401 16.6442 43.0211 16.7608 43.1096L17.6674 43.8359L18.115 44.1935L18.6266 44.6027C18.6642 44.6358 18.7093 44.6617 18.7582 44.6764C18.9839 44.7538 19.2284 44.6395 19.3074 44.422C19.3338 44.3483 19.3413 44.2782 19.3262 44.2082L19.1795 43.0211L18.2278 35.4087L18.0661 34.1147C18.0435 33.9635 17.9382 33.8271 17.7802 33.7718H17.7764C17.7764 33.7718 17.7764 33.7681 17.7727 33.7681C17.6185 33.7165 17.453 33.7571 17.3363 33.8603V33.8566L16.3809 34.7709L10.7723 40.1163L9.89209 40.9494H9.89586C9.83944 40.9937 9.79806 41.0563 9.77173 41.1263C9.69273 41.3475 9.81311 41.5871 10.035 41.6645C10.0877 41.683 10.1366 41.6904 10.1855 41.6867L10.8476 41.683L11.4268 41.6793L12.5967 41.6682C12.7472 41.6682 12.8976 41.6904 13.0443 41.742C13.7327 41.9778 14.0938 42.7226 13.8493 43.3898C13.8456 43.4009 13.8418 43.4119 13.8343 43.423L8.94041 57.0223H8L12.6005 44.2524L13.0142 43.1023V43.0986C13.0932 42.8848 12.9766 42.6378 12.7509 42.5641C12.702 42.5492 12.6531 42.5419 12.6042 42.5419L11.3591 42.5529L10.1742 42.5604C10.0313 42.5604 9.88457 42.5345 9.74163 42.4829C9.05702 42.2507 8.6959 41.5097 8.93664 40.8351C9.01187 40.625 9.13977 40.4443 9.29776 40.3042L16.7194 33.2373C17.0693 32.9092 17.5846 32.7839 18.0698 32.9497H18.0736C18.0736 32.9534 18.0774 32.9534 18.0774 32.9534C18.5589 33.1193 18.8786 33.5359 18.9425 34.0041L20.2027 44.0755ZM47.5421 57.0334H57.627L69.3482 24.6479H59.2294L47.5421 57.0334ZM87.8743 57.0296H97.8651L103.082 42.7705C105.166 39.3384 109.349 40.1162 108.571 43.117L103.568 57.0296H113.999L118.941 43.4266C120.258 40.0093 125.724 39.8066 124.535 43.8359L119.882 57.0296H129.963L135.598 41.3807C137.471 36.0611 130.839 28.9389 119.419 36.7763C118.069 33.2004 112.434 30.9443 104.918 36.1606L105.426 34.0336H96.052L87.8743 57.0296ZM135.775 25.0681C136.068 24.047 137.031 23.3097 138.178 23.3097C139.551 23.3097 140.683 24.4119 140.683 25.7648C140.683 27.1325 139.551 28.22 138.178 28.22C136.783 28.22 135.659 27.1325 135.659 25.7648C135.659 25.5215 135.696 25.293 135.775 25.0681L135.488 24.9465C135.398 25.2156 135.364 25.4773 135.364 25.7648C135.364 27.2984 136.613 28.526 138.178 28.526C139.729 28.526 141 27.2984 141 25.7648C141 24.2497 139.729 23 138.178 23C136.907 23 135.843 23.8184 135.488 24.9465L135.775 25.0681ZM137.678 25.7022H137.576V24.8838H138.742C139.265 25.0275 139.037 25.7022 138.641 25.7022H137.678V25.9897H138.37C139.243 26.1114 138.81 26.8892 139.013 27.1325H139.311C139.074 26.8265 139.468 26.2146 138.904 25.927C139.661 25.599 139.345 24.5557 138.641 24.5778H137.28V27.1141H137.554V25.9897H137.678V25.7022ZM77.6313 34.0151H68.1784L62.6075 49.3176C59.8314 57.9513 68.7012 60.8157 77.1498 54.84L76.5894 57.0296H85.6022L93.9041 34.0373H84.2668L79.3429 47.1721C78.1956 50.383 71.7895 52.182 72.7675 47.2717L77.6313 34.0151ZM35.7946 35.2353C48.2719 27.973 54.5312 37.8527 49.043 47.8172C42.0539 61.6267 28.9673 58.3532 28.3842 54.4639L27.3008 57.0223H17.8065L29.4299 24.5962H39.5487L35.7946 35.2353ZM39.2364 47.5702C41.2188 45.1556 41.531 41.5761 39.6126 40.3484C37.9839 39.3052 35.9601 39.836 34.1847 41.4729C33.6655 41.9447 33.1841 42.5161 32.7251 43.1723C30.8481 45.8302 30.7428 48.6356 32.6198 49.8632C34.3539 50.9876 37.3594 49.8411 39.2364 47.5702Z" fill="white"/>
</svg>
