<svg width="136" height="34" viewBox="0 0 136 34" fill="none" xmlns="http://www.w3.org/2000/svg">
<path fill-rule="evenodd" clip-rule="evenodd" d="M93.4504 0C91.5665 4.20859e-08 89.7249 0.562894 88.1585 1.61751C86.592 2.67212 85.3711 4.17109 84.6501 5.92488C83.9291 7.67866 83.7403 9.60851 84.1077 11.4704C84.4751 13.3323 85.3821 15.0426 86.7141 16.385C88.0461 17.7275 89.7432 18.6418 91.5908 19.0124C93.4385 19.383 95.3537 19.1932 97.0943 18.467C98.8349 17.7408 100.323 16.5109 101.37 14.9327C102.417 13.3545 102.976 11.4989 102.976 9.60057C102.974 7.05535 101.97 4.61495 100.184 2.81502C98.3979 1.01509 95.9763 0.00267603 93.4504 0ZM93.4504 16.1957C92.155 16.1957 90.8888 15.8086 89.8118 15.0834C88.7348 14.3581 87.8954 13.3274 87.3997 12.1214C86.9041 10.9155 86.7746 9.58852 87.0274 8.30836C87.2803 7.0282 87.9042 5.85235 88.8203 4.92952C89.7364 4.0067 90.9035 3.37835 92.174 3.12395C93.4445 2.86955 94.7613 3.00053 95.958 3.50031C97.1546 4.00009 98.1773 4.84623 98.8966 5.93172C99.616 7.01721 99.9998 8.29328 99.9994 9.59855C99.9925 11.3464 99.3002 13.0207 98.0735 14.2565C96.8468 15.4922 95.185 16.1893 93.4504 16.1957Z" fill="#232323"/>
<path fill-rule="evenodd" clip-rule="evenodd" d="M126.676 3.48786V8.09815H134.661V11.1238H126.676V15.7058H135.835V18.7073H123.726V0.512695H135.835V3.48786H126.676Z" fill="#232323"/>
<path fill-rule="evenodd" clip-rule="evenodd" d="M119.959 0.489258V18.7324H117.171L108.911 6.30215V18.7324H105.908V0.489258H108.6L108.937 0.939979L116.956 12.8326V0.489258H119.959Z" fill="#232323"/>
<path fill-rule="evenodd" clip-rule="evenodd" d="M82.48 0.489258V3.51495H76.7394V18.7324H73.7367V3.51495H67.9961V0.489258H82.48Z" fill="#232323"/>
<path fill-rule="evenodd" clip-rule="evenodd" d="M66.5506 13.7441C66.5221 14.5435 66.316 15.3262 65.9473 16.0346C65.5786 16.743 65.0568 17.3589 64.4204 17.837C63.1808 18.7587 61.5962 19.2074 59.8993 19.2074H59.8893C59.755 19.2091 59.6208 19.1996 59.4881 19.1791C57.6829 19.1124 56.0121 18.5202 54.7805 17.36C53.741 16.3903 53.0789 15.0788 52.9131 13.6613V13.6107V12.4748H55.8295L55.9098 13.4511C56.033 14.1531 56.3794 14.7958 56.8966 15.2823C57.5305 15.8583 58.4451 16.2019 59.6867 16.2484C60.9283 16.2949 61.9111 16.0119 62.565 15.5329C62.8637 15.3275 63.1092 15.0529 63.281 14.7322C63.4527 14.4115 63.5456 14.0539 63.5519 13.6896V13.6734C63.588 12.9074 63.2871 12.3152 62.4908 11.7816C61.7427 11.2783 60.7137 10.961 59.7268 10.6558L59.5503 10.6012L59.0047 10.4436L58.5875 10.3082C57.6809 10.0292 56.4453 9.63914 55.4103 8.91556C54.0885 8.00806 53.3604 6.72461 53.4206 5.14608C53.4369 4.38427 53.635 3.63763 53.9981 2.96922C54.3612 2.30082 54.8786 1.7303 55.5066 1.30585C56.7241 0.43877 58.3889 -0.00588796 60.12 0.0507048C62.8819 0.16389 65.1726 1.57467 66.1374 3.96167L66.1474 3.98593L66.4563 4.92375L63.6201 5.70796L63.3373 5.03896C62.8458 3.87678 61.6424 3.07034 60.0177 3.03193C58.7781 3.00768 57.8734 3.27245 57.2978 3.67669C57.0303 3.85186 56.8102 4.0914 56.6575 4.37369C56.5049 4.65598 56.4243 4.97214 56.4232 5.29362C56.4089 5.53105 56.4685 5.76706 56.5937 5.9687C56.79 6.24524 57.0467 6.47272 57.3439 6.63366C58.1121 7.08842 59.1913 7.44213 60.2584 7.75743L60.5432 7.83424H60.5552L60.6675 7.87062C61.7025 8.19198 63.1106 8.63058 64.278 9.42288C65.8245 10.391 66.6408 11.9008 66.5506 13.7441Z" fill="#232323"/>
<path fill-rule="evenodd" clip-rule="evenodd" d="M41.4552 0.489263H35.502V18.7324H41.4552C46.4697 18.7324 50.5716 14.6395 50.5716 9.62294C50.5604 7.19489 49.5947 4.87027 47.886 3.1583C46.1773 1.44632 43.8648 0.486563 41.4552 0.489263ZM41.4552 15.7329H38.4786V3.48868H41.4552C43.0665 3.48868 44.6119 4.13369 45.7513 5.28181C46.8907 6.42994 47.5308 7.98712 47.5308 9.61081C47.5308 11.2345 46.8907 12.7917 45.7513 13.9398C44.6119 15.0879 43.0665 15.7329 41.4552 15.7329Z" fill="#232323"/>
<path fill-rule="evenodd" clip-rule="evenodd" d="M22.8575 3.48786V8.09815H30.8166V11.1238H22.8575V15.7058H31.99V18.7073H19.8789V0.512695H31.99V3.48786H22.8575Z" fill="#232323"/>
<path fill-rule="evenodd" clip-rule="evenodd" d="M16.7679 18.7101H13.2397L9.38857 12.3454H4.62879L2.85766 9.37429H10.1909C10.576 9.37429 10.9573 9.29786 11.3131 9.14935C11.6689 9.00085 11.9922 8.78319 12.2645 8.5088C12.5368 8.23441 12.7528 7.90866 12.9002 7.55015C13.0475 7.19163 13.1234 6.80738 13.1234 6.41933C13.1234 6.03128 13.0475 5.64703 12.9002 5.28852C12.7528 4.93001 12.5368 4.60426 12.2645 4.32987C11.9922 4.05547 11.6689 3.83781 11.3131 3.68931C10.9573 3.54081 10.576 3.46438 10.1909 3.46438H2.09144L0.320312 0.519531H10.1909C11.5263 0.525808 12.8197 0.991139 13.857 1.83859C14.8944 2.68604 15.6137 3.86485 15.896 5.18012C16.1783 6.4954 16.0067 7.86837 15.4095 9.07202C14.8123 10.2757 13.8254 11.2379 12.6119 11.7997L16.7679 18.7101Z" fill="#232323"/>
<path d="M0.264648 16.1475H2.91185V18.7947H0.264648V16.1475Z" fill="#E70000"/>
<path fill-rule="evenodd" clip-rule="evenodd" d="M78.647 25C77.7743 25 76.9212 25.2608 76.1956 25.7493C75.4699 26.2378 74.9044 26.9322 74.5704 27.7446C74.2363 28.557 74.1489 29.451 74.3191 30.3135C74.4893 31.176 74.9094 31.9682 75.5265 32.5901C76.1435 33.212 76.9296 33.6356 77.7855 33.8072C78.6414 33.9789 79.5286 33.891 80.3349 33.5546C81.1413 33.2182 81.8305 32.6484 82.3154 31.9173C82.8004 31.1863 83.0594 30.3267 83.0596 29.4473C83.0586 28.2683 82.5934 27.1378 81.7661 26.304C80.9388 25.4702 79.817 25.0012 78.647 25ZM78.647 32.5024C78.0469 32.5024 77.4603 32.3231 76.9614 31.9871C76.4625 31.6512 76.0737 31.1737 75.8441 30.6151C75.6145 30.0564 75.5545 29.4417 75.6716 28.8487C75.7887 28.2557 76.0778 27.711 76.5021 27.2835C76.9265 26.856 77.4671 26.565 78.0557 26.4471C78.6442 26.3293 79.2542 26.3899 79.8086 26.6215C80.3629 26.853 80.8366 27.2449 81.1699 27.7478C81.5031 28.2506 81.6809 28.8417 81.6807 29.4464C81.6775 30.2561 81.3568 31.0317 80.7885 31.6041C80.2203 32.1765 79.4505 32.4994 78.647 32.5024Z" fill="#A2A2A2"/>
<path fill-rule="evenodd" clip-rule="evenodd" d="M100.235 25.123V26.5247H97.5756V33.5739H96.1846V26.5247H93.5254V25.123H100.235Z" fill="#A2A2A2"/>
<path fill-rule="evenodd" clip-rule="evenodd" d="M91.3873 25.123V26.5247H86.682V33.5739H85.291V26.5247L85.291 25.123H91.3873Z" fill="#A2A2A2"/>
<path fill-rule="evenodd" clip-rule="evenodd" d="M90.3257 28.7492V30.1508H88.0729H86.682L86.682 28.7492H90.3257Z" fill="#A2A2A2"/>
<path fill-rule="evenodd" clip-rule="evenodd" d="M72.3174 31.4686C72.3042 31.8389 72.2087 32.2014 72.0379 32.5296C71.8671 32.8577 71.6254 33.1431 71.3306 33.3645C70.7564 33.7915 70.0223 33.9993 69.2363 33.9993H69.2316C69.1694 34.0001 69.1073 33.9957 69.0458 33.9862C68.2095 33.9553 67.4356 33.681 66.865 33.1436C66.3835 32.6944 66.0768 32.0868 66 31.4302V31.4068V30.8806H67.351L67.3882 31.3328C67.4453 31.658 67.6057 31.9557 67.8453 32.1811C68.1389 32.4479 68.5626 32.6071 69.1378 32.6286C69.7129 32.6501 70.1682 32.5191 70.4711 32.2972C70.6095 32.202 70.7232 32.0748 70.8028 31.9262C70.8823 31.7777 70.9253 31.6121 70.9283 31.4433V31.4358C70.945 31.0809 70.8056 30.8066 70.4367 30.5594C70.0902 30.3263 69.6135 30.1793 69.1564 30.0379L69.0746 30.0126L68.8219 29.9396L68.6286 29.8769C68.2086 29.7477 67.6363 29.567 67.1568 29.2318C66.5445 28.8114 66.2072 28.2169 66.2351 27.4856C66.2427 27.1327 66.3344 26.7869 66.5026 26.4772C66.6708 26.1676 66.9105 25.9033 67.2014 25.7067C67.7654 25.305 68.5366 25.0991 69.3385 25.1253C70.6179 25.1777 71.679 25.8312 72.126 26.937L72.1306 26.9482L72.2737 27.3826L70.9599 27.7459L70.8288 27.436C70.6012 26.8976 70.0437 26.5241 69.2911 26.5063C68.7169 26.495 68.2978 26.6177 68.0311 26.805C67.9072 26.8861 67.8053 26.9971 67.7346 27.1278C67.6638 27.2586 67.6265 27.4051 67.626 27.554C67.6194 27.664 67.647 27.7733 67.705 27.8667C67.7959 27.9948 67.9148 28.1002 68.0525 28.1747C68.4084 28.3854 68.9083 28.5492 69.4026 28.6953L69.5345 28.7309H69.5401L69.5921 28.7477C70.0716 28.8966 70.7239 29.0998 71.2646 29.4668C71.981 29.9153 72.3592 30.6147 72.3174 31.4686Z" fill="#A2A2A2"/>
<path fill-rule="evenodd" clip-rule="evenodd" d="M131.769 26.5012V28.6369H135.456V30.0385H131.769V32.1611H136V33.5514H130.39V25.123H136V26.5012H131.769Z" fill="#A2A2A2"/>
<path fill-rule="evenodd" clip-rule="evenodd" d="M128.18 33.5496H126.545L124.761 30.6012H122.556L121.736 29.2249H125.133C125.311 29.2249 125.488 29.1895 125.653 29.1207C125.818 29.0519 125.967 28.9511 126.094 28.824C126.22 28.6969 126.32 28.546 126.388 28.3799C126.456 28.2138 126.491 28.0358 126.491 27.856C126.491 27.6763 126.456 27.4983 126.388 27.3322C126.32 27.1661 126.22 27.0152 126.094 26.8881C125.967 26.761 125.818 26.6602 125.653 26.5914C125.488 26.5226 125.311 26.4872 125.133 26.4872H121.381L120.561 25.123H125.133C125.752 25.126 126.351 25.3415 126.831 25.7341C127.312 26.1266 127.645 26.6727 127.776 27.282C127.907 27.8913 127.827 28.5273 127.55 29.0849C127.274 29.6424 126.817 30.0882 126.254 30.3484L128.18 33.5496Z" fill="#A2A2A2"/>
<path d="M105.965 33.606H105.11L102.537 25.3096H103.791L105.573 31.0399L107.283 25.3096H108.075L109.785 31.0399L111.56 25.3096H112.814L110.248 33.606H109.387L107.676 28.0751L105.965 33.606Z" fill="#A2A2A2"/>
<path d="M114.516 33.606H113.198L116.362 25.3096H117.41L120.574 33.606H119.256L118.529 31.6959H115.236L114.516 33.606ZM118.073 30.5125L116.883 27.2197L115.699 30.5125H118.073Z" fill="#A2A2A2"/>
</svg>
