<svg width="169" height="38" fill="none" xmlns="http://www.w3.org/2000/svg"><g clip-path="url(#a)"><path fill-rule="evenodd" clip-rule="evenodd" d="M115.292.997c-2.331 0-4.609.696-6.547 2a11.855 11.855 0 0 0-4.341 5.329 11.96 11.96 0 0 0-.671 6.859 11.904 11.904 0 0 0 3.225 6.079 11.756 11.756 0 0 0 6.033 3.25c2.286.458 4.656.223 6.81-.675a11.804 11.804 0 0 0 5.289-4.372 11.942 11.942 0 0 0 1.988-6.595 11.934 11.934 0 0 0-3.455-8.393 11.756 11.756 0 0 0-8.331-3.482Zm0 20.033a8.064 8.064 0 0 1-4.502-1.376 8.152 8.152 0 0 1-2.984-3.664 8.227 8.227 0 0 1-.461-4.716 8.18 8.18 0 0 1 2.219-4.18 8.081 8.081 0 0 1 4.149-2.233 8.049 8.049 0 0 1 4.682.466 8.116 8.116 0 0 1 3.635 3.007 8.21 8.21 0 0 1 1.365 4.536 8.225 8.225 0 0 1-2.383 5.761 8.103 8.103 0 0 1-5.72 2.399ZM156.4 5.312v5.702h9.88v3.743h-9.88v5.667h11.332v3.713H152.75V1.632h14.982v3.68H156.4Zm-8.31-3.71v22.565h-3.449l-10.22-15.375v15.375h-3.715V1.602h3.33l.417.558 9.922 14.71V1.602h3.715Zm-46.369 0v3.743h-7.103v18.822h-3.715V5.345h-7.102V1.602h17.92Zm-19.71 16.395a6.649 6.649 0 0 1-.746 2.833 6.6 6.6 0 0 1-1.89 2.23c-1.533 1.14-3.493 1.695-5.593 1.695h-.012a2.988 2.988 0 0 1-.496-.035c-2.234-.083-4.301-.815-5.825-2.25a7.437 7.437 0 0 1-2.31-4.575v-1.468h3.608l.1 1.208a4.077 4.077 0 0 0 1.22 2.265c.784.712 1.916 1.137 3.452 1.195 1.536.057 2.752-.293 3.561-.885a2.824 2.824 0 0 0 1.221-2.28v-.02c.045-.948-.327-1.68-1.313-2.34-.925-.623-2.198-1.015-3.42-1.393l-.218-.067-.675-.195-.516-.168c-1.122-.345-2.65-.827-3.93-1.722-1.636-1.123-2.537-2.71-2.463-4.663.02-.942.266-1.866.715-2.692a5.856 5.856 0 0 1 1.866-2.058C69.854 1.54 71.914.99 74.055 1.06c3.417.14 6.251 1.885 7.445 4.837l.013.03.382 1.16-3.51.97-.35-.827c-.607-1.438-2.096-2.435-4.106-2.483-1.534-.03-2.653.298-3.365.798a2.39 2.39 0 0 0-1.082 2 1.42 1.42 0 0 0 .21.835c.243.342.56.623.929.822.95.563 2.285 1 3.606 1.39l.352.095h.015l.139.045c1.28.398 3.022.94 4.467 1.92 1.913 1.198 2.923 3.065 2.811 5.345ZM50.963 1.602h-7.365v22.565h7.365c6.204 0 11.28-5.062 11.28-11.267a11.392 11.392 0 0 0-3.323-7.997 11.225 11.225 0 0 0-7.957-3.3Zm0 18.855H47.28V5.312h3.683c1.994 0 3.906.798 5.315 2.218a7.601 7.601 0 0 1 2.202 5.355 7.6 7.6 0 0 1-2.202 5.354 7.49 7.49 0 0 1-5.315 2.218ZM27.953 5.312v5.702H37.8v3.743h-9.847v5.667h11.299v3.713H24.268V1.632h14.984v3.68h-11.3ZM20.419 24.14h-4.365l-4.765-7.873h-5.89l-2.19-3.675h9.072a3.604 3.604 0 0 0 2.566-1.07 3.657 3.657 0 0 0 1.063-2.585 3.68 3.68 0 0 0-1.063-2.584 3.627 3.627 0 0 0-2.566-1.07H2.261L.069 1.64h12.212a7.224 7.224 0 0 1 4.536 1.631 7.318 7.318 0 0 1 2.523 4.133 7.359 7.359 0 0 1-.602 4.814 7.28 7.28 0 0 1-3.461 3.374l5.142 8.548Z" fill="#fff"/><path d="M.744 19.637h4.467v4.5H.744v-4.5Z" fill="#E70000"/><path d="M69.159 35.202a1.541 1.541 0 0 1-.616 1.182 2.257 2.257 0 0 1-1.355.408.586.586 0 0 1-.11 0 2.175 2.175 0 0 1-1.421-.538 1.79 1.79 0 0 1-.549-1.08v-.2h.599v.163c.076.5.496 1.047 1.407 1.075.37.026.74-.069 1.054-.27a.922.922 0 0 0 .395-.75c.025-.703-.635-.955-1.432-1.193a1.564 1.564 0 0 1-.176-.047l-.114-.035c-.603-.193-1.596-.5-1.561-1.5a1.38 1.38 0 0 1 .593-1.098 2.222 2.222 0 0 1 1.38-.372 1.91 1.91 0 0 1 1.781 1.152l.065.158-.556.197-.06-.142a1.339 1.339 0 0 0-1.24-.785 1.728 1.728 0 0 0-.993.25.813.813 0 0 0-.362.667c-.018.52.588.75 1.382.988l.074.022c.693.203 1.857.555 1.815 1.748Zm4.923-4.097v.602h-1.861v4.928h-.598v-4.928h-1.861v-.602h4.32Zm2.551.015h-.529l-2.072 5.5h.628l.551-1.478h2.315l.551 1.478h.628l-2.072-5.5Zm-1.191 3.45.968-2.395.888 2.395h-1.856Zm7.874-3.465-2.144 2.857v2.672h-.596v-2.672l-2.151-2.858h.74l1.707 2.278 1.712-2.277h.732Zm8.182-.015v3.537a2.198 2.198 0 0 1-.634 1.521 2.17 2.17 0 0 1-1.508.644c-.57 0-1.116-.23-1.519-.635a2.176 2.176 0 0 1-.63-1.53v-3.538h.598v3.538c.016.402.186.783.475 1.062a1.543 1.543 0 0 0 2.145 0c.289-.279.459-.66.475-1.062v-3.538h.598Zm5.519.015v5.515l-.161.015h-.412l-3.008-4.343v4.343h-.598v-5.53h.59l2.936 4.354.057-4.355h.596Zm2.098 0h-.598v5.53h.598v-5.53Zm5.876 5.8c-.158.137-.573.302-1.129.042a2.635 2.635 0 0 0-.285-.112l.248-.075a2.89 2.89 0 0 0 1.766-1.021 2.933 2.933 0 0 0-.103-3.84 2.88 2.88 0 0 0-3.791-.413 2.936 2.936 0 0 0-.917 3.73 2.907 2.907 0 0 0 1.509 1.376l-.784.225.156.61.164-.082a3.058 3.058 0 0 1 1.794.135c.261.128.546.195.836.197a1.38 1.38 0 0 0 .926-.325l.122-.107-.393-.448-.119.108Zm-3.945-3.028a2.342 2.342 0 0 1 .387-1.297 2.32 2.32 0 0 1 1.038-.861 2.3 2.3 0 0 1 2.524.501 2.346 2.346 0 0 1-.345 3.59 2.307 2.307 0 0 1-2.924-.286 2.342 2.342 0 0 1-.68-1.647Zm10.692-2.787v3.537a2.197 2.197 0 0 1-.634 1.521 2.17 2.17 0 0 1-1.508.644 2.145 2.145 0 0 1-1.519-.635 2.18 2.18 0 0 1-.63-1.53v-3.538h.598v3.538c.016.402.186.783.475 1.062a1.542 1.542 0 0 0 2.146 0c.288-.279.458-.66.474-1.062v-3.538h.598Zm1.931.61v1.872h2.584v.595h-2.584v1.873h2.963v.587h-3.546v-5.515h3.546v.588h-2.963Zm4.626 4.942c.209 0 .377-.17.377-.38s-.168-.38-.377-.38a.379.379 0 0 0-.377.38c0 .21.169.38.377.38Zm7.773-2.86a1.523 1.523 0 0 0 .565-1.18c0-.398-.157-.78-.436-1.06a1.483 1.483 0 0 0-1.053-.44h-2.186v5.537h2.261a1.553 1.553 0 0 0 1.478-1.111 1.566 1.566 0 0 0-.629-1.746Zm-2.539-2.105h1.618c.243 0 .477.098.649.271a.93.93 0 0 1 0 1.308.915.915 0 0 1-.649.271h-1.618v-1.85Zm1.692 4.385h-1.692V34.1h1.692c.25.012.486.121.658.304a.988.988 0 0 1 0 1.354.972.972 0 0 1-.658.304Zm3.346-4.362v1.872h2.583v.595h-2.583v1.873h2.963v.587h-3.547v-5.515h3.547v.588h-2.963Zm9.934-.753c-.574 0-1.135.172-1.612.493a2.922 2.922 0 0 0-1.069 1.311 2.935 2.935 0 0 0 .629 3.185 2.881 2.881 0 0 0 3.162.633c.53-.22.983-.595 1.302-1.076a2.936 2.936 0 0 0-.362-3.689 2.891 2.891 0 0 0-2.05-.857Zm0 5.25a2.3 2.3 0 0 1-1.284-.392 2.335 2.335 0 0 1 .833-4.218 2.295 2.295 0 0 1 2.372.99 2.338 2.338 0 0 1-.29 2.936 2.309 2.309 0 0 1-1.631.684Zm8.279-5.092v5.515l-.162.015h-.412l-2.995-4.273-.012 4.273h-.598v-5.53h.588l2.933 4.354.062-4.355h.596Zm8.387 0v.602h-1.861v4.928h-.598v-4.928h-1.861v-.602h4.32Zm3.13-.158c-.574 0-1.135.172-1.612.493a2.922 2.922 0 0 0-1.069 1.311 2.947 2.947 0 0 0-.165 1.689c.112.567.388 1.088.794 1.496a2.881 2.881 0 0 0 3.162.633c.53-.22.983-.595 1.302-1.076a2.938 2.938 0 0 0-.362-3.69 2.891 2.891 0 0 0-2.05-.856Zm0 5.25a2.3 2.3 0 0 1-1.284-.392 2.335 2.335 0 0 1 .833-4.218 2.295 2.295 0 0 1 2.372.99c.253.382.389.832.389 1.293a2.343 2.343 0 0 1-.679 1.643 2.309 2.309 0 0 1-1.631.684Zm6.137-5.1h-2.045v5.545h.583v-2.077h1.462a1.716 1.716 0 0 0 1.175-.53 1.741 1.741 0 0 0 0-2.407 1.716 1.716 0 0 0-1.175-.53Zm0 2.88h-1.462v-2.292h1.462a1.147 1.147 0 0 1 1.085 1.146 1.147 1.147 0 0 1-1.085 1.146Zm3.744 2.285a.383.383 0 0 1-.451.373.377.377 0 0 1-.296-.299.384.384 0 0 1 .16-.39.378.378 0 0 1 .587.316Z" fill="#B8B8B8"/></g><defs><clipPath id="a"><path fill="#fff" transform="translate(0 .997)" d="M0 0h169v37H0z"/></clipPath></defs></svg>