<svg width="138" height="30" fill="none" xmlns="http://www.w3.org/2000/svg"><g clip-path="url(#a)"><path d="M94.789.833a8.9 8.9 0 0 0-3.783.848 8.843 8.843 0 0 0-3.055 2.372 8.739 8.739 0 0 0-1.834 7.294 8.787 8.787 0 0 0 3.411 5.343 8.894 8.894 0 0 0 11.827-1.16 8.76 8.76 0 0 0 2.293-5.904 8.776 8.776 0 0 0-2.598-6.217A8.891 8.891 0 0 0 94.789.833Zm0 16.243a7.536 7.536 0 0 1-4.167-1.257 7.462 7.462 0 0 1-2.762-3.344 7.407 7.407 0 0 1-.427-4.305 7.438 7.438 0 0 1 2.053-3.815 7.515 7.515 0 0 1 3.841-2.04 7.546 7.546 0 0 1 4.334.426 7.49 7.49 0 0 1 3.365 2.745 7.411 7.411 0 0 1 1.263 4.14 7.448 7.448 0 0 1-2.205 5.26 7.548 7.548 0 0 1-5.295 2.19Z" fill="#232323"/><path fill-rule="evenodd" clip-rule="evenodd" d="M94.789 0c-1.917 0-3.79.565-5.383 1.622a9.64 9.64 0 0 0-3.57 4.32 9.568 9.568 0 0 0-.55 5.562 9.607 9.607 0 0 0 2.65 4.929 9.71 9.71 0 0 0 4.961 2.634 9.748 9.748 0 0 0 5.598-.547 9.675 9.675 0 0 0 4.349-3.544 9.578 9.578 0 0 0 1.634-5.348 9.606 9.606 0 0 0-2.84-6.805A9.733 9.733 0 0 0 94.788 0Zm0 16.243a6.692 6.692 0 0 1-3.702-1.116 6.627 6.627 0 0 1-2.453-2.97 6.577 6.577 0 0 1-.38-3.825 6.605 6.605 0 0 1 1.825-3.388 6.676 6.676 0 0 1 3.411-1.81 6.703 6.703 0 0 1 3.85.377 6.649 6.649 0 0 1 2.988 2.438 6.58 6.58 0 0 1 1.122 3.677 6.622 6.622 0 0 1-1.959 4.672 6.708 6.708 0 0 1-4.702 1.945Z" fill="#232323"/><path d="M127.748 2.666v6.283h8.122v1.367h-8.122v6.271h9.316v1.34h-10.64V1.35h10.64v1.316h-9.316Zm-6.835 15.287h-1.428l-9.808-14.335v14.335h-1.375V1.332h1.479l.077.103 9.68 14.155V1.324h1.375v16.63ZM82.79 1.323V2.69h-5.84v15.263h-1.375V2.69h-5.837V1.324H82.79ZM66.587 13.752c-.022.68-.2 1.347-.517 1.95a4.529 4.529 0 0 1-1.319 1.53c-1.093.81-2.522 1.215-4.107 1.215a1.576 1.576 0 0 1-.337-.026c-1.714-.053-3.217-.594-4.307-1.6a5.169 5.169 0 0 1-1.632-3.196v-.28h1.355l.02.251c.152.9.6 1.726 1.273 2.348.83.748 1.971 1.133 3.373 1.185 1.402.053 2.595-.257 3.452-.877a3.114 3.114 0 0 0 1.349-2.499c.053-1.11-.44-1.96-1.453-2.636-.934-.608-2.205-.979-3.217-1.289l-.545-.154-.398-.124c-.934-.283-2.077-.644-3.012-1.289-1.14-.774-1.711-1.806-1.66-3.069a3.906 3.906 0 0 1 .486-1.814 3.935 3.935 0 0 1 1.279-1.382c1.064-.748 2.568-1.162 4.178-1.11C63.392.99 65.39 2.253 66.22 4.29l.027.077-1.324.361c-.653-1.52-2.202-2.475-4.122-2.526-1.375-.026-2.491.258-3.264.799a2.76 2.76 0 0 0-1.253 2.27c-.025.852.39 1.523 1.35 2.088.882.517 2.076.904 3.167 1.216l.286.077c1.09.337 2.464.748 3.58 1.496 1.323.82 1.998 2.058 1.92 3.604ZM41.9 1.324h-5.217v16.621H41.9c4.643 0 8.432-3.738 8.432-8.31a8.341 8.341 0 0 0-2.49-5.884A8.451 8.451 0 0 0 41.9 1.324Zm0 15.29h-3.877V2.665H41.9a7.054 7.054 0 0 1 3.958 1.133 6.986 6.986 0 0 1 2.636 3.144 6.934 6.934 0 0 1 .408 4.072 6.962 6.962 0 0 1-1.96 3.598 7.061 7.061 0 0 1-5.042 2Z" fill="#232323"/><path fill-rule="evenodd" clip-rule="evenodd" d="M128.587 3.499v4.623h8.122v3.035h-8.122v4.595h9.316v3.01h-12.318V.515h12.318v2.984h-9.316ZM121.754.49v18.295h-2.836L110.515 6.32v12.466h-3.054V.491h2.738l.343.452 8.157 11.927V.49h3.055ZM83.63.49v3.034h-5.839v15.261h-3.054V3.526h-5.84V.491H83.63ZM67.426 13.784a5.332 5.332 0 0 1-.614 2.297 5.37 5.37 0 0 1-1.553 1.808c-1.26.924-2.872 1.374-4.599 1.374h-.01a2.5 2.5 0 0 1-.408-.029c-1.836-.066-3.536-.66-4.788-1.824a6.002 6.002 0 0 1-1.9-3.71v-1.19h2.967l.081.98a3.29 3.29 0 0 0 1.004 1.836c.645.578 1.575.923 2.838.97 1.263.046 2.263-.238 2.928-.718a2.292 2.292 0 0 0 1.004-1.849v-.016c.037-.768-.27-1.362-1.08-1.897-.76-.505-1.807-.823-2.811-1.13l-.18-.054-.554-.158-.425-.136c-.922-.28-2.179-.671-3.232-1.397-1.344-.91-2.085-2.197-2.024-3.78a4.74 4.74 0 0 1 .588-2.183c.37-.67.895-1.243 1.534-1.669C57.431.44 59.124-.005 60.885.052c2.81.113 5.14 1.528 6.12 3.922l.011.024.314.94-2.885.787-.287-.67c-.5-1.166-1.724-1.975-3.377-2.013-1.261-.025-2.181.24-2.767.646a1.946 1.946 0 0 0-.89 1.622 1.14 1.14 0 0 0 .174.677c.2.277.46.505.763.667.782.456 1.88.81 2.965 1.127l.29.077h.012l.114.036c1.053.323 2.485.762 3.673 1.557 1.573.971 2.403 2.485 2.311 4.334ZM41.9.49h-6.056v18.295H41.9c5.1 0 9.273-4.104 9.273-9.135a9.173 9.173 0 0 0-2.732-6.484A9.294 9.294 0 0 0 41.9.491Zm0 15.287h-3.028V3.498H41.9a6.2 6.2 0 0 1 4.37 1.799 6.12 6.12 0 0 1 1.81 4.342 6.12 6.12 0 0 1-1.81 4.341 6.2 6.2 0 0 1-4.37 1.798ZM22.982 3.498v4.624h8.096v3.035h-8.096v4.595h9.29v3.01h-12.32V.515h12.32v2.984h-9.29Zm-6.194 15.266h-3.59l-3.917-6.383H4.44l-1.802-2.98h7.46c.79 0 1.55-.312 2.109-.868a2.954 2.954 0 0 0 0-4.19 2.993 2.993 0 0 0-2.11-.869H1.86L.057.521h10.04a5.99 5.99 0 0 1 3.73 1.323A5.921 5.921 0 0 1 15.9 5.195a5.892 5.892 0 0 1-.495 3.903 5.948 5.948 0 0 1-2.846 2.736l4.228 6.93Z" fill="#232323"/><path d="M.612 15.114h3.673v3.648H.612v-3.649Z" fill="#E70000"/><path d="M56.86 27.734a1.236 1.236 0 0 1-.506.958 1.871 1.871 0 0 1-1.114.33 1.802 1.802 0 0 1-1.259-.436 1.444 1.444 0 0 1-.451-.875v-.162h.492v.132c.063.405.408.85 1.156.872.306.02.61-.056.867-.22a.75.75 0 0 0 .325-.607c.02-.57-.522-.775-1.177-.967a1.32 1.32 0 0 1-.145-.039l-.094-.028c-.496-.156-1.312-.406-1.283-1.216a1.108 1.108 0 0 1 .487-.89 1.846 1.846 0 0 1 1.135-.302 1.575 1.575 0 0 1 1.465.934l.053.128-.457.16-.05-.116a1.091 1.091 0 0 0-1.02-.636 1.437 1.437 0 0 0-.816.203.664.664 0 0 0-.298.54c-.014.422.484.609 1.137.802l.061.018c.57.164 1.526.45 1.492 1.417Zm4.048-3.323v.489h-1.53v3.995h-.492V24.9h-1.53v-.489h3.552Zm2.097.013h-.435l-1.703 4.459h.516l.453-1.198h1.904l.452 1.198h.517l-1.704-4.46Zm-.98 2.797.796-1.942.73 1.942h-1.525Zm6.475-2.81-1.763 2.317v2.167h-.49v-2.167l-1.769-2.317h.608l1.404 1.847 1.408-1.847h.602Zm6.727-.012v2.868a1.77 1.77 0 0 1-.522 1.234 1.793 1.793 0 0 1-1.24.522c-.468 0-.917-.186-1.248-.515a1.752 1.752 0 0 1-.518-1.24v-2.869h.492v2.868a1.258 1.258 0 0 0 .796 1.124 1.28 1.28 0 0 0 1.358-.262 1.26 1.26 0 0 0 .39-.862V24.4h.492Zm4.537.012v4.472l-.132.012h-.34l-2.472-3.52v3.52h-.492v-4.484h.486l2.414 3.531.046-3.53h.49Zm1.724 0h-.492v4.484h.492v-4.484Zm4.832 4.703c-.13.112-.472.245-.929.035a2.147 2.147 0 0 0-.234-.092l.204-.06a2.39 2.39 0 0 0 1.151-.527 2.367 2.367 0 0 0 .796-2.296 2.362 2.362 0 0 0-1.454-1.715 2.397 2.397 0 0 0-2.841.861 2.358 2.358 0 0 0 1.085 3.54l-.645.183.129.495.134-.067a2.546 2.546 0 0 1 1.475.11c.215.103.45.158.688.16.277.007.548-.087.761-.264l.1-.087-.322-.363-.098.087Zm-3.244-2.455c-.001-.374.11-.74.318-1.051a1.914 1.914 0 0 1 2.929-.292 1.888 1.888 0 0 1 .416 2.06 1.896 1.896 0 0 1-.7.85 1.914 1.914 0 0 1-2.404-.231 1.885 1.885 0 0 1-.56-1.336Zm8.791-2.26v2.868a1.77 1.77 0 0 1-.52 1.234 1.793 1.793 0 0 1-1.24.522c-.469 0-.918-.186-1.25-.515a1.753 1.753 0 0 1-.517-1.24v-2.869h.491v2.868c.013.327.153.636.39.862a1.278 1.278 0 0 0 1.764 0 1.26 1.26 0 0 0 .39-.862V24.4h.492Zm1.588.495v1.518h2.124v.483h-2.124v1.518h2.436v.476h-2.916v-4.471h2.916v.476h-2.436Zm3.803 4.007a.312.312 0 0 0 .286-.19.306.306 0 0 0-.168-.403.312.312 0 0 0-.338.067.307.307 0 0 0 .22.526Zm6.39-2.319a1.232 1.232 0 0 0 .465-.956c0-.323-.129-.632-.358-.86a1.23 1.23 0 0 0-.866-.357h-1.798v4.49h1.859a1.267 1.267 0 0 0 1.216-.9 1.259 1.259 0 0 0-.518-1.417Zm-2.087-1.706h1.33a.75.75 0 1 1 0 1.5h-1.33v-1.5Zm1.391 3.555h-1.391V26.84h1.391a.797.797 0 0 1 .762.796.801.801 0 0 1-.762.795Zm2.751-3.537v1.518h2.124v.483h-2.124v1.518h2.436v.476h-2.916v-4.471h2.916v.476h-2.436Zm8.167-.61a2.4 2.4 0 0 0-1.843.867 2.364 2.364 0 0 0-.496 1.965c.115.576.443 1.09.918 1.44a2.398 2.398 0 0 0 3.188-.312 2.359 2.359 0 0 0-.081-3.266 2.396 2.396 0 0 0-1.686-.694Zm0 4.257a1.905 1.905 0 0 1-1.755-1.166 1.876 1.876 0 0 1 .412-2.056 1.901 1.901 0 0 1 2.07-.41 1.892 1.892 0 0 1 1.172 1.744c-.001.5-.202.98-.558 1.333a1.912 1.912 0 0 1-1.341.555Zm6.806-4.13v4.472l-.132.012h-.339l-2.463-3.464-.01 3.464h-.491v-4.484h.483l2.412 3.531.051-3.53h.489Zm6.897 0v.489h-1.531v3.995h-.491V24.9h-1.53v-.489h3.552Zm2.573-.127a2.4 2.4 0 0 0-1.844.867 2.37 2.37 0 0 0-.496 1.965c.116.576.443 1.09.919 1.44a2.394 2.394 0 0 0 3.188-.312 2.364 2.364 0 0 0 .618-1.59 2.363 2.363 0 0 0-.7-1.676 2.394 2.394 0 0 0-1.685-.694Zm0 4.257c-.376 0-.743-.111-1.056-.319a1.886 1.886 0 0 1-.808-1.937 1.894 1.894 0 0 1 1.493-1.483 1.91 1.91 0 0 1 1.95.803 1.876 1.876 0 0 1-.238 2.38 1.912 1.912 0 0 1-1.341.556Zm5.045-4.136h-1.681v4.496h.479v-1.684h1.202c.366-.014.713-.168.967-.43a1.401 1.401 0 0 0 0-1.952 1.422 1.422 0 0 0-.967-.43Zm0 2.335h-1.202v-1.858h1.202a.927.927 0 0 1 .634 1.572.938.938 0 0 1-.634.287Zm3.079 1.853a.307.307 0 0 1-.371.302.309.309 0 0 1-.225-.42.306.306 0 0 1 .271-.19.309.309 0 0 1 .325.308Z" fill="#424242"/></g><defs><clipPath id="a"><path fill="#fff" d="M0 0h138v30H0z"/></clipPath></defs></svg>