<svg width="60" height="60" viewBox="0 0 60 60" fill="none" xmlns="http://www.w3.org/2000/svg">
<path d="M54.375 1.875H5.625C3.55393 1.875 1.875 3.55393 1.875 5.625V54.375C1.875 56.4461 3.55393 58.125 5.625 58.125H54.375C56.4461 58.125 58.125 56.4461 58.125 54.375V5.625C58.125 3.55393 56.4461 1.875 54.375 1.875Z" fill="#F5F5F5"/>
<path d="M58.125 9.375H1.875V5.625C1.875 4.63044 2.27009 3.67661 2.97335 2.97335C3.67661 2.27009 4.63044 1.875 5.625 1.875H54.375C55.3696 1.875 56.3234 2.27009 57.0266 2.97335C57.7299 3.67661 58.125 4.63044 58.125 5.625V9.375Z" fill="#989898"/>
<path d="M6.5625 4.6875H32.8125V6.5625H6.5625V4.6875Z" fill="#FBF2FF"/>
<path d="M34.6875 4.6875H44.0625V6.5625H34.6875V4.6875Z" fill="#FBF2FF"/>
<path d="M58.125 9.375V54.375C58.125 55.3696 57.7299 56.3234 57.0266 57.0266C56.3234 57.7299 55.3696 58.125 54.375 58.125H41.25V9.375H58.125Z" fill="#CDCDCD"/>
<path d="M5.625 13.125H13.125V20.625H5.625V13.125Z" fill="#EACB14"/>
<path d="M15.9375 18.75H38.4375V20.625H15.9375V18.75Z" fill="#EACB14"/>
<path d="M18.75 15H30V16.875H18.75V15Z" fill="#EACB14"/>
<path d="M5.625 24.375H13.125V31.875H5.625V24.375Z" fill="#EACB14"/>
<path d="M15.9375 30H38.4375V31.875H15.9375V30Z" fill="#EACB14"/>
<path d="M18.75 26.25H30V28.125H18.75V26.25Z" fill="#EACB14"/>
<path d="M5.625 35.625H13.125V43.125H5.625V35.625Z" fill="#EACB14"/>
<path d="M15.9375 41.25H38.4375V43.125H15.9375V41.25Z" fill="#EACB14"/>
<path d="M18.75 37.5H30V39.375H18.75V37.5Z" fill="#EACB14"/>
<path d="M5.625 46.875H13.125V54.375H5.625V46.875Z" fill="#EACB14"/>
<path d="M15.9375 52.5H38.4375V54.375H15.9375V52.5Z" fill="#EACB14"/>
<path d="M18.75 48.75H30V50.625H18.75V48.75Z" fill="#EACB14"/>
<path d="M31.875 26.25H38.4375V28.125H31.875V26.25Z" fill="#EACB14"/>
<path d="M31.875 15H38.4375V16.875H31.875V15Z" fill="#EACB14"/>
<path d="M31.875 37.5H38.4375V39.375H31.875V37.5Z" fill="#EACB14"/>
<path d="M31.875 48.75H38.4375V50.625H31.875V48.75Z" fill="#EACB14"/>
<path d="M45 13.125H54.375V35.625H45V13.125Z" fill="#FBF2FF"/>
<path d="M45 39.375H54.375V54.375H45V39.375Z" fill="#FBF2FF"/>
</svg>
