<svg width="60" height="60" viewBox="0 0 60 60" fill="none" xmlns="http://www.w3.org/2000/svg">
<path d="M3.75 20.625H11.6372C12.0604 20.6252 12.471 20.7685 12.8024 21.0316C13.1338 21.2948 13.3664 21.6623 13.4625 22.0744L18.6731 44.4028C18.9616 45.6393 19.6598 46.7418 20.6544 47.5311C21.6489 48.3204 22.8813 48.75 24.1509 48.75H56.25C56.7473 48.75 57.2242 48.5525 57.5758 48.2008C57.9275 47.8492 58.125 47.3723 58.125 46.875C58.125 46.3777 57.9275 45.9008 57.5758 45.5492C57.2242 45.1975 56.7473 45 56.25 45H23.9878C23.5645 45 23.1536 44.8568 22.822 44.5937C22.4904 44.3305 22.2577 43.9629 22.1616 43.5506L16.6134 19.7728C16.4211 18.9484 15.9554 18.2134 15.2923 17.6873C14.6291 17.1611 13.8075 16.8749 12.9609 16.875H3.75C3.25272 16.875 2.77581 17.0725 2.42417 17.4242C2.07254 17.7758 1.875 18.2527 1.875 18.75C1.875 19.2473 2.07254 19.7242 2.42417 20.0758C2.77581 20.4275 3.25272 20.625 3.75 20.625Z" fill="#989898"/>
<path d="M30 58.125C32.5888 58.125 34.6875 56.0263 34.6875 53.4375C34.6875 50.8487 32.5888 48.75 30 48.75C27.4112 48.75 25.3125 50.8487 25.3125 53.4375C25.3125 56.0263 27.4112 58.125 30 58.125Z" fill="#BFBFBF"/>
<path d="M48.75 58.125C51.3388 58.125 53.4375 56.0263 53.4375 53.4375C53.4375 50.8487 51.3388 48.75 48.75 48.75C46.1612 48.75 44.0625 50.8487 44.0625 53.4375C44.0625 56.0263 46.1612 58.125 48.75 58.125Z" fill="#BFBFBF"/>
<path d="M58.8581 20.0391C58.7701 19.9292 58.6585 19.8405 58.5316 19.7797C58.4047 19.7188 58.2657 19.6873 58.125 19.6875H20.625C20.4842 19.6875 20.3452 19.7192 20.2183 19.7803C20.0915 19.8414 19.98 19.9302 19.8922 20.0403C19.8044 20.1504 19.7425 20.2788 19.7111 20.416C19.6797 20.5533 19.6796 20.6958 19.7109 20.8331L24.3984 41.4581C24.4456 41.6653 24.5617 41.8503 24.7278 41.9828C24.8938 42.1153 25.1 42.1875 25.3125 42.1875H53.4375C53.6499 42.1875 53.8561 42.1153 54.0221 41.9828C54.1882 41.8503 54.3043 41.6653 54.3515 41.4581L59.039 20.8331C59.0705 20.6957 59.0706 20.5529 59.0393 20.4154C59.0079 20.2779 58.946 20.1493 58.8581 20.0391ZM46.0143 33.75H40.3125V28.125H46.7812L46.0143 33.75ZM48.6731 28.125H55.4587L54.1809 33.75H47.9062L48.6731 28.125ZM23.2912 28.125H30.0768L30.8437 33.75H24.569L23.2912 28.125ZM31.9687 28.125H38.4375V33.75H32.7356L31.9687 28.125ZM31.7128 26.25L31.0734 21.5625H38.4375V26.25H31.7128ZM38.4375 35.625V40.3125H33.6309L32.9915 35.625H38.4375ZM40.3125 35.625H45.7584L45.119 40.3125H40.3125V35.625ZM40.3125 26.25V21.5625H47.6765L47.0371 26.25H40.3125ZM29.1815 21.5625L29.8209 26.25H22.8646L21.7987 21.5625H29.1815ZM24.9956 35.625H31.0996L31.739 40.3125H26.0625L24.9956 35.625ZM52.6875 40.3125H47.0109L47.6503 35.625H53.7543L52.6875 40.3125ZM55.8834 26.25H48.9271L49.5665 21.5625H56.9484L55.8834 26.25Z" fill="#BFBFBF"/>
<path d="M49.6875 12.1875C49.6882 10.232 49.1328 8.31663 48.0862 6.66478C47.0397 5.01293 45.545 3.69269 43.7766 2.85805C42.0082 2.02341 40.0389 1.70878 38.0984 1.95084C36.158 2.19291 34.3264 2.9817 32.8172 4.22522C31.308 5.46873 30.1835 7.1157 29.5748 8.97404C28.9661 10.8324 28.8984 12.8255 29.3794 14.7209C29.8604 16.6163 30.8705 18.3358 32.2917 19.679C33.7129 21.0221 35.4867 21.9335 37.4063 22.3069L39.375 26.25L41.3437 22.3069C43.6925 21.85 45.8094 20.5907 47.3316 18.7445C48.8538 16.8983 49.6867 14.5803 49.6875 12.1875Z" fill="#389727"/>
<path d="M39.375 17.8125L43.4363 14.4281C43.9257 14.0201 44.3195 13.5095 44.5897 12.9325C44.86 12.3554 45 11.726 45 11.0888C45 10.7406 44.9314 10.3958 44.7982 10.0742C44.6649 9.7525 44.4697 9.46022 44.2235 9.21403C43.9773 8.96784 43.685 8.77255 43.3633 8.63931C43.0417 8.50608 42.6969 8.4375 42.3488 8.4375C42.0006 8.43743 41.6558 8.50594 41.334 8.63913C41.0123 8.77232 40.72 8.96758 40.4738 9.21375L39.375 10.3125L38.2762 9.21375C38.03 8.96758 37.7377 8.77232 37.416 8.63913C37.0942 8.50594 36.7494 8.43743 36.4012 8.4375C35.6981 8.4375 35.0237 8.71683 34.5265 9.21403C34.0293 9.71124 33.75 10.3856 33.75 11.0888C33.75 11.726 33.89 12.3554 34.1603 12.9325C34.4305 13.5095 34.8243 14.0201 35.3137 14.4281L39.375 17.8125Z" fill="white"/>
</svg>
