<svg width="60" height="60" viewBox="0 0 60 60" fill="none" xmlns="http://www.w3.org/2000/svg">
<path d="M0 56.1614V5.83884C0 5.30488 0.433783 4.87109 0.967742 4.87109H59.0323C59.5662 4.87109 60 5.30488 60 5.83884V56.1614C60 56.6954 59.5662 57.1292 59.0323 57.1292H0.967742C0.433783 57.1292 0 56.6954 0 56.1614Z" fill="#F4F4F4"/>
<path d="M0 12.613V5.83884C0 5.30488 0.433783 4.87109 0.967742 4.87109H59.0323C59.5662 4.87109 60 5.30488 60 5.83884V12.613H0Z" fill="#989898"/>
<path d="M49.3555 7.77344H55.1619V9.70892H49.3555V7.77344Z" fill="#FBF2FF"/>
<path d="M4.83789 7.77344H6.77337V9.70892H4.83789V7.77344Z" fill="#FBF2FF"/>
<path d="M8.70898 7.77344H10.6445V9.70892H8.70898V7.77344Z" fill="#FBF2FF"/>
<path d="M12.5801 7.77344H14.5156V9.70892H12.5801V7.77344Z" fill="#FBF2FF"/>
<path d="M45.0323 2.96774C45.0323 2.43378 44.5985 2 44.0645 2H16.9677C16.4338 2 16 2.43378 16 2.96774V57.1613C16 57.6952 16.4338 58.129 16.9677 58.129H44.0645C44.5985 58.129 45.0323 57.6952 45.0323 57.1613V2.96774Z" fill="#DCDCDC"/>
<path d="M25 28.0645V24.0645C25 22.9595 26.074 22.0645 27.4 22.0645H34.6C35.926 22.0645 37 22.9595 37 24.0645V28.0645H25Z" fill="#3573BC"/>
<path d="M34.7419 15.58C34.7419 17.7177 33.0087 19.4509 30.871 19.4509C28.7332 19.4509 27 17.7177 27 15.58C27 13.4422 28.7332 11.709 30.871 11.709C33.0087 11.709 34.7419 13.4422 34.7419 15.58Z" fill="#3573BC"/>
<path d="M24 41H20.6667C20.2988 41 20 40.6414 20 40.2V37.8C20 37.3586 20.2988 37 20.6667 37H24V41Z" fill="#FBF2FF"/>
<path d="M41 41H26V37H41C41.5518 37 42 37.3586 42 37.8V40.2C42 40.6414 41.5518 41 41 41Z" fill="#FBF2FF"/>
<path d="M36.8333 48H25.1667C24.5229 48 24 47.6638 24 47.25V45.75C24 45.3362 24.5229 45 25.1667 45H36.8333C37.477 45 38 45.3362 38 45.75V47.25C38 47.6638 37.477 48 36.8333 48Z" fill="#FBF2FF"/>
</svg>
