<svg width="60" height="60" viewBox="0 0 60 60" fill="none" xmlns="http://www.w3.org/2000/svg">
<path d="M2 6H57.1739V53H2V6Z" fill="#F4F4F4"/>
<path d="M2 6H57.1739V14.1739H2V6Z" fill="#989898"/>
<path d="M52.0645 9.06519H54.1079V11.1087H52.0645V9.06519Z" fill="#FBF2FF"/>
<path d="M47.9785 9.06519H50.022V11.1087H47.9785V9.06519Z" fill="#FBF2FF"/>
<path d="M43.8906 9.06519H45.9341V11.1087H43.8906V9.06519Z" fill="#FBF2FF"/>
<path d="M49.0004 27.4565H10.1743C9.04576 27.4565 8.13086 28.3714 8.13086 29.5C8.13086 30.6286 9.04576 31.5435 10.1743 31.5435H49.0004C50.129 31.5435 51.0439 30.6286 51.0439 29.5C51.0439 28.3714 50.129 27.4565 49.0004 27.4565Z" fill="#EACB14"/>
<path d="M14.2608 27.4565L10.1738 31.5435H17.326L21.413 27.4565H14.2608Z" fill="#B30053"/>
<path d="M28.5655 27.4565L24.4785 31.5435H31.6307L35.7176 27.4565H28.5655Z" fill="#B30053"/>
<path d="M9.15285 36.6523H7.10938V44.8262C7.10938 45.0972 7.21702 45.3571 7.40864 45.5487C7.60025 45.7403 7.86013 45.8479 8.13111 45.8479H12.2181V43.8045H9.15285V36.6523Z" fill="#BFBFBF"/>
<path d="M16.3055 36.6522C15.4925 36.6522 14.7129 36.9752 14.138 37.55C13.5632 38.1248 13.2402 38.9045 13.2402 39.7174V42.7827C13.2402 43.5956 13.5632 44.3753 14.138 44.9501C14.7129 45.5249 15.4925 45.8479 16.3055 45.8479C17.1184 45.8479 17.898 45.5249 18.4729 44.9501C19.0477 44.3753 19.3707 43.5956 19.3707 42.7827V39.7174C19.3707 38.9045 19.0477 38.1248 18.4729 37.55C17.898 36.9752 17.1184 36.6522 16.3055 36.6522ZM17.3272 42.7827C17.3272 43.0536 17.2195 43.3135 17.0279 43.5051C16.8363 43.6967 16.5764 43.8044 16.3055 43.8044C16.0345 43.8044 15.7746 43.6967 15.583 43.5051C15.3914 43.3135 15.2837 43.0536 15.2837 42.7827V39.7174C15.2837 39.4465 15.3914 39.1866 15.583 38.995C15.7746 38.8033 16.0345 38.6957 16.3055 38.6957C16.5764 38.6957 16.8363 38.8033 17.0279 38.995C17.2195 39.1866 17.3272 39.4465 17.3272 39.7174V42.7827Z" fill="#BFBFBF"/>
<path d="M23.4578 36.6522C22.6448 36.6522 21.8652 36.9752 21.2904 37.55C20.7155 38.1248 20.3926 38.9045 20.3926 39.7174V45.8479H22.4361V43.8044H24.4795V45.8479H26.523V39.7174C26.523 38.9045 26.2001 38.1248 25.6252 37.55C25.0504 36.9752 24.2707 36.6522 23.4578 36.6522ZM22.4361 41.7609V39.7174C22.4361 39.4465 22.5437 39.1866 22.7353 38.995C22.9269 38.8033 23.1868 38.6957 23.4578 38.6957C23.7288 38.6957 23.9887 38.8033 24.1803 38.995C24.3719 39.1866 24.4795 39.4465 24.4795 39.7174V41.7609H22.4361Z" fill="#BFBFBF"/>
<path d="M30.6101 36.6522H28.5667C28.2957 36.6522 28.0358 36.7599 27.8442 36.9515C27.6526 37.1431 27.5449 37.403 27.5449 37.674V44.8261C27.5449 45.0971 27.6526 45.357 27.8442 45.5486C28.0358 45.7402 28.2957 45.8479 28.5667 45.8479H30.6101C31.4231 45.8479 32.2027 45.5249 32.7776 44.9501C33.3524 44.3753 33.6754 43.5956 33.6754 42.7827V39.7174C33.6754 38.9045 33.3524 38.1248 32.7776 37.55C32.2027 36.9752 31.4231 36.6522 30.6101 36.6522ZM31.6319 42.7827C31.6319 43.0536 31.5242 43.3135 31.3326 43.5051C31.141 43.6967 30.8811 43.8044 30.6101 43.8044H29.5884V38.6957H30.6101C30.8811 38.6957 31.141 38.8033 31.3326 38.995C31.5242 39.1866 31.6319 39.4465 31.6319 39.7174V42.7827Z" fill="#BFBFBF"/>
<path d="M34.6973 36.6522H36.7407V45.8479H34.6973V36.6522Z" fill="#BFBFBF"/>
<path d="M41.8487 40.9784L39.6703 37.1632C39.5583 36.9674 39.3847 36.8142 39.1765 36.7274C38.9682 36.6406 38.7372 36.6252 38.5193 36.6835C38.3014 36.7419 38.1089 36.8707 37.9719 37.0498C37.8348 37.229 37.7609 37.4485 37.7617 37.6741V45.848H39.8052V41.5219L41.9836 45.333C42.0729 45.4894 42.202 45.6194 42.3577 45.7098C42.5134 45.8003 42.6903 45.8479 42.8704 45.848C42.959 45.8478 43.0472 45.8364 43.133 45.8143C43.3508 45.7563 43.5433 45.6281 43.6806 45.4494C43.8179 45.2707 43.8923 45.0516 43.8922 44.8262V36.6523H41.8487V40.9784Z" fill="#BFBFBF"/>
<path d="M50.0228 40.7392H47.9793V42.7827H49.001C49.001 43.0536 48.8934 43.3135 48.7018 43.5051C48.5101 43.6967 48.2503 43.8044 47.9793 43.8044C47.7083 43.8044 47.4484 43.6967 47.2568 43.5051C47.0652 43.3135 46.9575 43.0536 46.9575 42.7827V39.7174C46.9575 39.4465 47.0652 39.1866 47.2568 38.995C47.4484 38.8033 47.7083 38.6957 47.9793 38.6957C48.2503 38.6957 48.5101 38.8033 48.7018 38.995C48.8934 39.1866 49.001 39.4465 49.001 39.7174H51.0445C51.0445 38.9045 50.7216 38.1248 50.1467 37.55C49.5719 36.9752 48.7922 36.6522 47.9793 36.6522C47.1663 36.6522 46.3867 36.9752 45.8118 37.55C45.237 38.1248 44.9141 38.9045 44.9141 39.7174V42.7827C44.9141 43.5956 45.237 44.3753 45.8118 44.9501C46.3867 45.5249 47.1663 45.8479 47.9793 45.8479C48.7922 45.8479 49.5719 45.5249 50.1467 44.9501C50.7216 44.3753 51.0445 43.5956 51.0445 42.7827V41.7609C51.0445 41.4899 50.9369 41.2301 50.7452 41.0384C50.5536 40.8468 50.2937 40.7392 50.0228 40.7392Z" fill="#BFBFBF"/>
<path d="M39.8047 20.3043L43.8916 28.4782L47.9786 20.3043L43.8916 21.3261L39.8047 20.3043Z" fill="#B30053"/>
</svg>
