<svg width="60" height="60" viewBox="0 0 60 60" fill="none" xmlns="http://www.w3.org/2000/svg">
<path d="M0 13H60V49.9969C60 50.7934 59.6614 51.5572 59.0586 52.1204C58.4558 52.6836 57.6382 53 56.7857 53H3.21429C2.3618 53 1.54424 52.6836 0.941443 52.1204C0.338647 51.5572 0 50.7934 0 49.9969V13Z" fill="#F5F5F5"/>
<path d="M0 12.7419V5.96774C0 5.43378 0.433783 5 0.967742 5H59.0323C59.5662 5 60 5.43378 60 5.96774V12.7419H0Z" fill="#989898"/>
<path d="M50.625 19.6875H9.375C8.33947 19.6875 7.5 20.527 7.5 21.5625V44.0625C7.5 45.098 8.33947 45.9375 9.375 45.9375H50.625C51.6605 45.9375 52.5 45.098 52.5 44.0625V21.5625C52.5 20.527 51.6605 19.6875 50.625 19.6875Z" fill="#BFBFBF"/>
<path d="M9.375 19.6875C8.87772 19.6875 8.40081 19.885 8.04918 20.2367C7.69754 20.5883 7.5 21.0652 7.5 21.5625V37.5H45C45.7459 37.5 46.4613 37.2037 46.9887 36.6762C47.5162 36.1488 47.8125 35.4334 47.8125 34.6875V19.6875H9.375Z" fill="#BFBFBF"/>
<path d="M24.375 45.0625L38.4375 31L52.5 45.0625H24.375Z" fill="#389727"/>
<path d="M7.5 45.0625L21.5625 31L35.625 45.0625H7.5Z" fill="#389727"/>
<path d="M30 28.125C31.5533 28.125 32.8125 26.8658 32.8125 25.3125C32.8125 23.7592 31.5533 22.5 30 22.5C28.4467 22.5 27.1875 23.7592 27.1875 25.3125C27.1875 26.8658 28.4467 28.125 30 28.125Z" fill="#F5F5F5"/>
<path d="M30 22.5C29.2541 22.5 28.5387 22.7963 28.0113 23.3238C27.4838 23.8512 27.1875 24.5666 27.1875 25.3125C27.1905 25.6326 27.2489 25.9498 27.36 26.25H30C30.4973 26.25 30.9742 26.0525 31.3258 25.7008C31.6775 25.3492 31.875 24.8723 31.875 24.375V23.2303C31.3625 22.7623 30.6941 22.5019 30 22.5Z" fill="#F5F5F5"/>
<path d="M39.375 51.5625L37.5 44.0625L45 45.9366L41.25 47.8125L39.375 51.5625Z" fill="#EACB14"/>
</svg>
