<svg width="60" height="60" viewBox="0 0 60 60" fill="none" xmlns="http://www.w3.org/2000/svg">
<path d="M45.9375 22.5H49.6875V40.3125H45.9375V22.5Z" fill="#989898"/>
<path d="M16.875 52.5H43.125L54.375 52.4897C54.9891 52.447 55.5853 52.2643 56.1178 51.9556C56.6503 51.6468 57.1051 51.2202 57.4472 50.7084C57.8896 50.0453 58.1255 49.2659 58.125 48.4688C58.125 45.5597 56.9694 42.7697 54.9123 40.7127C52.8553 38.6556 50.0653 37.5 47.1562 37.5H46.875L44.0259 34.6509C41.5543 32.1795 38.8828 29.9165 36.0384 27.885C34.55 26.8218 32.7666 26.2502 30.9375 26.25H14.0625C12.6647 26.25 11.2965 26.6524 10.1213 27.4092C8.94616 28.1659 8.01368 29.245 7.43531 30.5175C5.6242 34.5013 4.68725 38.8267 4.6875 43.2028V45.9375C3.94158 45.9375 3.22621 46.2338 2.69876 46.7613C2.17132 47.2887 1.875 48.0041 1.875 48.75C1.87501 49.5431 2.14984 50.3117 2.6527 50.925C3.15557 51.5382 3.85541 51.9583 4.63312 52.1138L5.625 52.3125L16.875 52.5Z" fill="#BFBFBF"/>
<path d="M41.9621 37.5H23.4371L8.89648 35.4188C9.21397 34.4662 9.58008 33.5306 9.99336 32.6156C10.3511 31.8367 10.9244 31.1765 11.6454 30.713C12.3664 30.2496 13.205 30.0021 14.0621 30H30.9371C32.1818 29.9985 33.3954 30.3889 34.4059 31.1156C37.0943 33.0344 39.6215 35.1696 41.9621 37.5Z" fill="#FBF2FF"/>
<path d="M30.9375 30H14.0625C13.4147 30.0009 12.7748 30.1429 12.1875 30.4163V35.8894L23.4375 37.5H41.9625C39.6219 35.1696 37.0947 33.0344 34.4062 31.1156C33.3958 30.3889 32.1822 29.9985 30.9375 30Z" fill="#FBF2FF"/>
<path d="M25.3125 40.3125H29.0625V42.1875H25.3125V40.3125Z" fill="#FBF2FF"/>
<path d="M54.375 1.875H41.25C40.2554 1.875 39.3016 2.27009 38.5984 2.97335C37.8951 3.67661 37.5 4.63044 37.5 5.625V18.75C37.5 19.7446 37.8951 20.6984 38.5984 21.4016C39.3016 22.1049 40.2554 22.5 41.25 22.5H54.375C55.3696 22.5 56.3234 22.1049 57.0266 21.4016C57.7299 20.6984 58.125 19.7446 58.125 18.75V5.625C58.125 4.63044 57.7299 3.67661 57.0266 2.97335C56.3234 2.27009 55.3696 1.875 54.375 1.875Z" fill="#389727"/>
<path d="M49.6875 4.6875H44.0625C43.8139 4.6875 43.5754 4.78627 43.3996 4.96209C43.2238 5.1379 43.125 5.37636 43.125 5.625V19.6875H45V14.0625H49.6875C50.9307 14.0625 52.123 13.5686 53.0021 12.6896C53.8811 11.8105 54.375 10.6182 54.375 9.375C54.375 8.1318 53.8811 6.93951 53.0021 6.06044C52.123 5.18136 50.9307 4.6875 49.6875 4.6875ZM49.6875 12.1875H45V6.5625H49.6875C50.4334 6.5625 51.1488 6.85882 51.6762 7.38626C52.2037 7.91371 52.5 8.62908 52.5 9.375C52.5 10.1209 52.2037 10.8363 51.6762 11.3637C51.1488 11.8912 50.4334 12.1875 49.6875 12.1875Z" fill="white"/>
<path d="M23.4375 43.125C23.4375 41.9557 23.5808 40.7907 23.8641 39.6562L24.3469 37.725C24.3655 37.6514 24.3749 37.5759 24.375 37.5V30H22.5V37.3847L22.0462 39.2034C21.4013 41.778 21.4013 44.472 22.0462 47.0466L23.4169 52.5H25.35L23.8641 46.5938C23.5808 45.4593 23.4375 44.2943 23.4375 43.125Z" fill="#989898"/>
<path d="M11.25 58.125C14.3566 58.125 16.875 55.6066 16.875 52.5C16.875 49.3934 14.3566 46.875 11.25 46.875C8.1434 46.875 5.625 49.3934 5.625 52.5C5.625 55.6066 8.1434 58.125 11.25 58.125Z" fill="#989898"/>
<path d="M11.25 54.375C12.2855 54.375 13.125 53.5355 13.125 52.5C13.125 51.4645 12.2855 50.625 11.25 50.625C10.2145 50.625 9.375 51.4645 9.375 52.5C9.375 53.5355 10.2145 54.375 11.25 54.375Z" fill="#FBF2FF"/>
<path d="M48.75 58.125C51.8566 58.125 54.375 55.6066 54.375 52.5C54.375 49.3934 51.8566 46.875 48.75 46.875C45.6434 46.875 43.125 49.3934 43.125 52.5C43.125 55.6066 45.6434 58.125 48.75 58.125Z" fill="#989898"/>
<path d="M48.75 54.375C49.7855 54.375 50.625 53.5355 50.625 52.5C50.625 51.4645 49.7855 50.625 48.75 50.625C47.7145 50.625 46.875 51.4645 46.875 52.5C46.875 53.5355 47.7145 54.375 48.75 54.375Z" fill="#FBF2FF"/>
<path d="M56.25 45.9375H57.8166C57.1948 43.3243 55.6369 41.0296 53.4375 39.4875V43.125C53.4375 43.8709 53.7338 44.5863 54.2613 45.1137C54.7887 45.6412 55.5041 45.9375 56.25 45.9375Z" fill="#FBF2FF"/>
</svg>
