<svg width="60" height="60" viewBox="0 0 60 60" fill="none" xmlns="http://www.w3.org/2000/svg">
<path d="M0 55.1612V4.83859C0 4.30463 0.433783 3.87085 0.967742 3.87085H59.0323C59.5662 3.87085 60 4.30463 60 4.83859V55.1612C60 55.6951 59.5662 56.1289 59.0323 56.1289H0.967742C0.433783 56.1289 0 55.6951 0 55.1612Z" fill="#F5F5F5"/>
<path d="M0 11.6129V4.83871C0 4.30475 0.433783 3.87097 0.967742 3.87097H59.0323C59.5662 3.87097 60 4.30475 60 4.83871V11.6129H0Z" fill="#989898"/>
<path d="M47.1939 48.455C47.1939 48.7561 47.438 49.0001 47.739 49.0001L49.4549 49.0001C49.7559 49.0001 50 48.7561 50 48.455L50 23.7896C50 23.4886 49.7559 23.2445 49.4549 23.2445L24.7896 23.2445C24.4886 23.2445 24.2446 23.4886 24.2446 23.7896L24.2446 48.4549C24.2446 48.7559 24.4886 48.9999 24.7896 48.9999L45.9222 48.9999C46.2232 48.9999 46.4672 48.756 46.4672 48.4549C46.4672 48.1538 46.2232 47.9098 45.9222 47.9098L36.5837 47.9098L36.5837 45.7452C36.5837 45.4441 36.3396 45.2001 36.0386 45.2001C35.7376 45.2001 35.4936 45.4441 35.4936 45.7452L35.4936 47.9098L25.3346 47.9098L25.3346 32.3371L27.9719 32.3371C28.2729 32.3371 28.517 32.093 28.517 31.792C28.517 31.491 28.2729 31.2469 27.9719 31.2469L25.3346 31.2469L25.3346 24.3346L48.9099 24.3346L48.9099 31.247L31.8962 31.247C31.5952 31.247 31.3512 31.4911 31.3512 31.7921C31.3512 32.0931 31.5952 32.3371 31.8962 32.3371L35.4936 32.3371L35.4936 42.0389C35.4936 42.34 35.7376 42.584 36.0386 42.584C36.3396 42.584 36.5837 42.3401 36.5837 42.0389L36.5837 32.3371L48.9099 32.3371L48.9099 47.9099L47.739 47.9099C47.438 47.9099 47.1939 48.1539 47.1939 48.455Z" fill="#BFBFBF"/>
<path d="M46.8543 21.6052L49.743 19.8066C49.9028 19.7071 50 19.5321 50 19.3439C50 19.1557 49.9028 18.9807 49.743 18.8812L46.8543 17.0826C46.6862 16.978 46.4747 16.9727 46.3016 17.0688C46.1286 17.1649 46.0212 17.3474 46.0212 17.5453L46.0212 18.7989L43.7419 18.7989C43.4409 18.7989 43.1969 19.0429 43.1969 19.3439C43.1969 19.6449 43.4409 19.889 43.7419 19.889L46.0212 19.889L46.0212 21.1425C46.0212 21.3405 46.1285 21.5229 46.3016 21.619C46.4747 21.7152 46.6863 21.7099 46.8543 21.6052ZM47.1113 18.5267L48.4237 19.3439L47.1113 20.161L47.1113 18.5267Z" fill="#EACB14"/>
<path d="M27.9433 21.6187C28.1164 21.5226 28.2237 21.3402 28.2237 21.1422L28.2237 19.8887L42.2889 19.8887C42.5899 19.8887 42.834 19.6446 42.834 19.3436C42.834 19.0426 42.5899 18.7985 42.2889 18.7985L28.2237 18.7985L28.2237 17.545C28.2237 17.3471 28.1164 17.1647 27.9433 17.0685C27.7702 16.9724 27.5586 16.9777 27.3906 17.0824L24.5019 18.8809C24.3421 18.9804 24.2449 19.1554 24.2449 19.3436C24.2449 19.5319 24.3421 19.7069 24.5019 19.8063L27.3906 21.6049C27.5587 21.7096 27.7702 21.7149 27.9433 21.6187ZM25.8212 19.3437L27.1335 18.5265L27.1335 20.1607L25.8212 19.3437Z" fill="#EACB14"/>
<path d="M20.8066 48.743L22.6052 45.8543C22.7098 45.6863 22.715 45.4747 22.619 45.3016C22.5229 45.1286 22.3404 45.0213 22.1425 45.0213L20.8889 45.0213L20.8889 27.2233L22.1425 27.2233C22.3404 27.2233 22.5229 27.1159 22.619 26.9429C22.715 26.7698 22.7098 26.5583 22.6052 26.3901L20.8066 23.5014C20.7071 23.3416 20.5322 23.2444 20.3439 23.2444C20.1557 23.2444 19.9807 23.3416 19.8812 23.5014L18.0827 26.3901C18.0279 26.4781 18.0004 26.5781 18.0004 26.6782C18.0004 26.7693 18.0231 26.8604 18.0689 26.9428C18.165 27.1159 18.3474 27.2233 18.5454 27.2233L19.7989 27.2233L19.7989 45.0212L18.5454 45.0212C18.3474 45.0212 18.165 45.1286 18.0689 45.3016C18.023 45.3841 18.0004 45.4752 18.0004 45.5663C18.0004 45.6663 18.0279 45.7663 18.0827 45.8543L19.8812 48.743C19.9807 48.9028 20.1557 49 20.3439 49C20.5322 49 20.7071 48.9028 20.8066 48.743ZM19.5268 26.1331L20.3439 24.8208L21.161 26.1331L19.5268 26.1331ZM19.5268 46.1113L21.161 46.1113L20.3439 47.4238L19.5268 46.1113Z" fill="#EACB14"/>
<path d="M49.3555 6.77344H55.1619V8.70892H49.3555V6.77344Z" fill="#FBF2FF"/>
<path d="M4.83984 6.77344H6.77533V8.70892H4.83984V6.77344Z" fill="#FBF2FF"/>
<path d="M8.71094 6.77344H10.6464V8.70892H8.71094V6.77344Z" fill="#FBF2FF"/>
<path d="M12.582 6.77344H14.5175V8.70892H12.582V6.77344Z" fill="#FBF2FF"/>
<path d="M14 43L14 57.2857C14 57.6798 14.2241 58 14.5 58L17.5 58C17.7759 58 18 57.6798 18 57.2857L18 43L14 43Z" fill="#BFBFBF"/>
<path d="M16.0533 15C7.73966 15 1 21.7397 1 30.0533C1 38.3668 7.73966 45.1065 16.0533 45.1065C24.3668 45.1065 31.1065 38.3668 31.1065 30.0533C31.1065 21.7397 24.3668 15 16.0533 15ZM16.0533 42.0923C9.95649 42.0923 4.0142 36.15 4.0142 30.0533C4.0142 23.9565 9.95649 18.0142 16.0533 18.0142C22.15 18.0142 28.0923 23.9565 28.0923 30.0533C28.0923 36.15 22.15 42.0923 16.0533 42.0923Z" fill="#BFBFBF"/>
<path d="M14 45L18 45L18 48L14 48L14 45Z" fill="#BE0000"/>
</svg>
