<svg width="60" height="60" viewBox="0 0 60 60" fill="none" xmlns="http://www.w3.org/2000/svg">
<path d="M28.125 15.9375L28.0388 16.0237C23.2922 20.7703 16.8534 23.4375 10.14 23.4375H3.75C2.71406 23.4375 1.875 24.2766 1.875 25.3125V34.6875C1.875 35.7234 2.71406 36.5625 3.75 36.5625H10.14C16.8534 36.5625 23.2913 39.2297 28.0388 43.9763L28.125 44.0625" fill="#BFBFBF"/>
<path d="M56.25 6.5625H37.5C36.4641 6.5625 35.625 7.40156 35.625 8.4375V19.6875C35.625 20.7234 36.4641 21.5625 37.5 21.5625H39.375V24.375L43.125 21.5625H56.25C57.2859 21.5625 58.125 20.7234 58.125 19.6875V8.4375C58.125 7.40156 57.2859 6.5625 56.25 6.5625Z" fill="#3573BC"/>
<path d="M28.125 15.9375H31.875V44.0625H28.125V15.9375Z" fill="#DEDEDE"/>
<path d="M31.875 26.25C33.9459 26.25 35.625 27.9291 35.625 30C35.625 32.0709 33.9459 33.75 31.875 33.75" fill="#989898"/>
<path d="M5.625 36.5625V45.9375C5.625 46.9734 6.46406 47.8125 7.5 47.8125H9.375C10.4109 47.8125 11.25 46.9734 11.25 45.9375V36.5625" fill="#BFBFBF"/>
<path d="M11.25 44.0625H13.125C14.1609 44.0625 15 43.2234 15 42.1875C15 41.1516 14.1609 40.3125 13.125 40.3125H11.25" fill="#BFBFBF"/>
<path d="M42.457 18.0901L51.8305 8.71666L53.1561 10.0423L43.7827 19.4158L42.457 18.0901Z" fill="#FBF2FF"/>
<path d="M44.0625 10.3125H45.9375V12.1875H44.0625V10.3125Z" fill="#FBF2FF"/>
<path d="M49.6875 15.9375H51.5625V17.8125H49.6875V15.9375Z" fill="#FBF2FF"/>
<path d="M56.25 53.4375H37.5C36.4641 53.4375 35.625 52.5984 35.625 51.5625V40.3125C35.625 39.2766 36.4641 38.4375 37.5 38.4375H39.375V35.625L43.125 38.4375H56.25C57.2859 38.4375 58.125 39.2766 58.125 40.3125V51.5625C58.125 52.5984 57.2859 53.4375 56.25 53.4375Z" fill="#3573BC"/>
<path d="M42.4531 49.9614L51.8266 40.5879L53.1522 41.9136L43.7787 51.2871L42.4531 49.9614Z" fill="#FBF2FF"/>
<path d="M49.6875 47.8125H51.5625V49.6875H49.6875V47.8125Z" fill="#FBF2FF"/>
<path d="M44.0625 42.1875H45.9375V44.0625H44.0625V42.1875Z" fill="#FBF2FF"/>
<path d="M9.375 36.5625H10.14C11.1431 36.5625 12.1388 36.629 13.125 36.7462V23.2537C12.1388 23.3709 11.1431 23.4375 10.14 23.4375H9.375V36.5625Z" fill="#DEDEDE"/>
</svg>
