<svg width="60" height="60" viewBox="0 0 60 60" fill="none" xmlns="http://www.w3.org/2000/svg">
<g clip-path="url(#clip0_1919_1911)">
<path d="M57.561 60H2.43902C1.09195 60 0 58.908 0 57.561V55.8463C0 55.4462 0.324258 55.1219 0.724336 55.1219H59.2757C59.6757 55.1219 60 55.4462 60 55.8463V57.561C60 58.908 58.908 60 57.561 60Z" fill="#989898"/>
<path d="M56.8296 55.1219V57.561C56.8296 58.908 55.7377 60 54.3906 60H57.5614C58.9084 60 60.0004 58.908 60.0004 57.561V55.8463C60.0004 55.4462 59.6761 55.1219 59.2761 55.1219H56.8296Z" fill="#989898"/>
<path d="M57.0517 56H3.94828C3.42506 56 3 55.5767 3 55.0556V22.9444C3 22.4233 3.42506 22 3.94828 22H57.0517C57.5749 22 58 22.4233 58 22.9444V55.0556C58 55.5767 57.5749 56 57.0517 56Z" fill="#989898"/>
<path d="M7 26H54V52H7V26Z" fill="white"/>
<path d="M58.7171 60H2.28291L1 58.313V55H20.7413L23.3866 56H37.5344L40.0189 55H60V58.75L58.7171 60Z" fill="#989898"/>
<path d="M53 55H55V57H53V55Z" fill="#FDF8FF"/>
<path d="M50 55H51V57H50V55Z" fill="#FDF8FF"/>
<path d="M6 55H8V57H6V55Z" fill="#FDF8FF"/>
<path d="M3.16992 52.1951H56.8284V55.1219H3.16992V52.1951Z" fill="#989898"/>
<path d="M50 8V52H10V8H50Z" fill="#F4F4F4"/>
<path d="M46.707 7.56091H49.5119V51.2195H46.707V7.56091Z" fill="#F4F4F4"/>
<path d="M14.3906 28.7927V12.6706C14.3906 12.0038 14.9311 11.4634 15.5979 11.4634H44.4029C45.0697 11.4634 45.6102 12.0038 45.6102 12.6706V28.7927C45.6102 29.4595 45.0697 30 44.4029 30H15.5979C14.9311 30 14.3906 29.4595 14.3906 28.7927Z" fill="#BFBFBF"/>
<path d="M33.9023 44.4025V34.2042C33.9023 33.5374 34.4428 32.9969 35.1096 32.9969H44.4025C45.0693 32.9969 45.6097 33.5374 45.6097 34.2042V44.4025C45.6097 45.0693 45.0693 45.6097 44.4025 45.6097H35.1096C34.4428 45.6097 33.9023 45.0693 33.9023 44.4025Z" fill="#BFBFBF"/>
<path d="M10.4883 7.56094V2.43902C10.4883 1.09195 11.5802 0 12.9273 0H47.0736C48.4207 0 49.5127 1.09195 49.5127 2.43902V7.56094H10.4883Z" fill="#989898"/>
<path d="M47.0725 0H44.2676C45.6146 0 46.7066 1.09195 46.7066 2.43902V7.56094H49.5115V2.43902C49.5115 1.09195 48.4195 0 47.0725 0V0Z" fill="#989898"/>
<path d="M45.2555 29.6464C45.037 29.8649 44.7352 30.0001 44.402 30.0001H21.707L27.5597 24.1462L32.8039 18.902C33.2753 18.4306 34.0397 18.4306 34.5112 18.902L45.2555 29.6464Z" fill="#389727"/>
<path d="M33.4142 30H15.5976C15.2645 30 14.9626 29.8648 14.7441 29.6464L23.0486 21.3419C23.5201 20.8704 24.2845 20.8704 24.7559 21.3419L27.5602 24.1462L33.4142 30Z" fill="#389727"/>
<path d="M30.0004 34.8079H15.296C14.796 34.8079 14.3906 34.4025 14.3906 33.9025C14.3906 33.4024 14.796 32.9971 15.296 32.9971H30.0004C30.5004 32.9971 30.9057 33.4024 30.9057 33.9025C30.9057 34.4025 30.5004 34.8079 30.0004 34.8079Z" fill="#BFBFBF"/>
<path d="M30.0004 38.7103H15.296C14.796 38.7103 14.3906 38.305 14.3906 37.8049C14.3906 37.3049 14.796 36.8995 15.296 36.8995H30.0004C30.5004 36.8995 30.9057 37.3049 30.9057 37.8049C30.9057 38.305 30.5004 38.7103 30.0004 38.7103Z" fill="#BFBFBF"/>
<path d="M30.0004 42.6128H15.296C14.796 42.6128 14.3906 42.2074 14.3906 41.7074C14.3906 41.2074 14.796 40.802 15.296 40.802H30.0004C30.5004 40.802 30.9057 41.2074 30.9057 41.7074C30.9057 42.2074 30.5004 42.6128 30.0004 42.6128Z" fill="#BFBFBF"/>
<path d="M21.4637 46.5152H15.296C14.796 46.5152 14.3906 46.1099 14.3906 45.6099C14.3906 45.1098 14.796 44.7045 15.296 44.7045H21.4637C21.9638 44.7045 22.3691 45.1098 22.3691 45.6099C22.3692 46.1098 21.9639 46.5152 21.4637 46.5152Z" fill="#E70000"/>
</g>
<defs>
<clipPath id="clip0_1919_1911">
<rect width="60" height="60" fill="white"/>
</clipPath>
</defs>
</svg>
