<svg width="60" height="60" viewBox="0 0 60 60" fill="none" xmlns="http://www.w3.org/2000/svg">
<path d="M46.875 15H5.625C3.55393 15 1.875 16.6789 1.875 18.75V54.375C1.875 56.4461 3.55393 58.125 5.625 58.125H46.875C48.9461 58.125 50.625 56.4461 50.625 54.375V18.75C50.625 16.6789 48.9461 15 46.875 15Z" fill="#F4F4F4"/>
<path d="M5.625 26.25H46.875V54.375H5.625V26.25Z" fill="white"/>
<path d="M44.996 1C42.7225 0.999983 40.4958 1.64628 38.5753 2.86357C36.6548 4.08087 35.1197 5.81904 34.1488 7.87556C33.1779 9.93208 32.8112 12.2222 33.0915 14.4792C33.3718 16.7362 34.2874 18.867 35.7318 20.6234L34.7138 24.1429L39.4042 23.6123C41.0148 24.4627 42.7978 24.9352 44.618 24.9938C46.4382 25.0524 48.2479 24.6957 49.9098 23.9507C51.5717 23.2057 53.0423 22.0919 54.2099 20.6938C55.3776 19.2958 56.2117 17.6501 56.649 15.8816C57.0863 14.1132 57.1154 12.2683 56.734 10.4869C56.3526 8.70552 55.5707 7.03439 54.4477 5.60021C53.3247 4.16604 51.89 3.00647 50.2524 2.20942C48.6148 1.41238 46.8172 0.998786 44.996 1Z" fill="#E5E5E5"/>
<path d="M44 5H46V8H44V5Z" fill="#389727"/>
<path d="M38 18L38.4667 17.3714C39.6783 15.7394 40.3333 13.7543 40.3333 11.7143C40.3333 10.464 40.825 9.26488 41.7002 8.38078C42.5753 7.49668 43.7623 7 45 7C46.2377 7 47.4247 7.49668 48.2998 8.38078C49.175 9.26488 49.6667 10.464 49.6667 11.7143C49.6667 13.7543 50.3217 15.7394 51.5333 17.3714L52 18H38Z" fill="#389727"/>
<path d="M43 18V18.5C43 18.8978 43.2107 19.2794 43.5858 19.5607C43.9609 19.842 44.4696 20 45 20C45.5304 20 46.0391 19.842 46.4142 19.5607C46.7893 19.2794 47 18.8978 47 18.5V18H43Z" fill="#389727"/>
<path d="M39.375 41.25H13.125C12.0895 41.25 11.25 42.0895 11.25 43.125C11.25 44.1605 12.0895 45 13.125 45H39.375C40.4105 45 41.25 44.1605 41.25 43.125C41.25 42.0895 40.4105 41.25 39.375 41.25Z" fill="#BFBFBF"/>
<path d="M41.25 43.125C41.25 42.6277 41.0525 42.1508 40.7008 41.7992C40.3492 41.4475 39.8723 41.25 39.375 41.25H33.75V45H39.375C39.8723 45 40.3492 44.8025 40.7008 44.4508C41.0525 44.0992 41.25 43.6223 41.25 43.125Z" fill="#BFBFBF"/>
<path d="M19.6875 38.4375C19.542 38.4375 19.3984 38.4036 19.2682 38.3385C19.1381 38.2734 19.0248 38.1789 18.9375 38.0625L16.875 35.3128L14.8125 38.0625C14.6944 38.2199 14.5298 38.3362 14.342 38.3949C14.1542 38.4535 13.9527 38.4516 13.766 38.3894C13.5794 38.3272 13.417 38.2078 13.302 38.0482C13.1869 37.8885 13.125 37.6968 13.125 37.5V30.9375H15V34.6875L16.125 33.1875C16.2161 33.0768 16.3306 32.9876 16.4603 32.9263C16.59 32.8651 16.7316 32.8334 16.875 32.8334C17.0184 32.8334 17.16 32.8651 17.2897 32.9263C17.4194 32.9876 17.5339 33.0768 17.625 33.1875L18.75 34.6875V30.9375H20.625V37.5C20.625 37.6968 20.5631 37.8887 20.448 38.0484C20.3329 38.2081 20.1705 38.3275 19.9837 38.3897C19.8881 38.4211 19.7882 38.4373 19.6875 38.4375Z" fill="#BFBFBF"/>
<path d="M29.0625 38.4375C28.917 38.4375 28.7734 38.4036 28.6432 38.3385C28.5131 38.2734 28.3998 38.1789 28.3125 38.0625L26.25 35.3128L24.1875 38.0625C24.0694 38.2199 23.9048 38.3362 23.717 38.3949C23.5292 38.4535 23.3277 38.4516 23.141 38.3894C22.9544 38.3272 22.792 38.2078 22.677 38.0482C22.5619 37.8885 22.5 37.6968 22.5 37.5V30.9375H24.375V34.6875L25.5 33.1875C25.5911 33.0768 25.7056 32.9876 25.8353 32.9263C25.965 32.8651 26.1066 32.8334 26.25 32.8334C26.3934 32.8334 26.535 32.8651 26.6647 32.9263C26.7944 32.9876 26.9089 33.0768 27 33.1875L28.125 34.6875V30.9375H30V37.5C30 37.6968 29.9381 37.8887 29.823 38.0484C29.7079 38.2081 29.5455 38.3275 29.3587 38.3897C29.2631 38.4211 29.1632 38.4373 29.0625 38.4375Z" fill="#BFBFBF"/>
<path d="M38.4375 38.4375C38.292 38.4375 38.1484 38.4036 38.0182 38.3385C37.8881 38.2734 37.7748 38.1789 37.6875 38.0625L35.625 35.3128L33.5625 38.0625C33.4444 38.2199 33.2798 38.3362 33.092 38.3949C32.9042 38.4535 32.7027 38.4516 32.516 38.3894C32.3294 38.3272 32.167 38.2078 32.052 38.0482C31.9369 37.8885 31.875 37.6968 31.875 37.5V30.9375H33.75V34.6875L34.875 33.1875C34.9661 33.0768 35.0806 32.9876 35.2103 32.9263C35.34 32.8651 35.4816 32.8334 35.625 32.8334C35.7684 32.8334 35.91 32.8651 36.0397 32.9263C36.1694 32.9876 36.2839 33.0768 36.375 33.1875L37.5 34.6875V30.9375H39.375V37.5C39.375 37.6968 39.3131 37.8887 39.198 38.0484C39.0829 38.2081 38.9205 38.3275 38.7338 38.3897C38.6381 38.4211 38.5382 38.4373 38.4375 38.4375Z" fill="#BFBFBF"/>
<path d="M10.3125 47.8125H38.4366V49.6875H10.3125V47.8125Z" fill="#BFBFBF"/>
<path d="M40.3125 47.8125H42.1875V49.6875H40.3125V47.8125Z" fill="#BFBFBF"/>
</svg>
