<svg width="60" height="60" viewBox="0 0 60 60" fill="none" xmlns="http://www.w3.org/2000/svg">
<rect y="1.62891" width="60" height="57" rx="1" fill="#BFBFBF"/>
<path d="M14.5938 4.31641H56.2812C56.7817 4.31641 57.1875 4.73617 57.1875 5.25391C57.1875 5.77164 56.7817 6.19141 56.2812 6.19141H14.5938C14.0933 6.19141 13.6875 5.77164 13.6875 5.25391C13.6875 4.73617 14.0933 4.31641 14.5938 4.31641Z" fill="#F5F5F5"/>
<path d="M3.71852 6.19094C4.21891 6.19094 4.62455 5.77131 4.62455 5.25367C4.62455 4.73603 4.21891 4.31641 3.71852 4.31641C3.21814 4.31641 2.8125 4.73603 2.8125 5.25367C2.8125 5.77131 3.21814 6.19094 3.71852 6.19094Z" fill="#F5F5F5"/>
<path d="M7.34352 6.19094C7.84391 6.19094 8.24955 5.77131 8.24955 5.25367C8.24955 4.73603 7.84391 4.31641 7.34352 4.31641C6.84314 4.31641 6.4375 4.73603 6.4375 5.25367C6.4375 5.77131 6.84314 6.19094 7.34352 6.19094Z" fill="#F5F5F5"/>
<path d="M10.9685 6.19094C11.4689 6.19094 11.8745 5.77131 11.8745 5.25367C11.8745 4.73603 11.4689 4.31641 10.9685 4.31641C10.4681 4.31641 10.0625 4.73603 10.0625 5.25367C10.0625 5.77131 10.4681 6.19094 10.9685 6.19094Z" fill="#F5F5F5"/>
<path d="M2.8125 55.3862V10.051C2.8125 9.56999 3.20562 9.1792 3.68952 9.1792H56.3105C56.7944 9.1792 57.1875 9.56999 57.1875 10.051V55.3862C57.1875 55.8673 56.7944 56.2581 56.3105 56.2581H3.68952C3.20562 56.2581 2.8125 55.8673 2.8125 55.3862Z" fill="#F4F4F4"/>
<path d="M34.1 22.5341C33.4657 22.5611 32.8374 22.6683 32.23 22.8531C32.0239 22.9032 31.863 23.0642 31.8131 23.2703C31.7631 23.4765 31.8325 23.6932 31.9928 23.8321C32.1532 23.971 32.3776 24.0086 32.5745 23.9298C33.0717 23.7785 33.5855 23.6892 34.1045 23.664L34.1 22.5341Z" fill="#BFBFBF"/>
<path d="M35.2333 23.6776C35.7396 23.7235 36.2349 23.8524 36.6993 24.059C36.9844 24.1882 37.3203 24.0619 37.4496 23.7768C37.5788 23.4916 37.4525 23.1557 37.1674 23.0265C36.5554 22.7552 35.9011 22.5917 35.2333 22.5431V23.6776Z" fill="#BFBFBF"/>
<path d="M22.7667 42.3391C22.4581 42.3333 22.2024 42.577 22.1932 42.8855C22.1841 43.194 22.4249 43.4524 22.7332 43.465H22.7667V42.3391Z" fill="#BFBFBF"/>
<path fill-rule="evenodd" clip-rule="evenodd" d="M46 20.5133C46.002 19.7704 45.5194 19.1129 44.81 18.8921L34.8367 15.742C34.8251 15.7386 34.8135 15.7368 34.8022 15.7351C34.7947 15.7339 34.7872 15.7328 34.78 15.7312L34.75 15.7256C34.6743 15.7145 34.5972 15.7189 34.5233 15.7386H34.5063L23.3373 19.0899L14.21 16.2078C13.6937 16.0454 13.1309 16.1386 12.6945 16.4588C12.258 16.7789 12.0002 17.2878 12 17.829V44.9185C11.9968 45.6625 12.4796 46.3215 13.19 46.5426L23.1634 49.6927C23.2719 49.7261 23.388 49.7261 23.4965 49.6927L34.6633 46.3426L43.7866 49.2246C43.9537 49.2777 44.128 49.3049 44.3034 49.3051C45.2395 49.3004 45.9965 48.5412 45.9983 47.6051L46 20.5133ZM13.1333 44.9185V17.829C13.1333 17.5161 13.3871 17.2624 13.7 17.2624C13.7586 17.2626 13.8169 17.2715 13.8728 17.289L22.7667 20.098V42.3391V43.465V48.3758L13.53 45.4591C13.2939 45.3849 13.1333 45.166 13.1333 44.9185ZM23.9 48.3877V43.4577V42.3164V20.1042L34.1 17.0442V22.5341L34.1045 23.664V45.3277L23.9 48.3877ZM44.6349 48.0601C44.4895 48.1679 44.3011 48.1989 44.1289 48.1434L35.2333 45.3339V23.6776V22.5431V17.0555L44.47 19.9727C44.7061 20.047 44.8667 20.2658 44.8667 20.5133V47.6028C44.8675 47.7837 44.7812 47.9538 44.6349 48.0601Z" fill="#BFBFBF"/>
<path d="M23.9 43.4577C24.1243 43.4411 24.3477 43.4133 24.5692 43.3744C24.7684 43.3377 24.9328 43.1976 25.0006 43.0069C25.0684 42.8161 25.0293 42.6037 24.8981 42.4496C24.7668 42.2954 24.5632 42.2231 24.3641 42.2597C24.2168 42.2869 24.0598 42.3045 23.9 42.3164V43.4577Z" fill="#BFBFBF"/>
<path d="M23.9 43.4577V48.3877L34.1045 45.3277V23.664C33.5855 23.6892 33.0717 23.7785 32.5745 23.9298C32.3776 24.0086 32.1532 23.971 31.9928 23.8321C31.8325 23.6932 31.7631 23.4765 31.8131 23.2703C31.863 23.0642 32.0239 22.9032 32.23 22.8531C32.8374 22.6683 33.4657 22.5611 34.1 22.5341V17.0442L23.9 20.1042V42.3164C24.0598 42.3045 24.2168 42.2869 24.3641 42.2597C24.5632 42.2231 24.7668 42.2954 24.8981 42.4496C25.0293 42.6037 25.0684 42.8161 25.0006 43.0069C24.9328 43.1976 24.7684 43.3377 24.5692 43.3744C24.3477 43.4133 24.1243 43.4411 23.9 43.4577Z" fill="#E8E8E8"/>
<path d="M42.9998 36.2819C42.7785 36.0607 42.4198 36.0607 42.1985 36.2819L40.3325 38.1479L38.4665 36.2819C38.2441 36.0671 37.8907 36.0702 37.6721 36.2888C37.4535 36.5074 37.4504 36.8608 37.6652 37.0831L39.5312 38.9492L37.6652 40.8152C37.5179 40.9575 37.4588 41.1682 37.5107 41.3663C37.5625 41.5644 37.7173 41.7191 37.9154 41.771C38.1135 41.8229 38.3242 41.7638 38.4665 41.6165L40.3325 39.7504L42.1985 41.6165C42.4209 41.8312 42.7743 41.8282 42.9929 41.6096C43.2115 41.391 43.2146 41.0376 42.9998 40.8152L41.1338 38.9492L42.9998 37.0831C43.221 36.8619 43.221 36.5032 42.9998 36.2819Z" fill="#B30053"/>
<path d="M17.6573 33.8492H17.6613C17.9727 33.8492 18.2258 33.5979 18.2279 33.2865V33.1227C18.2342 32.7975 18.2342 32.4716 18.2342 32.1492C18.2342 31.8362 17.9805 31.5825 17.6675 31.5825C17.3545 31.5825 17.1008 31.8362 17.1008 32.1492C17.1008 32.4688 17.1008 32.7912 17.0957 33.1125V33.2769C17.0942 33.4272 17.1526 33.5721 17.2579 33.6794C17.3632 33.7868 17.5069 33.8478 17.6573 33.8492Z" fill="#989898"/>
<path d="M17.7452 37.2492C17.8952 37.2396 18.0353 37.1708 18.1345 37.0579C18.2338 36.945 18.2841 36.7974 18.2745 36.6474C18.2513 36.2836 18.2371 35.9107 18.2292 35.5384C18.2226 35.2255 17.9636 34.9771 17.6506 34.9836C17.3376 34.9902 17.0893 35.2493 17.0958 35.5622C17.1049 35.9543 17.1191 36.3408 17.1434 36.7199C17.1626 37.0186 17.4108 37.2509 17.7101 37.2503C17.7226 37.2492 17.7328 37.2492 17.7452 37.2492Z" fill="#989898"/>
<path d="M18.5753 38.8166C18.5344 38.6131 18.3855 38.4483 18.1872 38.387C17.9889 38.3257 17.7729 38.3777 17.6243 38.5226C17.4756 38.6675 17.4181 38.882 17.4743 39.0818C17.5722 39.5 17.7049 39.9092 17.871 40.3053C17.9462 40.4978 18.1203 40.634 18.3253 40.6608C18.5303 40.6876 18.7336 40.6007 18.8558 40.434C18.978 40.2673 18.9997 40.0473 18.9125 39.8599C18.7719 39.5219 18.6592 39.173 18.5753 38.8166Z" fill="#989898"/>
<path d="M20.7469 41.8512C20.4692 41.7181 20.2097 41.5501 19.9745 41.3514C19.7364 41.1479 19.3784 41.1761 19.175 41.4143C18.9715 41.6524 18.9997 42.0104 19.2379 42.2138C19.5465 42.4755 19.8874 42.6966 20.2522 42.8717C20.5321 42.9975 20.8612 42.8777 20.9947 42.6015C21.1282 42.3252 21.0176 41.9929 20.7452 41.8517L20.7469 41.8512Z" fill="#989898"/>
<path d="M26.8468 40.7467C26.6799 40.9686 26.4912 41.1733 26.2835 41.3576C26.1212 41.4883 26.0438 41.6974 26.0818 41.9023C26.1198 42.1071 26.2672 42.2746 26.4655 42.3384C26.6639 42.4021 26.8812 42.3519 27.0315 42.2076C27.2972 41.9731 27.5383 41.7123 27.7512 41.429C27.8731 41.267 27.8994 41.0523 27.8202 40.8657C27.7409 40.679 27.5681 40.5489 27.3668 40.5242C27.1656 40.4996 26.9665 40.5842 26.8445 40.7461L26.8468 40.7467Z" fill="#989898"/>
<path d="M28.7397 37.2605C28.4328 37.1991 28.1342 37.398 28.0727 37.7048C28.0006 38.068 27.9104 38.4273 27.8024 38.7815C27.7429 38.975 27.7911 39.1856 27.929 39.3339C28.0668 39.4823 28.2733 39.5458 28.4707 39.5005C28.6681 39.4553 28.8263 39.3082 28.8859 39.1147C29.0053 38.7233 29.1048 38.3261 29.1839 37.9247C29.2437 37.6188 29.0452 37.3221 28.7397 37.2605Z" fill="#989898"/>
<path d="M29.0037 33.8492H28.9833C28.6779 33.8491 28.4273 34.0909 28.4166 34.3961C28.403 34.7661 28.3843 35.1373 28.3571 35.5079C28.3457 35.6582 28.3947 35.8068 28.4931 35.9209C28.5916 36.035 28.7315 36.1052 28.8818 36.1159H28.9238C29.2212 36.1167 29.4687 35.8873 29.4904 35.5906C29.5188 35.2064 29.5386 34.8199 29.5522 34.4357C29.5575 34.2851 29.5027 34.1386 29.3997 34.0286C29.2968 33.9185 29.1543 33.854 29.0037 33.8492Z" fill="#989898"/>
<path d="M29.011 32.7158H29.0139C29.1643 32.715 29.3082 32.6545 29.4139 32.5476C29.5197 32.4407 29.5786 32.2961 29.5777 32.1457L29.5692 31.0124C29.5673 30.6998 29.3128 30.4478 29.0003 30.4491C28.8494 30.4491 28.7047 30.5093 28.5984 30.6163C28.492 30.7233 28.4327 30.8683 28.4336 31.0192L28.4421 32.1525C28.444 32.465 28.6985 32.717 29.011 32.7158Z" fill="#989898"/>
<path d="M29.0183 29.3157H29.0654C29.361 29.3167 29.6078 29.0902 29.632 28.7955C29.6638 28.4113 29.7091 28.047 29.7669 27.7121C29.8201 27.4037 29.6132 27.1105 29.3048 27.0573C28.9963 27.0041 28.7032 27.211 28.65 27.5194C28.5865 27.8872 28.5367 28.285 28.5021 28.7026C28.4892 28.8524 28.5364 29.0011 28.6332 29.1161C28.73 29.2311 28.8685 29.3029 29.0183 29.3157Z" fill="#989898"/>
<path d="M29.6802 25.8416C29.765 25.8903 29.8612 25.9159 29.959 25.9158C30.1635 25.9162 30.3523 25.8064 30.4531 25.6285C30.6267 25.3199 30.8435 25.0377 31.0969 24.7904C31.2433 24.6499 31.3034 24.4418 31.2545 24.2448C31.2055 24.0479 31.055 23.8921 30.8598 23.8365C30.6646 23.7809 30.4546 23.8339 30.3092 23.9755C29.9782 24.298 29.6952 24.6663 29.4688 25.0692C29.3142 25.3409 29.4088 25.6865 29.6802 25.8416Z" fill="#989898"/>
<path d="M38.8614 26.1834C39.0091 26.4594 39.3526 26.5634 39.6286 26.4157C39.9047 26.268 40.0087 25.9245 39.861 25.6485C39.6254 25.2047 39.3402 24.7892 39.011 24.4097C38.8046 24.176 38.4481 24.1529 38.2133 24.3581C37.9785 24.5633 37.9536 24.9196 38.1576 25.1555C38.4302 25.4704 38.6663 25.8153 38.8614 26.1834Z" fill="#989898"/>
<path d="M39.6899 28.8269C39.739 29.1767 39.7645 29.5294 39.7664 29.8826C39.7664 30.1955 40.0201 30.4492 40.3331 30.4492C40.646 30.4492 40.8997 30.1955 40.8997 29.8826C40.8982 29.4774 40.869 29.0728 40.8125 28.6716C40.7869 28.4692 40.6545 28.2961 40.4658 28.2185C40.277 28.1409 40.0612 28.1707 39.9006 28.2967C39.74 28.4226 39.6596 28.6251 39.6899 28.8269Z" fill="#989898"/>
<path d="M40.3342 33.8492C40.6472 33.8492 40.9009 33.5955 40.9009 33.2825V32.1492C40.9009 31.8362 40.6472 31.5825 40.3342 31.5825C40.0213 31.5825 39.7676 31.8362 39.7676 32.1492V33.2825C39.7676 33.5955 40.0213 33.8492 40.3342 33.8492Z" fill="#989898"/>
<path d="M40.3342 34.9825C40.0213 34.9825 39.7676 35.2362 39.7676 35.5492V36.1159C39.7676 36.4288 40.0213 36.6825 40.3342 36.6825C40.6472 36.6825 40.9009 36.4288 40.9009 36.1159V35.5492C40.9009 35.2362 40.6472 34.9825 40.3342 34.9825Z" fill="#989898"/>
<path d="M17.3134 30.3251C17.5204 30.4909 17.8147 30.4909 18.0217 30.3251C18.1458 30.2254 21.0676 27.8528 21.0676 24.7826C21.0676 22.9048 19.5453 21.3826 17.6676 21.3826C15.7898 21.3826 14.2676 22.9048 14.2676 24.7826C14.2676 27.8528 17.1893 30.2254 17.3134 30.3251ZM17.6676 22.5159C18.9194 22.5159 19.9342 23.5307 19.9342 24.7826C19.9342 26.7313 18.3838 28.4381 17.6676 29.1221C16.9513 28.4381 15.4009 26.7313 15.4009 24.7826C15.4009 23.5307 16.4157 22.5159 17.6676 22.5159Z" fill="#B30053"/>
<path d="M17.6676 22.5159C18.9194 22.5159 19.9342 23.5307 19.9342 24.7826C19.9342 26.7313 18.3838 28.4381 17.6676 29.1221C16.9513 28.4381 15.4009 26.7313 15.4009 24.7826C15.4009 23.5307 16.4157 22.5159 17.6676 22.5159Z" fill="#B30053"/>
<path d="M17.6641 26.2765C18.5259 26.2765 19.2246 25.5778 19.2246 24.7159C19.2246 23.8541 18.5259 23.1554 17.6641 23.1554C16.8022 23.1554 16.1035 23.8541 16.1035 24.7159C16.1035 25.5778 16.8022 26.2765 17.6641 26.2765Z" fill="#F5F5F5"/>
</svg>
