<svg width="60" height="60" viewBox="0 0 60 60" fill="none" xmlns="http://www.w3.org/2000/svg">
<path d="M0 56.0185V4.98148C0 4.43994 0.433783 4 0.967742 4H59.0323C59.5662 4 60 4.43994 60 4.98148V56.0185C60 56.5601 59.5662 57 59.0323 57H0.967742C0.433783 57 0 56.5601 0 56.0185Z" fill="#F4F4F4"/>
<path d="M0 11.7419V4.96774C0 4.43378 0.433783 4 0.967742 4H59.0323C59.5662 4 60 4.43378 60 4.96774V11.7419H0Z" fill="#BFBFBF"/>
<path d="M49.3555 6.90234H55.1619V8.83783H49.3555V6.90234Z" fill="#FBF2FF"/>
<path d="M4.83984 6.90234H6.77533V8.83783H4.83984V6.90234Z" fill="#FBF2FF"/>
<path d="M8.71094 6.90234H10.6464V8.83783H8.71094V6.90234Z" fill="#FBF2FF"/>
<path d="M12.582 6.90234H14.5175V8.83783H12.582V6.90234Z" fill="#FBF2FF"/>
<path d="M22.3977 37.8701C22.1857 37.6593 22.0667 37.3725 22.0673 37.0735C22.0666 36.4073 21.5267 35.8675 20.8605 35.8667H20.4741C19.808 35.8675 19.2681 36.4073 19.2673 37.0735C19.2679 37.3725 19.149 37.6593 18.9369 37.8701C18.5495 38.2556 18.3325 38.78 18.334 39.3266V39.4068C18.3353 40.5439 19.2568 41.4654 20.3939 41.4667H20.9408C22.0779 41.4654 22.9994 40.5439 23.0007 39.4068V39.3266C23.0022 38.78 22.7851 38.2556 22.3977 37.8701ZM22.0673 39.4068C22.0666 40.0287 21.5626 40.5326 20.9408 40.5334H20.3939C19.772 40.5326 19.2681 40.0287 19.2673 39.4068V39.3266C19.2667 39.0275 19.3857 38.7408 19.5977 38.53C19.9851 38.1444 20.2022 37.62 20.2007 37.0735C20.2007 36.9225 20.3231 36.8 20.4741 36.8H20.8605C21.0116 36.8 21.134 36.9225 21.134 37.0735C21.1325 37.62 21.3495 38.1444 21.7369 38.53C21.949 38.7408 22.0679 39.0276 22.0673 39.3266V39.4068Z" fill="#DEDEDE"/>
<path d="M22.0673 39.4068C22.0666 40.0287 21.5626 40.5326 20.9408 40.5334H20.3939C19.772 40.5326 19.2681 40.0287 19.2673 39.4068V39.3266C19.2667 39.0275 19.3857 38.7408 19.5977 38.53C19.9851 38.1444 20.2022 37.62 20.2007 37.0735C20.2007 36.9225 20.3231 36.8 20.4741 36.8H20.8605C21.0116 36.8 21.134 36.9225 21.134 37.0735C21.1325 37.62 21.3495 38.1444 21.7369 38.53C21.949 38.7408 22.0679 39.0276 22.0673 39.3266V39.4068Z" fill="#DEDEDE"/>
<path d="M39.5492 36.3335C38.988 36.3336 38.4498 36.5566 38.053 36.9533L32.6065 42.4002H29.0664V41.9336C29.0649 40.6456 28.0211 39.6017 26.7331 39.6002H26.2664C25.7509 39.6002 25.3331 40.0181 25.3331 40.5336V41.0002C25.3349 41.5067 25.5031 41.9987 25.8119 42.4002H22.0664V48.0002H37.9331V43.0601L41.0462 39.9465C41.4446 39.5505 41.6679 39.0116 41.6664 38.4499C41.6662 37.2808 40.7183 36.3333 39.5492 36.3335ZM26.2664 40.5336H26.7331C27.5063 40.5336 28.1331 41.1603 28.1331 41.9336V42.4002H27.6664C26.8932 42.4002 26.2664 41.7734 26.2664 41.0002V40.5336ZM36.9997 47.0669H22.9997V43.3336H36.9997V47.0669ZM40.4128 39.2602C40.4041 39.2691 40.3953 39.2779 40.3863 39.2866L37.2732 42.4002H33.9263L38.7129 37.6132C39.1677 37.1437 39.9169 37.1319 40.3863 37.5867C40.8557 38.0416 40.8676 38.7908 40.4128 39.2602Z" fill="#3573BC"/>
<path d="M36.9997 47.0669H22.9997V43.3336H36.9997V47.0669Z" fill="#3573BC"/>
<path d="M26.2664 40.5336H26.7331C27.5063 40.5336 28.1331 41.1603 28.1331 41.9336V42.4002H27.6664C26.8932 42.4002 26.2664 41.7734 26.2664 41.0002V40.5336Z" fill="#3573BC"/>
<path d="M40.4128 39.2602C40.4041 39.2691 40.3953 39.2779 40.3863 39.2866L37.2732 42.4002H33.9263L38.7129 37.6132C39.1677 37.1437 39.9169 37.1319 40.3863 37.5867C40.8557 38.0416 40.8676 38.7908 40.4128 39.2602Z" fill="#3573BC"/>
<path d="M26.7107 32.1334L27.3944 31.4497C28.0921 30.7521 28.0922 29.621 27.3946 28.9234C27.0594 28.5881 26.6047 28.3999 26.1307 28.4001H26.0037C25.7805 27.3144 24.8255 26.5348 23.7171 26.5334H23.4441L23.3475 26.4368C22.5209 25.6103 21.1808 25.6103 20.3543 26.4368C19.5277 27.2633 19.5277 28.6035 20.3543 29.43L20.4509 29.5266V29.8001C20.4523 30.9084 21.2319 31.8635 22.3175 32.0867V32.2137C22.3174 33.2002 23.1172 34.0001 24.1038 34.0002C24.5777 34.0003 25.0321 33.812 25.3672 33.4769L26.0509 32.7933L27.5876 34.33L28.2475 33.6701L26.7107 32.1334ZM26.0504 31.4735L24.5137 29.9368L23.8538 30.5967L25.391 32.1334L24.7073 32.8171C24.3737 33.15 23.8333 33.1495 23.5002 32.8158C23.3407 32.656 23.251 32.4395 23.2509 32.2137V31.2001H22.7842C22.011 31.2001 21.3842 30.5733 21.3842 29.8001V29.1402L21.0141 28.7701C20.5111 28.352 20.3805 27.6795 20.7986 27.1764C20.8451 27.1205 20.8966 27.0689 21.0141 27.0967C21.4764 26.6349 22.2254 26.6349 22.6876 27.0967L23.0577 27.4667H23.7175C24.4907 27.4667 25.1175 28.0935 25.1175 28.8667V29.3334H26.1307C26.6018 29.3332 26.9839 29.7149 26.9841 30.186C26.9843 30.4125 26.8943 30.6297 26.7341 30.7899L26.0504 31.4735Z" fill="#BFBFBF"/>
<path d="M26.0504 31.4735L24.5137 29.9368L23.8538 30.5967L25.391 32.1334L24.7073 32.8171C24.3737 33.15 23.8333 33.1495 23.5002 32.8158C23.3407 32.656 23.251 32.4395 23.2509 32.2137V31.2001H22.7842C22.011 31.2001 21.3842 30.5733 21.3842 29.8001V29.1402L21.0141 28.7701C20.5111 28.352 20.3805 27.6795 20.7986 27.1764C20.8451 27.1205 20.8966 27.0689 21.0141 27.0967C21.4764 26.6349 22.2254 26.6349 22.6876 27.0967L23.0577 27.4667H23.7175C24.4907 27.4667 25.1175 28.0935 25.1175 28.8667V29.3334H26.1307C26.6018 29.3332 26.9839 29.7149 26.9841 30.186C26.9843 30.4125 26.8943 30.6297 26.7341 30.7899L26.0504 31.4735Z" fill="#BFBFBF"/>
<path d="M26.2668 34.9331H25.8001C24.5121 34.9346 23.4683 35.9784 23.4668 37.2664V37.7331C23.4668 38.2486 23.8846 38.6664 24.4001 38.6664H24.8668C26.1548 38.6649 27.1986 37.6211 27.2001 36.3331V35.8664C27.2001 35.3509 26.7823 34.9331 26.2668 34.9331ZM26.2668 36.3331C26.2668 37.1063 25.64 37.7331 24.8668 37.7331H24.4001V37.2664C24.4001 36.4932 25.0269 35.8664 25.8001 35.8664H26.2668V36.3331Z" fill="#DEDEDE"/>
<path d="M26.2668 36.3331C26.2668 37.1063 25.64 37.7331 24.8668 37.7331H24.4001V37.2664C24.4001 36.4932 25.0269 35.8664 25.8001 35.8664H26.2668V36.3331Z" fill="#DEDEDE"/>
<path d="M34.4331 34.4668H34.1997C34.1997 33.5648 33.4685 32.8335 32.5664 32.8335C31.6643 32.8335 30.9331 33.5648 30.9331 34.4668H30.6997C29.7977 34.4668 29.0664 35.1981 29.0664 36.1002C29.0664 37.0022 29.7977 37.7335 30.6997 37.7335H30.9331V39.6002H34.1997V37.7335H34.4331C35.3351 37.7335 36.0664 37.0022 36.0664 36.1002C36.0664 35.1981 35.3351 34.4668 34.4331 34.4668ZM33.2664 38.6668H31.8664V37.7335H33.2664V38.6668ZM34.4331 36.8002H30.6997C30.3132 36.8002 29.9997 36.4867 29.9997 36.1002C29.9997 35.7136 30.3132 35.4002 30.6997 35.4002H31.8664V34.4668C31.8664 34.0803 32.1798 33.7668 32.5664 33.7668C32.953 33.7668 33.2664 34.0803 33.2664 34.4668V35.4002H34.4331C34.8196 35.4002 35.1331 35.7136 35.1331 36.1002C35.1331 36.4867 34.8196 36.8002 34.4331 36.8002Z" fill="#BFBFBF"/>
<path d="M34.4331 36.8002H30.6997C30.3132 36.8002 29.9997 36.4867 29.9997 36.1002C29.9997 35.7136 30.3132 35.4002 30.6997 35.4002H31.8664V34.4668C31.8664 34.0803 32.1798 33.7668 32.5664 33.7668C32.953 33.7668 33.2664 34.0803 33.2664 34.4668V35.4002H34.4331C34.8196 35.4002 35.1331 35.7136 35.1331 36.1002C35.1331 36.4867 34.8196 36.8002 34.4331 36.8002Z" fill="#BFBFBF"/>
<path d="M33.2664 38.6668H31.8664V37.7335H33.2664V38.6668Z" fill="#BFBFBF"/>
<path d="M32.3336 23.7877V22.7998H31.4003V23.7877C30.3405 24.0271 29.6393 25.0365 29.7847 26.1131L30.3479 30.3379C30.4592 31.1769 31.2296 31.7669 32.0687 31.6556C32.7552 31.5646 33.2954 31.0244 33.3864 30.3379L33.9492 26.1131C34.0946 25.0365 33.3934 24.0271 32.3336 23.7877ZM33.0243 25.9885L32.8273 27.4665H31.8669V28.3998H32.7027L32.461 30.2133C32.4178 30.5413 32.1168 30.7723 31.7887 30.7291C31.5198 30.6936 31.3083 30.4821 31.2729 30.2133L30.7824 26.5331H31.8669V25.5998H30.7297C30.8588 24.9699 31.4741 24.5639 32.1041 24.693C32.7037 24.8158 33.1058 25.3819 33.0243 25.9885Z" fill="#DEDEDE"/>
<path d="M33.0243 25.9885L32.8273 27.4665H31.8669V28.3998H32.7027L32.461 30.2133C32.4178 30.5413 32.1168 30.7723 31.7887 30.7291C31.5198 30.6936 31.3083 30.4821 31.2729 30.2133L30.7824 26.5331H31.8669V25.5998H30.7297C30.8588 24.9699 31.4741 24.5639 32.1041 24.693C32.7037 24.8158 33.1058 25.3819 33.0243 25.9885Z" fill="#DEDEDE"/>
<path d="M39.8018 28.8667C38.7742 28.8691 37.807 29.3527 37.1885 30.1734C36.7656 30.7394 36.5365 31.4268 36.5352 32.1334V33.0667C36.5376 33.6578 36.9111 34.1838 37.4685 34.3808V35.4H38.4018V34.3808C38.9592 34.1838 39.3327 33.6578 39.3352 33.0667V32.5067C39.3348 32.0502 39.47 31.6039 39.7234 31.2243C40.0788 30.6921 40.2685 30.0666 40.2685 29.4267V28.8667H39.8018ZM38.9469 30.7077C38.5912 31.2402 38.4015 31.8663 38.4018 32.5067V33.0667C38.4018 33.3244 38.1929 33.5334 37.9352 33.5334C37.6774 33.5334 37.4685 33.3244 37.4685 33.0667V32.1334C37.4688 31.0403 38.228 30.0939 39.295 29.8565C39.2373 30.1608 39.1189 30.4502 38.9469 30.7077Z" fill="#DEDEDE"/>
<path d="M38.9469 30.7077C38.5912 31.2402 38.4015 31.8663 38.4018 32.5067V33.0667C38.4018 33.3244 38.1929 33.5334 37.9352 33.5334C37.6774 33.5334 37.4685 33.3244 37.4685 33.0667V32.1334C37.4688 31.0403 38.228 30.0939 39.295 29.8565C39.2373 30.1608 39.1189 30.4502 38.9469 30.7077Z" fill="#DEDEDE"/>
<path d="M36.5346 26.5332H36.068C35.2948 26.5332 34.668 27.16 34.668 27.9332C34.668 28.7064 35.2948 29.3332 36.068 29.3332H36.5346C37.3078 29.3332 37.9346 28.7064 37.9346 27.9332C37.9346 27.16 37.3078 26.5332 36.5346 26.5332ZM36.5346 28.3999H36.068C35.8103 28.3999 35.6013 28.1909 35.6013 27.9332C35.6013 27.6755 35.8103 27.4665 36.068 27.4665H36.5346C36.7924 27.4665 37.0013 27.6755 37.0013 27.9332C37.0013 28.1909 36.7924 28.3999 36.5346 28.3999Z" fill="#BFBFBF"/>
<path d="M36.5346 28.3999H36.068C35.8103 28.3999 35.6013 28.1909 35.6013 27.9332C35.6013 27.6755 35.8103 27.4665 36.068 27.4665H36.5346C36.7924 27.4665 37.0013 27.6755 37.0013 27.9332C37.0013 28.1909 36.7924 28.3999 36.5346 28.3999Z" fill="#BFBFBF"/>
<path d="M27.6674 26.5332H27.2008C26.9431 26.5332 26.7341 26.3242 26.7341 26.0665C26.7341 25.8088 26.9431 25.5998 27.2008 25.5998H27.6674C27.9252 25.5998 28.1341 25.8088 28.1341 26.0665C28.1341 26.3242 27.9252 26.5332 27.6674 26.5332Z" fill="#DEDEDE"/>
<path fill-rule="evenodd" clip-rule="evenodd" d="M27.6674 24.6665H27.2008C26.4276 24.6665 25.8008 25.2933 25.8008 26.0665C25.8008 26.8397 26.4276 27.4665 27.2008 27.4665H27.6674C28.4407 27.4665 29.0674 26.8397 29.0674 26.0665C29.0674 25.2933 28.4407 24.6665 27.6674 24.6665ZM27.2008 26.5332H27.6674C27.9252 26.5332 28.1341 26.3242 28.1341 26.0665C28.1341 25.8088 27.9252 25.5998 27.6674 25.5998H27.2008C26.9431 25.5998 26.7341 25.8088 26.7341 26.0665C26.7341 26.3242 26.9431 26.5332 27.2008 26.5332Z" fill="#DEDEDE"/>
<path d="M30.8481 20.9333C30.6511 20.376 30.1251 20.0025 29.534 20H28.6007C26.7965 20 25.334 21.4625 25.334 23.2667V23.7333H25.894C26.5344 23.7337 27.1605 23.544 27.693 23.1883C28.0722 22.935 28.518 22.7999 28.974 22.8H29.534C30.1251 22.7976 30.6511 22.424 30.8481 21.8667H31.8673V20.9333H30.8481ZM29.534 21.8667H28.974C28.3333 21.8661 27.7068 22.0558 27.1741 22.4117C26.9164 22.5838 26.6268 22.7021 26.3224 22.7599C26.4445 22.2167 26.7558 21.7347 27.2007 21.4C27.605 21.0981 28.096 20.9344 28.6007 20.9333H29.534C29.7917 20.9333 30.0007 21.1423 30.0007 21.4C30.0007 21.6577 29.7917 21.8667 29.534 21.8667Z" fill="#BFBFBF"/>
<path d="M29.534 21.8667H28.974C28.3333 21.8661 27.7068 22.0558 27.1741 22.4117C26.9164 22.5838 26.6268 22.7021 26.3224 22.7599C26.4445 22.2167 26.7558 21.7347 27.2007 21.4C27.605 21.0981 28.096 20.9344 28.6007 20.9333H29.534C29.7917 20.9333 30.0007 21.1423 30.0007 21.4C30.0007 21.6577 29.7917 21.8667 29.534 21.8667Z" fill="#BFBFBF"/>
<path d="M39.8005 38.2002H38.8672V39.1335H39.8005V38.2002Z" fill="#F5F5F5"/>
<path d="M37.9333 40.0669H37V41.0002H37.9333V40.0669Z" fill="#F5F5F5"/>
</svg>
