<svg width="60" height="60" viewBox="0 0 60 60" fill="none" xmlns="http://www.w3.org/2000/svg">
<path d="M0 55.0185V3.98148C0 3.43994 0.433783 3 0.967742 3H59.0323C59.5662 3 60 3.43994 60 3.98148V55.0185C60 55.5601 59.5662 56 59.0323 56H0.967742C0.433783 56 0 55.5601 0 55.0185Z" fill="#F4F4F4"/>
<path d="M0 10.7419V3.96774C0 3.43378 0.433783 3 0.967742 3H59.0323C59.5662 3 60 3.43378 60 3.96774V10.7419H0Z" fill="#989898"/>
<g clip-path="url(#clip0_2126_6218)">
<path d="M39.6505 21.2554C40.3095 21.9144 41.378 21.9144 42.037 21.2554C42.696 20.5963 42.696 19.5279 42.037 18.8689C41.378 18.2098 40.3095 18.2098 39.6505 18.8689C38.9915 19.5279 38.9915 20.5963 39.6505 21.2554Z" fill="#EACB14" stroke="#EACB14"/>
<path d="M16.963 46.1311C17.622 46.7901 18.6905 46.7901 19.3495 46.1311C20.0085 45.4721 20.0085 44.4036 19.3495 43.7446C18.6905 43.0856 17.622 43.0856 16.963 43.7446C16.304 44.4036 16.304 45.4721 16.963 46.1311Z" fill="#EACB14" stroke="#EACB14"/>
<path d="M26.1836 48.9894C27.2557 49.2039 28.3647 49.3164 29.4999 49.3164C38.7874 49.3164 46.3163 41.7874 46.3163 32.5C46.3163 28.4457 44.8813 24.7267 42.4918 21.8225" stroke="#EACB14" stroke-miterlimit="10" stroke-linecap="round" stroke-linejoin="round"/>
<path d="M32.8482 16.017C31.7662 15.7984 30.6465 15.6836 29.5 15.6836C20.2126 15.6836 12.6836 23.2126 12.6836 32.5C12.6836 36.5544 14.1186 40.2734 16.5081 43.1775" stroke="#EACB14" stroke-miterlimit="10" stroke-linecap="round" stroke-linejoin="round"/>
<path d="M29.4992 37.4649C26.7572 37.4649 24.5343 35.2421 24.5343 32.5C24.5343 29.758 26.7572 27.5351 29.4992 27.5351C32.2412 27.5351 34.4642 29.758 34.4642 32.5C34.4642 35.2421 32.2412 37.4649 29.4992 37.4649ZM39.4 30.3567C39.1396 29.1446 38.6626 28.0129 38.011 27.0045L39.3207 25.6947L36.2973 22.6734L34.9885 23.9821C33.9802 23.3305 32.8485 22.8535 31.6364 22.5932V20.7422H27.362V22.5932C26.1499 22.8535 25.0183 23.3305 24.0099 23.9821L22.7011 22.6734L19.6777 25.6947L20.9874 27.0045C20.3358 28.0129 19.8588 29.1446 19.5984 30.3567H17.7426L17.7402 34.631H19.5983C19.8588 35.8432 20.3357 36.9749 20.9874 37.9833L19.6726 39.2981L22.6939 42.3216L24.0097 41.0057C25.0182 41.6574 26.1499 42.1344 27.362 42.3948V44.2578H31.6364V42.3948C32.8485 42.1344 33.9802 41.6574 34.9887 41.0057L36.3045 42.3216L39.3258 39.2981L38.011 37.9833C38.6627 36.9749 39.1397 35.8432 39.4001 34.631H41.2582V30.3567H39.4Z" fill="#EACB14"/>
</g>
<defs>
<clipPath id="clip0_2126_6218">
<rect width="35" height="35" fill="white" transform="translate(12 15)"/>
</clipPath>
</defs>
</svg>
