<svg width="60" height="60" viewBox="0 0 60 60" fill="none" xmlns="http://www.w3.org/2000/svg">
<path d="M0 56.0185V4.98148C0 4.43994 0.433783 4 0.967742 4H59.0323C59.5662 4 60 4.43994 60 4.98148V56.0185C60 56.5601 59.5662 57 59.0323 57H0.967742C0.433783 57 0 56.5601 0 56.0185Z" fill="#F4F4F4"/>
<path d="M0 11.7419V4.96774C0 4.43378 0.433783 4 0.967742 4H59.0323C59.5662 4 60 4.43378 60 4.96774V11.7419H0Z" fill="#BFBFBF"/>
<path d="M49.3555 6.90234H55.1619V8.83783H49.3555V6.90234Z" fill="#FBF2FF"/>
<path d="M4.83984 6.90234H6.77533V8.83783H4.83984V6.90234Z" fill="#FBF2FF"/>
<path d="M8.71094 6.90234H10.6464V8.83783H8.71094V6.90234Z" fill="#FBF2FF"/>
<path d="M12.582 6.90234H14.5175V8.83783H12.582V6.90234Z" fill="#FBF2FF"/>
<path d="M15.011 32.4069C15.7572 32.9941 16.4928 33.6514 17.1189 34.3463C17.8895 35.2016 18.4937 36.1173 18.7852 37.0287C21.4198 38.011 21.8635 39.2172 22.4033 40.4748C22.8677 41.557 23.4281 42.6722 26.1592 43.7071C26.3118 43.7648 26.4345 43.8843 26.4979 44.0368C27.1068 45.4936 27.5526 45.7979 28.1551 46.1214C28.7892 46.4633 29.5516 46.8317 30.6594 48.1626C30.6933 48.0741 30.7255 47.9805 30.7544 47.8834C30.8512 47.5558 30.9181 47.1862 30.8056 46.8605C30.7144 46.596 30.8155 46.3042 31.049 46.1579C31.6943 45.7534 32.5379 45.3977 33.4284 45.196L33.704 46.3561C33.0962 46.4913 32.5139 46.7132 32.0233 46.9728C32.0654 47.3944 32.0006 47.8335 31.8813 48.2346C31.6578 48.9902 31.2604 49.5961 31.2604 49.5961C31.1549 49.7575 30.9777 49.856 30.7864 49.8597C30.5947 49.8641 30.4125 49.7736 30.298 49.6172C29.0472 47.9107 28.2554 47.5228 27.6092 47.1759C26.8602 46.7723 26.261 46.4222 25.5172 44.7334C22.4779 43.528 21.8624 42.1986 21.3246 40.9448C20.868 39.8798 20.4856 38.8703 18.1178 38.0524C17.9255 37.9857 17.7795 37.8239 17.7319 37.6234C17.5317 36.7806 16.9671 35.9402 16.2534 35.1488C15.6994 34.5337 15.0535 33.9516 14.3945 33.4259L15.011 32.4069Z" fill="#389727"/>
<path d="M44.1334 33.03C44.7028 32.9519 45.0727 32.7184 45.4282 32.6254C46.0017 32.4756 46.5663 32.4944 47.4194 33.3C47.5051 33.381 47.5649 33.4853 47.5921 33.5998C47.8386 34.6373 47.7806 35.3087 47.6947 35.8554C47.601 36.4505 47.4339 36.8458 47.9139 37.6276C48.0511 37.8517 48.0284 38.1402 47.857 38.3368C45.9504 40.5282 42.0393 42.9016 39.6639 43.4659C39.1606 43.5855 38.8174 43.7659 38.5878 44.0052C38.243 44.3647 38.1653 44.8363 38.1069 45.3052C38.0514 45.7507 38.0229 46.2002 37.9296 46.6086C37.8827 46.8156 37.7304 46.9807 37.5298 47.0419C37.3292 47.1031 37.1114 47.051 36.9573 46.9059C36.44 46.4172 35.7448 46.2305 35.0192 46.2156C34.3912 46.2021 33.739 46.3177 33.136 46.5089L32.86 45.3469C33.5592 45.1336 34.3109 45.0066 35.0353 45.0217C35.6997 45.0358 36.3407 45.1678 36.9082 45.4481C36.9351 45.1924 36.9626 44.9342 37.0122 44.6829C37.1143 44.1637 37.299 43.6722 37.6624 43.2561C38.0186 42.8479 38.551 42.5022 39.3878 42.3034C41.4777 41.8069 44.8465 39.7908 46.693 37.8501C46.3264 37.0978 46.3763 36.5904 46.4747 36.0027C46.5538 35.5295 46.6806 34.9848 46.4876 34.0501C46.2937 33.8825 46.1386 33.7891 45.9882 33.7616C45.8505 33.7366 45.7273 33.7775 45.5932 33.8235C45.4408 33.8763 45.2813 33.9424 45.1041 34.0054C44.9196 34.0712 44.7184 34.1341 44.4913 34.1804C44.4647 34.1858 44.4377 34.191 44.4104 34.196L44.1334 33.03Z" fill="#389727"/>
<path d="M20.1537 21.0558C24.5374 21.8669 26.6799 23.2093 28.7832 24.5622C30.4814 24.1999 31.4633 24.4364 32.2884 24.6358C32.9601 24.798 33.499 24.9426 34.4003 24.4712C34.561 24.387 34.7515 24.3829 34.9162 24.4604C35.0813 24.5372 35.2027 24.6871 35.2452 24.8661C35.717 26.8522 37.9218 27.3656 37.9218 27.3656C38.139 27.4177 38.3092 27.5898 38.3615 27.8101C38.6169 28.8848 38.9381 29.5097 39.3337 29.9235C39.7368 30.346 40.2047 30.5505 40.6977 30.8171C41.4583 31.2284 42.2805 31.7417 43.101 32.9928C43.6581 33.0969 44.0788 33.0596 44.4224 32.9749L44.6975 34.1327C44.6311 34.15 44.5625 34.166 44.4913 34.1804C44.0095 34.2778 43.4112 34.2991 42.608 34.1047C42.4562 34.0683 42.324 33.972 42.2411 33.8369C41.3345 32.3582 40.4084 32.0231 39.6077 31.5778C38.674 31.0584 37.8495 30.4438 37.3018 28.4131C36.5944 28.1568 35.0184 27.4241 34.3227 25.808C33.624 26.0538 33.0783 26.0201 32.5138 25.908C31.6577 25.738 30.746 25.3209 28.8156 25.7795C28.6618 25.8161 28.4993 25.7884 28.3651 25.7017C26.3593 24.4122 24.3864 23.1142 20.3473 22.3077C20.31 22.3003 20.2725 22.2928 20.2348 22.2855C20.1753 22.2739 20.1154 22.2623 20.055 22.2509C20.0163 22.2436 19.9774 22.2363 19.9384 22.2291C19.9217 22.226 19.905 22.2229 19.8883 22.2199L20.1537 21.0558Z" fill="#389727"/>
<path d="M14.7627 33.7271C13.9471 33.0434 13.0869 32.4415 12.3364 31.9708C12.1205 31.8354 12.0129 31.5754 12.0701 31.3254L12.6617 28.7287C12.7347 28.408 13.0503 28.2102 13.3669 28.2867C13.6232 28.348 13.828 28.381 13.9937 28.384C14.0986 28.3855 14.1729 28.393 14.2197 28.3512C14.2775 28.2994 14.2897 28.216 14.3167 28.1286C14.357 27.998 14.3915 27.8535 14.4348 27.7026C14.5678 27.2375 14.7662 26.7194 15.2771 26.2578L13.6093 24.8482C13.474 24.7341 13.3959 24.5654 13.3953 24.3875C13.3954 24.21 13.4727 24.0418 13.6073 23.9294C15.0141 22.7521 16.5616 21.6765 18.4901 20.872C18.5868 20.8312 18.6925 20.8184 18.7963 20.833C19.5742 20.946 20.2885 21.0735 20.949 21.2138L20.4024 22.3188C20.3841 22.3151 20.3657 22.3114 20.3473 22.3077C20.31 22.3003 20.2725 22.2928 20.2348 22.2855C20.1753 22.2739 20.1154 22.2623 20.055 22.2509C20.0163 22.2436 19.9774 22.2363 19.9384 22.2291C19.5745 22.1617 19.1946 22.0982 18.7969 22.0389C17.3001 22.6818 16.0502 23.5019 14.913 24.4021L16.6269 25.8506C16.7789 25.979 16.8577 26.1759 16.8372 26.3748C16.8167 26.5731 16.6998 26.7476 16.5251 26.8388C15.6609 27.291 15.5966 27.9486 15.4637 28.4118C15.3313 28.8743 15.1355 29.2199 14.7583 29.4176C14.5261 29.539 14.1907 29.6101 13.6835 29.5532L13.3105 31.1879C13.9448 31.6016 14.632 32.0935 15.3012 32.6388L14.7627 33.7271Z" fill="#389727"/>
<path d="M15.3012 32.6388C15.9466 33.1651 16.5741 33.7416 17.1189 34.3463C17.8895 35.2016 18.4937 36.1173 18.7852 37.0287C21.4198 38.011 21.8635 39.2172 22.4033 40.4748C22.8677 41.557 23.4281 42.6722 26.1592 43.7071C26.3118 43.7648 26.4345 43.8843 26.4979 44.0368C27.1068 45.4936 27.5526 45.7979 28.1551 46.1214C28.7892 46.4633 29.5516 46.8317 30.6594 48.1626C30.6933 48.0741 30.7255 47.9805 30.7544 47.8834C30.8512 47.5558 30.9181 47.1862 30.8056 46.8605C30.7144 46.596 30.8155 46.3042 31.049 46.1579C31.5551 45.8407 32.1831 45.5534 32.86 45.3469C33.5592 45.1336 34.3109 45.0066 35.0353 45.0217C35.6997 45.0358 36.3407 45.1678 36.9082 45.4481C36.9351 45.1924 36.9626 44.9342 37.0122 44.6829C37.1143 44.1637 37.299 43.6722 37.6624 43.2561C38.0186 42.8479 38.551 42.5022 39.3878 42.3034C41.4777 41.8069 44.8465 39.7908 46.693 37.8501C46.3264 37.0978 46.3763 36.5904 46.4747 36.0027C46.5538 35.5295 46.6806 34.9848 46.4876 34.0501C46.2937 33.8825 46.1386 33.7891 45.9882 33.7616C45.8505 33.7366 45.7273 33.7775 45.5932 33.8235C45.4408 33.8763 45.2813 33.9424 45.1041 34.0054C44.9774 34.0506 44.8429 34.0947 44.6975 34.1327C44.6311 34.15 44.5625 34.166 44.4913 34.1804C44.4647 34.1858 44.4377 34.191 44.4104 34.196C43.9429 34.2797 43.3669 34.2883 42.608 34.1047C42.4562 34.0683 42.324 33.972 42.2411 33.8369C41.3345 32.3582 40.4084 32.0231 39.6077 31.5778C38.674 31.0584 37.8495 30.4438 37.3018 28.4131C36.5944 28.1568 35.0184 27.4241 34.3227 25.808C33.624 26.0538 33.0783 26.0201 32.5138 25.908C31.6577 25.738 30.746 25.3209 28.8156 25.7795C28.6618 25.8161 28.4993 25.7884 28.3651 25.7017C26.3593 24.4122 24.3864 23.1142 20.3473 22.3077C20.31 22.3003 20.2725 22.2928 20.2348 22.2855C20.1753 22.2739 20.1154 22.2623 20.055 22.2509C20.0163 22.2436 19.9774 22.2363 19.9384 22.2291C19.9217 22.226 19.905 22.2229 19.8883 22.2199C19.5397 22.1559 19.1764 22.0954 18.7969 22.0389C17.3001 22.6818 16.0502 23.5019 14.913 24.4021L16.6269 25.8506C16.7789 25.979 16.8577 26.1759 16.8372 26.3748C16.8167 26.5731 16.6998 26.7476 16.5251 26.8388C15.6609 27.291 15.5966 27.9486 15.4637 28.4118C15.3313 28.8743 15.1355 29.2199 14.7583 29.4176C14.5261 29.539 14.1907 29.6101 13.6835 29.5532L13.3105 31.1879C13.9448 31.6016 14.632 32.0935 15.3012 32.6388Z" fill="#389727"/>
<path d="M19.4898 26.7055C19.8187 27.1125 20.1329 27.5555 20.3828 28.0047C20.6904 28.5575 20.9001 29.1214 20.9407 29.6435C22.2425 30.4997 22.3277 31.198 22.4584 31.9359C22.5708 32.5708 22.731 33.2354 24.0783 34.1319C24.1537 34.1819 24.2048 34.261 24.2195 34.3502C24.362 35.2029 24.5645 35.4212 24.8495 35.6697C25.1492 35.9319 25.5151 36.2245 25.9443 37.0732C25.9741 37.0304 26.0036 36.9846 26.0317 36.9365C26.1264 36.7744 26.2103 36.5861 26.1913 36.3984C26.1759 36.2461 26.2682 36.1035 26.4137 36.0551C26.8156 35.9214 27.3188 35.8387 27.8276 35.8439V36.4965C27.4806 36.4916 27.1364 36.536 26.8369 36.6122C26.8055 36.842 26.7138 37.0676 26.5975 37.2661C26.379 37.6401 26.0855 37.9124 26.0855 37.9124C26.0075 37.985 25.8987 38.015 25.7946 37.9928C25.6901 37.9709 25.6029 37.8996 25.561 37.8019C25.1027 36.7351 24.7233 36.4285 24.4177 36.162C24.0636 35.8525 23.7838 35.5903 23.5981 34.5971C22.1056 33.5709 21.9431 32.7853 21.8131 32.0497C21.7027 31.4249 21.6254 30.8391 20.447 30.1042C20.3514 30.0443 20.2931 29.9397 20.2931 29.8269C20.2931 29.3529 20.0952 28.8341 19.8102 28.3224C19.5891 27.9249 19.3139 27.5332 19.0243 27.17L19.4898 26.7055Z" fill="#E8E8E8"/>
<path d="M35.1983 30.7207C35.517 30.7511 35.7476 30.6737 35.9524 30.6691C36.2826 30.6619 36.5863 30.7433 36.945 31.2801C36.981 31.334 37 31.3971 37 31.4615C37 32.0451 36.8821 32.3952 36.7651 32.6754C36.6377 32.9804 36.4962 33.1697 36.6557 33.6467C36.7012 33.7834 36.6518 33.9341 36.5335 34.0171C35.2176 34.9426 32.7915 35.7115 31.431 35.7115C31.1427 35.7115 30.9334 35.7642 30.7781 35.8626C30.5449 36.0104 30.442 36.2516 30.35 36.4939C30.2625 36.724 30.1891 36.9597 30.0859 37.1654C30.0339 37.2697 29.93 37.3383 29.8134 37.3455C29.6968 37.3527 29.5854 37.2974 29.5205 37.2007C29.303 36.8751 28.9502 36.6877 28.5587 36.588C28.22 36.5014 27.8515 36.4805 27.5 36.506V35.8524C27.9065 35.8273 28.3304 35.8547 28.7212 35.9544C29.0796 36.046 29.4101 36.1974 29.6817 36.4184C29.7292 36.2856 29.7774 36.1516 29.8367 36.0241C29.9588 35.7606 30.1223 35.5223 30.3729 35.3467C30.6186 35.1744 30.9518 35.0577 31.431 35.0577C32.628 35.0577 34.7141 34.4104 35.9652 33.6107C35.8633 33.1638 35.9557 32.9 36.0847 32.5996C36.1886 32.3576 36.3275 32.0837 36.3432 31.5616C36.2597 31.4478 36.1876 31.3785 36.1096 31.3448C36.0382 31.3141 35.9661 31.3203 35.8875 31.3278C35.7981 31.3367 35.7031 31.3517 35.5989 31.3628C35.4904 31.3745 35.3732 31.3826 35.2441 31.3785C35.229 31.378 35.2137 31.3774 35.1983 31.3765V30.7207Z" fill="#E8E8E8"/>
<path d="M23.7399 21.3125C26.0121 22.2989 27.0007 23.2845 27.9668 24.2709C28.9341 24.2928 29.436 24.5429 29.8576 24.7534C30.2009 24.9247 30.4745 25.0699 31.0238 24.9329C31.1218 24.9084 31.2256 24.9303 31.3049 24.9924C31.3845 25.0542 31.431 25.1493 31.431 25.25C31.431 26.3671 32.5602 26.9193 32.5602 26.9193C32.6713 26.9745 32.7414 27.0876 32.7414 27.2115C32.7414 27.816 32.8351 28.1894 32.9962 28.4597C33.1604 28.7357 33.3877 28.9037 33.6206 29.108C33.98 29.4232 34.3596 29.8004 34.6433 30.5704C34.9319 30.6962 35.1649 30.7296 35.3621 30.7279V31.3792C35.3238 31.38 35.2846 31.3798 35.2441 31.3785C34.9704 31.3694 34.6433 31.305 34.2329 31.1C34.1552 31.0614 34.0959 30.9934 34.0684 30.911C33.7674 30.009 33.3084 29.7135 32.9317 29.3751C32.4924 28.9805 32.1245 28.549 32.0891 27.3985C31.7386 27.1726 30.9786 26.5832 30.8096 25.6348C30.3991 25.6773 30.1076 25.5903 29.816 25.4592C29.3738 25.2605 28.9332 24.9231 27.8276 24.9231C27.7394 24.9231 27.6549 24.8878 27.5933 24.8247C26.672 23.8844 25.7696 22.9438 23.6836 22.0035C23.6643 21.9949 23.645 21.9862 23.6255 21.9775C23.5947 21.9638 23.5637 21.9501 23.5325 21.9363C23.5125 21.9275 23.4923 21.9188 23.4721 21.91C23.4634 21.9062 23.4548 21.9025 23.4461 21.8987L23.7399 21.3125Z" fill="#E8E8E8"/>
<path d="M19.1852 27.377C18.831 26.9098 18.4422 26.4805 18.0959 26.135C17.9963 26.0356 17.9714 25.8836 18.0347 25.7577L18.6898 24.45C18.7708 24.2885 18.9673 24.2231 19.1291 24.3039C19.2602 24.3689 19.367 24.4124 19.4564 24.435C19.5131 24.449 19.5524 24.4624 19.5832 24.4461C19.6212 24.4258 19.6385 24.383 19.6644 24.3398C19.7031 24.2754 19.7404 24.2029 19.7833 24.128C19.9153 23.8972 20.0896 23.6464 20.4261 23.4653L19.7034 22.5038C19.6448 22.426 19.6241 22.3263 19.6467 22.2315C19.6697 22.137 19.7332 22.0573 19.8207 22.0144C20.735 21.5656 21.7125 21.1886 22.8617 21.0043C22.9193 20.9948 22.9783 21.0013 23.0327 21.0222C23.4399 21.1808 23.8107 21.339 24.1507 21.4973L23.7121 22.0164C23.7026 22.0121 23.6931 22.0078 23.6836 22.0035C23.6643 21.9949 23.645 21.9862 23.6255 21.9775C23.5947 21.9638 23.5637 21.9501 23.5325 21.9363C23.5125 21.9275 23.4923 21.9188 23.4721 21.91C23.2835 21.8281 23.0857 21.7462 22.8777 21.6643C21.9834 21.8173 21.2001 22.0958 20.4677 22.4313L21.2103 23.4192C21.2761 23.5068 21.2935 23.6216 21.2568 23.7249C21.2201 23.8279 21.1343 23.906 21.0278 23.9325C20.5011 24.0639 20.3815 24.4059 20.2498 24.6357C20.1185 24.8652 19.9678 25.0244 19.7378 25.082C19.5963 25.1173 19.4053 25.1127 19.1377 25.0182L18.7249 25.8414C19.0155 26.1418 19.3247 26.4907 19.6172 26.8657L19.1852 27.377Z" fill="#E8E8E8"/>
<path d="M19.6172 26.8657C19.8994 27.2275 20.1653 27.6138 20.3828 28.0047C20.6904 28.5575 20.9001 29.1214 20.9407 29.6435C22.2425 30.4997 22.3277 31.198 22.4584 31.9359C22.5708 32.5708 22.731 33.2354 24.0783 34.1319C24.1537 34.1819 24.2048 34.261 24.2195 34.3502C24.362 35.2029 24.5645 35.4212 24.8495 35.6697C25.1492 35.9319 25.5151 36.2245 25.9443 37.0732C25.9741 37.0304 26.0036 36.9846 26.0317 36.9365C26.1264 36.7744 26.2103 36.5861 26.1913 36.3984C26.1759 36.2461 26.2682 36.1035 26.4137 36.0551C26.7289 35.9503 27.1064 35.8768 27.5 35.8524C27.9065 35.8273 28.3304 35.8547 28.7212 35.9544C29.0796 36.046 29.4101 36.1974 29.6817 36.4184C29.7292 36.2856 29.7774 36.1516 29.8367 36.0241C29.9588 35.7606 30.1223 35.5223 30.3729 35.3467C30.6186 35.1744 30.9518 35.0577 31.431 35.0577C32.628 35.0577 34.7141 34.4104 35.9652 33.6107C35.8633 33.1638 35.9557 32.9 36.0847 32.5996C36.1886 32.3576 36.3275 32.0837 36.3432 31.5616C36.2597 31.4478 36.1876 31.3785 36.1096 31.3448C36.0382 31.3141 35.9661 31.3203 35.8875 31.3278C35.7981 31.3367 35.7031 31.3517 35.5989 31.3628C35.5244 31.3709 35.4458 31.3773 35.3621 31.3792C35.3238 31.38 35.2846 31.3798 35.2441 31.3785C35.229 31.378 35.2137 31.3774 35.1983 31.3765C34.934 31.362 34.6206 31.2937 34.2329 31.1C34.1552 31.0614 34.0959 30.9934 34.0684 30.911C33.7674 30.009 33.3084 29.7135 32.9317 29.3751C32.4924 28.9805 32.1245 28.549 32.0891 27.3985C31.7386 27.1726 30.9786 26.5832 30.8096 25.6348C30.3991 25.6773 30.1076 25.5903 29.816 25.4592C29.3738 25.2605 28.9332 24.9231 27.8276 24.9231C27.7394 24.9231 27.6549 24.8878 27.5933 24.8247C26.672 23.8844 25.7696 22.9438 23.6836 22.0035C23.6643 21.9949 23.645 21.9862 23.6255 21.9775C23.5947 21.9638 23.5637 21.9501 23.5325 21.9363C23.5125 21.9275 23.4923 21.9188 23.4721 21.91C23.4634 21.9062 23.4548 21.9025 23.4461 21.8987C23.2653 21.8206 23.0762 21.7424 22.8777 21.6643C21.9834 21.8173 21.2001 22.0958 20.4677 22.4313L21.2103 23.4192C21.2761 23.5068 21.2935 23.6216 21.2568 23.7249C21.2201 23.8279 21.1343 23.906 21.0278 23.9325C20.5011 24.0639 20.3815 24.4059 20.2498 24.6357C20.1185 24.8652 19.9678 25.0244 19.7378 25.082C19.5963 25.1173 19.4053 25.1127 19.1377 25.0182L18.7249 25.8414C19.0155 26.1418 19.3247 26.4907 19.6172 26.8657Z" fill="#E8E8E8"/>
</svg>
