<svg width="60" height="60" viewBox="0 0 60 60" fill="none" xmlns="http://www.w3.org/2000/svg">
<path d="M30 55.125C42.9442 55.125 53.4375 44.6317 53.4375 31.6875C53.4375 18.7433 42.9442 8.25 30 8.25C17.0558 8.25 6.5625 18.7433 6.5625 31.6875C6.5625 44.6317 17.0558 55.125 30 55.125Z" fill="#F4F4F4"/>
<path d="M41.2506 31.6875C41.2529 29.4216 41.1101 27.1579 40.8231 24.9103C44.3772 24.2245 47.7549 22.8236 50.7512 20.7928C50.4575 20.2341 50.1419 19.6897 49.8044 19.1597C47.0271 21.0951 43.8739 22.4249 40.5494 23.0625C38.9734 13.7728 34.9 8.25 30.0006 8.25C25.1012 8.25 21.0278 13.7728 19.4519 23.0625C16.1276 22.4252 12.9744 21.0961 10.1969 19.1616C9.86 19.6922 9.54438 20.2362 9.25 20.7937C12.2462 22.8249 15.6239 24.2261 19.1781 24.9122C18.6081 29.4123 18.6081 33.9664 19.1781 38.4666C15.6239 39.1527 12.2462 40.5538 9.25 42.585C9.54438 43.1425 9.85969 43.6866 10.1959 44.2172C12.9735 42.2812 16.127 40.9509 19.4519 40.3125C21.0278 49.6022 25.1012 55.125 30.0006 55.125C34.9 55.125 38.9734 49.6031 40.5494 40.3125C43.8736 40.95 47.0269 42.2784 49.8053 44.2116C50.1409 43.6819 50.4616 43.1381 50.7512 42.5794C47.7546 40.5494 44.377 39.1489 40.8231 38.4628C41.11 36.2158 41.2528 33.9527 41.2506 31.6875ZM30.0006 10.125C33.8762 10.125 37.2916 15.1875 38.695 23.4375C35.8245 23.942 32.9151 24.193 30.0006 24.1875C27.0861 24.1935 24.1767 23.9425 21.3062 23.4375C22.7106 15.1875 26.125 10.125 30.0006 10.125ZM20.6256 31.6875C20.6247 29.547 20.7599 27.4086 21.0306 25.2853C23.992 25.8074 26.9936 26.0675 30.0006 26.0625C33.0077 26.0675 36.0093 25.8074 38.9706 25.2853C39.2413 27.4086 39.3766 29.547 39.3756 31.6875C39.3766 33.8283 39.2413 35.967 38.9706 38.0906C33.0356 37.0538 26.9657 37.0538 21.0306 38.0906C20.7599 35.967 20.6246 33.8283 20.6256 31.6875ZM30.0006 53.25C26.125 53.25 22.7097 48.1875 21.3062 39.9375C27.0592 38.9387 32.9411 38.9387 38.6941 39.9375C37.2906 48.1922 33.8762 53.25 30.0006 53.25Z" fill="#BFBFBF"/>
<path d="M5.65625 18.5703V9.42969L6.88672 7.67188H13.0391L15.5 8.02344L17.9609 7.67188H24.1133L25.3438 9.42969V18.5703L24.1133 20.3281H17.9609L15.5 19.9766L13.0391 20.3281H6.88672L5.65625 18.5703Z" fill="#0053B5"/>
<path d="M5.65625 11.8906H25.3438V16.1094H5.65625V11.8906Z" fill="white"/>
<path d="M5.65625 12.5938H25.3438V15.4062H5.65625V12.5938Z" fill="#D80027"/>
<path d="M13.0391 7.67188H17.9609V20.3281H13.0391V7.67188Z" fill="white"/>
<path d="M13.8594 7.67188H17.1406V20.3281H13.8594V7.67188Z" fill="#D80027"/>
<path d="M25.3438 7.67188H24.1133L17.9609 11.1875V12.2422L21.2422 11.8906L25.3438 9.42969V7.67188Z" fill="white"/>
<path d="M25.3438 7.67188L17.9609 11.8906H20.0117L25.3438 8.72656V7.67188Z" fill="#D80027"/>
<path d="M5.65625 7.67188H6.88672L13.0391 11.1875V12.2422L9.75781 11.8906L5.65625 9.42969V7.67188Z" fill="white"/>
<path d="M5.65625 7.67188L13.0391 11.8906H10.9883L5.65625 8.72656V7.67188Z" fill="#D80027"/>
<path d="M5.65625 20.3281H6.88672L13.0391 16.8125V15.7578L9.75781 16.1094L5.65625 18.5703V20.3281Z" fill="white"/>
<path d="M5.65625 20.3281L13.0391 16.1094H10.9883L5.65625 19.2734V20.3281Z" fill="#D80027"/>
<path d="M25.3438 20.3281H24.1133L17.9609 16.8125V15.7578L21.2422 16.1094L25.3438 18.5703V20.3281Z" fill="white"/>
<path d="M25.3438 20.3281L17.9609 16.1094H20.0117L25.3438 19.2734V20.3281Z" fill="#D80027"/>
<path d="M1 33H21V39.5H1V33Z" fill="#F0F0F0"/>
<path d="M21 46L1 46L1 39.5L21 39.5L21 46Z" fill="#D80027"/>
<path d="M37 38H57V44.5H37V38Z" fill="#2068C1"/>
<path d="M57 51L37 51L37 44.5L57 44.5L57 51Z" fill="#FBE41A"/>
</svg>
