<svg width="60" height="53" viewBox="0 0 60 53" fill="none" xmlns="http://www.w3.org/2000/svg">
<path d="M0 52.0185V0.981481C0 0.439941 0.433783 0 0.967742 0H59.0323C59.5662 0 60 0.439941 60 0.981481V52.0185C60 52.5601 59.5662 53 59.0323 53H0.967742C0.433783 53 0 52.5601 0 52.0185Z" fill="#F4F4F4"/>
<path d="M0 7.74193V0.967742C0 0.433783 0.433783 0 0.967742 0H59.0323C59.5662 0 60 0.433783 60 0.967742V7.74193H0Z" fill="#989898"/>
<g clip-path="url(#clip0_2126_11499)">
<path d="M39.6505 18.2554C40.3095 18.9144 41.378 18.9144 42.037 18.2554C42.696 17.5963 42.696 16.5279 42.037 15.8689C41.378 15.2098 40.3095 15.2098 39.6505 15.8689C38.9915 16.5279 38.9915 17.5963 39.6505 18.2554Z" fill="#EACB14" stroke="#EACB14"/>
<path d="M16.963 43.1311C17.622 43.7901 18.6905 43.7901 19.3495 43.1311C20.0085 42.4721 20.0085 41.4036 19.3495 40.7446C18.6905 40.0856 17.622 40.0856 16.963 40.7446C16.304 41.4036 16.304 42.4721 16.963 43.1311Z" fill="#EACB14" stroke="#EACB14"/>
<path d="M26.1836 45.9894C27.2557 46.2039 28.3647 46.3164 29.4999 46.3164C38.7874 46.3164 46.3163 38.7874 46.3163 29.5C46.3163 25.4457 44.8813 21.7267 42.4918 18.8225" stroke="#EACB14" stroke-miterlimit="10" stroke-linecap="round" stroke-linejoin="round"/>
<path d="M32.8482 13.017C31.7662 12.7984 30.6465 12.6836 29.5 12.6836C20.2126 12.6836 12.6836 20.2126 12.6836 29.5C12.6836 33.5544 14.1186 37.2734 16.5081 40.1775" stroke="#EACB14" stroke-miterlimit="10" stroke-linecap="round" stroke-linejoin="round"/>
<path d="M29.4992 34.4649C26.7572 34.4649 24.5343 32.2421 24.5343 29.5C24.5343 26.758 26.7572 24.5351 29.4992 24.5351C32.2412 24.5351 34.4642 26.758 34.4642 29.5C34.4642 32.2421 32.2412 34.4649 29.4992 34.4649ZM39.4 27.3567C39.1396 26.1446 38.6626 25.0129 38.011 24.0045L39.3207 22.6947L36.2973 19.6734L34.9885 20.9821C33.9802 20.3305 32.8485 19.8535 31.6364 19.5932V17.7422H27.362V19.5932C26.1499 19.8535 25.0183 20.3305 24.0099 20.9821L22.7011 19.6734L19.6777 22.6947L20.9874 24.0045C20.3358 25.0129 19.8588 26.1446 19.5984 27.3567H17.7426L17.7402 31.631H19.5983C19.8588 32.8432 20.3357 33.9749 20.9874 34.9833L19.6726 36.2981L22.6939 39.3216L24.0097 38.0057C25.0182 38.6574 26.1499 39.1344 27.362 39.3948V41.2578H31.6364V39.3948C32.8485 39.1344 33.9802 38.6574 34.9887 38.0057L36.3045 39.3216L39.3258 36.2981L38.011 34.9833C38.6627 33.9749 39.1397 32.8432 39.4001 31.631H41.2582V27.3567H39.4Z" fill="#EACB14"/>
</g>
<defs>
<clipPath id="clip0_2126_11499">
<rect width="35" height="35" fill="white" transform="translate(12 12)"/>
</clipPath>
</defs>
</svg>
