<svg width="71" height="70" fill="none" xmlns="http://www.w3.org/2000/svg"><path fill="#1D303A" d="M.255 0h70v70h-70z"/><g clip-path="url(#a)"><path d="M43.92 42.318c-1.75 1.591-4.134 2.546-6.678 2.546-5.722 0-9.856-4.137-9.856-9.864 0-5.727 4.134-9.704 9.857-9.704 2.543 0 4.928.795 6.676 2.386l1.272 1.114 5.405-5.41-1.43-1.272c-3.02-3.023-7.313-4.614-11.923-4.614-10.175 0-17.488 7.318-17.488 17.34 0 10.024 7.472 17.66 17.488 17.66 4.61 0 8.902-1.59 12.082-4.614l1.271-1.272-5.405-5.41-1.272 1.114Z" fill="#fff"/><path d="M36.925 40.886A5.884 5.884 0 0 0 42.806 35a5.884 5.884 0 0 0-5.883-5.887A5.884 5.884 0 0 0 31.044 35a5.884 5.884 0 0 0 5.882 5.886Z" fill="#DD5140"/></g><defs><clipPath id="a"><path fill="#fff" transform="translate(19.755 17.5)" d="M0 0h31v35H0z"/></clipPath></defs></svg>