<svg width="60" height="60" fill="none" xmlns="http://www.w3.org/2000/svg"><g clip-path="url(#a)"><path d="M57.097 54.194H2.903a.968.968 0 0 1-.967-.968V20.323c0-.534.433-.968.967-.968h54.194c.534 0 .968.434.968.968v32.903a.968.968 0 0 1-.968.968z" fill="#B8B8B8"/><path d="M5.806 23.226h48.388v26.129H5.806V23.226z" fill="#FDF8FF"/><path d="M58.695 58.065H1.305L0 56.432v-3.206h20.076l2.69.968h14.388l2.526-.968H60v3.629l-1.305 1.21z" fill="#989898"/><path d="M53.226 53.226h1.935v1.935h-1.935v-1.935zm-3.871 0h1.935v1.935h-1.935v-1.935zm-44.516 0h1.935v1.935H4.84v-1.935z" fill="#FDF8FF"/><path d="M46.129 14c.534 0 .968.434.968.968v21.29h-3.668l-3.08-4.839H20.968a.968.968 0 0 1-.968-.967V14.968c0-.534.434-.968.968-.968h25.161z" fill="#CBCBCB"/><path d="M23 17.871h1.936v1.936H23V17.87zM27 18h10v2H27v-2zm3.645 7.613h13.549v1.936H30.645v-1.936z" fill="#989898"/><path d="M40.323 21.742h3.87v1.935h-3.87v-1.935z" fill="#FBA287"/><path d="M23 21.742h15.484v1.935H23v-1.935z" fill="#989898"/><path d="M36.452 17.871h7.742v1.936h-7.742V17.87z" fill="#FBA287"/><path d="M22.903 25.613h1.936v1.936h-1.936v-1.936zm3.871 0h1.936v1.936h-1.936v-1.936z" fill="#989898"/><circle cx="45" cy="17" r="9" fill="#BE0000"/><path d="M46.077 12.18V21h-2.03v-6.3l-.91.63-.98-1.54 2.31-1.61h1.61z" fill="#fff"/></g><defs><clipPath id="a"><path fill="#fff" d="M0 0h60v60H0z"/></clipPath></defs></svg>