<svg width="60" height="60" fill="none" xmlns="http://www.w3.org/2000/svg"><g clip-path="url(#a)"><path d="M0 55.161V4.84c0-.534.434-.968.968-.968h58.064c.534 0 .968.434.968.968v50.32a.968.968 0 0 1-.968.968H.968A.968.968 0 0 1 0 55.161z" fill="#F4F4F4"/><path d="M0 11.613V4.839c0-.534.434-.968.968-.968h58.064c.534 0 .968.434.968.968v6.774H0z" fill="#989898"/><path d="M49.355 6.774h5.806V8.71h-5.806V6.774zm-44.516 0h1.935V8.71H4.84V6.774zm3.871 0h1.935V8.71H8.709V6.774zm3.87 0h1.936V8.71h-1.935V6.774z" fill="#FBF2FF"/><path d="M28.8 23h2.4L36 33.5 33.6 44h-7.2L24 33.5 28.8 23z" fill="#CECECE"/><path d="M32 32h-4v2.4h1V44h2v-9.6h1V32z" fill="#fff"/><path d="M24 44h12v4H24v-4z" fill="#BE0000"/><path d="M26 48h8v13h-8V48z" fill="#CECECE"/><path d="M45.75 39.322V21.677A3.435 3.435 0 0 0 48 18.444C48 16.546 46.486 15 44.625 15c-1.465 0-2.702.963-3.168 2.296H18.543C18.077 15.963 16.84 15 15.375 15 13.515 15 12 16.546 12 18.444c0 1.495.944 2.758 2.25 3.233v17.646A3.435 3.435 0 0 0 12 42.556C12 44.454 13.514 46 15.375 46c1.465 0 2.702-.963 3.168-2.296H21v-2.296h-2.457a3.404 3.404 0 0 0-2.043-2.085V21.677a3.404 3.404 0 0 0 2.043-2.085h22.915a3.404 3.404 0 0 0 2.043 2.085v17.646a3.404 3.404 0 0 0-2.043 2.085H39v2.296h2.457C41.923 45.037 43.16 46 44.625 46 46.485 46 48 44.454 48 42.556a3.436 3.436 0 0 0-2.25-3.234zm-1.125-22.026c.62 0 1.125.516 1.125 1.148 0 .633-.505 1.148-1.125 1.148s-1.125-.515-1.125-1.148c0-.632.505-1.148 1.125-1.148zm-29.25 26.407c-.62 0-1.125-.516-1.125-1.148 0-.633.505-1.148 1.125-1.148s1.125.515 1.125 1.148c0 .632-.505 1.148-1.125 1.148zm0-24.11c-.62 0-1.125-.516-1.125-1.149 0-.632.505-1.148 1.125-1.148s1.125.516 1.125 1.148c0 .633-.505 1.148-1.125 1.148zm29.25 24.11c-.62 0-1.125-.516-1.125-1.148 0-.633.505-1.148 1.125-1.148s1.125.515 1.125 1.148c0 .632-.505 1.148-1.125 1.148z" fill="#3231AA"/></g><defs><clipPath id="a"><path fill="#fff" d="M0 0h60v60H0z"/></clipPath></defs></svg>