<svg width="1070" height="220" viewBox="0 0 107 22" xmlns="http://www.w3.org/2000/svg"><g id="Personal" stroke="none" stroke-width="1" fill="none" fill-rule="evenodd"><g id="Site_Personal-Copy" transform="translate(-60 -12)" fill="#7AB72B"><g id="Header"><g id="logo_liqpay" transform="translate(60 12)"><path id="Shape" d="m86.955 1.773 7.395 8.567-7.395 8.57 2.051 1.77 8.924-10.34L89.006 0z"/><path d="m95.95 1.773 7.395 8.567-7.396 8.57L98 20.68l8.924-10.34L98 0zM9.246 18.27c0 .183-.01.337-.028.46-.018.124-.048.23-.09.316a.47.47 0 0 1-.15.193.364.364 0 0 1-.214.062H.895a.975.975 0 0 1-.598-.213c-.189-.142-.283-.392-.283-.749V1.883a.34.34 0 0 1 .055-.192.368.368 0 0 1 .193-.131c.092-.032.215-.06.371-.082.156-.023.344-.035.564-.035.23 0 .42.012.571.035.152.023.273.05.365.082a.369.369 0 0 1 .193.13.34.34 0 0 1 .055.193v15.371h6.383c.083 0 .154.02.213.062.06.041.11.1.152.178a.95.95 0 0 1 .09.31c.018.128.027.283.027.466zm4.98.673a.338.338 0 0 1-.055.193.37.37 0 0 1-.193.13c-.092.033-.213.06-.365.083a3.988 3.988 0 0 1-.57.034c-.22 0-.41-.012-.565-.034a2.115 2.115 0 0 1-.371-.083.368.368 0 0 1-.193-.13.336.336 0 0 1-.055-.193V1.883a.31.31 0 0 1 .062-.192.414.414 0 0 1 .206-.131c.097-.032.22-.06.372-.082.151-.023.332-.035.543-.035.23 0 .42.012.571.035.152.023.273.05.365.082a.369.369 0 0 1 .193.13.34.34 0 0 1 .055.193v17.06zm21.834 1.923c0 .21-.012.387-.035.529a.973.973 0 0 1-.103.33.39.39 0 0 1-.152.158.37.37 0 0 1-.165.041c-.183 0-.479-.076-.887-.226a11.094 11.094 0 0 1-1.41-.66c-.532-.288-1.1-.638-1.706-1.05a13.332 13.332 0 0 1-1.76-1.443c-.45.275-1.019.513-1.707.714-.688.202-1.486.303-2.394.303-1.34 0-2.497-.198-3.474-.591-.976-.394-1.784-.97-2.42-1.731-.639-.76-1.113-1.705-1.425-2.836-.312-1.131-.468-2.43-.468-3.895 0-1.41.17-2.685.51-3.825.339-1.14.848-2.11 1.527-2.912a6.76 6.76 0 0 1 2.545-1.855c1.018-.435 2.205-.652 3.563-.652 1.274 0 2.396.197 3.364.59.967.394 1.779.97 2.435 1.724.655.756 1.148 1.688 1.479 2.796.33 1.108.495 2.38.495 3.818 0 .742-.044 1.452-.131 2.13a11.36 11.36 0 0 1-.412 1.923 8.938 8.938 0 0 1-.709 1.676c-.284.513-.62.975-1.004 1.387.669.55 1.256.978 1.76 1.284.505.307.922.539 1.252.694.33.156.587.268.77.336.184.07.322.147.414.234.091.087.156.21.192.37.037.16.055.374.055.64zm-4.678-10.508c0-1.007-.09-1.941-.269-2.802-.178-.861-.477-1.61-.894-2.246a4.313 4.313 0 0 0-1.671-1.49c-.697-.358-1.56-.536-2.587-.536-1.027 0-1.89.19-2.586.57a4.774 4.774 0 0 0-1.7 1.539c-.435.645-.747 1.394-.935 2.246a12.531 12.531 0 0 0-.282 2.706c0 1.044.087 2.003.261 2.878.174.874.468 1.632.88 2.273a4.197 4.197 0 0 0 1.658 1.49c.693.353 1.562.53 2.607.53 1.037 0 1.908-.193 2.614-.577a4.697 4.697 0 0 0 1.706-1.56c.431-.654.738-1.415.922-2.28.184-.866.276-1.78.276-2.74zm17.472-3.626c0 .888-.147 1.69-.44 2.404a5.074 5.074 0 0 1-1.259 1.827c-.546.503-1.216.892-2.009 1.167-.793.275-1.74.412-2.84.412h-2.023v6.401c0 .074-.02.138-.062.193a.411.411 0 0 1-.193.13 1.9 1.9 0 0 1-.357.083 3.988 3.988 0 0 1-.571.034c-.23 0-.42-.012-.571-.034a2.122 2.122 0 0 1-.365-.083.368.368 0 0 1-.192-.13.336.336 0 0 1-.056-.193V2.542c0-.366.097-.627.29-.783a.998.998 0 0 1 .646-.234h3.81c.386 0 .755.016 1.108.049.353.032.77.1 1.252.206.481.105.972.302 1.472.59.5.289.924.644 1.273 1.065.348.421.617.909.805 1.463.188.554.282 1.166.282 1.834zm-2.49.192c0-.723-.136-1.328-.406-1.814-.27-.485-.606-.846-1.005-1.085a3.382 3.382 0 0 0-1.238-.453 8.408 8.408 0 0 0-1.245-.096h-2.187v7.13h2.132c.716 0 1.31-.092 1.782-.275a3.337 3.337 0 0 0 1.19-.763c.321-.325.564-.714.73-1.167a4.29 4.29 0 0 0 .247-1.477zm19.439 11.539c.073.202.112.364.117.488.004.123-.03.217-.103.281-.074.064-.195.105-.365.124a6.67 6.67 0 0 1-.68.028c-.285 0-.512-.007-.682-.02a1.539 1.539 0 0 1-.385-.07.407.407 0 0 1-.193-.13 1.06 1.06 0 0 1-.116-.206l-1.528-4.327h-7.401l-1.459 4.272a.713.713 0 0 1-.11.213.532.532 0 0 1-.2.151 1.26 1.26 0 0 1-.37.09c-.161.017-.37.027-.627.027a5.13 5.13 0 0 1-.653-.034c-.17-.023-.289-.067-.358-.13-.068-.065-.1-.159-.096-.282a1.72 1.72 0 0 1 .117-.488l5.97-16.511a.722.722 0 0 1 .145-.248.595.595 0 0 1 .261-.15 1.98 1.98 0 0 1 .44-.076c.18-.014.407-.021.682-.021.293 0 .536.007.729.02.193.014.349.04.468.076a.63.63 0 0 1 .275.158.743.743 0 0 1 .151.254l5.97 16.51zM58.14 3.888h-.014l-3.068 8.86h6.191l-3.11-8.86zm16.302 8.503v6.552a.338.338 0 0 1-.054.192.367.367 0 0 1-.192.131c-.091.032-.214.06-.37.082a3.973 3.973 0 0 1-.56.035c-.228 0-.417-.012-.568-.035a2.306 2.306 0 0 1-.37-.082.369.369 0 0 1-.198-.13.338.338 0 0 1-.054-.193v-6.552L67.04 2.363a2.189 2.189 0 0 1-.186-.494c-.023-.12 0-.21.069-.275.068-.064.192-.105.371-.123.18-.019.42-.028.722-.028.275 0 .498.01.668.028.17.018.305.043.406.075.1.033.176.078.226.138.051.06.099.135.145.226l2.462 5.11c.229.486.457.994.685 1.525.228.531.46 1.067.698 1.607h.027c.21-.522.426-1.041.65-1.56.223-.516.45-1.027.678-1.53l2.477-5.138a.701.701 0 0 1 .117-.233.456.456 0 0 1 .206-.145c.087-.032.208-.057.364-.075.156-.019.354-.028.592-.028.33 0 .59.012.777.034.188.023.319.067.393.13.073.065.098.157.075.276a2.043 2.043 0 0 1-.185.48l-5.036 10.028z"/></g></g></g></g><style xmlns="http://www.w3.org/1999/xhtml"><![CDATA[.firebugBlockBackgroundColor{background-color:transparent!important}.firebugResetStyles:after,.firebugResetStyles:before{content:""!important}.firebugCanvas{display:none!important}.firebugLayoutBox{width:auto!important;position:static!important}.firebugLayoutBoxOffset{opacity:.8!important;position:fixed!important}.firebugLayoutLine{opacity:.4!important;background-color:#000!important}.firebugLayoutLineLeft,.firebugLayoutLineRight{width:1px!important;height:100%!important}.firebugLayoutLineBottom,.firebugLayoutLineTop{width:100%!important;height:1px!important}.firebugLayoutLineTop{margin-top:-1px!important;border-top:1px solid #999!important}.firebugLayoutLineRight{border-right:1px solid #999!important}.firebugLayoutLineBottom{border-bottom:1px solid #999!important}.firebugLayoutLineLeft{margin-left:-1px!important;border-left:1px solid #999!important}.firebugLayoutBoxParent{border-top:0 none!important;border-right:1px dashed #e00!important;border-bottom:1px dashed #e00!important;border-left:0 none!important;position:fixed!important;width:auto!important}.firebugRuler{position:absolute!important}.firebugRulerH{top:-15px!important;left:0!important;width:100%!important;height:14px!important;background:url("data:image/png,%89PNG%0D%0A%1A%0A%00%00%00%0DIHDR%00%00%13%88%00%00%00%0E%08%02%00%00%00L%25a%0A%00%00%00%04gAMA%00%00%D6%D8%D4OX2%00%00%00%19tEXtSoftware%00Adobe%20ImageReadyq%C9e%3C%00%00%04%F8IDATx%DA%EC%DD%D1n%E2%3A%00E%D1%80%F8%FF%EF%E2%AF2%95%D0D4%0E%C1%14%B0%8Fa-%E9%3E%CC%9C%87n%B9%81%A6W0%1C%A6i%9A%E7y%0As8%1CT%A9R%A5J%95*U%AAT%A9R%A5J%95*U%AAT%A9R%A5J%95*U%AAT%A9R%A5J%95*U%AAT%A9R%A5J%95*U%AAT%A9R%A5J%95*U%AAT%A9R%A5J%95*U%AATE9%FE%FCw%3E%9F%AF%2B%2F%BA%97%FDT%1D~K(%5C%9D%D5%EA%1B%5C%86%B5%A9%BDU%B5y%80%ED%AB*%03%FAV9%AB%E1%CEj%E7%82%EF%FB%18%BC%AEJ8%AB%FA'%D2%BEU9%D7U%ECc0%E1%A2r%5DynwVi%CFW%7F%BB%17%7Dy%EACU%CD%0E%F0%FA%3BX%FEbV%FEM%9B%2B%AD%BE%AA%E5%95v%AB%AA%E3E5%DCu%15rV9%07%B5%7F%B5w%FCm%BA%BE%AA%FBY%3D%14%F0%EE%C7%60%0EU%AAT%A9R%A5J%95*U%AAT%A9R%A5J%95*U%AAT%A9R%A5J%95*U%AAT%A9R%A5J%95*U%AAT%A9R%A5JU%88%D3%F5%1F%AE%DF%3B%1B%F2%3E%DAUCNa%F92%D02%AC%7Dm%F9%3A%D4%F2%8B6%AE*%BF%5C%C2Ym~9g5%D0Y%95%17%7C%C8c%B0%7C%18%26%9CU%CD%13i%F7%AA%90%B3Z%7D%95%B4%C7%60%E6E%B5%BC%05%B4%FBY%95U%9E%DB%FD%1C%FC%E0%9F%83%7F%BE%17%7DkjMU%E3%03%AC%7CWj%DF%83%9An%BCG%AE%F1%95%96yQ%0Dq%5Dy%00%3Et%B5'%FC6%5DS%95pV%95%01%81%FF'%07%00%00%00%00%00%00%00%00%00%F8x%C7%F0%BE%9COp%5D%C9%7C%AD%E7%E6%EBV%FB%1E%E0(%07%E5%AC%C6%3A%ABi%9C%8F%C6%0E9%AB%C0'%D2%8E%9F%F99%D0E%B5%99%14%F5%0D%CD%7F%24%C6%DEH%B8%E9rV%DFs%DB%D0%F7%00k%FE%1D%84%84%83J%B8%E3%BA%FB%EF%20%84%1C%D7%AD%B0%8E%D7U%C8Y%05%1E%D4t%EF%AD%95Q%BF8w%BF%E9%0A%BF%EB%03%00%00%00%00%00%00%00%00%00%B8vJ%8E%BB%F5%B1u%8Cx%80%E1o%5E%CA9%AB%CB%CB%8E%03%DF%1D%B7T%25%9C%D5(%EFJM8%AB%CC'%D2%B2*%A4s%E7c6%FB%3E%FA%A2%1E%80~%0E%3E%DA%10x%5D%95Uig%15u%15%ED%7C%14%B6%87%A1%3B%FCo8%A8%D8o%D3%ADO%01%EDx%83%1A~%1B%9FpP%A3%DC%C6'%9C%95gK%00%00%00%00%00%00%00%00%00%20%D9%C9%11%D0%C0%40%AF%3F%EE%EE%92%94%D6%16X%B5%BCMH%15%2F%BF%D4%A7%C87%F1%8E%F2%81%AE%AAvzr%DA2%ABV%17%7C%E63%83%E7I%DC%C6%0Bs%1B%EF6%1E%00%00%00%00%00%00%00%00%00%80cr%9CW%FF%7F%C6%01%0E%F1%CE%A5%84%B3%CA%BC%E0%CB%AA%84%CE%F9%BF)%EC%13%08WU%AE%AB%B1%AE%2BO%EC%8E%CBYe%FE%8CN%ABr%5Dy%60~%CFA%0D%F4%AE%D4%BE%C75%CA%EDVB%EA(%B7%F1%09g%E5%D9%12%00%00%00%00%00%00%00%00%00H%F6%EB%13S%E7y%5E%5E%FB%98%F0%22%D1%B2'%A7%F0%92%B1%BC%24z3%AC%7Dm%60%D5%92%B4%7CEUO%5E%F0%AA*%3BU%B9%AE%3E%A0j%94%07%A0%C7%A0%AB%FD%B5%3F%A0%F7%03T%3Dy%D7%F7%D6%D4%C0%AAU%D2%E6%DFt%3F%A8%CC%AA%F2%86%B9%D7%F5%1F%18%E6%01%F8%CC%D5%9E%F0%F3z%88%AA%90%EF%20%00%00%00%00%00%00%00%00%00%C0%A6%D3%EA%CFi%AFb%2C%7BB%0A%2B%C3%1A%D7%06V%D5%07%A8r%5D%3D%D9%A6%CAu%F5%25%CF%A2%99%97zNX%60%95%AB%5DUZ%D5%FBR%03%AB%1C%D4k%9F%3F%BB%5C%FF%81a%AE%AB'%7F%F3%EA%FE%F3z%94%AA%D8%DF%5B%01%00%00%00%00%00%00%00%00%00%8E%FB%F3%F2%B1%1B%8DWU%AAT%A9R%A5J%95*U%AAT%A9R%A5J%95*U%AAT%A9R%A5J%95*U%AAT%A9R%A5J%95*U%AAT%A9R%A5J%95*U%AAT%A9R%A5J%95*U%AAT%A9R%A5J%95*UiU%C7%BBe%E7%F3%B9%CB%AAJ%95*U%AAT%A9R%A5J%95*U%AAT%A9R%A5J%95*U%AAT%A9R%A5J%95*U%AAT%A9R%A5J%95*U%AAT%A9R%A5J%95*U%AAT%A9R%A5J%95*U%AAT%A9R%A5*%AAj%FD%C6%D4%5Eo%90%B5Z%ADV%AB%D5j%B5Z%ADV%AB%D5j%B5Z%ADV%AB%D5j%B5Z%ADV%AB%D5j%B5Z%ADV%AB%D5j%B5Z%ADV%AB%D5j%B5Z%ADV%AB%D5j%B5%86%AF%1B%9F%98%DA%EBm%BBV%AB%D5j%B5Z%ADV%AB%D5j%B5Z%ADV%AB%D5j%B5Z%ADV%AB%D5j%B5Z%ADV%AB%D5j%B5Z%ADV%AB%D5j%B5Z%ADV%AB%D5j%B5Z%AD%D6%E4%F58%01%00%00%00%00%00%00%00%00%00%00%00%00%00%40%85%7F%02%0C%008%C2%D0H%16j%8FX%00%00%00%00IEND%AEB%60%82") repeat-x!important;border-top:1px solid #bbb!important;border-right:1px dashed #bbb!important;border-bottom:1px solid #000!important}.firebugRulerV{left:-15px!important;width:14px!important;height:100%!important;background:url("data:image/png,%89PNG%0D%0A%1A%0A%00%00%00%0DIHDR%00%00%00%0E%00%00%13%88%08%02%00%00%00%0E%F5%CB%10%00%00%00%04gAMA%00%00%D6%D8%D4OX2%00%00%00%19tEXtSoftware%00Adobe%20ImageReadyq%C9e%3C%00%00%06~IDATx%DA%EC%DD%D1v%A20%14%40Qt%F1%FF%FF%E4%97%D9%07%3BT%19%92%DC%40(%90%EEy%9A5%CB%B6%E8%F6%9Ac%A4%CC0%84%FF%DC%9E%CF%E7%E3%F1%88%DE4%F8%5D%C7%9F%2F%BA%DD%5E%7FI%7D%F18%DDn%BA%C5%FB%DF%97%BFk%F2%10%FF%FD%B4%F2M%A7%FB%FD%FD%B3%22%07p%8F%3F%AE%E3%F4S%8A%8F%40%EEq%9D%BE8D%F0%0EY%A1Uq%B7%EA%1F%81%88V%E8X%3F%B4%CEy%B7h%D1%A2E%EBohU%FC%D9%AF2fO%8BBeD%BE%F7X%0C%97%A4%D6b7%2Ck%A5%12%E3%9B%60v%B7r%C7%1AI%8C%BD%2B%23r%00c0%B2v%9B%AD%CA%26%0C%1Ek%05A%FD%93%D0%2B%A1u%8B%16-%95q%5Ce%DCSO%8E%E4M%23%8B%F7%C2%FE%40%BB%BD%8C%FC%8A%B5V%EBu%40%F9%3B%A72%FA%AE%8C%D4%01%CC%B5%DA%13%9CB%AB%E2I%18%24%B0n%A9%0CZ*Ce%9C%A22%8E%D8NJ%1E%EB%FF%8F%AE%CAP%19*%C3%BAEKe%AC%D1%AAX%8C*%DEH%8F%C5W%A1e%AD%D4%B7%5C%5B%19%C5%DB%0D%EF%9F%19%1D%7B%5E%86%BD%0C%95%A12%AC%5B*%83%96%CAP%19%F62T%86%CAP%19*%83%96%CA%B8Xe%BC%FE)T%19%A1%17xg%7F%DA%CBP%19*%C3%BA%A52T%86%CAP%19%F62T%86%CA%B0n%A9%0CZ%1DV%C6%3D%F3%FCH%DE%B4%B8~%7F%5CZc%F1%D6%1F%AF%84%F9%0F6%E6%EBVt9%0E~%BEr%AF%23%B0%97%A12T%86%CAP%19%B4T%86%CA%B8Re%D8%CBP%19*%C3%BA%A52huX%19%AE%CA%E5%BC%0C%7B%19*CeX%B7h%A9%0C%95%E1%BC%0C%7B%19*CeX%B7T%06%AD%CB%5E%95%2B%BF.%8F%C5%97%D5%E4%7B%EE%82%D6%FB%CF-%9C%FD%B9%CF%3By%7B%19%F62T%86%CA%B0n%D1R%19*%A3%D3%CA%B0%97%A12T%86uKe%D0%EA%B02*%3F1%99%5DB%2B%A4%B5%F8%3A%7C%BA%2B%8Co%7D%5C%EDe%A8%0C%95a%DDR%19%B4T%C66%82fA%B2%ED%DA%9FC%FC%17GZ%06%C9%E1%B3%E5%2C%1A%9FoiB%EB%96%CA%A0%D5qe4%7B%7D%FD%85%F7%5B%ED_%E0s%07%F0k%951%ECr%0D%B5C%D7-g%D1%A8%0C%EB%96%CA%A0%A52T%C6)*%C3%5E%86%CAP%19%D6-%95A%EB*%95q%F8%BB%E3%F9%AB%F6%E21%ACZ%B7%22%B7%9B%3F%02%85%CB%A2%5B%B7%BA%5E%B7%9C%97%E1%BC%0C%EB%16-%95%A12z%AC%0C%BFc%A22T%86uKe%D0%EA%B02V%DD%AD%8A%2B%8CWhe%5E%AF%CF%F5%3B%26%CE%CBh%5C%19%CE%CB%B0%F3%A4%095%A1%CAP%19*Ce%A8%0C%3BO*Ce%A8%0C%95%A12%3A%AD%8C%0A%82%7B%F0v%1F%2FD%A9%5B%9F%EE%EA%26%AF%03%CA%DF9%7B%19*Ce%A8%0C%95%A12T%86%CA%B8Ze%D8%CBP%19*Ce%A8%0C%95%D1ae%EC%F7%89I%E1%B4%D7M%D7P%8BjU%5C%BB%3E%F2%20%D8%CBP%19*Ce%A8%0C%95%A12T%C6%D5*%C3%5E%86%CAP%19*Ce%B4O%07%7B%F0W%7Bw%1C%7C%1A%8C%B3%3B%D1%EE%AA%5C%D6-%EBV%83%80%5E%D0%CA%10%5CU%2BD%E07YU%86%CAP%19*%E3%9A%95%91%D9%A0%C8%AD%5B%EDv%9E%82%FFKOee%E4%8FUe%A8%0C%95%A12T%C6%1F%A9%8C%C8%3D%5B%A5%15%FD%14%22r%E7B%9F%17l%F8%BF%ED%EAf%2B%7F%CF%ECe%D8%CBP%19*Ce%A8%0C%95%E1%93~%7B%19%F62T%86%CAP%19*Ce%A8%0C%E7%13%DA%CBP%19*Ce%A8%0CZf%8B%16-Z%B4h%D1R%19f%8B%16-Z%B4h%D1R%19%B4%CC%16-Z%B4h%D1R%19%B4%CC%16-Z%B4h%D1%A2%A52%CC%16-Z%B4h%D1%A2%A52h%99-Z%B4h%D1%A2%A52h%99-Z%B4h%D1%A2EKe%98-Z%B4h%D1%A2EKe%D02%5B%B4h%D1%A2EKe%D02%5B%B4h%D1%A2E%8B%96%CA0%5B%B4h%D1%A2E%8B%96%CA%A0e%B6h%D1%A2E%8B%96%CA%A0e%B6h%D1%A2E%8B%16-%95a%B6h%D1%A2E%8B%16-%95A%CBl%D1%A2E%8B%16-%95A%CBl%D1%A2E%8B%16-Z*%C3l%D1%A2E%8B%16-Z*%83%96%D9%A2E%8B%16-Z*%83%96%D9%A2E%8B%16-Z%B4T%86%D9%A2E%8B%16-Z%B4T%06-%B3E%8B%16-Z%B4T%06-%B3E%8B%16-Z%B4h%A9%0C%B3E%8B%16-Z%B4h%A9%0CZf%8B%16-Z%B4h%A9%0CZf%8B%16-Z%B4h%D1R%19f%8B%16-Z%B4h%D1R%19%B4%CC%16-Z%B4h%D1R%19%B4%CC%16-Z%B4h%D1%A2%A52%CC%16-Z%B4h%D1%A2%A52h%99-Z%B4h%D1%A2%A52h%99-Z%B4h%D1%A2EKe%98-Z%B4h%D1%A2EKe%D02%5B%B4h%D1%A2EKe%D02%5B%B4h%D1%A2E%8B%96%CA0%5B%B4h%D1%A2E%8B%96%CA%A0e%B6h%D1%A2E%8B%96%CA%A0e%B6h%D1%A2E%8B%16-%95a%B6h%D1%A2E%8B%16-%95A%CBl%D1%A2E%8B%16-%95A%CBl%D1%A2E%8B%16-Z*%C3l%D1%A2E%8B%16-Z*%83%96%D9%A2E%8B%16-Z*%83%96%D9%A2E%8B%16-Z%B4T%86%D9%A2E%8B%16-Z%B4T%06-%B3E%8B%16-Z%B4T%06-%B3E%8B%16-Z%B4h%A9%0C%B3E%8B%16-Z%B4h%A9%0CZf%8B%16-Z%B4h%A9%0CZf%8B%16-Z%B4h%D1R%19f%8B%16-Z%B4h%D1R%19%B4%CC%16-Z%B4h%D1R%19%B4%CC%16-Z%B4h%D1%A2%A52%CC%16-Z%B4h%D1%A2%A52h%99-Z%B4h%D1%A2%A52h%99-Z%B4h%D1%A2EKe%98-Z%B4h%D1%A2EKe%D02%5B%B4h%D1%A2EKe%D02%5B%B4h%D1%A2E%8B%96%CA0%5B%B4h%D1%A2E%8B%96%CA%A0e%B6h%D1%A2E%8B%96%CA%A0e%B6h%D1%A2E%8B%16-%95a%B6h%D1%A2E%8B%16-%95A%CBl%D1%A2E%8B%16-%95A%CBl%D1%A2E%8B%16-Z*%C3l%D1%A2E%8B%16-Z*%83%96%D9%A2E%8B%16-Z*%83%96%D9%A2E%8B%16-Z%B4T%86%D9%A2E%8B%16-Z%B4T%06-%B3E%8B%16-Z%B4%AE%A4%F5%25%C0%00%DE%BF%5C'%0F%DA%B8q%00%00%00%00IEND%AEB%60%82") repeat-y!important;border-left:1px solid #bbb!important;border-right:1px solid #000!important;border-bottom:1px dashed #bbb!important}.overflowRulerX>.firebugRulerV{left:0!important}.firebugRulerV,.overflowRulerY>.firebugRulerH{top:0!important}.fbProxyElement{position:fixed!important;pointer-events:auto!important}]]></style></svg>