<svg width="65" height="63" fill="none" xmlns="http://www.w3.org/2000/svg"><path d="M35 57.862c14.283 0 25.862-11.579 25.862-25.862C60.862 17.716 49.283 6.138 35 6.138 20.717 6.138 9.138 17.717 9.138 32c0 14.283 11.579 25.862 25.862 25.862z" fill="#DCDCDC"/><path d="M60.769 29.93h-12.57a3.6 3.6 0 0 1-3.6-3.62 3.62 3.62 0 0 0-3.6-3.62h-1.2a3.62 3.62 0 1 1 0-7.242h6a3.6 3.6 0 0 0 3.6-3.62c.001-.402.068-.8.197-1.18A25.79 25.79 0 0 1 60.77 29.93zm-.683 8.34A25.862 25.862 0 0 1 36.16 57.861V56.31a3.6 3.6 0 0 0-3.6-3.62h-1.2a3.62 3.62 0 0 1-2.566-6.207 3.569 3.569 0 0 1 2.545-1.035h6a3.538 3.538 0 0 0 2.834-1.365l2.514-5.338a3.496 3.496 0 0 1 1.873-.538c16.882 0 15.155 0 15.527.062zM33.8 36.655a3.6 3.6 0 0 1-3.6 3.62H10.545a25.862 25.862 0 0 1 4.396-24.537l11.783.745 2.069 7.241c-2.4 2.431-1.417 2.069-8.193 2.069a3.62 3.62 0 1 0 0 7.241h9.6a3.6 3.6 0 0 1 3.6 3.621z" fill="#8C8C8C"/><path d="M28 4.666H0v18.667h28V4.666z" fill="#F0F0F0"/><path d="M28 7H0v2.333h28V7zm0 4.666H0V14h28v-2.333zm0 4.667H0v2.333h28v-2.333zM28 21H0v2.333h28V21z" fill="#D80027"/><path d="M14 4.666H0v10.052h14V4.666z" fill="#2E52B2"/><path d="m5.459 8.784-.226.694h-.729l.59.428-.225.694.59-.429.59.429-.226-.694.59-.428h-.729l-.225-.694zm.225 3.197-.225-.694-.226.694h-.729l.59.428-.225.694.59-.428.59.428-.226-.694.59-.428h-.729zm-3.082 0-.225-.694-.226.694h-.73l.591.428-.225.694.59-.428.59.428-.226-.694.59-.428h-.73zm-.225-3.197-.226.694h-.73l.591.428-.225.694.59-.429.59.429-.226-.694.59-.428h-.73l-.224-.694zM5.459 6.28l-.226.695h-.729l.59.428-.225.694.59-.429.59.429-.226-.694.59-.428h-.729l-.225-.694zm-3.082 0-.226.695h-.73l.591.428-.225.694.59-.429.59.429-.226-.694.59-.428h-.73l-.224-.694zm6.164 2.504-.225.694h-.73l.59.428-.225.694.59-.429.59.429-.225-.694.59-.428h-.73l-.225-.694zm.225 3.197-.225-.694-.225.694h-.73l.59.428-.225.694.59-.428.59.428-.225-.694.59-.428h-.73zm3.083 0-.226-.694-.225.694h-.73l.59.428-.225.694.59-.428.59.428-.225-.694.59-.428h-.73zm-.226-3.197-.225.694h-.73l.59.428-.225.694.59-.429.59.429-.225-.694.59-.428h-.73l-.225-.694zM8.541 6.28l-.225.695h-.73l.59.428-.225.694.59-.429.59.429-.225-.694.59-.428h-.73l-.225-.694zm3.082 0-.225.695h-.73l.59.428-.225.694.59-.429.59.429-.225-.694.59-.428h-.73l-.225-.694z" fill="#F0F0F0"/><path d="M40 45h25v9H40v-9z" fill="#2068C1"/><path d="M65 63H40v-9h25v9z" fill="#FBE41A"/></svg>