<svg width="71" height="70" fill="none" xmlns="http://www.w3.org/2000/svg"><path fill="#EE752D" d="M.628 0h70v70h-70z"/><path d="M26.095 24.623v18.754H22.97l-8.335-12.205v12.205h-3.572V24.623h3.125l8.335 12.205V24.623h3.572Zm9.816 15.33c.735 0 1.44-.158 2.114-.476a5.9 5.9 0 0 0 1.816-1.28 5.751 5.751 0 0 0 1.25-1.875A5.788 5.788 0 0 0 41.567 34a5.58 5.58 0 0 0-.476-2.292 5.676 5.676 0 0 0-1.25-1.905 5.899 5.899 0 0 0-1.816-1.28 4.906 4.906 0 0 0-2.114-.476h-2.38v11.907h2.38Zm-5.953 3.424V24.623h5.953c1.23 0 2.402.258 3.513.774a9.752 9.752 0 0 1 2.947 2.025 9.646 9.646 0 0 1 2.024 2.976A8.868 8.868 0 0 1 45.14 34c0 1.27-.248 2.47-.744 3.602a9.647 9.647 0 0 1-2.024 2.977 10.217 10.217 0 0 1-2.947 2.054 8.521 8.521 0 0 1-3.513.744h-5.953Zm19.08 0h-3.722l6.995-18.754h3.275l6.995 18.754h-3.72l-1.34-3.87h-7.144l-1.34 3.87Zm7.292-7.144-2.381-6.847-2.382 6.847h4.763Z" fill="#fff"/></svg>