<svg width="69" height="68" fill="none" xmlns="http://www.w3.org/2000/svg"><path d="M34.789 3.509c-2.598.011-5.078.226-7.259.6-6.432 1.099-7.599 3.4-7.599 7.644v5.605h15.192v1.867H14.231c-4.416 0-8.285 2.569-9.492 7.453-1.395 5.599-1.457 9.098 0 14.943 1.08 4.353 3.66 7.453 8.075 7.453h5.224v-6.718c0-4.853 4.339-9.136 9.491-9.136h15.176c4.224 0 7.599-3.366 7.599-7.469v-14c0-3.985-3.474-6.976-7.6-7.645a48.956 48.956 0 0 0-7.916-.6l.001.003Zm-8.217 4.507c1.57 0 2.851 1.26 2.851 2.81 0 1.544-1.282 2.794-2.85 2.794-1.576 0-2.852-1.249-2.852-2.794 0-1.55 1.276-2.81 2.851-2.81Z" fill="url(#a)"/><path d="M52.197 19.22v6.532c0 5.062-4.435 9.323-9.492 9.323H27.53c-4.157 0-7.599 3.443-7.599 7.469v14c0 3.985 3.58 6.329 7.599 7.47 4.81 1.368 9.424 1.615 15.175 0 3.825-1.072 7.6-3.23 7.6-7.47V50.94H35.128v-1.868h22.775c4.415 0 6.063-2.98 7.598-7.453 1.586-4.606 1.519-9.037 0-14.943-1.091-4.254-3.175-7.453-7.599-7.453h-5.7l-.006-.002Zm-8.534 35.46c1.575 0 2.85 1.248 2.85 2.793 0 1.55-1.275 2.81-2.85 2.81-1.57 0-2.85-1.26-2.85-2.81 0-1.544 1.28-2.793 2.85-2.793Z" fill="url(#b)"/><defs><linearGradient id="a" x1="3.668" y1="3.507" x2="37.744" y2="33.502" gradientUnits="userSpaceOnUse"><stop stop-color="#5A9FD4"/><stop offset="1" stop-color="#306998"/></linearGradient><linearGradient id="b" x1="43.305" y1="57.02" x2="31.252" y2="39.595" gradientUnits="userSpaceOnUse"><stop stop-color="#FFD43B"/><stop offset="1" stop-color="#FFE873"/></linearGradient></defs></svg>