<svg width="81" height="17" viewBox="0 0 81 17" fill="none" xmlns="http://www.w3.org/2000/svg">
<path d="M0.600586 0.783691H3.66605C4.89945 0.783691 5.84713 0.93129 6.5098 1.22613C7.17211 1.52097 7.69546 1.97411 8.07948 2.58518C8.4635 3.19625 8.65551 3.87506 8.65551 4.6209C8.65551 5.31754 8.48719 5.95143 8.15056 6.52328C7.81392 7.09514 7.31921 7.55897 6.66715 7.91406C7.47516 8.19107 8.09681 8.51586 8.53281 8.88914C8.96811 9.26206 9.30722 9.71341 9.5498 10.2428C9.79238 10.7719 9.91331 11.3459 9.91331 11.9641C9.91331 13.2215 9.4568 14.2858 8.54413 15.156C7.63145 16.0263 6.40725 16.4616 4.8708 16.4616H0.600586V0.783691ZM2.12289 2.3185V7.33864H3.01293C4.09357 7.33864 4.88813 7.23739 5.39663 7.03488C5.90512 6.83238 6.30788 6.51259 6.60456 6.07585C6.90124 5.63876 7.04941 5.15389 7.04941 4.6209C7.04941 3.90323 6.80047 3.34028 6.30258 2.93171C5.80469 2.52314 5.0119 2.31886 3.92419 2.31886H2.12289V2.3185ZM2.12289 8.91552V14.9268H4.05042C5.18693 14.9268 6.01969 14.8148 6.5494 14.5913C7.07876 14.3674 7.50415 14.0177 7.82523 13.5413C8.14631 13.0654 8.30721 12.5502 8.30721 11.9958C8.30721 11.2999 8.08125 10.6924 7.62969 10.1737C7.17812 9.65494 6.55718 9.29949 5.76721 9.10768C5.2375 8.98005 4.31599 8.91588 3.00232 8.91588H2.12289V8.91552Z" fill="#A2A2A2"/>
<path d="M13.001 0.78418H21.9127V2.31899H14.5547V7.23253H21.8491V8.76734H14.5547V14.9276H21.8491V16.4624H13.001V0.78418Z" fill="#A2A2A2"/>
<path d="M22.9907 13.5416L24.3122 12.7423C25.2425 14.4689 26.3171 15.3324 27.5364 15.3324C28.058 15.3324 28.5474 15.2098 29.0057 14.9648C29.4636 14.7195 29.8126 14.3912 30.052 13.9787C30.2914 13.5669 30.4116 13.1298 30.4116 12.6678C30.4116 12.1419 30.2352 11.6271 29.883 11.1223C29.3968 10.426 28.5085 9.58747 27.2189 8.60704C25.9222 7.61913 25.1152 6.90538 24.798 6.46472C24.2485 5.72602 23.9734 4.9267 23.9734 4.06678C23.9734 3.3844 24.1354 2.76299 24.4596 2.20147C24.7839 1.64031 25.24 1.19823 25.8288 0.874513C26.4172 0.551151 27.0569 0.389648 27.7475 0.389648C28.4805 0.389648 29.1658 0.572542 29.8034 0.938687C30.4413 1.30483 31.116 1.97794 31.8278 2.95836L30.5594 3.92845C29.9746 3.14696 29.476 2.63179 29.0637 2.38294C28.6513 2.13445 28.2019 2.01002 27.7157 2.01002C27.0884 2.01002 26.5756 2.20183 26.1775 2.58545C25.7793 2.96942 25.5802 3.4418 25.5802 4.00296C25.5802 4.34415 25.6506 4.67429 25.7917 4.99408C25.9324 5.31388 26.1895 5.6622 26.5633 6.03868C26.7677 6.23762 27.437 6.75992 28.5718 7.60558C29.9176 8.60775 30.8409 9.4994 31.3416 10.2809C31.842 11.0624 32.0923 11.8478 32.0923 12.6361C32.0923 13.773 31.6641 14.7609 30.808 15.5991C29.9519 16.438 28.9105 16.8569 27.6842 16.8569C26.7397 16.8569 25.8836 16.6027 25.1152 16.0946C24.3468 15.5866 23.6389 14.7356 22.9907 13.5416Z" fill="#A2A2A2"/>
<path d="M33.8364 2.31899V0.78418H42.3567V2.31899H38.8895V16.4621H37.3039V2.31899H33.8364Z" fill="#A2A2A2"/>
<path d="M59.2074 3.6935L57.9811 4.6422C57.3046 3.75411 56.4924 3.08065 55.5444 2.62252C54.5963 2.16404 53.5549 1.93516 52.4205 1.93516C51.1797 1.93516 50.0312 2.23534 48.9746 2.83572C47.9173 3.43645 47.098 4.24254 46.5166 5.25505C45.9349 6.26757 45.6443 7.40629 45.6443 8.67086C45.6443 10.5825 46.2946 12.1776 47.5948 13.4564C48.8954 14.7356 50.5354 15.3752 52.5157 15.3752C54.6932 15.3752 56.5154 14.5153 57.9811 12.7958L59.2074 13.7338C58.4323 14.7288 57.4648 15.4978 56.3057 16.0415C55.1465 16.5852 53.8516 16.8569 52.4209 16.8569C49.7006 16.8569 47.5541 15.9438 45.983 14.1174C44.6651 12.5758 44.0063 10.7141 44.0063 8.53253C44.0063 6.23762 44.8041 4.30672 46.4007 2.73982C47.9972 1.17292 49.9965 0.389648 52.4 0.389648C53.8516 0.389648 55.1624 0.679141 56.3325 1.25848C57.5019 1.83747 58.4602 2.64926 59.2074 3.6935Z" fill="#A2A2A2"/>
<path d="M60.7188 13.5416L62.0398 12.7423C62.9702 14.4689 64.0448 15.3324 65.2641 15.3324C65.7857 15.3324 66.2751 15.2098 66.7333 14.9648C67.1913 14.7195 67.5399 14.3912 67.7797 13.9787C68.0194 13.5669 68.1397 13.1298 68.1397 12.6678C68.1397 12.1419 67.9632 11.6271 67.611 11.1223C67.1244 10.426 66.2365 9.58747 64.9469 8.60704C63.6502 7.61913 62.8433 6.90538 62.5261 6.46472C61.9762 5.72602 61.7014 4.9267 61.7014 4.06678C61.7014 3.3844 61.8637 2.76299 62.1877 2.20147C62.5119 1.64031 62.9681 1.19823 63.5568 0.874513C64.1449 0.551151 64.7849 0.389648 65.4755 0.389648C66.2086 0.389648 66.8939 0.572542 67.5314 0.938687C68.1694 1.30483 68.844 1.97794 69.5562 2.95836L68.2875 3.92845C67.7026 3.14696 67.204 2.63179 66.7917 2.38294C66.3794 2.13445 65.9303 2.01002 65.4441 2.01002C64.8164 2.01002 64.3037 2.20183 63.9055 2.58545C63.5073 2.96942 63.3086 3.4418 63.3086 4.00296C63.3086 4.34415 63.379 4.67429 63.5201 4.99408C63.6612 5.31388 63.9179 5.6622 64.2916 6.03868C64.496 6.23762 65.1658 6.75992 66.3005 7.60558C67.6464 8.60775 68.5696 9.4994 69.0704 10.2809C69.5704 11.0624 69.8207 11.8478 69.8207 12.6361C69.8207 13.773 69.3925 14.7609 68.5364 15.5991C67.68 16.438 66.6386 16.8569 65.4126 16.8569C64.4677 16.8569 63.6117 16.6027 62.8433 16.0946C62.0752 15.5862 61.3669 14.7356 60.7188 13.5416Z" fill="#A2A2A2"/>
<path d="M71.502 13.5416L72.823 12.7423C73.7534 14.4689 74.828 15.3324 76.0476 15.3324C76.5692 15.3324 77.0586 15.2098 77.5165 14.9648C77.9748 14.7195 78.3235 14.3912 78.5636 13.9787C78.8026 13.5669 78.9229 13.1298 78.9229 12.6678C78.9229 12.1419 78.7468 11.6271 78.3946 11.1223C77.908 10.426 77.0201 9.58747 75.7304 8.60704C74.4337 7.61913 73.6268 6.90538 73.3093 6.46472C72.7597 5.72602 72.485 4.9267 72.485 4.06678C72.485 3.3844 72.6469 2.76299 72.9712 2.20147C73.2955 1.64031 73.7516 1.19823 74.3404 0.874513C74.9285 0.551151 75.5685 0.389648 76.2591 0.389648C76.9918 0.389648 77.6771 0.572542 78.315 0.938687C78.9526 1.30483 79.6272 1.97794 80.3394 2.95836L79.0707 3.92845C78.4858 3.14696 77.9872 2.63179 77.5752 2.38294C77.1629 2.13445 76.7135 2.01002 76.2273 2.01002C75.6 2.01002 75.0869 2.20183 74.6891 2.58545C74.2905 2.96942 74.0918 3.4418 74.0918 4.00296C74.0918 4.34415 74.1622 4.67429 74.3033 4.99408C74.4444 5.31388 74.7014 5.6622 75.0752 6.03868C75.2792 6.23762 75.9493 6.75992 77.0841 7.60558C78.4299 8.60775 79.3528 9.4994 79.8536 10.2809C80.3536 11.0624 80.6043 11.8478 80.6043 12.6361C80.6043 13.773 80.176 14.7609 79.3196 15.5991C78.4632 16.438 77.4221 16.8569 76.1958 16.8569C75.2513 16.8569 74.3952 16.6027 73.6268 16.0946C72.8584 15.5866 72.1505 14.7356 71.502 13.5416Z" fill="#A2A2A2"/>
</svg>
