<svg xmlns="http://www.w3.org/2000/svg" xmlns:xlink="http://www.w3.org/1999/xlink" viewBox="0 0 649.33 250.49"><defs><linearGradient id="Безымянный_градиент_654" x1="-1955.42" y1="732.16" x2="-1907.96" y2="526.93" gradientTransform="matrix(.94 .33 -.33 .94 2124.4 266.17)" gradientUnits="userSpaceOnUse"><stop offset="0" stop-color="#3717b1"/><stop offset=".11" stop-color="#3d35c1"/><stop offset=".43" stop-color="#4e87ee"/><stop offset=".57" stop-color="#55a7ff"/><stop offset="1" stop-color="#8fdbff"/></linearGradient><linearGradient id="Безымянный_градиент_654-2" x1="-1721.12" y1="800.89" x2="-1642.53" y2="679.63" gradientTransform="rotate(17.39 1121.373 6385.812)" xlink:href="#Безымянный_градиент_654"/><linearGradient id="Безымянный_градиент_420" x1="2957.12" y1="12299.52" x2="3004.58" y2="12094.29" gradientTransform="rotate(-160.43 477.842 6361.005)" gradientUnits="userSpaceOnUse"><stop offset="0" stop-color="#ff9c1c"/><stop offset=".51" stop-color="#ffd91f"/></linearGradient><linearGradient id="Безымянный_градиент_420-2" x1="2848.34" y1="12489.5" x2="2916.65" y2="12384.1" gradientTransform="rotate(-162.19 484.632 6494.112)" xlink:href="#Безымянный_градиент_420"/><style>.cls-1{fill:#212121}</style></defs><g id="Слой_2" data-name="Слой 2"><g id="Слой_1-2" data-name="Слой 1"><path class="cls-1" d="M312 55.9h25.9q10.1 0 16.1 4.85t5.95 14.47q0 9.45-5.91 14.3t-15.44 4.85h-13.5V116H312Zm13.08 10.8V84h11.72q10.29 0 10.29-8.6t-10.21-8.7Zm84.2 35.77a19.58 19.58 0 0 1-7.47 10.89 21.69 21.69 0 0 1-12.95 3.88q-10 0-16.16-6.24t-6.12-16.54q0-10.12 6.16-16.71a20.56 20.56 0 0 1 15.7-6.58q9.87 0 15.69 6.71T410 96.06v1.18h-31.27q.09 5.66 2.75 8.61a9.51 9.51 0 0 0 7.46 3q6.33 0 8.86-6.33ZM397.8 89.65a12.37 12.37 0 0 0-2.8-7.05 8.25 8.25 0 0 0-6.58-2.74 8.88 8.88 0 0 0-6.58 2.62 11.56 11.56 0 0 0-3.13 7.17ZM459 116h-11.5V86.53L432 116h-13.61V72.43h11.48v29.45l15.52-29.45H459Zm-11.33-60.1h4.73q0 12.15-13.76 12.15T424.89 55.9h4.72c.73 3.71 3.75 5.57 9 5.57s8.33-1.86 9.06-5.57Zm58.9 25.73h-14.35V116h-11.9V81.63H466v-9.2h40.59Zm47.5 34.37H542.6V86.53L527.07 116h-13.59V72.43H525v29.45l15.53-29.45h13.58Zm51.47 0h-11.9V97.66h-16.79V116H565V72.43h11.89v15.78h16.79V72.43h11.9Zm43.79-34.37h-21V116h-11.9V72.43h32.9ZM225.46 194.64V184a15.61 15.61 0 0 0 6.07 1.3 6.13 6.13 0 0 0 4.29-1.42 4.61 4.61 0 0 0 1.54-3.52 6.61 6.61 0 0 0-.17-1.46 13.29 13.29 0 0 0-.48-1.62q-.33-.89-.57-1.41c-.16-.35-.42-.88-.77-1.58s-.58-1.16-.68-1.38l-16.92-35.61h14l13 30.35 12.79-30.35h13.52l-19.43 42.41q-4.12 9.08-8.25 12.67t-10.93 3.6a18.84 18.84 0 0 1-7.01-1.34Zm88.75.24h-13.92l-12.06-18-5.1 5.18v12.79h-11.25v-41.73h11.25v16.51l15.3-16.51h13.51l-16.18 16.18Zm14.65-41.76v5.17q4.53-6.3 12.95-6.31a16.75 16.75 0 0 1 13.51 6.07q5.1 6.07 5.1 16.19 0 9.8-5 15.74a16.31 16.31 0 0 1-13.16 6q-8.42 0-12.86-6.23v20H318v-56.63Zm10.14 8.09a8.73 8.73 0 0 0-7.33 3.4Q329 168 329 174.08t2.67 9.47a8.87 8.87 0 0 0 7.37 3.4 8.68 8.68 0 0 0 7.24-3.4q2.63-3.41 2.63-9.31 0-6.08-2.67-9.55a8.69 8.69 0 0 0-7.24-3.48Zm66.31 33.67h-11.65a17.6 17.6 0 0 1-.81-4 18.29 18.29 0 0 1-13.52 5.26q-7 0-10.92-3.36a11.46 11.46 0 0 1-4-9.26 14.54 14.54 0 0 1 .69-4.7 7.75 7.75 0 0 1 2.26-3.4 24.79 24.79 0 0 1 3-2.26 12.59 12.59 0 0 1 3.92-1.46c1.68-.38 3-.66 4.05-.85s2.46-.39 4.29-.61a35.89 35.89 0 0 0 8.13-1.7 3.29 3.29 0 0 0 2.07-3.32q0-5.58-7.53-5.58c-2.64 0-4.59.47-5.83 1.42s-2.05 2.6-2.42 5H366.3q1-14.08 19.35-14.08 18.21 0 18.21 13.6v18.05q0 7.86 1.45 11.25Zm-12.54-20.32q-2 1.22-8.1 2.19-5.1.81-6.63 2a5.87 5.87 0 0 0-.12 8.3 6.66 6.66 0 0 0 4.65 1.49 10.81 10.81 0 0 0 7.43-2.44 8.67 8.67 0 0 0 2.79-6.84ZM452 194.88h-11v-28.25l-14.89 28.25h-13v-41.76h11v28.24L439 153.12h13Zm47 0h-11.41v-17.57h-16.1v17.57h-11.42v-41.76h11.42v15.13h16.1v-15.13H499Zm44-13.76q0 6.72-4.33 10.24t-11.45 3.52h-19.88v-41.76h11.33v14.32h9.07a16.71 16.71 0 0 1 11 3.56q4.26 3.57 4.26 10.12Zm-24.36-5.91V187h5.83q7 0 7-5.83a5.24 5.24 0 0 0-1.94-4.41 8.14 8.14 0 0 0-5.1-1.5Zm29.62-22.09h11.44v41.76h-11.41Z"/><path d="M161.7 241.11a26.18 26.18 0 0 1-36.89 3.26l-61.26-51.32a26.35 26.35 0 0 1 .59-40.88l48.45-38.27-2 2c-28 27.61 11.17 57.5 11.17 57.5l18 15.08 18.73 15.69a26.19 26.19 0 0 1 3.21 36.94Z" style="fill:url(#Безымянный_градиент_654)"/><path d="m157.86 144.17-.69.55-.19.16-5.92 5-1.15.9c-21.35 16.95-21.73 28.21 8.53 53.47l-18.73-15.69-18-15.08s-39.22-29.89-11.17-57.5l2-2 12.79-10.8A26.21 26.21 0 0 1 162 107.2l.13.19a26.18 26.18 0 0 1-4.27 36.78Z" style="fill:url(#Безымянный_градиент_654-2)"/><path d="M6.45 9.23a26.18 26.18 0 0 1 36.91-3L104.24 58a26.35 26.35 0 0 1-.88 40.88L54.64 136.8c.66-.68 1.35-1.35 2-2 28.25-27.41-10.75-57.58-10.75-57.58L28.05 62 9.44 46.15A26.18 26.18 0 0 1 6.45 9.23Z" style="fill:url(#Безымянный_градиент_420)"/><path d="m10.11 105.61.69-.54.19-.15 5.43-4.34 1.16-.9c21.47-16.8 21.94-28.05-8.14-53.53L28.05 62l17.89 15.19s39 30.17 10.75 57.58c-.7.68-1.39 1.35-2 2l-12.41 10.17a26.2 26.2 0 0 1-36.62-4.39l-.13-.19a26.17 26.17 0 0 1 4.58-36.75Z" style="fill:url(#Безымянный_градиент_420-2)"/><path class="cls-1" d="M232.06 55.81v60.52h-13.34V55.81Zm56.7 0v11.31h-18.19v49.21h-13.35V67.12H239V55.81Z"/></g></g></svg>