<svg width="21" height="20" viewBox="0 0 21 20" fill="none" xmlns="http://www.w3.org/2000/svg">
<path d="M9.37841 18.9299L16.8672 11.7225C17.2624 11.3419 17.4829 10.8331 17.4829 10.2962C17.4829 10.2521 17.4829 10.2081 17.4788 10.164L17.121 4.95176C17.0835 4.38687 16.6092 3.93015 16.0226 3.89409L14.1005 3.76989C14.2586 3.50547 14.4583 3.25308 14.6954 3.02471C15.2737 2.46783 15.9935 2.12329 16.7257 2.05118C17.4205 1.98307 18.0404 2.17537 18.4731 2.59203C19.3925 3.47743 19.1887 5.10801 18.0238 6.23379C17.8282 6.42208 17.8282 6.72657 18.0238 6.91486C18.2193 7.10316 18.5355 7.10316 18.731 6.91486C20.2829 5.40848 20.4826 3.16494 19.1762 1.90695C18.5272 1.28196 17.6244 0.993505 16.6217 1.08966C15.6606 1.1818 14.7246 1.6265 13.984 2.33963C13.568 2.74026 13.2393 3.205 13.0146 3.69778L10.6057 3.54554C10.0025 3.50547 9.4117 3.72182 8.98317 4.13447L1.49441 11.3459C1.02013 11.8026 0.76218 12.4075 0.76218 13.0526C0.76218 13.6976 1.02429 14.3025 1.49441 14.7593L5.83373 18.9379C6.30802 19.3946 6.93624 19.643 7.60607 19.643C8.28006 19.639 8.90828 19.3866 9.37841 18.9299ZM6.54517 18.2528L2.20169 14.0702C1.91878 13.7977 1.76068 13.4332 1.76068 13.0445C1.76068 12.6559 1.91878 12.2914 2.20169 12.0189L9.69044 4.80753C9.91511 4.59119 10.223 4.47901 10.5392 4.49904L12.7192 4.63927C12.7067 4.71939 12.6943 4.79952 12.6859 4.87965C12.6735 4.99984 12.6651 5.12003 12.6651 5.23621C12.6651 6.05751 12.9647 6.79067 13.5305 7.33553C13.7261 7.52382 14.0422 7.52382 14.2378 7.33553C14.4333 7.14723 14.4333 6.84275 14.2378 6.65445C13.8051 6.23779 13.6054 5.64085 13.6761 4.97179C13.6844 4.87965 13.7011 4.79151 13.7177 4.70337L15.9477 4.8476C16.0392 4.8516 16.11 4.92372 16.1183 5.01185L16.4761 10.2241C16.4761 10.2481 16.4803 10.2722 16.4803 10.2962C16.4803 10.5766 16.3638 10.8491 16.1599 11.0454L8.6753 18.2528C8.39239 18.5252 8.01379 18.6775 7.61023 18.6775C7.20667 18.6775 6.82807 18.5252 6.54517 18.2528Z" fill="#BE0000" stroke="#BE0000" stroke-width="0.2"/>
</svg>
