<svg width="18" height="17" viewBox="0 0 18 17" fill="none" xmlns="http://www.w3.org/2000/svg">
<path d="M16.6442 6.52685C16.6243 6.44951 16.5893 6.37686 16.5413 6.31303C16.4933 6.24921 16.4332 6.19547 16.3644 6.15487C16.2956 6.11428 16.2195 6.08763 16.1404 6.07645C16.0613 6.06527 15.9808 6.06978 15.9035 6.08971C15.8262 6.10964 15.7535 6.14461 15.6897 6.19263C15.6259 6.24064 15.5721 6.30075 15.5315 6.36953C15.4909 6.43831 15.4643 6.51442 15.4531 6.5935C15.4419 6.67258 15.4464 6.75308 15.4664 6.83042C15.8576 8.35182 15.7001 9.96245 15.0214 11.3792C14.3427 12.7959 13.1864 13.9281 11.7556 14.5766C10.3248 15.2252 8.71122 15.3487 7.19843 14.9253C5.68565 14.502 4.37051 13.5589 3.4842 12.2619C2.59788 10.9649 2.19713 9.39704 2.35238 7.83382C2.50763 6.27061 3.20894 4.81215 4.33305 3.71482C5.45715 2.61749 6.93209 1.95153 8.49859 1.834C10.0651 1.71647 11.6229 2.1549 12.8981 3.07221C13.028 3.16564 13.1895 3.20402 13.3476 3.179C13.5056 3.15399 13.6474 3.06761 13.7421 2.93864C13.789 2.87375 13.8226 2.80023 13.8409 2.7223C13.8593 2.64438 13.8621 2.56359 13.8491 2.48458C13.8361 2.40558 13.8076 2.32993 13.7653 2.26198C13.723 2.19402 13.6676 2.13511 13.6024 2.08864C12.2634 1.12111 10.6523 0.602507 9.00028 0.607209C7.43922 0.607209 5.91322 1.07012 4.61525 1.9374C3.31727 2.80467 2.30563 4.03737 1.70823 5.4796C1.11084 6.92183 0.954537 8.50882 1.25908 10.0399C1.56363 11.571 2.31535 12.9773 3.41919 14.0812C4.52303 15.185 5.9294 15.9367 7.46046 16.2413C8.99153 16.5458 10.5785 16.3895 12.0207 15.7921C13.463 15.1947 14.6957 14.1831 15.563 12.8851C16.4302 11.5871 16.8931 10.0611 16.8931 8.50007C16.8927 7.83453 16.809 7.17166 16.6442 6.52685Z" fill="#BE0000"/>
<path d="M5.78875 7.46179C5.73214 7.40518 5.66493 7.36028 5.59097 7.32964C5.51701 7.29901 5.43773 7.28324 5.35767 7.28324C5.27762 7.28324 5.19834 7.29901 5.12438 7.32964C5.05042 7.36028 4.98321 7.40518 4.9266 7.46179C4.86999 7.5184 4.82509 7.58561 4.79445 7.65957C4.76382 7.73353 4.74805 7.81281 4.74805 7.89287C4.74805 7.97292 4.76382 8.0522 4.79445 8.12616C4.82509 8.20012 4.86999 8.26733 4.9266 8.32394L7.96232 11.3597C8.01876 11.4166 8.08591 11.4617 8.1599 11.4925C8.23388 11.5234 8.31324 11.5392 8.39339 11.5392C8.47354 11.5392 8.5529 11.5234 8.62688 11.4925C8.70087 11.4617 8.76802 11.4166 8.82446 11.3597L15.503 4.68108C15.6174 4.56675 15.6816 4.41169 15.6816 4.25001C15.6816 4.08832 15.6174 3.93326 15.503 3.81894C15.3887 3.70461 15.2336 3.64038 15.072 3.64038C14.9103 3.64038 14.7552 3.70461 14.6409 3.81894L8.39339 10.0725L5.78875 7.46179Z" fill="#BE0000"/>
</svg>
