<svg width="145" height="85" viewBox="0 0 145 85" fill="none" xmlns="http://www.w3.org/2000/svg">
<path d="M25.2968 47.8541C32.0263 47.0139 35.6008 43.8057 35.6008 38.5637C35.6008 32.0807 30.6191 29.0195 21.0906 29.0195H9.98896V33.2254H20.5566C27.4777 33.2254 30.4667 34.5048 30.4667 38.5637C30.4667 42.6226 27.1354 43.9002 20.5566 43.9002H0V60.372H4.98165V48.1026H19.5448L30.4291 60.372H36.3762L25.2951 47.8541H25.2968Z" fill="black"/>
<path d="M72.3074 48.2038L51.7953 29H51.3623V60.3717H56.3439V39.5488L72.0642 54.237H72.4512L77.4585 49.3311V43.1824L72.3057 48.2021L72.3074 48.2038ZM91.9977 29L87.4492 33.4474V60.3717H92.4308V29H91.9977Z" fill="black"/>
<path d="M135.047 29V33.0046H127.632C117.811 33.0046 112.2 36.8149 112.2 44.9764C112.2 53.1378 117.811 56.9954 127.632 56.9954C134.26 56.9954 138.034 55.5111 140.403 53.8292V48.1006H125.407V43.8965H145V55.8577C141.274 59.122 135.615 61.0017 127.73 61.0017C115.878 61.0017 106.977 55.9575 106.977 45.0762C106.977 34.1948 115.973 29 127.728 29H135.047Z" fill="black"/>
</svg>
