<svg width="82" height="40" viewBox="0 0 82 40" fill="none" xmlns="http://www.w3.org/2000/svg">
<path d="M10.7379 24.8975V28.1475H3.95425C1.48747 25.71 0.38623 21.7431 0.38623 18.5409C0.38623 14.6696 1.70772 10.9894 4.39474 8.69531H10.6938V12.0409H6.06863C5.09954 13.188 4.30664 16.199 4.30664 18.4931C4.30664 20.7872 5.09954 23.7983 6.06863 24.9453C6.06863 24.8975 10.7379 24.8975 10.7379 24.8975Z" fill="#929292"/>
<path d="M20.7814 8.69531V12.0409H15.6716L15.5835 12.1843L19.8563 20.3093C20.5171 21.5041 21.1778 22.9858 21.1778 24.0372C21.1778 26.0924 20.3409 27.4784 19.3718 28.1475H12.3239V24.9453H17.8301L17.9182 24.8019L13.1168 15.7688C12.5001 14.6218 12.0596 13.5225 12.0596 12.6144C12.0596 11.2762 12.5441 9.50781 14.3942 8.69531H20.7814Z" fill="#929292"/>
<path d="M31.1329 8.69531V12.0409H26.0232L25.9351 12.1843L30.2079 20.3093C30.8687 21.5041 31.5294 22.9858 31.5294 24.0372C31.5294 26.0924 30.6925 27.4784 29.7234 28.1475H22.6754V24.9453H28.1816L28.2697 24.8019L23.4683 15.7688C22.8516 14.6218 22.4111 13.5225 22.4111 12.6144C22.4111 11.2762 22.8957 9.50781 24.7458 8.69531H31.1329Z" fill="#929292"/>
<path d="M33.3794 8.69531H37.0355V24.9453H42.5858V28.1475H33.3794V8.69531V8.69531Z" fill="#929292"/>
<path d="M47.7393 8.69531V12.471H44.2153V8.69531H47.7393V8.69531ZM44.2594 13.9527H47.7833V28.1475H44.2594V13.9527Z" fill="#929292"/>
<path d="M60.3818 26.6664C60.3818 29.1994 60.0294 30.92 57.7829 32.3061H51.704V29.4384H56.2411C56.5935 29.1994 56.9019 28.7693 56.9019 28.1002V26.4752C56.1971 27.0965 55.228 27.3355 53.7743 27.3355H51.8362C50.5147 25.6627 49.6777 23.8465 49.6777 21.0744C49.6777 17.3943 50.823 15.5303 52.4088 13.9531H54.391C55.8887 13.9531 56.5935 14.5267 57.1221 15.1002L57.6067 13.9531H60.3818V26.6664ZM54.2148 16.8686C53.6422 17.8722 53.2458 19.2105 53.2458 20.6921C53.2458 22.4127 53.6422 23.7509 54.0827 24.5156H56.8138V16.8686H54.2148Z" fill="#929292"/>
<path d="M71.3063 13.9527C72.9361 16.1034 73.3326 18.0152 73.3326 20.9784V28.1475H69.8086V20.6438C69.8086 18.8755 69.5884 17.6328 69.1038 16.8203H66.1084V28.1475H62.5845V8.69531H66.1084V14.9563C66.8132 14.2872 67.2978 13.9527 68.7955 13.9527C68.7514 13.9527 71.3063 13.9527 71.3063 13.9527Z" fill="#929292"/>
<path d="M75.8872 16.8683H74.0371V13.9529H75.8872V10.0815H79.4112V13.9529H81.6136V16.8683H79.4112V22.8426C79.4112 23.9896 79.4552 24.611 79.9838 25.2323H81.6136V28.1477H77.8254C75.8872 26.3315 75.8872 24.3242 75.8872 21.9345V16.8683Z" fill="#929292"/>
</svg>
