<svg width="32" height="35" fill="none" xmlns="http://www.w3.org/2000/svg"><g clip-path="url(#a)"><path d="M24.664 24.818c-1.749 1.591-4.133 2.546-6.677 2.546-5.723 0-9.856-4.137-9.856-9.864 0-5.727 4.133-9.705 9.856-9.705 2.544 0 4.928.796 6.677 2.387l1.272 1.114 5.405-5.41-1.43-1.272C26.89 1.59 22.596 0 17.986 0 7.813 0 .5 7.318.5 17.34.5 27.365 7.972 35 17.987 35c4.61 0 8.903-1.59 12.082-4.614l1.272-1.272-5.405-5.41-1.272 1.114Z" fill="#000"/><path d="M17.67 23.387a5.884 5.884 0 0 0 5.88-5.887 5.884 5.884 0 0 0-5.882-5.886 5.884 5.884 0 0 0-5.882 5.886 5.884 5.884 0 0 0 5.882 5.887Z" fill="#FF3D2E"/></g><defs><clipPath id="a"><path fill="#fff" transform="translate(.5)" d="M0 0h31v35H0z"/></clipPath></defs></svg>