<svg width="60" height="60" fill="none" xmlns="http://www.w3.org/2000/svg"><path d="M0 55.161V4.84c0-.534.434-.968.968-.968h58.064c.534 0 .968.434.968.968v50.32a.968.968 0 0 1-.968.968H.968A.968.968 0 0 1 0 55.161z" fill="#F4F4F4"/><path d="M0 11.613V4.839c0-.534.434-.968.968-.968h58.064c.534 0 .968.434.968.968v6.774H0z" fill="#989898"/><path d="M49.355 6.774h5.806V8.71h-5.806V6.774zm-44.516 0h1.935V8.71H4.84V6.774zm3.871 0h1.935V8.71H8.709V6.774zm3.87 0h1.936V8.71h-1.935V6.774z" fill="#FBF2FF"/><path d="M12.58 32.903c0 5.303 2.378 10.044 6.117 13.24l3.433-3.434c-2.87-2.306-4.71-5.838-4.71-9.806 0-3.464 1.4-6.6 3.665-8.875l-3.414-3.43a17.363 17.363 0 0 0-5.09 12.305z" fill="#4C8BF5"/><path d="M30 15.484a17.359 17.359 0 0 0-12.328 5.115l3.414 3.43A12.535 12.535 0 0 1 30 20.322c3.485 0 6.639 1.417 8.917 3.707l3.415-3.429A17.368 17.368 0 0 0 30 15.484z" fill="#3B81F7"/><path d="M38.917 24.03a12.54 12.54 0 0 1 3.664 8.873c0 3.72-1.625 7.053-4.192 9.357l3.422 3.422c3.44-3.183 5.608-7.722 5.608-12.779a17.36 17.36 0 0 0-5.088-12.302l-3.414 3.429z" fill="#DE2A26"/><path d="m28.893 36.994-1.796-2.155L30 25.16l2.903 9.678-1.57 2.267-2.44-.112z" fill="#858585"/><path d="M32.903 39.677a2.903 2.903 0 1 1-5.807 0 2.903 2.903 0 0 1 5.807 0z" fill="#858585"/></svg>