<svg width="60" height="60" fill="none" xmlns="http://www.w3.org/2000/svg"><path d="M0 55.161V4.84c0-.534.434-.968.968-.968h58.064c.534 0 .968.434.968.968v50.32a.968.968 0 0 1-.968.968H.968A.968.968 0 0 1 0 55.161z" fill="#F4F4F4"/><path d="M0 11.613V4.839c0-.534.434-.968.968-.968h58.064c.534 0 .968.434.968.968v6.774H0z" fill="#989898"/><path d="M49.355 6.774h5.806V8.71h-5.806V6.774zm-44.516 0h1.935V8.71H4.84V6.774zm3.871 0h1.935V8.71H8.709V6.774zm3.87 0h1.936V8.71h-1.935V6.774z" fill="#FBF2FF"/><path d="M27.426 31.692c0 2.083-1.762 3.617-3.926 3.617s-3.927-1.534-3.927-3.616c0-2.097 1.763-3.617 3.927-3.617 2.163 0 3.926 1.52 3.926 3.616zm-1.718 0c0-1.3-1.022-2.19-2.208-2.19-1.186 0-2.208.89-2.208 2.19 0 1.288 1.022 2.192 2.208 2.192 1.186 0 2.208-.905 2.208-2.192z" fill="#EA4335"/><path d="M35.897 31.692c0 2.083-1.763 3.617-3.926 3.617-2.164 0-3.927-1.534-3.927-3.616 0-2.096 1.763-3.617 3.927-3.617 2.163 0 3.926 1.52 3.926 3.616zm-1.719 0c0-1.3-1.021-2.19-2.207-2.19s-2.208.89-2.208 2.19c0 1.288 1.022 2.192 2.208 2.192 1.186 0 2.207-.905 2.207-2.192z" fill="#FBBC05"/><path d="M44.015 28.295v6.492c0 2.67-1.705 3.761-3.72 3.761-1.897 0-3.04-1.172-3.47-2.13l1.497-.576c.266.589.92 1.283 1.971 1.283 1.29 0 2.09-.735 2.09-2.12v-.52h-.06c-.385.439-1.127.822-2.062.822-1.957 0-3.75-1.575-3.75-3.602 0-2.04 1.793-3.629 3.75-3.629.934 0 1.675.383 2.061.809h.06v-.589h1.633v-.001zm-1.51 3.41c0-1.273-.92-2.204-2.09-2.204-1.186 0-2.18.931-2.18 2.204 0 1.26.994 2.179 2.18 2.179 1.17 0 2.09-.918 2.09-2.178z" fill="#4285F4"/><path d="M46.706 24.49v10.597h-1.677V24.489h1.677z" fill="#34A853"/><path d="m53.239 32.883 1.334.821c-.43.589-1.468 1.603-3.261 1.603-2.224 0-3.884-1.588-3.884-3.616 0-2.15 1.674-3.617 3.692-3.617 2.03 0 3.024 1.494 3.349 2.3l.178.412-5.232 2.002c.4.726 1.023 1.096 1.897 1.096.875 0 1.482-.398 1.927-1.002zm-4.107-1.302 3.498-1.341c-.192-.452-.771-.767-1.452-.767-.874 0-2.09.713-2.046 2.108z" fill="#EA4335"/><path d="M13.228 30.752v-1.535h5.595c.055.268.083.584.083.927 0 1.15-.34 2.574-1.438 3.588-1.067 1.027-2.432 1.575-4.239 1.575-3.349 0-6.166-2.52-6.166-5.615s2.817-5.615 6.166-5.615c1.853 0 3.173.671 4.165 1.547l-1.172 1.083c-.71-.617-1.674-1.096-2.994-1.096-2.446 0-4.36 1.821-4.36 4.08 0 2.26 1.914 4.082 4.36 4.082 1.586 0 2.49-.589 3.068-1.123.47-.434.779-1.054.9-1.9l-3.968.002z" fill="#4285F4"/><path d="M14 43v14.286c0 .394.224.714.5.714h3c.276 0 .5-.32.5-.714V43h-4z" fill="#9D9D9D"/><path d="M16.053 15C7.74 15 1 21.74 1 30.053c0 8.314 6.74 15.053 15.053 15.053 8.314 0 15.053-6.74 15.053-15.053S24.367 15 16.053 15zm0 27.092c-6.097 0-12.039-5.942-12.039-12.039 0-6.097 5.942-12.039 12.04-12.039 6.096 0 12.038 5.942 12.038 12.04 0 6.096-5.942 12.038-12.039 12.038z" fill="#9D9D9D"/><path d="M14 45h4v3h-4v-3z" fill="#BE0000"/></svg>