<svg width="52" height="57" fill="none" xmlns="http://www.w3.org/2000/svg"><path d="M45.355 5.774h5.806V7.71h-5.806V5.774zm-44.516 0h1.935V7.71H.84V5.774zm3.871 0h1.935V7.71H4.709V5.774zm3.87 0h1.936V7.71H8.581V5.774z" fill="#FBF2FF"/><path d="M41.032.968A.968.968 0 0 0 40.065 0H12.968A.968.968 0 0 0 12 .968V55.16c0 .534.434.968.968.968h27.097a.968.968 0 0 0 .967-.968V.968z" fill="#BFBFBF"/><path d="M21 26.064v-4c0-1.105 1.074-2 2.4-2h7.2c1.326 0 2.4.895 2.4 2v4H21zm9.742-12.484a3.871 3.871 0 1 1-7.742 0 3.871 3.871 0 0 1 7.742 0z" fill="#fff"/><path d="M20 39h-3.333c-.368 0-.667-.359-.667-.8v-2.4c0-.441.299-.8.667-.8H20v4z" fill="#B72325"/><path d="M37 39H22v-4h15c.552 0 1 .359 1 .8v2.4c0 .441-.448.8-1 .8z" fill="#EFEFEF"/><path d="M32.833 46H21.167c-.644 0-1.167-.336-1.167-.75v-1.5c0-.414.523-.75 1.167-.75h11.666c.644 0 1.167.336 1.167.75v1.5c0 .414-.523.75-1.167.75z" fill="#B72325"/></svg>