<svg width="65" height="65" fill="none" xmlns="http://www.w3.org/2000/svg"><g clip-path="url(#a)"><path d="M61.855 58.71H3.145a1.05 1.05 0 0 1-1.048-1.049V22.016c0-.578.47-1.048 1.048-1.048h58.71c.578 0 1.048.47 1.048 1.048v35.645a1.05 1.05 0 0 1-1.048 1.049z" fill="#B8B8B8"/><path d="M6.118 25.162h52.419v28.306H6.117V25.16z" fill="#FDF8FF"/><path d="M63.587 62.903H1.413L0 61.135V57.66h21.749l2.914 1.049H40.25l2.737-1.049H65v3.932l-1.413 1.31z" fill="#989898"/><path d="M57.661 57.661h2.097v2.097h-2.097v-2.097zm-4.193 0h2.096v2.097h-2.096v-2.097zm-48.226 0h2.097v2.097H5.242v-2.097z" fill="#FDF8FF"/></g><path d="M56.588 8.412v45.117H8.412V8.413h48.176z" fill="#F4F4F4"/><path d="m35.288 8.412.474 6.542v2.707c0 1.07-.438 2.047-1.142 2.75a3.895 3.895 0 0 1-6.65-2.75v-2.707l.467-6.542h6.851zm16.058 6.542v2.707a3.896 3.896 0 0 1-7.792 0v-2.707l-1.407-6.542h6.85l2.349 6.542zM14.728 8.412h6.858l-1.414 6.542v2.707a3.89 3.89 0 0 1-3.893 3.893 3.897 3.897 0 0 1-3.9-3.893v-2.707l2.35-6.542z" fill="#F1543F"/><path d="M12.382 14.953v2.705a3.896 3.896 0 0 0 7.793 0v-2.706h-7.793zm15.586 0v2.705a3.896 3.896 0 1 0 7.793 0v-2.705h-7.793zm15.586 0v2.705a3.896 3.896 0 0 0 7.793 0v-2.706h-7.793z" fill="#F1543F"/><path d="m42.147 8.412 1.407 6.542v2.707a3.897 3.897 0 0 1-7.792 0v-2.707l-.474-6.542h6.859zm16.991 6.542v2.707a3.895 3.895 0 0 1-7.792 0v-2.707l-2.348-6.542h6.858l3.282 6.542zM21.586 8.412h6.851l-.466 6.542v2.707a3.897 3.897 0 0 1-3.9 3.893 3.897 3.897 0 0 1-3.9-3.893v-2.707l1.415-6.542zm-13.709 0h6.851l-2.348 6.542v2.708a3.896 3.896 0 0 1-7.792 0v-2.708l3.29-6.542z" fill="#DAD7DC"/><path d="M14.73 8.413H7.876l-3.287 6.54h7.793l2.348-6.54zm13.707 0h-6.853l-1.41 6.54h7.794l.47-6.54zm13.708 0H35.29l.47 6.54h7.793l-1.41-6.54zm13.707 0h-6.854l2.349 6.54h7.793l-3.288-6.54z" fill="#B0B1B5"/><path d="M12.235 31.353H27.53v16.824H12.235V31.353z" fill="#E6E7E8"/><path d="M26.765 32.118v15.294H13V32.118h13.765z" fill="#FF7058"/><path d="M32.117 32.118h22.177v1.53H32.117v-1.53zm0 4.588h22.177v1.53H32.117v-1.53zm8.413 4.588h13.764v1.53H40.529v-1.53z" fill="#A5A5A5"/><path d="m23.07 42.422.877-.877-3.3-.25.25 3.3.878-.877 1.4 1.4 1.296-1.296-1.4-1.4z" fill="#FDFDFD"/><defs><clipPath id="a"><path fill="#fff" d="M0 0h65v65H0z"/></clipPath></defs></svg>