<svg width="137" height="35" viewBox="0 0 137 35" fill="none" xmlns="http://www.w3.org/2000/svg">
<path fill-rule="evenodd" clip-rule="evenodd" d="M93.4504 0C91.5665 4.20859e-08 89.7249 0.562894 88.1585 1.61751C86.592 2.67212 85.3711 4.17109 84.6501 5.92488C83.9291 7.67866 83.7403 9.60851 84.1077 11.4704C84.4751 13.3323 85.3821 15.0426 86.7141 16.385C88.0461 17.7275 89.7432 18.6418 91.5908 19.0124C93.4385 19.383 95.3537 19.1932 97.0943 18.467C98.8349 17.7408 100.323 16.5109 101.37 14.9327C102.417 13.3545 102.976 11.4989 102.976 9.60057C102.974 7.05535 101.97 4.61495 100.184 2.81502C98.3979 1.01509 95.9763 0.00267603 93.4504 0ZM93.4504 16.1957C92.155 16.1957 90.8888 15.8086 89.8118 15.0834C88.7348 14.3581 87.8954 13.3274 87.3997 12.1214C86.9041 10.9155 86.7746 9.58852 87.0274 8.30836C87.2803 7.0282 87.9042 5.85235 88.8203 4.92952C89.7364 4.0067 90.9035 3.37835 92.174 3.12395C93.4445 2.86955 94.7613 3.00053 95.958 3.50031C97.1546 4.00009 98.1773 4.84623 98.8966 5.93172C99.616 7.01721 99.9998 8.29328 99.9994 9.59855C99.9925 11.3464 99.3002 13.0207 98.0735 14.2565C96.8468 15.4922 95.185 16.1893 93.4504 16.1957Z" fill="#232323"/>
<path fill-rule="evenodd" clip-rule="evenodd" d="M126.676 3.48786V8.09815H134.661V11.1238H126.676V15.7058H135.835V18.7073H123.726V0.512695H135.835V3.48786H126.676Z" fill="#232323"/>
<path fill-rule="evenodd" clip-rule="evenodd" d="M119.959 0.489258V18.7324H117.171L108.911 6.30215V18.7324H105.908V0.489258H108.6L108.937 0.939979L116.956 12.8326V0.489258H119.959Z" fill="#232323"/>
<path fill-rule="evenodd" clip-rule="evenodd" d="M82.48 0.489258V3.51495H76.7394V18.7324H73.7367V3.51495H67.9961V0.489258H82.48Z" fill="#232323"/>
<path fill-rule="evenodd" clip-rule="evenodd" d="M66.5506 13.7441C66.5221 14.5435 66.316 15.3262 65.9473 16.0346C65.5786 16.743 65.0568 17.3589 64.4204 17.837C63.1808 18.7587 61.5962 19.2074 59.8993 19.2074H59.8893C59.755 19.2091 59.6208 19.1996 59.4881 19.1791C57.6829 19.1124 56.0121 18.5202 54.7805 17.36C53.741 16.3903 53.0789 15.0788 52.9131 13.6613V13.6107V12.4748H55.8295L55.9098 13.4511C56.033 14.1531 56.3794 14.7958 56.8966 15.2823C57.5305 15.8583 58.4451 16.2019 59.6867 16.2484C60.9283 16.2949 61.9111 16.0119 62.565 15.5329C62.8637 15.3275 63.1092 15.0529 63.281 14.7322C63.4527 14.4115 63.5456 14.0539 63.5519 13.6896V13.6734C63.588 12.9074 63.2871 12.3152 62.4908 11.7816C61.7427 11.2783 60.7137 10.961 59.7268 10.6558L59.5503 10.6012L59.0047 10.4436L58.5875 10.3082C57.6809 10.0292 56.4453 9.63914 55.4103 8.91556C54.0885 8.00806 53.3604 6.72461 53.4206 5.14608C53.4369 4.38427 53.635 3.63763 53.9981 2.96922C54.3612 2.30082 54.8786 1.7303 55.5066 1.30585C56.7241 0.43877 58.3889 -0.00588796 60.12 0.0507048C62.8819 0.16389 65.1726 1.57467 66.1374 3.96167L66.1474 3.98593L66.4563 4.92375L63.6201 5.70796L63.3373 5.03896C62.8458 3.87678 61.6424 3.07034 60.0177 3.03193C58.7781 3.00768 57.8734 3.27245 57.2978 3.67669C57.0303 3.85186 56.8102 4.0914 56.6575 4.37369C56.5049 4.65598 56.4243 4.97214 56.4232 5.29362C56.4089 5.53105 56.4685 5.76706 56.5937 5.9687C56.79 6.24524 57.0467 6.47272 57.3439 6.63366C58.1121 7.08842 59.1913 7.44213 60.2584 7.75743L60.5432 7.83424H60.5552L60.6675 7.87062C61.7025 8.19198 63.1106 8.63058 64.278 9.42288C65.8245 10.391 66.6408 11.9008 66.5506 13.7441Z" fill="#232323"/>
<path fill-rule="evenodd" clip-rule="evenodd" d="M41.4552 0.489263H35.502V18.7324H41.4552C46.4697 18.7324 50.5716 14.6395 50.5716 9.62294C50.5604 7.19489 49.5947 4.87027 47.886 3.1583C46.1773 1.44632 43.8648 0.486563 41.4552 0.489263ZM41.4552 15.7329H38.4786V3.48868H41.4552C43.0665 3.48868 44.6119 4.13369 45.7513 5.28181C46.8907 6.42994 47.5308 7.98712 47.5308 9.61081C47.5308 11.2345 46.8907 12.7917 45.7513 13.9398C44.6119 15.0879 43.0665 15.7329 41.4552 15.7329Z" fill="#232323"/>
<path fill-rule="evenodd" clip-rule="evenodd" d="M22.8575 3.48786V8.09815H30.8166V11.1238H22.8575V15.7058H31.99V18.7073H19.8789V0.512695H31.99V3.48786H22.8575Z" fill="#232323"/>
<path fill-rule="evenodd" clip-rule="evenodd" d="M16.7679 18.7101H13.2397L9.38857 12.3454H4.62879L2.85766 9.37429H10.1909C10.576 9.37429 10.9573 9.29786 11.3131 9.14935C11.6689 9.00085 11.9922 8.78319 12.2645 8.5088C12.5368 8.23441 12.7528 7.90866 12.9002 7.55015C13.0475 7.19163 13.1234 6.80738 13.1234 6.41933C13.1234 6.03128 13.0475 5.64703 12.9002 5.28852C12.7528 4.93001 12.5368 4.60426 12.2645 4.32987C11.9922 4.05547 11.6689 3.83781 11.3131 3.68931C10.9573 3.54081 10.576 3.46438 10.1909 3.46438H2.09144L0.320312 0.519531H10.1909C11.5263 0.525808 12.8197 0.991139 13.857 1.83859C14.8944 2.68604 15.6137 3.86485 15.896 5.18012C16.1783 6.4954 16.0067 7.86837 15.4095 9.07202C14.8123 10.2757 13.8254 11.2379 12.6119 11.7997L16.7679 18.7101Z" fill="#232323"/>
<path d="M0.264648 16.1475H2.91185V18.7947H0.264648V16.1475Z" fill="#E70000"/>
<path d="M78.6471 24.85H78.647C77.7444 24.85 76.8621 25.1197 76.1118 25.6249C75.3615 26.13 74.7768 26.8479 74.4316 27.6876C74.0864 28.5273 73.9961 29.4512 74.1719 30.3425C74.3478 31.2339 74.7821 32.0528 75.42 32.6958C76.0579 33.3387 76.8708 33.7767 77.756 33.9543C78.6413 34.1318 79.5588 34.0409 80.3927 33.693C81.2265 33.3451 81.9391 32.756 82.4404 32.0003C82.9418 31.2446 83.2094 30.3561 83.2095 29.4474V29.4472C83.2085 28.2288 82.7278 27.0603 81.8726 26.1984C81.0173 25.3364 79.8573 24.8513 78.6471 24.85ZM78.6467 32.3524C78.0766 32.3523 77.5193 32.182 77.0452 31.8627C76.571 31.5434 76.2012 31.0894 75.9828 30.5581C75.7645 30.0267 75.7073 29.4419 75.8188 28.8778C75.9302 28.3137 76.2051 27.7956 76.6086 27.3892C77.012 26.9828 77.5259 26.7062 78.0851 26.5942C78.6444 26.4822 79.224 26.5399 79.7507 26.7599C80.2775 26.9799 80.7279 27.3525 81.0448 27.8306C81.3617 28.3088 81.5308 28.871 81.5307 29.4461C81.5276 30.2165 81.2224 30.9541 80.6821 31.4984C80.1418 32.0427 79.4101 32.3495 78.6467 32.3524Z" fill="#A2A2A2" stroke="#A2A2A2" stroke-width="0.3"/>
<path d="M100.385 25.123V24.973H100.235H93.5254H93.3754V25.123V26.5247V26.6747H93.5254H96.0346V33.5739V33.7239H96.1846H97.5756H97.7256V33.5739V26.6747H100.235H100.385V26.5247V25.123Z" fill="#A2A2A2" stroke="#A2A2A2" stroke-width="0.3"/>
<path d="M91.5373 25.123V24.973H91.3873H85.291H85.141L85.141 25.123L85.141 26.5247V33.5739V33.7239H85.291H86.682H86.832V33.5739V30.3008H88.0729H90.3257H90.4757V30.1508V28.7492V28.5992H90.3257H86.832V26.6747H91.3873H91.5373V26.5247V25.123Z" fill="#A2A2A2" stroke="#A2A2A2" stroke-width="0.3"/>
<path d="M71.4207 33.4844L71.4201 33.4849C70.8151 33.9347 70.0479 34.1493 69.2363 34.1493H69.2326H69.2316V33.9993C69.1694 34.0001 69.1073 33.9957 69.0458 33.9862L71.4207 33.4844ZM71.4207 33.4844C71.7335 33.2495 71.9899 32.9468 72.171 32.5988C72.3519 32.2512 72.4531 31.8671 72.4672 31.4749C72.5114 30.5668 72.106 29.8176 71.3466 29.3411C70.7861 28.9614 70.1151 28.7531 69.6393 28.6053L69.6375 28.6047L69.5863 28.5882L69.5638 28.5809H69.5544L69.4434 28.5509C68.9481 28.4046 68.4662 28.2453 68.1289 28.0457L68.129 28.0456L68.1239 28.0428C68.0079 27.98 67.9075 27.8915 67.8301 27.7838C67.7901 27.7177 67.7711 27.6406 67.7758 27.563L67.776 27.563L67.776 27.5545C67.7765 27.4303 67.8076 27.3082 67.8665 27.1992C67.9254 27.0902 68.0103 26.9979 68.1133 26.9304L68.1134 26.9305L68.1173 26.9277C68.3499 26.7644 68.7342 26.6455 69.2878 26.6562C69.9913 26.673 70.4897 27.0191 70.6907 27.4944C70.6907 27.4944 70.6907 27.4944 70.6907 27.4944L70.8217 27.8043L70.873 27.9256L70.9998 27.8905L72.3137 27.5272L72.4654 27.4853L72.4162 27.3357L72.2731 26.9013L72.2735 26.9012L72.2692 26.8909L72.265 26.8808C72.265 26.8806 72.2649 26.8804 72.2648 26.8802C71.7919 25.7108 70.6719 25.0298 69.3446 24.9754V24.9754L69.3434 24.9754C68.5157 24.9483 67.7112 25.1601 67.1159 25.5835C66.8056 25.7935 66.5501 26.0755 66.3708 26.4056C66.1914 26.736 66.0934 27.1048 66.0851 27.4812C66.0555 28.2692 66.4227 28.9095 67.0714 29.3551C67.5721 29.705 68.1653 29.8913 68.5834 30.0199L68.7756 30.0823L68.7755 30.0824L68.7802 30.0837L69.0316 30.1564L69.112 30.1812C69.112 30.1812 69.1121 30.1812 69.1121 30.1812C69.5756 30.3246 70.0285 30.4656 70.353 30.6839L70.3532 30.684C70.5239 30.7984 70.6314 30.9123 70.6956 31.0293C70.759 31.145 70.7857 31.274 70.7784 31.4287L70.7783 31.4287V31.4358V31.4419C70.7756 31.5865 70.7386 31.7283 70.6705 31.8554C70.6022 31.983 70.5047 32.092 70.3861 32.1736L70.3861 32.1735L70.3825 32.1762C70.1139 32.3729 69.6947 32.4994 69.1434 32.4787C68.5934 32.4581 68.2075 32.3071 67.9471 32.0709C67.7334 31.8695 67.5895 31.6039 67.5371 31.3135L67.5005 30.8683L67.4892 30.7306H67.351H66H65.85V30.8806V31.4068V31.4302V31.4389L65.851 31.4476C65.9319 32.1393 66.255 32.7795 66.7625 33.253M71.4207 33.4844L69.0317 34.1358C68.1703 34.1023 67.3626 33.8182 66.7625 33.253M66.7625 33.253C66.7624 33.2529 66.7623 33.2528 66.7622 33.2527L66.865 33.1436L66.7627 33.2532C66.7627 33.2532 66.7626 33.2531 66.7625 33.253Z" fill="#A2A2A2" stroke="#A2A2A2" stroke-width="0.3"/>
<path d="M135.606 28.6369V28.4869H135.456H131.919V26.6512H136H136.15V26.5012V25.123V24.973H136H130.39H130.24V25.123V33.5514V33.7014H130.39H136H136.15V33.5514V32.1611V32.0111H136H131.919V30.1885H135.456H135.606V30.0385V28.6369Z" fill="#A2A2A2" stroke="#A2A2A2" stroke-width="0.3"/>
<path d="M128.18 33.6996H128.445L128.308 33.4722L126.467 30.4101C126.992 30.1289 127.418 29.6895 127.685 29.1515C127.976 28.5635 128.06 27.8929 127.922 27.2505C127.785 26.6081 127.433 26.0321 126.926 25.6179C126.419 25.2037 125.787 24.9761 125.134 24.973H125.133H120.561H120.295L120.432 25.2004L121.252 26.5645L121.296 26.6372H121.381H125.133C125.291 26.6372 125.448 26.6687 125.595 26.7298C125.742 26.791 125.875 26.8807 125.987 26.9938C126.099 27.1069 126.188 27.2413 126.249 27.3892C126.31 27.5372 126.341 27.6958 126.341 27.856C126.341 28.0163 126.31 28.1749 126.249 28.3228C126.188 28.4708 126.099 28.6052 125.987 28.7183C125.875 28.8314 125.742 28.9211 125.595 28.9823C125.448 29.0434 125.291 29.0749 125.133 29.0749H121.736H121.472L121.607 29.3017L122.428 30.678L122.471 30.7512H122.556H124.677L126.417 33.6272L126.461 33.6996H126.545H128.18Z" fill="#A2A2A2" stroke="#A2A2A2" stroke-width="0.3"/>
<path d="M105.965 33.756H106.076L106.108 33.6504L107.676 28.5827L109.243 33.6504L109.276 33.756H109.387H110.248H110.359L110.392 33.6504L112.958 25.3539L113.018 25.1596H112.814H111.56H111.45L111.417 25.2652L109.788 30.5244L108.218 25.2667L108.186 25.1596H108.075H107.283H107.172L107.14 25.2667L105.57 30.5253L103.934 25.265L103.902 25.1596H103.791H102.537H102.334L102.394 25.354L104.966 33.6505L104.999 33.756H105.11H105.965ZM114.516 33.756H114.62L114.656 33.659L115.34 31.8459H118.426L119.116 33.6594L119.153 33.756H119.256H120.574H120.792L120.715 33.5526L117.55 25.2561L117.514 25.1596H117.41H116.362H116.259L116.222 25.2561L113.058 33.5526L112.98 33.756H113.198H114.516ZM115.913 30.3625L116.883 27.6621L117.859 30.3625H115.913Z" fill="#A2A2A2" stroke="#A2A2A2" stroke-width="0.3"/>
</svg>
