<svg width="136" height="35" fill="none" xmlns="http://www.w3.org/2000/svg"><path fill-rule="evenodd" clip-rule="evenodd" d="M93.45 0a9.474 9.474 0 0 0-5.291 1.618 9.583 9.583 0 0 0-3.509 4.307 9.667 9.667 0 0 0-.542 5.545 9.621 9.621 0 0 0 2.606 4.915 9.503 9.503 0 0 0 4.877 2.627 9.454 9.454 0 0 0 5.503-.545 9.543 9.543 0 0 0 4.276-3.534 9.647 9.647 0 0 0-1.186-12.118A9.5 9.5 0 0 0 93.45 0Zm0 16.196a6.513 6.513 0 0 1-3.638-1.113 6.59 6.59 0 0 1-2.412-2.962 6.647 6.647 0 0 1-.373-3.813A6.615 6.615 0 0 1 88.82 4.93a6.534 6.534 0 0 1 3.354-1.806 6.503 6.503 0 0 1 3.784.376 6.56 6.56 0 0 1 2.939 2.432 6.635 6.635 0 0 1 1.102 3.667 6.65 6.65 0 0 1-1.925 4.658 6.548 6.548 0 0 1-4.624 1.939Zm33.226-12.708v4.61h7.985v3.026h-7.985v4.582h9.159v3.001h-12.109V.513h12.109v2.975h-9.159ZM119.959.49v18.242h-2.788l-8.26-12.43v12.43h-3.003V.49h2.692l.337.451 8.019 11.893V.489h3.003ZM82.48.49v3.025h-5.74v15.217h-3.003V3.515h-5.74V.489H82.48ZM66.55 13.744a5.376 5.376 0 0 1-.603 2.29 5.334 5.334 0 0 1-1.527 1.803c-1.24.922-2.824 1.37-4.521 1.37h-.01a2.428 2.428 0 0 1-.401-.028c-1.806-.067-3.476-.659-4.708-1.819a6.013 6.013 0 0 1-1.867-3.699v-1.186h2.916l.08.976c.123.702.47 1.345.987 1.831.634.576 1.549.92 2.79.966 1.242.047 2.225-.236 2.879-.715a2.273 2.273 0 0 0 .986-1.843v-.017c.036-.766-.264-1.358-1.06-1.891-.749-.504-1.778-.821-2.765-1.126l-.176-.055-.546-.157-.417-.136c-.907-.279-2.142-.669-3.177-1.392-1.322-.908-2.05-2.191-1.99-3.77a4.775 4.775 0 0 1 .578-2.177 4.735 4.735 0 0 1 1.508-1.663C56.724.439 58.39-.006 60.12.05c2.762.113 5.052 1.524 6.017 3.91l.01.025.309.938-2.836.784-.283-.669c-.492-1.162-1.695-1.969-3.32-2.007-1.24-.024-2.144.24-2.72.645a1.93 1.93 0 0 0-.874 1.617c-.015.237.045.473.17.675.197.276.453.504.75.665.769.454 1.848.808 2.915 1.123l.285.077h.012l.112.037c1.035.321 2.443.76 3.61 1.552 1.547.968 2.363 2.478 2.273 4.321ZM41.455.49h-5.953v18.242h5.953c5.015 0 9.117-4.092 9.117-9.11a9.212 9.212 0 0 0-2.686-6.464A9.071 9.071 0 0 0 41.456.49Zm0 15.243H38.48V3.489h2.976c1.611 0 3.157.645 4.296 1.793a6.146 6.146 0 0 1 1.78 4.329c0 1.623-.64 3.18-1.78 4.329a6.052 6.052 0 0 1-4.296 1.793ZM22.858 3.488v4.61h7.959v3.026h-7.96v4.582h9.133v3.001H19.879V.513H31.99v2.975h-9.132Zm-6.09 15.222H13.24l-3.851-6.365h-4.76l-1.771-2.97h7.333a2.913 2.913 0 0 0 2.073-.866 2.957 2.957 0 0 0 .86-2.09 2.976 2.976 0 0 0-.86-2.09 2.93 2.93 0 0 0-2.073-.865h-8.1L.321.52h9.87a5.837 5.837 0 0 1 3.666 1.319 5.917 5.917 0 0 1 2.039 3.341 5.95 5.95 0 0 1-.487 3.892 5.886 5.886 0 0 1-2.797 2.728l4.156 6.91Z" fill="#232323"/><path d="M.265 16.148h2.647v2.647H.265v-2.648ZM114 32h2v2h-2v-2Z" fill="#E70000"/><path d="M69.648 24.85c-.903 0-1.785.27-2.536.775a4.589 4.589 0 0 0-1.68 2.063 4.628 4.628 0 0 0 .989 5.008 4.532 4.532 0 0 0 4.973.997A4.57 4.57 0 0 0 73.44 32a4.618 4.618 0 0 0-.568-5.802 4.55 4.55 0 0 0-3.225-1.348Zm0 7.502c-.57 0-1.128-.17-1.602-.49a2.902 2.902 0 0 1-1.063-1.304 2.928 2.928 0 0 1 .626-3.169 2.862 2.862 0 0 1 3.142-.63c.527.22.977.593 1.294 1.072.317.478.486 1.04.486 1.615a2.93 2.93 0 0 1-.848 2.052 2.883 2.883 0 0 1-2.036.854Zm21.737-7.229v-.15h-7.01v1.702h2.66v7.049h1.69v-7.05h2.661v-1.551Zm-8.848 0v-.15H76.14v8.751h1.692V30.3h3.644v-1.701h-3.643v-1.924h4.705v-1.552ZM62.42 33.484c-.605.45-1.372.665-2.184.665h-.004V34a1.045 1.045 0 0 1-.186-.013l2.375-.502Zm0 0a2.62 2.62 0 0 0 1.047-2.01c.044-.907-.361-1.656-1.12-2.133-.56-.38-1.232-.588-1.708-.736h-.002l-.05-.017-.023-.007h-.01l-.11-.03c-.496-.146-.978-.306-1.315-.505l-.005-.003a.875.875 0 0 1-.294-.26.382.382 0 0 1-.054-.22v-.008a.754.754 0 0 1 .337-.625l.004-.002c.233-.164.617-.283 1.17-.272.704.017 1.203.363 1.404.838l.13.31.052.122.127-.035 1.314-.364.151-.042-.049-.15-.143-.434-.004-.01-.004-.01c-.473-1.17-1.593-1.851-2.92-1.906h-.002c-.827-.027-1.632.185-2.227.608a2.342 2.342 0 0 0-1.03 1.898c-.03.788.337 1.428.985 1.874.501.35 1.094.536 1.512.665l.193.062.004.002.252.072.08.025c.464.144.916.285 1.241.503.17.114.278.228.343.345.063.116.09.245.082.4v.013a.912.912 0 0 1-.392.732l-.004.002c-.268.197-.687.323-1.239.303-.55-.02-.935-.172-1.196-.408a1.377 1.377 0 0 1-.41-.757l-.036-.446-.012-.137H56.85v.708l.001.009a2.93 2.93 0 0 0 .912 1.805m4.658.231-2.39.652c-.86-.034-1.668-.318-2.268-.883m0 0 .102-.11-.102.11Zm71.843-4.616v-.15h-3.687V26.65h4.231v-1.677h-5.91v8.728h5.91v-1.69h-4.231v-1.823h3.687v-1.551ZM122.18 33.7h.265l-.137-.228-1.841-3.062c.525-.281.951-.72 1.218-1.259a2.91 2.91 0 0 0 .237-1.9 2.886 2.886 0 0 0-.996-1.633 2.853 2.853 0 0 0-1.792-.645h-4.839l.137.227.82 1.364.044.073h3.837a1.204 1.204 0 0 1 1.116.752 1.225 1.225 0 0 1-.654 1.593 1.204 1.204 0 0 1-.462.093h-3.661l.135.227.821 1.376.043.073h2.206l1.74 2.876.044.073h1.719Zm-25.215.056h.11l.033-.106 1.568-5.067 1.567 5.067.033.106h1.083l.033-.106 2.566-8.296.06-.194h-1.568l-.033.105-1.629 5.26-1.57-5.258-.032-.107h-1.014l-.032.107-1.57 5.258-1.635-5.26-.033-.105h-1.568l.06.194 2.572 8.297.033.105h.966Zm8.551 0h.104l.036-.097.684-1.813h3.086l.69 1.813.037.097h1.639l-.077-.203-3.165-8.297-.036-.096h-1.255l-.037.096-3.164 8.297-.078.203h1.536Zm1.397-3.393.97-2.7.976 2.7h-1.946Z" fill="#A2A2A2" stroke="#A2A2A2" stroke-width=".3"/></svg>