<svg width="136" height="35" fill="none" xmlns="http://www.w3.org/2000/svg"><path fill-rule="evenodd" clip-rule="evenodd" d="M93.186 0a9.474 9.474 0 0 0-5.292 1.618 9.584 9.584 0 0 0-3.509 4.307 9.668 9.668 0 0 0-.542 5.545 9.622 9.622 0 0 0 2.606 4.915 9.503 9.503 0 0 0 4.877 2.627 9.458 9.458 0 0 0 5.504-.545 9.542 9.542 0 0 0 4.275-3.534 9.647 9.647 0 0 0-1.186-12.118A9.5 9.5 0 0 0 93.186 0Zm0 16.196a6.514 6.514 0 0 1-3.639-1.113 6.589 6.589 0 0 1-2.412-2.962 6.646 6.646 0 0 1-.372-3.813 6.614 6.614 0 0 1 1.793-3.378 6.534 6.534 0 0 1 3.353-1.806 6.503 6.503 0 0 1 3.784.376 6.56 6.56 0 0 1 2.939 2.432 6.636 6.636 0 0 1 1.103 3.667 6.65 6.65 0 0 1-1.926 4.658 6.549 6.549 0 0 1-4.623 1.939Zm33.225-12.708v4.61h7.986v3.026h-7.986v4.582h9.159v3.001h-12.109V.513h12.109v2.975h-9.159ZM119.694.49v18.242h-2.788l-8.26-12.43v12.43h-3.002V.49h2.691l.337.451 8.02 11.893V.489h3.002Zm-37.478 0v3.025h-5.74v15.217h-3.004V3.515h-5.74V.489h14.484ZM66.285 13.744a5.375 5.375 0 0 1-.603 2.29 5.332 5.332 0 0 1-1.527 1.803c-1.24.922-2.824 1.37-4.52 1.37h-.01a2.426 2.426 0 0 1-.402-.028c-1.805-.067-3.476-.659-4.708-1.819a6.013 6.013 0 0 1-1.867-3.699v-1.186h2.916l.08.976c.124.702.47 1.345.988 1.831.633.576 1.548.92 2.79.966 1.241.047 2.224-.236 2.878-.715a2.274 2.274 0 0 0 .987-1.843v-.017c.036-.766-.265-1.358-1.061-1.891-.748-.504-1.777-.821-2.764-1.126l-.177-.055-.545-.157-.418-.136c-.906-.279-2.142-.669-3.177-1.392-1.322-.908-2.05-2.191-1.99-3.77a4.776 4.776 0 0 1 .578-2.177 4.733 4.733 0 0 1 1.509-1.663C56.459.439 58.123-.006 59.855.05c2.762.113 5.052 1.524 6.017 3.91l.01.025.31.938-2.837.784-.283-.669c-.491-1.162-1.695-1.969-3.32-2.007-1.24-.024-2.144.24-2.72.645a1.93 1.93 0 0 0-.874 1.617 1.15 1.15 0 0 0 .17.675c.197.276.453.504.75.665.769.454 1.848.808 2.915 1.123l.285.077h.012l.112.037c1.035.321 2.444.76 3.61 1.552 1.547.968 2.364 2.478 2.273 4.321ZM41.19.49h-5.953v18.242h5.953c5.015 0 9.117-4.092 9.117-9.11a9.21 9.21 0 0 0-2.686-6.464A9.07 9.07 0 0 0 41.191.49Zm0 15.243h-2.976V3.489h2.977c1.61 0 3.156.645 4.296 1.793a6.146 6.146 0 0 1 1.78 4.329 6.15 6.15 0 0 1-1.78 4.329 6.052 6.052 0 0 1-4.297 1.793ZM22.593 3.488v4.61h7.959v3.026h-7.96v4.582h9.133v3.001h-12.11V.513h12.11v2.975h-9.132Zm-6.09 15.222h-3.528l-3.851-6.365h-4.76l-1.771-2.97h7.333A2.914 2.914 0 0 0 12 8.508a2.957 2.957 0 0 0 .859-2.09 2.974 2.974 0 0 0-.86-2.09 2.932 2.932 0 0 0-2.073-.865h-8.1L.057.52h9.87a5.838 5.838 0 0 1 3.666 1.319 5.917 5.917 0 0 1 2.04 3.341 5.95 5.95 0 0 1-.487 3.892 5.886 5.886 0 0 1-2.798 2.728l4.156 6.91Z" fill="#fff"/><path d="M0 16.148h2.647v2.647H0v-2.648ZM113.735 32h2v2h-2v-2Z" fill="#E70000"/><path d="M69.383 24.85c-.903 0-1.785.27-2.535.775a4.589 4.589 0 0 0-1.68 2.063 4.627 4.627 0 0 0 .988 5.008 4.532 4.532 0 0 0 4.973.997A4.57 4.57 0 0 0 73.175 32a4.618 4.618 0 0 0-.568-5.802 4.55 4.55 0 0 0-3.225-1.348Zm2.035 6.648a2.883 2.883 0 0 1-2.035.854c-.57 0-1.128-.17-1.602-.49a2.902 2.902 0 0 1-1.062-1.304 2.929 2.929 0 0 1 .625-3.169 2.862 2.862 0 0 1 3.142-.63c.527.22.978.593 1.295 1.072.316.478.486 1.04.485 1.615a2.93 2.93 0 0 1-.848 2.052Zm19.702-6.375v-.15h-7.01v1.702h2.66v7.049h1.69v-7.05h2.66v-1.551ZM77.567 28.6v-1.925h4.705v-1.702h-6.396v8.751h1.69V30.3h3.645v-1.701h-3.644Zm-15.411 4.884c-.605.45-1.373.665-2.184.665h-.004l2.188-.665Zm0 0a2.62 2.62 0 0 0 1.047-2.01c.044-.907-.362-1.656-1.121-2.133-.56-.38-1.232-.588-1.707-.736h-.002l-.051-.017-.023-.007h-.01l-.11-.03c-.495-.146-.977-.306-1.315-.505l-.005-.003a.874.874 0 0 1-.294-.26.382.382 0 0 1-.054-.22v-.008a.752.752 0 0 1 .338-.625l.004-.002c.232-.164.617-.283 1.17-.272.704.017 1.202.363 1.403.838l.131.31.051.122.127-.035 1.314-.364.152-.042-.05-.15-.143-.434-.003-.01-.005-.01c-.473-1.17-1.593-1.851-2.92-1.906h-.001c-.828-.027-1.632.185-2.228.608a2.343 2.343 0 0 0-1.03 1.898c-.03.788.337 1.428.986 1.874.5.35 1.094.536 1.512.665l.192.062.005.002.251.072.08.025c.464.144.917.285 1.241.503.171.114.279.228.343.345a.74.74 0 0 1 .083.4v.013a.912.912 0 0 1-.393.732l-.003.002c-.269.197-.688.323-1.24.303-.55-.02-.935-.172-1.196-.408a1.377 1.377 0 0 1-.41-.757l-.036-.446-.011-.137h-1.639v.717c.081.691.404 1.331.912 1.805l4.658.231Zm67.186-4.847v-.15h-3.687V26.65h4.23v-1.677h-5.91v8.728h5.91v-1.69h-4.23v-1.823h3.687v-1.551Zm-7.427 5.063h.265l-.136-.228-1.842-3.062c.525-.281.951-.72 1.218-1.259a2.904 2.904 0 0 0-.759-3.533 2.853 2.853 0 0 0-1.792-.645h-4.838l.136.227.821 1.364.044.073h3.836a1.197 1.197 0 0 1 .854.357 1.213 1.213 0 0 1 .355.862 1.212 1.212 0 0 1-1.209 1.219h-3.661l.135.227.821 1.376.044.073h2.205l1.74 2.876.044.073h1.719Zm-25.215.056h.111l.033-.106 1.567-5.067 1.568 5.067.032.106h1.083l.033-.106 2.566-8.296.06-.194h-1.568l-.033.105-1.629 5.26-1.57-5.258-.031-.107h-1.015l-.032.107-1.57 5.258-1.635-5.26-.033-.105h-1.568l.06.194 2.573 8.297.032.105h.966Zm8.551 0h.104l.037-.097.684-1.813h3.085l.69 1.813.037.097h1.64l-.078-.203-3.164-8.297-.037-.096h-1.255l-.037.096-3.164 8.297-.078.203h1.536Zm1.397-3.393.971-2.7.975 2.7h-1.946Z" fill="#6A6A6A" stroke="#6A6A6A" stroke-width=".3"/></svg>