<svg width="483" height="232" fill="none" xmlns="http://www.w3.org/2000/svg"><path d="m144.98 49.97-6.73 11.058.468.285 6.731-11.058-.469-.285Zm18.948 14.052-.494-.22 5.246-11.593v-.018l7.421-11.283.457.311-7.403 11.246-5.227 11.557Zm-325.646 163.827a.277.277 0 0 1-.256-.165.28.28 0 0 1 .147-.365l68.379-28.618c.036-.019.073-.019.128-.019l86.365 4.572 87.114-.348 88.065-1.938 25.224-21.431.036-.037 18.553-10.844 14.074-13.678 11.059-22.035 8.974-21.87 7.44-16.915c0-.018.018-.018.018-.037l6.288-9.82.109-.11 5.356-2.413c.055-.018.109-.036.164-.018l36.539 7.717 16.085 3.017 21.093 2.688 39.792 3.51c.036 0 .073.02.109.038l4.149 2.249a.165.165 0 0 1 .11.109l4.88 8.924c0 .018.019.018.019.037l5.83 15.488 7.202 19.329 9.267 16.841 12.119 20.371 77.555 5.504 78.304 7.315 78.889 8.631 66.277 7.772a.274.274 0 0 1 .238.311.274.274 0 0 1-.311.237l-66.277-7.771-78.889-8.631-78.305-7.315-77.682-5.504c-.092 0-.165-.055-.22-.128L410.101 162l-9.267-16.878c0-.019-.019-.019-.019-.037l-7.201-19.347-5.831-15.47-4.826-8.832-4.039-2.176-39.737-3.511-21.13-2.688-16.103-3.018-36.447-7.698-5.209 2.34-6.233 9.747-7.439 16.878-8.975 21.871v.018l-11.077 22.09a.227.227 0 0 1-.055.073l-14.129 13.733c-.018.018-.036.037-.055.037l-18.552 10.843-25.297 21.45c-.055.037-.11.055-.165.073l-88.156 1.939-87.133.347-86.31-4.571-68.324 28.618c-.037.018-.073.018-.11.018Z" fill="#095BB1"/><path d="m44.99 185.919-73.386-2.999-72.894-6.291-60.465-6.93a.275.275 0 0 1-.238-.311.274.274 0 0 1 .311-.238l60.465 6.912 72.875 6.291 73.351 2.999 73.863-1.756 28.423-10.002 21.586-14.392 16.908-24.247a.26.26 0 0 1 .219-.11l51.362-2.066 51.746-2.378 104.698-5.065 52.952-2.45 53.355-2.286 53.756-2.066c.073 0 .146.018.201.073l26.102 24.247 60.446 1.244 60.976 1.81c.055 0 .11.018.147.055l22.08 14.812c.128.091.164.256.073.384-.091.128-.256.165-.384.073l-22.007-14.775-60.885-1.811-60.556-1.243a.235.235 0 0 1-.183-.073l-26.101-24.266-53.647 2.066-53.354 2.286-52.934 2.469-104.699 5.065-51.764 2.377-51.234 2.048-16.871 24.175a.14.14 0 0 1-.073.073l-21.66 14.446c-.018.018-.036.018-.054.037L119 184.126c-.019.019-.055.019-.092.019l-73.917 1.774Z" fill="#095BB1"/><path d="M613.502 232a.294.294 0 0 1-.202-.092l-34.966-36.554-33.23-29.843-25.315-22.602-.019-.018-19.795-21.834-16.048-15.141-13.38-6.62a.298.298 0 0 1-.128-.365.297.297 0 0 1 .365-.128l13.417 6.638c.018.018.055.036.073.054l16.085 15.178.018.018 19.777 21.816 25.316 22.583 33.23 29.862.018.018 34.985 36.573a.266.266 0 0 1 0 .384.343.343 0 0 1-.201.073Z" fill="#095BB1"/><path d="M723.683 203.967a.288.288 0 0 1-.164-.055l-41.383-29.459-68.653-4.937-68.233-3.932-67.739-2.542a.293.293 0 0 1-.201-.091l-17.273-19.457c0-.018-.019-.018-.019-.036l-13.489-20.152-10.912-14.83-9.011-7.296-43.503.293-43.356-1.189-43.118-2.432-42.9-3.31-42.698-3.675-42.497-3.53-42.277-2.926-41.93-1.901-22.794 23.296-27.527 27.283c-.018.019-.018.019-.037.019L-.01 158.032a.14.14 0 0 1-.091.036l-43.667 12.508h-.055l-57.43 6.035-60.41 11.264a.258.258 0 0 1-.311-.219.257.257 0 0 1 .219-.311l60.447-11.283h.018l57.412-6.034 43.594-12.49 33.998-24.869 27.508-27.265 22.866-23.388a.294.294 0 0 1 .202-.092l42.058 1.92 42.296 2.926 42.497 3.53 42.698 3.675 42.899 3.31 43.101 2.432 43.337 1.189 43.594-.293c.073 0 .128.018.183.055l9.121 7.388.055.054 10.93 14.867 13.471 20.152 17.182 19.346 67.63 2.542 68.233 3.932 68.726 4.937c.055 0 .091.018.146.055l41.437 29.514c.128.091.146.256.073.384-.109.091-.201.128-.274.128Z" fill="#095BB1"/><path d="M42.706 232a.261.261 0 0 1-.219-.11c-.091-.128-.073-.292.055-.384l37.434-28.563c.018-.018.036-.018.036-.037l38.769-19.292c.036-.018.073-.018.109-.036l74.685-4.151 75.545-1.646 76.33.896 77.043 3.328a.26.26 0 0 1 .256.293.26.26 0 0 1-.293.256l-77.043-3.328-76.312-.896-75.526 1.645-74.63 4.151-38.695 19.256-37.416 28.545c-.018.055-.073.073-.128.073Zm-204.424-86.567a.276.276 0 0 1-.256-.183c-.055-.147.018-.293.164-.348l46.336-16.512c.037-.018.055-.018.091-.018l49.407.749 49.772 1.555 50.1 1.956 50.412 1.811 50.704 1.005 51.015-.585c.146 0 .274.128.274.274a.281.281 0 0 1-.274.275l-51.015.585-50.722-1.006-50.412-1.81-50.1-1.957-49.773-1.554-49.351-.75-46.281 16.494c-.036 0-.055.019-.091.019Zm0-17.409a.276.276 0 0 1-.256-.165.29.29 0 0 1 .128-.365l42.844-19.365c.037-.019.074-.019.092-.019l44.49-2.377 34.015-21.322a.339.339 0 0 1 .128-.036L.868 82.144l25.699-16.348c.018-.018.036-.018.055-.018l22.263-8.028c.036-.018.055-.018.091-.018L84.6 57.53l35.862 1.627a.26.26 0 0 1 .256.292.26.26 0 0 1-.292.256L84.582 58.08h-.84l-34.73.183-22.19 7.991L1.106 82.638a.339.339 0 0 1-.128.036l-41.144 2.231-33.998 21.34a.345.345 0 0 1-.128.037l-44.508 2.377-42.807 19.328a.252.252 0 0 1-.11.037Z" fill="#095BB1"/><path d="M689.374 232a.261.261 0 0 1-.183-.073l-31.968-27.942-43.887-34.543-33.357-26.076-60.026-.402-59.679.603-59.222 1.646-58.746 2.67-58.253 3.474-57.723 4.06-57.229 4.261-56.736 2.048-29.008 14.775a.346.346 0 0 1-.128.037l-63.718-1.628-63.353-4.334-62.968-5.87-54.945-5.595a.268.268 0 0 1-.238-.293.268.268 0 0 1 .293-.238l54.926 5.596 62.95 5.87 63.335 4.334 63.645 1.627 29.008-14.775c.036-.018.073-.037.109-.037l56.773-2.066 57.211-4.261 57.741-4.059 58.253-3.475 58.746-2.651 59.222-1.646 59.697-.603 60.118.402c.054 0 .127.018.164.055l33.449 26.131 43.886 34.561 31.988 27.941a.266.266 0 0 1 .018.384c-.018.055-.092.092-.165.092Zm-851.092-120.488a.276.276 0 0 1-.256-.165.291.291 0 0 1 .128-.366l40.011-18.579c.019-.018.055-.018.092-.018l40.523-4.498 31.932-16.02c.036-.017.055-.017.091-.036l37.782-3.712 24.913-8.503c.018 0 .055-.018.073-.018l35.405-1.884c.146 0 .274.11.293.256 0 .147-.11.275-.256.293l-35.369 1.883-24.913 8.503c-.018 0-.037.019-.055.019l-37.763 3.712-31.932 16.019c-.037.018-.055.018-.092.036l-40.523 4.499-39.974 18.542c-.037.018-.073.037-.11.037Zm879.259 2.834a.353.353 0 0 1-.146-.037l-36.959-23.552-30.853-10.735-45.203 5.834-44.928 5.504-44.58 4.608c-.147.018-.293-.091-.293-.238-.018-.146.092-.292.238-.292l44.562-4.608 44.928-5.504 45.276-5.834c.036 0 .091 0 .128.018l30.945 10.753c.018 0 .036.018.055.036l36.922 23.516 6.05-.128a.27.27 0 0 1 .274.275.27.27 0 0 1-.274.274l-6.142.11Z" fill="#095BB1"/><path d="M-161.718 112.024c-.146 0-.256-.11-.274-.256-.019-.147.109-.275.255-.293l42.79-3.365 37.69-20.206a.26.26 0 0 1 .11-.036l40.833-3.511 28.843-16.22a.26.26 0 0 1 .11-.037l38.092-2.359 38.33-.75 19.484-7.46c.147-.055.293.018.348.164.055.147-.019.293-.165.348l-19.521 7.46c-.037.019-.055.019-.091.019l-38.367.75-38.019 2.358-28.843 16.22a.259.259 0 0 1-.11.037l-40.833 3.51-37.69 20.225a.252.252 0 0 1-.11.037l-42.844 3.365h-.018Zm785.016-31.709a.276.276 0 0 1-.274-.237c-.018-.147.073-.293.238-.311l41.784-6.455h.055l30.104.695 28.46-2.615a.259.259 0 0 1 .292.256.26.26 0 0 1-.256.292l-28.459 2.615h-.037l-30.104-.695-41.766 6.455h-.037Z" fill="#095BB1"/><path d="M665.083 73.86a.292.292 0 0 1-.274-.237.283.283 0 0 1 .237-.311l42.004-5.047 16.615-1.226c.146-.018.274.11.292.256.018.147-.109.275-.256.293l-16.596 1.225-41.986 5.047h-.036ZM-93.339 199.213h-.018l-68.379-6.474a.294.294 0 0 1-.256-.292.294.294 0 0 1 .292-.256l68.324 6.473 64.925-16.293h.018l47.871-7.991 36.32-14.026 28.33-25.838 22.94-27.521c.055-.073.146-.11.219-.092l46.116 1.774 46.372 1.427 46.628.804 46.921.329 47.213-.311 47.523-1.06 47.853-1.847 48.2-2.597 48.565-3.273 48.931-3.785a.35.35 0 0 1 .183.055l26.485 18.341.018.018 32.536 27.338 41.546 29.788 41.364 3.255a.296.296 0 0 1 .256.293.295.295 0 0 1-.292.256l-41.437-3.255c-.055 0-.092-.018-.146-.055l-41.62-29.843s-.018 0-.018-.018L607.89 117.18l-26.394-18.286-48.84 3.785-48.565 3.274-48.2 2.596-47.852 1.847-47.524 1.061-47.213.311-46.92-.33-46.628-.804-46.372-1.426-45.97-1.774-22.867 27.429c0 .018-.018.018-.018.018l-28.386 25.876c-.018.018-.055.036-.091.054l-36.392 14.063c-.019 0-.037.018-.055.018l-47.871 7.991-64.961 16.311c-.073.019-.092.019-.11.019ZM-161.718 97.98a.294.294 0 0 1-.275-.238.285.285 0 0 1 .238-.31l39.975-5.048 34.984-15.854c.019-.018.055-.018.073-.018l37.508-4.663 27.582-8.96c.018 0 .036-.019.054-.019l35.15-3.255a.259.259 0 0 1 .292.256.26.26 0 0 1-.256.293l-35.13 3.255-27.564 8.96c-.018 0-.037 0-.055.018l-37.49 4.663-34.966 15.836c-.018.019-.054.019-.073.019l-40.011 5.065h-.036Z" fill="#095BB1"/><path d="M723.683 147.152c-.018 0-.018 0 0 0l-22.08-.732a.293.293 0 0 1-.165-.055l-38.987-30.739-31.695-20.828-26.43-8.942-22.483 1.134-41.162 5.961-13.947 1.555-11.954 1.39-3.308.31-40.797 3.09-.549.019-25.772 1.097-1.718.055-15.866.695h-.018l-7.75-.384-39.993-1.573a.26.26 0 0 1-.256-.293.26.26 0 0 1 .293-.256l40.011 1.573 7.75.384 15.847-.695 1.718-.055 26.303-1.115 40.779-3.09 3.308-.311 12.319-1.445 13.545-1.518 41.163-5.961h.018l22.555-1.134c.037 0 .073 0 .11.019l26.522 8.978c.018 0 .036.018.055.037l31.731 20.846s.018 0 .018.018l38.933 30.703 21.989.731c.146 0 .274.128.255.275-.036.146-.146.256-.292.256ZM-18.545 46.01c-.146 0-.274-.11-.274-.256 0-.146.11-.274.256-.292l38.165-1.555c.146 0 .274.11.293.256 0 .147-.11.275-.256.293l-38.184 1.554ZM248.429 232c-.037 0-.055 0-.092-.018a.29.29 0 0 1-.182-.348l9.157-28.27c0-.019 0-.019.018-.037l11.552-25.363c0-.018.018-.018.018-.037l8.445-13.074 6.434-13.88 5.081-20.37 4.131-19.183 3.418-13.916c0-.018 0-.018.019-.036l2.869-7.187c.037-.073.092-.146.183-.164l2.431-.659a.272.272 0 1 1 .128.53l-2.285.623-2.796 7.04-3.418 13.897-4.131 19.183-5.1 20.407c0 .018-.018.037-.018.055l-6.452 13.916c0 .018-.019.018-.019.036l-8.444 13.075-11.534 25.327-9.157 28.252c-.037.128-.128.201-.256.201Zm-62.421-96.607a.348.348 0 0 1-.128-.036.272.272 0 0 1-.109-.366l13.708-24.741 11.388-19.768c0-.018.018-.018.018-.036l9.633-12.197c.018-.037.055-.055.091-.073l8.262-3.895c.128-.073.292 0 .365.128.074.146 0 .292-.127.365l-8.207 3.859-9.578 12.124-11.369 19.749-13.709 24.741c-.037.092-.128.146-.238.146Z" fill="#095BB1"/><path d="M581.789 86.99a.274.274 0 0 1-.274-.238c-.019-.146.073-.292.219-.31l41.492-6.675h.036l26.321-.293 45.568-5.45c.037 0 .091 0 .128.02l28.459 10.093c.146.055.22.201.165.348-.055.146-.201.219-.348.164l-28.404-10.076-45.513 5.45h-.036l-26.304.292-41.472 6.675h-.037Zm-27.893 32.074c-.055 0-.128-.018-.165-.055l-21.239-16.348-17.785-6.73-3.253.312a.26.26 0 0 1-.293-.256.26.26 0 0 1 .256-.293l3.308-.31a.33.33 0 0 1 .128.017l17.895 6.766c.018.019.055.019.073.037l21.203 16.311 54.049-1.81 54.542-1.573 54.945-1.335c.055 0 .128.019.164.055l6.142 4.608c.128.092.146.256.055.384-.092.128-.256.147-.384.055l-6.05-4.535-54.854 1.335-54.542 1.573-54.195 1.792ZM349.178 232c-.146 0-.274-.11-.274-.256l-1.298-22.383-2.412-30.355-1.81-16.403-1.353-14.994-1.005-19.457-.804-16.969-.695-11.155-.621-4.572a.284.284 0 0 1 .237-.31.283.283 0 0 1 .311.237l.622 4.572v.018l.694 11.173.804 16.97 1.006 19.438 1.352 14.976 1.81 16.403 2.413 30.355 1.297 22.383c.019.183-.109.329-.274.329Zm60.1-161.175-24.347-.494-24.273-1.28-24.201-1.865-24.127-2.195-24.054-2.12-24-1.592-23.926-1.664-23.872-2.176-47.596-4.828-23.689-2.23a.296.296 0 0 1-.256-.293.295.295 0 0 1 .293-.256l23.688 2.23 47.579 4.829 23.871 2.176 23.926 1.664 24 1.59 24.072 2.122 24.128 2.176 24.182 1.865 24.255 1.28 24.329.494 24.419-.384 24.53-1.28 24.639-2.067 24.749-2.651 24.859-2.962 24.968-2.89 25.059-2.816a.284.284 0 0 1 .311.238.284.284 0 0 1-.238.31l-25.059 2.817-24.968 2.89-24.877 2.961-24.712 2.67-24.658 2.067-24.548 1.28-24.456.384Zm305.759-35-8.718-.201-14.696-.275a.281.281 0 0 1-.274-.274c0-.146.128-.274.274-.274l1.663.036 13.033.238 8.7.201.841-.018a.27.27 0 0 1 .274.274.27.27 0 0 1-.274.275l-.823.018Zm-208.098 9.563-7.275-.182-20.636-.878-20.581-2.195a.142.142 0 0 1-.092-.036l-4.971-2.505c-.019 0-.019-.019-.037-.019l-4.533-3.09-18.845-3.986-18.881-4.28a.291.291 0 0 1-.128-.073l-2.852-2.889c-.018-.018-.018-.018-.018-.036l-2.596-3.585-2.431-1.17c-.128-.073-.201-.238-.128-.366.074-.128.238-.2.366-.128l.311.147 2.193 1.06c.037.019.073.055.11.092l2.614 3.62 2.778 2.817 18.808 4.26 18.9 3.987c.037 0 .073.018.092.036l4.569 3.109 4.917 2.468 20.508 2.195 20.618.878 7.257.182 21.659-1.353 21.77-2.377 21.861-2.597 21.934-2.212h.036l11.936.494h.036l12.942 2.578 24.109-2.36 24.2-1.572 1.207-.036c.146-.019.274.11.274.274a.27.27 0 0 1-.274.274l-1.189.037-24.182 1.573-24.127 2.358h-.073l-12.96-2.578-11.899-.494-21.897 2.195-21.861 2.596L528.69 44l-21.751 1.39Z" fill="#095BB1"/><path d="m429.183 56.854-23.324-.366-23.231-1.152-23.159-1.792-23.104-2.23-23.049-2.378-22.994-2.121-22.921-1.408-22.866-1.08-22.811-1.151-22.738-1.043-22.684-.804a.26.26 0 0 1-.256-.293.26.26 0 0 1 .293-.256l22.683.805 22.757 1.042 22.811 1.152 22.866 1.08 22.939 1.407 22.995 2.121 23.048 2.377 23.104 2.231 23.159 1.793 23.213 1.152 23.305.365 23.396-.475 23.488-1.262c.146 0 .274.11.293.256 0 .146-.11.274-.256.293l-23.488 1.28-23.469.457Zm164.998-20.005h-.018l-10.93-.768h-.037l-9.98-2.323c-.018 0-.036-.018-.055-.018l-9.139-4.352c-.018 0-.037-.018-.037-.018l-8.389-6.145-.019-.018-7.695-6.73-7.348-1.078a.284.284 0 0 1-.237-.31.284.284 0 0 1 .311-.239l7.421 1.098c.054 0 .109.036.146.073l7.75 6.784 8.353 6.108 9.084 4.333 9.925 2.323 10.876.75 21.952-1.39 21.989-.275a.27.27 0 0 1 .274.275.281.281 0 0 1-.274.274l-21.971.274-21.952 1.372Z" fill="#095BB1"/><path d="M702.461 44.968c-.018 0-.054 0-.073-.019l-18.278-5.577-25.48 3.822c-.055 0-.091 0-.128-.018l-15.317-5.633-14.093-1.645-12.941-.457h-.018l-11.826-1.445c-.018 0-.036 0-.055-.018l-10.729-3.42-20.198 3.164-20.197 3.785-20.125 3.675-20.033 2.615h-.036l-19.887.403h-.018l-19.796-1.573h-.018l-19.704-3.017-19.722-3.968-19.832-4.517-18.553-4.279-.841-.201-19.576-4.17-.822-.146-18.735-3.291-14.623-1.774a.274.274 0 0 1-.238-.31.285.285 0 0 1 .311-.239l1.17.147 13.471 1.627 19.558 3.438 19.576 4.17.859.2 18.754 4.334 19.612 4.462 19.649 3.968 19.686 3.017 19.759 1.573 19.868-.384 20.015-2.615 20.125-3.675 20.215-3.786 20.271-3.181c.037 0 .091 0 .128.018l10.766 3.42 11.789 1.426 12.941.457h.019l14.129 1.646c.018 0 .036 0 .055.018l15.28 5.632 25.462-3.822h.128l18.278 5.578 21.148-4.59a.272.272 0 1 1 .128.53l-21.203 4.608c-.018.018-.036.037-.055.037ZM236.036 76.237h-.073a.272.272 0 0 1-.201-.329l4.332-16.622 4.204-15.287 3.857-11.74v-.018l3.546-8.266c.055-.146.219-.2.365-.146.146.055.201.22.146.366l-3.545 8.247-3.857 11.703-4.204 15.27-4.332 16.621c0 .128-.11.201-.238.201ZM83.156 27.468c-.128 0-.237-.073-.256-.201a.273.273 0 0 1 .201-.33l18.297-4.992 12.247-3.127.694-.219 1.535-.42 14.221-3.164 14.403-3.09 14.404-2.615 4.898-3.457.11-.054 14.092-2.085h.019L192.15 2.69c.146-.018.274.11.292.256.019.146-.109.274-.256.293l-14.129 1.005-14.019 2.067-4.881 3.456-.109.055-14.44 2.615-14.385 3.09-14.202 3.145-1.517.42-.695.22-12.246 3.127-18.297 4.974c-.055.055-.073.055-.11.055Z" fill="#095BB1"/><path d="M723.683 32.478c-.036 0-.054 0-.091-.018l-17.821-5.998-18.589-5.924-18.626-4.865-18.68-3.273-18.736-1.371-18.79.621-18.845 2.506a.206.206 0 0 1-.201-.055l-8.993-6.51-18.077 3.913-18.15 4.956-18.096 5.211-18.022 4.572h-.018l-17.932 2.816h-.036l-17.785.585h-.018l-17.712-1.024-17.657-2.011-17.62-2.47c-.018 0-.055-.017-.073-.017l-3.089-1.463c-.146-.073-.201-.22-.128-.366.073-.128.219-.201.365-.128l3.053 1.445 17.565 2.45 17.639 2.012 17.675 1.024 17.767-.586 17.876-2.798 18.004-4.553 18.096-5.211 18.168-4.956 18.205-3.968a.242.242 0 0 1 .22.055l9.011 6.528 18.735-2.505h.018l18.827-.622h.037l18.771 1.371h.019l18.698 3.274h.019l18.644 4.864 18.607 5.943 17.821 5.998c.146.055.22.201.165.347 0 .128-.11.201-.22.201ZM-115.62 42.645c-.092 0-.202-.054-.238-.146-.073-.128-.018-.292.11-.366l16.085-8.63 15.39-11.137 14.367-9.911c.018-.018.036-.018.073-.037l13.635-4.48c.147-.055.293.037.348.183.054.146-.037.293-.183.347l-13.6 4.462-14.33 9.893-15.39 11.136c-.018 0-.018.019-.036.019l-16.104 8.65c-.036.017-.073.017-.127.017Zm697.171 56.249c-.036 0-.055 0-.091-.018l-22.08-7.534-18.754 1.61a.259.259 0 0 1-.292-.257.259.259 0 0 1 .256-.292l18.808-1.61c.037 0 .073 0 .11.019l22.08 7.534 98.94-8.12 43.119-3.163c.146-.018.274.11.292.256.019.146-.109.274-.256.293l-43.118 3.163-98.995 8.137c0-.018 0-.018-.019-.018Zm-628.08-32.476a.276.276 0 0 1-.255-.165.282.282 0 0 1 .146-.366l16.798-7.15 17.986-8.1h.018l16.359-5.633c.018 0 .055-.018.073-.018l15.006-1.097 13.6-2.359 12.374-5.65 11.387-5.706c.019 0 .019-.018.037-.018l10.583-3.749c.018 0 .055-.018.073-.018l9.87-.731c.147-.019.275.11.293.256.018.146-.11.274-.256.292l-9.834.732-10.528 3.73-11.388 5.705-12.41 5.67c-.019.017-.037.017-.074.017l-13.654 2.378h-.018L4.67 45.535l-16.304 5.614-17.968 8.082-16.797 7.15c-.055.037-.092.037-.129.037Zm544.64 30.812a.285.285 0 0 1-.238-.146l-7.787-14.026s0-.018-.018-.018l-7.421-16.11-6.818-11.978a.258.258 0 0 1 .11-.366.258.258 0 0 1 .366.11l6.817 11.996s0 .018.019.018l7.421 16.11 7.768 14.008c.073.128.018.292-.11.365-.018.037-.073.037-.109.037Z" fill="#095BB1"/><path d="M-114.981 42.682a.297.297 0 0 1-.274-.201.273.273 0 0 1 .201-.33l17.566-4.315 18.99-3.84 19.12-2.926 19.21-1.92 19.302-.95 19.339-.147 12.612-6.327c.018 0 .036-.018.055-.018l11.844-3.401c.036 0 .055-.019.091-.019l11.113.42a.26.26 0 0 1 .256.294.26.26 0 0 1-.292.256l-11.077-.421-11.77 3.383-12.65 6.345c-.036.018-.073.037-.127.037l-19.394.146-19.283.95-19.174 1.921-19.065 2.907-18.954 3.84-17.566 4.316h-.073Z" fill="#095BB1"/><path d="M-140.296 41.292a.274.274 0 0 1-.256-.183c-.055-.146.036-.292.183-.347l4.094-1.317 17.273-6.07 17.364-5.889 17.475-5.157 17.602-4.023h.018l17.712-2.651h.018l17.821-1.17h.018l17.931.22 18.041 1.407 18.096 2.195 18.132 2.432 6.909.768a.273.273 0 0 1 .238.31.273.273 0 0 1-.311.238l-6.91-.768-18.132-2.432-18.077-2.194-18.004-1.408-17.913-.22-17.803 1.17-17.693 2.652-17.566 4.023-17.437 5.157-17.346 5.888-17.273 6.071-4.094 1.317c-.055-.019-.074-.019-.11-.019Zm351.803 30.374c-.037 0-.055 0-.092-.018-.146-.055-.219-.202-.164-.348l4.971-14.227 5.264-14.263v-.018l4.826-10.551c0-.019.018-.019.018-.037l4.46-6.839c.037-.055.073-.073.128-.11l4.131-1.719a.283.283 0 0 1 .366.147.282.282 0 0 1-.147.365l-4.057 1.683-4.406 6.747-4.825 10.533-5.264 14.245-4.972 14.227c-.018.11-.128.183-.237.183ZM444.007 232a.275.275 0 0 1-.256-.183l-4.972-13.422-16.523-35.951a.29.29 0 0 1 .128-.365.29.29 0 0 1 .365.127l16.524 35.97v.018l4.972 13.44a.266.266 0 0 1-.165.348c0 .018-.036.018-.073.018ZM684.129 39.372h-.055l-16.67-3.383-15.299-.512-13.983-.292h-.036l-12.722-2.067c-.018 0-.037 0-.055-.018l-11.588-4.553c-.019 0-.037-.018-.055-.018l-10.583-6.712-.019-.018-9.651-7.625-18.735 4.023-18.827 5.065-18.771 5.34-18.699 4.663h-.018l-18.553 2.852h-.036l-18.425.366a.26.26 0 0 1-.219-.11l-5.1-6.784-4.789-2.25-17.053-.804-17.054-1.719-33.998-4.333-16.944-1.847-16.925-1.226a.295.295 0 0 1-.256-.292.295.295 0 0 1 .292-.256l16.944 1.243 16.962 1.847 19.266 2.469 14.732 1.865 17.035 1.719 17.091.805c.036 0 .073.018.109.018l4.899 2.304c.036.018.073.055.11.091l5.044 6.73 18.279-.348 18.516-2.852 18.662-4.663 18.772-5.34 18.844-5.065 18.882-4.06a.24.24 0 0 1 .219.055l9.743 7.699 10.564 6.692 11.534 4.535 12.685 2.067 13.965.292 15.317.512h.037l16.651 3.383 25.553-2.999 5.301-.548h.018l.859-.019 7.787-.548c.146-.018.274.11.292.256.019.146-.109.274-.256.292l-7.786.55-.859.017-5.301.53-25.59 3c-.036-.019-.054-.019-.054-.019Z" fill="#095BB1"/><path d="M470.108 99.333a.276.276 0 0 1-.256-.165l-5.684-13.093-6.16-17.097-5.648-12.746-5.173-7.625-22.19-.841-22.263-1.61-22.226-2.212-22.154-2.652-22.098-2.797-22.044-2.615-21.988-2.048-21.934-.97-21.88-.256-21.824.019-21.751.31a.281.281 0 0 1-.274-.274c0-.146.128-.274.274-.274l21.751-.31 21.824-.02 21.898.257 21.952.97 22.007 2.029 22.062 2.615 22.098 2.798 22.136 2.651 22.189 2.213 22.263 1.59 22.318.842c.092 0 .165.055.22.128l5.264 7.772a.056.056 0 0 1 .018.036l5.666 12.782v.018l6.16 17.08 5.685 13.075a.282.282 0 0 1-.147.365c-.018.055-.054.055-.091.055Zm39.573-2.981a.274.274 0 0 1-.274-.237c-.019-.147.073-.293.219-.311l16.414-2.688 27.6-4.48 27.71-3.767c.055 0 .128 0 .164.036l2.267 1.28c.128.073.183.238.11.366s-.238.183-.366.11l-2.175-1.225-27.619 3.766-27.6 4.48-16.414 2.689c0-.019-.018-.019-.036-.019Zm214.002-26.771c-.018 0-.018 0 0 0l-16.615-.75a.26.26 0 0 1-.256-.292.26.26 0 0 1 .293-.256l16.596.75a.26.26 0 0 1 .256.292c-.018.128-.128.256-.274.256ZM499.664 45.206h-.036l-6.654-.988c-.018 0-.054-.018-.073-.018l-6.105-2.761c-.018-.019-.054-.019-.073-.037l-5.52-4.919-18.241-1.536c-.074 0-.147-.055-.202-.11l-4.459-6.272-4.223-2.048c-.128-.073-.201-.238-.128-.366.073-.128.238-.2.366-.128l4.295 2.067c.037.018.073.055.11.091l4.423 6.217 18.205 1.518c.055 0 .11.037.165.073l5.557 4.956 6.031 2.725 6.599.969 20.709-.768 8.189-.403h.018l8.883.366 22.757-2.395 22.866-2.505 22.939-2.14 22.994-1.426 23.013-.44 4.99.147c.146 0 .274.128.274.274a.281.281 0 0 1-.274.275l-4.972-.147-22.994.44-22.976 1.426-22.921 2.14-22.866 2.504-22.793 2.396h-.037l-8.901-.366-8.189.402-20.746.787Zm217.987-9.528a.29.29 0 0 1-.164-.054l-11.79-9.18-13.106-6.784c-.127-.073-.182-.238-.109-.366s.237-.183.365-.11l.275.146 12.849 6.657c.019 0 .037.018.037.018l11.808 9.198a.27.27 0 0 1 .054.384.301.301 0 0 1-.219.091ZM-90.762 43.14a.297.297 0 0 1-.274-.202.273.273 0 0 1 .201-.33l15.427-3.894 15.939-7.589 14.677-8.759 13.654-7.826c.019 0 .019-.019.037-.019l12.813-4.7c.036-.018.073-.018.11-.018l12.136.549a.26.26 0 0 1 .256.293.26.26 0 0 1-.292.256l-12.082-.549-12.74 4.663-13.636 7.808-14.696 8.76s-.018 0-.018.018l-15.975 7.607c-.018 0-.037.018-.055.018l-15.427 3.895c-.018 0-.036.018-.055.018Z" fill="#095BB1"/><path d="M186.941 67.478c-.037 0-.074 0-.11-.018-.146-.055-.201-.22-.128-.366l5.739-12.453 6.343-12.891s0-.019.018-.019l5.813-9.198c.073-.128.256-.164.383-.091.128.073.165.256.092.384l-5.813 9.198-6.324 12.873-5.721 12.453c-.091.074-.183.128-.292.128Zm503.055-32.074h-.055l-15.5-3.346-20.161-2.853-20.215-1.17-20.235.512-20.27 2.03c-.055 0-.11 0-.165-.037l-9.87-5.504c-.018 0-.018-.018-.037-.018l-9.066-6.876-8.353-6.638-7.987-.548c-.147-.019-.275-.147-.256-.293.018-.146.146-.274.292-.256l8.079.549c.055 0 .11.018.146.054l8.427 6.675 9.048 6.876 9.778 5.449 20.18-2.012h.018l20.271-.512h.018l20.234 1.17h.018l20.179 2.853h.019l15.518 3.347a.3.3 0 0 1 .219.329.29.29 0 0 1-.274.22Zm-851.714 93.809a.281.281 0 0 1-.274-.275c0-.146.128-.274.274-.274l46.262-.311 41.017-22.602a.267.267 0 0 1 .128-.036l44.837-1.207L.813 82.18c.036-.036.11-.054.164-.054l41.437-.805 22.537-16.275a.295.295 0 0 1 .165-.055l38.603.97 38.769 2.651 13.91-5.998a.281.281 0 0 1 .365.146.282.282 0 0 1-.146.366l-13.965 6.016c-.036.019-.091.019-.128.019l-38.823-2.67-38.512-.97-22.537 16.275a.207.207 0 0 1-.147.055l-41.455.823-30.287 22.346a.206.206 0 0 1-.146.055l-44.855 1.207-41.017 22.583a.323.323 0 0 1-.128.037l-46.335.311ZM546.548 232h-.037l-15.536-2.158-91.958-11.283-91.154-8.942-90.277-5.906-89.143-2.231-23.963 30.392a.253.253 0 0 1-.384.036c-.11-.091-.146-.274-.036-.384l24.054-30.501a.261.261 0 0 1 .219-.11l89.29 2.231 90.294 5.906 91.173 8.942 91.976 11.283 15.537 2.158a.283.283 0 0 1 .237.311c-.036.164-.164.256-.292.256ZM678.791 9.017c-.128 0-.237-.073-.256-.201a.277.277 0 0 1 .183-.33l14.897-4.095h.037l10.839-1.134L719.79.514l3.527-.475h.019l.292-.019c.146-.018.274.11.292.256.019.147-.109.275-.256.293l-.292.018-3.509.476-15.299 2.743h-.019l-10.839 1.133-14.878 4.096c.018-.018 0-.018-.037-.018ZM24.117 59.597a.286.286 0 0 1-.238-.146c-.073-.128-.018-.293.11-.366l13.014-7.113 14.038-7.059c.018-.018.037-.018.055-.018l12.868-3 11.716-2.76 10.693-4.005h.018l9.87-2.853c.019 0 .037-.018.055-.018l9.176-.475c.146 0 .274.11.293.256 0 .146-.11.274-.256.292l-9.14.476-9.833 2.834-10.711 4.005c-.019 0-.019 0-.037.018l-11.735 2.761-12.83 2.98-14.002 7.041-12.996 7.113c-.037.037-.091.037-.128.037Zm690.774-23.809c-.018 0-.054 0-.073-.018l-14.458-4.517-19.32-5.175-19.375-3.767-19.448-2.011a.206.206 0 0 1-.146-.055l-11.114-9.253-10.363-6.455-9.926-.183-17.492.75-17.529 2.304a.285.285 0 0 1-.311-.238.285.285 0 0 1 .238-.31l17.529-2.305h.018l17.511-.75 10.016.183c.055 0 .092.019.147.037l10.437 6.51c.018 0 .018.018.036.018l11.058 9.216 19.375 2.012h.019l19.393 3.767h.018l19.339 5.175 14.458 4.517c.146.036.219.2.183.347 0 .11-.092.201-.22.201Z" fill="#095BB1"/><path d="M693.688 4.92a.291.291 0 0 1-.274-.219c-.036-.146.073-.292.22-.329l14.86-2.907h.036l11.296-.988 3.82-.31c.147-.019.275.09.293.255.018.147-.091.275-.256.293l-3.82.31-11.259.97-14.861 2.926h-.055Zm29.995 27.43a.344.344 0 0 1-.128-.036l-12.996-6.528-12.904-4.81-4.972-1.316-17.949-5.815-17.949-4.773-18.005-3.218L620.703 4.5l-18.114.604-18.168 2.432h-.037l-8.7-.183-17.529 3.603-17.492 4.407-17.456 4.644-17.383 4.078h-.018l-17.273 2.597h-.037l-17.181.64a.296.296 0 0 1-.293-.256c0-.146.11-.274.256-.293l17.163-.64 17.255-2.596 17.364-4.078 17.456-4.627 17.511-4.407 17.547-3.584h.055l8.7.183 18.169-2.432h.018l18.151-.604h.036l18.096 1.354h.036l18.041 3.218h.018l17.968 4.773 17.949 5.815 4.972 1.316h.018l12.941 4.828c.018 0 .018 0 .018.018l13.015 6.547a.298.298 0 0 1 .128.365.255.255 0 0 1-.22.128Zm-281.084 68.117a.276.276 0 0 1-.256-.183l-3.966-12.033-4.917-18.011-4.515-13.55-4.185-9.07-3.802-7.132-21.148-3.09-21.258-3.438-21.203-3.475-21.166-3.182-21.13-2.541-21.075-1.482-21.038.019-20.965 1.06c-.146.019-.274-.11-.293-.256 0-.146.11-.274.256-.292l20.984-1.06 21.075-.02 21.093 1.482 21.148 2.542 21.184 3.182 21.203 3.474 21.24 3.438 21.294 3.109a.284.284 0 0 1 .201.146l3.875 7.278 4.204 9.106s0 .019.018.037l4.533 13.587 4.917 18.012 3.966 12.014c.055.146-.036.292-.182.347-.037-.037-.073-.018-.092-.018ZM168.736 16.204c-.147 0-.256-.11-.275-.256-.018-.147.11-.275.256-.293l14.97-.95 15.007-.604 15.043-.293 15.079-.055 15.117.073 15.134.037 15.153-.165 15.189-.585 2.486-.055c.164 0 .274.11.274.275a.27.27 0 0 1-.274.274l-2.468.055-15.189.585-15.171.165-15.134-.037-15.098-.073-15.08.055-15.043.274-15.006.585-14.97.988c.018-.019.018 0 0 0Z" fill="#095BB1"/><path d="M708.567 2.013c-.146 0-.256-.11-.274-.256-.019-.146.091-.292.237-.292L723.354.002c.146-.018.292.091.292.238.019.146-.091.292-.237.292l-14.824 1.463c0 .018-.018.018-.018.018Zm-451.164 8.924h-.036l-10.839-1.262-14.678-1.572-14.641-1.134-14.604-.475-14.568.31a.27.27 0 0 1-.274-.274.27.27 0 0 1 .274-.274l14.586-.311 14.641.475 14.659 1.134 14.696 1.573 10.839 1.261a.274.274 0 0 1 .238.311c-.037.128-.165.238-.293.238Zm-387.537 30.959a.26.26 0 0 1-.219-.11c-.091-.128-.055-.292.073-.384l11.205-7.99 15.39-12.106c.018-.019.037-.019.055-.037l14.604-7.296c.128-.073.293-.019.366.128.073.128.018.292-.128.365l-.165.074-14.421 7.204-15.391 12.106-11.222 8.01a.349.349 0 0 1-.147.036Zm20.272 1.024a.278.278 0 0 1-.275-.238c-.018-.146.092-.292.238-.292l14.677-1.5 19.869-2.194 19.978-1.554 20.07-.933 20.142-.402L4.98 35.77l12.85-7.26s.018 0 .018-.018l11.99-5.486c.019 0 .037-.018.055-.018l11.205-2.286c.146-.036.293.073.33.22.036.146-.074.292-.22.329L30.04 23.536l-11.936 5.468-12.905 7.278a.339.339 0 0 1-.127.037l-20.216.036-20.143.403-20.051.914-19.96 1.554-19.869 2.194-14.677 1.5h-.018Z" fill="#095BB1"/><path d="M-110.886 42.883a.274.274 0 0 1-.256-.183c-.055-.146.036-.292.164-.347l13.453-4.498 16.012-9.198 14.805-10.296 13.874-8.356c.018-.019.055-.019.091-.037l13.142-2.798c.146-.036.293.055.33.22.036.146-.056.292-.22.329l-13.106 2.798-13.8 8.283-14.805 10.295s-.019 0-.019.019l-16.048 9.216c-.018 0-.036.018-.055.018l-13.471 4.517c-.036 0-.055.018-.091.018Zm198.868-16.11a.275.275 0 0 1-.256-.183c-.055-.146.036-.292.183-.347l.292-.092 13.197-4.187c.146-.055.292.036.347.183.055.146-.036.292-.183.347l-13.47 4.28c-.055-.02-.074 0-.11 0Zm-235.388 14.081a.286.286 0 0 1-.22-.11c-.091-.128-.073-.293.055-.384l10.474-8.1c.018 0 .018-.02.036-.02l15.591-8.85c.019-.018.037-.018.055-.018l9.414-2.834a.29.29 0 0 1 .347.183.29.29 0 0 1-.183.347l-9.395 2.834-15.536 8.814-10.456 8.083a.408.408 0 0 1-.182.055Zm534.805 48.842-25.48-.914-25.389-1.774-25.297-2.34-25.242-2.542-25.151-2.231-14.093-1.445a.267.267 0 0 1-.238-.292.267.267 0 0 1 .293-.238l14.093 1.445 25.169 2.23 25.242 2.542 25.297 2.34 25.371 1.775 25.443.914 25.553-.091 25.663-1.17 25.772-2.195 25.9-3.017 26.047-3.566 26.156-3.712 26.266-3.328 26.358-3.11 26.558-4.991 26.741-6.236a.254.254 0 0 1 .201.037l17.09 10.094 11.534 4.023c.146.055.219.2.164.347a.264.264 0 0 1-.347.165l-11.57-4.023c-.018 0-.037-.019-.055-.019l-17.035-10.057-26.65 6.217-26.577 4.992h-.018l-26.357 3.11-26.266 3.327-26.156 3.712-26.029 3.548-25.918 3.035-25.809 2.195-25.681 1.17-25.553.073Zm322.32-53.341c-.147 0-.256-.11-.274-.256-.019-.146.109-.274.255-.293l13.947-1.06c.146-.018.274.11.292.256.018.146-.11.274-.256.292l-13.946 1.061h-.018ZM414.433 21.946a.278.278 0 0 1-.275-.238c-.018-.146.092-.293.238-.293l4.862-.512 14.184-1.737 14.22-1.792 14.257-1.627 14.276-.86h.036l14.239.933h.019l14.22 2.157 13.526 2.67c.146.037.238.165.219.33a.3.3 0 0 1-.329.219l-13.507-2.67-14.203-2.158-14.22-.914-14.257.86-14.239 1.627-14.22 1.792-14.203 1.737-4.862.512c.037-.036.037-.036.019-.036Zm309.25 7.826c-.018 0-.055 0-.073-.018l-13.014-3.95-17.931-6.144c-.147-.055-.22-.201-.165-.348.055-.146.201-.22.347-.164l17.932 6.144 13.014 3.95c.146.036.219.2.182.347-.073.11-.182.183-.292.183Z" fill="#095BB1"/><path d="M415.603 100.668a.292.292 0 0 1-.275-.219l-2.65-11.064-3.674-18.798-3.4-14.318-3.144-10.313-2.888-8.76-2.632-6.363-20.234-4.133-20.344-3.803-20.307-3.073-20.252-1.956-20.234-.512a.281.281 0 0 1-.274-.275c0-.146.128-.274.274-.274l20.252.512h.019l20.288 1.975 20.344 3.072 20.362 3.804 20.381 4.169a.265.265 0 0 1 .201.165l2.686 6.491v.019l2.888 8.777 3.144 10.332 3.4 14.354 3.674 18.799 2.65 11.045a.272.272 0 0 1-.201.329c-.018.018-.036.018-.054.018Zm-513-83.806h-.055l-27.637-4.736-14.531-2.34-14.476-2.085-7.659-.915a.274.274 0 0 1-.238-.31.285.285 0 0 1 .311-.238l7.659.932 14.494 2.085 14.532 2.34 27.655 4.718a.258.258 0 0 1 .219.311.262.262 0 0 1-.274.238Zm777.139-1.39a.274.274 0 0 1-.274-.238c-.018-.146.073-.292.219-.31l15.738-2.652 16.231-3.09c.055 0 .091 0 .146.018l11.954 4.188c.146.054.22.2.165.347-.055.146-.201.22-.348.165l-11.88-4.17-16.159 3.09-15.737 2.652h-.055Z" fill="#095BB1"/><path d="M89.609 28.876c-.147 0-.275-.11-.275-.256 0-.146.11-.274.256-.293l12.777-.713 15.281-.658 15.335-.33 15.372-.182 15.39-.201 15.427-.33 15.445-.548 15.482-.841 15.518-1.17 15.555-1.482 15.592-1.773 15.628-2.012 15.664-2.158 15.72-1.609h.018l15.737-.33h.019l5.94.275a.26.26 0 0 1 .256.293.26.26 0 0 1-.292.256l-5.923-.274-15.719.329-15.701 1.609-15.664 2.158-15.628 2.011-15.592 1.774-15.555 1.481-15.518 1.17-15.482.842-15.463.566-15.427.33-15.39.2-15.354.184-15.317.329-15.281.658-12.831.695Zm299.362 70.749a.274.274 0 0 1-.274-.237l-1.572-9.912-2.468-19.383-2.285-14.976-2.12-11.393-1.937-9.984-1.81-7.205-1.682-4.15-1.517-1.701-10.053-1.335a.283.283 0 0 1-.237-.311.283.283 0 0 1 .31-.238l10.163 1.353c.073 0 .128.037.165.092l1.608 1.81c.018.018.037.055.055.073l1.718 4.224c0 .019 0 .019.018.037l1.81 7.241 1.956 10.003 2.12 11.41 2.285 14.995 2.467 19.384 1.572 9.91c.019.147-.073.293-.219.312-.055-.019-.073-.019-.073-.019Zm-512.067-78.137-15.336-.091-15.354-.896-7.951-.786a.266.266 0 0 1-.237-.293.266.266 0 0 1 .292-.238l7.951.787 15.336.896 15.317.091 11.972-.658c.146-.018.274.11.293.256 0 .146-.11.274-.256.292l-12.027.64Zm16.706 21.542a.274.274 0 0 1-.274-.238.284.284 0 0 1 .238-.311l11.168-1.59 16.706-6.877 15.354-9.143 14.22-9.18.019-.018 13.343-6.583c.036-.018.055-.018.091-.018l12.649-1.097a.26.26 0 0 1 .292.256.26.26 0 0 1-.256.292l-12.593 1.098-13.27 6.546-14.221 9.18-15.372 9.161c-.018 0-.018.018-.037.018l-16.76 6.876c-.02 0-.037.018-.074.018l-11.205 1.591c0 .019-.018.019-.018.019Z" fill="#095BB1"/><path d="M694.145 59.725c-.037 0-.073 0-.11-.018l-18.644-8.156-26.832 6.711a.301.301 0 0 1-.22-.037l-15.28-10.679-25.242 4.352-25.225 3.859c-.073.018-.164-.018-.219-.073L570.931 45.68l-23.762 2.542c-.036 0-.091 0-.128-.018l-9.578-3.804-22.61 2.012-22.61 1.48-22.519.769a.536.536 0 0 1-.165-.037l-5.794-3.822-21.331-1.755c-.054 0-.109-.037-.164-.073l-4.478-4.078-4.131-3.273-3.82-3.146-.019-.018-3.527-3.694c-.019-.018-.019-.018-.019-.036l-3.18-4.572-17.456-2.414-17.547-1.993-17.529-1.243a.206.206 0 0 1-.146-.055l-1.225-.988-16.816-.384a.236.236 0 0 1-.183-.073l-.585-.53-6.488-.165h-.019l-9.815-.987-9.815-.457h-.019l-5.538-.64-15.226-.86-12.74.293-1.206-.055-14.751-.713-14.732-1.463-3.875-.457h-.018l-8.354-1.664-14.257-2.652-14.239-2.066-14.183-1.17-14.075-.11-4.058 3.438c-.036.036-.091.055-.164.073l-14.403 1.134-4.661 8.155a.254.254 0 0 1-.22.128l-14.933 1.317-14.879 1.646-14.842 1.938-14.805 2.14-14.75 2.413-11.04 1.884c-.147.018-.293-.073-.311-.22-.019-.146.073-.292.219-.31l11.04-1.884 14.769-2.414 14.805-2.14 14.842-1.938 14.897-1.664 14.787-1.298 4.661-8.156a.254.254 0 0 1 .22-.128l14.458-1.133 4.058-3.457c.054-.036.109-.073.182-.073l14.184.11h.019l14.22 1.17 14.257 2.067 14.276 2.651 8.353 1.664 3.856.457 14.714 1.463 14.733.713 1.188.055 12.74-.292h.018l15.244.86 5.539.64 9.815.456 9.815.988 6.581.164c.073 0 .128.037.182.074l.585.53 16.816.384c.055 0 .128.018.165.055l1.225.987 17.455 1.244 17.566 1.993 17.583 2.432c.074.018.147.055.183.11l3.254 4.663 3.509 3.675 3.802 3.127 4.131 3.273s.018 0 .018.019l4.405 4.023 21.313 1.755c.055 0 .091.018.128.037l5.794 3.822 22.409-.75 22.592-1.481 22.684-2.03c.036 0 .091 0 .127.018l9.578 3.804 23.817-2.542c.073 0 .146.018.201.073l11.442 10.003 25.078-3.84 25.334-4.371a.254.254 0 0 1 .201.037l15.262 10.66 26.815-6.71a.215.215 0 0 1 .182.018l18.644 8.155 28.606-8.704.841-.238c.146-.036.292.037.329.183.036.146-.037.293-.183.33l-.841.237-28.697 8.723c-.018.018-.055.018-.073.018Z" fill="#095BB1"/><path d="M362.668 97.797c-.146 0-.256-.11-.274-.256l-.731-9.015-1.261-19.731-1.188-15.507-1.097-12.252-1.006-10.807-.95-7.534-.896-3.785-.822-.823a.265.265 0 0 1 0-.384.265.265 0 0 1 .384 0l.877.878a.288.288 0 0 1 .073.128l.914 3.858v.037l.951 7.552 1.005 10.825 1.097 12.252 1.188 15.507 1.261 19.73.731 8.998c.018.146-.091.274-.256.292.018.037.018.037 0 .037ZM83.887 27.633a.291.291 0 0 1-.274-.22.258.258 0 0 1 .22-.31l10.601-1.957 6.927-3.164c.019 0 .019-.018.037-.018l20.49-5.705 13.946-3.84 14.002-3.603a.273.273 0 1 1 .127.53l-13.982 3.603-13.947 3.84-20.472 5.687-6.927 3.163c-.018.019-.037.019-.055.019l-10.638 1.975h-.055Zm584.906-15.361a.276.276 0 0 1-.256-.183c-.054-.146.037-.292.183-.347l10.017-3.255c.018 0 .036-.018.055-.018l10.4-1.262h.037l10.966.073h.037l11.515 1.884 11.918-2.14c.146-.018.292.073.311.22.018.146-.074.292-.22.31l-11.954 2.158h-.091L700.177 7.83l-10.93-.074-10.364 1.262-9.98 3.237c-.055 0-.091.018-.11.018ZM336.621 95.401a.281.281 0 0 1-.274-.274l-.055-8.375-.073-19.822-.091-15.873-.092-12.818-.091-11.21-.11-7.442-.128-3.164c0-.146.11-.274.256-.292.147 0 .275.11.293.256l.128 3.163.109 7.443.092 11.21.091 12.818.092 15.872.073 19.823.055 8.375c0 .183-.128.31-.275.31Zm387.062-66.306c-.037 0-.074 0-.11-.018l-8.518-3.749-17.401-4.333-7.329-2.085a.267.267 0 0 1-.183-.348.267.267 0 0 1 .347-.182l7.33 2.066 17.401 4.334c.018 0 .036 0 .036.018l8.536 3.767c.147.055.201.22.147.366-.055.091-.165.164-.256.164Zm-885.401-5.266a.277.277 0 0 1-.256-.165.281.281 0 0 1 .147-.365l7.951-3.347h.018l14.75-5.047h.019l13.964-3.31h.019l13.233-1.901 12.539-1.244 11.771-1.902h.073l13.325 1.08h.019l9.486 1.554a.258.258 0 0 1 .22.31.258.258 0 0 1-.311.22l-9.487-1.554-13.27-1.08-11.771 1.903-12.502 1.243-13.216 1.902-13.946 3.31-14.732 5.047-7.933 3.328c-.037.018-.073.018-.11.018Zm0 11.978c-.092 0-.201-.055-.238-.147-.073-.128-.018-.292.11-.365l8.061-4.243c.018 0 .018-.018.036-.018l15.719-5.888h.019l14.823-4.188h.019l14.001-2.706h.073l4.021.22a.27.27 0 0 1 .256.292.27.27 0 0 1-.292.256l-3.985-.22-13.946 2.688-14.806 4.17-15.701 5.888-8.042 4.224a.344.344 0 0 1-.128.037Z" fill="#095BB1"/><path d="M127.536 33.374a.235.235 0 0 1-.183-.073.265.265 0 0 1-.018-.384l5.447-6.18 5.922-8.01 5.629-6.693c.019-.018.037-.036.074-.054l5.355-3.127c.018-.019.055-.019.074-.037l14.037-2.98c.146-.037.292.054.329.219.037.146-.055.292-.219.329l-14.001 2.98-5.265 3.054-5.575 6.638-5.922 8.01-.018.018-5.447 6.2a.303.303 0 0 1-.219.09ZM-110.868 7.317a.274.274 0 0 1-.274-.238c-.018-.146.073-.293.219-.311l8.792-1.39c.146-.018.293.073.311.22.018.146-.073.292-.22.31l-8.791 1.39c-.019.019-.019.019-.037.019Zm21.696 7.241h-.055l-8.499-1.792-14.129-2.542-14.093-1.957-14.037-1.353a.266.266 0 0 1-.238-.292.266.266 0 0 1 .292-.238l14.038 1.353 14.111 1.957 14.147 2.523 8.518 1.792a.3.3 0 0 1 .22.33c-.019.127-.147.219-.275.219Zm812.855 11.959h-.037l-8.536-1.189c-.018 0-.054-.018-.073-.018l-12.612-5.23-11.881-3.364-10.272-1.08a.267.267 0 0 1-.238-.292.267.267 0 0 1 .293-.237l10.309 1.078h.055l11.917 3.365c.018 0 .018 0 .037.018l12.593 5.23 8.5 1.189a.283.283 0 0 1 .237.31c-.054.129-.164.22-.292.22ZM54.843 58.244a.312.312 0 0 1-.237-.128.293.293 0 0 1 .091-.384l6.854-4.188 12.85-8.082c.018-.019.037-.019.055-.019l11.771-4.407 10.784-3.328 9.852-3.4c.019 0 .037 0 .037-.02l9.103-1.48c.146-.019.292.073.31.219.019.146-.073.293-.219.31l-9.084 1.482-9.834 3.383-10.784 3.328-11.735 4.389-12.831 8.064-6.855 4.188c-.018.073-.073.073-.128.073Z" fill="#095BB1"/><path d="M-161.718 16.185a.275.275 0 0 1-.256-.182c-.055-.129.018-.293.164-.348l7.75-2.907c.019 0 .019 0 .037-.019l14.385-3.492h.037l13.654-1.518h.018l12.959-.384h.11l12.063-.786 11.424-2.963h.055L-76.45 2.8h.018l12.942.347c.146 0 .274.128.274.275a.281.281 0 0 1-.274.274l-12.923-.348-12.832.768-11.424 2.963h-.054l-12.21.804-12.96.384-13.635 1.518-14.349 3.475-7.75 2.907c-.018.018-.055.018-.091.018Zm865.533 53.031a.268.268 0 0 1-.256-.202.289.289 0 0 1 .183-.347l11.424-3.584a.23.23 0 0 1 .109-.019l8.445.842a.266.266 0 0 1 .237.292.266.266 0 0 1-.292.238l-8.39-.841-11.369 3.566c-.036.055-.073.055-.091.055ZM310.758 91.653h-.018a.295.295 0 0 1-.256-.293l.493-7.003 1.097-19.658.987-16.074.896-13.075.822-11.117.75-6.876c0-.018 0-.037.018-.055l.658-2.158c.036-.146.201-.22.347-.183.146.037.22.202.183.348l-.658 2.14-.731 6.838-.823 11.1-.895 13.075-.987 16.055-1.097 19.658-.494 7.004c-.036.164-.146.274-.292.274Zm370.83-56.029a.344.344 0 0 1-.128-.037l-7.092-3.548c-.018 0-.036-.018-.036-.018l-12.777-9.746-11.808-9.93-11.095-6.51a.269.269 0 0 1-.091-.384.268.268 0 0 1 .384-.091l11.113 6.528c.018 0 .018.018.036.018l11.808 9.911 12.74 9.729 7.074 3.547a.298.298 0 0 1 .128.366c-.073.11-.165.165-.256.165Zm-843.306-3.072a.293.293 0 0 1-.275-.238.285.285 0 0 1 .238-.311l8.061-.987 16.139-3.219 16.14-4.425a.272.272 0 1 1 .128.53l-16.14 4.425h-.018l-16.158 3.237h-.018l-8.061.988h-.036Zm0-5.578a.281.281 0 0 1-.274-.274c0-.146.128-.274.274-.274l8.061-.092 15.701-1.225 15.701-2.34a.271.271 0 0 1 .311.237.271.271 0 0 1-.238.31l-15.701 2.36h-.018l-15.72 1.225-8.097.073Zm36.684 15.214a.276.276 0 0 1-.256-.183c-.054-.146.037-.292.165-.347l7.457-2.523 18.06-5.67 18.186-4.863 18.315-3.767h.018l18.407-2.542h.018l18.48-1.262 13.014-6.309c.018 0 .036-.018.054-.018L-.85 11.888c.037 0 .073-.018.11 0l11.607 2.066a.258.258 0 0 1 .219.311.258.258 0 0 1-.31.22L-.779 12.418l-12.173 2.798-13.05 6.327c-.037.018-.074.018-.11.018l-18.516 1.28-18.388 2.524-18.279 3.767-18.15 4.864-18.041 5.669-7.457 2.523h-.092ZM675.885 14.21c-.128 0-.237-.073-.256-.2a.273.273 0 0 1 .202-.33l24.273-6.382 15.811-3.584h.11l7.713 1.628a.3.3 0 0 1 .219.329.3.3 0 0 1-.329.22l-7.64-1.61-15.738 3.566-24.255 6.382c-.055-.019-.073-.019-.11-.019Z" fill="#095BB1"/><path d="M-161.718 9.401a.291.291 0 0 1-.274-.22.273.273 0 0 1 .201-.328l7.659-1.701h.036l14.111-.786h.018l17.931.64 21.276-.476h13.197L-76.54 2.8c.146-.055.293.036.347.164.055.147-.036.293-.164.348L-87.416 7.06c-.037.018-.055.018-.092.018h-13.252l-21.276.475-17.931-.64-14.074.787-7.622 1.7h-.055Zm868.055 26.223a.297.297 0 0 1-.165-.055l-5.885-4.37-13.179-10.716-12.429-6.675c-.128-.073-.183-.238-.11-.365.073-.128.238-.183.366-.11l12.447 6.693a.04.04 0 0 1 .037.036l13.197 10.716 5.885 4.352c.128.091.147.256.055.384a.286.286 0 0 1-.219.11ZM-109.114 18.8h-.018l-14.951-1.463-14.952-1.902-14.97-2.157-7.75-1.189a.285.285 0 0 1-.238-.31.285.285 0 0 1 .311-.239l7.75 1.19 14.933 2.157 14.952 1.902 14.915 1.444 8.847-1.134a.284.284 0 0 1 .31.238.284.284 0 0 1-.237.311l-8.865 1.134c-.018.018-.037.018-.037.018Zm253.795 13.843a.34.34 0 0 1-.146-.037c-.128-.091-.165-.256-.073-.384l3.655-5.65 5.447-9.472s0-.019.019-.019l5.172-7.643a.202.202 0 0 1 .183-.11L173.36 7.39l4.478-3.603a.283.283 0 0 1 .384.037.284.284 0 0 1-.037.384l-4.533 3.639a.195.195 0 0 1-.128.055l-14.366 1.92-5.118 7.552-5.447 9.472-3.674 5.669a.267.267 0 0 1-.238.128Zm183.002-16.366c-.146 0-.274-.11-.274-.256 0-.147.11-.275.256-.293l7.677-.274 9.742.256c.146 0 .274.128.274.274a.281.281 0 0 1-.274.274l-9.724-.256-7.677.275c.019 0 .019 0 0 0Z" fill="#095BB1"/><path d="M-109.57 7.28a.29.29 0 0 1-.274-.22c-.019-.146.073-.292.219-.31l7.494-1.372 12.795-1.792a.284.284 0 0 1 .31.238.284.284 0 0 1-.237.31l-12.795 1.793-7.476 1.371c0-.018-.018-.018-.036-.018Zm629.98 37.158h-.018l-7.513-.604c-.018 0-.055 0-.073-.018l-6.873-2.633c-.018-.019-.054-.019-.073-.037l-6.287-5.065c-.019-.019-.037-.019-.037-.037l-5.739-7.003-5.447-2.341c-.146-.055-.201-.22-.147-.366.055-.146.22-.2.366-.146l5.502 2.377a.403.403 0 0 1 .11.073l5.757 7.04 6.233 5.03 6.8 2.596 7.475.603a.295.295 0 0 1 .256.293c-.018.128-.146.238-.292.238Zm170.189-27.704-7.22-.091a.281.281 0 0 1-.274-.275c0-.146.128-.274.274-.274l7.202.091 16.597-.95 16.468-1.774a.283.283 0 0 1 .311.237.283.283 0 0 1-.237.311l-16.487 1.774-16.634.951Zm-182.381 6.784a.26.26 0 0 1-.219-.11l-3.473-4.955-4.661-2.743a.269.269 0 0 1-.091-.384.268.268 0 0 1 .384-.092l4.716 2.762c.036.018.054.055.091.073l3.509 5.01c.092.128.055.293-.073.384a.408.408 0 0 1-.183.055Zm-59.806 2.45c-.146 0-.256-.11-.274-.256-.019-.146.109-.274.256-.292l2.504-.165 14.641-1.261 14.677-.97h.018l14.66.458 6.927.676a.267.267 0 0 1 .238.293.267.267 0 0 1-.293.238l-6.909-.677-14.641-.457-14.659.969-14.641 1.262-2.504.164v.018Z" fill="#095BB1"/><path d="M520.172 20.702h-.073l-6.379-1.646-13.8-3.328-13.8-2.615-13.818-1.316-13.837.53-13.855 1.59-13.837 2.085-13.818 2.323-13.106 2.23c-.146.019-.292-.072-.31-.219-.019-.146.073-.292.219-.31l13.105-2.232 13.819-2.322 13.855-2.085 13.873-1.59h.018l13.874-.53h.036l13.837 1.316h.018l13.818 2.615 13.819 3.328 6.379 1.646a.272.272 0 0 1 .201.329c0 .128-.11.201-.238.201ZM-92.846 43.651l-6.635-.237a.26.26 0 0 1-.256-.293.26.26 0 0 1 .293-.256l6.617.238 20.855-.403a.27.27 0 0 1 .274.275.27.27 0 0 1-.274.274l-20.874.402Zm13.654-31.342h-.055l-6.379-1.317L-99.334 9l-13.654-1.097-13.563-.238-13.416-.75-21.77-1.17a.269.269 0 0 1-.255-.293.27.27 0 0 1 .292-.256l21.769 1.17 13.398.75 13.581.22 13.672 1.097 13.746 1.993 6.397 1.317a.3.3 0 0 1 .22.329c-.037.146-.147.238-.275.238Zm-43.776 29.989a.292.292 0 0 1-.256-.146c-.073-.128-.018-.293.128-.366l5.374-2.615 15.975-11.63 14.879-11.21c.018-.018.036-.018.054-.036l14.111-5.998a.282.282 0 0 1 .366.146.282.282 0 0 1-.147.366l-14.092 5.98-14.842 11.173-15.994 11.648c-.018.018-.018.018-.036.018l-5.392 2.615a.2.2 0 0 1-.128.055Z" fill="#095BB1"/><path d="M435.435 24.615a.286.286 0 0 1-.256-.164l-1.938-4.864-2.705-3.657c-.091-.129-.073-.293.055-.385.128-.091.292-.073.384.055l2.723 3.694c.018.018.018.037.037.055l1.955 4.9a.27.27 0 0 1-.146.348c-.036.018-.073.018-.109.018ZM97.523 30.631c-.091 0-.201-.054-.238-.146-.073-.128-.018-.292.128-.366l4.844-2.45 6.873-4.9 6.507-4.426c.018-.018.036-.018.073-.036l6.16-2.048c.146-.055.292.036.347.182.055.147-.037.293-.183.348l-6.141 2.03-6.471 4.388-6.891 4.92c-.018 0-.018.018-.036.018l-4.862 2.468c-.019 0-.073.018-.11.018Zm-259.241 18.342a.275.275 0 0 1-.256-.183c-.055-.146.018-.293.164-.348l5.155-1.956c.018 0 .018 0 .037-.019l23.03-5.23h.073l7.092.348 1.243.128 2.066.11 7.384.347 3.491.274 2.395.019.566-.055h.037l1.151.055 1.518.036 7.128.384 9.066.44 21.916.84 21.934.659 16.414-2.268 14.86-6.71 13.672-7.754a.344.344 0 0 1 .146-.037l19.448.439 19.522.677 19.576.987 19.63 1.134 19.65.969 17.565.512a.28.28 0 0 1 .274.274.28.28 0 0 1-.274.275l-17.583-.512-19.668-.97-19.63-1.133-19.577-.988-19.503-.676-19.375-.44-13.617 7.718s-.018 0-.018.018l-14.915 6.73c-.019.017-.055.017-.074.017l-16.468 2.286h-.055l-21.97-.658-21.916-.841-9.067-.44-7.128-.383-1.499-.037-1.151-.055-.567.055h-.018l-2.431-.018h-.019l-3.491-.274-7.384-.33-2.084-.127-1.243-.128-7.037-.348-22.958 5.212-5.136 1.956c-.018 0-.055.019-.091.019Z" fill="#095BB1"/><path d="M-161.718 59.396a.275.275 0 0 1-.256-.183c-.055-.146.018-.293.164-.348l5.118-1.993 24.036-8.923c.037-.019.073-.019.11-.019l24.054 1.28 24.11.988 24.109.53 18.589-5.047c.018 0 .054-.018.073-.018l23.085-.22 16.067-.713 22.098-.823 22.135-1.005 12.685-2.45h.037l21.276-1.317 21.33-1.427 21.405-1.408 21.44-1.298 8.061-3.09c.146-.055.292.018.347.164a.264.264 0 0 1-.164.347l-8.098 3.11c-.018.017-.055.017-.073.017l-21.477 1.299-21.404 1.408-21.33 1.426L54.55 41l-12.685 2.45h-.037l-22.153 1.006-22.099.823-16.066.713-23.05.22-18.643 5.065c-.018 0-.055 0-.073.018l-24.164-.53-24.109-.988-24-1.28-23.981 8.887-5.118 1.993c-.018.019-.055.019-.091.019Z" fill="#095BB1"/><path d="m-64.642 45.7-23.049-1.061-22.957-1.372-5.374-.439-7.129-.475-2.083-.11-5.045-.274-3.144-.238-22.958-1.426-5.3 1.134c-.128.055-.274-.037-.311-.183-.037-.146.055-.293.219-.33l5.338-1.151h.073l22.994 1.426 3.144.238 7.128.384 7.129.475 5.355.44 22.958 1.37 23.03 1.061 18.114-.347 22.007.256 22.026-.348 14.568-2.487h.036l21.148-.713 21.148-1.079 11.516-4.809 10.656-4.334c.018 0 .036-.018.036-.018l9.87-2.213h.074l9.212.585c.146.019.274.147.256.293-.018.146-.146.274-.293.256l-9.175-.585-9.816 2.194-10.62 4.334-11.551 4.828c-.037.018-.055.018-.092.018l-21.203 1.097-21.148.713-14.568 2.469h-.036l-22.044.347-22.007-.256-18.132.33Zm349.975 40.796h-.037c-.146-.018-.256-.165-.219-.31l.694-4.371 2.267-19.237 2.065-16.056 1.883-12.983 1.736-10.57v-.018l1.591-5.906a.273.273 0 0 1 .53.128l-1.591 5.888-1.718 10.551-1.882 12.983-2.066 16.056-2.266 19.255-.695 4.389a.303.303 0 0 1-.292.201Z" fill="#095BB1"/><path d="M-161.718 68.886c-.128 0-.238-.073-.256-.2a.29.29 0 0 1 .183-.348l4.99-1.445 25.334-9.362 22.866-8.302h.036l20.837-5.102c.019 0 .037-.019.074 0l19.173.055 17.383-1.591 15.72-6.327 14.421-7.992 13.362-7.296c.018 0 .018-.018.036-.018l12.466-4.81c.018-.017.055-.017.073-.017l11.698-1.061h.073l17.51 3.675 13.91 2.78 11.224 1.262 18.223 2.944 18.278 3.986 8.207 1.884 1.517.22 8.39.986 2.12.055h17.42l14.567-.95 20.655-1.555 20.709-1.682 19.905-1.774.951-.018 2.65-.293.567-.073 11.643-1.554 10.035-1.39 20.051-2.853a.284.284 0 0 1 .311.238.284.284 0 0 1-.238.31l-20.069 2.854-10.035 1.39-12.21 1.627-2.669.292h-.018l-.932.019-19.887 1.773-20.709 1.683-20.655 1.554-14.586.951H116.13l-2.138-.055h-.018l-8.408-.987-1.536-.22h-.018l-8.207-1.883-18.26-3.987-18.187-2.944-11.223-1.262h-.018l-13.928-2.779-17.474-3.676L5.09 16.68l-12.411 4.79-13.343 7.278-14.44 8.01c-.019 0-.019.018-.037.018l-15.774 6.363c-.018.019-.055.019-.073.019l-17.438 1.609h-.018l-19.156-.055-20.837 5.029-22.848 8.302-25.333 9.38h-.019l-4.99 1.445c-.036.018-.073.018-.091.018Z" fill="#095BB1"/><path d="m-106.079 58.555-25.297-.494-25.224-.658-5.118-.165c-.146 0-.274-.128-.256-.274 0-.146.128-.275.274-.256l5.118.164 25.224.659 25.242.493 21.624-7.808h.018l19.74-5.029h.074l23.049.53 17.071-.603 15.464-2.578 14.038-6.693c.036-.018.073-.018.128-.018l20.27.11 20.326-.019 20.362-.237 20.417-.513 20.471-.804 20.527-1.079 6.013-.384c.147-.018.275.11.293.256.018.146-.11.274-.256.293l-6.014.384-20.526 1.078-20.472.805-20.435.512-20.38.238-20.326.018-20.215-.11-14.002 6.693c-.018.018-.055.018-.073.018l-15.518 2.579h-.037l-17.108.603-23.03-.53-19.686 5.029-21.66 7.808c-.055-.018-.073-.018-.11-.018Z" fill="#095BB1"/><path d="M-161.718 67.496a.281.281 0 0 1-.274-.274c0-.146.128-.274.274-.274l4.99-.073 26.577-.293 26.649-.055 22.684-8.192 20.471-7.607a.166.166 0 0 1 .092-.018l24.164-.037 17.456-5.23c.018 0 .054-.018.073-.018l23.14-.457 23.213-.238 13.928-1.865h.019l22.226-1.006L86.282 41l22.391-.584 22.391-.256 8.737-5.157a.262.262 0 0 1 .128-.037l21.495-1.115 7.147-3.53c.128-.073.292-.018.365.129.074.128.019.292-.127.365l-7.184 3.548c-.036.018-.073.018-.11.036l-21.477 1.116-8.737 5.157a.334.334 0 0 1-.128.036l-22.464.256-22.39.585-22.3.86-22.226 1.005-13.928 1.866h-.037l-23.232.237-23.104.458-17.455 5.23c-.019 0-.055.018-.073.018l-24.164.036-20.417 7.607-22.738 8.211c-.037.018-.055.018-.092.018l-26.704.055-31.567.347Zm644.749-40.595a.34.34 0 0 1-.22-.091l-2.796-3.347c-.018-.018-.018-.036-.037-.055l-3.984-8.082-3.875-3.584a.283.283 0 0 1-.019-.384c.11-.11.274-.11.384-.019l3.912 3.603c.018.018.036.055.055.073l4.002 8.1 2.761 3.329a.284.284 0 0 1-.037.384c-.018.055-.091.073-.146.073Zm240.652-3.785a.339.339 0 0 1-.128-.037l-4.058-2.103-16.999-.896h-.018l-15.152-2.176a.284.284 0 0 1-.238-.31.283.283 0 0 1 .311-.238l2.778.402 12.356 1.774 17.035.896c.037 0 .073.018.11.036l4.113 2.122c.128.073.183.237.109.365a.23.23 0 0 1-.219.165Zm-546.064 7.04c-.037 0-.073 0-.11-.018-.146-.055-.201-.22-.146-.366l1.554-3.694 4.533-11.21s0-.018.018-.018l4.314-8.466a.297.297 0 0 1 .365-.128.298.298 0 0 1 .128.366l-4.313 8.466-4.534 11.21-1.553 3.693c-.055.092-.146.165-.256.165Z" fill="#095BB1"/><path d="M-161.718 75.085a.276.276 0 0 1-.275-.237.285.285 0 0 1 .238-.311l4.588-.604 26.942-7.333 24.036-8.576c.037-.018.073-.018.091-.018l25.37.33 25.39.182 19.173-7.79c.037-.018.073-.018.11-.018l24.31-.073 24.328.365 15.153-6.217c.037-.018.073-.018.11-.018l23.323.11 23.396.548 23.488 1.024 23.451 1.481 9.505-7.68a.291.291 0 0 1 .164-.055l22.446.128 7.732-6.363a.29.29 0 0 1 .164-.055l21.532-.878 6.215-4.316c.036-.018.091-.036.127-.054l20.783-1.738 4.972-.567 9.943-1.426 6.745-.932 3.29-.44a.285.285 0 0 1 .311.238.285.285 0 0 1-.238.311l-3.29.44-6.745.932-9.962 1.426-4.99.567-20.709 1.719-6.214 4.315a.21.21 0 0 1-.147.055l-21.532.878-7.731 6.364c-.055.036-.11.073-.183.054l-22.446-.128-9.505 7.68c-.054.037-.127.074-.182.056l-23.561-1.482-23.47-1.024-23.396-.548-23.25-.11-15.152 6.217c-.037.019-.073.019-.11.019l-24.365-.348-24.237.055-19.174 7.79c-.037.018-.073.018-.11.018l-25.443-.183-25.315-.329-24 8.577h-.018l-26.997 7.35h-.037l-4.606.604c-.018.018-.018.018-.036.018Z" fill="#095BB1"/><path d="M-161.718 74.683c-.146 0-.274-.11-.274-.256 0-.146.109-.274.256-.293l4.606-.2 28.185-.513 19.759.42c.146 0 .274.129.274.275a.281.281 0 0 1-.274.275l-19.741-.421-28.167.512-4.624.201Zm802.473 2.944c-.037 0-.073 0-.11-.018l-3.455-1.463c-.018 0-.036-.018-.055-.037l-15.573-11.648-.018-.018-13.946-12.6-12.704-9.106-11.771-3.255-10.894-.439-10.016-.128h-.037L553 37.525c-.018 0-.036 0-.054-.018l-8.39-3.401c-.018 0-.037-.018-.055-.037l-7.695-5.54c-.018 0-.018-.019-.037-.019l-7.037-6.857-6.69-1.664a.273.273 0 0 1 .128-.53l6.763 1.682a.291.291 0 0 1 .128.073l7.074 6.894 7.64 5.504 8.335 3.383 9.121 1.372 9.998.128 10.931.438c.018 0 .036 0 .054.019l11.845 3.273c.036 0 .055.018.091.036l12.759 9.144.018.018 13.946 12.6 15.537 11.611 3.436 1.445c.146.054.201.219.146.365-.018.11-.128.183-.237.183Zm-173.297-50.47a.261.261 0 0 1-.22-.11l-1.9-2.633c-.019-.018-.019-.036-.037-.055l-3.583-8.21-3.472-3.895a.265.265 0 0 1 .018-.384.265.265 0 0 1 .384.018l3.509 3.932c.018.018.037.054.055.073l3.582 8.229 1.883 2.614a.284.284 0 0 1-.055.384.512.512 0 0 1-.164.037Zm-273.901 1.664c-.036 0-.055 0-.091-.018a.265.265 0 0 1-.165-.348l5.155-14.153s0-.018.018-.018l3.893-8.193c.019-.036.037-.073.074-.091l3.71-3.09a.283.283 0 0 1 .384.036.284.284 0 0 1-.037.384l-3.674 3.054-3.856 8.12-4.095 11.245-1.06 2.926a.307.307 0 0 1-.256.146Zm362.441 61.918a.206.206 0 0 1-.146-.055l-2.303-1.536a2.847 2.847 0 0 1-.055-.055l-11.168-13.258-.019-.018-9.998-14.446-9.121-10.643-8.444-4.315-7.86-1.024a.285.285 0 0 1-.238-.311.285.285 0 0 1 .311-.238l7.896 1.024c.037 0 .055.018.092.037l8.536 4.352a.32.32 0 0 1 .091.073l9.176 10.697.018.019 9.998 14.446 11.132 13.22 2.266 1.519c.128.09.165.255.074.383a.267.267 0 0 1-.238.129ZM209.331 27.413c-.036 0-.055 0-.091-.018a.29.29 0 0 1-.183-.348l.786-2.359 3.656-10.697c0-.018 0-.018.018-.037l3.473-7.424c.018-.036.055-.073.091-.11l3.309-2.395a.284.284 0 0 1 .384.055.285.285 0 0 1-.055.384l-3.254 2.359-3.436 7.35-3.638 10.68-.786 2.34c-.054.147-.164.22-.274.22ZM-59.122 232a.286.286 0 0 1-.238-.146c-.073-.128-.018-.293.11-.366l52.13-28.216c.018 0 .018-.018.036-.018l51.966-17.884h.018l38.256-9.381h.055l64.175-2.414 64.742-4.992 65.436-3.877 66.058-2.413 66.661-.768 67.228.932c.073 0 .146.037.201.092l22.665 25.088.018.019 30.799 41.729s0 .018.018.018l1.353 2.158a.293.293 0 0 1-.091.384.293.293 0 0 1-.384-.091l-1.353-2.14-30.799-41.711-22.573-24.979-67.1-.932-66.643.768-66.021 2.413-65.418 3.877-64.76 4.992-64.157 2.414-38.22 9.363-51.947 17.865-52.111 28.198c-.019.018-.055.018-.11.018Z" fill="#095BB1"/><path d="M581.404 85.417a.384.384 0 0 1-.201-.073l-12.612-12.819-.018-.018-11.278-14.026-10.254-10.258-23.652 2.542L499.7 53.16l-23.597 1.94c-.073 0-.164-.019-.219-.074l-6.27-6.381-22.299-.037a.292.292 0 0 1-.201-.091l-4.789-5.505-21.24-2.523a.348.348 0 0 1-.201-.128l-3.509-5.322-20.289-4.169c-.073-.018-.146-.055-.183-.128l-2.504-4.187-2.303-2.487-2.102-1.829-18.077-2.322-8.646-.604-8.682-1.152-1.663-.128-12.082-.768-4.899-.585-19.485-.97-19.375.732-1.389.878a.334.334 0 0 1-.128.037l-7.914.457-1.865.183-10.418.676-20.033 2.524-3.217 3.072c-.055.037-.11.073-.165.073l-20.91 1.445L210.3 27.43l-5.301 5.413a.234.234 0 0 1-.183.073l-21.568.604-6.726 7.698a.303.303 0 0 1-.22.092l-22.482-.476-8.408 9.436c-.055.073-.146.091-.219.091l-23.506-1.883-10.401 10.551c-.055.055-.146.091-.219.073L86.318 56.27l-24.657-2.231-24.566-1.573-24.402-.914-16.67 8.247a.339.339 0 0 1-.128.037l-25.626-.567-25.48-.22-21.312 8.412c-.037.018-.073.018-.11.018l-26.778-.384-25.461 6.876h-.037l-24.932 3.163h-.036l-5.063.055-2.76.238a.26.26 0 0 1-.293-.256.26.26 0 0 1 .256-.293l2.779-.237h.018l5.063-.055 24.895-3.164 25.462-6.875c.018 0 .054-.019.073-.019l26.76.384 21.312-8.411c.036-.019.073-.019.11-.019l25.534.22 25.572.567 16.67-8.247a.339.339 0 0 1 .127-.037l24.475.933 24.584 1.572 24.676 2.231 24.621 2.835 10.4-10.552a.236.236 0 0 1 .22-.073l23.487 1.902 8.408-9.436a.303.303 0 0 1 .22-.091l22.482.475 6.726-7.698a.294.294 0 0 1 .201-.092l21.587-.603 5.282-5.395a.236.236 0 0 1 .183-.073l2.12-.164 18.717-1.481 20.82-1.445 3.198-3.054c.037-.036.092-.073.146-.073l20.125-2.542 10.418-.676 1.865-.183 7.841-.44 1.389-.877a.344.344 0 0 1 .128-.036l19.467-.732h.018l19.503.97h.018l4.899.584 1.791.11 10.273.659 1.681.127 8.682 1.153 8.646.603 18.187 2.34c.055 0 .11.037.146.074l2.175 1.883.018.019 2.34 2.523c.018.018.018.037.037.055l2.449 4.114 20.289 4.17a.264.264 0 0 1 .164.11l3.51 5.302 21.221 2.524c.073 0 .128.036.183.091l4.77 5.486 22.282.037a.38.38 0 0 1 .201.073l6.251 6.364 23.469-1.939 23.689-2.395 23.78-2.542a.235.235 0 0 1 .219.073l10.364 10.368 11.296 14.026 12.502 12.709 27.674-3.328 28.057-5.925 28.295-7.772 28.514-8.667c.055-.019.11-.019.146 0l21.02 5.888 8.372-2.615a.29.29 0 0 1 .347.183.29.29 0 0 1-.183.347l-8.444 2.652a.255.255 0 0 1-.165 0l-21.02-5.889-28.404 8.613-28.332 7.772-28.094 5.925h-.018l-27.819 3.346h-.019Zm138.148-64.441c-.036 0-.073 0-.11-.018l-12.337-5.193-11.662-2.944-11.058-.841-10.492.53-2.723.366a.283.283 0 0 1-.311-.238.284.284 0 0 1 .237-.311l2.742-.366h.018l10.51-.53h.037l11.113.841h.055l11.716 2.963c.019 0 .019 0 .037.018l12.32 5.175 4.057-.11a.27.27 0 0 1 .275.274.27.27 0 0 1-.275.275l-4.149.11c.018 0 .018 0 0 0Zm-857.856 20.426c-.091 0-.182-.037-.219-.128-.091-.128-.055-.293.073-.384l2.102-1.426 15.939-12.654c.018-.019.018-.019.036-.019l15.08-8.283c.128-.073.292-.019.365.11.074.127.019.292-.109.365l-15.062 8.265-15.938 12.673s-.018 0-.018.018l-2.102 1.426c-.055.037-.11.037-.147.037Zm634.806-15.909a.236.236 0 0 1-.183-.073l-1.608-1.481a.236.236 0 0 1-.055-.073l-4.387-7.608-4.259-3.181c-.128-.092-.146-.256-.055-.384.092-.128.256-.147.384-.055l4.314 3.218c.036.018.055.055.073.073l4.387 7.644 1.572 1.445c.109.11.128.274.018.384-.037.054-.11.091-.201.091Z" fill="#095BB1"/><path d="M486.906 41.457h-.019l-19.027-1.774a.275.275 0 0 1-.165-.073l-4.825-4.681-18.187-2.743-18.242-3.383-18.205-3.456-18.169-3.09a.264.264 0 0 1-.164-.11l-1.974-2.524-1.846-1.024c-.128-.073-.183-.238-.11-.366s.238-.183.365-.11l1.901 1.061a.14.14 0 0 1 .073.073l1.956 2.469.402.073 17.676 3 18.205 3.455 18.223 3.365 18.26 2.761c.055 0 .11.037.146.073l4.826 4.663 18.918 1.774 19.101-.256 19.229-2.761 19.375-4.297 19.466-4.737 19.521-4.315 19.558-3.237h.018l19.54-1.682a.35.35 0 0 1 .183.055l11.296 7.863 12.337 5.559 10.565 1.975 11.516.329.639-.019 22.373-.566h.018l18.078 1.005h.018l13.946 1.902a.285.285 0 0 1 .238.311.285.285 0 0 1-.311.238l-13.946-1.902-18.059-1.006-23.013.585-.53-.018-11.022-.329h-.036l-10.62-1.993c-.018 0-.036-.019-.055-.019l-12.392-5.577c-.019 0-.037-.018-.037-.018l-11.241-7.827-19.43 1.683-19.539 3.236-19.503 4.316-19.467 4.736-19.393 4.297h-.018l-19.247 2.762h-.037l-19.137.274ZM672.01 13.113a.274.274 0 0 1-.255-.183c-.055-.146.036-.292.182-.347l1.865-.604 15.335-4.754 15.354-3.986c.018 0 .055-.019.073 0l11.388.475 7.676-1.243c.147-.019.293.073.311.22.018.145-.073.292-.219.31l-7.714 1.262h-.054l-11.388-.476-15.299 3.968-15.335 4.755-1.846.603h-.074ZM225.142 25.438c-.018 0-.055 0-.073-.018-.146-.037-.219-.201-.183-.348l.475-1.535 3.217-9.582c0-.019 0-.019.019-.037l3.052-6.236c.018-.055.073-.091.128-.128l2.906-1.48c.128-.074.293-.02.366.127.073.146.018.293-.128.366l-2.815 1.444-2.998 6.126-3.198 9.564-.475 1.536c-.074.128-.165.201-.293.201Z" fill="#095BB1"/><path d="M669.287 35.934h-.037l-1.791-.292c-.018 0-.055-.019-.073-.019l-13.197-6.418c-.018 0-.036-.018-.036-.018l-11.973-8.87-19.411-.127c-.055 0-.128-.018-.165-.055l-10.437-8.503-9.687-6.473-9.286-.037a.281.281 0 0 1-.274-.274c0-.147.128-.275.274-.275l9.377.037c.055 0 .11.018.146.055l9.743 6.473.018.018 10.364 8.449 19.411.128c.055 0 .11.018.165.055l12.027 8.905 13.142 6.4 1.737.293a.258.258 0 0 1 .219.31c-.018.129-.128.238-.256.238Zm-831.005 43.961a.27.27 0 0 1-.256-.201.29.29 0 0 1 .183-.348l1.681-.512c.019 0 .037 0 .055-.018l34.363-3a.26.26 0 0 1 .293.257.26.26 0 0 1-.256.293l-34.327 3.017-1.663.512h-.073Zm422.228 1.39h-.073a.273.273 0 0 1-.201-.33l.347-1.371 3.437-18.616 3.144-15.872 2.869-12.563 2.632-9.582c0-.018.019-.036.019-.055l2.431-4.608c.036-.073.128-.128.219-.146l15.829-1.426 5.813-.805a.283.283 0 0 1 .31.238.283.283 0 0 1-.237.31l-5.813.805-15.701 1.408-2.34 4.444-2.632 9.545-2.869 12.545-3.126 15.854-3.436 18.615v.019l-.347 1.371a.31.31 0 0 1-.275.22Z" fill="#095BB1"/><path d="M541.284 41.95h-.019l-8.353-.749c-.018 0-.055 0-.073-.018l-7.64-2.78a.138.138 0 0 1-.073-.036l-6.983-5.157-.036-.037-6.379-6.967-6.069-2.14a.263.263 0 0 1-.164-.347c.055-.146.201-.22.347-.164l6.123 2.157a.384.384 0 0 1 .11.074l6.416 6.985 6.927 5.12 7.567 2.761 8.28.75 20.929-3.035 21.02-2.835 21.075-2.066 21.093-.896h.019l21.056.512h.018l21.039 2.011h.018l1.535.293c.147.036.238.164.22.33-.037.145-.165.237-.329.219l-1.517-.293-21.02-2.012-21.039-.512-21.056.896-21.039 2.067-21.02 2.834-20.947 3.036h-.036Zm-430.473-9.088-1.462-.091c-.146-.019-.274-.147-.256-.293.018-.146.146-.274.292-.256l1.335.073 6.763-5.284 6.397-6.382 6.068-5.541c.019-.018.055-.037.074-.055l5.776-2.615a.29.29 0 0 1 .365.128.291.291 0 0 1-.128.366l-5.758 2.615-6.013 5.504-6.416 6.419-6.854 5.357a.354.354 0 0 1-.183.055Zm416.253 61.625a.353.353 0 0 1-.183-.055l-.969-.804-.055-.055-9.724-14.044s0-.018-.018-.018l-8.7-15.196-7.951-11.228-7.367-5.23-6.818-2.267-6.305-1.28h-.019l-5.812-1.683c-.019 0-.037-.018-.055-.018l-5.283-2.944-18.918-3.164c-.054-.018-.109-.036-.146-.073l-4.204-4.315-.036-.037-3.839-5.522-3.619-1.738c-.128-.073-.201-.237-.128-.365.073-.128.238-.201.366-.128l3.692 1.773a.521.521 0 0 1 .11.092l3.875 5.577 4.13 4.224 18.864 3.164c.036 0 .054.018.091.036l5.301 2.944 5.776 1.664 6.324 1.28h.037l6.872 2.286c.018 0 .055.019.073.037l7.44 5.266c.018.019.054.037.073.074l7.987 11.282.019.018 8.7 15.196 9.706 13.99.932.786c.11.091.128.274.037.384a.547.547 0 0 1-.256.091ZM240.916 23.262c-.018 0-.055 0-.073-.018-.146-.037-.219-.201-.183-.348l.256-.859 2.76-8.028c0-.018.019-.036.019-.036l2.613-4.718a.285.285 0 0 1 .201-.146l2.486-.403c.147-.018.293.073.311.22.018.146-.073.292-.219.31l-2.358.385-2.541 4.571-2.76 8.01-.256.84c-.036.147-.128.22-.256.22Zm369.076 59.193c-.037 0-.091 0-.128-.037l-.768-.384c-.018-.018-.036-.018-.054-.037l-14.056-12.58-.019-.019-12.594-13.751a.265.265 0 0 1 .019-.384.265.265 0 0 1 .384.018l12.593 13.733 14.02 12.545.731.365c.128.073.183.238.128.366a.296.296 0 0 1-.256.165Z" fill="#095BB1"/><path d="M675.41 51.533a.334.334 0 0 1-.128-.037l-16.743-8.302-25.37 4.334c-.055.018-.128 0-.183-.037l-13.965-7.57-23.981 2.834-23.981 2.908c-.037 0-.092 0-.128-.018l-10.693-3.676-9.87-.348-9.084.311-20.838 2.487-13.489.951-21.587.22-21.513-.805a.252.252 0 0 1-.11-.037l-5.356-2.633-20.654-3.236-20.234-3.822c-.055-.019-.11-.037-.165-.092l-3.308-3.876-3.016-2.89-18.772-4.06-18.826-3.474c-.019 0-.055-.018-.073-.018l-1.463-.731-17.273-1.756-1.663-.128-16.981-1.371a.296.296 0 0 1-.256-.293.297.297 0 0 1 .293-.256l16.98 1.372 1.682.128 17.328 1.755c.036 0 .073.018.091.018l1.463.732 18.808 3.474 18.863 4.078a.291.291 0 0 1 .128.073l3.071 2.944.018.019 3.254 3.803 20.343 3.84 20.49 3.2c.037 0 .056.018.074.018l5.355 2.634 21.422.823 21.569-.22 13.471-.95 20.855-2.47h.019l9.12-.31h.019l9.925.347c.018 0 .055 0 .073.019l10.674 3.657 23.927-2.908 24.072-2.834c.055 0 .11 0 .165.037l13.946 7.57 25.37-4.316c.055-.018.11 0 .165.019l16.743 8.283 26.96-6.546a.204.204 0 0 1 .147 0l20.362 6.034.822.183a.272.272 0 1 1-.128.53l-.841-.182h-.018l-20.326-5.998-26.978 6.565h-.073Zm-837.128 35.749a.274.274 0 0 1-.256-.183.27.27 0 0 1 .146-.347l.731-.293h.019l35.313-10.587c.019 0 .037 0 .037-.019l34.49-4.206 34.693-4.571a.284.284 0 0 1 .31.238.284.284 0 0 1-.237.31l-34.692 4.572-34.473 4.206-35.259 10.57-.731.292c-.018.018-.055.018-.091.018Z" fill="#095BB1"/><path d="M-161.718 87.063a.278.278 0 0 1-.275-.238c-.018-.146.092-.292.238-.292l.731-.074 36.995-4.845 32.755-9.966a.29.29 0 0 1 .347.182.29.29 0 0 1-.182.348l-32.792 9.966c-.018 0-.036 0-.036.018l-37.014 4.828-.749.073h-.018Zm612.945-60.82a.24.24 0 0 1-.22-.128l-.31-.457c-.019-.019-.019-.037-.037-.055l-3.18-7.845-3.089-3.95c-.092-.128-.074-.293.054-.384.128-.091.293-.073.384.055l3.108 3.968c.018.018.036.037.036.073l3.199 7.845.292.42c.092.129.055.293-.073.385a.224.224 0 0 1-.164.073Zm-178.982-7.168c-.018 0-.054 0-.073-.019-.146-.036-.219-.201-.182-.347l.146-.457s0-.019.018-.019l1.846-4.37a.386.386 0 0 1 .073-.11l1.737-1.426a.284.284 0 0 1 .384.036.284.284 0 0 1-.037.384l-1.682 1.372-1.809 4.297-.146.439a.273.273 0 0 1-.275.22Zm-15.609 1.975c-.019 0-.055 0-.073-.019-.147-.036-.22-.201-.183-.347l.128-.42 2.321-6.218c0-.018.018-.037.037-.073l2.175-3.036c.091-.128.256-.146.384-.055.128.092.146.256.055.384l-2.157 3.018-2.303 6.18-.128.403c-.019.11-.128.182-.256.182Zm-414.333 19.2a.26.26 0 0 1-.219-.11.284.284 0 0 1 .054-.384l4.095-2.98a.14.14 0 0 1 .091-.037l16.67-4.517 16.67-5.43 16.743-5.541 16.834-4.956 16.962-3.877h.019l17.072-2.468h.018l17.2-.878h.018l17.291.713h.019l17.382 2.103 11.662 2.103.274.055a.272.272 0 1 1-.128.53l-.256-.055L-.85 12.418l-17.364-2.102-17.273-.714-17.164.878-17.053 2.45-16.944 3.877-16.816 4.956-16.725 5.54-16.67 5.431-16.633 4.499-4.058 2.944a.165.165 0 0 1-.146.073Z" fill="#095BB1"/><path d="M-161.718 97.907a.277.277 0 0 1-.256-.165.282.282 0 0 1 .147-.366l37.762-15.762c.019 0 .037-.019.074-.019l37.233-5.083 30.195-9.418c.019 0 .037 0 .055-.018l34.912-4.206a.284.284 0 0 1 .31.238.284.284 0 0 1-.237.31l-34.893 4.207-.238.073-29.958 9.362c-.019 0-.037 0-.037.019l-37.233 5.083-37.726 15.726c-.037.019-.073.019-.11.019Zm0 69.78c-.146 0-.274-.11-.274-.256 0-.146.109-.274.256-.293l54.908-2.98 50.832-10.35 39.627-23.096 32.042-26.204a.306.306 0 0 1 .183-.055l45.55.896 45.713 1.554 18.991-22.912.019-.019 16.194-15.232c.055-.055.146-.073.22-.073l39.024 4.17 39.207 5.32 39.335 6.035 39.481 5.961 18.497 2.36a.284.284 0 0 1 .238.31.283.283 0 0 1-.311.238l-18.516-2.36-39.481-5.96-39.335-6.035-39.188-5.321-38.897-4.151-16.084 15.123-19.065 23.004c-.055.073-.128.109-.219.091l-45.842-1.554-45.458-.896-31.987 26.149c-.018.018-.018.018-.037.018l-39.664 23.132c-.018.019-.055.019-.091.037l-50.887 10.368h-.036l-54.945 2.981Zm89.728-124.42-33.267-.237-1.316.018-1.517-.037a.281.281 0 0 1-.274-.274c0-.146.128-.256.274-.274l1.518.036 1.315-.018 33.285.238 20.929-.147 42.058-.054 21.057-.256 13.179-6.327 12.136-6.712s.019 0 .019-.018l11.277-4.81c.019 0 .037-.017.074-.017l10.528-1.628c.146-.018.292.073.31.238.019.146-.073.293-.237.31l-10.492 1.628-11.223 4.791-12.137 6.711-13.251 6.364c-.037.018-.073.018-.11.018l-21.111.256-21.057.037h-21.02l-20.947.164Zm155.768 14.83a.26.26 0 0 1-.22-.11c-.091-.127-.054-.292.073-.383l.055-.037 2.523-1.774 11.661-9.289c.019 0 .019-.018.037-.018l10.674-6.017s.019-.018.037-.018l9.779-4.133h.018l8.975-3.072c.146-.054.292.037.347.165a.264.264 0 0 1-.164.347l-8.975 3.072-9.761 4.133-10.656 5.998-11.662 9.29-2.595 1.81a.344.344 0 0 1-.146.036Zm-199.91-15.177-3.912-.256-3.107-.293-2.065-.11-31.11-1.92-5.392-.31a.27.27 0 0 1-.256-.293c0-.146.146-.256.292-.256l5.393.311 31.109 1.938 2.084.11 3.107.293 3.894.256c.146.018.274.146.255.292-.018.128-.146.238-.292.238Z" fill="#095BB1"/><path d="M112.31 161.744c-.018 0-.018 0 0 0l-56.407-.878-56.078-2.779-55.73-3.731-55.347-3.895-50.43 6.821a.285.285 0 0 1-.311-.238.284.284 0 0 1 .238-.31l50.448-6.858h.055l55.383 3.895 55.73 3.731 56.06 2.779 56.261.878 22.61-25.656 18.333-26.716 15.263-21.87c0-.019.018-.019.018-.037l12.941-13.989c.018-.018.055-.055.091-.055l11.132-5.047c.055-.018.11-.036.164-.018l36.319 6.492 36.447 7.515a.3.3 0 0 1 .22.33.301.301 0 0 1-.329.219l-36.429-7.516-36.228-6.473-11.003 4.992-12.886 13.934-15.244 21.852-18.37 26.735-.018.018-22.702 25.765a.254.254 0 0 1-.201.11ZM-132.564 48.479c-.019 0-.019 0 0 0l-24.018-1.463-5.155-.33c-.146-.018-.274-.146-.255-.292.018-.146.146-.274.292-.256l5.154.33 23.963 1.462 21.898-5.175h.073l20.234.585 18.351-.603 16.579-5.56 15.19-7.954 14.019-8.119a.339.339 0 0 1 .128-.036l18.625-.128 18.717.786 18.772 1.317 18.808 1.371 18.882 2.048 36.355 5.139a.285.285 0 0 1 .238.31.284.284 0 0 1-.311.238l-36.337-5.138-18.882-2.103-18.79-1.353-18.771-1.317-18.7-.786-18.533.128-13.965 8.1-15.208 7.973c-.018 0-.018.019-.036.019l-16.633 5.577c-.019 0-.055.018-.074.018l-18.442.604-20.216-.586-21.898 5.176c-.018.018-.036.018-.054.018Z" fill="#095BB1"/><path d="m-90.396 43.87-4.277-.164-15.153-.695h-.018l-1.042-.128-4.734-.22a.26.26 0 0 1-.256-.292c0-.146.128-.256.292-.256l4.734.238h.019l1.042.128 15.152.695 4.277.164a.26.26 0 0 1 .256.293.316.316 0 0 1-.292.238Zm-71.322-5.12a.29.29 0 0 1-.274-.219c-.019-.146.073-.293.219-.31l8.061-1.482 16.085-8.905c.018 0 .036-.019.055-.019l15.28-5.01h.019l10.272-2.25 6.836-2.047 16.176-4.535 16.36-3.658h.018l16.468-2.359h.019l16.578-.804h.018l.494.018 16.194.805h.019l16.78 2.359h.018l16.852 3.62c.018 0 .037.018.055.018l.073.037 5.721 1.042a.258.258 0 0 1 .22.311.258.258 0 0 1-.311.22l-5.758-1.043c-.018 0-.037-.018-.055-.018l-.073-.037-16.816-3.62-.585-.092-16.176-2.267-16.652-.823-16.56.786-16.45 2.341-16.341 3.657-.22.055-16.011 4.48-6.745 2.03h-.018l-10.273 2.286-15.225 5.01-16.085 8.924c-.019.018-.055.018-.092.037l-8.115 1.462h-.055Z" fill="#095BB1"/><path d="M-57.367 8.651c-.11 0-.201-.054-.238-.146-.073-.128-.018-.292.128-.366l.274-.128 6.617-3.273c.128-.073.292-.018.366.128.073.128.018.293-.128.366l-6.91 3.401c-.036.018-.073.018-.11.018Z" fill="#095BB1"/><path d="M-161.718 30.21c-.11 0-.201-.072-.256-.164-.055-.146.018-.292.146-.365l8.061-3.329 15.226-5.504h.018l14.385-4.04h.018l13.581-2.726 12.831-1.865 12.082-1.774 11.351-2.816L-63.6 3.166c.036-.019.091-.019.146-.019L-50.44 4.72h.018l11.443 2.45a.273.273 0 1 1-.128.53l-.293-.073-11.113-2.377-12.941-1.572-10.62 4.461c-.018 0-.018.019-.036.019l-11.388 2.834h-.018l-12.1 1.774-12.85 1.847-13.544 2.706-14.33 4.06-15.226 5.485-8.043 3.329c-.036.018-.073.018-.109.018Zm855.023 5.176a.296.296 0 0 1-.165-.055l-.091-.073-12.101-9.235-12.484-10.405-11.771-6.583c-.128-.073-.183-.237-.11-.365.074-.128.238-.183.366-.11l11.789 6.583c.019 0 .037.018.037.037l12.502 10.404 12.192 9.308c.128.092.146.256.055.384a.285.285 0 0 1-.219.11ZM-111.27 150.443c-.018 0-.018 0 0 0l-50.466-3.109a.294.294 0 0 1-.256-.292c.018-.146.146-.274.292-.256l50.375 3.109 45.22-20.737 36.557-24.577a.21.21 0 0 1 .147-.055l45.147-.073 26.558-23.059c.055-.036.11-.073.183-.073l41.693.622 19.338-15.91c.019-.018.037-.036.074-.036l16.761-6.82c.036-.019.091-.019.128-.019l36.026 3.456 36.21 5.12a.283.283 0 0 1 .237.311.283.283 0 0 1-.311.238l-36.191-5.12-35.953-3.456-16.67 6.766-19.393 15.945a.309.309 0 0 1-.183.055l-41.693-.622-26.54 23.078c-.055.036-.11.073-.183.073l-45.165.073-36.502 24.54c-.018 0-.018.018-.037.018l-45.293 20.792c-.037 0-.073.018-.11.018ZM362.54 17.264h-.018l-10.839-.841a.296.296 0 0 1-.256-.293.295.295 0 0 1 .292-.256l.311.019 10.528.822a.295.295 0 0 1 .256.293c0 .146-.128.256-.274.256Z" fill="#095BB1"/></svg>