<svg width="61" height="60" fill="none" xmlns="http://www.w3.org/2000/svg"><circle cx="30.5" cy="30" r="30" fill="#F8F8F8"/><g clip-path="url(#a)" fill="#626262"><path d="M21.843 30.98a4.66 4.66 0 0 0 3.14 1.398c.005.075.01.177.01.317 0 .575-.438 2.331-.713 3.303l-.282.994h3.421l.23-.37c.09-.146 2.226-3.648 2.226-8.927a4.693 4.693 0 0 0-4.688-4.687 4.693 4.693 0 0 0-4.687 4.687 4.66 4.66 0 0 0 1.343 3.284Zm3.345-6.41a3.129 3.129 0 0 1 3.125 3.125c0 3.88-1.283 6.752-1.79 7.735h-.474c.225-.883.506-2.111.506-2.735 0-.494-.037-.892-.216-1.224-.16-.295-.494-.647-1.18-.65l-.034-.002a3.14 3.14 0 0 1-3.063-3.124 3.129 3.129 0 0 1 3.125-3.125Zm7.28 6.41a4.66 4.66 0 0 0 3.14 1.398c.005.075.01.177.01.317 0 .575-.438 2.331-.713 3.303l-.282.994h3.421l.23-.37c.09-.146 2.226-3.648 2.226-8.927a4.693 4.693 0 0 0-4.688-4.687 4.693 4.693 0 0 0-4.687 4.687 4.66 4.66 0 0 0 1.343 3.284Zm3.344-6.41a3.129 3.129 0 0 1 3.126 3.125c0 3.88-1.283 6.752-1.79 7.735h-.474c.225-.883.506-2.111.506-2.735 0-.494-.037-.892-.216-1.224-.16-.295-.494-.647-1.18-.65l-.033-.002a3.14 3.14 0 0 1-3.063-3.124 3.129 3.129 0 0 1 3.124-3.125Z"/></g><defs><clipPath id="a"><path fill="#fff" transform="rotate(-180 20.25 20)" d="M0 0h20v20H0z"/></clipPath></defs></svg>