<svg width="59" height="65" fill="none" xmlns="http://www.w3.org/2000/svg"><g clip-path="url(#a)" fill="#689F63"><path d="M29.513 64.666a5.15 5.15 0 0 1-2.516-.656l-8.009-4.624c-1.196-.652-.612-.883-.218-1.016 1.595-.544 1.919-.667 3.621-1.61.18-.1.413-.064.597.041l6.152 3.56a.83.83 0 0 0 .744 0l23.99-13.503a.734.734 0 0 0 .366-.633V19.23c0-.27-.144-.51-.37-.644L29.888 5.094a.754.754 0 0 0-.739 0L5.174 18.586a.743.743 0 0 0-.38.638v26.995c0 .258.144.504.372.627l6.57 3.7c3.567 1.74 5.747-.31 5.747-2.37V21.53c0-.38.306-.673.696-.673h3.039c.378 0 .69.293.69.673v26.656c0 4.638-2.594 7.302-7.104 7.302-1.387 0-2.48 0-5.53-1.464L2.98 50.488C1.425 49.61.464 47.97.464 46.22V19.224c0-1.757.961-3.396 2.516-4.263l24.015-13.51c1.519-.837 3.537-.837 5.044 0l23.984 13.516a4.911 4.911 0 0 1 2.516 4.263v26.995c0 1.751-.966 3.385-2.516 4.263L32.04 63.998a5.142 5.142 0 0 1-2.528.656"/><path d="M36.924 46.064c-10.497 0-12.698-4.699-12.698-8.64 0-.374.31-.673.695-.673h3.098a.69.69 0 0 1 .685.573c.468 3.079 1.861 4.632 8.209 4.632 5.056 0 7.206-1.114 7.206-3.729 0-1.505-.613-2.623-8.467-3.373-6.57-.632-10.63-2.043-10.63-7.167 0-4.72 4.084-7.53 10.924-7.53 7.68 0 11.488 2.6 11.968 8.186a.672.672 0 0 1-.186.52.723.723 0 0 1-.51.218H44.1a.685.685 0 0 1-.673-.527c-.75-3.239-2.564-4.275-7.494-4.275-5.519 0-6.161 1.874-6.161 3.279 0 1.704.756 2.202 8.203 3.162 7.374.955 10.875 2.302 10.875 7.355 0 5.095-4.36 8.017-11.962 8.017"/></g><defs><clipPath id="a"><path fill="#fff" d="M0 0h59v65H0z"/></clipPath></defs></svg>