<svg width="44" height="65" fill="none" xmlns="http://www.w3.org/2000/svg"><path d="M10.818 64.09c5.965 0 10.807-4.785 10.807-10.678V42.734H10.818C4.853 42.734.011 47.518.011 53.412c0 5.893 4.842 10.678 10.807 10.678Z" fill="#0ACF83"/><path d="M0 32.045c0-5.894 4.842-10.678 10.807-10.678h10.806v21.367H10.807C4.842 42.734 0 37.95 0 32.056v-.011Z" fill="#A259FF"/><path d="M0 10.678C0 4.784 4.842 0 10.807 0h10.806v21.367H10.807C4.842 21.367 0 16.583 0 10.689v-.011Z" fill="#F24E1E"/><path d="M21.523 0h10.806c5.965 0 10.807 4.784 10.807 10.678 0 5.893-4.842 10.678-10.807 10.678H21.523V0Z" fill="#FF7262"/><path d="M43.25 32.045c0 5.893-4.843 10.678-10.807 10.678-5.965 0-10.92-4.785-10.92-10.678 0-5.894 4.842-10.678 10.806-10.678 5.965 0 10.807 4.784 10.807 10.678h.113Z" fill="#1ABCFE"/></svg>