<svg width="73" height="64" fill="none" xmlns="http://www.w3.org/2000/svg"><g clip-path="url(#a)"><path d="M36.5 38.411c3.593 0 6.507-2.87 6.507-6.411 0-3.54-2.914-6.411-6.507-6.411-3.593 0-6.506 2.87-6.506 6.411 0 3.541 2.913 6.411 6.506 6.411Z" fill="#61DAFB"/><path d="M36.5 45.136c19.282 0 34.913-5.881 34.913-13.136 0-7.255-15.631-13.136-34.913-13.136-19.282 0-34.913 5.881-34.913 13.136 0 7.255 15.631 13.136 34.913 13.136Z" stroke="#61DAFB" stroke-width="3"/><path d="M24.956 38.568c9.64 16.454 22.625 26.853 29 23.226 6.376-3.628 3.73-19.907-5.912-36.362-9.64-16.454-22.625-26.853-29-23.226-6.376 3.628-3.73 19.907 5.912 36.362Z" stroke="#61DAFB" stroke-width="3"/><path d="M24.956 25.432c-9.641 16.455-12.288 32.734-5.913 36.362 6.376 3.627 19.36-6.772 29.002-23.226 9.64-16.455 12.287-32.734 5.911-36.362-6.375-3.627-19.36 6.772-29 23.226Z" stroke="#61DAFB" stroke-width="3"/></g><defs><clipPath id="a"><path fill="#fff" d="M0 0h73v64H0z"/></clipPath></defs></svg>