<svg width="118" height="76" viewBox="0 0 118 76" fill="none" xmlns="http://www.w3.org/2000/svg">
<path d="M79.3425 0.000135178C79.2318 0.000208292 79.1231 0.0289906 79.027 0.0836478C78.9316 0.139305 78.8523 0.218781 78.797 0.314248C78.7418 0.409715 78.7124 0.517877 78.7119 0.62808V16.6445C78.7119 16.8016 78.6386 16.9424 78.5019 17.0213C78.4349 17.0602 78.3587 17.0806 78.2812 17.0806C78.2037 17.0806 78.1275 17.0602 78.0605 17.0213L75.4336 15.514C75.242 15.4035 75.0245 15.3454 74.8032 15.3454C74.5818 15.3454 74.3643 15.4035 74.1727 15.514L63.6863 21.5435C63.2943 21.769 63.0559 22.2023 63.0559 22.6533V34.7126C63.0559 35.163 63.2946 35.5756 63.6863 35.8011L74.1727 41.8309C74.3642 41.9417 74.5817 42 74.8032 42C75.0246 42 75.2421 41.9417 75.4336 41.8309L85.9201 35.8011C86.112 35.6911 86.2715 35.5324 86.3822 35.3413C86.4929 35.1501 86.551 34.9333 86.5507 34.7126V4.64803C86.5504 4.42217 86.4899 4.20043 86.3755 4.00545C86.2611 3.81048 86.0967 3.64924 85.8993 3.53822L79.6576 0.0626969C79.5598 0.00828275 79.4511 -0.00131975 79.3425 0.000135178V0.000135178ZM11.8843 15.0534C11.6845 15.0612 11.4964 15.0961 11.3171 15.1997L0.830321 21.2295C0.638225 21.3394 0.478738 21.4981 0.36804 21.6892C0.257343 21.8804 0.199375 22.0974 0.200017 22.3181L0.221047 38.5024C0.221047 38.7273 0.337586 38.9365 0.536199 39.0465C0.631418 39.1035 0.74041 39.1336 0.851496 39.1336C0.962582 39.1336 1.07157 39.1035 1.16679 39.0465L7.38717 35.4875C7.78118 35.2541 8.0385 34.8485 8.0385 34.3986V26.8406C8.0385 26.3895 8.27654 25.9758 8.66909 25.7517L11.3168 24.2234C11.5082 24.1126 11.7259 24.0547 11.9474 24.0558C12.1635 24.0558 12.3855 24.1097 12.5777 24.2234L15.2256 25.7517C15.4179 25.8615 15.5776 26.0202 15.6883 26.2114C15.7991 26.4027 15.857 26.6198 15.8562 26.8406V34.3983C15.8562 34.8482 16.1162 35.2567 16.5076 35.4872L22.7279 39.0465C22.8232 39.1035 22.9322 39.1336 23.0432 39.1336C23.1543 39.1336 23.2633 39.1035 23.3585 39.0465C23.4544 38.9912 23.534 38.9119 23.5893 38.8163C23.6447 38.7208 23.6739 38.6124 23.674 38.5021L23.6944 22.3181C23.6957 22.0973 23.638 21.8801 23.5272 21.6888C23.4164 21.4975 23.2566 21.339 23.0641 21.2295L12.5777 15.1997C12.4004 15.0961 12.2117 15.0615 12.0105 15.0534H11.8843ZM106.115 15.1997C105.896 15.1997 105.682 15.255 105.485 15.3673L94.9987 21.3971C94.8067 21.5072 94.6472 21.6658 94.5365 21.8569C94.4258 22.0481 94.3677 22.265 94.3681 22.4857V34.545C94.3681 34.9986 94.6245 35.4095 95.0194 35.6338L105.422 41.5379C105.806 41.7562 106.275 41.7727 106.662 41.5583L112.966 38.0621C113.166 37.9515 113.302 37.7449 113.303 37.518C113.304 37.4074 113.275 37.2986 113.22 37.2029C113.164 37.1072 113.084 37.028 112.987 36.9735L102.438 30.9437C102.24 30.8314 102.102 30.6042 102.102 30.3784V26.6101C102.102 26.3846 102.242 26.178 102.438 26.0657L105.716 24.1813C105.812 24.126 105.921 24.0969 106.031 24.0969C106.142 24.0969 106.251 24.126 106.347 24.1813L109.625 26.0657C109.721 26.1206 109.801 26.1999 109.856 26.2955C109.911 26.391 109.94 26.4995 109.94 26.6098V29.5828C109.94 29.6931 109.969 29.8016 110.024 29.8971C110.08 29.9927 110.159 30.072 110.255 30.1269C110.452 30.2401 110.69 30.2404 110.886 30.1269L117.169 26.4847C117.361 26.3742 117.52 26.2154 117.631 26.0243C117.742 25.8332 117.8 25.6165 117.8 25.3958V22.486C117.8 22.0364 117.561 21.6229 117.169 21.3971L106.746 15.3673C106.554 15.2569 106.337 15.1992 106.115 15.2V15.1997ZM74.761 24.2025C74.8159 24.2025 74.8801 24.2159 74.9292 24.2441L78.5229 26.3168C78.6205 26.373 78.6911 26.4768 78.6911 26.5889V30.7342C78.6911 30.8468 78.621 30.9504 78.5229 31.0066L74.9292 33.0793C74.8812 33.1066 74.8269 33.1209 74.7716 33.1209C74.7163 33.1209 74.662 33.1066 74.614 33.0793L71.0206 31.0066C70.9228 30.9501 70.8524 30.8468 70.8524 30.7342V26.5889C70.8524 26.4765 70.9231 26.3735 71.0206 26.3168L74.614 24.2444C74.6582 24.217 74.7092 24.2026 74.7612 24.2028V24.2025H74.761Z" fill="#404137"/>
<path d="M43.162 15.6C42.9432 15.6 42.7268 15.6548 42.5309 15.7661L32.0314 21.7224C31.6387 21.9454 31.4 22.3757 31.4 22.8223V34.7761C31.4 35.2232 31.6389 35.6316 32.0314 35.8555L42.5309 41.8323C42.7226 41.9421 42.9404 42 43.1621 42C43.3838 42 43.6016 41.9421 43.7933 41.8323L54.2928 35.8555C54.485 35.7463 54.6446 35.589 54.7554 35.3994C54.8662 35.2099 54.9244 34.9949 54.9239 34.7761V22.8223C54.9239 22.3752 54.6853 21.9454 54.2928 21.7224L43.7933 15.7661C43.6014 15.6568 43.3836 15.5995 43.162 15.6V15.6ZM105.949 26.2674C105.907 26.2674 105.86 26.2674 105.822 26.2882L103.803 27.4503C103.765 27.4709 103.733 27.501 103.711 27.5374C103.689 27.5739 103.677 27.6155 103.676 27.658V29.9407C103.676 30.0266 103.727 30.1054 103.803 30.1484L105.822 31.2897C105.898 31.333 105.979 31.333 106.054 31.2897L108.074 30.1481C108.111 30.1273 108.143 30.0973 108.165 30.0609C108.187 30.0245 108.199 29.9831 108.2 29.9407V27.6577C108.199 27.6153 108.187 27.5738 108.165 27.5375C108.143 27.5011 108.111 27.471 108.074 27.4503L106.054 26.2879C106.016 26.2662 105.991 26.2677 105.949 26.2677V26.2674Z" fill="#689F63"/>
<g clip-path="url(#clip0_1925_5103)">
<path d="M58.507 75.8253C58.0463 75.8253 57.5888 75.708 57.1849 75.4822L52.9768 73.0637C52.3483 72.7224 52.655 72.6017 52.8623 72.5322C53.7003 72.2473 53.8704 72.183 54.7649 71.6899C54.8589 71.6378 54.982 71.6562 55.0782 71.7113L58.311 73.5737C58.4278 73.6349 58.5934 73.6349 58.7017 73.5737L71.3067 66.5102C71.4235 66.4459 71.4992 66.3142 71.4992 66.1794V52.0587C71.4992 51.9178 71.4235 51.7923 71.3042 51.7218L58.7042 44.6645C58.5874 44.5971 58.4328 44.5971 58.3161 44.6645L45.7186 51.7218C45.5965 51.7892 45.5189 51.9209 45.5189 52.0557V66.1764C45.5189 66.3111 45.5946 66.4398 45.7145 66.5041L49.1663 68.44C51.0405 69.3497 52.1858 68.2776 52.1858 67.1994V53.2625C52.1858 53.0634 52.3467 52.9103 52.5518 52.9103H54.1484C54.3471 52.9103 54.5112 53.0634 54.5112 53.2625V67.2056C54.5112 69.6315 53.1482 71.0252 50.7786 71.0252C50.0497 71.0252 49.4755 71.0252 47.8727 70.2594L44.566 68.4093C43.7488 67.9499 43.244 67.0922 43.244 66.1764V52.0557C43.244 51.1368 43.7488 50.2791 44.566 49.8258L57.1837 42.7593C57.9819 42.3213 59.0421 42.3213 59.8341 42.7593L72.436 49.8288C73.25 50.2852 73.758 51.1398 73.758 52.0587V66.1794C73.758 67.0953 73.25 67.9499 72.436 68.4093L59.8341 75.4758C59.4302 75.7025 58.9727 75.8189 58.5057 75.8189" fill="#689F63"/>
<path d="M62.4005 66.0951C56.8852 66.0951 55.7288 63.6373 55.7288 61.5759C55.7288 61.3798 55.8916 61.2236 56.0939 61.2236H57.722C57.9018 61.2236 58.0533 61.3507 58.0817 61.5232C58.3278 63.1337 59.0598 63.9461 62.3948 63.9461C65.0515 63.9461 66.1811 63.3635 66.1811 61.9958C66.1811 61.2086 65.8593 60.6236 61.7322 60.2315C58.2804 59.9007 56.1475 59.1625 56.1475 56.4823C56.1475 54.0135 58.2931 52.5432 61.8868 52.5432C65.9224 52.5432 67.9228 53.9032 68.1752 56.8254C68.1846 56.9264 68.1468 57.0245 68.0774 57.098C68.008 57.1684 67.9101 57.2113 67.8092 57.2113H66.1716C66.0012 57.2113 65.8529 57.0949 65.8182 56.9356C65.4238 55.2418 64.471 54.6996 61.8805 54.6996C58.9809 54.6996 58.6433 55.6798 58.6433 56.4149C58.6433 57.3063 59.0408 57.5666 62.9533 58.069C66.8279 58.5682 68.6674 59.2727 68.6674 61.9162C68.6674 64.581 66.3767 66.1095 62.3822 66.1095" fill="#689F63"/>
</g>
<defs>
<clipPath id="clip0_1925_5103">
<rect width="31" height="34" fill="white" transform="translate(43 42)"/>
</clipPath>
</defs>
</svg>
