<svg width="344" height="135" viewBox="0 0 344 135" fill="none" xmlns="http://www.w3.org/2000/svg">
<path d="M107.414 115.903C106.276 115.903 105.164 115.735 104.079 115.399C103.019 115.063 102.036 114.494 101.131 113.692C100.304 113.175 99.6189 112.438 99.076 111.482C98.5589 110.499 98.3521 109.491 98.4555 108.457C98.5848 107.242 99.0114 105.988 99.7353 104.695C100.459 103.403 101.403 102.123 102.566 100.856C103.73 99.5636 105.022 98.3614 106.444 97.2497C107.892 96.1122 109.391 95.1039 110.943 94.2249C112.494 93.32 114.006 92.6091 115.48 92.092C117.186 91.4974 118.815 91.2001 120.366 91.2001C121.349 91.2001 122.15 91.3293 122.77 91.5879C123.417 91.8464 123.753 92.2471 123.779 92.79C124.296 93.4881 124.554 94.2507 124.554 95.078C124.554 96.0605 124.218 97.03 123.546 97.9865C122.9 98.9431 122.098 99.848 121.142 100.701C120.185 101.554 119.216 102.304 118.233 102.95C117.251 103.571 116.423 104.062 115.751 104.424C115.648 104.527 115.544 104.579 115.441 104.579C115.26 104.579 115.26 104.463 115.441 104.23C115.881 104.075 116.423 103.752 117.07 103.261C117.742 102.744 118.453 102.123 119.203 101.399C119.952 100.675 120.65 99.9255 121.297 99.1499C121.969 98.3485 122.512 97.5729 122.926 96.8231C123.339 96.0475 123.546 95.3624 123.546 94.7678C123.546 94.2249 123.326 93.7983 122.887 93.4881C122.447 93.152 121.723 92.9839 120.715 92.9839C119.371 92.9839 117.858 93.2683 116.178 93.8371C114.497 94.38 112.791 95.1556 111.059 96.1639C109.327 97.1722 107.711 98.3873 106.211 99.8092C104.712 101.205 103.458 102.769 102.45 104.502C101.467 106.234 100.873 108.082 100.666 110.047C100.64 110.15 100.627 110.254 100.627 110.357C100.627 110.435 100.627 110.525 100.627 110.629C100.627 111.689 100.899 112.542 101.442 113.188C102.01 113.835 102.747 114.3 103.652 114.584C104.557 114.869 105.539 115.011 106.599 115.011C107.039 115.011 107.478 114.985 107.918 114.933C108.383 114.882 108.836 114.817 109.275 114.739C111.473 114.326 113.502 113.705 115.364 112.878C117.225 112.051 118.88 111.146 120.327 110.163C120.56 110.008 120.715 109.931 120.793 109.931C120.844 109.931 120.87 109.957 120.87 110.008C120.87 110.086 120.793 110.202 120.638 110.357C120.069 110.9 119.384 111.469 118.582 112.064C117.781 112.658 116.966 113.162 116.139 113.576C114.872 114.196 113.476 114.739 111.951 115.205C110.451 115.67 108.939 115.903 107.414 115.903ZM128.864 115.321C128.218 115.321 127.662 115.088 127.196 114.623C126.731 114.184 126.498 113.46 126.498 112.451C126.498 111.159 126.835 109.582 127.507 107.72C128.179 105.859 129.032 103.907 130.066 101.865C130.868 100.339 131.721 98.8785 132.626 97.4824C133.531 96.0863 134.422 94.8454 135.301 93.7595C136.18 92.6478 136.982 91.7818 137.706 91.1613C138.456 90.515 139.063 90.1918 139.528 90.1918C139.968 90.1918 140.291 90.3081 140.498 90.5408C140.731 90.7735 140.925 91.032 141.08 91.3164C141.261 91.6008 141.493 91.8335 141.778 92.0144C141.752 92.6091 141.442 93.3588 140.847 94.2637C140.252 95.1685 139.541 96.151 138.714 97.2109C138.171 97.8573 137.396 98.775 136.387 99.9643C135.405 101.128 134.422 102.33 133.44 103.571C132.639 104.553 131.928 105.497 131.307 106.402C130.687 107.307 130.208 108.056 129.872 108.651C129.769 108.832 129.691 108.897 129.64 108.845C129.588 108.793 129.588 108.716 129.64 108.612C129.898 108.095 130.299 107.436 130.842 106.634C131.411 105.807 132.044 104.928 132.742 103.997C133.44 103.067 134.125 102.175 134.797 101.322C135.47 100.443 136.051 99.6799 136.542 99.0336C137.034 98.3873 137.37 97.9607 137.551 97.7538C137.938 97.2626 138.313 96.7973 138.675 96.3578C139.037 95.8924 139.36 95.4529 139.645 95.0393C139.955 94.5739 140.175 94.1603 140.304 93.7983C140.459 93.4364 140.537 93.1391 140.537 92.9064C140.537 92.4927 140.369 92.2859 140.033 92.2859C139.8 92.2859 139.503 92.4022 139.141 92.6349C138.805 92.8676 138.417 93.2425 137.977 93.7595C137.331 94.5351 136.568 95.4917 135.689 96.6292C134.836 97.7409 133.957 98.9689 133.052 100.313C132.147 101.658 131.307 103.067 130.532 104.54C129.782 105.988 129.161 107.449 128.67 108.922C128.205 110.37 127.972 111.766 127.972 113.111C127.972 113.731 128.101 114.171 128.36 114.429C128.618 114.688 128.929 114.817 129.291 114.817C129.678 114.817 130.079 114.714 130.493 114.507C130.932 114.274 131.294 113.99 131.579 113.654C132.018 113.188 132.445 112.671 132.858 112.102C133.298 111.534 133.686 111.004 134.022 110.512C134.384 109.995 134.642 109.608 134.797 109.349C134.875 109.22 134.952 109.155 135.03 109.155C135.159 109.155 135.159 109.259 135.03 109.465C134.616 110.163 134.125 110.9 133.556 111.676C133.013 112.426 132.522 113.072 132.083 113.615C131.669 114.132 131.165 114.545 130.57 114.856C130.002 115.166 129.433 115.321 128.864 115.321ZM146.087 103.416C145.699 103.261 145.363 103.015 145.079 102.679C144.82 102.317 144.73 101.929 144.807 101.515C144.859 101.283 144.924 101.141 145.001 101.089C145.105 101.011 145.376 100.96 145.816 100.934L147.871 100.585C148.104 100.533 148.22 100.533 148.22 100.585C148.22 100.688 148.129 100.766 147.949 100.817C147.535 100.921 147.173 101.076 146.863 101.283C146.552 101.49 146.294 101.774 146.087 102.136C146.035 102.214 146.01 102.33 146.01 102.485C146.01 102.64 146.035 102.795 146.087 102.95C146.165 103.08 146.242 103.196 146.32 103.299C146.397 103.403 146.397 103.454 146.32 103.454C146.268 103.454 146.19 103.442 146.087 103.416ZM141.55 115.166C140.671 115.166 140.05 114.895 139.688 114.352C139.352 113.783 139.184 113.111 139.184 112.335C139.184 111.74 139.262 111.133 139.417 110.512C139.598 109.892 139.818 109.336 140.076 108.845C139.844 108.741 139.766 108.651 139.844 108.573C140.025 108.315 140.244 107.992 140.503 107.604C140.787 107.216 141.072 106.828 141.356 106.441C141.692 106.001 141.989 105.639 142.248 105.355C142.532 105.07 142.83 104.928 143.14 104.928C143.347 104.928 143.528 104.993 143.683 105.122C143.864 105.251 144.045 105.381 144.226 105.51C143.631 106.13 143.036 106.893 142.442 107.798C141.847 108.703 141.356 109.659 140.968 110.668C140.606 111.65 140.425 112.619 140.425 113.576C140.425 113.99 140.516 114.287 140.697 114.468C140.904 114.623 141.149 114.701 141.434 114.701C142.028 114.701 142.558 114.494 143.023 114.08C143.515 113.641 144.083 113.007 144.73 112.18C145.402 111.327 146.035 110.435 146.63 109.504C146.785 109.297 146.901 109.181 146.979 109.155C147.082 109.129 147.095 109.181 147.018 109.31C146.811 109.724 146.488 110.254 146.048 110.9C145.635 111.521 145.195 112.141 144.73 112.762C144.264 113.382 143.864 113.86 143.528 114.196C143.192 114.533 142.843 114.778 142.481 114.933C142.144 115.088 141.834 115.166 141.55 115.166ZM136.192 130.794C135.882 130.794 135.533 130.755 135.145 130.678C134.732 130.626 134.37 130.536 134.06 130.406C133.879 130.329 133.827 130.251 133.904 130.174C133.982 130.096 134.073 130.083 134.176 130.135C134.46 130.238 134.758 130.303 135.068 130.329C135.352 130.355 135.65 130.368 135.96 130.368C136.761 130.368 137.614 130.109 138.519 129.592C139.398 129.075 140.303 128.39 141.234 127.537C142.139 126.684 143.031 125.753 143.91 124.745C145.047 123.452 146.159 121.952 147.245 120.246C148.305 118.566 149.274 116.833 150.153 115.05C151.032 113.266 151.743 111.585 152.286 110.008C152.855 108.431 153.178 107.1 153.256 106.014C152.609 107.022 152.015 107.953 151.472 108.806C150.955 109.633 150.334 110.564 149.61 111.598C149.533 111.702 149.468 111.753 149.416 111.753C149.391 111.753 149.365 111.715 149.339 111.637C149.339 111.534 149.352 111.456 149.378 111.404C150.05 110.499 150.67 109.517 151.239 108.457C151.834 107.397 152.312 106.324 152.674 105.238C153.062 104.127 153.243 103.054 153.217 102.02C153.32 101.994 153.411 101.981 153.488 101.981C153.592 101.981 153.682 101.981 153.76 101.981C154.665 101.981 155.117 102.369 155.117 103.144C155.117 103.454 155.014 103.842 154.807 104.308C154.678 104.618 154.484 104.902 154.225 105.161C153.992 105.419 153.734 105.678 153.449 105.936C153.501 106.143 153.54 106.363 153.566 106.596C153.592 106.828 153.605 107.087 153.605 107.371C153.605 107.94 153.54 108.586 153.411 109.31C153.307 110.034 153.113 110.9 152.829 111.908C153.449 110.616 154.173 109.375 155.001 108.186C155.854 106.996 156.694 106.027 157.521 105.277C158.375 104.527 159.098 104.153 159.693 104.153C160.081 104.153 160.43 104.282 160.74 104.54C161.076 104.799 161.348 105.096 161.554 105.432C161.761 105.742 161.865 106.027 161.865 106.285C161.865 107.139 161.58 108.043 161.012 109C160.443 109.931 159.706 110.81 158.801 111.637C157.922 112.464 156.991 113.136 156.009 113.654C155.052 114.145 154.173 114.39 153.372 114.39C153.217 114.39 153.049 114.377 152.868 114.352C152.713 114.3 152.493 114.106 152.209 113.77L152.015 114.235C151.058 116.329 150.011 118.423 148.873 120.518C147.762 122.612 146.469 124.499 144.995 126.179C143.522 127.782 142.1 128.946 140.73 129.67C139.334 130.419 137.821 130.794 136.192 130.794ZM152.441 113.46C152.881 113.46 153.32 113.369 153.76 113.188C154.225 112.981 154.587 112.8 154.846 112.645C155.569 112.232 156.319 111.676 157.095 110.978C157.896 110.254 158.62 109.478 159.266 108.651C159.913 107.824 160.378 107.035 160.663 106.285C160.74 106.001 160.779 105.768 160.779 105.587C160.779 104.941 160.494 104.618 159.926 104.618C159.615 104.618 159.254 104.747 158.84 105.006C158.452 105.264 158.064 105.587 157.676 105.975C157.289 106.337 156.94 106.686 156.629 107.022C156.009 107.694 155.401 108.444 154.807 109.271C154.238 110.073 153.734 110.848 153.294 111.598C152.881 112.348 152.596 112.968 152.441 113.46ZM169.367 108.03C168.953 108.03 168.578 108.005 168.242 107.953C167.906 107.901 167.738 107.785 167.738 107.604C167.738 107.397 167.79 107.229 167.893 107.1C168.022 106.945 168.152 106.867 168.281 106.867C169.212 106.867 170.142 106.867 171.073 106.867C172.004 106.841 172.922 106.828 173.826 106.828C174.007 106.828 174.305 106.841 174.718 106.867C175.158 106.867 175.559 106.867 175.921 106.867C176.024 106.867 176.076 106.906 176.076 106.983C176.076 107.009 176.011 107.074 175.882 107.177C175.778 107.255 175.572 107.345 175.261 107.449C174.873 107.552 174.421 107.643 173.904 107.72C173.387 107.772 172.909 107.824 172.469 107.875C172.055 107.901 171.771 107.914 171.616 107.914C171.513 107.914 171.228 107.94 170.763 107.992C170.323 108.018 169.858 108.03 169.367 108.03ZM192.449 115.903C191.311 115.903 190.2 115.735 189.114 115.399C188.054 115.063 187.071 114.494 186.167 113.692C185.339 113.175 184.654 112.438 184.111 111.482C183.594 110.499 183.387 109.491 183.491 108.457C183.62 107.242 184.047 105.988 184.771 104.695C185.494 103.403 186.438 102.123 187.601 100.856C188.765 99.5636 190.057 98.3614 191.479 97.2497C192.927 96.1122 194.427 95.1039 195.978 94.2249C197.529 93.32 199.041 92.6091 200.515 92.092C202.221 91.4974 203.85 91.2001 205.401 91.2001C206.384 91.2001 207.185 91.3293 207.806 91.5879C208.452 91.8464 208.788 92.2471 208.814 92.79C209.331 93.4881 209.59 94.2507 209.59 95.078C209.59 96.0605 209.253 97.03 208.581 97.9865C207.935 98.9431 207.133 99.848 206.177 100.701C205.22 101.554 204.251 102.304 203.268 102.95C202.286 103.571 201.459 104.062 200.787 104.424C200.683 104.527 200.58 104.579 200.476 104.579C200.295 104.579 200.295 104.463 200.476 104.23C200.916 104.075 201.459 103.752 202.105 103.261C202.777 102.744 203.488 102.123 204.238 101.399C204.988 100.675 205.686 99.9255 206.332 99.1499C207.004 98.3485 207.547 97.5729 207.961 96.8231C208.374 96.0475 208.581 95.3624 208.581 94.7678C208.581 94.2249 208.362 93.7983 207.922 93.4881C207.483 93.152 206.759 92.9839 205.75 92.9839C204.406 92.9839 202.894 93.2683 201.213 93.8371C199.533 94.38 197.826 95.1556 196.094 96.1639C194.362 97.1722 192.746 98.3873 191.247 99.8092C189.747 101.205 188.493 102.769 187.485 104.502C186.503 106.234 185.908 108.082 185.701 110.047C185.675 110.15 185.662 110.254 185.662 110.357C185.662 110.435 185.662 110.525 185.662 110.629C185.662 111.689 185.934 112.542 186.477 113.188C187.046 113.835 187.782 114.3 188.687 114.584C189.592 114.869 190.575 115.011 191.635 115.011C192.074 115.011 192.514 114.985 192.953 114.933C193.418 114.882 193.871 114.817 194.31 114.739C196.508 114.326 198.537 113.705 200.399 112.878C202.26 112.051 203.915 111.146 205.363 110.163C205.595 110.008 205.75 109.931 205.828 109.931C205.88 109.931 205.905 109.957 205.905 110.008C205.905 110.086 205.828 110.202 205.673 110.357C205.104 110.9 204.419 111.469 203.617 112.064C202.816 112.658 202.002 113.162 201.174 113.576C199.908 114.196 198.511 114.739 196.986 115.205C195.487 115.67 193.974 115.903 192.449 115.903ZM213.899 115.321C213.253 115.321 212.697 115.088 212.232 114.623C211.766 114.184 211.534 113.46 211.534 112.451C211.534 111.159 211.87 109.582 212.542 107.72C213.214 105.859 214.067 103.907 215.101 101.865C215.903 100.339 216.756 98.8785 217.661 97.4824C218.566 96.0863 219.458 94.8454 220.337 93.7595C221.216 92.6478 222.017 91.7818 222.741 91.1613C223.491 90.515 224.098 90.1918 224.564 90.1918C225.003 90.1918 225.326 90.3081 225.533 90.5408C225.766 90.7735 225.96 91.032 226.115 91.3164C226.296 91.6008 226.529 91.8335 226.813 92.0144C226.787 92.6091 226.477 93.3588 225.882 94.2637C225.288 95.1685 224.577 96.151 223.749 97.2109C223.206 97.8573 222.431 98.775 221.423 99.9643C220.44 101.128 219.458 102.33 218.475 103.571C217.674 104.553 216.963 105.497 216.342 106.402C215.722 107.307 215.244 108.056 214.908 108.651C214.804 108.832 214.727 108.897 214.675 108.845C214.623 108.793 214.623 108.716 214.675 108.612C214.933 108.095 215.334 107.436 215.877 106.634C216.446 105.807 217.079 104.928 217.777 103.997C218.475 103.067 219.16 102.175 219.833 101.322C220.505 100.443 221.086 99.6799 221.578 99.0336C222.069 98.3873 222.405 97.9607 222.586 97.7538C222.974 97.2626 223.349 96.7973 223.711 96.3578C224.072 95.8924 224.396 95.4529 224.68 95.0393C224.99 94.5739 225.21 94.1603 225.339 93.7983C225.494 93.4364 225.572 93.1391 225.572 92.9064C225.572 92.4927 225.404 92.2859 225.068 92.2859C224.835 92.2859 224.538 92.4022 224.176 92.6349C223.84 92.8676 223.452 93.2425 223.012 93.7595C222.366 94.5351 221.603 95.4917 220.724 96.6292C219.871 97.7409 218.992 98.9689 218.087 100.313C217.183 101.658 216.342 103.067 215.567 104.54C214.817 105.988 214.197 107.449 213.705 108.922C213.24 110.37 213.007 111.766 213.007 113.111C213.007 113.731 213.137 114.171 213.395 114.429C213.654 114.688 213.964 114.817 214.326 114.817C214.714 114.817 215.114 114.714 215.528 114.507C215.968 114.274 216.329 113.99 216.614 113.654C217.053 113.188 217.48 112.671 217.894 112.102C218.333 111.534 218.721 111.004 219.057 110.512C219.419 109.995 219.677 109.608 219.833 109.349C219.91 109.22 219.988 109.155 220.065 109.155C220.195 109.155 220.195 109.259 220.065 109.465C219.652 110.163 219.16 110.9 218.592 111.676C218.049 112.426 217.557 113.072 217.118 113.615C216.704 114.132 216.2 114.545 215.606 114.856C215.037 115.166 214.468 115.321 213.899 115.321ZM226.391 115.205C225.641 115.205 224.995 114.92 224.452 114.352C223.935 113.783 223.677 113.007 223.677 112.025C223.677 111.663 223.715 111.275 223.793 110.861C223.896 110.422 224.039 109.969 224.22 109.504C224.607 108.599 225.137 107.733 225.809 106.906C226.508 106.079 227.257 105.393 228.059 104.851C228.86 104.308 229.623 104.036 230.347 104.036C230.424 104.036 230.515 104.075 230.618 104.153C230.722 104.204 230.799 104.256 230.851 104.308L231.045 104.502C231.355 104.812 231.652 104.993 231.937 105.044C232.247 105.096 232.493 105.251 232.674 105.51C232.984 106.001 233.139 106.596 233.139 107.294C233.139 108.25 232.842 109.297 232.247 110.435C231.678 111.547 230.903 112.555 229.92 113.46C229.429 113.899 228.886 114.3 228.291 114.662C227.697 115.024 227.063 115.205 226.391 115.205ZM226.663 114.778C227.283 114.778 227.917 114.571 228.563 114.158C229.209 113.718 229.804 113.149 230.347 112.451C230.915 111.753 231.394 111.017 231.782 110.241C232.195 109.465 232.454 108.729 232.557 108.03C232.583 107.901 232.596 107.772 232.596 107.643C232.622 107.488 232.635 107.358 232.635 107.255C232.635 106.557 232.467 106.053 232.131 105.742C231.794 105.406 231.394 105.238 230.928 105.238C230.437 105.238 229.933 105.393 229.416 105.704C228.925 105.988 228.304 106.583 227.555 107.488C226.805 108.367 226.133 109.284 225.538 110.241C224.995 111.094 224.724 111.921 224.724 112.723C224.724 113.292 224.879 113.783 225.189 114.196C225.525 114.584 226.016 114.778 226.663 114.778ZM224.674 130.794C224.364 130.794 224.015 130.755 223.627 130.678C223.213 130.626 222.851 130.536 222.541 130.406C222.36 130.329 222.308 130.251 222.386 130.174C222.464 130.096 222.554 130.083 222.657 130.135C222.942 130.238 223.239 130.303 223.549 130.329C223.834 130.355 224.131 130.368 224.441 130.368C225.243 130.368 226.096 130.109 227.001 129.592C227.88 129.075 228.785 128.39 229.715 127.537C230.62 126.684 231.512 125.753 232.391 124.745C233.529 123.452 234.64 121.952 235.726 120.246C236.786 118.566 237.756 116.833 238.635 115.05C239.514 113.266 240.225 111.585 240.768 110.008C241.336 108.431 241.66 107.1 241.737 106.014C241.091 107.022 240.496 107.953 239.953 108.806C239.436 109.633 238.816 110.564 238.092 111.598C238.014 111.702 237.95 111.753 237.898 111.753C237.872 111.753 237.846 111.715 237.82 111.637C237.82 111.534 237.833 111.456 237.859 111.404C238.531 110.499 239.152 109.517 239.721 108.457C240.315 107.397 240.793 106.324 241.155 105.238C241.543 104.127 241.724 103.054 241.698 102.02C241.802 101.994 241.892 101.981 241.97 101.981C242.073 101.981 242.164 101.981 242.241 101.981C243.146 101.981 243.598 102.369 243.598 103.144C243.598 103.454 243.495 103.842 243.288 104.308C243.159 104.618 242.965 104.902 242.707 105.161C242.474 105.419 242.215 105.678 241.931 105.936C241.983 106.143 242.021 106.363 242.047 106.596C242.073 106.828 242.086 107.087 242.086 107.371C242.086 107.94 242.021 108.586 241.892 109.31C241.789 110.034 241.595 110.9 241.31 111.908C241.931 110.616 242.655 109.375 243.482 108.186C244.335 106.996 245.176 106.027 246.003 105.277C246.856 104.527 247.58 104.153 248.175 104.153C248.562 104.153 248.911 104.282 249.222 104.54C249.558 104.799 249.829 105.096 250.036 105.432C250.243 105.742 250.346 106.027 250.346 106.285C250.346 107.139 250.062 108.043 249.493 109C248.924 109.931 248.187 110.81 247.283 111.637C246.404 112.464 245.473 113.136 244.49 113.654C243.534 114.145 242.655 114.39 241.853 114.39C241.698 114.39 241.53 114.377 241.349 114.352C241.194 114.3 240.974 114.106 240.69 113.77L240.496 114.235C239.54 116.329 238.492 118.423 237.355 120.518C236.243 122.612 234.951 124.499 233.477 126.179C232.003 127.782 230.581 128.946 229.211 129.67C227.815 130.419 226.303 130.794 224.674 130.794ZM240.923 113.46C241.362 113.46 241.802 113.369 242.241 113.188C242.707 112.981 243.069 112.8 243.327 112.645C244.051 112.232 244.801 111.676 245.576 110.978C246.378 110.254 247.102 109.478 247.748 108.651C248.394 107.824 248.86 107.035 249.144 106.285C249.222 106.001 249.26 105.768 249.26 105.587C249.26 104.941 248.976 104.618 248.407 104.618C248.097 104.618 247.735 104.747 247.321 105.006C246.934 105.264 246.546 105.587 246.158 105.975C245.77 106.337 245.421 106.686 245.111 107.022C244.49 107.694 243.883 108.444 243.288 109.271C242.719 110.073 242.215 110.848 241.776 111.598C241.362 112.348 241.078 112.968 240.923 113.46Z" fill="#452100"/>
<path d="M184.277 47.4269C184.258 47.7785 184.242 48.0612 184.227 48.3439C184.125 50.2426 184.128 52.1422 184.177 54.0409C184.219 55.6733 184.31 57.3057 184.399 58.9364C184.467 60.2041 184.555 61.4702 184.65 62.7363C184.751 64.0827 184.865 65.4283 184.982 66.7738C185.091 68.0484 185.209 69.3221 185.336 70.595C185.407 71.3219 185.484 72.0488 185.574 72.7732C185.596 72.9453 185.712 73.101 185.738 73.2772C185.867 74.0786 185.983 74.8825 186.096 75.6864C186.241 76.7107 186.38 77.7351 186.521 78.7619C186.729 80.273 187.072 81.7554 187.438 83.2329C187.62 83.9614 187.831 84.6826 188.029 85.407C188.054 85.4945 188.075 85.5834 188.091 85.6733C188.119 85.8569 188.053 86.0011 187.922 86.0609C187.79 86.1207 187.642 86.0773 187.541 85.897C187.383 85.6151 187.238 85.3234 187.106 85.0275C186.713 84.1368 186.317 83.2468 185.943 82.3479C185.431 81.1187 184.969 79.8772 184.652 78.5783C184.529 78.0768 184.351 77.5892 184.212 77.091C183.872 75.87 183.527 74.6498 183.208 73.423C182.976 72.5298 182.77 71.63 182.579 70.727C182.352 69.6551 182.146 68.5783 181.945 67.5015C181.782 66.6345 181.632 65.7651 181.496 64.8931C181.347 63.9409 181.206 62.9871 181.082 62.0315C180.935 60.904 180.799 59.7755 180.674 58.6463C180.552 57.5261 180.429 56.4059 180.347 55.2865C180.257 54.072 180.197 52.8543 180.148 51.6374C180.096 50.3262 180.049 49.02 180.039 47.7113C180.031 46.4419 180.047 45.1709 180.1 43.904C180.152 42.3819 180.281 40.8634 180.486 39.3543C180.673 38.0488 180.941 36.7562 181.287 35.484C181.439 34.9259 181.577 34.3646 181.73 33.8073C181.787 33.6228 181.853 33.4417 181.93 33.2648C181.958 33.1886 181.999 33.1174 182.05 33.0542C182.068 33.0333 182.091 33.017 182.117 33.0065C182.143 32.996 182.171 32.9916 182.199 32.9936C182.234 33.0042 182.264 33.0862 182.264 33.137C182.257 33.2076 182.241 33.2771 182.216 33.3435C181.918 34.4202 181.739 35.5266 181.682 36.6427C181.634 37.5863 181.664 38.5323 181.774 39.4707C181.857 40.248 181.996 41.0184 182.188 41.7759C182.446 42.8 182.835 43.7859 183.347 44.7088C183.514 45.0062 183.694 45.2971 183.898 45.6438C183.926 45.5575 183.949 45.4696 183.967 45.3807C184.062 44.6432 184.144 43.9098 184.25 43.1772C184.443 41.8614 184.714 40.5583 185.062 39.2748C185.658 37.0623 186.438 34.9226 187.634 32.9551C187.769 32.7322 187.906 32.5101 188.047 32.2815C187.742 32.0889 187.447 31.9144 187.166 31.7193C186.792 31.4604 186.431 31.1817 186.06 30.9179C185.12 30.2516 184.41 29.3732 183.774 28.4267C182.823 27.0115 182.289 25.4356 182.059 23.7557C181.978 23.1944 181.978 22.6224 181.938 22.0553C181.925 21.8521 181.923 21.6456 181.903 21.4464C181.884 21.3222 181.857 21.1993 181.822 21.0785C181.65 21.1694 181.484 21.2704 181.324 21.3809C180.622 21.9373 180.018 22.597 179.436 23.2722C178.575 24.2706 177.782 25.3263 177.063 26.4321C176.153 27.8124 175.343 29.2567 174.64 30.754C174.089 31.9398 173.56 33.137 173.065 34.3474C172.545 35.6148 172.089 36.9079 171.7 38.2218C171.368 39.3502 171.023 40.4762 170.738 41.6169C170.406 42.9455 170.109 44.2821 169.845 45.6266C169.622 46.7607 169.446 47.9055 169.293 49.0519C169.157 50.0574 169.066 51.0703 168.982 52.084C168.908 52.9739 168.843 53.8663 168.828 54.7587C168.807 56.0068 168.828 57.2557 168.848 58.5045C168.879 59.8959 168.983 61.2846 169.159 62.665C169.358 64.3074 169.653 65.9366 170.043 67.5441C170.662 70.1326 171.584 72.6385 172.79 75.0095C173.54 76.4622 174.389 77.8609 175.331 79.1954C175.861 79.9509 176.436 80.6704 176.985 81.4153C177.104 81.567 177.205 81.732 177.286 81.907C177.407 82.1873 177.225 82.4134 176.929 82.3413C176.645 82.2711 176.368 82.1751 176.101 82.0545C175.216 81.6554 174.334 81.2506 173.459 80.8253C172.622 80.4213 171.784 80.0148 170.97 79.5658C170.343 79.2152 169.736 78.8303 169.151 78.4128C168.366 77.8572 167.599 77.2762 166.846 76.678C166.244 76.1994 165.657 75.6946 165.095 75.1718C164.572 74.6801 164.074 74.1597 163.593 73.6254C163.104 73.0764 162.614 72.5142 162.175 71.9217C161.748 71.3481 161.372 70.7302 160.993 70.1189C160.524 69.3484 160.114 68.5426 159.768 67.7088C159.665 67.4481 159.544 67.1951 159.406 66.9517C159.388 67.0106 159.374 67.0705 159.364 67.1311C159.219 68.4037 159.208 69.688 159.331 70.963C159.459 72.1441 159.718 73.3072 160.102 74.431C160.265 74.912 160.412 75.3963 160.556 75.8823C160.592 76.0091 160.61 76.1405 160.608 76.2723C160.613 76.3335 160.603 76.3948 160.579 76.4513C160.555 76.5078 160.518 76.5579 160.472 76.5973C160.425 76.6368 160.369 76.6647 160.31 76.6785C160.25 76.6924 160.188 76.6919 160.129 76.6771C159.973 76.6368 159.823 76.5747 159.683 76.4928C159.102 76.174 158.596 75.7503 158.1 75.3176C156.983 74.3283 156.014 73.1833 155.221 71.9177C154.736 71.158 154.241 70.4041 153.798 69.6174C153.344 68.8045 152.95 67.9571 152.537 67.1213C152.047 66.1281 151.681 65.0833 151.335 64.0335C151.132 63.4173 150.97 62.7871 150.817 62.1569C150.627 61.3784 150.438 60.5999 150.3 59.81C150.156 58.9815 150.062 58.1432 149.964 57.3073C149.904 56.7837 149.883 56.2551 149.835 55.7298C149.813 55.5127 149.725 55.2988 149.723 55.0833C149.71 53.936 149.716 52.7887 149.714 51.6415C149.713 50.6259 149.776 49.6112 149.903 48.6037C149.948 48.2423 150.015 47.8826 150.074 47.522C150.133 47.1614 150.192 46.8041 150.263 46.3747C150.167 46.4804 150.109 46.5321 150.066 46.5935C149.413 47.5089 148.894 48.4906 148.58 49.5748C148.558 49.6567 148.537 49.7321 148.509 49.8075C148.491 49.8667 148.455 49.9185 148.405 49.9549C148.355 49.9914 148.295 50.0104 148.234 50.0091C148.172 50.0115 148.111 49.9931 148.062 49.9568C148.012 49.9206 147.975 49.8686 147.958 49.8091C147.762 49.2453 147.555 48.6873 147.522 48.0784C147.495 47.3782 147.533 46.6769 147.636 45.9838C147.733 45.2398 147.815 44.4932 148.018 43.7655C148.257 42.9059 148.498 42.0447 148.888 41.2408C149.311 40.3647 149.72 39.4805 150.156 38.6102C150.748 37.4075 151.473 36.2751 152.316 35.234C152.888 34.5375 153.497 33.8688 154.129 33.2263C155.084 32.252 156.073 31.3079 157.053 30.3549C157.624 29.7968 158.236 29.2724 158.774 28.6832C159.203 28.2144 159.553 27.6719 159.933 27.1598C160.029 27.0319 160.109 26.8926 160.225 26.7148C159.889 26.7591 159.602 26.7861 159.318 26.8361C158.741 26.9385 158.159 27.0246 157.592 27.1688C156.619 27.4146 155.814 27.9793 155.061 28.6242C155.015 28.6635 154.972 28.7061 154.926 28.7471C154.721 28.9257 154.721 28.9257 154.484 28.7553C154.467 28.7922 154.462 28.8372 154.436 28.8561C154.397 28.8759 154.355 28.8892 154.312 28.8954C154.303 28.8438 154.275 28.7553 154.289 28.7471C154.579 28.5906 154.63 28.2661 154.806 28.0317C154.981 27.7973 155.164 27.54 155.36 27.3081C155.873 26.7072 156.39 26.11 156.911 25.5167C157.936 24.3564 159.122 23.3763 160.37 22.4716C161.008 22.0086 161.682 21.5939 162.343 21.1604C162.784 20.8728 163.226 20.5868 163.678 20.3164C164.581 19.7788 165.484 19.238 166.444 18.8012C167.116 18.4955 167.771 18.153 168.449 17.8612C169.173 17.5498 169.912 17.272 170.649 16.9934C171.122 16.814 171.598 16.6427 172.083 16.4968C172.875 16.2575 173.672 16.0314 174.473 15.8183C175.068 15.6544 175.664 15.5003 176.27 15.3832C177.044 15.234 177.826 15.1242 178.605 15.0005C179.073 14.9267 179.544 14.8603 180.013 14.789C181.093 14.6251 182.179 14.4891 183.251 14.2842C184.132 14.1163 184.998 13.8663 185.87 13.6475C186.202 13.5523 186.512 13.3919 186.781 13.1755C187.334 12.7658 187.893 12.3626 188.437 11.9397C189.247 11.2972 189.989 10.5725 190.651 9.77716C191.188 9.14453 191.736 8.52036 192.294 7.90467C192.505 7.68235 192.768 7.51763 193.06 7.4261C193.382 7.31547 193.655 7.39496 193.893 7.63096C194.117 7.85386 194.11 8.11363 194.04 8.39553C194.01 8.50976 194.008 8.62936 194.033 8.74462C194.237 9.54153 194.378 10.3534 194.455 11.1727C194.527 12.0845 194.49 13.0017 194.346 13.9048C194.272 14.3736 194.228 14.848 194.164 15.3799C194.486 15.2373 194.761 15.1242 195.027 14.9939C195.417 14.8022 195.8 14.5956 196.188 14.399C197.358 13.8218 198.488 13.1647 199.568 12.4322C199.985 12.1438 200.41 11.8644 200.8 11.5431C201.361 11.0801 201.895 10.5827 202.441 10.0984C202.66 9.90336 202.874 9.70341 203.094 9.51083C203.163 9.45159 203.24 9.40148 203.323 9.36169C203.602 9.22156 203.826 9.27974 203.95 9.5641C204.044 9.78773 204.108 10.0227 204.141 10.2631C204.243 10.9539 204.161 11.6406 204.06 12.3241C203.87 13.5648 203.465 14.7473 203.07 15.9297C202.825 16.6599 202.564 17.3868 202.268 18.0972C201.947 18.8684 201.471 19.5526 200.969 20.218C200.701 20.5737 200.435 20.9326 200.187 21.303C199.993 21.5931 199.959 21.9143 200.151 22.2225C200.333 22.515 200.524 22.8035 200.733 23.0772C201.175 23.6574 201.641 24.2244 202.082 24.8022C202.704 25.6216 203.207 26.5124 203.697 27.4122C204.12 28.1866 204.566 28.9479 205.004 29.7157C205.113 29.9099 205.218 30.1074 205.325 30.3033C205.635 30.8769 205.659 31.4759 205.534 32.1061C205.413 32.6912 205.326 33.2831 205.275 33.8786C205.232 34.44 205.373 34.9841 205.592 35.5069C205.89 36.2174 206.158 36.9402 206.472 37.6433C206.785 38.3464 207.131 39.0126 207.465 39.692C207.741 40.2566 208.012 40.8236 208.297 41.3842C208.504 41.7939 208.714 42.1971 208.951 42.5888C209.576 43.6437 210.209 44.694 210.85 45.7396C211.374 46.5952 211.917 47.4392 212.441 48.2948C212.814 48.8991 213.115 49.5448 213.339 50.2189C213.623 51.0835 213.655 52.0113 213.432 52.8936C213.257 53.6238 212.927 54.2867 212.57 54.9333C212.162 55.6708 211.754 56.4083 211.315 57.1246C210.679 58.1604 209.816 58.9848 208.825 59.6747C208.305 60.037 207.713 60.2484 207.11 60.4377C206.094 60.7548 205.063 61.0015 203.994 61.0449C203.58 61.0682 203.165 61.016 202.769 60.8908C202.068 60.6581 201.582 60.1738 201.23 59.542C200.878 58.9102 200.56 58.2653 200.186 57.6507C199.876 57.1409 199.518 56.6591 199.163 56.1756C198.55 55.3553 197.834 54.6177 197.032 53.9811C196.157 53.2554 195.155 52.6996 194.077 52.3421C193.192 52.0569 192.298 51.8013 191.406 51.5382C190.572 51.2924 189.729 51.0728 188.93 50.7253C187.897 50.2781 186.925 49.703 186.034 49.0134C185.456 48.5839 184.922 48.0983 184.439 47.5638C184.388 47.5151 184.334 47.4694 184.277 47.4269V47.4269ZM188.406 32.4486C188.353 32.5224 188.304 32.5847 188.26 32.6511C187.617 33.618 187.111 34.6571 186.666 35.7265C186.239 36.7578 185.881 37.8167 185.596 38.8962C185.392 39.66 185.208 40.4311 185.058 41.2072C184.885 42.1028 184.746 43.0059 184.618 43.9114C184.521 44.6047 184.468 45.3045 184.389 45.9994C184.378 46.0896 184.388 46.181 184.416 46.2673C184.444 46.3536 184.491 46.4327 184.552 46.4993C185.089 47.1472 185.697 47.7319 186.365 48.2423C187.84 49.3912 189.536 50.2225 191.345 50.6843C192.482 50.9752 193.616 51.2711 194.712 51.6997C195.628 52.0541 196.491 52.5339 197.276 53.1255C198.232 53.8516 199.058 54.717 199.808 55.6528C200.497 56.5186 201.08 57.4642 201.546 58.4693C201.696 58.7914 201.862 59.1052 202.03 59.4183C202.305 59.9312 202.741 60.2377 203.296 60.3861C203.727 60.5004 204.172 60.5517 204.617 60.5385C205.447 60.5178 206.271 60.3981 207.072 60.182C208.713 59.7452 209.93 58.7356 210.847 57.3475C211.207 56.8017 211.476 56.1895 211.746 55.588C212.116 54.7546 212.475 53.9139 212.785 53.0567C213.063 52.3256 213.057 51.516 212.768 50.7892C212.585 50.3277 212.366 49.8811 212.115 49.4535C211.472 48.3734 210.808 47.3073 210.139 46.2412C209.796 45.6913 209.424 45.1586 209.078 44.6071C208.833 44.2113 208.614 43.7983 208.385 43.3919C208.146 42.9682 207.895 42.5494 207.672 42.1184C207.389 41.58 207.12 41.0342 206.856 40.4868C206.529 39.8222 206.213 39.1552 205.903 38.4832C205.704 38.0506 205.525 37.6089 205.338 37.1721C205.093 36.5829 204.849 35.992 204.706 35.3651C204.6 34.9415 204.551 34.5055 204.56 34.0687C204.594 33.5092 204.707 32.9574 204.896 32.4298C205.012 32.0946 205.11 31.7535 205.191 31.4079C205.225 31.2293 205.225 31.0457 205.191 30.8671C205.103 30.3451 204.835 29.896 204.548 29.4666C204.008 28.657 203.438 27.867 202.892 27.0614C202.167 25.992 201.341 25.0128 200.482 24.0458C200.094 23.6048 199.734 23.1395 199.405 22.6527C199.099 22.2036 199.05 21.7013 199.331 21.2121C199.482 20.949 199.655 20.6987 199.848 20.4639C200.174 20.064 200.537 19.6928 200.86 19.2904C201.476 18.522 201.969 17.6618 202.321 16.741C202.777 15.5684 203.252 14.4023 203.571 13.1821C203.795 12.3249 203.944 11.4546 203.906 10.5598C203.897 10.3569 203.873 10.1551 203.834 9.9558C203.807 9.81076 203.788 9.60589 203.622 9.58786C203.516 9.57639 203.377 9.70668 203.282 9.79928C203.16 9.92148 203.048 10.0533 202.948 10.1934C202.468 10.8238 201.923 11.4007 201.32 11.9143C200.324 12.7447 199.262 13.4924 198.144 14.1499C197.391 14.6038 196.629 15.0444 195.858 15.4717C195.407 15.7224 194.942 15.9461 194.475 16.1649C194.328 16.2316 194.17 16.2681 194.009 16.2723C193.937 16.2763 193.866 16.266 193.798 16.2421C193.731 16.2183 193.669 16.1812 193.616 16.1332C193.563 16.0851 193.519 16.0269 193.489 15.9621C193.458 15.8972 193.441 15.8269 193.437 15.7552C193.422 15.6038 193.428 15.451 193.454 15.3012C193.512 15.0029 193.591 14.7079 193.665 14.4129C193.849 13.6852 194.022 12.9559 194.063 12.2003C194.145 10.7818 193.863 9.41413 193.485 8.05299C193.253 7.99153 193.076 8.10544 192.947 8.25704C192.48 8.78969 192.003 9.31661 191.575 9.88041C190.936 10.7339 190.199 11.5082 189.378 12.1872C188.705 12.7363 187.976 13.2206 187.256 13.709C186.495 14.2164 185.65 14.5812 184.759 14.7858C183.924 14.9841 183.081 15.1521 182.235 15.2996C180.98 15.5192 179.718 15.6987 178.463 15.9142C177.537 16.0732 176.608 16.2313 175.694 16.4468C174.551 16.7156 173.425 17.0352 172.296 17.3483C171.838 17.4753 171.387 17.6301 170.942 17.7965C170.213 18.0686 169.486 18.3488 168.768 18.6479C168.105 18.9241 167.441 19.2019 166.801 19.528C165.658 20.1107 164.515 20.7089 163.435 21.403C162.796 21.8127 162.155 22.2225 161.529 22.6478C161.011 23.0026 160.51 23.3853 160.007 23.7582C158.961 24.5424 157.907 25.3151 157.076 26.3469C157.004 26.437 156.924 26.5214 156.8 26.6607C156.928 26.632 156.986 26.6255 157.04 26.6058C157.556 26.4247 158.088 26.2928 158.628 26.2117C159.267 26.1076 159.902 25.9838 160.541 25.8839C160.63 25.8718 160.715 25.8406 160.792 25.7926C160.868 25.7445 160.933 25.6806 160.982 25.6052C161.209 25.2691 161.457 24.9483 161.726 24.6448C162.259 24.0769 162.794 23.4976 163.446 23.0641C163.982 22.7035 164.535 22.3659 165.09 22.0348C165.376 21.8644 165.683 21.7291 165.982 21.58C166.495 21.3219 167.054 21.2194 167.615 21.1236C168.023 21.0539 168.441 21.0277 168.847 21.158C169.284 21.2989 169.491 21.6497 169.418 22.102C169.349 22.5117 169.116 22.8289 168.847 23.1206C168.229 23.7684 167.487 24.2848 166.666 24.6391C165.993 24.9423 165.295 25.1873 164.625 25.4889C163.658 25.9312 162.642 26.2571 161.599 26.46C161.5 26.4772 161.407 26.5163 161.326 26.5742C161.245 26.6322 161.177 26.7077 161.128 26.7951C160.768 27.3589 160.394 27.9145 160.027 28.4734C160 28.5144 159.95 28.5881 159.961 28.5988C160.099 28.7405 159.943 28.8176 159.891 28.9053C159.539 29.4873 159.111 30.0191 158.617 30.486C157.8 31.276 156.984 32.0643 156.167 32.851C155.509 33.4812 154.818 34.0802 154.191 34.7358C153.48 35.4848 152.803 36.2698 152.149 37.0713C151.708 37.614 151.305 38.1865 150.943 38.7848C150.432 39.6272 150.053 40.5417 149.7 41.4604C149.287 42.5299 148.929 43.6198 148.626 44.726C148.338 45.7855 148.185 46.8492 148.266 47.9448C148.271 48.017 148.287 48.0874 148.309 48.2243C148.383 48.0923 148.422 48.0235 148.46 47.9539C148.623 47.6605 148.771 47.3614 148.943 47.0754C149.369 46.3837 149.853 45.7303 150.391 45.1226C150.512 44.9864 150.598 44.8223 150.641 44.6448C150.826 43.8755 151.057 43.118 151.333 42.3765C151.61 41.6131 151.981 40.8877 152.438 40.2172C152.679 39.8919 152.945 39.5862 153.234 39.3027C153.621 38.8987 154.178 38.8209 154.663 38.6094C155.018 38.4537 155.331 38.7012 155.355 39.1011C155.365 39.3035 155.34 39.506 155.282 39.7001C155.014 40.6229 154.49 41.4096 153.902 42.1487C153.398 42.783 152.85 43.3779 152.312 43.9893C152.155 44.1604 152.039 44.3645 151.971 44.5867C151.394 46.4917 150.988 48.4446 150.756 50.4221C150.592 51.8749 150.528 53.3373 150.565 54.7989C150.59 55.9149 150.672 57.0289 150.81 58.1366C150.975 59.5689 151.248 60.9865 151.626 62.3774C151.871 63.237 152.107 64.0983 152.408 64.9382C152.71 65.7782 153.072 66.5944 153.431 67.4114C153.655 67.9211 153.909 68.4193 154.174 68.9094C154.45 69.4174 154.757 69.9083 155.044 70.409C155.609 71.3946 156.248 72.3361 156.954 73.2255C157.73 74.2174 158.643 75.0937 159.665 75.8282C159.784 75.9101 159.91 75.983 160.095 76.097C160.055 75.9462 160.039 75.87 160.013 75.7962C159.633 74.608 159.247 73.4197 159.044 72.1856C158.852 71.0533 158.787 69.903 158.85 68.7561C158.9 67.9367 159.001 67.1172 159.068 66.2977C159.089 66.1178 159.076 65.9355 159.031 65.7601C158.63 64.4564 158.318 63.1378 158.198 61.7726C158.108 60.7474 158.079 59.7239 158.347 58.716C158.449 58.33 158.585 57.9571 158.912 57.6974C159.157 57.5007 159.429 57.5212 159.647 57.7531C159.737 57.8479 159.808 57.9591 159.857 58.0809C159.939 58.299 160.002 58.5238 160.045 58.7528C160.187 59.5723 160.17 60.3918 160.083 61.2113C159.946 62.4921 159.777 63.7705 159.611 65.0488C159.588 65.2296 159.61 65.4135 159.677 65.5831C159.922 66.2272 160.133 66.8877 160.421 67.5122C160.776 68.2858 161.164 69.047 161.592 69.7813C162.033 70.533 162.527 71.2526 163.068 71.9349C163.761 72.8091 164.512 73.6353 165.315 74.408C165.943 75.0103 166.61 75.5725 167.285 76.1232C167.982 76.6935 168.696 77.2437 169.426 77.7736C170.773 78.7504 172.233 79.5412 173.698 80.3205C174.493 80.7434 175.304 81.1351 176.113 81.53C176.283 81.612 176.45 81.7325 176.693 81.7325C176.406 81.344 176.143 80.9851 175.877 80.6286C174.772 79.1624 173.773 77.6196 172.885 76.0117C171.775 73.9926 170.878 71.8627 170.208 69.6567C169.626 67.7328 169.189 65.7676 168.901 63.7778C168.68 62.2692 168.526 60.7548 168.448 59.2331C168.372 57.7326 168.352 56.2297 168.41 54.726C168.46 53.4148 168.537 52.1102 168.664 50.8056C168.816 49.2524 169.028 47.7075 169.3 46.1707C169.716 43.8426 170.262 41.5396 170.933 39.2724C171.462 37.4925 172.065 35.7372 172.759 34.0138C173.331 32.5929 173.961 31.1965 174.66 29.8345C175.244 28.6966 175.881 27.5897 176.572 26.514C177.237 25.4817 177.964 24.4913 178.749 23.5484C179.393 22.7772 180.062 22.0274 180.817 21.3637C181.05 21.1531 181.306 20.971 181.581 20.8212C181.902 20.6573 182.181 20.7999 182.294 21.149C182.339 21.2836 182.371 21.4222 182.391 21.5628C182.441 21.9455 182.472 22.3298 182.524 22.7101C182.618 23.5065 182.774 24.2943 182.991 25.066C183.217 25.8234 183.527 26.5529 183.915 27.2409C184.677 28.6209 185.672 29.7895 186.98 30.6769C187.469 31.0113 187.974 31.3325 188.484 31.6652C188.572 31.5628 188.636 31.4866 188.702 31.412C188.942 31.1375 189.173 30.8531 189.427 30.5925C189.938 30.064 190.5 29.6092 191.199 29.342C191.924 29.07 192.811 29.1683 193.434 29.896C194.057 30.6237 194.077 31.4972 193.472 32.2217C192.883 32.928 192.097 33.205 191.207 33.1894C190.231 33.1755 189.324 32.8617 188.406 32.4486ZM181.057 38.2972L181.017 38.3029C180.969 38.725 180.907 39.1462 180.874 39.5699C180.737 41.3317 180.71 43.0977 180.733 44.862C180.758 46.8287 180.825 48.7955 180.886 50.7671C180.915 51.68 180.968 52.5921 181.017 53.5041C181.044 53.9901 181.081 54.476 181.122 54.9612C181.189 55.7397 181.26 56.5179 181.334 57.2958C181.385 57.8309 181.434 58.3661 181.498 58.9004C181.606 59.8171 181.721 60.7332 181.842 61.6489C182.005 62.9059 182.175 64.1638 182.364 65.4184C182.481 66.2002 182.639 66.9754 182.784 67.7531C182.913 68.4513 183.037 69.1511 183.188 69.8452C183.411 70.8761 183.645 71.9054 183.897 72.9297C184.186 74.1007 184.484 75.2709 184.808 76.4329C185.049 77.2917 185.337 78.1374 185.605 78.988C185.627 79.0452 185.655 79.1001 185.687 79.1519C185.572 77.9604 185.428 76.7828 185.291 75.6044C185.177 74.626 185.063 73.6484 184.964 72.6691C184.883 71.8824 184.823 71.0933 184.751 70.3049C184.603 68.6979 184.443 67.0918 184.308 65.484C184.185 64.027 184.084 62.5691 183.981 61.1105C183.9 59.8813 183.822 58.6586 183.765 57.431C183.712 56.2838 183.669 55.1365 183.657 53.9934C183.641 52.5729 183.647 51.1525 183.673 49.7321C183.687 48.8905 183.754 48.0497 183.802 47.2081C183.82 46.9973 183.76 46.7871 183.634 46.6173C183.348 46.2125 183.09 45.7872 182.83 45.3635C182.282 44.4637 181.915 43.4836 181.629 42.4831C181.336 41.4571 181.164 40.4001 181.116 39.3338C181.098 38.9856 181.074 38.6414 181.057 38.2972ZM188.863 31.8013C188.924 31.8414 188.987 31.8778 189.053 31.9103C189.593 32.1395 190.156 32.3098 190.733 32.4183C191.494 32.5462 192.203 32.4388 192.802 31.8955C193.369 31.3792 193.355 30.5843 192.767 30.0927C192.2 29.6182 191.585 29.6157 190.953 29.9288C190.097 30.3549 189.467 31.0367 188.86 31.8013H188.863ZM162.482 25.4487C162.52 25.4531 162.557 25.4531 162.595 25.4487C163.202 25.2561 163.829 25.1127 164.409 24.8587C165.429 24.4109 166.39 23.8396 167.272 23.1575C167.552 22.9403 167.818 22.701 167.989 22.3806C168.113 22.1454 168.027 21.9815 167.762 21.9594C167.59 21.944 167.418 21.9495 167.248 21.9758C166.427 22.1086 165.689 22.4585 164.991 22.8977C164.466 23.243 163.986 23.6526 163.562 24.1171C163.167 24.5309 162.806 24.9762 162.482 25.4487V25.4487ZM159.273 58.0268C159.081 58.1907 159.01 58.3833 158.947 58.5873C158.734 59.297 158.713 60.0247 158.74 60.7565C158.783 61.9168 158.991 63.051 159.264 64.1769C159.281 64.2127 159.302 64.2456 159.329 64.2744C159.35 64.2384 159.366 64.2228 159.368 64.2064C159.551 62.9526 159.74 61.698 159.768 60.4287C159.782 59.8305 159.774 59.2314 159.621 58.6463C159.564 58.4218 159.502 58.1972 159.273 58.0268V58.0268ZM154.556 40.1271C154.53 39.9419 154.546 39.7583 154.362 39.6592C154.178 39.56 154.007 39.6272 153.849 39.728C153.745 39.7916 153.649 39.8658 153.561 39.9493C152.981 40.5147 152.681 41.2227 152.537 42.0078C152.526 42.0778 152.529 42.1494 152.545 42.2184C152.596 42.4437 152.766 42.5462 152.977 42.4642C153.129 42.4105 153.268 42.325 153.385 42.2135C153.8 41.7825 154.136 41.2812 154.378 40.7327C154.448 40.5342 154.507 40.3321 154.556 40.1271V40.1271Z" fill="#452100"/>
</svg>
