<svg width="345" height="112" viewBox="0 0 345 112" fill="none" xmlns="http://www.w3.org/2000/svg">
<path d="M113.974 72.1309L109.447 67.6042V44.8848L113.974 40.3582H128.33L132.727 44.7555L130.227 47.2991L126.778 43.8502H115.741L113.37 46.2213V66.2678L115.741 68.6389H127.123L130.615 65.1469L133.115 67.6904L128.631 72.1309H113.974ZM147.06 72.1309L142.533 67.6042V44.8848L147.06 40.3582H162.062L166.589 44.8848V67.6042L162.062 72.1309H147.06ZM148.827 68.6389H160.295L162.666 66.2678V46.2213L160.295 43.8502H148.827L146.456 46.2213V66.2678L148.827 68.6389ZM178.459 72.1309V40.3582H182.382V53.6794H198.117V40.3582H202.04V72.1309H198.117V57.1714H182.382V72.1309H178.459ZM214.66 72.1309V40.3582H235.138V43.9795H218.583V54.2399H233.111V57.8181H218.583V72.1309H214.66ZM244.715 72.1309V40.3582H248.638V68.5096H264.632V72.1309H244.715ZM277.677 72.1309L273.15 67.6042V44.8848L277.677 40.3582H292.679L297.206 44.8848V67.6042L292.679 72.1309H277.677ZM279.444 68.6389H290.912L293.283 66.2678V46.2213L290.912 43.8502H279.444L277.073 46.2213V66.2678L279.444 68.6389ZM313.394 72.1309L305.591 40.3582H309.73L315.981 68.3802H316.929L322.835 40.3582H326.414L332.32 68.3802H333.268L339.519 40.3582H343.658L335.855 72.1309H329.69L324.603 48.6786L319.559 72.1309H313.394Z" fill="#F56639"/>
<path d="M90.6703 55.965H45.8351L23.4175 17.1973H68.2527L90.6703 55.965Z" stroke="#08164F" stroke-width="0.638678" stroke-miterlimit="10" stroke-linejoin="round"/>
<path d="M90.6703 55.9648H45.8351L23.4175 94.7965H68.2527L90.6703 55.9648Z" stroke="#08164F" stroke-width="0.638678" stroke-miterlimit="10" stroke-linejoin="round"/>
<path d="M32.5506 33.0371H59.0557L72.3402 55.9656L59.0557 78.9581H32.5506L19.2661 55.9656L32.5506 33.0371Z" fill="#F56639"/>
<path d="M23.4176 17.1973H68.2528L90.6704 55.965L68.2528 94.7967H23.4176L1 55.965L23.4176 17.1973Z" stroke="#08164F" stroke-width="0.638678" stroke-miterlimit="10" stroke-linejoin="round"/>
<path d="M68.2531 17.1973L45.8354 55.965L68.2531 94.7967L90.6707 55.965L68.2531 17.1973Z" stroke="#08164F" stroke-width="0.638678" stroke-miterlimit="10" stroke-linejoin="round"/>
<path d="M45.8352 55.9648H1L23.4176 94.7965H68.2528L45.8352 55.9648Z" stroke="#08164F" stroke-width="0.638678" stroke-miterlimit="10" stroke-linecap="round" stroke-linejoin="round"/>
</svg>
