<svg width="344" height="135" viewBox="0 0 344 135" fill="none" xmlns="http://www.w3.org/2000/svg">
<path d="M36.1081 102.219V71.791H39.1509V99.176H53.1259V102.219H36.1081ZM74.8932 102.784C72.8357 102.784 70.9014 102.378 69.0902 101.567C67.2791 100.741 65.6852 99.6034 64.3087 98.1545C62.9322 96.7055 61.8528 95.032 61.0704 93.1339C60.2879 91.2213 59.8967 89.1783 59.8967 87.0049C59.8967 84.8315 60.2879 82.7957 61.0704 80.8976C61.8528 78.985 62.9322 77.3043 64.3087 75.8553C65.6852 74.4064 67.2791 73.2762 69.0902 72.4648C70.9014 71.6389 72.8357 71.226 74.8932 71.226C76.9652 71.226 78.9068 71.6389 80.718 72.4648C82.5291 73.2762 84.123 74.4064 85.4995 75.8553C86.8759 77.3043 87.9482 78.985 88.7161 80.8976C89.4985 82.7957 89.8897 84.8315 89.8897 87.0049C89.8897 89.1783 89.4985 91.2213 88.7161 93.1339C87.9482 95.032 86.8759 96.7055 85.4995 98.1545C84.123 99.6034 82.5291 100.741 80.718 101.567C78.9068 102.378 76.9652 102.784 74.8932 102.784ZM74.8932 99.7411C76.5595 99.7411 78.1099 99.4078 79.5443 98.7413C80.9933 98.0603 82.2611 97.133 83.3478 95.9593C84.449 94.7857 85.3038 93.4309 85.9124 91.8951C86.5354 90.3592 86.847 88.7291 86.847 87.0049C86.847 85.2662 86.5354 83.6289 85.9124 82.093C85.2894 80.5426 84.4272 79.1879 83.326 78.0287C82.2393 76.8551 80.9715 75.935 79.5226 75.2685C78.0881 74.602 76.545 74.2687 74.8932 74.2687C73.2269 74.2687 71.6693 74.6092 70.2204 75.2902C68.7859 75.9567 67.5181 76.8768 66.4169 78.0505C65.3302 79.2241 64.4754 80.5789 63.8523 82.1147C63.2438 83.6506 62.9395 85.2807 62.9395 87.0049C62.9395 88.7581 63.251 90.4027 63.874 91.9385C64.4971 93.4744 65.352 94.8292 66.4387 96.0028C67.5399 97.1764 68.8077 98.0965 70.2421 98.763C71.6911 99.4151 73.2414 99.7411 74.8932 99.7411ZM99.5172 102.219V71.791H102.821L118.882 96.72V71.791H121.925V102.219H118.643L102.56 77.2898V102.219H99.5172ZM146.473 102.784C144.387 102.784 142.431 102.378 140.605 101.567C138.794 100.741 137.207 99.6034 135.845 98.1545C134.483 96.6911 133.418 95.0103 132.651 93.1122C131.883 91.1996 131.499 89.1566 131.499 86.9832C131.499 84.7663 131.897 82.7016 132.694 80.789C133.491 78.8764 134.585 77.2101 135.976 75.7901C137.367 74.3557 138.961 73.24 140.757 72.4431C142.568 71.6462 144.488 71.2477 146.517 71.2477C148.85 71.2477 151.052 71.791 153.124 72.8778C155.21 73.9645 156.978 75.5076 158.427 77.5071L155.71 78.985C154.551 77.4636 153.153 76.2972 151.516 75.4858C149.893 74.6744 148.219 74.2687 146.495 74.2687C144.858 74.2687 143.315 74.602 141.866 75.2685C140.431 75.9205 139.163 76.8334 138.062 78.007C136.961 79.1806 136.099 80.5354 135.476 82.0713C134.853 83.6071 134.541 85.2589 134.541 87.0266C134.541 88.7798 134.853 90.4244 135.476 91.9603C136.099 93.4961 136.954 94.8509 138.041 96.0245C139.142 97.1837 140.417 98.0965 141.866 98.763C143.315 99.4151 144.865 99.7411 146.517 99.7411C147.879 99.7411 149.168 99.5092 150.386 99.0456C151.617 98.5674 152.74 97.9009 153.754 97.046C154.769 96.1912 155.623 95.1914 156.319 94.0467C157.029 92.9021 157.543 91.656 157.862 90.3085H149.647V87.5483H161.405C161.361 89.6492 160.941 91.6198 160.144 93.4599C159.347 95.3001 158.26 96.9229 156.884 98.3284C155.522 99.7193 153.95 100.813 152.168 101.61C150.4 102.393 148.502 102.784 146.473 102.784ZM181.874 102.784C180.252 102.784 178.68 102.53 177.158 102.023C175.651 101.516 174.333 100.792 173.203 99.8497C172.072 98.9079 171.275 97.785 170.812 96.481L173.659 95.416C173.978 96.3143 174.557 97.0895 175.398 97.7415C176.253 98.3791 177.245 98.8717 178.375 99.2194C179.52 99.5672 180.686 99.7411 181.874 99.7411C183.265 99.7411 184.562 99.5092 185.765 99.0456C186.967 98.5819 187.938 97.9371 188.677 97.1112C189.416 96.2709 189.786 95.2856 189.786 94.1554C189.786 93.0107 189.402 92.0689 188.634 91.33C187.866 90.591 186.873 90.0114 185.656 89.5913C184.454 89.1566 183.193 88.8233 181.874 88.5915C179.802 88.2293 177.941 87.7366 176.289 87.1136C174.651 86.4905 173.355 85.6139 172.398 84.4837C171.442 83.3391 170.964 81.8322 170.964 79.9631C170.964 78.2098 171.471 76.6885 172.485 75.3989C173.5 74.1093 174.833 73.1096 176.484 72.3996C178.151 71.6896 179.947 71.3346 181.874 71.3346C183.454 71.3346 184.997 71.5809 186.504 72.0736C188.011 72.5662 189.336 73.2835 190.481 74.2253C191.64 75.1671 192.473 76.319 192.981 77.681L190.09 78.7242C189.771 77.8114 189.184 77.0362 188.329 76.3987C187.489 75.7466 186.504 75.254 185.374 74.9208C184.243 74.573 183.077 74.3991 181.874 74.3991C180.498 74.3846 179.208 74.6165 178.006 75.0946C176.818 75.5583 175.854 76.2103 175.115 77.0507C174.376 77.8766 174.007 78.8474 174.007 79.9631C174.007 81.2671 174.347 82.2741 175.028 82.9841C175.724 83.6796 176.666 84.2012 177.854 84.5489C179.042 84.8967 180.382 85.2082 181.874 85.4835C183.816 85.8168 185.62 86.3384 187.286 87.0484C188.953 87.7439 190.293 88.6784 191.307 89.8521C192.321 91.0112 192.828 92.4457 192.828 94.1554C192.828 95.8941 192.321 97.4155 191.307 98.7196C190.293 100.009 188.953 101.009 187.286 101.719C185.634 102.429 183.831 102.784 181.874 102.784ZM216.908 102.784C214.851 102.784 212.917 102.378 211.105 101.567C209.294 100.741 207.7 99.6034 206.324 98.1545C204.947 96.7055 203.868 95.032 203.086 93.1339C202.303 91.2213 201.912 89.1783 201.912 87.0049C201.912 84.8315 202.303 82.7957 203.086 80.8976C203.868 78.985 204.947 77.3043 206.324 75.8553C207.7 74.4064 209.294 73.2762 211.105 72.4648C212.917 71.6389 214.851 71.226 216.908 71.226C218.98 71.226 220.922 71.6389 222.733 72.4648C224.544 73.2762 226.138 74.4064 227.515 75.8553C228.891 77.3043 229.963 78.985 230.731 80.8976C231.514 82.7957 231.905 84.8315 231.905 87.0049C231.905 89.1783 231.514 91.2213 230.731 93.1339C229.963 95.032 228.891 96.7055 227.515 98.1545C226.138 99.6034 224.544 100.741 222.733 101.567C220.922 102.378 218.98 102.784 216.908 102.784ZM216.908 99.7411C218.575 99.7411 220.125 99.4078 221.56 98.7413C223.008 98.0603 224.276 97.133 225.363 95.9593C226.464 94.7857 227.319 93.4309 227.928 91.8951C228.551 90.3592 228.862 88.7291 228.862 87.0049C228.862 85.2662 228.551 83.6289 227.928 82.093C227.305 80.5426 226.442 79.1879 225.341 78.0287C224.255 76.8551 222.987 75.935 221.538 75.2685C220.103 74.602 218.56 74.2687 216.908 74.2687C215.242 74.2687 213.685 74.6092 212.236 75.2902C210.801 75.9567 209.533 76.8768 208.432 78.0505C207.345 79.2241 206.491 80.5789 205.867 82.1147C205.259 83.6506 204.955 85.2807 204.955 87.0049C204.955 88.7581 205.266 90.4027 205.889 91.9385C206.512 93.4744 207.367 94.8292 208.454 96.0028C209.555 97.1764 210.823 98.0965 212.257 98.763C213.706 99.4151 215.257 99.7411 216.908 99.7411ZM241.532 102.219V71.791H244.836L260.897 96.72V71.791H263.94V102.219H260.658L244.575 77.2898V102.219H241.532ZM288.489 102.784C286.402 102.784 284.446 102.378 282.62 101.567C280.809 100.741 279.223 99.6034 277.861 98.1545C276.499 96.6911 275.434 95.0103 274.666 93.1122C273.898 91.1996 273.514 89.1566 273.514 86.9832C273.514 84.7663 273.912 82.7016 274.709 80.789C275.506 78.8764 276.6 77.2101 277.991 75.7901C279.382 74.3557 280.976 73.24 282.773 72.4431C284.584 71.6462 286.504 71.2477 288.532 71.2477C290.865 71.2477 293.067 71.791 295.139 72.8778C297.226 73.9645 298.993 75.5076 300.442 77.5071L297.726 78.985C296.566 77.4636 295.168 76.2972 293.531 75.4858C291.908 74.6744 290.235 74.2687 288.51 74.2687C286.873 74.2687 285.33 74.602 283.881 75.2685C282.447 75.9205 281.179 76.8334 280.077 78.007C278.976 79.1806 278.114 80.5354 277.491 82.0713C276.868 83.6071 276.557 85.2589 276.557 87.0266C276.557 88.7798 276.868 90.4244 277.491 91.9603C278.114 93.4961 278.969 94.8509 280.056 96.0245C281.157 97.1837 282.432 98.0965 283.881 98.763C285.33 99.4151 286.88 99.7411 288.532 99.7411C289.894 99.7411 291.184 99.5092 292.401 99.0456C293.632 98.5674 294.755 97.9009 295.769 97.046C296.784 96.1912 297.639 95.1914 298.334 94.0467C299.044 92.9021 299.558 91.656 299.877 90.3085H291.662V87.5483H303.42C303.376 89.6492 302.956 91.6198 302.159 93.4599C301.362 95.3001 300.276 96.9229 298.899 98.3284C297.537 99.7193 295.965 100.813 294.183 101.61C292.415 102.393 290.517 102.784 288.489 102.784Z" fill="#09372A"/>
<path d="M90.1827 45.851H93.3215V52.5435H90.1827V45.851Z" fill="#D9D9D9"/>
<path d="M90.1827 45.851H93.3215V52.5435H90.1827V45.851Z" fill="url(#paint0_linear_2052_4652)"/>
<path d="M95.8973 31.749H99.0361V52.5435H95.8973V31.749Z" fill="#D9D9D9"/>
<path d="M95.8973 31.749H99.0361V52.5435H95.8973V31.749Z" fill="url(#paint1_linear_2052_4652)"/>
<path d="M101.612 28.2813H104.751V52.5435H101.612V28.2813Z" fill="#D9D9D9"/>
<path d="M101.612 28.2813H104.751V52.5435H101.612V28.2813Z" fill="url(#paint2_linear_2052_4652)"/>
<path d="M107.327 31.749H110.465V52.5435H107.327V31.749Z" fill="#D9D9D9"/>
<path d="M107.327 31.749H110.465V52.5435H107.327V31.749Z" fill="url(#paint3_linear_2052_4652)"/>
<path d="M113.041 21.7812H116.18V52.5435H113.041V21.7812Z" fill="#D9D9D9"/>
<path d="M113.041 21.7812H116.18V52.5435H113.041V21.7812Z" fill="url(#paint4_linear_2052_4652)"/>
<path d="M118.756 26.6626H121.895V52.5435H118.756V26.6626Z" fill="#D9D9D9"/>
<path d="M118.756 26.6626H121.895V52.5435H118.756V26.6626Z" fill="url(#paint5_linear_2052_4652)"/>
<path d="M124.47 26.6626H127.609V52.5435H124.47V26.6626Z" fill="#D9D9D9"/>
<path d="M124.47 26.6626H127.609V52.5435H124.47V26.6626Z" fill="url(#paint6_linear_2052_4652)"/>
<path d="M130.185 21.7812H133.324V52.5435H130.185V21.7812Z" fill="#D9D9D9"/>
<path d="M130.185 21.7812H133.324V52.5435H130.185V21.7812Z" fill="url(#paint7_linear_2052_4652)"/>
<path d="M135.9 21.7812H139.038V52.5435H135.9V21.7812Z" fill="#D9D9D9"/>
<path d="M135.9 21.7812H139.038V52.5435H135.9V21.7812Z" fill="url(#paint8_linear_2052_4652)"/>
<path d="M141.614 35.6782H144.753V52.5435H141.614V35.6782Z" fill="#D9D9D9"/>
<path d="M141.614 35.6782H144.753V52.5435H141.614V35.6782Z" fill="url(#paint9_linear_2052_4652)"/>
<path d="M147.329 31.749H150.468V52.5435H147.329V31.749Z" fill="#D9D9D9"/>
<path d="M147.329 31.749H150.468V52.5435H147.329V31.749Z" fill="url(#paint10_linear_2052_4652)"/>
<path d="M153.044 21.7812H156.182V52.5435H153.044V21.7812Z" fill="#D9D9D9"/>
<path d="M153.044 21.7812H156.182V52.5435H153.044V21.7812Z" fill="url(#paint11_linear_2052_4652)"/>
<path d="M158.758 24.8137H161.897V52.5435H158.758V24.8137Z" fill="#D9D9D9"/>
<path d="M158.758 24.8137H161.897V52.5435H158.758V24.8137Z" fill="url(#paint12_linear_2052_4652)"/>
<path d="M164.473 38.4528H167.612V52.5435H164.473V38.4528Z" fill="#D9D9D9"/>
<path d="M164.473 38.4528H167.612V52.5435H164.473V38.4528Z" fill="url(#paint13_linear_2052_4652)"/>
<path d="M170.187 24.8137H173.326V52.5435H170.187V24.8137Z" fill="#D9D9D9"/>
<path d="M170.187 24.8137H173.326V52.5435H170.187V24.8137Z" fill="url(#paint14_linear_2052_4652)"/>
<path d="M175.902 31.749H179.041V52.5435H175.902V31.749Z" fill="#D9D9D9"/>
<path d="M175.902 31.749H179.041V52.5435H175.902V31.749Z" fill="url(#paint15_linear_2052_4652)"/>
<path d="M181.617 31.749H184.755V52.5435H181.617V31.749Z" fill="#D9D9D9"/>
<path d="M181.617 31.749H184.755V52.5435H181.617V31.749Z" fill="url(#paint16_linear_2052_4652)"/>
<path d="M187.331 21.7812H190.47V52.5435H187.331V21.7812Z" fill="#D9D9D9"/>
<path d="M187.331 21.7812H190.47V52.5435H187.331V21.7812Z" fill="url(#paint17_linear_2052_4652)"/>
<path d="M193.046 26.6626H196.185V52.5435H193.046V26.6626Z" fill="#D9D9D9"/>
<path d="M193.046 26.6626H196.185V52.5435H193.046V26.6626Z" fill="url(#paint18_linear_2052_4652)"/>
<path d="M198.761 38.4528H201.899V52.5435H198.761V38.4528Z" fill="#D9D9D9"/>
<path d="M198.761 38.4528H201.899V52.5435H198.761V38.4528Z" fill="url(#paint19_linear_2052_4652)"/>
<path d="M204.475 35.6782H207.614V52.5435H204.475V35.6782Z" fill="#D9D9D9"/>
<path d="M204.475 35.6782H207.614V52.5435H204.475V35.6782Z" fill="url(#paint20_linear_2052_4652)"/>
<path d="M210.19 26.6626H213.329V52.5435H210.19V26.6626Z" fill="#D9D9D9"/>
<path d="M210.19 26.6626H213.329V52.5435H210.19V26.6626Z" fill="url(#paint21_linear_2052_4652)"/>
<path d="M215.905 31.749H219.043V52.5435H215.905V31.749Z" fill="#D9D9D9"/>
<path d="M215.905 31.749H219.043V52.5435H215.905V31.749Z" fill="url(#paint22_linear_2052_4652)"/>
<path d="M221.619 21.7812H224.758V52.5435H221.619V21.7812Z" fill="#D9D9D9"/>
<path d="M221.619 21.7812H224.758V52.5435H221.619V21.7812Z" fill="url(#paint23_linear_2052_4652)"/>
<path d="M227.334 21.7812H230.473V52.5435H227.334V21.7812Z" fill="#D9D9D9"/>
<path d="M227.334 21.7812H230.473V52.5435H227.334V21.7812Z" fill="url(#paint24_linear_2052_4652)"/>
<path d="M233.048 31.749H236.187V52.5435H233.048V31.749Z" fill="#D9D9D9"/>
<path d="M233.048 31.749H236.187V52.5435H233.048V31.749Z" fill="url(#paint25_linear_2052_4652)"/>
<path d="M238.763 38.4528H241.902V52.5435H238.763V38.4528Z" fill="#D9D9D9"/>
<path d="M238.763 38.4528H241.902V52.5435H238.763V38.4528Z" fill="url(#paint26_linear_2052_4652)"/>
<path d="M244.478 38.4528H247.616V52.5435H244.478V38.4528Z" fill="#D9D9D9"/>
<path d="M244.478 38.4528H247.616V52.5435H244.478V38.4528Z" fill="url(#paint27_linear_2052_4652)"/>
<path d="M250.192 45.851H253.331V52.5435H250.192V45.851Z" fill="#D9D9D9"/>
<path d="M250.192 45.851H253.331V52.5435H250.192V45.851Z" fill="url(#paint28_linear_2052_4652)"/>
<path d="M64.5229 51.0028H88.2688V52.5435H64.5229V51.0028Z" fill="#D9D9D9"/>
<path d="M64.5229 51.0028H88.2688V52.5435H64.5229V51.0028Z" fill="url(#paint29_linear_2052_4652)"/>
<path d="M255.732 51.0028H279.478V52.5435H255.732V51.0028Z" fill="#D9D9D9"/>
<path d="M255.732 51.0028H279.478V52.5435H255.732V51.0028Z" fill="url(#paint30_linear_2052_4652)"/>
<defs>
<linearGradient id="paint0_linear_2052_4652" x1="200.814" y1="52.5435" x2="201.37" y2="23.6463" gradientUnits="userSpaceOnUse">
<stop stop-color="#1EE9B6"/>
<stop offset="1" stop-color="#FFDE54"/>
</linearGradient>
<linearGradient id="paint1_linear_2052_4652" x1="200.814" y1="52.5435" x2="201.37" y2="23.6463" gradientUnits="userSpaceOnUse">
<stop stop-color="#1EE9B6"/>
<stop offset="1" stop-color="#FFDE54"/>
</linearGradient>
<linearGradient id="paint2_linear_2052_4652" x1="200.814" y1="52.5435" x2="201.37" y2="23.6463" gradientUnits="userSpaceOnUse">
<stop stop-color="#1EE9B6"/>
<stop offset="1" stop-color="#FFDE54"/>
</linearGradient>
<linearGradient id="paint3_linear_2052_4652" x1="200.814" y1="52.5435" x2="201.37" y2="23.6463" gradientUnits="userSpaceOnUse">
<stop stop-color="#1EE9B6"/>
<stop offset="1" stop-color="#FFDE54"/>
</linearGradient>
<linearGradient id="paint4_linear_2052_4652" x1="200.814" y1="52.5435" x2="201.37" y2="23.6463" gradientUnits="userSpaceOnUse">
<stop stop-color="#1EE9B6"/>
<stop offset="1" stop-color="#FFDE54"/>
</linearGradient>
<linearGradient id="paint5_linear_2052_4652" x1="200.814" y1="52.5435" x2="201.37" y2="23.6463" gradientUnits="userSpaceOnUse">
<stop stop-color="#1EE9B6"/>
<stop offset="1" stop-color="#FFDE54"/>
</linearGradient>
<linearGradient id="paint6_linear_2052_4652" x1="200.814" y1="52.5435" x2="201.37" y2="23.6463" gradientUnits="userSpaceOnUse">
<stop stop-color="#1EE9B6"/>
<stop offset="1" stop-color="#FFDE54"/>
</linearGradient>
<linearGradient id="paint7_linear_2052_4652" x1="200.814" y1="52.5435" x2="201.37" y2="23.6463" gradientUnits="userSpaceOnUse">
<stop stop-color="#1EE9B6"/>
<stop offset="1" stop-color="#FFDE54"/>
</linearGradient>
<linearGradient id="paint8_linear_2052_4652" x1="200.814" y1="52.5435" x2="201.37" y2="23.6463" gradientUnits="userSpaceOnUse">
<stop stop-color="#1EE9B6"/>
<stop offset="1" stop-color="#FFDE54"/>
</linearGradient>
<linearGradient id="paint9_linear_2052_4652" x1="200.814" y1="52.5435" x2="201.37" y2="23.6463" gradientUnits="userSpaceOnUse">
<stop stop-color="#1EE9B6"/>
<stop offset="1" stop-color="#FFDE54"/>
</linearGradient>
<linearGradient id="paint10_linear_2052_4652" x1="200.814" y1="52.5435" x2="201.37" y2="23.6463" gradientUnits="userSpaceOnUse">
<stop stop-color="#1EE9B6"/>
<stop offset="1" stop-color="#FFDE54"/>
</linearGradient>
<linearGradient id="paint11_linear_2052_4652" x1="200.814" y1="52.5435" x2="201.37" y2="23.6463" gradientUnits="userSpaceOnUse">
<stop stop-color="#1EE9B6"/>
<stop offset="1" stop-color="#FFDE54"/>
</linearGradient>
<linearGradient id="paint12_linear_2052_4652" x1="200.814" y1="52.5435" x2="201.37" y2="23.6463" gradientUnits="userSpaceOnUse">
<stop stop-color="#1EE9B6"/>
<stop offset="1" stop-color="#FFDE54"/>
</linearGradient>
<linearGradient id="paint13_linear_2052_4652" x1="200.814" y1="52.5435" x2="201.37" y2="23.6463" gradientUnits="userSpaceOnUse">
<stop stop-color="#1EE9B6"/>
<stop offset="1" stop-color="#FFDE54"/>
</linearGradient>
<linearGradient id="paint14_linear_2052_4652" x1="200.814" y1="52.5435" x2="201.37" y2="23.6463" gradientUnits="userSpaceOnUse">
<stop stop-color="#1EE9B6"/>
<stop offset="1" stop-color="#FFDE54"/>
</linearGradient>
<linearGradient id="paint15_linear_2052_4652" x1="200.814" y1="52.5435" x2="201.37" y2="23.6463" gradientUnits="userSpaceOnUse">
<stop stop-color="#1EE9B6"/>
<stop offset="1" stop-color="#FFDE54"/>
</linearGradient>
<linearGradient id="paint16_linear_2052_4652" x1="200.814" y1="52.5435" x2="201.37" y2="23.6463" gradientUnits="userSpaceOnUse">
<stop stop-color="#1EE9B6"/>
<stop offset="1" stop-color="#FFDE54"/>
</linearGradient>
<linearGradient id="paint17_linear_2052_4652" x1="200.814" y1="52.5435" x2="201.37" y2="23.6463" gradientUnits="userSpaceOnUse">
<stop stop-color="#1EE9B6"/>
<stop offset="1" stop-color="#FFDE54"/>
</linearGradient>
<linearGradient id="paint18_linear_2052_4652" x1="200.814" y1="52.5435" x2="201.37" y2="23.6463" gradientUnits="userSpaceOnUse">
<stop stop-color="#1EE9B6"/>
<stop offset="1" stop-color="#FFDE54"/>
</linearGradient>
<linearGradient id="paint19_linear_2052_4652" x1="200.814" y1="52.5435" x2="201.37" y2="23.6463" gradientUnits="userSpaceOnUse">
<stop stop-color="#1EE9B6"/>
<stop offset="1" stop-color="#FFDE54"/>
</linearGradient>
<linearGradient id="paint20_linear_2052_4652" x1="200.814" y1="52.5435" x2="201.37" y2="23.6463" gradientUnits="userSpaceOnUse">
<stop stop-color="#1EE9B6"/>
<stop offset="1" stop-color="#FFDE54"/>
</linearGradient>
<linearGradient id="paint21_linear_2052_4652" x1="200.814" y1="52.5435" x2="201.37" y2="23.6463" gradientUnits="userSpaceOnUse">
<stop stop-color="#1EE9B6"/>
<stop offset="1" stop-color="#FFDE54"/>
</linearGradient>
<linearGradient id="paint22_linear_2052_4652" x1="200.814" y1="52.5435" x2="201.37" y2="23.6463" gradientUnits="userSpaceOnUse">
<stop stop-color="#1EE9B6"/>
<stop offset="1" stop-color="#FFDE54"/>
</linearGradient>
<linearGradient id="paint23_linear_2052_4652" x1="200.814" y1="52.5435" x2="201.37" y2="23.6463" gradientUnits="userSpaceOnUse">
<stop stop-color="#1EE9B6"/>
<stop offset="1" stop-color="#FFDE54"/>
</linearGradient>
<linearGradient id="paint24_linear_2052_4652" x1="200.814" y1="52.5435" x2="201.37" y2="23.6463" gradientUnits="userSpaceOnUse">
<stop stop-color="#1EE9B6"/>
<stop offset="1" stop-color="#FFDE54"/>
</linearGradient>
<linearGradient id="paint25_linear_2052_4652" x1="200.814" y1="52.5435" x2="201.37" y2="23.6463" gradientUnits="userSpaceOnUse">
<stop stop-color="#1EE9B6"/>
<stop offset="1" stop-color="#FFDE54"/>
</linearGradient>
<linearGradient id="paint26_linear_2052_4652" x1="200.814" y1="52.5435" x2="201.37" y2="23.6463" gradientUnits="userSpaceOnUse">
<stop stop-color="#1EE9B6"/>
<stop offset="1" stop-color="#FFDE54"/>
</linearGradient>
<linearGradient id="paint27_linear_2052_4652" x1="200.814" y1="52.5435" x2="201.37" y2="23.6463" gradientUnits="userSpaceOnUse">
<stop stop-color="#1EE9B6"/>
<stop offset="1" stop-color="#FFDE54"/>
</linearGradient>
<linearGradient id="paint28_linear_2052_4652" x1="200.814" y1="52.5435" x2="201.37" y2="23.6463" gradientUnits="userSpaceOnUse">
<stop stop-color="#1EE9B6"/>
<stop offset="1" stop-color="#FFDE54"/>
</linearGradient>
<linearGradient id="paint29_linear_2052_4652" x1="200.814" y1="52.5435" x2="201.37" y2="23.6463" gradientUnits="userSpaceOnUse">
<stop stop-color="#1EE9B6"/>
<stop offset="1" stop-color="#FFDE54"/>
</linearGradient>
<linearGradient id="paint30_linear_2052_4652" x1="200.814" y1="52.5435" x2="201.37" y2="23.6463" gradientUnits="userSpaceOnUse">
<stop stop-color="#1EE9B6"/>
<stop offset="1" stop-color="#FFDE54"/>
</linearGradient>
</defs>
</svg>
