<svg width="344" height="129" viewBox="0 0 344 129" fill="none" xmlns="http://www.w3.org/2000/svg">
<path d="M63.0408 69.7238C63.0138 69.2923 63.1352 68.9417 63.4049 68.672C63.6746 68.4023 64.0117 68.2674 64.4163 68.2674H66.8436C67.2212 68.2674 67.5313 68.4023 67.7741 68.672C68.0168 68.9147 68.1516 69.2248 68.1786 69.6024C68.3404 71.814 68.9068 73.567 69.8777 74.8616C70.8486 76.1561 72.1567 76.8034 73.8019 76.8034C75.474 76.8034 76.7551 76.318 77.6451 75.347C78.5621 74.3761 79.0205 73.0546 79.0205 71.3824C79.0205 70.1418 78.4542 68.9147 77.3214 67.701C76.1887 66.4874 74.5166 65.1793 72.305 63.7769C70.3092 62.779 68.7315 61.889 67.5718 61.1069C66.439 60.2978 65.6299 59.4078 65.1445 58.4368C64.686 57.439 64.4567 56.1714 64.4567 54.6341C64.4567 53.6362 64.7804 52.5978 65.4277 51.519C66.1019 50.4402 67.1133 49.5367 68.4618 48.8086C69.8103 48.0534 71.5094 47.6758 73.5591 47.6758C75.0694 47.6758 76.5393 47.986 77.9687 48.6063C79.3981 49.1996 80.8275 50.0087 82.2569 51.0336C82.7963 51.3572 83.066 51.7887 83.066 52.3281C83.066 52.7866 82.8503 53.1238 82.4188 53.3395L81.4478 53.825C81.34 53.8519 81.2321 53.8924 81.1242 53.9463C81.0433 53.9733 80.9624 53.9868 80.8815 53.9868C80.5848 53.9868 80.3016 53.8789 80.0319 53.6632C78.4946 52.3956 77.2675 51.4786 76.3505 50.9122C75.4335 50.3189 74.5031 50.0222 73.5591 50.0222C72.3185 50.0222 71.2802 50.4672 70.4441 51.3572C69.635 52.2203 69.2304 53.2856 69.2304 54.5532C69.2304 55.9556 69.5541 57.2232 70.2014 58.3559C70.8756 59.4887 72.2376 60.527 74.2873 61.471C76.1752 62.334 77.8474 63.278 79.3037 64.3028C80.7871 65.3007 81.9468 66.3795 82.7829 67.5392C83.6459 68.6989 84.0774 69.9665 84.0774 71.342C84.0774 72.8523 83.6324 74.2008 82.7424 75.3875C81.8524 76.5742 80.6387 77.5181 79.1015 78.2193C77.5642 78.8936 75.7976 79.2307 73.8019 79.2307C70.7003 79.2307 68.2056 78.3677 66.3177 76.6416C64.4298 74.8886 63.3375 72.5826 63.0408 69.7238ZM100.405 57.7896C102.401 57.7896 104.154 58.275 105.664 59.2459C107.174 60.1899 108.347 61.4845 109.184 63.1296C110.047 64.7748 110.478 66.6357 110.478 68.7124C110.478 70.7082 110.074 72.5017 109.264 74.0929C108.482 75.6842 107.377 76.9383 105.947 77.8553C104.518 78.7722 102.846 79.2307 100.931 79.2307C98.908 79.2307 97.128 78.7722 95.5907 77.8553C94.0803 76.9113 92.8937 75.6302 92.0306 74.012C91.1946 72.3938 90.7765 70.5599 90.7765 68.5101C90.7765 66.4335 91.1676 64.586 91.9497 62.9678C92.7588 61.3496 93.8781 60.082 95.3075 59.165C96.7639 58.2481 98.463 57.7896 100.405 57.7896ZM100.405 60.2169C99.353 60.2169 98.4495 60.581 97.6943 61.3091C96.9392 62.0104 96.3593 62.9948 95.9548 64.2624C95.5502 65.503 95.3479 66.9189 95.3479 68.5101C95.3479 71.369 95.8873 73.4726 96.9661 74.8211C98.0449 76.1427 99.3665 76.8034 100.931 76.8034C102.144 76.8034 103.115 76.4124 103.843 75.6302C104.572 74.8481 105.098 73.8367 105.421 72.5961C105.745 71.3555 105.907 70.0609 105.907 68.7124C105.907 66.2312 105.421 64.1949 104.45 62.6037C103.479 61.0125 102.131 60.2169 100.405 60.2169ZM137.107 77.4507C137.107 77.8283 136.972 78.1519 136.702 78.4216C136.432 78.6913 136.109 78.8262 135.731 78.8262H133.708C133.385 78.8262 133.088 78.7318 132.818 78.543C132.576 78.3272 132.427 78.0575 132.373 77.7339C131.51 78.1924 130.539 78.5565 129.461 78.8262C128.409 79.0959 127.263 79.2307 126.022 79.2307C124.107 79.2307 122.597 78.9341 121.491 78.3407C120.412 77.7474 119.617 76.7225 119.104 75.2661C118.619 73.8098 118.309 71.814 118.174 69.2788C118.039 66.7436 117.971 63.5342 117.971 59.6505C117.971 59.219 118.106 58.8684 118.376 58.5987C118.646 58.329 118.969 58.1941 119.347 58.1941H121.37C121.747 58.1941 122.071 58.3424 122.341 58.6391C122.61 58.9088 122.745 59.2594 122.745 59.6909C122.745 62.7116 122.786 65.2468 122.867 67.2965C122.974 69.3462 123.109 71.0049 123.271 72.2725C123.46 73.5401 123.689 74.4975 123.959 75.1448C124.228 75.792 124.525 76.2371 124.849 76.4798C125.199 76.6955 125.59 76.8034 126.022 76.8034C127.236 76.8034 128.314 76.5068 129.258 75.9134C130.202 75.3201 130.944 74.511 131.483 73.4861C132.05 72.4343 132.333 71.2341 132.333 69.8856V59.5696C132.333 59.192 132.468 58.8684 132.738 58.5987C133.007 58.329 133.331 58.1941 133.708 58.1941H135.731C136.109 58.1941 136.432 58.329 136.702 58.5987C136.972 58.8684 137.107 59.192 137.107 59.5696V77.4507ZM164.828 77.3698C164.828 77.8013 164.693 78.1519 164.424 78.4216C164.154 78.6913 163.83 78.8262 163.453 78.8262H161.187C160.81 78.8262 160.486 78.6913 160.216 78.4216C159.947 78.125 159.812 77.7609 159.812 77.3293C159.812 75.3336 159.812 73.7963 159.812 72.7175C159.812 71.6117 159.798 70.7756 159.771 70.2093C159.771 69.6159 159.771 69.117 159.771 68.7124C159.771 66.0154 159.475 63.9252 158.881 62.4419C158.315 60.9585 157.371 60.2169 156.049 60.2169C154.377 60.2169 153.15 60.581 152.368 61.3091C151.586 62.0104 151.195 63.1566 151.195 64.7478V77.4507C151.195 77.8283 151.06 78.1519 150.79 78.4216C150.521 78.6913 150.197 78.8262 149.819 78.8262H147.392C147.014 78.8262 146.691 78.6913 146.421 78.4216C146.151 78.1519 146.017 77.8283 146.017 77.4507V59.165C146.017 58.7875 146.151 58.4638 146.421 58.1941C146.691 57.9244 147.014 57.7896 147.392 57.7896H149.819C150.413 57.7896 150.831 58.0458 151.073 58.5582C152.557 58.0458 154.215 57.7896 156.049 57.7896C157.964 57.7896 159.488 58.0862 160.621 58.6796C161.754 59.2729 162.617 60.0955 163.21 61.1473C163.803 62.1722 164.208 63.3454 164.424 64.6669C164.639 65.9884 164.761 67.3774 164.788 68.8338C164.815 69.2383 164.828 69.7373 164.828 70.3306C164.828 70.897 164.828 71.7196 164.828 72.7984C164.828 73.8772 164.828 75.401 164.828 77.3698ZM191.454 77.4507C191.454 77.8283 191.319 78.1519 191.049 78.4216C190.78 78.6913 190.456 78.8262 190.078 78.8262H188.056C187.624 78.8262 187.287 78.7048 187.044 78.4621C186.802 78.1924 186.68 77.8822 186.68 77.5316C185.952 78.071 185.102 78.489 184.132 78.7857C183.161 79.0824 182.068 79.2307 180.855 79.2307C178.94 79.2307 177.295 78.7857 175.919 77.8957C174.544 76.9787 173.492 75.7381 172.764 74.1738C172.062 72.5826 171.712 70.7621 171.712 68.7124C171.712 66.6357 172.116 64.7748 172.925 63.1296C173.735 61.4845 174.854 60.1899 176.283 59.2459C177.74 58.275 179.439 57.7896 181.381 57.7896C182.459 57.7896 183.43 57.9514 184.293 58.275C185.183 58.5987 185.979 59.0572 186.68 59.6505V49.4558C186.68 49.0783 186.815 48.7546 187.085 48.4849C187.354 48.2152 187.678 48.0804 188.056 48.0804H190.078C190.456 48.0804 190.78 48.2152 191.049 48.4849C191.319 48.7546 191.454 49.0783 191.454 49.4558V77.4507ZM181.381 60.2169C180.545 60.2169 179.749 60.6214 178.994 61.4305C178.266 62.2126 177.659 63.251 177.173 64.5456C176.715 65.8401 176.486 67.2291 176.486 68.7124C176.486 70.1958 176.688 71.5578 177.092 72.7984C177.497 74.012 178.036 74.9829 178.711 75.7111C179.385 76.4393 180.1 76.8034 180.855 76.8034C182.554 76.8034 183.875 76.0483 184.819 74.5379C185.763 73.0006 186.235 70.9914 186.235 68.5101C186.235 67.0807 186.006 65.7457 185.547 64.5051C185.089 63.2375 184.482 62.2126 183.727 61.4305C182.999 60.6214 182.217 60.2169 181.381 60.2169ZM200.066 69.7238C200.039 69.2923 200.161 68.9417 200.43 68.672C200.7 68.4023 201.037 68.2674 201.442 68.2674H203.869C204.247 68.2674 204.557 68.4023 204.8 68.672C205.042 68.9147 205.177 69.2248 205.204 69.6024C205.366 71.814 205.932 73.567 206.903 74.8616C207.874 76.1561 209.182 76.8034 210.827 76.8034C212.5 76.8034 213.781 76.318 214.671 75.347C215.588 74.3761 216.046 73.0546 216.046 71.3824C216.046 70.1418 215.48 68.9147 214.347 67.701C213.214 66.4874 211.542 65.1793 209.331 63.7769C207.335 62.779 205.757 61.889 204.597 61.1069C203.465 60.2978 202.655 59.4078 202.17 58.4368C201.712 57.439 201.482 56.1714 201.482 54.6341C201.482 53.6362 201.806 52.5978 202.453 51.519C203.127 50.4402 204.139 49.5367 205.487 48.8086C206.836 48.0534 208.535 47.6758 210.585 47.6758C212.095 47.6758 213.565 47.986 214.994 48.6063C216.424 49.1996 217.853 50.0087 219.283 51.0336C219.822 51.3572 220.092 51.7887 220.092 52.3281C220.092 52.7866 219.876 53.1238 219.444 53.3395L218.473 53.825C218.366 53.8519 218.258 53.8924 218.15 53.9463C218.069 53.9733 217.988 53.9868 217.907 53.9868C217.61 53.9868 217.327 53.8789 217.057 53.6632C215.52 52.3956 214.293 51.4786 213.376 50.9122C212.459 50.3189 211.529 50.0222 210.585 50.0222C209.344 50.0222 208.306 50.4672 207.47 51.3572C206.661 52.2203 206.256 53.2856 206.256 54.5532C206.256 55.9556 206.58 57.2232 207.227 58.3559C207.901 59.4887 209.263 60.527 211.313 61.471C213.201 62.334 214.873 63.278 216.329 64.3028C217.813 65.3007 218.972 66.3795 219.808 67.5392C220.671 68.6989 221.103 69.9665 221.103 71.342C221.103 72.8523 220.658 74.2008 219.768 75.3875C218.878 76.5742 217.664 77.5181 216.127 78.2193C214.59 78.8936 212.823 79.2307 210.827 79.2307C207.726 79.2307 205.231 78.3677 203.343 76.6416C201.455 74.8886 200.363 72.5826 200.066 69.7238ZM245.724 76.1157C244.888 76.9518 243.822 77.6799 242.528 78.3003C241.26 78.9206 239.871 79.2307 238.361 79.2307C235.017 79.2307 232.414 78.2733 230.553 76.3584C228.719 74.4166 227.802 71.814 227.802 68.5506C227.802 66.5009 228.22 64.6669 229.056 63.0487C229.919 61.4305 231.092 60.1494 232.576 59.2055C234.086 58.2615 235.826 57.7896 237.794 57.7896C239.817 57.7896 241.584 58.2211 243.094 59.0841C244.631 59.9472 245.832 61.1338 246.695 62.6442C247.558 64.1545 247.989 65.8941 247.989 67.8629C247.989 68.2404 247.854 68.5506 247.585 68.7933C247.342 69.0361 247.032 69.1574 246.654 69.1574H232.171C232.279 71.5578 232.913 73.4322 234.073 74.7807C235.232 76.1292 236.662 76.8034 238.361 76.8034C239.224 76.8034 239.912 76.5742 240.424 76.1157C240.936 75.6572 241.449 75.0099 241.961 74.1738C242.258 73.5805 242.716 73.3513 243.337 73.4861L244.834 73.8502C245.67 74.066 246.088 74.5379 246.088 75.2661C246.088 75.5898 245.966 75.873 245.724 76.1157ZM237.794 60.2169C237.012 60.2169 236.244 60.5135 235.489 61.1069C234.733 61.6732 234.073 62.4419 233.506 63.4128C232.94 64.3837 232.549 65.4895 232.333 66.7301H242.77C242.609 64.8153 242.083 63.251 241.193 62.0373C240.303 60.8237 239.17 60.2169 237.794 60.2169ZM274.283 77.3698C274.283 77.8013 274.148 78.1519 273.878 78.4216C273.608 78.6913 273.285 78.8262 272.907 78.8262H270.642C270.264 78.8262 269.941 78.6913 269.671 78.4216C269.401 78.125 269.266 77.7609 269.266 77.3293C269.266 75.3336 269.266 73.7963 269.266 72.7175C269.266 71.6117 269.253 70.7756 269.226 70.2093C269.226 69.6159 269.226 69.117 269.226 68.7124C269.226 66.0154 268.929 63.9252 268.336 62.4419C267.769 60.9585 266.825 60.2169 265.504 60.2169C263.832 60.2169 262.605 60.581 261.823 61.3091C261.04 62.0104 260.649 63.1566 260.649 64.7478V77.4507C260.649 77.8283 260.514 78.1519 260.245 78.4216C259.975 78.6913 259.651 78.8262 259.274 78.8262H256.847C256.469 78.8262 256.145 78.6913 255.876 78.4216C255.606 78.1519 255.471 77.8283 255.471 77.4507V59.165C255.471 58.7875 255.606 58.4638 255.876 58.1941C256.145 57.9244 256.469 57.7896 256.847 57.7896H259.274C259.867 57.7896 260.285 58.0458 260.528 58.5582C262.011 58.0458 263.67 57.7896 265.504 57.7896C267.419 57.7896 268.943 58.0862 270.075 58.6796C271.208 59.2729 272.071 60.0955 272.664 61.1473C273.258 62.1722 273.662 63.3454 273.878 64.6669C274.094 65.9884 274.215 67.3774 274.242 68.8338C274.269 69.2383 274.283 69.7373 274.283 70.3306C274.283 70.897 274.283 71.7196 274.283 72.7984C274.283 73.8772 274.283 75.401 274.283 77.3698ZM300.787 63.7365C300.868 63.9252 300.908 64.1005 300.908 64.2624C300.908 64.613 300.774 64.9096 300.504 65.1524C300.234 65.3681 299.911 65.503 299.533 65.5569L297.348 65.7592C297.025 65.7862 296.728 65.7053 296.458 65.5165C296.216 65.3277 296.054 65.0715 295.973 64.7478C295.568 63.3993 294.948 62.307 294.112 61.471C293.303 60.6349 292.318 60.2169 291.159 60.2169C290.269 60.2169 289.46 60.5944 288.731 61.3496C288.003 62.1048 287.423 63.1161 286.992 64.3837C286.56 65.6513 286.345 67.0403 286.345 68.5506C286.345 71.1397 286.803 73.1625 287.72 74.6189C288.637 76.0752 289.972 76.8034 291.725 76.8034C292.912 76.8034 293.869 76.3584 294.597 75.4684C295.326 74.5784 295.865 73.3108 296.216 71.6656C296.404 70.8835 296.876 70.5194 297.632 70.5733L299.937 70.7756C300.315 70.8026 300.625 70.9374 300.868 71.1802C301.138 71.4229 301.272 71.7196 301.272 72.0702C301.272 72.1781 301.246 72.3129 301.192 72.4747C300.598 74.4975 299.479 76.1292 297.834 77.3698C296.189 78.6104 294.152 79.2307 291.725 79.2307C288.381 79.2307 285.778 78.2733 283.917 76.3584C282.083 74.4166 281.166 71.814 281.166 68.5506C281.166 66.5009 281.584 64.6669 282.42 63.0487C283.283 61.4305 284.457 60.1494 285.94 59.2055C287.45 58.2615 289.19 57.7896 291.159 57.7896C292.642 57.7896 294.018 58.0593 295.285 58.5987C296.58 59.1381 297.699 59.8528 298.643 60.7428C299.614 61.6328 300.329 62.6307 300.787 63.7365ZM326.461 76.1157C325.625 76.9518 324.56 77.6799 323.265 78.3003C321.998 78.9206 320.609 79.2307 319.099 79.2307C315.754 79.2307 313.152 78.2733 311.291 76.3584C309.457 74.4166 308.54 71.814 308.54 68.5506C308.54 66.5009 308.958 64.6669 309.794 63.0487C310.657 61.4305 311.83 60.1494 313.314 59.2055C314.824 58.2615 316.563 57.7896 318.532 57.7896C320.555 57.7896 322.322 58.2211 323.832 59.0841C325.369 59.9472 326.569 61.1338 327.432 62.6442C328.295 64.1545 328.727 65.8941 328.727 67.8629C328.727 68.2404 328.592 68.5506 328.322 68.7933C328.08 69.0361 327.769 69.1574 327.392 69.1574H312.909C313.017 71.5578 313.651 73.4322 314.81 74.7807C315.97 76.1292 317.4 76.8034 319.099 76.8034C319.962 76.8034 320.649 76.5742 321.162 76.1157C321.674 75.6572 322.187 75.0099 322.699 74.1738C322.996 73.5805 323.454 73.3513 324.075 73.4861L325.571 73.8502C326.407 74.066 326.826 74.5379 326.826 75.2661C326.826 75.5898 326.704 75.873 326.461 76.1157ZM318.532 60.2169C317.75 60.2169 316.981 60.5135 316.226 61.1069C315.471 61.6732 314.81 62.4419 314.244 63.4128C313.678 64.3837 313.287 65.4895 313.071 66.7301H323.508C323.346 64.8153 322.82 63.251 321.93 62.0373C321.04 60.8237 319.908 60.2169 318.532 60.2169Z" fill="#232323"/>
<circle cx="340.414" cy="75.2504" r="3.32854" fill="url(#paint0_linear_2052_4643)"/>
<path d="M10.5358 46.4426C5.82628 38.7454 10.8719 27.8373 23.4107 25.8691C18.3289 27.0214 14.3673 34.8597 15.5535 39.5308C18.0528 49.3728 26.1333 48.2776 34.845 52.1942C44.6794 56.6156 50.1487 64.7066 49.4999 68.7934C48.1782 65.6713 42.596 59.4721 34.2369 57.4825C19.2317 53.911 14.055 52.1942 10.5358 46.4426Z" fill="url(#paint1_linear_2052_4643)"/>
<path d="M22.6034 63.3564C9.67767 58.805 8.09523 49.1441 8.09523 46.1016C11.4645 53.5986 23.1249 56.5398 32.4534 59.0818C47.4284 63.1625 51.5562 75.1132 44.4977 82.868C32.3116 96.2562 8.52581 91.8417 1.53565 81.7582C-1.94999 76.73 0.35137 69.5638 9.94855 67.6822C3.37291 72.663 14.191 81.0004 22.6034 81.0004C35.8713 81.0004 44.0079 70.8933 22.6034 63.3564Z" fill="#D9D9D9"/>
<path d="M22.6034 63.3564C9.67767 58.805 8.09523 49.1441 8.09523 46.1016C11.4645 53.5986 23.1249 56.5398 32.4534 59.0818C47.4284 63.1625 51.5562 75.1132 44.4977 82.868C32.3116 96.2562 8.52581 91.8417 1.53565 81.7582C-1.94999 76.73 0.35137 69.5638 9.94855 67.6822C3.37291 72.663 14.191 81.0004 22.6034 81.0004C35.8713 81.0004 44.0079 70.8933 22.6034 63.3564Z" fill="url(#paint2_linear_2052_4643)"/>
<path d="M23.307 25.8691C23.307 25.8691 23.307 94.4845 23.307 97.9378C23.307 101.391 19.2232 103.891 16.3471 102.387C12.0853 100.158 15.0353 95.0354 18.0085 96.1369C20.3871 97.018 19.9665 99.6771 17.9096 99.8156" stroke="url(#paint3_linear_2052_4643)" stroke-width="0.925185"/>
<circle cx="17.6096" cy="99.1882" r="3.94017" fill="url(#paint4_linear_2052_4643)"/>
<defs>
<linearGradient id="paint0_linear_2052_4643" x1="343.193" y1="72.5296" x2="336.559" y2="74.3595" gradientUnits="userSpaceOnUse">
<stop stop-color="#1EE9B6"/>
<stop offset="1" stop-color="#D96FF8"/>
</linearGradient>
<linearGradient id="paint1_linear_2052_4643" x1="46.3794" y1="29.1992" x2="-2.36607" y2="44.4634" gradientUnits="userSpaceOnUse">
<stop stop-color="#1EE9B6"/>
<stop offset="1" stop-color="#D96FF8"/>
</linearGradient>
<linearGradient id="paint2_linear_2052_4643" x1="44.7084" y1="48.5425" x2="-5.1431" y2="64.3315" gradientUnits="userSpaceOnUse">
<stop stop-color="#1EE9B6"/>
<stop offset="1" stop-color="#D96FF8"/>
</linearGradient>
<linearGradient id="paint3_linear_2052_4643" x1="31.7223" y1="19.8933" x2="16.1178" y2="19.0066" gradientUnits="userSpaceOnUse">
<stop stop-color="#1EE9B6"/>
<stop offset="1" stop-color="#D96FF8"/>
</linearGradient>
<linearGradient id="paint4_linear_2052_4643" x1="20.8996" y1="95.9674" x2="13.0472" y2="98.1336" gradientUnits="userSpaceOnUse">
<stop stop-color="#1EE9B6"/>
<stop offset="1" stop-color="#D96FF8"/>
</linearGradient>
</defs>
</svg>
