<svg width="60" height="60" viewBox="0 0 60 60" fill="none" xmlns="http://www.w3.org/2000/svg">
<path d="M2 6H58.25V54.75H2V6Z" fill="#F4F4F4"/>
<path d="M2 6H54.5V51H2V6Z" fill="#F4F4F4"/>
<path d="M13.25 51C17.3921 51 20.75 47.6421 20.75 43.5C20.75 39.3579 17.3921 36 13.25 36C9.10786 36 5.75 39.3579 5.75 43.5C5.75 47.6421 9.10786 51 13.25 51Z" fill="#546DED"/>
<path d="M13.25 36V43.5H5.75C5.75 41.5109 6.54018 39.6032 7.9467 38.1967C9.35322 36.7902 11.2609 36 13.25 36Z" fill="#559B2D"/>
<path d="M13.25 43.5L19.0119 38.6991C18.3087 37.8535 17.4279 37.1733 16.432 36.7068C15.4361 36.2403 14.3497 35.999 13.25 36V43.5Z" fill="#B52F28"/>
<path d="M19.0119 38.6981L13.25 43.5V51C14.6756 51.0001 16.0717 50.5939 17.2747 49.829C18.4778 49.0641 19.4379 47.9722 20.0425 46.6812C20.6472 45.3901 20.8714 43.9535 20.6889 42.5397C20.5063 41.1258 19.9246 39.7932 19.0119 38.6981Z" fill="#F0AE42"/>
<path d="M2 6H58.25V11.625H2V6Z" fill="#989898"/>
<path d="M55.4375 7.875V6H2V8.8125H54.5C54.7486 8.8125 54.9871 8.71373 55.1629 8.53791C55.3387 8.3621 55.4375 8.12364 55.4375 7.875Z" fill="#989898"/>
<path d="M2 6H14.1875V11.625H2V6Z" fill="#989898"/>
<path d="M11.375 7.875V6H2V8.8125H10.4375C10.6861 8.8125 10.9246 8.71373 11.1004 8.53791C11.2762 8.3621 11.375 8.12364 11.375 7.875Z" fill="#989898"/>
<path d="M5.75 15.375H18.875V21H5.75V15.375Z" fill="#BFBFBF"/>
<path d="M16.0625 17.25V15.375H5.75V18.1875H15.125C15.3736 18.1875 15.6121 18.0887 15.7879 17.9129C15.9637 17.7371 16.0625 17.4986 16.0625 17.25Z" fill="#BFBFBF"/>
<path d="M5.75 25.6875H18.875V31.3125H5.75V25.6875Z" fill="#BFBFBF"/>
<path d="M50.75 24.75H54.5V43.5H50.75V24.75Z" fill="#BFBFBF"/>
<path d="M50.75 24.75H52.625V41.625H50.75V24.75Z" fill="#BFBFBF"/>
<path d="M43.25 27.5625H47V43.5H43.25V27.5625Z" fill="#BFBFBF"/>
<path d="M43.25 27.5625H45.125V41.625H43.25V27.5625Z" fill="#BFBFBF"/>
<path d="M35.75 30.375H39.5V43.5H35.75V30.375Z" fill="#BFBFBF"/>
<path d="M35.75 30.375H37.625V41.625H35.75V30.375Z" fill="#BFBFBF"/>
<path d="M28.25 32.25H32V43.5H28.25V32.25Z" fill="#BFBFBF"/>
<path d="M28.25 32.25H30.125V41.625H28.25V32.25Z" fill="#BFBFBF"/>
<path d="M26.101 31.0378L24.7754 29.7121L32.2754 22.2121C32.4512 22.0364 32.6896 21.9377 32.9382 21.9377C33.1868 21.9377 33.4252 22.0364 33.601 22.2121L37.6257 26.2368L44.4629 19.3996C44.6387 19.2239 44.8771 19.1252 45.1257 19.1252C45.3743 19.1252 45.6127 19.2239 45.7885 19.3996L47.9382 21.5493L52.5141 16.9734L53.8445 18.299L48.6057 23.5378C48.4299 23.7135 48.1915 23.8123 47.9429 23.8123C47.6943 23.8123 47.4559 23.7135 47.2801 23.5378L45.1257 21.3881L38.2885 28.2253C38.1127 28.401 37.8743 28.4998 37.6257 28.4998C37.3771 28.4998 37.1387 28.401 36.9629 28.2253L32.9382 24.2006L26.101 31.0378Z" fill="#BFBFBF"/>
<path d="M24.5 16.3125H37.625V18.1875H24.5V16.3125Z" fill="#BFBFBF"/>
<path d="M24.5 20.0625H26.375V21.9375H24.5V20.0625Z" fill="#BFBFBF"/>
<path d="M16.0625 27.5625V25.6875H5.75V28.5H15.125C15.3736 28.5 15.6121 28.4012 15.7879 28.2254C15.9637 28.0496 16.0625 27.8111 16.0625 27.5625Z" fill="#BFBFBF"/>
</svg>
