<svg width="60" height="60" viewBox="0 0 60 60" fill="none" xmlns="http://www.w3.org/2000/svg">
<path d="M58.125 15.9375V10.3125C58.125 9.81522 57.9275 9.33831 57.5758 8.98668C57.2242 8.63504 56.7473 8.4375 56.25 8.4375H3.75C3.25272 8.4375 2.77581 8.63504 2.42417 8.98668C2.07254 9.33831 1.875 9.81522 1.875 10.3125V15.9375H58.125Z" fill="#989898"/>
<path d="M54.3112 13.125C54.5599 13.125 54.7983 13.0262 54.9742 12.8504C55.15 12.6746 55.2487 12.4361 55.2487 12.1875V8.4375H3.75C3.25272 8.4375 2.77581 8.63504 2.42417 8.98668C2.07254 9.33831 1.875 9.81522 1.875 10.3125V13.125H54.3112Z" fill="#989898"/>
<path d="M58.125 15.9375V49.6875C58.125 50.1848 57.9275 50.6617 57.5758 51.0133C57.2242 51.365 56.7473 51.5625 56.25 51.5625H3.75C3.25272 51.5625 2.77581 51.365 2.42417 51.0133C2.07254 50.6617 1.875 50.1848 1.875 49.6875V15.9375H58.125Z" fill="#F4F4F4"/>
<path d="M1.875 15.9375V47.8125H51.5625C52.0598 47.8125 52.5367 47.615 52.8883 47.2633C53.24 46.9117 53.4375 46.4348 53.4375 45.9375V15.9375H1.875Z" fill="#F4F4F4"/>
<path d="M4.6875 11.25H6.5625V13.125H4.6875V11.25Z" fill="#FBF2FF"/>
<path d="M8.4375 11.25H10.3125V13.125H8.4375V11.25Z" fill="#FBF2FF"/>
<path d="M12.1875 11.25H14.0625V13.125H12.1875V11.25Z" fill="#FBF2FF"/>
<path d="M25.3125 26.25H52.5C52.9973 26.25 53.4742 26.4475 53.8258 26.7992C54.1775 27.1508 54.375 27.6277 54.375 28.125V39.375C54.375 39.8723 54.1775 40.3492 53.8258 40.7008C53.4742 41.0525 52.9973 41.25 52.5 41.25H25.3125" fill="#BFBFBF"/>
<path d="M25.3125 38.4375H50.625C51.1223 38.4375 51.5992 38.24 51.9508 37.8883C52.3025 37.5367 52.5 37.0598 52.5 36.5625V26.25H25.3125V38.4375Z" fill="#BFBFBF"/>
<path d="M16.875 45C23.0882 45 28.125 39.9632 28.125 33.75C28.125 27.5368 23.0882 22.5 16.875 22.5C10.6618 22.5 5.625 27.5368 5.625 33.75C5.625 39.9632 10.6618 45 16.875 45Z" fill="#21487D"/>
<path d="M25.3119 32.8126C25.311 30.7022 24.7159 28.6347 23.5948 26.8468C22.4736 25.0588 20.8718 23.6226 18.9726 22.7026C16.2944 22.191 13.5216 22.6703 11.1706 24.0513C8.81961 25.4322 7.05068 27.6206 6.19328 30.2088C5.33588 32.7971 5.44847 35.6088 6.51007 38.1202C7.57168 40.6316 9.50993 42.6715 11.9638 43.8601C13.5901 44.1732 15.2655 44.1226 16.8699 43.712C18.4743 43.3013 19.9679 42.5408 21.2437 41.4848C22.5196 40.4289 23.546 39.1038 24.2493 37.6044C24.9527 36.1051 25.3155 34.4687 25.3119 32.8126Z" fill="#21487D"/>
<path d="M12.1875 31.875H21.5625V39.375H12.1875V31.875Z" fill="#3573BC"/>
<path d="M12.1875 31.875H18.75V36.5625H12.1875V31.875Z" fill="#3573BC"/>
<path d="M15 34.6875H18.75V36.5625H15V34.6875Z" fill="#FBF2FF"/>
<path d="M20.625 31.875H18.75V29.0625C18.75 28.5652 18.5525 28.0883 18.2008 27.7367C17.8492 27.385 17.3723 27.1875 16.875 27.1875C16.3777 27.1875 15.9008 27.385 15.5492 27.7367C15.1975 28.0883 15 28.5652 15 29.0625V31.875H13.125V29.0625C13.125 28.0679 13.5201 27.1141 14.2233 26.4109C14.9266 25.7076 15.8804 25.3125 16.875 25.3125C17.8696 25.3125 18.8234 25.7076 19.5266 26.4109C20.2299 27.1141 20.625 28.0679 20.625 29.0625V31.875Z" fill="#FBF2FF"/>
<path d="M35.9004 30.2747L34.6882 31.4869V29.0625H32.8132V31.4869L31.601 30.2747L30.2754 31.6003L32.4251 33.75L30.2754 35.8997L31.601 37.2253L32.8132 36.0131V38.4375H34.6882V36.0131L35.9004 37.2253L37.226 35.8997L35.0763 33.75L37.226 31.6003L35.9004 30.2747Z" fill="#FBF2FF"/>
<path d="M43.4004 30.2747L42.1882 31.4869V29.0625H40.3132V31.4869L39.101 30.2747L37.7754 31.6003L39.9251 33.75L37.7754 35.8997L39.101 37.2253L40.3132 36.0131V38.4375H42.1882V36.0131L43.4004 37.2253L44.726 35.8997L42.5763 33.75L44.726 31.6003L43.4004 30.2747Z" fill="#FBF2FF"/>
<path d="M52.226 31.6003L50.9004 30.2747L49.6882 31.4869V29.0625H47.8132V31.4869L46.601 30.2747L45.2754 31.6003L47.4251 33.75L45.2754 35.8997L46.601 37.2253L47.8132 36.0131V38.4375H49.6882V36.0131L50.9004 37.2253L52.226 35.8997L50.0763 33.75L52.226 31.6003Z" fill="#FBF2FF"/>
</svg>
