<svg width="60" height="60" viewBox="0 0 60 60" fill="none" xmlns="http://www.w3.org/2000/svg">
<path d="M15.6691 5.2418V17.1844C15.6686 17.1898 15.6686 17.1953 15.6691 17.2008C14.9441 17.3949 14.3033 17.8226 13.8459 18.4177C13.3885 19.0127 13.1401 19.742 13.1391 20.4926V22.8234C9.18429 23.4683 5.49816 25.2361 2.51953 27.9164V19.2445C2.52268 15.6766 3.8835 12.2436 6.32572 9.64249C8.76793 7.04139 12.1085 5.46717 15.6691 5.23945V5.2418Z" fill="#BFBFBF"/>
<path d="M30.5766 19.2422V27.9141C27.5972 25.2336 23.9102 23.4657 19.9547 22.8211V20.4926C19.9537 19.7422 19.7055 19.013 19.2483 18.4179C18.7911 17.8229 18.1506 17.3951 17.4258 17.2008V17.1844V5.23945C20.9857 5.46711 24.3257 7.04062 26.768 9.64069C29.2103 12.2408 30.5719 15.6726 30.5766 19.2398V19.2422Z" fill="#BFBFBF"/>
<path d="M2.51953 30.3762C5.34495 27.3585 9.07059 25.3356 13.1402 24.6094V27.9516C13.1318 28.4043 13.2138 28.8542 13.3812 29.275C13.5487 29.6957 13.7983 30.0788 14.1155 30.402C14.4328 30.7252 14.8112 30.9819 15.2288 31.1571C15.6463 31.3323 16.0946 31.4226 16.5475 31.4226C17.0003 31.4226 17.4486 31.3323 17.8662 31.1571C18.2837 30.9819 18.6622 30.7252 18.9794 30.402C19.2966 30.0788 19.5462 29.6957 19.7137 29.275C19.8812 28.8542 19.9631 28.4043 19.9547 27.9516V24.6094C24.0252 25.3362 27.7514 27.3604 30.5766 30.3797V40.8176C30.5766 44.5382 29.0986 48.1064 26.4677 50.7372C23.8368 53.3681 20.2686 54.8461 16.548 54.8461C12.8275 54.8461 9.25924 53.3681 6.62839 50.7372C3.99753 48.1064 2.51953 44.5382 2.51953 40.8176V30.3762Z" fill="#BFBFBF"/>
<path d="M16.548 18.8449C16.9854 18.8455 17.4046 19.0196 17.7137 19.329C18.0228 19.6383 18.1966 20.0576 18.1969 20.4949V27.9504C18.2027 28.1707 18.1644 28.3899 18.0842 28.5952C18.0039 28.8004 17.8834 28.9875 17.7296 29.1454C17.5759 29.3033 17.3921 29.4288 17.189 29.5145C16.986 29.6002 16.7678 29.6444 16.5475 29.6444C16.3271 29.6444 16.1089 29.6002 15.9059 29.5145C15.7029 29.4288 15.519 29.3033 15.3653 29.1454C15.2115 28.9875 15.091 28.8004 15.0107 28.5952C14.9305 28.3899 14.8922 28.1707 14.898 27.9504V20.4926C14.8987 20.0552 15.0727 19.6358 15.382 19.3265C15.6913 19.0172 16.1106 18.8432 16.548 18.8426V18.8449Z" fill="#BFBFBF"/>
<path d="M48.3805 47.4293C48.6137 47.4292 48.8373 47.337 49.0028 47.1727L54.875 41.3004C55.0168 41.1587 55.185 41.0462 55.3702 40.9695C55.5554 40.8928 55.7539 40.8533 55.9543 40.8533C56.1548 40.8533 56.3533 40.8928 56.5385 40.9695C56.7236 41.0462 56.8919 41.1587 57.0336 41.3004C57.1754 41.4421 57.2878 41.6104 57.3645 41.7956C57.4412 41.9808 57.4807 42.1793 57.4807 42.3797C57.4807 42.5801 57.4412 42.7786 57.3645 42.9638C57.2878 43.149 57.1754 43.3173 57.0336 43.459L49.4598 51.0317C49.3183 51.1737 49.1501 51.2865 48.9649 51.3634C48.7796 51.4403 48.5811 51.4799 48.3805 51.4799C48.18 51.4799 47.9814 51.4403 47.7962 51.3634C47.611 51.2865 47.4428 51.1737 47.3012 51.0317L39.7262 43.459C39.5841 43.3175 39.4714 43.1493 39.3945 42.964C39.3175 42.7788 39.2779 42.5803 39.2779 42.3797C39.2779 42.1792 39.3175 41.9806 39.3945 41.7954C39.4714 41.6101 39.5841 41.4419 39.7262 41.3004C39.8678 41.1583 40.036 41.0456 40.2212 40.9687C40.4064 40.8917 40.605 40.8521 40.8055 40.8521C41.0061 40.8521 41.2046 40.8917 41.3899 40.9687C41.5751 41.0456 41.7433 41.1583 41.8848 41.3004L47.7571 47.1727C47.9227 47.3375 48.1469 47.4298 48.3805 47.4293Z" fill="#989898"/>
<path d="M57.0349 18.7383C56.8934 18.8803 56.7252 18.9931 56.54 19.07C56.3547 19.1469 56.1562 19.1865 55.9556 19.1865C55.7551 19.1865 55.5565 19.1469 55.3713 19.07C55.186 18.9931 55.0178 18.8803 54.8763 18.7383L49.004 12.866C48.9224 12.7843 48.8255 12.7195 48.7188 12.6753C48.6122 12.6311 48.4978 12.6084 48.3824 12.6084C48.2669 12.6084 48.1526 12.6311 48.0459 12.6753C47.9392 12.7195 47.8423 12.7843 47.7607 12.866L41.8884 18.7383C41.7469 18.8801 41.5788 18.9928 41.3938 19.0697C41.2088 19.1466 41.0104 19.1864 40.81 19.1867C40.4053 19.1872 40.017 19.027 39.7304 18.7412C39.5885 18.5997 39.4759 18.4316 39.399 18.2466C39.322 18.0616 39.2823 17.8632 39.282 17.6628C39.2815 17.2581 39.4417 16.8697 39.7275 16.5832L47.3001 9.01052C47.587 8.72509 47.9748 8.56424 48.3794 8.56287C48.7824 8.56426 49.1683 8.72522 49.4529 9.01052L57.0267 16.5832C57.1688 16.7247 57.2815 16.8929 57.3584 17.0781C57.4354 17.2633 57.475 17.4619 57.475 17.6625C57.475 17.863 57.4354 18.0616 57.3584 18.2468C57.2815 18.432 57.1688 18.6002 57.0267 18.7418L57.0349 18.7383Z" fill="#989898"/>
<path d="M48.3402 19.2188C48.1071 19.2188 47.8836 19.3113 47.7187 19.4762C47.5539 19.641 47.4613 19.8646 47.4613 20.0977V27.8812C46.456 28.0929 45.5541 28.6439 44.9068 29.4417C44.2595 30.2394 43.9062 31.2355 43.9062 32.2629C43.9062 33.2902 44.2595 34.2863 44.9068 35.0841C45.5541 35.8819 46.456 36.4328 47.4613 36.6445V38.7305C47.4613 38.9636 47.5539 39.1871 47.7187 39.352C47.8836 39.5168 48.1071 39.6094 48.3402 39.6094C48.5733 39.6094 48.7969 39.5168 48.9617 39.352C49.1265 39.1871 49.2191 38.9636 49.2191 38.7305V36.6598C50.2393 36.4617 51.1588 35.9149 51.8199 35.1131C52.4811 34.3113 52.8426 33.3045 52.8426 32.2652C52.8426 31.226 52.4811 30.2192 51.8199 29.4174C51.1588 28.6155 50.2393 28.0687 49.2191 27.8707V20.0977C49.2191 19.8646 49.1265 19.641 48.9617 19.4762C48.7969 19.3113 48.5733 19.2188 48.3402 19.2188ZM51.1012 32.2629C51.1012 32.8008 50.9416 33.3267 50.6428 33.774C50.3439 34.2213 49.9191 34.5699 49.4221 34.7758C48.9251 34.9816 48.3782 35.0355 47.8506 34.9306C47.323 34.8256 46.8383 34.5666 46.458 34.1862C46.0776 33.8058 45.8185 33.3211 45.7136 32.7935C45.6086 32.2659 45.6625 31.719 45.8684 31.222C46.0742 30.725 46.4228 30.3002 46.8701 30.0014C47.3174 29.7025 47.8433 29.543 48.3812 29.543C49.1024 29.5436 49.7939 29.8304 50.3038 30.3403C50.8138 30.8503 51.1005 31.5417 51.1012 32.2629Z" fill="#EACB14"/>
<path d="M51.1012 32.2629C51.1012 32.8008 50.9416 33.3267 50.6428 33.774C50.3439 34.2213 49.9191 34.5699 49.4221 34.7758C48.9251 34.9816 48.3782 35.0355 47.8506 34.9306C47.323 34.8256 46.8383 34.5666 46.458 34.1862C46.0776 33.8058 45.8185 33.3211 45.7136 32.7935C45.6086 32.2659 45.6625 31.719 45.8684 31.222C46.0742 30.725 46.4228 30.3002 46.8701 30.0014C47.3174 29.7025 47.8433 29.543 48.3812 29.543C49.1024 29.5436 49.7939 29.8304 50.3038 30.3403C50.8138 30.8503 51.1005 31.5417 51.1012 32.2629Z" fill="#EACB14"/>
</svg>
