<svg width="60" height="60" viewBox="0 0 60 60" fill="none" xmlns="http://www.w3.org/2000/svg">
<path d="M13.25 48C11.1789 48 9.5 46.3211 9.5 44.25V29.25C9.5 27.1789 11.1789 25.5 13.25 25.5C15.3211 25.5 17 27.1789 17 29.25V44.25C17 46.3211 15.3211 48 13.25 48Z" fill="#989898"/>
<path d="M5.75 44.25H9.5V29.25H5.75C3.67895 29.25 2 30.9289 2 33V40.5C2 42.5711 3.67895 44.25 5.75 44.25Z" fill="#DEDEDE"/>
<path d="M47 48C49.0711 48 50.75 46.3211 50.75 44.25V29.25C50.75 27.1789 49.0711 25.5 47 25.5C44.9289 25.5 43.25 27.1789 43.25 29.25V44.25C43.25 46.3211 44.9289 48 47 48Z" fill="#989898"/>
<path d="M54.5 44.25H50.75V29.25H54.5C56.5711 29.25 58.25 30.9289 58.25 33V40.5C58.25 42.5711 56.5711 44.25 54.5 44.25Z" fill="#DEDEDE"/>
<path d="M54.5 29.25H50.75V27.375C50.75 16.0023 41.4977 6.75 30.125 6.75C18.7523 6.75 9.5 16.0023 9.5 27.375V29.25H5.75V27.375C5.75 13.9346 16.6846 3 30.125 3C43.5654 3 54.5 13.9346 54.5 27.375V29.25Z" fill="#DEDEDE"/>
<rect x="21" y="23" width="18" height="31" rx="1" fill="#E8E8E8"/>
<path d="M30 45C33.866 45 37 41.866 37 38C37 34.134 33.866 31 30 31C26.134 31 23 34.134 23 38C23 41.866 26.134 45 30 45Z" fill="#3573BC"/>
<path d="M28.4265 35C28.5106 35 28.593 35.0224 28.663 35.0644L32.6918 37.4818C32.8843 37.5973 33 37.7917 33 38C33 38.2083 32.8844 38.4027 32.6918 38.5182L28.663 40.9356C28.5929 40.9776 28.5106 41 28.4265 41C28.191 41 28 40.8282 28 40.6162V35.3838C28 35.1718 28.1909 35 28.4265 35Z" fill="white"/>
</svg>
