<svg width="58" height="58" viewBox="0 0 58 58" fill="none" xmlns="http://www.w3.org/2000/svg">
<path d="M54.3125 0.875H3.6875C2.1342 0.875 0.875 2.1342 0.875 3.6875V54.3125C0.875 55.8658 2.1342 57.125 3.6875 57.125H54.3125C55.8658 57.125 57.125 55.8658 57.125 54.3125V3.6875C57.125 2.1342 55.8658 0.875 54.3125 0.875Z" fill="#F4F4F4"/>
<path d="M54.3125 0.875H3.6875C2.94158 0.875 2.22621 1.17132 1.69876 1.69876C1.17132 2.22621 0.875 2.94158 0.875 3.6875V8.375H57.125V3.6875C57.125 2.94158 56.8287 2.22621 56.3012 1.69876C55.7738 1.17132 55.0584 0.875 54.3125 0.875Z" fill="#989898"/>
<path d="M17.75 12.125H27.125V23.375H17.75V12.125Z" fill="#3573BC"/>
<path d="M5 12H14.375V23.25H5V12Z" fill="#3573BC"/>
<path d="M5 34H14.375V45.25H5V34Z" fill="#3573BC"/>
<path d="M25.25 27.125H19.625C18.5895 27.125 17.75 27.9645 17.75 29C17.75 30.0355 18.5895 30.875 19.625 30.875H25.25C26.2855 30.875 27.125 30.0355 27.125 29C27.125 27.9645 26.2855 27.125 25.25 27.125Z" fill="#3573BC"/>
<path d="M12.5 27H6.875C5.83947 27 5 27.8395 5 28.875C5 29.9105 5.83947 30.75 6.875 30.75H12.5C13.5355 30.75 14.375 29.9105 14.375 28.875C14.375 27.8395 13.5355 27 12.5 27Z" fill="#3573BC"/>
<path d="M12.5 49H6.875C5.83947 49 5 49.8395 5 50.875C5 51.9105 5.83947 52.75 6.875 52.75H12.5C13.5355 52.75 14.375 51.9105 14.375 50.875C14.375 49.8395 13.5355 49 12.5 49Z" fill="#3573BC"/>
<path d="M25.25 49.625H19.625C18.5895 49.625 17.75 50.4645 17.75 51.5C17.75 52.5355 18.5895 53.375 19.625 53.375H25.25C26.2855 53.375 27.125 52.5355 27.125 51.5C27.125 50.4645 26.2855 49.625 25.25 49.625Z" fill="#3573BC"/>
<path d="M38.375 49.625H32.75C31.7145 49.625 30.875 50.4645 30.875 51.5C30.875 52.5355 31.7145 53.375 32.75 53.375H38.375C39.4105 53.375 40.25 52.5355 40.25 51.5C40.25 50.4645 39.4105 49.625 38.375 49.625Z" fill="#3573BC"/>
<path d="M38.375 27.125H32.75C31.7145 27.125 30.875 27.9645 30.875 29C30.875 30.0355 31.7145 30.875 32.75 30.875H38.375C39.4105 30.875 40.25 30.0355 40.25 29C40.25 27.9645 39.4105 27.125 38.375 27.125Z" fill="#2763BB"/>
<path d="M51.5 27.125H45.875C44.8395 27.125 44 27.9645 44 29C44 30.0355 44.8395 30.875 45.875 30.875H51.5C52.5355 30.875 53.375 30.0355 53.375 29C53.375 27.9645 52.5355 27.125 51.5 27.125Z" fill="#3573BC"/>
<path d="M51.5 49.625H45.875C44.8395 49.625 44 50.4645 44 51.5C44 52.5355 44.8395 53.375 45.875 53.375H51.5C52.5355 53.375 53.375 52.5355 53.375 51.5C53.375 50.4645 52.5355 49.625 51.5 49.625Z" fill="#3573BC"/>
<path d="M20.5625 14.9375H24.3125V16.8125H20.5625V14.9375Z" fill="#FBF2FF"/>
<path d="M7.8125 14.8125H11.5625V16.6875H7.8125V14.8125Z" fill="#FBF2FF"/>
<path d="M7.8125 36.8125H11.5625V38.6875H7.8125V36.8125Z" fill="#FBF2FF"/>
<path d="M20.5625 18.6875H24.3125V20.5625H20.5625V18.6875Z" fill="#FBF2FF"/>
<path d="M7.8125 18.5625H11.5625V20.4375H7.8125V18.5625Z" fill="#FBF2FF"/>
<path d="M7.8125 40.5625H11.5625V42.4375H7.8125V40.5625Z" fill="#FBF2FF"/>
<path d="M52.4375 3.6875H54.3125V5.5625H52.4375V3.6875Z" fill="#FBF2FF"/>
<path d="M48.6875 3.6875H50.5625V5.5625H48.6875V3.6875Z" fill="#FBF2FF"/>
<path d="M44.9375 3.6875H46.8125V5.5625H44.9375V3.6875Z" fill="#FBF2FF"/>
<path d="M30.875 12.125H40.25V23.375H30.875V12.125Z" fill="#2763BB"/>
<path d="M33.6875 14.9375H37.4375V16.8125H33.6875V14.9375Z" fill="#FBF2FF"/>
<path d="M33.6875 18.6875H37.4375V20.5625H33.6875V18.6875Z" fill="#FBF2FF"/>
<path d="M44 12.125H53.375V23.375H44V12.125Z" fill="#3573BC"/>
<path d="M46.8125 14.9375H50.5625V16.8125H46.8125V14.9375Z" fill="#FBF2FF"/>
<path d="M46.8125 18.6875H50.5625V20.5625H46.8125V18.6875Z" fill="#FBF2FF"/>
<path d="M17.75 34.625H27.125V45.875H17.75V34.625Z" fill="#3573BC"/>
<path d="M20.5625 37.4375H24.3125V39.3125H20.5625V37.4375Z" fill="#FBF2FF"/>
<path d="M20.5625 41.1875H24.3125V43.0625H20.5625V41.1875Z" fill="#FBF2FF"/>
<path d="M30.875 34.625H40.25V45.875H30.875V34.625Z" fill="#3573BC"/>
<path d="M33.6875 37.4375H37.4375V39.3125H33.6875V37.4375Z" fill="#FBF2FF"/>
<path d="M33.6875 41.1875H37.4375V43.0625H33.6875V41.1875Z" fill="#FBF2FF"/>
<path d="M44 34.625H53.375V45.875H44V34.625Z" fill="#3573BC"/>
<path d="M46.8125 37.4375H50.5625V39.3125H46.8125V37.4375Z" fill="#FBF2FF"/>
<path d="M46.8125 41.1875H50.5625V43.0625H46.8125V41.1875Z" fill="#FBF2FF"/>
</svg>
