<svg width="56" height="47" viewBox="0 0 56 47" fill="none" xmlns="http://www.w3.org/2000/svg">
<path d="M0 0H55.1739V47H0V0Z" fill="#F4F4F4"/>
<path d="M0 0H55.1739V8.17391H0V0Z" fill="#989898"/>
<path d="M50.0645 3.06519H52.1079V5.10866H50.0645V3.06519Z" fill="#FBF2FF"/>
<path d="M45.9785 3.06519H48.022V5.10866H45.9785V3.06519Z" fill="#FBF2FF"/>
<path d="M41.8906 3.06519H43.9341V5.10866H41.8906V3.06519Z" fill="#FBF2FF"/>
<path d="M47.0004 21.4565H8.17434C7.04576 21.4565 6.13086 22.3714 6.13086 23.5C6.13086 24.6286 7.04576 25.5435 8.17434 25.5435H47.0004C48.129 25.5435 49.0439 24.6286 49.0439 23.5C49.0439 22.3714 48.129 21.4565 47.0004 21.4565Z" fill="#3573BC"/>
<path d="M12.2608 21.4565L8.17383 25.5435H15.326L19.413 21.4565H12.2608Z" fill="#21487D"/>
<path d="M26.5655 21.4565L22.4785 25.5435H29.6307L33.7176 21.4565H26.5655Z" fill="#21487D"/>
<path d="M7.15285 30.6522H5.10938V38.8261C5.10938 39.0971 5.21702 39.357 5.40864 39.5486C5.60025 39.7402 5.86013 39.8479 6.13111 39.8479H10.2181V37.8044H7.15285V30.6522Z" fill="#BFBFBF"/>
<path d="M14.3055 30.6522C13.4925 30.6522 12.7129 30.9752 12.138 31.55C11.5632 32.1248 11.2402 32.9045 11.2402 33.7174V36.7827C11.2402 37.5956 11.5632 38.3753 12.138 38.9501C12.7129 39.5249 13.4925 39.8479 14.3055 39.8479C15.1184 39.8479 15.898 39.5249 16.4729 38.9501C17.0477 38.3753 17.3707 37.5956 17.3707 36.7827V33.7174C17.3707 32.9045 17.0477 32.1248 16.4729 31.55C15.898 30.9752 15.1184 30.6522 14.3055 30.6522ZM15.3272 36.7827C15.3272 37.0536 15.2195 37.3135 15.0279 37.5051C14.8363 37.6967 14.5764 37.8044 14.3055 37.8044C14.0345 37.8044 13.7746 37.6967 13.583 37.5051C13.3914 37.3135 13.2837 37.0536 13.2837 36.7827V33.7174C13.2837 33.4465 13.3914 33.1866 13.583 32.995C13.7746 32.8033 14.0345 32.6957 14.3055 32.6957C14.5764 32.6957 14.8363 32.8033 15.0279 32.995C15.2195 33.1866 15.3272 33.4465 15.3272 33.7174V36.7827Z" fill="#BFBFBF"/>
<path d="M21.4578 30.6522C20.6448 30.6522 19.8652 30.9752 19.2904 31.55C18.7155 32.1248 18.3926 32.9045 18.3926 33.7174V39.8479H20.4361V37.8044H22.4795V39.8479H24.523V33.7174C24.523 32.9045 24.2001 32.1248 23.6252 31.55C23.0504 30.9752 22.2707 30.6522 21.4578 30.6522ZM20.4361 35.7609V33.7174C20.4361 33.4465 20.5437 33.1866 20.7353 32.995C20.9269 32.8033 21.1868 32.6957 21.4578 32.6957C21.7288 32.6957 21.9887 32.8033 22.1803 32.995C22.3719 33.1866 22.4795 33.4465 22.4795 33.7174V35.7609H20.4361Z" fill="#BFBFBF"/>
<path d="M28.6101 30.6522H26.5667C26.2957 30.6522 26.0358 30.7599 25.8442 30.9515C25.6526 31.1431 25.5449 31.403 25.5449 31.674V38.8261C25.5449 39.0971 25.6526 39.357 25.8442 39.5486C26.0358 39.7402 26.2957 39.8479 26.5667 39.8479H28.6101C29.4231 39.8479 30.2027 39.5249 30.7776 38.9501C31.3524 38.3753 31.6754 37.5956 31.6754 36.7827V33.7174C31.6754 32.9045 31.3524 32.1248 30.7776 31.55C30.2027 30.9752 29.4231 30.6522 28.6101 30.6522ZM29.6319 36.7827C29.6319 37.0536 29.5242 37.3135 29.3326 37.5051C29.141 37.6967 28.8811 37.8044 28.6101 37.8044H27.5884V32.6957H28.6101C28.8811 32.6957 29.141 32.8033 29.3326 32.995C29.5242 33.1866 29.6319 33.4465 29.6319 33.7174V36.7827Z" fill="#BFBFBF"/>
<path d="M32.6973 30.6522H34.7407V39.8479H32.6973V30.6522Z" fill="#BFBFBF"/>
<path d="M39.8487 34.9784L37.6703 31.1632C37.5583 30.9674 37.3847 30.8142 37.1765 30.7274C36.9682 30.6406 36.7372 30.6252 36.5193 30.6835C36.3014 30.7419 36.1089 30.8707 35.9719 31.0498C35.8348 31.229 35.7609 31.4485 35.7617 31.6741V39.848H37.8052V35.5219L39.9836 39.333C40.0729 39.4894 40.202 39.6194 40.3577 39.7098C40.5134 39.8003 40.6903 39.8479 40.8704 39.848C40.959 39.8478 41.0472 39.8364 41.133 39.8143C41.3508 39.7563 41.5433 39.6281 41.6806 39.4494C41.8179 39.2707 41.8923 39.0516 41.8922 38.8262V30.6523H39.8487V34.9784Z" fill="#BFBFBF"/>
<path d="M48.0228 34.7392H45.9793V36.7827H47.001C47.001 37.0536 46.8934 37.3135 46.7018 37.5051C46.5101 37.6967 46.2503 37.8044 45.9793 37.8044C45.7083 37.8044 45.4484 37.6967 45.2568 37.5051C45.0652 37.3135 44.9575 37.0536 44.9575 36.7827V33.7174C44.9575 33.4465 45.0652 33.1866 45.2568 32.995C45.4484 32.8033 45.7083 32.6957 45.9793 32.6957C46.2503 32.6957 46.5101 32.8033 46.7018 32.995C46.8934 33.1866 47.001 33.4465 47.001 33.7174H49.0445C49.0445 32.9045 48.7216 32.1248 48.1467 31.55C47.5719 30.9752 46.7922 30.6522 45.9793 30.6522C45.1663 30.6522 44.3867 30.9752 43.8118 31.55C43.237 32.1248 42.9141 32.9045 42.9141 33.7174V36.7827C42.9141 37.5956 43.237 38.3753 43.8118 38.9501C44.3867 39.5249 45.1663 39.8479 45.9793 39.8479C46.7922 39.8479 47.5719 39.5249 48.1467 38.9501C48.7216 38.3753 49.0445 37.5956 49.0445 36.7827V35.7609C49.0445 35.4899 48.9369 35.2301 48.7452 35.0384C48.5536 34.8468 48.2937 34.7392 48.0228 34.7392Z" fill="#BFBFBF"/>
<path d="M37.8047 14.3043L41.8916 22.4782L45.9786 14.3043L41.8916 15.3261L37.8047 14.3043Z" fill="#EACB14"/>
</svg>
