<svg width="60" height="60" viewBox="0 0 60 60" fill="none" xmlns="http://www.w3.org/2000/svg">
<path d="M14.0625 4.6875C14.0625 3.94158 14.3588 3.22621 14.8863 2.69876C15.4137 2.17132 16.1291 1.875 16.875 1.875H43.125C43.8709 1.875 44.5863 2.17132 45.1137 2.69876C45.6412 3.22621 45.9375 3.94158 45.9375 4.6875V55.3125C45.9375 56.0584 45.6412 56.7738 45.1137 57.3012C44.5863 57.8287 43.8709 58.125 43.125 58.125H16.875C16.1291 58.125 15.4137 57.8287 14.8863 57.3012C14.3588 56.7738 14.0625 56.0584 14.0625 55.3125V4.6875Z" fill="#989898"/>
<path d="M42.1875 7.5H17.8125V48.75H42.1875V7.5Z" fill="#F5F5F5"/>
<path d="M32.8125 3.75H27.1875V5.625H32.8125V3.75Z" fill="#FBF2FF"/>
<circle cx="42.5" cy="16.5" r="11.5" fill="#BFBFBF"/>
<path d="M42 7H44V10H42V7Z" fill="#389727"/>
<path d="M35 22L35.5333 21.2571C36.9181 19.3284 37.6667 16.9824 37.6667 14.5714C37.6667 13.0938 38.2286 11.6767 39.2288 10.6318C40.229 9.58699 41.5855 9 43 9C44.4145 9 45.771 9.58699 46.7712 10.6318C47.7714 11.6767 48.3333 13.0938 48.3333 14.5714C48.3333 16.9824 49.0819 19.3284 50.4667 21.2571L51 22H35Z" fill="#389727"/>
<path d="M41 22V22.5C41 22.8978 41.2107 23.2794 41.5858 23.5607C41.9609 23.842 42.4696 24 43 24C43.5304 24 44.0391 23.842 44.4142 23.5607C44.7893 23.2794 45 22.8978 45 22.5V22H41Z" fill="#389727"/>
</svg>
