<svg width="60" height="60" viewBox="0 0 60 60" fill="none" xmlns="http://www.w3.org/2000/svg">
<path d="M46.875 15H5.625C3.55393 15 1.875 16.6789 1.875 18.75V54.375C1.875 56.4461 3.55393 58.125 5.625 58.125H46.875C48.9461 58.125 50.625 56.4461 50.625 54.375V18.75C50.625 16.6789 48.9461 15 46.875 15Z" fill="#F4F4F4"/>
<path d="M5.625 26.25H46.875V54.375H5.625V26.25Z" fill="white"/>
<path d="M44.996 1C42.7225 0.999983 40.4958 1.64628 38.5753 2.86357C36.6548 4.08087 35.1197 5.81904 34.1488 7.87556C33.1779 9.93208 32.8112 12.2222 33.0915 14.4792C33.3718 16.7362 34.2874 18.867 35.7318 20.6234L34.7138 24.1429L39.4042 23.6123C41.0148 24.4627 42.7978 24.9352 44.618 24.9938C46.4382 25.0524 48.2479 24.6957 49.9098 23.9507C51.5717 23.2057 53.0423 22.0919 54.2099 20.6938C55.3776 19.2958 56.2117 17.6501 56.649 15.8816C57.0863 14.1132 57.1154 12.2683 56.734 10.4869C56.3526 8.70552 55.5707 7.03439 54.4477 5.60021C53.3247 4.16604 51.89 3.00647 50.2524 2.20942C48.6148 1.41238 46.8172 0.998786 44.996 1Z" fill="#E5E5E5"/>
<path d="M44 5H46V8H44V5Z" fill="#EACB14"/>
<path d="M38 18L38.4667 17.3714C39.6783 15.7394 40.3333 13.7543 40.3333 11.7143C40.3333 10.464 40.825 9.26488 41.7002 8.38078C42.5753 7.49668 43.7623 7 45 7C46.2377 7 47.4247 7.49668 48.2998 8.38078C49.175 9.26488 49.6667 10.464 49.6667 11.7143C49.6667 13.7543 50.3217 15.7394 51.5333 17.3714L52 18H38Z" fill="#EACB14"/>
<path d="M43 18V18.5C43 18.8978 43.2107 19.2794 43.5858 19.5607C43.9609 19.842 44.4696 20 45 20C45.5304 20 46.0391 19.842 46.4142 19.5607C46.7893 19.2794 47 18.8978 47 18.5V18H43Z" fill="#EACB14"/>
<path d="M39.375 41.25H13.125C12.0895 41.25 11.25 42.0895 11.25 43.125C11.25 44.1605 12.0895 45 13.125 45H39.375C40.4105 45 41.25 44.1605 41.25 43.125C41.25 42.0895 40.4105 41.25 39.375 41.25Z" fill="#BFBFBF"/>
<path d="M41.25 43.125C41.25 42.6277 41.0525 42.1508 40.7008 41.7992C40.3492 41.4475 39.8723 41.25 39.375 41.25H33.75V45H39.375C39.8723 45 40.3492 44.8025 40.7008 44.4508C41.0525 44.0992 41.25 43.6223 41.25 43.125Z" fill="#BFBFBF"/>
<path d="M10.3125 47.8125H38.4366V49.6875H10.3125V47.8125Z" fill="#BFBFBF"/>
<path d="M40.3125 47.8125H42.1875V49.6875H40.3125V47.8125Z" fill="#BFBFBF"/>
</svg>
