<svg width="60" height="60" viewBox="0 0 60 60" fill="none" xmlns="http://www.w3.org/2000/svg">
<rect y="1.62891" width="60" height="57" rx="1" fill="#BFBFBF"/>
<path d="M14.5938 4.31641H56.2812C56.7817 4.31641 57.1875 4.73617 57.1875 5.25391C57.1875 5.77164 56.7817 6.19141 56.2812 6.19141H14.5938C14.0933 6.19141 13.6875 5.77164 13.6875 5.25391C13.6875 4.73617 14.0933 4.31641 14.5938 4.31641Z" fill="#F5F5F5"/>
<path d="M3.71852 6.19094C4.21891 6.19094 4.62455 5.77131 4.62455 5.25367C4.62455 4.73603 4.21891 4.31641 3.71852 4.31641C3.21814 4.31641 2.8125 4.73603 2.8125 5.25367C2.8125 5.77131 3.21814 6.19094 3.71852 6.19094Z" fill="#F5F5F5"/>
<path d="M7.34352 6.19094C7.84391 6.19094 8.24955 5.77131 8.24955 5.25367C8.24955 4.73603 7.84391 4.31641 7.34352 4.31641C6.84314 4.31641 6.4375 4.73603 6.4375 5.25367C6.4375 5.77131 6.84314 6.19094 7.34352 6.19094Z" fill="#F5F5F5"/>
<path d="M10.9685 6.19094C11.4689 6.19094 11.8745 5.77131 11.8745 5.25367C11.8745 4.73603 11.4689 4.31641 10.9685 4.31641C10.4681 4.31641 10.0625 4.73603 10.0625 5.25367C10.0625 5.77131 10.4681 6.19094 10.9685 6.19094Z" fill="#F5F5F5"/>
<path d="M2.8125 55.3862V10.051C2.8125 9.56999 3.20562 9.1792 3.68952 9.1792H56.3105C56.7944 9.1792 57.1875 9.56999 57.1875 10.051V55.3862C57.1875 55.8673 56.7944 56.2581 56.3105 56.2581H3.68952C3.20562 56.2581 2.8125 55.8673 2.8125 55.3862Z" fill="#F4F4F4"/>
<path d="M34.1 22.534C33.4657 22.5611 32.8374 22.6683 32.23 22.853C32.0239 22.9031 31.863 23.0641 31.8131 23.2703C31.7631 23.4764 31.8325 23.6932 31.9928 23.832C32.1532 23.9709 32.3776 24.0086 32.5745 23.9297C33.0717 23.7784 33.5855 23.6892 34.1045 23.6639L34.1 22.534Z" fill="#BFBFBF"/>
<path d="M35.2333 23.6775C35.7396 23.7235 36.2349 23.8523 36.6993 24.0589C36.9844 24.1881 37.3203 24.0618 37.4496 23.7767C37.5788 23.4916 37.4525 23.1557 37.1674 23.0264C36.5554 22.7551 35.9011 22.5916 35.2333 22.5431V23.6775Z" fill="#BFBFBF"/>
<path d="M22.7667 42.339C22.4581 42.3333 22.2024 42.577 22.1932 42.8854C22.1841 43.1939 22.4249 43.4524 22.7332 43.465H22.7667V42.339Z" fill="#BFBFBF"/>
<path fill-rule="evenodd" clip-rule="evenodd" d="M46 20.5133C46.002 19.7703 45.5194 19.1128 44.81 18.892L34.8367 15.7419C34.8251 15.7385 34.8135 15.7368 34.8022 15.735C34.7947 15.7339 34.7872 15.7327 34.78 15.7312L34.75 15.7255C34.6743 15.7144 34.5972 15.7188 34.5233 15.7385H34.5063L23.3373 19.0898L14.21 16.2077C13.6937 16.0453 13.1309 16.1385 12.6945 16.4587C12.258 16.7789 12.0002 17.2877 12 17.829V44.9185C11.9968 45.6625 12.4796 46.3214 13.19 46.5425L23.1634 49.6926C23.2719 49.726 23.388 49.726 23.4965 49.6926L34.6633 46.3425L43.7866 49.2246C43.9537 49.2777 44.128 49.3048 44.3034 49.305C45.2395 49.3004 45.9965 48.5412 45.9983 47.605L46 20.5133ZM13.1333 44.9185V17.829C13.1333 17.516 13.3871 17.2623 13.7 17.2623C13.7586 17.2625 13.8169 17.2715 13.8728 17.2889L22.7667 20.0979V42.339V43.465V48.3757L13.53 45.4591C13.2939 45.3848 13.1333 45.1659 13.1333 44.9185ZM23.9 48.3876V43.4576V42.3163V20.1041L34.1 17.0441V22.534L34.1045 23.6639V45.3276L23.9 48.3876ZM44.6349 48.0601C44.4895 48.1678 44.3011 48.1988 44.1289 48.1434L35.2333 45.3338V23.6775V22.5431V17.0555L44.47 19.9727C44.7061 20.0469 44.8667 20.2658 44.8667 20.5133V47.6028C44.8675 47.7836 44.7812 47.9538 44.6349 48.0601Z" fill="#BFBFBF"/>
<path d="M23.9 43.4576C24.1243 43.4411 24.3477 43.4133 24.5692 43.3743C24.7684 43.3377 24.9328 43.1976 25.0006 43.0068C25.0684 42.8161 25.0293 42.6036 24.8981 42.4495C24.7668 42.2954 24.5632 42.223 24.3641 42.2597C24.2168 42.2869 24.0598 42.3044 23.9 42.3163V43.4576Z" fill="#BFBFBF"/>
<path d="M23.9 43.4576V48.3876L34.1045 45.3276V23.6639C33.5855 23.6892 33.0717 23.7784 32.5745 23.9297C32.3776 24.0086 32.1532 23.9709 31.9928 23.832C31.8325 23.6932 31.7631 23.4764 31.8131 23.2703C31.863 23.0641 32.0239 22.9031 32.23 22.853C32.8374 22.6683 33.4657 22.5611 34.1 22.534V17.0441L23.9 20.1041V42.3163C24.0598 42.3044 24.2168 42.2869 24.3641 42.2597C24.5632 42.223 24.7668 42.2954 24.8981 42.4495C25.0293 42.6036 25.0684 42.8161 25.0006 43.0068C24.9328 43.1976 24.7684 43.3377 24.5692 43.3743C24.3477 43.4133 24.1243 43.4411 23.9 43.4576Z" fill="#E8E8E8"/>
<path d="M42.9998 36.2818C42.7785 36.0606 42.4198 36.0606 42.1985 36.2818L40.3325 38.1479L38.4665 36.2818C38.2441 36.0671 37.8907 36.0701 37.6721 36.2887C37.4535 36.5073 37.4504 36.8607 37.6652 37.0831L39.5312 38.9491L37.6652 40.8152C37.5179 40.9574 37.4588 41.1681 37.5107 41.3662C37.5625 41.5644 37.7173 41.7191 37.9154 41.7709C38.1135 41.8228 38.3242 41.7637 38.4665 41.6164L40.3325 39.7504L42.1985 41.6164C42.4209 41.8312 42.7743 41.8281 42.9929 41.6095C43.2115 41.3909 43.2146 41.0375 42.9998 40.8152L41.1338 38.9491L42.9998 37.0831C43.221 36.8618 43.221 36.5031 42.9998 36.2818Z" fill="#EACB14"/>
<path d="M17.6573 33.8491H17.6613C17.9727 33.8491 18.2258 33.5978 18.2279 33.2864V33.1226C18.2342 32.7973 18.2342 32.4715 18.2342 32.1491C18.2342 31.8361 17.9805 31.5824 17.6675 31.5824C17.3545 31.5824 17.1008 31.8361 17.1008 32.1491C17.1008 32.4687 17.1008 32.7911 17.0957 33.1124V33.2767C17.0942 33.4271 17.1526 33.5719 17.2579 33.6793C17.3632 33.7866 17.5069 33.8477 17.6573 33.8491Z" fill="#989898"/>
<path d="M17.7452 37.2491C17.8952 37.2395 18.0353 37.1707 18.1345 37.0578C18.2338 36.945 18.2841 36.7973 18.2745 36.6473C18.2513 36.2835 18.2371 35.9107 18.2292 35.5384C18.2226 35.2254 17.9636 34.977 17.6506 34.9836C17.3376 34.9902 17.0893 35.2492 17.0958 35.5622C17.1049 35.9543 17.1191 36.3408 17.1434 36.7199C17.1626 37.0186 17.4108 37.2509 17.7101 37.2503C17.7226 37.2491 17.7328 37.2491 17.7452 37.2491Z" fill="#989898"/>
<path d="M18.5753 38.8166C18.5344 38.6131 18.3855 38.4482 18.1872 38.3869C17.9889 38.3256 17.7729 38.3776 17.6243 38.5225C17.4756 38.6674 17.4181 38.8819 17.4743 39.0818C17.5722 39.4999 17.7049 39.9091 17.871 40.3052C17.9462 40.4977 18.1203 40.634 18.3253 40.6608C18.5303 40.6876 18.7336 40.6006 18.8558 40.4339C18.978 40.2672 18.9997 40.0472 18.9125 39.8598C18.7719 39.5218 18.6592 39.1729 18.5753 38.8166Z" fill="#989898"/>
<path d="M20.7469 41.8511C20.4692 41.718 20.2097 41.5501 19.9745 41.3513C19.7364 41.1479 19.3784 41.176 19.175 41.4142C18.9715 41.6524 18.9997 42.0103 19.2379 42.2138C19.5465 42.4754 19.8874 42.6965 20.2522 42.8717C20.5321 42.9974 20.8612 42.8776 20.9947 42.6014C21.1282 42.3252 21.0176 41.9928 20.7452 41.8517L20.7469 41.8511Z" fill="#989898"/>
<path d="M26.8468 40.7466C26.6799 40.9685 26.4912 41.1731 26.2835 41.3574C26.1212 41.4881 26.0438 41.6973 26.0818 41.9022C26.1198 42.107 26.2672 42.2745 26.4655 42.3382C26.6639 42.402 26.8812 42.3518 27.0315 42.2074C27.2972 41.973 27.5383 41.7121 27.7512 41.4288C27.8731 41.2669 27.8994 41.0521 27.8202 40.8655C27.7409 40.6789 27.5681 40.5488 27.3668 40.5241C27.1656 40.4995 26.9665 40.584 26.8445 40.746L26.8468 40.7466Z" fill="#989898"/>
<path d="M28.7397 37.2605C28.4328 37.199 28.1342 37.3979 28.0727 37.7048C28.0006 38.0679 27.9104 38.4273 27.8024 38.7814C27.7429 38.975 27.7911 39.1856 27.929 39.3339C28.0668 39.4822 28.2733 39.5457 28.4707 39.5005C28.6681 39.4552 28.8263 39.3082 28.8859 39.1146C29.0053 38.7233 29.1048 38.3261 29.1839 37.9246C29.2437 37.6187 29.0452 37.322 28.7397 37.2605Z" fill="#989898"/>
<path d="M29.0037 33.8492H28.9833C28.6779 33.849 28.4273 34.0908 28.4166 34.396C28.403 34.766 28.3843 35.1372 28.3571 35.5078C28.3457 35.6581 28.3947 35.8067 28.4931 35.9208C28.5916 36.035 28.7315 36.1051 28.8818 36.1158H28.9238C29.2212 36.1166 29.4687 35.8873 29.4904 35.5906C29.5188 35.2064 29.5386 34.8199 29.5522 34.4357C29.5575 34.2851 29.5027 34.1386 29.3997 34.0285C29.2968 33.9184 29.1543 33.8539 29.0037 33.8492Z" fill="#989898"/>
<path d="M29.011 32.7157H29.0139C29.1643 32.715 29.3082 32.6545 29.4139 32.5475C29.5197 32.4406 29.5786 32.296 29.5777 32.1456L29.5692 31.0123C29.5673 30.6998 29.3128 30.4478 29.0003 30.449C28.8494 30.449 28.7047 30.5092 28.5984 30.6162C28.492 30.7232 28.4327 30.8682 28.4336 31.0191L28.4421 32.1524C28.444 32.465 28.6985 32.717 29.011 32.7157Z" fill="#989898"/>
<path d="M29.0183 29.3157H29.0654C29.361 29.3167 29.6078 29.0902 29.632 28.7955C29.6638 28.4113 29.7091 28.0469 29.7669 27.712C29.8201 27.4036 29.6132 27.1104 29.3048 27.0572C28.9963 27.004 28.7032 27.2109 28.65 27.5193C28.5865 27.8871 28.5367 28.2849 28.5021 28.7025C28.4892 28.8523 28.5364 29.0011 28.6332 29.1161C28.73 29.231 28.8685 29.3029 29.0183 29.3157Z" fill="#989898"/>
<path d="M29.6802 25.8416C29.765 25.8903 29.8612 25.9159 29.959 25.9158C30.1635 25.9162 30.3523 25.8064 30.4531 25.6285C30.6267 25.3199 30.8435 25.0377 31.0969 24.7904C31.2433 24.6499 31.3034 24.4418 31.2545 24.2448C31.2055 24.0479 31.055 23.8921 30.8598 23.8365C30.6646 23.7809 30.4546 23.8339 30.3092 23.9755C29.9782 24.298 29.6952 24.6663 29.4688 25.0692C29.3142 25.3409 29.4088 25.6865 29.6802 25.8416Z" fill="#989898"/>
<path d="M38.8614 26.1833C39.0091 26.4594 39.3526 26.5634 39.6286 26.4157C39.9047 26.268 40.0087 25.9244 39.861 25.6484C39.6254 25.2047 39.3402 24.7891 39.011 24.4097C38.8046 24.1759 38.4481 24.1529 38.2133 24.358C37.9785 24.5632 37.9536 24.9195 38.1576 25.1554C38.4302 25.4704 38.6663 25.8152 38.8614 26.1833Z" fill="#989898"/>
<path d="M39.6899 28.8268C39.739 29.1766 39.7645 29.5293 39.7664 29.8825C39.7664 30.1955 40.0201 30.4492 40.3331 30.4492C40.646 30.4492 40.8997 30.1955 40.8997 29.8825C40.8982 29.4773 40.869 29.0727 40.8125 28.6715C40.7869 28.4691 40.6545 28.296 40.4658 28.2184C40.277 28.1408 40.0612 28.1707 39.9006 28.2966C39.74 28.4225 39.6596 28.625 39.6899 28.8268Z" fill="#989898"/>
<path d="M40.3342 33.8491C40.6472 33.8491 40.9009 33.5954 40.9009 33.2824V32.1491C40.9009 31.8361 40.6472 31.5824 40.3342 31.5824C40.0213 31.5824 39.7676 31.8361 39.7676 32.1491V33.2824C39.7676 33.5954 40.0213 33.8491 40.3342 33.8491Z" fill="#989898"/>
<path d="M40.3342 34.9824C40.0213 34.9824 39.7676 35.2361 39.7676 35.5491V36.1158C39.7676 36.4287 40.0213 36.6824 40.3342 36.6824C40.6472 36.6824 40.9009 36.4287 40.9009 36.1158V35.5491C40.9009 35.2361 40.6472 34.9824 40.3342 34.9824Z" fill="#989898"/>
<path d="M17.3134 30.325C17.5204 30.4908 17.8147 30.4908 18.0217 30.325C18.1458 30.2253 21.0676 27.8526 21.0676 24.7824C21.0676 22.9047 19.5453 21.3824 17.6676 21.3824C15.7898 21.3824 14.2676 22.9047 14.2676 24.7824C14.2676 27.8526 17.1893 30.2253 17.3134 30.325ZM17.6676 22.5158C18.9194 22.5158 19.9342 23.5306 19.9342 24.7824C19.9342 26.7312 18.3838 28.438 17.6676 29.122C16.9513 28.438 15.4009 26.7312 15.4009 24.7824C15.4009 23.5306 16.4157 22.5158 17.6676 22.5158Z" fill="#EACB14"/>
<path d="M17.6676 22.5158C18.9194 22.5158 19.9342 23.5306 19.9342 24.7824C19.9342 26.7312 18.3838 28.438 17.6676 29.122C16.9513 28.438 15.4009 26.7312 15.4009 24.7824C15.4009 23.5306 16.4157 22.5158 17.6676 22.5158Z" fill="#EACB14"/>
<path d="M17.6641 26.2764C18.5259 26.2764 19.2246 25.5777 19.2246 24.7159C19.2246 23.854 18.5259 23.1553 17.6641 23.1553C16.8022 23.1553 16.1035 23.854 16.1035 24.7159C16.1035 25.5777 16.8022 26.2764 17.6641 26.2764Z" fill="#F5F5F5"/>
</svg>
