<svg width="60" height="60" viewBox="0 0 60 60" fill="none" xmlns="http://www.w3.org/2000/svg">
<g clip-path="url(#clip0_2146_17296)">
<path d="M0 53.2903V2.96774C0 2.43378 0.433783 2 0.967742 2H59.0323C59.5662 2 60 2.43378 60 2.96774V53.2903C60 53.8243 59.5662 54.2581 59.0323 54.2581H0.967742C0.433783 54.2581 0 53.8243 0 53.2903Z" fill="#F4F4F4"/>
<path d="M57.8356 50H15.218V46.8417L10.5317 43.7101L4 6H51.4609L56.3724 9.68314H60V48.0012C60.0001 49.1051 59.0311 50 57.8356 50Z" fill="#F4F4F4"/>
<path d="M52.866 9.69238V47.7481C52.866 48.8444 51.9772 49.7332 50.8809 49.7332H53.7254C54.8217 49.7332 55.7105 48.8444 55.7105 47.7481V9.69238H52.866Z" fill="#F4F4F4"/>
<path d="M55.711 9.69242H0V4.36169C0 3.26531 0.888727 2.37659 1.98511 2.37659H53.7261C54.8224 2.37659 55.7112 3.26531 55.7112 4.36169V9.69242H55.711Z" fill="#989898"/>
<path d="M4.35133 6.94005H3.18273C2.68258 6.94005 2.27734 6.5347 2.27734 6.03466C2.27734 5.53462 2.6827 5.12927 3.18273 5.12927H4.35133C4.85148 5.12927 5.25672 5.53462 5.25672 6.03466C5.25672 6.5347 4.85148 6.94005 4.35133 6.94005Z" fill="#FBF2FF"/>
<path d="M9.3591 6.94005H8.1905C7.69035 6.94005 7.28511 6.5347 7.28511 6.03466C7.28511 5.53462 7.69046 5.12927 8.1905 5.12927H9.3591C9.85925 5.12927 10.2645 5.53462 10.2645 6.03466C10.2645 6.5347 9.85913 6.94005 9.3591 6.94005Z" fill="#FBF2FF"/>
<path d="M14.3667 6.94005H13.1983C12.6981 6.94005 12.2929 6.5347 12.2929 6.03466C12.2929 5.53462 12.6982 5.12927 13.1983 5.12927H14.3667C14.8669 5.12927 15.2721 5.53462 15.2721 6.03466C15.2721 6.5347 14.8669 6.94005 14.3667 6.94005Z" fill="#FBF2FF"/>
<path d="M20.6875 14.5625H22.5625C22.8111 14.5625 23.0496 14.6613 23.2254 14.8371C23.4012 15.0129 23.5 15.2514 23.5 15.5H25.375C25.375 14.7541 25.0787 14.0387 24.5512 13.5113C24.0238 12.9838 23.3084 12.6875 22.5625 12.6875H20.6875C19.9416 12.6875 19.2262 12.9838 18.6988 13.5113C18.1713 14.0387 17.875 14.7541 17.875 15.5V19.25C17.875 19.9959 18.1713 20.7113 18.6988 21.2387C19.2262 21.7662 19.9416 22.0625 20.6875 22.0625H22.5625C23.3084 22.0625 24.0238 21.7662 24.5512 21.2387C25.0787 20.7113 25.375 19.9959 25.375 19.25H23.5C23.5 19.4986 23.4012 19.7371 23.2254 19.9129C23.0496 20.0887 22.8111 20.1875 22.5625 20.1875H20.6875C20.4389 20.1875 20.2004 20.0887 20.0246 19.9129C19.8488 19.7371 19.75 19.4986 19.75 19.25V15.5C19.75 15.2514 19.8488 15.0129 20.0246 14.8371C20.2004 14.6613 20.4389 14.5625 20.6875 14.5625Z" fill="#626262"/>
<path d="M33.8125 15.5C33.8125 14.7541 33.5162 14.0387 32.9887 13.5113C32.4613 12.9838 31.7459 12.6875 31 12.6875H27.25C27.0014 12.6875 26.7629 12.7863 26.5871 12.9621C26.4113 13.1379 26.3125 13.3764 26.3125 13.625V22.0625H28.1875V18.3125H29.7813L30.0175 18.47C30.6088 18.8643 31.0934 19.3985 31.4284 20.0253C31.7634 20.652 31.9382 21.3518 31.9375 22.0625H33.8125C33.8124 20.564 33.2677 19.1166 32.2797 17.99C32.7395 17.7561 33.1259 17.3999 33.3963 16.9606C33.6668 16.5213 33.8108 16.0159 33.8125 15.5ZM28.1875 14.5625H31C31.2486 14.5625 31.4871 14.6613 31.6629 14.8371C31.8387 15.0129 31.9375 15.2514 31.9375 15.5C31.9375 15.7486 31.8387 15.9871 31.6629 16.1629C31.4871 16.3387 31.2486 16.4375 31 16.4375H28.1875V14.5625Z" fill="#626262"/>
<path d="M43.4032 12.7119C43.1974 12.6633 42.9813 12.6856 42.7898 12.7753C42.5984 12.865 42.4428 13.0168 42.3485 13.206L39.4376 19.0288L36.5313 13.206C36.4384 13.0142 36.283 12.8597 36.0906 12.7681C35.8982 12.6764 35.6803 12.6531 35.4728 12.7019C35.2653 12.7507 35.0807 12.8688 34.9493 13.0366C34.8179 13.2044 34.7477 13.4119 34.7501 13.625V22.0625H36.6251V17.5963L38.5938 21.5441C38.6804 21.6894 38.8033 21.8097 38.9504 21.8933C39.0975 21.9768 39.2637 22.0207 39.4329 22.0207C39.602 22.0207 39.7683 21.9768 39.9154 21.8933C40.0624 21.8097 40.1853 21.6894 40.2719 21.5441L42.2501 17.5963V22.0625H44.1251V13.625C44.1252 13.4138 44.054 13.2086 43.923 13.0429C43.792 12.8771 43.6088 12.7605 43.4032 12.7119Z" fill="#626262"/>
<path d="M58.2479 42.2687L59.3629 42.939C59.7567 43.1758 59.9978 43.6018 59.9978 44.0614V46.5939C60.0585 47.847 58.3144 47.987 57.7885 48.8541L55.3187 53.1321C54.8309 54.0208 55.5815 55.6017 54.466 56.1755L52.2728 57.4418C51.2179 58.121 50.2246 56.6805 49.2107 56.6586H44.271C43.2574 56.6804 42.2637 58.1211 41.209 57.4418L39.0158 56.1755C37.9002 55.6014 38.651 54.0211 38.163 53.1321L35.6933 48.8541C35.1676 47.9872 33.423 47.8469 33.484 46.5939V44.0614C33.4233 42.8082 35.1673 42.6683 35.6933 41.8011L38.163 37.5232C38.6509 36.6345 37.9003 35.0535 39.0158 34.4798L41.209 33.2135C42.2639 32.5343 43.2572 33.9747 44.271 33.9967H49.2107C50.2244 33.9749 51.2181 32.5342 52.2728 33.2135L54.466 34.4798C55.5816 35.0539 54.8308 36.6341 55.3187 37.5232L57.7885 41.8011C57.8995 41.9934 58.0577 42.1543 58.2479 42.2687Z" fill="#EACB14"/>
<path d="M59.363 42.9389C58.9883 42.677 57.9898 42.2382 57.7887 41.8011L55.3189 37.5231C54.8311 36.6344 55.5817 35.0535 54.4661 34.4797L52.2729 33.2134C51.6081 32.77 50.8289 33.2654 50.2461 33.6106L51.7513 34.4796C52.867 35.0537 52.1161 36.6339 52.6041 37.523L55.0739 41.801C55.5996 42.6679 57.3441 42.8082 57.2831 44.0612V46.5937C57.3438 47.8469 55.5998 47.9868 55.0739 48.8539L52.6041 53.1319C52.3266 53.5195 52.4448 54.6144 52.4059 55.0643C52.4871 56.0902 50.9035 56.59 50.2461 57.0443C50.8298 57.3899 51.6074 57.8846 52.2729 57.4415L54.4661 56.1752C55.5817 55.6011 54.8309 54.0208 55.3189 53.1318L57.7887 48.8538C58.3144 47.9869 60.0589 47.8465 59.998 46.5936V44.0613C59.998 43.6017 59.757 43.1758 59.363 42.9389Z" fill="#EACB14"/>
<path d="M46.7406 52.8104C50.8733 52.8104 54.2235 49.4602 54.2235 45.3275C54.2235 41.1949 50.8733 37.8447 46.7406 37.8447C42.608 37.8447 39.2578 41.1949 39.2578 45.3275C39.2578 49.4602 42.608 52.8104 46.7406 52.8104Z" fill="#F4F4F4"/>
<path d="M46.7421 37.8447C46.2783 37.8447 45.8251 37.8891 45.3848 37.9699C48.869 38.6088 51.5102 41.6587 51.5102 45.3275C51.5102 48.9964 48.869 52.0464 45.3848 52.6852C45.8251 52.7659 46.2784 52.8104 46.7421 52.8104C50.8747 52.8104 54.2249 49.4602 54.2249 45.3275C54.2249 41.1949 50.8747 37.8447 46.7421 37.8447Z" fill="#F4F4F4"/>
<path d="M15 54H2.03389C0.910568 54 0 53.0012 0 51.769V9H15V54Z" fill="#BFBFBF"/>
<path d="M0 9.74193V2.96774C0 2.43378 0.433783 2 0.967742 2H59.0323C59.5662 2 60 2.43378 60 2.96774V9.74193H0Z" fill="#989898"/>
<path d="M49.3555 5H55.1619V6.93548H49.3555V5Z" fill="#FBF2FF"/>
<path d="M4.83789 5H6.77337V6.93548H4.83789V5Z" fill="#FBF2FF"/>
<path d="M8.70886 5H10.6443V6.93548H8.70886V5Z" fill="#FBF2FF"/>
<path d="M12.5801 5H14.5156V6.93548H12.5801V5Z" fill="#FBF2FF"/>
<path d="M9.5124 16.1578H5.12607C4.62593 16.1578 4.2207 15.7524 4.2207 15.2524C4.2207 14.7523 4.62604 14.347 5.12607 14.347H9.5124C10.0125 14.347 10.4178 14.7524 10.4178 15.2524C10.4178 15.7524 10.0124 16.1578 9.5124 16.1578Z" fill="#FBF2FF"/>
<path d="M9.5124 21.7176H5.12607C4.62593 21.7176 4.2207 21.3123 4.2207 20.8122C4.2207 20.3122 4.62604 19.9069 5.12607 19.9069H9.5124C10.0125 19.9069 10.4178 20.3122 10.4178 20.8122C10.4178 21.3123 10.0124 21.7176 9.5124 21.7176Z" fill="#FBF2FF"/>
<path d="M9.5124 27.2777H5.12607C4.62593 27.2777 4.2207 26.8723 4.2207 26.3723C4.2207 25.8721 4.62604 25.4669 5.12607 25.4669H9.5124C10.0125 25.4669 10.4178 25.8723 10.4178 26.3723C10.4178 26.8723 10.0124 27.2777 9.5124 27.2777Z" fill="#FBF2FF"/>
<path d="M9.5124 32.8376H5.12607C4.62593 32.8376 4.2207 32.4323 4.2207 31.9322C4.2207 31.4322 4.62604 31.0269 5.12607 31.0269H9.5124C10.0125 31.0269 10.4178 31.4322 10.4178 31.9322C10.4178 32.4323 10.0124 32.8376 9.5124 32.8376Z" fill="#FBF2FF"/>
<path d="M9.5124 38.3974H5.12607C4.62593 38.3974 4.2207 37.9921 4.2207 37.492C4.2207 36.9919 4.62604 36.5867 5.12607 36.5867H9.5124C10.0125 36.5867 10.4178 36.992 10.4178 37.492C10.4178 37.9922 10.0124 38.3974 9.5124 38.3974Z" fill="#FBF2FF"/>
</g>
<defs>
<clipPath id="clip0_2146_17296">
<rect width="60" height="60" fill="white"/>
</clipPath>
</defs>
</svg>
