<svg width="60" height="60" viewBox="0 0 60 60" fill="none" xmlns="http://www.w3.org/2000/svg">
<path d="M0 55.1613V4.83871C0 4.30475 0.433783 3.87097 0.967742 3.87097H59.0323C59.5662 3.87097 60 4.30475 60 4.83871V55.1613C60 55.6953 59.5662 56.129 59.0323 56.129H0.967742C0.433783 56.129 0 55.6953 0 55.1613Z" fill="#F4F4F4"/>
<path d="M0 11.6129V4.83871C0 4.30475 0.433783 3.87097 0.967742 3.87097H59.0323C59.5662 3.87097 60 4.30475 60 4.83871V11.6129H0Z" fill="#989898"/>
<path d="M49.3555 6.77417H55.1619V8.70965H49.3555V6.77417Z" fill="#FBF2FF"/>
<path d="M4.83789 6.77417H6.77337V8.70965H4.83789V6.77417Z" fill="#FBF2FF"/>
<path d="M8.70898 6.77417H10.6445V8.70965H8.70898V6.77417Z" fill="#FBF2FF"/>
<path d="M12.5801 6.77417H14.5156V8.70965H12.5801V6.77417Z" fill="#FBF2FF"/>
<path d="M12.582 32.9033C12.582 38.2065 14.9598 42.9474 18.698 46.1422L22.1309 42.7093C19.2612 40.4033 17.4207 36.8712 17.4207 32.9033C17.4207 29.4387 18.8223 26.3035 21.0866 24.0283L17.6721 20.5986C14.527 23.7495 12.582 28.0996 12.582 32.9033Z" fill="#4C8BF5"/>
<path d="M29.9997 15.4839C25.1832 15.4839 20.8246 17.4387 17.6719 20.5986L21.0859 24.0282C23.364 21.7392 26.5158 20.3226 29.9997 20.3226C33.4846 20.3226 36.6383 21.7402 38.9164 24.0301L42.3318 20.6014C39.1777 17.4406 34.8172 15.4839 29.9997 15.4839Z" fill="#3B81F7"/>
<path d="M38.918 24.0302C41.1819 26.3055 42.582 29.4407 42.582 32.9034C42.582 36.6236 40.9569 39.9564 38.3906 42.2605L41.8127 45.6825C45.2527 42.4996 47.4207 37.96 47.4207 32.9034C47.4207 28.1006 45.4767 23.7524 42.3325 20.6016L38.918 24.0302Z" fill="#DE2A26"/>
<path d="M28.8937 36.9939L27.0977 34.8387L30.0009 25.1613L32.9041 34.8387L31.3334 37.1059L28.8937 36.9939Z" fill="#858585"/>
<path d="M32.9041 39.6774C32.9041 41.2807 31.6042 42.5806 30.0009 42.5806C28.3976 42.5806 27.0977 41.2807 27.0977 39.6774C27.0977 38.0741 28.3976 36.7742 30.0009 36.7742C31.6042 36.7742 32.9041 38.0741 32.9041 39.6774Z" fill="#858585"/>
</svg>
