<svg width="60" height="60" viewBox="0 0 60 60" fill="none" xmlns="http://www.w3.org/2000/svg">
<path d="M5.625 54.375V21.5625C5.625 20.5679 6.02009 19.6141 6.72335 18.9109C7.42661 18.2076 8.38044 17.8125 9.375 17.8125H50.625C51.6196 17.8125 52.5734 18.2076 53.2766 18.9109C53.9799 19.6141 54.375 20.5679 54.375 21.5625V54.375H5.625Z" fill="#BFBFBF"/>
<path d="M9.375 21.5625H50.625V52.5H9.375V21.5625Z" fill="#F5F5F5"/>
<path d="M58.6953 57.8387H1.30466L0 56.2061V53H20.0759L22.766 53.9677H37.1536L39.6803 53H60V56.629L58.6953 57.8387Z" fill="#BFBFBF"/>
<path d="M46.5 41.5L46.5 12.25C46.5 10.4551 45.0449 9 43.25 9L17.25 9C15.4551 9 14 10.4551 14 12.25L14 41.5C14 43.2949 15.4551 44.75 17.25 44.75L43.25 44.75C45.0449 44.75 46.5 43.2949 46.5 41.5Z" fill="#B30053"/>
<path d="M41.625 30.125V31.75L18.875 31.75V30.125L41.625 30.125Z" fill="#FBF2FF"/>
<path d="M41.625 38.25V39.875H18.875V38.25H41.625Z" fill="#FBF2FF"/>
<path d="M41.625 13.875V15.5L18.875 15.5V13.875L41.625 13.875Z" fill="#FBF2FF"/>
<path d="M44.0625 11.4375V13.0625H42.4375V11.4375H44.0625Z" fill="#FBF2FF"/>
<path d="M44.0625 40.6875V42.3125H42.4375V40.6875H44.0625Z" fill="#FBF2FF"/>
<path d="M18.0625 11.4375V13.0625H16.4375V11.4375H18.0625Z" fill="#FBF2FF"/>
<path d="M18.0625 40.6875V42.3125H16.4375V40.6875H18.0625Z" fill="#FBF2FF"/>
<path d="M41.625 22V23.625L18.875 23.625V22L41.625 22Z" fill="#FBF2FF"/>
<path d="M26.1875 28.5V33.375H22.9375V28.5H26.1875Z" fill="#FBF2FF"/>
<path d="M32.6875 36.625V41.5H29.4375V36.625H32.6875Z" fill="#FBF2FF"/>
<path d="M36.75 20.375V25.25H33.5V20.375H36.75Z" fill="#FBF2FF"/>
<path d="M29.4375 12.25V17.125H26.1875V12.25H29.4375Z" fill="#FBF2FF"/>
</svg>
