<svg width="60" height="60" viewBox="0 0 60 60" fill="none" xmlns="http://www.w3.org/2000/svg">
<path d="M57.0968 54.1926H2.90329C2.36933 54.1926 1.93555 53.7589 1.93555 53.2249V20.3217C1.93555 19.7877 2.36933 19.3539 2.90329 19.3539H57.0968C57.6308 19.3539 58.0646 19.7877 58.0646 20.3217V53.2249C58.0646 53.7589 57.6308 54.1926 57.0968 54.1926Z" fill="#BFBFBF"/>
<path d="M5.64648 23.2266H54.0336V49.3556H5.64648V23.2266Z" fill="#DEDEDE"/>
<path d="M58.6953 58.0653H1.30466L0 56.4327V53.2266H20.0759L22.766 54.1943H37.1536L39.6803 53.2266H60V56.8556L58.6953 58.0653Z" fill="#BFBFBF"/>
<path d="M53.2266 53.2266H55.1621V55.1621H53.2266V53.2266Z" fill="#FBF2FF"/>
<path d="M49.3555 53.2266H51.2909V55.1621H49.3555V53.2266Z" fill="#FBF2FF"/>
<path d="M4.83984 53.2266H6.77533V55.1621H4.83984V53.2266Z" fill="#FBF2FF"/>
<path d="M52.2344 7.76501V49.4121H7.76379V7.76501H52.2344Z" fill="#F5F5F5"/>
<path d="M32.5732 7.76501L33.0106 13.8039V16.303C33.0106 17.2908 32.6064 18.1923 31.9567 18.8419C31.3071 19.4915 30.4055 19.8961 29.4112 19.8961C27.4291 19.8961 25.8184 18.2852 25.8184 16.303V13.8039L26.2492 7.76501H32.5732Z" fill="#3573BC"/>
<path d="M47.3959 13.8039V16.303C47.3959 18.2852 45.785 19.8961 43.803 19.8961C41.8143 19.8961 40.2035 18.2852 40.2035 16.303V13.8039L38.9043 7.76501H45.2283L47.3959 13.8039Z" fill="#3573BC"/>
<path d="M13.5954 7.76501H19.926L18.6201 13.8039V16.303C18.6201 18.2852 17.0159 19.8961 15.0273 19.8961C13.0386 19.8961 11.4277 18.2852 11.4277 16.303V13.8039L13.5954 7.76501Z" fill="#3573BC"/>
<path d="M11.4297 13.8029V16.3003C11.4297 18.2867 13.04 19.8969 15.0265 19.8969C17.0129 19.8969 18.6233 18.2867 18.6233 16.3003V13.8029H11.4297Z" fill="#3573BC"/>
<path d="M25.8164 13.8029V16.3003C25.8164 18.2867 27.4267 19.8969 29.4131 19.8969H29.4132C31.3996 19.8969 33.0099 18.2867 33.0099 16.3003V13.8029H25.8164Z" fill="#3573BC"/>
<path d="M40.2031 13.8029V16.3003C40.2031 18.2867 41.8135 19.8969 43.7999 19.8969C45.7863 19.8969 47.3967 18.2867 47.3967 16.3003V13.8029H40.2031Z" fill="#3573BC"/>
<path d="M38.9029 7.76501L40.2021 13.8039V16.303C40.2021 18.2852 38.5914 19.8961 36.6027 19.8961C34.6207 19.8961 33.0097 18.2852 33.0097 16.303V13.8039L32.5723 7.76501H38.9029Z" fill="#BFBFBF"/>
<path d="M54.5884 13.8039V16.303C54.5884 18.2852 52.9777 19.8961 50.9956 19.8961C49.007 19.8961 47.3961 18.2852 47.3961 16.303V13.8039L45.2285 7.76501H51.5591L54.5884 13.8039Z" fill="#BFBFBF"/>
<path d="M19.925 7.76501H26.249L25.8182 13.8039V16.303C25.8182 18.2852 24.2073 19.8961 22.2187 19.8961C20.23 19.8961 18.6191 18.2852 18.6191 16.303V13.8039L19.925 7.76501Z" fill="#BFBFBF"/>
<path d="M7.27046 7.76501H13.5944L11.4267 13.8039V16.303C11.4267 18.2852 9.81586 19.8961 7.83382 19.8961C5.84515 19.8961 4.23438 18.2852 4.23438 16.303V13.8039L7.27046 7.76501Z" fill="#BFBFBF"/>
<path d="M13.5956 7.76501H7.26918L4.23438 13.8019H11.4279L13.5956 7.76501Z" fill="#BFBFBF"/>
<path d="M26.2501 7.76685H19.9237L18.623 13.8037H25.8166L26.2501 7.76685Z" fill="#BFBFBF"/>
<path d="M38.9026 7.76685H32.5762L33.0097 13.8037H40.2033L38.9026 7.76685Z" fill="#BFBFBF"/>
<path d="M51.555 7.76685H45.2285L47.3962 13.8037H54.5898L51.555 7.76685Z" fill="#BFBFBF"/>
<path d="M11.293 28.9417H25.4106V44.4711H11.293V28.9417Z" fill="#E8E8E8"/>
<path d="M24.7051 29.6466V43.7643H11.9992V29.6466H24.7051Z" fill="#3573BC"/>
<path d="M29.6465 29.6466H50.1171V31.0584H29.6465V29.6466Z" fill="#DEDEDE"/>
<path d="M29.6465 33.8834H50.1171V35.2952H29.6465V33.8834Z" fill="#DEDEDE"/>
<path d="M37.4102 38.1184H50.116V39.5302H37.4102V38.1184Z" fill="#DEDEDE"/>
<path d="M21.2954 39.1594L22.1049 38.3499L19.0586 38.1184L19.2902 41.1647L20.0995 40.3553L21.3921 41.6478L22.588 40.4519L21.2954 39.1594Z" fill="#F5F5F5"/>
</svg>
