<svg width="60" height="60" viewBox="0 0 60 60" fill="none" xmlns="http://www.w3.org/2000/svg">
<path d="M33.75 7.5V28.125H1.875V1.875H13.125L16.875 7.5H33.75Z" fill="#3573BC"/>
<path d="M16.8753 7.5H27.1878L24.3753 3.75H14.375L16.8753 7.5Z" fill="#21487D"/>
<path d="M33.75 7.5H16.875L13.125 1.875H1.875C1.875 16.3725 11.5312 28.125 23.4375 28.125H33.75V7.5Z" fill="#3573BC"/>
<path d="M36.5625 14.0625H38.4375V15.9375H36.5625V14.0625Z" fill="#BFBFBF"/>
<path d="M40.3125 14.0625H42.1875V15.9375H40.3125V14.0625Z" fill="#BFBFBF"/>
<path d="M44.0625 14.0625H45.9375V15.9375H44.0625V14.0625Z" fill="#BFBFBF"/>
<path d="M47.8125 14.0625H49.6875V15.9375H47.8125V14.0625Z" fill="#BFBFBF"/>
<path d="M47.8125 17.8125H49.6875V19.6875H47.8125V17.8125Z" fill="#BFBFBF"/>
<path d="M47.8125 21.5625H49.6875V23.4375H47.8125V21.5625Z" fill="#BFBFBF"/>
<path d="M47.8125 25.3125H49.6875V27.1875H47.8125V25.3125Z" fill="#BFBFBF"/>
<path d="M47.8125 29.0625H49.6875V30.9375H47.8125V29.0625Z" fill="#BFBFBF"/>
<path d="M21.5625 45.9375H23.4375V47.8125H21.5625V45.9375Z" fill="#BFBFBF"/>
<path d="M17.8125 45.9375H19.6875V47.8125H17.8125V45.9375Z" fill="#BFBFBF"/>
<path d="M14.0625 45.9375H15.9375V47.8125H14.0625V45.9375Z" fill="#BFBFBF"/>
<path d="M10.3125 45.9375H12.1875V47.8125H10.3125V45.9375Z" fill="#BFBFBF"/>
<path d="M10.3125 42.1875H12.1875V44.0625H10.3125V42.1875Z" fill="#BFBFBF"/>
<path d="M10.3125 38.4375H12.1875V40.3125H10.3125V38.4375Z" fill="#BFBFBF"/>
<path d="M10.3125 34.6875H12.1875V36.5625H10.3125V34.6875Z" fill="#BFBFBF"/>
<path d="M10.3125 30.9375H12.1875V32.8125H10.3125V30.9375Z" fill="#BFBFBF"/>
<path d="M58.125 37.5V58.125H26.25V31.875H37.5L41.25 37.5H58.125Z" fill="#3573BC"/>
<path d="M41.2503 37.5H51.5628L48.7503 33.75H38.75L41.2503 37.5Z" fill="#21487D"/>
<path d="M58.125 37.5H41.25L37.5 31.875H26.25C26.25 46.3725 35.9062 58.125 47.8125 58.125H58.125V37.5Z" fill="#3573BC"/>
</svg>
