<svg width="45" height="34" viewBox="0 0 45 34" fill="none" xmlns="http://www.w3.org/2000/svg">
<path fill-rule="evenodd" clip-rule="evenodd" d="M11.2734 2.97829C11.2734 2.27333 11.8449 1.70184 12.5499 1.70184H15.9537C16.6587 1.70184 17.2302 2.27333 17.2302 2.97829C17.2302 3.68324 16.6587 4.25473 15.9537 4.25473H12.5499C11.8449 4.25473 11.2734 3.68324 11.2734 2.97829Z" fill="#B30053"/>
<path fill-rule="evenodd" clip-rule="evenodd" d="M18.0801 9.78609C18.0801 9.08113 18.6516 8.50964 19.3565 8.50964H22.7604C23.4653 8.50964 24.0368 9.08113 24.0368 9.78609C24.0368 10.491 23.4653 11.0625 22.7604 11.0625H19.3565C18.6516 11.0625 18.0801 10.491 18.0801 9.78609Z" fill="#B30053"/>
<path fill-rule="evenodd" clip-rule="evenodd" d="M21.0596 0C21.7646 0 22.3361 0.571489 22.3361 1.27644V4.68029C22.3361 5.38524 21.7646 5.95673 21.0596 5.95673C20.3547 5.95673 19.7832 5.38524 19.7832 4.68029V1.27644C19.7832 0.571489 20.3547 0 21.0596 0Z" fill="#B30053"/>
<path fill-rule="evenodd" clip-rule="evenodd" d="M14.2511 6.80762C14.956 6.80762 15.5275 7.37911 15.5275 8.08406V11.4879C15.5275 12.1929 14.956 12.7643 14.2511 12.7643C13.5461 12.7643 12.9746 12.1929 12.9746 11.4879V8.08406C12.9746 7.37911 13.5461 6.80762 14.2511 6.80762Z" fill="#B30053"/>
<path fill-rule="evenodd" clip-rule="evenodd" d="M24.8906 2.97835C24.8906 2.27339 25.4621 1.7019 26.1671 1.7019H29.5709C30.2759 1.7019 30.8474 2.27339 30.8474 2.97835C30.8474 3.6833 30.2759 4.25479 29.5709 4.25479H26.1671C25.4621 4.25479 24.8906 3.6833 24.8906 2.97835Z" fill="#B30053"/>
<path fill-rule="evenodd" clip-rule="evenodd" d="M31.6973 9.78609C31.6973 9.08113 32.2688 8.50964 32.9737 8.50964H36.3776C37.0825 8.50964 37.654 9.08113 37.654 9.78609C37.654 10.491 37.0825 11.0625 36.3776 11.0625H32.9737C32.2688 11.0625 31.6973 10.491 31.6973 9.78609Z" fill="#B30053"/>
<path fill-rule="evenodd" clip-rule="evenodd" d="M34.6749 0C35.3798 0 35.9513 0.571489 35.9513 1.27644V4.68029C35.9513 5.38524 35.3798 5.95673 34.6749 5.95673C33.9699 5.95673 33.3984 5.38524 33.3984 4.68029V1.27644C33.3984 0.571489 33.9699 0 34.6749 0Z" fill="#B30053"/>
<path fill-rule="evenodd" clip-rule="evenodd" d="M27.8663 6.80762C28.5712 6.80762 29.1427 7.37911 29.1427 8.08406V11.4879C29.1427 12.1929 28.5712 12.7643 27.8663 12.7643C27.1613 12.7643 26.5898 12.1929 26.5898 11.4879V8.08406C26.5898 7.37911 27.1613 6.80762 27.8663 6.80762Z" fill="#B30053"/>
<path fill-rule="evenodd" clip-rule="evenodd" d="M38.5039 2.97835C38.5039 2.27339 39.0754 1.7019 39.7803 1.7019H43.1842C43.8891 1.7019 44.4606 2.27339 44.4606 2.97835C44.4606 3.6833 43.8891 4.25479 43.1842 4.25479H39.7803C39.0754 4.25479 38.5039 3.6833 38.5039 2.97835Z" fill="#B30053"/>
<path fill-rule="evenodd" clip-rule="evenodd" d="M41.4835 6.80762C42.1884 6.80762 42.7599 7.37911 42.7599 8.08406V11.4879C42.7599 12.1929 42.1884 12.7643 41.4835 12.7643C40.7785 12.7643 40.207 12.1929 40.207 11.4879V8.08406C40.207 7.37911 40.7785 6.80762 41.4835 6.80762Z" fill="#B30053"/>
<path fill-rule="evenodd" clip-rule="evenodd" d="M11.2734 16.5938C11.2734 15.8888 11.8449 15.3173 12.5499 15.3173H15.9537C16.6587 15.3173 17.2302 15.8888 17.2302 16.5938C17.2302 17.2987 16.6587 17.8702 15.9537 17.8702H12.5499C11.8449 17.8702 11.2734 17.2987 11.2734 16.5938Z" fill="#B30053"/>
<path fill-rule="evenodd" clip-rule="evenodd" d="M18.0801 23.4014C18.0801 22.6964 18.6516 22.1249 19.3565 22.1249H22.7604C23.4653 22.1249 24.0368 22.6964 24.0368 23.4014C24.0368 24.1063 23.4653 24.6778 22.7604 24.6778H19.3565C18.6516 24.6778 18.0801 24.1063 18.0801 23.4014Z" fill="#B30053"/>
<path fill-rule="evenodd" clip-rule="evenodd" d="M21.0596 13.6155C21.7646 13.6155 22.3361 14.187 22.3361 14.8919V18.2958C22.3361 19.0007 21.7646 19.5722 21.0596 19.5722C20.3547 19.5722 19.7832 19.0007 19.7832 18.2958V14.8919C19.7832 14.187 20.3547 13.6155 21.0596 13.6155Z" fill="#B30053"/>
<path fill-rule="evenodd" clip-rule="evenodd" d="M14.2511 20.4231C14.956 20.4231 15.5275 20.9946 15.5275 21.6995V25.1034C15.5275 25.8083 14.956 26.3798 14.2511 26.3798C13.5461 26.3798 12.9746 25.8083 12.9746 25.1034V21.6995C12.9746 20.9946 13.5461 20.4231 14.2511 20.4231Z" fill="#B30053"/>
<path fill-rule="evenodd" clip-rule="evenodd" d="M24.8906 16.5937C24.8906 15.8888 25.4621 15.3173 26.1671 15.3173H29.5709C30.2759 15.3173 30.8474 15.8888 30.8474 16.5937C30.8474 17.2986 30.2759 17.8701 29.5709 17.8701H26.1671C25.4621 17.8701 24.8906 17.2986 24.8906 16.5937Z" fill="#B30053"/>
<path fill-rule="evenodd" clip-rule="evenodd" d="M31.6973 23.4014C31.6973 22.6965 32.2688 22.125 32.9737 22.125H36.3776C37.0825 22.125 37.654 22.6965 37.654 23.4014C37.654 24.1064 37.0825 24.6779 36.3776 24.6779H32.9737C32.2688 24.6779 31.6973 24.1064 31.6973 23.4014Z" fill="#B30053"/>
<path fill-rule="evenodd" clip-rule="evenodd" d="M34.6749 13.6155C35.3798 13.6155 35.9513 14.187 35.9513 14.8919V18.2958C35.9513 19.0007 35.3798 19.5722 34.6749 19.5722C33.9699 19.5722 33.3984 19.0007 33.3984 18.2958V14.8919C33.3984 14.187 33.9699 13.6155 34.6749 13.6155Z" fill="#B30053"/>
<path fill-rule="evenodd" clip-rule="evenodd" d="M27.8663 20.4231C28.5712 20.4231 29.1427 20.9946 29.1427 21.6995V25.1034C29.1427 25.8083 28.5712 26.3798 27.8663 26.3798C27.1613 26.3798 26.5898 25.8083 26.5898 25.1034V21.6995C26.5898 20.9946 27.1613 20.4231 27.8663 20.4231Z" fill="#B30053"/>
<path fill-rule="evenodd" clip-rule="evenodd" d="M38.5039 16.5937C38.5039 15.8888 39.0754 15.3173 39.7803 15.3173H43.1842C43.8891 15.3173 44.4606 15.8888 44.4606 16.5937C44.4606 17.2986 43.8891 17.8701 43.1842 17.8701H39.7803C39.0754 17.8701 38.5039 17.2986 38.5039 16.5937Z" fill="#B30053"/>
<path fill-rule="evenodd" clip-rule="evenodd" d="M41.4835 20.4231C42.1884 20.4231 42.7599 20.9946 42.7599 21.6995V25.1034C42.7599 25.8083 42.1884 26.3798 41.4835 26.3798C40.7785 26.3798 40.207 25.8083 40.207 25.1034V21.6995C40.207 20.9946 40.7785 20.4231 41.4835 20.4231Z" fill="#B30053"/>
<path fill-rule="evenodd" clip-rule="evenodd" d="M11.2734 30.2092C11.2734 29.5042 11.8449 28.9327 12.5499 28.9327H15.9537C16.6587 28.9327 17.2302 29.5042 17.2302 30.2092C17.2302 30.9141 16.6587 31.4856 15.9537 31.4856H12.5499C11.8449 31.4856 11.2734 30.9141 11.2734 30.2092Z" fill="#B30053"/>
<path fill-rule="evenodd" clip-rule="evenodd" d="M21.0596 27.2307C21.7646 27.2307 22.3361 27.8022 22.3361 28.5072V31.911C22.3361 32.6159 21.7646 33.1874 21.0596 33.1874C20.3547 33.1874 19.7832 32.6159 19.7832 31.911V28.5072C19.7832 27.8022 20.3547 27.2307 21.0596 27.2307Z" fill="#B30053"/>
<path fill-rule="evenodd" clip-rule="evenodd" d="M24.8906 30.2092C24.8906 29.5042 25.4621 28.9327 26.1671 28.9327H29.5709C30.2759 28.9327 30.8474 29.5042 30.8474 30.2092C30.8474 30.9141 30.2759 31.4856 29.5709 31.4856H26.1671C25.4621 31.4856 24.8906 30.9141 24.8906 30.2092Z" fill="#B30053"/>
<path fill-rule="evenodd" clip-rule="evenodd" d="M34.6749 27.2307C35.3798 27.2307 35.9513 27.8022 35.9513 28.5072V31.911C35.9513 32.6159 35.3798 33.1874 34.6749 33.1874C33.9699 33.1874 33.3984 32.6159 33.3984 31.911V28.5072C33.3984 27.8022 33.9699 27.2307 34.6749 27.2307Z" fill="#B30053"/>
<path fill-rule="evenodd" clip-rule="evenodd" d="M38.5039 30.2092C38.5039 29.5042 39.0754 28.9327 39.7803 28.9327H43.1842C43.8891 28.9327 44.4606 29.5042 44.4606 30.2092C44.4606 30.9141 43.8891 31.4856 43.1842 31.4856H39.7803C39.0754 31.4856 38.5039 30.9141 38.5039 30.2092Z" fill="#B30053"/>
<path d="M14.3388 18.4927L1.64562 22.9117C1.41573 23.0034 1.25834 23.2185 1.24052 23.4654C1.22258 23.7124 1.34736 23.9478 1.56175 24.0715L4.7648 26.116L0.919773 29.961C0.798573 30.0822 0.730469 30.2467 0.730469 30.4179C0.730469 30.5894 0.798573 30.7537 0.919773 30.8749L2.79618 32.7513C3.04849 33.0035 3.45755 33.0035 3.70992 32.7512L7.55494 28.9059L9.59936 32.1092C9.72316 32.3236 9.95846 32.4483 10.2053 32.4305C10.4523 32.4127 10.6672 32.2554 10.7589 32.0254L15.1782 19.3322C15.274 19.0924 15.2176 18.8186 15.035 18.636C14.8523 18.4534 14.5786 18.3969 14.3388 18.4927Z" fill="#BFBFBF"/>
</svg>
