<svg width="60" height="60" viewBox="0 0 60 60" fill="none" xmlns="http://www.w3.org/2000/svg">
<g clip-path="url(#clip0_2146_4585)">
<path d="M30 58.125C45.533 58.125 58.125 45.533 58.125 30C58.125 14.467 45.533 1.875 30 1.875C14.467 1.875 1.875 14.467 1.875 30C1.875 45.533 14.467 58.125 30 58.125Z" fill="#F4F4F4"/>
<path d="M30 0.9375C24.252 0.9375 18.6331 2.64199 13.8538 5.83541C9.07445 9.02884 5.34944 13.5678 3.14976 18.8783C0.950092 24.1887 0.374558 30.0322 1.49594 35.6698C2.61732 41.3074 5.38526 46.4858 9.44972 50.5503C13.5142 54.6148 18.6926 57.3827 24.3302 58.5041C29.9678 59.6255 35.8113 59.0499 41.1217 56.8503C46.4322 54.6506 50.9712 50.9256 54.1646 46.1463C57.358 41.367 59.0625 35.748 59.0625 30C59.0538 22.2948 55.9891 14.9077 50.5407 9.4593C45.0923 4.01091 37.7052 0.946185 30 0.9375ZM29.0625 17.7956C25.9499 17.7262 22.8711 17.1342 19.9547 16.0444C21.5867 12.5547 23.8166 9.37749 26.5434 6.65625L29.0625 4.13812V17.7956ZM29.0625 19.6706V29.0625H16.8975C17.0008 25.1909 17.7866 21.3678 19.2188 17.7694C22.3685 18.9568 25.6972 19.5997 29.0625 19.6706ZM29.0625 30.9375V40.3294C25.6972 40.4003 22.3685 41.0433 19.2188 42.2306C17.7866 38.6322 17.0008 34.8091 16.8975 30.9375H29.0625ZM29.0625 42.2044V55.8619L26.5434 53.3438C23.8167 50.6228 21.5868 47.4459 19.9547 43.9566C22.8711 42.8665 25.9499 42.2741 29.0625 42.2044ZM30.9375 42.2044C34.0501 42.2738 37.1289 42.8658 40.0453 43.9556C38.4133 47.4453 36.1834 50.6225 33.4566 53.3438L30.9375 55.8619V42.2044ZM30.9375 40.3294V30.9375H43.1025C43.0008 34.8088 42.2165 38.6319 40.786 42.2306C37.6348 41.0427 34.3044 40.3998 30.9375 40.3294ZM30.9375 29.0625V19.6706C34.3044 19.6002 37.6348 18.9573 40.786 17.7694C42.2165 21.3681 43.0008 25.1912 43.1025 29.0625H30.9375ZM30.9375 17.7956V4.13812L33.4566 6.65625C36.1834 9.37721 38.4132 12.5541 40.0453 16.0434C37.129 17.1335 34.0502 17.7259 30.9375 17.7956ZM34.7813 5.33156L32.3719 2.92219C38.6311 3.46898 44.5059 6.17311 48.9919 10.5722C46.8499 12.5238 44.4158 14.1282 41.7778 15.3272C40.0509 11.6102 37.6825 8.22661 34.7813 5.33156ZM25.2188 5.33156C22.3176 8.22661 19.9492 11.6102 18.2222 15.3272C15.5842 14.1282 13.1501 12.5238 11.0081 10.5722C15.4941 6.17311 21.369 3.46898 27.6281 2.92219L25.2188 5.33156ZM17.4816 17.0503C15.9573 20.8772 15.1247 24.9444 15.0225 29.0625H2.83501C3.04825 22.7217 5.48174 16.6572 9.71064 11.9278C12.0148 14.0337 14.6371 15.7625 17.4806 17.0503H17.4816ZM15.0225 30.9375C15.1244 35.0555 15.9567 39.1227 17.4806 42.9497C14.6375 44.2376 12.0155 45.9664 9.71158 48.0722C5.48268 43.3428 3.04919 37.2783 2.83595 30.9375H15.0225ZM18.2213 44.6728C19.9485 48.3899 22.3172 51.7735 25.2188 54.6684L27.6281 57.0778C21.369 56.531 15.4941 53.8269 11.0081 49.4278C13.1498 47.4763 15.5836 45.8719 18.2213 44.6728ZM34.7813 54.6684C37.6825 51.7734 40.0509 48.3898 41.7778 44.6728C44.4179 45.8738 46.8536 47.4808 48.9966 49.4353C44.518 53.8503 38.6332 56.5554 32.3663 57.0797L34.7813 54.6684ZM42.5185 42.9497C44.0427 39.1228 44.8754 35.0556 44.9775 30.9375H57.165C56.9589 37.2809 54.5276 43.3496 50.2969 48.0806C47.991 45.9712 45.3661 44.2395 42.5194 42.9497H42.5185ZM44.9775 29.0625C44.8757 24.9445 44.0434 20.8773 42.5194 17.0503C45.3626 15.7624 47.9845 14.0336 50.2885 11.9278C54.5173 16.6572 56.9508 22.7217 57.1641 29.0625H44.9775Z" fill="#BFBFBF"/>
<path d="M55.8024 13.7906C56.5694 12.7127 57.0396 11.4521 57.1658 10.1352C57.2921 8.81828 57.07 7.49132 56.5219 6.28729C55.9737 5.08325 55.1187 4.04445 54.0425 3.27499C52.9663 2.50553 51.7068 2.03243 50.3902 1.90312C50.159 1.88437 49.9249 1.875 49.688 1.875C49.4512 1.875 49.2171 1.88437 48.9859 1.90312C47.6692 2.03243 46.4097 2.50553 45.3336 3.27499C44.2574 4.04445 43.4024 5.08325 42.8542 6.28729C42.3061 7.49132 42.084 8.81828 42.2102 10.1352C42.3365 11.4521 42.8067 12.7127 43.5737 13.7906L49.688 22.5L55.8024 13.7906Z" fill="#B30053"/>
<path d="M49.6875 13.125C51.7586 13.125 53.4375 11.4461 53.4375 9.375C53.4375 7.30393 51.7586 5.625 49.6875 5.625C47.6164 5.625 45.9375 7.30393 45.9375 9.375C45.9375 11.4461 47.6164 13.125 49.6875 13.125Z" fill="#F4F4F4"/>
<path d="M23.9274 39.1031C24.6944 38.0252 25.1646 36.7646 25.2908 35.4477C25.4171 34.1308 25.195 32.8038 24.6469 31.5998C24.0987 30.3958 23.2437 29.357 22.1675 28.5875C21.0913 27.818 19.8318 27.3449 18.5152 27.2156C18.284 27.1969 18.0499 27.1875 17.813 27.1875C17.5762 27.1875 17.3421 27.1969 17.1109 27.2156C15.7942 27.3449 14.5347 27.818 13.4586 28.5875C12.3824 29.357 11.5274 30.3958 10.9792 31.5998C10.4311 32.8038 10.209 34.1308 10.3352 35.4477C10.4615 36.7646 10.9317 38.0252 11.6987 39.1031L17.813 47.8125L23.9274 39.1031Z" fill="#B30053"/>
<path d="M17.8125 38.4375C19.8836 38.4375 21.5625 36.7586 21.5625 34.6875C21.5625 32.6164 19.8836 30.9375 17.8125 30.9375C15.7414 30.9375 14.0625 32.6164 14.0625 34.6875C14.0625 36.7586 15.7414 38.4375 17.8125 38.4375Z" fill="#F4F4F4"/>
</g>
<defs>
<clipPath id="clip0_2146_4585">
<rect width="60" height="60" fill="white"/>
</clipPath>
</defs>
</svg>
