<svg width="60" height="60" viewBox="0 0 60 60" fill="none" xmlns="http://www.w3.org/2000/svg">
<g clip-path="url(#clip0_2135_2972)">
<path d="M1.75781 34.1016C2.72859 34.1016 3.51562 33.3145 3.51562 32.3438V27.6562C3.51562 26.6855 2.72859 25.8984 1.75781 25.8984C0.787031 25.8984 0 26.6855 0 27.6562V32.3438C0 33.3145 0.787031 34.1016 1.75781 34.1016Z" fill="#B30053"/>
<path d="M1.75781 22.3828C2.72859 22.3828 3.51562 21.5958 3.51562 20.625V15.9375C3.51562 14.9667 2.72859 14.1797 1.75781 14.1797C0.787031 14.1797 0 14.9667 0 15.9375V20.625C0 21.5958 0.787031 22.3828 1.75781 22.3828Z" fill="#B30053"/>
<path d="M6.44531 2.46094H4.10156C1.83996 2.46094 0 4.3009 0 6.5625V8.90625C0 9.87703 0.787031 10.6641 1.75781 10.6641C2.72859 10.6641 3.51562 9.87703 3.51562 8.90625V6.5625C3.51562 6.23941 3.77848 5.97656 4.10156 5.97656H6.44531C7.41609 5.97656 8.20312 5.18953 8.20312 4.21875C8.20312 3.24797 7.41609 2.46094 6.44531 2.46094Z" fill="#B30053"/>
<path d="M13.4766 5.97656H18.1641C19.1348 5.97656 19.9219 5.18953 19.9219 4.21875C19.9219 3.24797 19.1348 2.46094 18.1641 2.46094H13.4766C12.5058 2.46094 11.7188 3.24797 11.7188 4.21875C11.7188 5.18953 12.5058 5.97656 13.4766 5.97656Z" fill="#B30053"/>
<path d="M18.1641 54.0234H13.4766C12.5058 54.0234 11.7188 54.8105 11.7188 55.7812C11.7188 56.752 12.5058 57.5391 13.4766 57.5391H18.1641C19.1348 57.5391 19.9219 56.752 19.9219 55.7812C19.9219 54.8105 19.1348 54.0234 18.1641 54.0234Z" fill="#B30053"/>
<path d="M1.75781 45.8203C2.72859 45.8203 3.51562 45.0333 3.51562 44.0625V39.375C3.51562 38.4042 2.72859 37.6172 1.75781 37.6172C0.787031 37.6172 0 38.4042 0 39.375V44.0625C0 45.0333 0.787031 45.8203 1.75781 45.8203Z" fill="#B30053"/>
<path d="M6.44531 54.0234H4.10156C3.77848 54.0234 3.51562 53.7606 3.51562 53.4375V51.0938C3.51562 50.123 2.72859 49.3359 1.75781 49.3359C0.787031 49.3359 0 50.123 0 51.0938V53.4375C0 55.6991 1.83996 57.5391 4.10156 57.5391H6.44531C7.41609 57.5391 8.20312 56.752 8.20312 55.7812C8.20312 54.8105 7.41609 54.0234 6.44531 54.0234Z" fill="#B30053"/>
<path fill-rule="evenodd" clip-rule="evenodd" d="M31.7579 2.46094H55.8985C58.1601 2.46094 60.0001 4.3009 60.0001 6.5625V53.4375C60.0001 55.6991 58.1601 57.5391 55.8985 57.5391H31.7579V58.2422C31.7579 59.213 30.9708 60 30.0001 60C29.0293 60 28.2422 59.213 28.2422 58.2422V57.5391H25.1954C24.2246 57.5391 23.4376 56.752 23.4376 55.7812C23.4376 54.8105 24.2246 54.0234 25.1954 54.0234H28.2422V38.7891V35.2734V5.97656H25.1954C24.2246 5.97656 23.4376 5.18953 23.4376 4.21875C23.4376 3.24797 24.2246 2.46094 25.1954 2.46094H28.2422V1.75781C28.2422 0.787031 29.0293 0 30.0001 0C30.9708 0 31.7579 0.787031 31.7579 1.75781V2.46094ZM41.7898 27.7273L45.3054 24.2116C45.9919 23.5253 45.9919 22.4122 45.3056 21.7259L41.7899 18.2102C41.1035 17.5238 39.9905 17.5238 39.304 18.2102C38.6176 18.8967 38.6176 20.0096 39.304 20.6961L39.8188 21.2109H31.7579V24.7266H39.8187L39.3039 25.2414C38.6174 25.9279 38.6174 27.0408 39.3039 27.7273C39.9904 28.4137 41.1033 28.4137 41.7898 27.7273Z" fill="#F5F5F5"/>
<path d="M28.2422 35.2734H20.1813L20.6961 34.7586C21.3826 34.0721 21.3826 32.9592 20.6961 32.2727C20.0096 31.5863 18.8967 31.5863 18.2102 32.2727L14.6946 35.7884C14.0081 36.4748 14.0081 37.5878 14.6946 38.2743L18.2102 41.7899C18.8967 42.4764 20.0096 42.4764 20.6961 41.7899C21.3826 41.1034 21.3826 39.9905 20.6961 39.304L20.1813 38.7891H28.2422V35.2734Z" fill="#B30053"/>
<path d="M45.3054 24.2116L41.7898 27.7273C41.1033 28.4137 39.9904 28.4137 39.3039 27.7273C38.6174 27.0408 38.6174 25.9279 39.3039 25.2414L39.8187 24.7266H31.7579V21.2109H39.8188L39.304 20.6961C38.6176 20.0096 38.6176 18.8967 39.304 18.2102C39.9905 17.5238 41.1035 17.5238 41.7899 18.2102L45.3056 21.7259C45.9919 22.4122 45.9919 23.5253 45.3054 24.2116Z" fill="#BFBFBF"/>
</g>
<defs>
<clipPath id="clip0_2135_2972">
<rect width="60" height="60" fill="white"/>
</clipPath>
</defs>
</svg>
