<svg width="59" height="58" viewBox="0 0 59 58" fill="none" xmlns="http://www.w3.org/2000/svg">
<path d="M2.75 19.625H10.6372C11.0604 19.6252 11.471 19.7685 11.8024 20.0316C12.1338 20.2948 12.3664 20.6623 12.4625 21.0744L17.6731 43.4028C17.9616 44.6393 18.6598 45.7418 19.6544 46.5311C20.6489 47.3204 21.8813 47.75 23.1509 47.75H55.25C55.7473 47.75 56.2242 47.5525 56.5758 47.2008C56.9275 46.8492 57.125 46.3723 57.125 45.875C57.125 45.3777 56.9275 44.9008 56.5758 44.5492C56.2242 44.1975 55.7473 44 55.25 44H22.9878C22.5645 44 22.1536 43.8568 21.822 43.5937C21.4904 43.3305 21.2577 42.9629 21.1616 42.5506L15.6134 18.7728C15.4211 17.9484 14.9554 17.2134 14.2923 16.6873C13.6291 16.1611 12.8075 15.8749 11.9609 15.875H2.75C2.25272 15.875 1.77581 16.0725 1.42417 16.4242C1.07254 16.7758 0.875 17.2527 0.875 17.75C0.875 18.2473 1.07254 18.7242 1.42417 19.0758C1.77581 19.4275 2.25272 19.625 2.75 19.625Z" fill="#989898"/>
<path d="M29 57.125C31.5888 57.125 33.6875 55.0263 33.6875 52.4375C33.6875 49.8487 31.5888 47.75 29 47.75C26.4112 47.75 24.3125 49.8487 24.3125 52.4375C24.3125 55.0263 26.4112 57.125 29 57.125Z" fill="#BFBFBF"/>
<path d="M47.75 57.125C50.3388 57.125 52.4375 55.0263 52.4375 52.4375C52.4375 49.8487 50.3388 47.75 47.75 47.75C45.1612 47.75 43.0625 49.8487 43.0625 52.4375C43.0625 55.0263 45.1612 57.125 47.75 57.125Z" fill="#BFBFBF"/>
<path d="M57.8581 19.0391C57.7701 18.9292 57.6585 18.8405 57.5316 18.7797C57.4047 18.7188 57.2657 18.6873 57.125 18.6875H19.625C19.4842 18.6875 19.3452 18.7192 19.2183 18.7803C19.0915 18.8414 18.98 18.9302 18.8922 19.0403C18.8044 19.1504 18.7425 19.2788 18.7111 19.416C18.6797 19.5533 18.6796 19.6958 18.7109 19.8331L23.3984 40.4581C23.4456 40.6653 23.5617 40.8503 23.7278 40.9828C23.8938 41.1153 24.1 41.1875 24.3125 41.1875H52.4375C52.6499 41.1875 52.8561 41.1153 53.0221 40.9828C53.1882 40.8503 53.3043 40.6653 53.3515 40.4581L58.039 19.8331C58.0705 19.6957 58.0706 19.5529 58.0393 19.4154C58.0079 19.2779 57.946 19.1493 57.8581 19.0391ZM45.0143 32.75H39.3125V27.125H45.7812L45.0143 32.75ZM47.6731 27.125H54.4587L53.1809 32.75H46.9062L47.6731 27.125ZM22.2912 27.125H29.0768L29.8437 32.75H23.569L22.2912 27.125ZM30.9687 27.125H37.4375V32.75H31.7356L30.9687 27.125ZM30.7128 25.25L30.0734 20.5625H37.4375V25.25H30.7128ZM37.4375 34.625V39.3125H32.6309L31.9915 34.625H37.4375ZM39.3125 34.625H44.7584L44.119 39.3125H39.3125V34.625ZM39.3125 25.25V20.5625H46.6765L46.0371 25.25H39.3125ZM28.1815 20.5625L28.8209 25.25H21.8646L20.7987 20.5625H28.1815ZM23.9956 34.625H30.0996L30.739 39.3125H25.0625L23.9956 34.625ZM51.6875 39.3125H46.0109L46.6503 34.625H52.7543L51.6875 39.3125ZM54.8834 25.25H47.9271L48.5665 20.5625H55.9484L54.8834 25.25Z" fill="#BFBFBF"/>
<path d="M48.6875 11.1875C48.6882 9.23206 48.1328 7.31669 47.0862 5.66484C46.0397 4.01299 44.545 2.69275 42.7766 1.85811C41.0082 1.02347 39.0389 0.708838 37.0984 0.950906C35.158 1.19297 33.3264 1.98176 31.8172 3.22528C30.308 4.46879 29.1835 6.11576 28.5748 7.9741C27.9661 9.83244 27.8984 11.8255 28.3794 13.7209C28.8604 15.6163 29.8705 17.3359 31.2917 18.6791C32.7129 20.0222 34.4867 20.9336 36.4063 21.3069L38.375 25.25L40.3437 21.3069C42.6925 20.8501 44.8094 19.5907 46.3316 17.7446C47.8538 15.8984 48.6867 13.5803 48.6875 11.1875Z" fill="#B30053"/>
<path d="M38.375 16.8125L42.4363 13.4281C42.9257 13.0201 43.3195 12.5095 43.5897 11.9325C43.86 11.3554 44 10.726 44 10.0888C44 9.74058 43.9314 9.39583 43.7982 9.07416C43.6649 8.7525 43.4697 8.46022 43.2235 8.21403C42.9773 7.96784 42.685 7.77255 42.3633 7.63931C42.0417 7.50608 41.6969 7.4375 41.3488 7.4375C41.0006 7.43743 40.6558 7.50594 40.334 7.63913C40.0123 7.77232 39.72 7.96758 39.4738 8.21375L38.375 9.3125L37.2762 8.21375C37.03 7.96758 36.7377 7.77232 36.416 7.63913C36.0942 7.50594 35.7494 7.43743 35.4012 7.4375C34.6981 7.4375 34.0237 7.71683 33.5265 8.21403C33.0293 8.71124 32.75 9.38559 32.75 10.0888C32.75 10.726 32.89 11.3554 33.1603 11.9325C33.4305 12.5095 33.8243 13.0201 34.3137 13.4281L38.375 16.8125Z" fill="white"/>
</svg>
