<svg width="60" height="60" viewBox="0 0 60 60" fill="none" xmlns="http://www.w3.org/2000/svg">
<path d="M29.5 33C38.0604 33 45 26.0604 45 17.5C45 8.93958 38.0604 2 29.5 2C20.9396 2 14 8.93958 14 17.5C14 26.0604 20.9396 33 29.5 33Z" fill="#CCCCCC"/>
<path d="M36.6918 10.1579C36.5257 9.681 36.2152 9.26765 35.8036 8.97515C35.392 8.68266 34.8995 8.52551 34.3945 8.52551C33.8895 8.52551 33.3971 8.68266 32.9854 8.97515C32.5738 9.26765 32.2634 9.681 32.0973 10.1579H18.8945V11.7894H32.0973C32.2634 12.2663 32.5738 12.6797 32.9854 12.9721C33.3971 13.2646 33.8895 13.4218 34.3945 13.4218C34.8995 13.4218 35.392 13.2646 35.8036 12.9721C36.2152 12.6797 36.5257 12.2663 36.6918 11.7894H40.105V10.1579H36.6918ZM34.3945 11.7894C34.2332 11.7894 34.0755 11.7416 33.9413 11.652C33.8071 11.5623 33.7026 11.4349 33.6408 11.2858C33.5791 11.1368 33.5629 10.9727 33.5944 10.8145C33.6259 10.6562 33.7036 10.5109 33.8177 10.3968C33.9318 10.2827 34.0771 10.205 34.2354 10.1735C34.3936 10.1421 34.5576 10.1582 34.7067 10.22C34.8558 10.2817 34.9832 10.3863 35.0728 10.5204C35.1625 10.6546 35.2103 10.8123 35.2103 10.9737C35.2103 11.19 35.1244 11.3975 34.9714 11.5505C34.8184 11.7035 34.6109 11.7894 34.3945 11.7894Z" fill="#F5F5F5"/>
<path d="M26.2366 15.0526C25.7323 15.0547 25.2409 15.2126 24.8296 15.5046C24.4184 15.7967 24.1075 16.2087 23.9394 16.6842H18.8945V18.3158H23.9394C24.1055 18.7926 24.4159 19.206 24.8276 19.4985C25.2392 19.791 25.7317 19.9481 26.2366 19.9481C26.7416 19.9481 27.2341 19.791 27.6457 19.4985C28.0573 19.206 28.3678 18.7926 28.5339 18.3158H40.105V16.6842H28.5339C28.3658 16.2087 28.0548 15.7967 27.6436 15.5046C27.2324 15.2126 26.741 15.0547 26.2366 15.0526ZM26.2366 18.3158C26.0753 18.3158 25.9176 18.2679 25.7834 18.1783C25.6492 18.0886 25.5447 17.9612 25.4829 17.8122C25.4212 17.6631 25.405 17.4991 25.4365 17.3408C25.468 17.1826 25.5457 17.0372 25.6598 16.9231C25.7739 16.809 25.9192 16.7313 26.0775 16.6999C26.2357 16.6684 26.3998 16.6845 26.5488 16.7463C26.6979 16.808 26.8253 16.9126 26.9149 17.0468C27.0046 17.1809 27.0524 17.3386 27.0524 17.5C27.0524 17.7163 26.9665 17.9238 26.8135 18.0768C26.6605 18.2298 26.453 18.3158 26.2366 18.3158Z" fill="#F5F5F5"/>
<path d="M34.3945 21.579C33.8902 21.5811 33.3987 21.7389 32.9875 22.031C32.5763 22.3231 32.2654 22.735 32.0973 23.2106H18.8945V24.8421H32.0973C32.2634 25.319 32.5738 25.7323 32.9854 26.0248C33.3971 26.3173 33.8895 26.4745 34.3945 26.4745C34.8995 26.4745 35.392 26.3173 35.8036 26.0248C36.2152 25.7323 36.5257 25.319 36.6918 24.8421H40.105V23.2106H36.6918C36.5237 22.735 36.2127 22.3231 35.8015 22.031C35.3903 21.7389 34.8989 21.5811 34.3945 21.579ZM34.3945 24.8421C34.2332 24.8421 34.0755 24.7943 33.9413 24.7047C33.8071 24.615 33.7026 24.4876 33.6408 24.3385C33.5791 24.1895 33.5629 24.0254 33.5944 23.8672C33.6259 23.7089 33.7036 23.5636 33.8177 23.4495C33.9318 23.3354 34.0771 23.2577 34.2354 23.2262C34.3936 23.1948 34.5576 23.2109 34.7067 23.2727C34.8558 23.3344 34.9832 23.439 35.0728 23.5731C35.1625 23.7073 35.2103 23.865 35.2103 24.0263C35.2103 24.2427 35.1244 24.4502 34.9714 24.6032C34.8184 24.7562 34.6109 24.8421 34.3945 24.8421Z" fill="#F5F5F5"/>
<path d="M58.125 52.8656C58.1241 53.8494 57.834 54.8112 57.2906 55.6313C56.9707 56.111 56.5371 56.5041 56.0283 56.7757C55.5196 57.0472 54.9517 57.1887 54.375 57.1875H50.625C51.2372 56.378 51.5666 55.3899 51.5625 54.375C51.5625 53.1318 51.0687 51.9395 50.1896 51.0604C49.3105 50.1814 48.1182 49.6875 46.875 49.6875C45.6318 49.6875 44.4395 50.1814 43.5605 51.0604C42.6814 51.9395 42.1875 53.1318 42.1875 54.375C42.1835 55.3899 42.5129 56.378 43.125 57.1875H15.9375C16.5497 56.378 16.8791 55.3899 16.875 54.375C16.875 53.1318 16.3812 51.9395 15.5021 51.0604C14.623 50.1814 13.4307 49.6875 12.1875 49.6875C10.9443 49.6875 9.75203 50.1814 8.87296 51.0604C7.99388 51.9395 7.50002 53.1318 7.50002 54.375C7.49598 55.3899 7.82535 56.378 8.43752 57.1875H4.68752C4.15932 57.187 3.64757 57.0037 3.23915 56.6688C2.83073 56.3338 2.5508 55.8679 2.44689 55.35L2.06252 53.4188C1.81249 52.1939 1.81249 50.9311 2.06252 49.7063C2.29253 48.5488 2.80846 47.4672 3.56332 46.5601C4.31817 45.6529 5.28797 44.949 6.38439 44.5125L7.50002 44.0625L11.025 40.5375C12.2855 39.2766 13.7822 38.2766 15.4294 37.5945C17.0766 36.9125 18.8422 36.5618 20.625 36.5625H29.0625C30.899 36.5626 32.6974 37.0862 34.2469 38.0719L41.7375 42.8344C42.0362 43.0305 42.3461 43.2089 42.6656 43.3687C43.5915 43.8279 44.5804 44.147 45.6 44.3156L50.4 45.1219C51.9222 45.3716 53.3624 45.9824 54.6 46.9031C55.8432 47.8165 56.8521 49.0117 57.5438 50.3906C57.9264 51.1595 58.1254 52.0068 58.125 52.8656Z" fill="#B30053"/>
<path d="M12.1875 49.6875C13.4307 49.6875 14.623 50.1814 15.5021 51.0604C16.3812 51.9395 16.875 53.1318 16.875 54.375C16.8791 55.3899 16.5497 56.378 15.9375 57.1875H43.125C42.5129 56.378 42.1835 55.3899 42.1875 54.375C42.1875 53.1318 42.6814 51.9395 43.5605 51.0604C44.4395 50.1814 45.6318 49.6875 46.875 49.6875C48.1182 49.6875 49.3105 50.1814 50.1896 51.0604C51.0687 51.9395 51.5625 53.1318 51.5625 54.375C51.5666 55.3899 51.2372 56.378 50.625 57.1875H54.375C54.9517 57.1887 55.5196 57.0472 56.0283 56.7757C56.5371 56.5041 56.9707 56.111 57.2906 55.6313C57.834 54.8112 58.1241 53.8494 58.125 52.8656C58.1254 52.0068 57.9264 51.1595 57.5438 50.3906C56.8521 49.0117 55.8432 47.8165 54.6 46.9031C53.3624 45.9824 51.9222 45.3716 50.4 45.1219L45.6 44.3156C44.5804 44.147 43.5915 43.8279 42.6656 43.3687C42.3461 43.2089 42.0362 43.0305 41.7375 42.8344L34.2469 38.0719C32.6974 37.0862 30.899 36.5626 29.0625 36.5625H24.375C22.5922 36.5618 20.8266 36.9125 19.1794 37.5945C17.5322 38.2766 16.0355 39.2766 14.775 40.5375L11.25 44.0625L10.1344 44.5125C9.03797 44.949 8.06817 45.6529 7.31332 46.5601C6.55846 47.4672 6.04253 48.5488 5.81252 49.7063C5.56249 50.9311 5.56249 52.1939 5.81252 53.4188L6.19689 55.35C6.3008 55.8679 6.58073 56.3338 6.98915 56.6688C7.39757 57.0037 7.90932 57.187 8.43752 57.1875C7.82535 56.378 7.49598 55.3899 7.50002 54.375C7.50002 53.1318 7.99388 51.9395 8.87296 51.0604C9.75203 50.1814 10.9443 49.6875 12.1875 49.6875Z" fill="#B30053"/>
<path d="M17.25 44.8125L18.75 45.9375L19.6875 51.5625H34.6875C34.6875 50.5679 35.0826 49.6141 35.7859 48.9109C36.4891 48.2076 37.4429 47.8125 38.4375 47.8125V45L30.9375 40.3125H15C15 41.1858 15.2033 42.047 15.5938 42.8281C15.9844 43.6091 16.5514 44.2885 17.25 44.8125Z" fill="white"/>
<path d="M56.25 51.5625H57.9666C57.869 51.158 57.7259 50.7658 57.54 50.3934C57.1905 49.6916 56.7574 49.0346 56.25 48.4369L52.5 47.8125C52.5 48.8071 52.8951 49.7609 53.5984 50.4641C54.3016 51.1674 55.2554 51.5625 56.25 51.5625Z" fill="#BFBFBF"/>
<path d="M3.75016 50.625C4.24744 50.625 4.72435 50.4275 5.07598 50.0758C5.42761 49.7242 5.62516 49.2473 5.62516 48.75V46.875H3.33109C2.70418 47.713 2.27097 48.6797 2.06266 49.7053C2.00172 50.01 1.95672 50.3166 1.92578 50.625H3.75016Z" fill="#BFBFBF"/>
<path d="M58.0828 53.4375H54.375V55.3125H57.4687C57.7973 54.7351 58.0061 54.0974 58.0828 53.4375Z" fill="#BFBFBF"/>
<path d="M25.3125 40.3125H27.1875V51.5625H25.3125V40.3125Z" fill="#BFBFBF"/>
</svg>
