<svg width="60" height="60" viewBox="0 0 60 60" fill="none" xmlns="http://www.w3.org/2000/svg">
<path fill-rule="evenodd" clip-rule="evenodd" d="M18.2734 11.9783C18.2734 11.2733 18.8449 10.7018 19.5499 10.7018H22.9537C23.6587 10.7018 24.2302 11.2733 24.2302 11.9783C24.2302 12.6832 23.6587 13.2547 22.9537 13.2547H19.5499C18.8449 13.2547 18.2734 12.6832 18.2734 11.9783Z" fill="#389727"/>
<path fill-rule="evenodd" clip-rule="evenodd" d="M25.0801 18.7861C25.0801 18.0811 25.6516 17.5096 26.3565 17.5096H29.7604C30.4653 17.5096 31.0368 18.0811 31.0368 18.7861C31.0368 19.491 30.4653 20.0625 29.7604 20.0625H26.3565C25.6516 20.0625 25.0801 19.491 25.0801 18.7861Z" fill="#389727"/>
<path fill-rule="evenodd" clip-rule="evenodd" d="M28.0596 9C28.7646 9 29.3361 9.57149 29.3361 10.2764V13.6803C29.3361 14.3852 28.7646 14.9567 28.0596 14.9567C27.3547 14.9567 26.7832 14.3852 26.7832 13.6803V10.2764C26.7832 9.57149 27.3547 9 28.0596 9Z" fill="#389727"/>
<path fill-rule="evenodd" clip-rule="evenodd" d="M21.2511 15.8076C21.956 15.8076 22.5275 16.3791 22.5275 17.0841V20.4879C22.5275 21.1929 21.956 21.7643 21.2511 21.7643C20.5461 21.7643 19.9746 21.1929 19.9746 20.4879V17.0841C19.9746 16.3791 20.5461 15.8076 21.2511 15.8076Z" fill="#389727"/>
<path fill-rule="evenodd" clip-rule="evenodd" d="M31.8906 11.9783C31.8906 11.2734 32.4621 10.7019 33.1671 10.7019H36.5709C37.2759 10.7019 37.8474 11.2734 37.8474 11.9783C37.8474 12.6833 37.2759 13.2548 36.5709 13.2548H33.1671C32.4621 13.2548 31.8906 12.6833 31.8906 11.9783Z" fill="#389727"/>
<path fill-rule="evenodd" clip-rule="evenodd" d="M38.6973 18.7861C38.6973 18.0811 39.2688 17.5096 39.9737 17.5096H43.3776C44.0825 17.5096 44.654 18.0811 44.654 18.7861C44.654 19.491 44.0825 20.0625 43.3776 20.0625H39.9737C39.2688 20.0625 38.6973 19.491 38.6973 18.7861Z" fill="#389727"/>
<path fill-rule="evenodd" clip-rule="evenodd" d="M41.6749 9C42.3798 9 42.9513 9.57149 42.9513 10.2764V13.6803C42.9513 14.3852 42.3798 14.9567 41.6749 14.9567C40.9699 14.9567 40.3984 14.3852 40.3984 13.6803V10.2764C40.3984 9.57149 40.9699 9 41.6749 9Z" fill="#389727"/>
<path fill-rule="evenodd" clip-rule="evenodd" d="M34.8663 15.8076C35.5712 15.8076 36.1427 16.3791 36.1427 17.0841V20.4879C36.1427 21.1929 35.5712 21.7643 34.8663 21.7643C34.1613 21.7643 33.5898 21.1929 33.5898 20.4879V17.0841C33.5898 16.3791 34.1613 15.8076 34.8663 15.8076Z" fill="#389727"/>
<path fill-rule="evenodd" clip-rule="evenodd" d="M45.5039 11.9783C45.5039 11.2734 46.0754 10.7019 46.7803 10.7019H50.1842C50.8891 10.7019 51.4606 11.2734 51.4606 11.9783C51.4606 12.6833 50.8891 13.2548 50.1842 13.2548H46.7803C46.0754 13.2548 45.5039 12.6833 45.5039 11.9783Z" fill="#389727"/>
<path fill-rule="evenodd" clip-rule="evenodd" d="M48.4835 15.8076C49.1884 15.8076 49.7599 16.3791 49.7599 17.0841V20.4879C49.7599 21.1929 49.1884 21.7643 48.4835 21.7643C47.7785 21.7643 47.207 21.1929 47.207 20.4879V17.0841C47.207 16.3791 47.7785 15.8076 48.4835 15.8076Z" fill="#389727"/>
<path fill-rule="evenodd" clip-rule="evenodd" d="M18.2734 25.5938C18.2734 24.8888 18.8449 24.3173 19.5499 24.3173H22.9537C23.6587 24.3173 24.2302 24.8888 24.2302 25.5938C24.2302 26.2987 23.6587 26.8702 22.9537 26.8702H19.5499C18.8449 26.8702 18.2734 26.2987 18.2734 25.5938Z" fill="#389727"/>
<path fill-rule="evenodd" clip-rule="evenodd" d="M25.0801 32.4014C25.0801 31.6964 25.6516 31.1249 26.3565 31.1249H29.7604C30.4653 31.1249 31.0368 31.6964 31.0368 32.4014C31.0368 33.1063 30.4653 33.6778 29.7604 33.6778H26.3565C25.6516 33.6778 25.0801 33.1063 25.0801 32.4014Z" fill="#389727"/>
<path fill-rule="evenodd" clip-rule="evenodd" d="M28.0596 22.6155C28.7646 22.6155 29.3361 23.187 29.3361 23.8919V27.2958C29.3361 28.0007 28.7646 28.5722 28.0596 28.5722C27.3547 28.5722 26.7832 28.0007 26.7832 27.2958V23.8919C26.7832 23.187 27.3547 22.6155 28.0596 22.6155Z" fill="#389727"/>
<path fill-rule="evenodd" clip-rule="evenodd" d="M21.2511 29.4231C21.956 29.4231 22.5275 29.9946 22.5275 30.6995V34.1034C22.5275 34.8083 21.956 35.3798 21.2511 35.3798C20.5461 35.3798 19.9746 34.8083 19.9746 34.1034V30.6995C19.9746 29.9946 20.5461 29.4231 21.2511 29.4231Z" fill="#389727"/>
<path fill-rule="evenodd" clip-rule="evenodd" d="M31.8906 25.5937C31.8906 24.8888 32.4621 24.3173 33.1671 24.3173H36.5709C37.2759 24.3173 37.8474 24.8888 37.8474 25.5937C37.8474 26.2986 37.2759 26.8701 36.5709 26.8701H33.1671C32.4621 26.8701 31.8906 26.2986 31.8906 25.5937Z" fill="#389727"/>
<path fill-rule="evenodd" clip-rule="evenodd" d="M38.6973 32.4014C38.6973 31.6965 39.2688 31.125 39.9737 31.125H43.3776C44.0825 31.125 44.654 31.6965 44.654 32.4014C44.654 33.1064 44.0825 33.6779 43.3776 33.6779H39.9737C39.2688 33.6779 38.6973 33.1064 38.6973 32.4014Z" fill="#389727"/>
<path fill-rule="evenodd" clip-rule="evenodd" d="M41.6749 22.6155C42.3798 22.6155 42.9513 23.187 42.9513 23.8919V27.2958C42.9513 28.0007 42.3798 28.5722 41.6749 28.5722C40.9699 28.5722 40.3984 28.0007 40.3984 27.2958V23.8919C40.3984 23.187 40.9699 22.6155 41.6749 22.6155Z" fill="#389727"/>
<path fill-rule="evenodd" clip-rule="evenodd" d="M34.8663 29.4231C35.5712 29.4231 36.1427 29.9946 36.1427 30.6995V34.1034C36.1427 34.8083 35.5712 35.3798 34.8663 35.3798C34.1613 35.3798 33.5898 34.8083 33.5898 34.1034V30.6995C33.5898 29.9946 34.1613 29.4231 34.8663 29.4231Z" fill="#389727"/>
<path fill-rule="evenodd" clip-rule="evenodd" d="M45.5039 25.5937C45.5039 24.8888 46.0754 24.3173 46.7803 24.3173H50.1842C50.8891 24.3173 51.4606 24.8888 51.4606 25.5937C51.4606 26.2986 50.8891 26.8701 50.1842 26.8701H46.7803C46.0754 26.8701 45.5039 26.2986 45.5039 25.5937Z" fill="#389727"/>
<path fill-rule="evenodd" clip-rule="evenodd" d="M48.4835 29.4231C49.1884 29.4231 49.7599 29.9946 49.7599 30.6995V34.1034C49.7599 34.8083 49.1884 35.3798 48.4835 35.3798C47.7785 35.3798 47.207 34.8083 47.207 34.1034V30.6995C47.207 29.9946 47.7785 29.4231 48.4835 29.4231Z" fill="#389727"/>
<path fill-rule="evenodd" clip-rule="evenodd" d="M18.2734 39.2092C18.2734 38.5042 18.8449 37.9327 19.5499 37.9327H22.9537C23.6587 37.9327 24.2302 38.5042 24.2302 39.2092C24.2302 39.9141 23.6587 40.4856 22.9537 40.4856H19.5499C18.8449 40.4856 18.2734 39.9141 18.2734 39.2092Z" fill="#389727"/>
<path fill-rule="evenodd" clip-rule="evenodd" d="M28.0596 36.2307C28.7646 36.2307 29.3361 36.8022 29.3361 37.5072V40.911C29.3361 41.6159 28.7646 42.1874 28.0596 42.1874C27.3547 42.1874 26.7832 41.6159 26.7832 40.911V37.5072C26.7832 36.8022 27.3547 36.2307 28.0596 36.2307Z" fill="#389727"/>
<path fill-rule="evenodd" clip-rule="evenodd" d="M31.8906 39.2092C31.8906 38.5042 32.4621 37.9327 33.1671 37.9327H36.5709C37.2759 37.9327 37.8474 38.5042 37.8474 39.2092C37.8474 39.9141 37.2759 40.4856 36.5709 40.4856H33.1671C32.4621 40.4856 31.8906 39.9141 31.8906 39.2092Z" fill="#389727"/>
<path fill-rule="evenodd" clip-rule="evenodd" d="M41.6749 36.2307C42.3798 36.2307 42.9513 36.8022 42.9513 37.5072V40.911C42.9513 41.6159 42.3798 42.1874 41.6749 42.1874C40.9699 42.1874 40.3984 41.6159 40.3984 40.911V37.5072C40.3984 36.8022 40.9699 36.2307 41.6749 36.2307Z" fill="#389727"/>
<path fill-rule="evenodd" clip-rule="evenodd" d="M45.5039 39.2092C45.5039 38.5042 46.0754 37.9327 46.7803 37.9327H50.1842C50.8891 37.9327 51.4606 38.5042 51.4606 39.2092C51.4606 39.9141 50.8891 40.4856 50.1842 40.4856H46.7803C46.0754 40.4856 45.5039 39.9141 45.5039 39.2092Z" fill="#389727"/>
<path d="M21.3388 27.4927L8.64562 31.9117C8.41573 32.0034 8.25834 32.2185 8.24052 32.4654C8.22258 32.7124 8.34736 32.9478 8.56175 33.0715L11.7648 35.116L7.91977 38.961C7.79857 39.0822 7.73047 39.2467 7.73047 39.4179C7.73047 39.5894 7.79857 39.7537 7.91977 39.8749L9.79618 41.7513C10.0485 42.0035 10.4575 42.0035 10.7099 41.7512L14.5549 37.9059L16.5994 41.1092C16.7232 41.3236 16.9585 41.4483 17.2053 41.4305C17.4523 41.4127 17.6672 41.2554 17.7589 41.0254L22.1782 28.3322C22.274 28.0924 22.2176 27.8186 22.035 27.636C21.8523 27.4534 21.5786 27.3969 21.3388 27.4927Z" fill="#BFBFBF"/>
</svg>
