<svg width="60" height="52" viewBox="0 0 60 52" fill="none" xmlns="http://www.w3.org/2000/svg">
<path d="M58.2422 0.954346H1.75781C0.786896 0.954346 0 1.74124 0 2.71216V49.2878C0 50.2587 0.786896 51.0456 1.75781 51.0456H58.2422C59.2131 51.0456 60 50.2587 60 49.2878V2.71216C60 1.74124 59.2131 0.954346 58.2422 0.954346Z" fill="#F5F5F5"/>
<path d="M0 40.9574V49.2878C0 50.2587 0.786896 51.0456 1.75781 51.0456H58.2422C59.2131 51.0456 60 50.2587 60 49.2878V40.9574H0ZM9.5192 47.53H3.51562V44.4694H9.5192V47.53ZM18.9331 47.53H13.0348V44.4694H18.9331V47.53ZM28.347 47.53H22.4487V44.4694H28.347V47.53ZM37.7614 47.53H31.8626V44.4694H37.7614V47.53ZM47.1753 47.53H41.277V44.4694H47.1753V47.53ZM56.4844 47.53H50.6909V44.4694H56.4844V47.53Z" fill="#BFBFBF"/>
<path d="M60 11.0467V2.71216C60 1.7417 59.2131 0.954346 58.2422 0.954346H1.75781C0.786896 0.954346 0 1.7417 0 2.71216V11.0467H60ZM50.6909 4.46997H56.4844V7.53058H50.6909V4.46997ZM41.277 4.46997H47.1753V7.53058H41.277V4.46997ZM31.8626 4.46997H37.7614V7.53058H31.8626V4.46997ZM22.4487 4.46997H28.347V7.53058H22.4487V4.46997ZM13.0348 4.46997H18.9331V7.53058H13.0348V4.46997ZM3.51562 4.46997H9.5192V7.53058H3.51562V4.46997Z" fill="#BFBFBF"/>
<path d="M36.5 24.189C36.4524 24.1542 36.4025 24.1217 36.3513 24.092L26.2933 18.2207C25.5645 17.7442 24.6069 17.6901 23.8195 18.0911C23.0441 18.4853 22.5625 19.2548 22.5625 20.0989V31.9014C22.5625 32.7455 23.0441 33.5146 23.8195 33.9092C24.172 34.0886 24.5588 34.177 24.9438 34.177C25.4185 34.177 25.8909 34.0428 26.2933 33.7792L36.3513 27.9083C36.4025 27.8786 36.4524 27.8461 36.5 27.8113C37.0947 27.3778 37.4362 26.7182 37.4362 26.0004C37.4362 25.2826 37.0947 24.6221 36.5 24.189Z" fill="#389727"/>
</svg>
