<svg width="60" height="60" viewBox="0 0 60 60" fill="none" xmlns="http://www.w3.org/2000/svg">
<path d="M28.125 54.375C42.6225 54.375 54.375 42.6225 54.375 28.125C54.375 13.6275 42.6225 1.875 28.125 1.875C13.6275 1.875 1.875 13.6275 1.875 28.125C1.875 42.6225 13.6275 54.375 28.125 54.375Z" fill="#EACB14"/>
<path d="M28.125 50.625C40.5514 50.625 50.625 40.5514 50.625 28.125C50.625 15.6986 40.5514 5.625 28.125 5.625C15.6986 5.625 5.625 15.6986 5.625 28.125C5.625 40.5514 15.6986 50.625 28.125 50.625Z" fill="#F4F4F4"/>
<path d="M45.9375 58.125C52.6685 58.125 58.125 52.6685 58.125 45.9375C58.125 39.2065 52.6685 33.75 45.9375 33.75C39.2065 33.75 33.75 39.2065 33.75 45.9375C33.75 52.6685 39.2065 58.125 45.9375 58.125Z" fill="#DEDEDE"/>
<path d="M29.0625 5.64844C28.7513 5.63625 28.4391 5.625 28.125 5.625C27.8109 5.625 27.4988 5.63625 27.1875 5.64844V9.375H29.0625V5.64844Z" fill="#EACB14"/>
<path d="M27.1875 50.6016C27.4988 50.6137 27.8109 50.625 28.125 50.625C28.4391 50.625 28.7513 50.6137 29.0625 50.6016V46.875H27.1875V50.6016Z" fill="#EACB14"/>
<path d="M5.64844 29.0625H9.375V27.1875H5.64844C5.63625 27.4988 5.625 27.8109 5.625 28.125C5.625 28.4391 5.63625 28.7513 5.64844 29.0625Z" fill="#EACB14"/>
<path d="M46.875 29.0625H50.6016C50.6137 28.7513 50.625 28.4391 50.625 28.125C50.625 27.8109 50.6137 27.4988 50.6016 27.1875H46.875V29.0625Z" fill="#EACB14"/>
<path d="M10.687 19.5L11.812 18L9.16547 16.0153C8.82734 16.5441 8.51047 17.0875 8.21484 17.6456L10.687 19.5Z" fill="#EACB14"/>
<path d="M18.0003 11.8125L19.5003 10.6875L17.6459 8.21533C17.0884 8.50971 16.545 8.82658 16.0156 9.16596L18.0003 11.8125Z" fill="#EACB14"/>
<path d="M37.5936 7.71375L35.7617 10.7672L37.3686 11.7328L39.2623 8.57625C38.718 8.26687 38.1617 7.97937 37.5936 7.71375Z" fill="#EACB14"/>
<path d="M43.5801 17.9466L44.5457 19.5534L47.962 17.5031C47.6657 16.9509 47.3441 16.4138 47.0048 15.8906L43.5801 17.9466Z" fill="#EACB14"/>
<path d="M8.21484 38.6044C8.50922 39.1625 8.82609 39.7059 9.16547 40.2347L11.812 38.25L10.687 36.75L8.21484 38.6044Z" fill="#EACB14"/>
<path d="M16.0137 47.0831C16.543 47.4225 17.0865 47.7397 17.644 48.0347L19.4993 45.5625L17.9993 44.4375L16.0137 47.0831Z" fill="#EACB14"/>
<path d="M30.9375 27.1875H33.75V29.0625H30.9375V27.1875Z" fill="#EACB14"/>
<path d="M35.625 27.1875H37.5V29.0625H35.625V27.1875Z" fill="#EACB14"/>
<path d="M39.375 27.1875H41.25V29.0625H39.375V27.1875Z" fill="#EACB14"/>
<path d="M43.125 27.1875H45V29.0625H43.125V27.1875Z" fill="#EACB14"/>
<path d="M28.125 31.875C30.1961 31.875 31.875 30.1961 31.875 28.125C31.875 26.0539 30.1961 24.375 28.125 24.375C26.0539 24.375 24.375 26.0539 24.375 28.125C24.375 30.1961 26.0539 31.875 28.125 31.875Z" fill="#EACB14"/>
<path d="M24.4766 28.9612L18.395 35.0428C18.022 35.4158 17.8125 35.9216 17.8125 36.4491C17.8125 36.9765 18.022 37.4823 18.395 37.8553C18.7679 38.2283 19.2738 38.4378 19.8012 38.4378C20.3287 38.4378 20.8345 38.2283 21.2075 37.8553L27.2891 31.7737C26.6034 31.6165 25.9759 31.2692 25.4785 30.7718C24.9811 30.2744 24.6338 29.6469 24.4766 28.9612Z" fill="#EACB14"/>
<path d="M28.125 24.375C28.7852 24.3784 29.4325 24.558 30 24.8953V14.0625C30 13.5652 29.8025 13.0883 29.4508 12.7367C29.0992 12.385 28.6223 12.1875 28.125 12.1875C27.6277 12.1875 27.1508 12.385 26.7992 12.7367C26.4475 13.0883 26.25 13.5652 26.25 14.0625V24.8953C26.8175 24.558 27.4648 24.3784 28.125 24.375Z" fill="#EACB14"/>
<path d="M27.1875 27.1875H29.0625V29.0625H27.1875V27.1875Z" fill="#EACB14"/>
<path d="M53.4375 45C53.4383 43.6058 53.0504 42.2389 52.3174 41.0529C51.5844 39.8669 50.5354 38.9087 49.288 38.2859C48.0407 37.663 46.6444 37.4002 45.256 37.5269C43.8675 37.6536 42.5419 38.1648 41.4278 39.0031C40.3138 39.8414 39.4555 40.9737 38.9493 42.2728C38.4431 43.5718 38.309 44.9863 38.5621 46.3574C38.8152 47.7284 39.4455 49.0018 40.3821 50.0345C41.3188 51.0672 42.5248 51.8184 43.8647 52.2037L45.9375 54.375L48.0103 52.2037C49.5739 51.7541 50.9488 50.8082 51.9278 49.5088C52.9067 48.2094 53.4366 46.6269 53.4375 45Z" fill="#989898"/>
<path d="M45.9375 48.75C48.0086 48.75 49.6875 47.0711 49.6875 45C49.6875 42.9289 48.0086 41.25 45.9375 41.25C43.8664 41.25 42.1875 42.9289 42.1875 45C42.1875 47.0711 43.8664 48.75 45.9375 48.75Z" fill="white"/>
</svg>
