<svg width="60" height="60" viewBox="0 0 60 60" fill="none" xmlns="http://www.w3.org/2000/svg">
<path d="M55.3125 1.875H4.6875C3.1342 1.875 1.875 3.1342 1.875 4.6875V55.3125C1.875 56.8658 3.1342 58.125 4.6875 58.125H55.3125C56.8658 58.125 58.125 56.8658 58.125 55.3125V4.6875C58.125 3.1342 56.8658 1.875 55.3125 1.875Z" fill="#F4F4F4"/>
<path d="M55.3125 1.875H4.6875V52.5C4.6875 53.2459 4.98382 53.9613 5.51126 54.4887C6.03871 55.0162 6.75408 55.3125 7.5 55.3125H58.125V4.6875C58.125 3.94158 57.8287 3.22621 57.3012 2.69876C56.7738 2.17132 56.0584 1.875 55.3125 1.875Z" fill="#F4F4F4"/>
<path d="M55.3125 1.875H4.6875C3.94158 1.875 3.22621 2.17132 2.69876 2.69876C2.17132 3.22621 1.875 3.94158 1.875 4.6875V9.375H58.125V4.6875C58.125 3.94158 57.8287 3.22621 57.3012 2.69876C56.7738 2.17132 56.0584 1.875 55.3125 1.875Z" fill="#989898"/>
<path d="M8.4375 6.5625H58.125V4.6875C58.125 3.94158 57.8287 3.22621 57.3012 2.69876C56.7738 2.17132 56.0584 1.875 55.3125 1.875H5.625V3.75C5.625 4.49592 5.92132 5.21129 6.44876 5.73874C6.97621 6.26618 7.69158 6.5625 8.4375 6.5625Z" fill="#989898"/>
<path d="M18.75 13.125H28.125V24.375H18.75V13.125Z" fill="#3573BC"/>
<path d="M26.25 28.125H20.625C19.5895 28.125 18.75 28.9645 18.75 30C18.75 31.0355 19.5895 31.875 20.625 31.875H26.25C27.2855 31.875 28.125 31.0355 28.125 30C28.125 28.9645 27.2855 28.125 26.25 28.125Z" fill="#3573BC"/>
<path d="M26.25 50.625H20.625C19.5895 50.625 18.75 51.4645 18.75 52.5C18.75 53.5355 19.5895 54.375 20.625 54.375H26.25C27.2855 54.375 28.125 53.5355 28.125 52.5C28.125 51.4645 27.2855 50.625 26.25 50.625Z" fill="#3573BC"/>
<path d="M39.375 50.625H33.75C32.7145 50.625 31.875 51.4645 31.875 52.5C31.875 53.5355 32.7145 54.375 33.75 54.375H39.375C40.4105 54.375 41.25 53.5355 41.25 52.5C41.25 51.4645 40.4105 50.625 39.375 50.625Z" fill="#3573BC"/>
<path d="M39.375 28.125H33.75C32.7145 28.125 31.875 28.9645 31.875 30C31.875 31.0355 32.7145 31.875 33.75 31.875H39.375C40.4105 31.875 41.25 31.0355 41.25 30C41.25 28.9645 40.4105 28.125 39.375 28.125Z" fill="#2763BB"/>
<path d="M52.5 28.125H46.875C45.8395 28.125 45 28.9645 45 30C45 31.0355 45.8395 31.875 46.875 31.875H52.5C53.5355 31.875 54.375 31.0355 54.375 30C54.375 28.9645 53.5355 28.125 52.5 28.125Z" fill="#3573BC"/>
<path d="M52.5 50.625H46.875C45.8395 50.625 45 51.4645 45 52.5C45 53.5355 45.8395 54.375 46.875 54.375H52.5C53.5355 54.375 54.375 53.5355 54.375 52.5C54.375 51.4645 53.5355 50.625 52.5 50.625Z" fill="#3573BC"/>
<path d="M21.5625 15.9375H25.3125V17.8125H21.5625V15.9375Z" fill="#FBF2FF"/>
<path d="M21.5625 19.6875H25.3125V21.5625H21.5625V19.6875Z" fill="#FBF2FF"/>
<path d="M15.9375 10.3125C15.9375 9.79473 15.5178 9.375 15 9.375C14.4822 9.375 14.0625 9.79473 14.0625 10.3125V57.1875C14.0625 57.7053 14.4822 58.125 15 58.125C15.5178 58.125 15.9375 57.7053 15.9375 57.1875V10.3125Z" fill="#BFBFBF"/>
<path d="M53.4375 4.6875H55.3125V6.5625H53.4375V4.6875Z" fill="#FBF2FF"/>
<path d="M49.6875 4.6875H51.5625V6.5625H49.6875V4.6875Z" fill="#FBF2FF"/>
<path d="M45.9375 4.6875H47.8125V6.5625H45.9375V4.6875Z" fill="#FBF2FF"/>
<path d="M4.6875 13.125H8.4375V15H4.6875V13.125Z" fill="#BFBFBF"/>
<path d="M4.6875 16.875H12.1875V18.75H4.6875V16.875Z" fill="#BFBFBF"/>
<path d="M4.6875 20.625H12.1875V22.5H4.6875V20.625Z" fill="#BFBFBF"/>
<path d="M4.6875 42.1875H12.1875V44.0625H4.6875V42.1875Z" fill="#BFBFBF"/>
<path d="M4.6875 34.6875H8.4375V36.5625H4.6875V34.6875Z" fill="#BFBFBF"/>
<path d="M4.6875 38.4375H12.1875V40.3125H4.6875V38.4375Z" fill="#BFBFBF"/>
<path d="M31.875 13.125H41.25V24.375H31.875V13.125Z" fill="#2763BB"/>
<path d="M34.6875 15.9375H38.4375V17.8125H34.6875V15.9375Z" fill="#FBF2FF"/>
<path d="M34.6875 19.6875H38.4375V21.5625H34.6875V19.6875Z" fill="#FBF2FF"/>
<path d="M45 13.125H54.375V24.375H45V13.125Z" fill="#3573BC"/>
<path d="M47.8125 15.9375H51.5625V17.8125H47.8125V15.9375Z" fill="#FBF2FF"/>
<path d="M47.8125 19.6875H51.5625V21.5625H47.8125V19.6875Z" fill="#FBF2FF"/>
<path d="M18.75 35.625H28.125V46.875H18.75V35.625Z" fill="#3573BC"/>
<path d="M21.5625 38.4375H25.3125V40.3125H21.5625V38.4375Z" fill="#FBF2FF"/>
<path d="M21.5625 42.1875H25.3125V44.0625H21.5625V42.1875Z" fill="#FBF2FF"/>
<path d="M31.875 35.625H41.25V46.875H31.875V35.625Z" fill="#3573BC"/>
<path d="M34.6875 38.4375H38.4375V40.3125H34.6875V38.4375Z" fill="#FBF2FF"/>
<path d="M34.6875 42.1875H38.4375V44.0625H34.6875V42.1875Z" fill="#FBF2FF"/>
<path d="M45 35.625H54.375V46.875H45V35.625Z" fill="#3573BC"/>
<path d="M47.8125 38.4375H51.5625V40.3125H47.8125V38.4375Z" fill="#FBF2FF"/>
<path d="M47.8125 42.1875H51.5625V44.0625H47.8125V42.1875Z" fill="#FBF2FF"/>
</svg>
