<svg width="60" height="60" viewBox="0 0 60 60" fill="none" xmlns="http://www.w3.org/2000/svg">
<path d="M5.625 54.375V21.5625C5.625 20.5679 6.02009 19.6141 6.72335 18.9109C7.42661 18.2076 8.38044 17.8125 9.375 17.8125H50.625C51.6196 17.8125 52.5734 18.2076 53.2766 18.9109C53.9799 19.6141 54.375 20.5679 54.375 21.5625V54.375H5.625Z" fill="#BFBFBF"/>
<path d="M9.375 21.5625H50.625V52.5H9.375V21.5625Z" fill="#F5F5F5"/>
<path d="M58.6953 57.8387H1.30466L0 56.2061V53H20.0759L22.766 53.9677H37.1536L39.6803 53H60V56.629L58.6953 57.8387Z" fill="#BFBFBF"/>
<path d="M42.1875 4.6875V36.5625C42.1875 37.3084 41.8912 38.0238 41.3637 38.5512C40.8363 39.0787 40.1209 39.375 39.375 39.375H20.625C19.8791 39.375 19.1637 39.0787 18.6363 38.5512C18.1088 38.0238 17.8125 37.3084 17.8125 36.5625V4.6875C17.8125 3.94158 18.1088 3.22621 18.6363 2.69876C19.1637 2.17132 19.8791 1.875 20.625 1.875H39.375C40.1209 1.875 40.8363 2.17132 41.3637 2.69876C41.8912 3.22621 42.1875 3.94158 42.1875 4.6875Z" fill="#3573BC"/>
<path d="M29.0625 19.6875H30.9375V22.5H29.0625V19.6875Z" fill="#FBF2FF"/>
<path d="M29.0625 24.375H30.9375V27.1875H29.0625V24.375Z" fill="#FBF2FF"/>
<path d="M29.0625 29.0625H30.9375V31.875H29.0625V29.0625Z" fill="#FBF2FF"/>
<path d="M29.0625 33.75H30.9375V36.5625H29.0625V33.75Z" fill="#FBF2FF"/>
<path d="M34.6875 26.25V20.625H38.4375V26.25H34.6875Z" fill="#FBF2FF"/>
<path d="M34.6875 35.625V30H38.4375V35.625H34.6875Z" fill="#FBF2FF"/>
<path d="M21.5625 1.875H26.25V39.375H21.5625V1.875Z" fill="#FBF2FF"/>
<path d="M32.8125 5.625H38.4375V11.25H32.8125V5.625Z" fill="#FBF2FF"/>
</svg>
