<svg width="60" height="60" viewBox="0 0 60 60" fill="none" xmlns="http://www.w3.org/2000/svg">
<path d="M0 55.1613V4.83871C0 4.30475 0.433783 3.87097 0.967742 3.87097H59.0323C59.5662 3.87097 60 4.30475 60 4.83871V55.1613C60 55.6953 59.5662 56.129 59.0323 56.129H0.967742C0.433783 56.129 0 55.6953 0 55.1613Z" fill="#F4F4F4"/>
<path d="M0 11.6129V4.83871C0 4.30475 0.433783 3.87097 0.967742 3.87097H59.0323C59.5662 3.87097 60 4.30475 60 4.83871V11.6129H0Z" fill="#989898"/>
<path d="M49.3555 6.77344H55.1619V8.70892H49.3555V6.77344Z" fill="#FBF2FF"/>
<path d="M4.83984 6.77344H6.77533V8.70892H4.83984V6.77344Z" fill="#FBF2FF"/>
<path d="M8.71094 6.77344H10.6464V8.70892H8.71094V6.77344Z" fill="#FBF2FF"/>
<path d="M12.582 6.77344H14.5175V8.70892H12.582V6.77344Z" fill="#FBF2FF"/>
<path fill-rule="evenodd" clip-rule="evenodd" d="M41.0127 16.8327C40.4283 15.2177 41.5211 13.5326 43.1168 13.105C43.3162 13.0516 43.5191 13.0186 43.7209 13.006C45.1343 12.9181 46.5289 13.8034 46.8054 15.2741L49.6425 30.3671C48.911 30.322 48.0952 30.3194 47.3366 30.3345C46.8682 30.3346 46.4204 30.502 46.0658 30.7942L41.0127 16.8327ZM44.6675 16.3378C44.6675 15.9696 44.369 15.6713 44.0008 15.6713C43.6327 15.6713 43.3342 15.9697 43.3342 16.3378C43.3342 16.706 43.6327 17.0045 44.0008 17.0045C44.369 17.0045 44.6675 16.706 44.6675 16.3378ZM25.2258 24.1148C25.7396 22.6725 26.7492 21.1147 28.4079 20.3923L39.5232 15.8418C39.5124 16.3154 39.5837 16.8016 39.7589 17.2857L40.6976 19.8793L34.1823 23.9911C33.2504 24.5327 32.9387 25.0597 32.7137 25.6694H24.6724L25.2258 24.1148ZM22.0124 28.9271L22.0275 28.8436L22.0185 28.8796C22.0163 28.8954 22.0143 28.9112 22.0124 28.9271ZM46.8002 31.9386C46.9259 31.7683 47.125 31.6678 47.3366 31.6678L49.3339 31.6677C49.7021 31.6692 49.9993 31.9688 49.9979 32.337V36.3381C49.9979 38.9118 47.9078 41.0033 45.3341 41.0033H41.333C40.7841 41.0021 40.4715 40.3744 40.8018 39.9356L46.8002 31.9386ZM10 48.3362C10 45.7625 12.0967 43.6698 14.6703 43.6698H35.3346C37.9083 43.6698 39.9984 45.7625 39.9984 48.3362C39.9984 50.9098 37.9083 53 35.3346 53H14.6703C12.0967 53 10 50.9098 10 48.3362ZM18.0022 48.3362C18.0022 47.2396 17.1015 46.3375 16.0049 46.3376C14.9083 46.3376 14.0011 47.2396 14.0011 48.3362C14.0011 49.4328 14.9083 50.3387 16.0049 50.3387C17.1015 50.3387 18.0022 49.4328 18.0022 48.3362ZM24.0006 48.3362C24.0006 47.2396 23.0999 46.3376 22.0033 46.3376C20.9067 46.3375 19.9995 47.2396 19.9995 48.3362C19.9995 49.4328 20.9066 50.3387 22.0033 50.3387C23.0999 50.3387 24.0006 49.4328 24.0006 48.3362ZM29.999 48.3362C29.9989 47.2396 29.0983 46.3375 28.0017 46.3376C26.9051 46.3375 26.0044 47.2396 26.0044 48.3362C26.0044 49.4328 26.905 50.3387 28.0017 50.3387C29.0983 50.3387 29.999 49.4328 29.999 48.3362ZM36.0039 48.3362C36.0039 47.2396 35.0967 46.3375 34.0001 46.3376C32.9035 46.3375 32.0028 47.2396 32.0028 48.3362C32.0028 49.4328 32.9034 50.3387 34.0001 50.3387C35.0967 50.3387 36.0039 49.4328 36.0039 48.3362Z" fill="#BFBFBF"/>
<path fill-rule="evenodd" clip-rule="evenodd" d="M22.0275 28.8436L22.0124 28.9271C22.0143 28.9112 22.0163 28.8954 22.0185 28.8796L20.8166 33.6702H12.0033C10.9069 33.6702 10.0008 34.5724 10.0008 35.6688V40.3392C10.0008 41.4356 10.9069 42.3364 12.0033 42.3364H34.6701C35.7666 42.3364 36.6972 41.4373 36.6726 40.3235V35.6688C36.6719 35.5844 36.6549 35.501 36.6232 35.4226L33.9567 28.7551C33.8131 28.3962 33.6497 28.005 33.3551 27.6522C33.0606 27.2994 32.5717 27.0026 32.0076 27.0026L24.0058 27.0026C22.9238 27.0026 22.1541 27.9043 22.0185 28.8796L22.0275 28.8436ZM25.3388 29.6705H25.3312C25.0317 29.674 24.7709 29.8769 24.6943 30.1665L23.6267 34.1625C23.5106 34.5872 23.8309 35.0055 24.2712 35.0048H27.3374V29.6705H25.3388ZM30.8114 29.6705H28.6709L28.6708 39.2039L28.7842 39.3744C28.9083 39.5599 29.1171 39.6707 29.3401 39.67H33.3412C33.7073 39.6685 34.0039 39.3721 34.0053 39.006V36.3381C34.0048 36.2485 33.9861 36.1599 33.9506 36.0777L31.426 30.078C31.3217 29.831 31.0796 29.6704 30.8114 29.6705ZM14.0011 37.0021C14.0055 36.6278 13.7009 36.3227 13.3266 36.3277C12.9585 36.332 12.6628 36.634 12.6678 37.0021V39.006C12.6474 39.915 14.0213 39.915 14.0011 39.006V37.0021ZM16.6689 37.0021C16.6733 36.6278 16.3688 36.3227 15.9945 36.3277C15.6263 36.332 15.3306 36.634 15.3357 37.0021V39.006C15.3161 39.9142 16.6891 39.9142 16.6689 39.006V37.0021ZM19.3355 37.0021C19.3399 36.6263 19.0329 36.3202 18.6571 36.3277C18.2905 36.3342 17.9971 36.6355 18.0022 37.0021V39.006C18.0217 39.8751 19.3153 39.8751 19.3355 39.006V37.0021Z" fill="#B30053"/>
</svg>
