<svg width="60" height="60" viewBox="0 0 60 60" fill="none" xmlns="http://www.w3.org/2000/svg">
<path d="M0 58.8889V1.11111C0 0.498047 0.433783 0 0.967742 0H59.0323C59.5662 0 60 0.498047 60 1.11111V58.8889C60 59.502 59.5662 60 59.0323 60H0.967742C0.433783 60 0 59.502 0 58.8889Z" fill="#F5F5F5"/>
<path d="M36.122 19.0408C36.6855 19.0408 37.1424 18.584 37.1424 18.0204C37.1424 17.4569 36.6855 17 36.122 17C35.5584 17 35.1016 17.4569 35.1016 18.0204C35.1016 18.584 35.5584 19.0408 36.122 19.0408Z" fill="#BFBFBF"/>
<path d="M32.0399 19.0408C32.6035 19.0408 33.0603 18.584 33.0603 18.0204C33.0603 17.4569 32.6035 17 32.0399 17C31.4764 17 31.0195 17.4569 31.0195 18.0204C31.0195 18.584 31.4764 19.0408 32.0399 19.0408Z" fill="#BFBFBF"/>
<path d="M27.9599 19.0408C28.5234 19.0408 28.9803 18.584 28.9803 18.0204C28.9803 17.4569 28.5234 17 27.9599 17C27.3963 17 26.9395 17.4569 26.9395 18.0204C26.9395 18.584 27.3963 19.0408 27.9599 19.0408Z" fill="#BFBFBF"/>
<path d="M21.7905 17.1714C21.3216 16.8589 20.6882 16.9856 20.3755 17.4544L19.8399 18.2578C18.7827 17.4483 17.4815 17 16.1224 17C12.7465 17 10 19.7465 10 23.1225C10 26.4984 12.7465 29.2449 16.1224 29.2449C19.4984 29.2449 22.2449 26.4984 22.2449 23.1225C22.2449 21.9398 21.9002 20.7853 21.264 19.8007L22.0735 18.5864C22.3861 18.1176 22.2594 17.484 21.7905 17.1714ZM16.1224 27.2041C13.8718 27.2041 12.0408 25.3731 12.0408 23.1225C12.0408 20.8719 13.8718 19.0408 16.1224 19.0408C17.0733 19.0408 17.9807 19.3709 18.7034 19.9626L16.9842 22.5412L15.8235 21.3805C15.425 20.9821 14.7789 20.9821 14.3803 21.3805C13.9818 21.779 13.9818 22.4251 14.3803 22.8237L16.4211 24.8645C16.6135 25.0568 16.8734 25.1634 17.1427 25.1634C17.4833 25.1634 17.8021 24.9934 17.9917 24.709L19.9648 21.7493C20.1214 22.187 20.2039 22.6513 20.2039 23.1226C20.2041 25.3731 18.3731 27.2041 16.1224 27.2041Z" fill="#389727"/>
<path d="M48.9803 21.0815H27.9599C27.3963 21.0815 26.9395 21.5384 26.9395 22.102C26.9395 22.6655 27.3963 23.1224 27.9599 23.1224H48.9803C49.5437 23.1224 50.0007 22.6655 50.0007 22.102C50.0007 21.5384 49.5437 21.0815 48.9803 21.0815Z" fill="#BFBFBF"/>
<path d="M41.2252 26.1837C41.2252 25.6202 40.7682 25.1633 40.2048 25.1633H27.9599C27.3963 25.1633 26.9395 25.6202 26.9395 26.1837C26.9395 26.7473 27.3963 27.2041 27.9599 27.2041H40.2048C40.7682 27.2041 41.2252 26.7473 41.2252 26.1837Z" fill="#BFBFBF"/>
<path d="M36.122 39.0408C36.6855 39.0408 37.1424 38.584 37.1424 38.0204C37.1424 37.4569 36.6855 37 36.122 37C35.5584 37 35.1016 37.4569 35.1016 38.0204C35.1016 38.584 35.5584 39.0408 36.122 39.0408Z" fill="#BFBFBF"/>
<path d="M32.0399 39.0408C32.6035 39.0408 33.0603 38.584 33.0603 38.0204C33.0603 37.4569 32.6035 37 32.0399 37C31.4764 37 31.0195 37.4569 31.0195 38.0204C31.0195 38.584 31.4764 39.0408 32.0399 39.0408Z" fill="#BFBFBF"/>
<path d="M27.9599 39.0408C28.5234 39.0408 28.9803 38.584 28.9803 38.0204C28.9803 37.4569 28.5234 37 27.9599 37C27.3963 37 26.9395 37.4569 26.9395 38.0204C26.9395 38.584 27.3963 39.0408 27.9599 39.0408Z" fill="#BFBFBF"/>
<path d="M16.1224 37C12.7465 37 10 39.7465 10 43.1224C10 46.4984 12.7465 49.2449 16.1224 49.2449C19.4984 49.2449 22.2449 46.4984 22.2449 43.1224C22.2449 39.7465 19.4984 37 16.1224 37ZM16.1224 47.2041C13.8718 47.2041 12.0408 45.3731 12.0408 43.1224C12.0408 40.8718 13.8718 39.0408 16.1224 39.0408C18.3731 39.0408 20.2041 40.8718 20.2041 43.1224C20.2041 45.3731 18.3731 47.2041 16.1224 47.2041Z" fill="#BFBFBF"/>
<path d="M48.9803 41.0815H27.9599C27.3963 41.0815 26.9395 41.5384 26.9395 42.102C26.9395 42.6655 27.3963 43.1224 27.9599 43.1224H48.9803C49.5437 43.1224 50.0007 42.6655 50.0007 42.102C50.0007 41.5384 49.5437 41.0815 48.9803 41.0815Z" fill="#BFBFBF"/>
<path d="M40.2048 45.1633H27.9599C27.3963 45.1633 26.9395 45.6202 26.9395 46.1837C26.9395 46.7473 27.3963 47.2041 27.9599 47.2041H40.2048C40.7682 47.2041 41.2252 46.7473 41.2252 46.1837C41.2252 45.6202 40.7682 45.1633 40.2048 45.1633Z" fill="#BFBFBF"/>
<path d="M0 7.74193V0.967742C0 0.433783 0.433783 0 0.967742 0H59.0323C59.5662 0 60 0.433783 60 0.967742V7.74193H0Z" fill="#989898"/>
</svg>
