<svg width="60" height="60" viewBox="0 0 60 60" fill="none" xmlns="http://www.w3.org/2000/svg">
<path d="M55.3125 1.875H4.6875C3.1342 1.875 1.875 3.1342 1.875 4.6875V55.3125C1.875 56.8658 3.1342 58.125 4.6875 58.125H55.3125C56.8658 58.125 58.125 56.8658 58.125 55.3125V4.6875C58.125 3.1342 56.8658 1.875 55.3125 1.875Z" fill="#F4F4F4"/>
<path d="M55.3125 1.875H4.6875C3.94158 1.875 3.22621 2.17132 2.69876 2.69876C2.17132 3.22621 1.875 3.94158 1.875 4.6875V9.375H58.125V4.6875C58.125 3.94158 57.8287 3.22621 57.3012 2.69876C56.7738 2.17132 56.0584 1.875 55.3125 1.875Z" fill="#989898"/>
<path d="M18.75 13.125H28.125V24.375H18.75V13.125Z" fill="#3573BC"/>
<path d="M6 13H15.375V24.25H6V13Z" fill="#3573BC"/>
<path d="M6 35H15.375V46.25H6V35Z" fill="#3573BC"/>
<path d="M26.25 28.125H20.625C19.5895 28.125 18.75 28.9645 18.75 30C18.75 31.0355 19.5895 31.875 20.625 31.875H26.25C27.2855 31.875 28.125 31.0355 28.125 30C28.125 28.9645 27.2855 28.125 26.25 28.125Z" fill="#3573BC"/>
<path d="M13.5 28H7.875C6.83947 28 6 28.8395 6 29.875C6 30.9105 6.83947 31.75 7.875 31.75H13.5C14.5355 31.75 15.375 30.9105 15.375 29.875C15.375 28.8395 14.5355 28 13.5 28Z" fill="#3573BC"/>
<path d="M13.5 50H7.875C6.83947 50 6 50.8395 6 51.875C6 52.9105 6.83947 53.75 7.875 53.75H13.5C14.5355 53.75 15.375 52.9105 15.375 51.875C15.375 50.8395 14.5355 50 13.5 50Z" fill="#3573BC"/>
<path d="M26.25 50.625H20.625C19.5895 50.625 18.75 51.4645 18.75 52.5C18.75 53.5355 19.5895 54.375 20.625 54.375H26.25C27.2855 54.375 28.125 53.5355 28.125 52.5C28.125 51.4645 27.2855 50.625 26.25 50.625Z" fill="#3573BC"/>
<path d="M39.375 50.625H33.75C32.7145 50.625 31.875 51.4645 31.875 52.5C31.875 53.5355 32.7145 54.375 33.75 54.375H39.375C40.4105 54.375 41.25 53.5355 41.25 52.5C41.25 51.4645 40.4105 50.625 39.375 50.625Z" fill="#3573BC"/>
<path d="M39.375 28.125H33.75C32.7145 28.125 31.875 28.9645 31.875 30C31.875 31.0355 32.7145 31.875 33.75 31.875H39.375C40.4105 31.875 41.25 31.0355 41.25 30C41.25 28.9645 40.4105 28.125 39.375 28.125Z" fill="#2763BB"/>
<path d="M52.5 28.125H46.875C45.8395 28.125 45 28.9645 45 30C45 31.0355 45.8395 31.875 46.875 31.875H52.5C53.5355 31.875 54.375 31.0355 54.375 30C54.375 28.9645 53.5355 28.125 52.5 28.125Z" fill="#3573BC"/>
<path d="M52.5 50.625H46.875C45.8395 50.625 45 51.4645 45 52.5C45 53.5355 45.8395 54.375 46.875 54.375H52.5C53.5355 54.375 54.375 53.5355 54.375 52.5C54.375 51.4645 53.5355 50.625 52.5 50.625Z" fill="#3573BC"/>
<path d="M21.5625 15.9375H25.3125V17.8125H21.5625V15.9375Z" fill="#FBF2FF"/>
<path d="M8.8125 15.8125H12.5625V17.6875H8.8125V15.8125Z" fill="#FBF2FF"/>
<path d="M8.8125 37.8125H12.5625V39.6875H8.8125V37.8125Z" fill="#FBF2FF"/>
<path d="M21.5625 19.6875H25.3125V21.5625H21.5625V19.6875Z" fill="#FBF2FF"/>
<path d="M8.8125 19.5625H12.5625V21.4375H8.8125V19.5625Z" fill="#FBF2FF"/>
<path d="M8.8125 41.5625H12.5625V43.4375H8.8125V41.5625Z" fill="#FBF2FF"/>
<path d="M53.4375 4.6875H55.3125V6.5625H53.4375V4.6875Z" fill="#FBF2FF"/>
<path d="M49.6875 4.6875H51.5625V6.5625H49.6875V4.6875Z" fill="#FBF2FF"/>
<path d="M45.9375 4.6875H47.8125V6.5625H45.9375V4.6875Z" fill="#FBF2FF"/>
<path d="M31.875 13.125H41.25V24.375H31.875V13.125Z" fill="#2763BB"/>
<path d="M34.6875 15.9375H38.4375V17.8125H34.6875V15.9375Z" fill="#FBF2FF"/>
<path d="M34.6875 19.6875H38.4375V21.5625H34.6875V19.6875Z" fill="#FBF2FF"/>
<path d="M45 13.125H54.375V24.375H45V13.125Z" fill="#3573BC"/>
<path d="M47.8125 15.9375H51.5625V17.8125H47.8125V15.9375Z" fill="#FBF2FF"/>
<path d="M47.8125 19.6875H51.5625V21.5625H47.8125V19.6875Z" fill="#FBF2FF"/>
<path d="M18.75 35.625H28.125V46.875H18.75V35.625Z" fill="#3573BC"/>
<path d="M21.5625 38.4375H25.3125V40.3125H21.5625V38.4375Z" fill="#FBF2FF"/>
<path d="M21.5625 42.1875H25.3125V44.0625H21.5625V42.1875Z" fill="#FBF2FF"/>
<path d="M31.875 35.625H41.25V46.875H31.875V35.625Z" fill="#3573BC"/>
<path d="M34.6875 38.4375H38.4375V40.3125H34.6875V38.4375Z" fill="#FBF2FF"/>
<path d="M34.6875 42.1875H38.4375V44.0625H34.6875V42.1875Z" fill="#FBF2FF"/>
<path d="M45 35.625H54.375V46.875H45V35.625Z" fill="#3573BC"/>
<path d="M47.8125 38.4375H51.5625V40.3125H47.8125V38.4375Z" fill="#FBF2FF"/>
<path d="M47.8125 42.1875H51.5625V44.0625H47.8125V42.1875Z" fill="#FBF2FF"/>
</svg>
