<svg width="60" height="60" viewBox="0 0 60 60" fill="none" xmlns="http://www.w3.org/2000/svg">
<g clip-path="url(#clip0_1919_1587)">
<path d="M0 53.2904V2.9678C0 2.43384 0.433783 2.00006 0.967742 2.00006H59.0323C59.5662 2.00006 60 2.43384 60 2.9678V53.2904C60 53.8243 59.5662 54.2581 59.0323 54.2581H0.967742C0.433783 54.2581 0 53.8243 0 53.2904Z" fill="#F4F4F4"/>
<path d="M57.8356 50.0001H15.218V46.8418L10.5317 43.7101L4 6.00006H51.4609L56.3724 9.6832H60V48.0013C60.0001 49.1052 59.0311 50.0001 57.8356 50.0001Z" fill="#F4F4F4"/>
<path d="M52.866 9.69244V47.7481C52.866 48.8445 51.9772 49.7332 50.8809 49.7332H53.7254C54.8217 49.7332 55.7105 48.8445 55.7105 47.7481V9.69244H52.866Z" fill="#F4F4F4"/>
<path d="M55.711 9.69248H0V4.36175C0 3.26538 0.888727 2.37665 1.98511 2.37665H53.7261C54.8224 2.37665 55.7112 3.26538 55.7112 4.36175V9.69248H55.711Z" fill="#989898"/>
<path d="M4.35133 6.94011H3.18273C2.68258 6.94011 2.27734 6.53476 2.27734 6.03472C2.27734 5.53469 2.6827 5.12933 3.18273 5.12933H4.35133C4.85148 5.12933 5.25672 5.53469 5.25672 6.03472C5.25672 6.53476 4.85148 6.94011 4.35133 6.94011Z" fill="#FBF2FF"/>
<path d="M9.35914 6.94011H8.19055C7.69039 6.94011 7.28516 6.53476 7.28516 6.03472C7.28516 5.53469 7.69051 5.12933 8.19055 5.12933H9.35914C9.8593 5.12933 10.2645 5.53469 10.2645 6.03472C10.2645 6.53476 9.85918 6.94011 9.35914 6.94011Z" fill="#FBF2FF"/>
<path d="M14.3668 6.94011H13.1984C12.6982 6.94011 12.293 6.53476 12.293 6.03472C12.293 5.53469 12.6983 5.12933 13.1984 5.12933H14.3668C14.867 5.12933 15.2722 5.53469 15.2722 6.03472C15.2722 6.53476 14.867 6.94011 14.3668 6.94011Z" fill="#FBF2FF"/>
<path d="M20.6875 14.5626H22.5625C22.8111 14.5626 23.0496 14.6613 23.2254 14.8371C23.4012 15.013 23.5 15.2514 23.5 15.5001H25.375C25.375 14.7541 25.0787 14.0388 24.5512 13.5113C24.0238 12.9839 23.3084 12.6876 22.5625 12.6876H20.6875C19.9416 12.6876 19.2262 12.9839 18.6988 13.5113C18.1713 14.0388 17.875 14.7541 17.875 15.5001V19.2501C17.875 19.996 18.1713 20.7114 18.6988 21.2388C19.2262 21.7662 19.9416 22.0626 20.6875 22.0626H22.5625C23.3084 22.0626 24.0238 21.7662 24.5512 21.2388C25.0787 20.7114 25.375 19.996 25.375 19.2501H23.5C23.5 19.4987 23.4012 19.7372 23.2254 19.913C23.0496 20.0888 22.8111 20.1876 22.5625 20.1876H20.6875C20.4389 20.1876 20.2004 20.0888 20.0246 19.913C19.8488 19.7372 19.75 19.4987 19.75 19.2501V15.5001C19.75 15.2514 19.8488 15.013 20.0246 14.8371C20.2004 14.6613 20.4389 14.5626 20.6875 14.5626Z" fill="#626262"/>
<path d="M33.8125 15.5001C33.8125 14.7541 33.5162 14.0388 32.9887 13.5113C32.4613 12.9839 31.7459 12.6876 31 12.6876H27.25C27.0014 12.6876 26.7629 12.7863 26.5871 12.9621C26.4113 13.138 26.3125 13.3764 26.3125 13.6251V22.0626H28.1875V18.3126H29.7813L30.0175 18.4701C30.6088 18.8643 31.0934 19.3986 31.4284 20.0253C31.7634 20.6521 31.9382 21.3519 31.9375 22.0626H33.8125C33.8124 20.5641 33.2677 19.1167 32.2797 17.9901C32.7395 17.7562 33.1259 17.4 33.3963 16.9607C33.6668 16.5213 33.8108 16.0159 33.8125 15.5001ZM28.1875 14.5626H31C31.2486 14.5626 31.4871 14.6613 31.6629 14.8371C31.8387 15.013 31.9375 15.2514 31.9375 15.5001C31.9375 15.7487 31.8387 15.9872 31.6629 16.163C31.4871 16.3388 31.2486 16.4376 31 16.4376H28.1875V14.5626Z" fill="#626262"/>
<path d="M43.4032 12.712C43.1974 12.6633 42.9813 12.6857 42.7898 12.7754C42.5984 12.8651 42.4428 13.0168 42.3485 13.206L39.4376 19.0289L36.5313 13.206C36.4384 13.0142 36.283 12.8598 36.0906 12.7681C35.8982 12.6765 35.6803 12.6532 35.4728 12.702C35.2653 12.7508 35.0807 12.8688 34.9493 13.0366C34.8179 13.2044 34.7477 13.412 34.7501 13.6251V22.0626H36.6251V17.5964L38.5938 21.5442C38.6804 21.6895 38.8033 21.8098 38.9504 21.8933C39.0975 21.9769 39.2637 22.0208 39.4329 22.0208C39.602 22.0208 39.7683 21.9769 39.9154 21.8933C40.0624 21.8098 40.1853 21.6895 40.2719 21.5442L42.2501 17.5964V22.0626H44.1251V13.6251C44.1252 13.4138 44.054 13.2087 43.923 13.0429C43.792 12.8772 43.6088 12.7606 43.4032 12.712Z" fill="#626262"/>
<path d="M58.2479 42.2688L59.3629 42.9391C59.7567 43.1759 59.9978 43.6019 59.9978 44.0615V46.5939C60.0585 47.8471 58.3144 47.987 57.7885 48.8542L55.3187 53.1321C54.8309 54.0209 55.5815 55.6018 54.466 56.1755L52.2728 57.4418C51.2179 58.121 50.2246 56.6806 49.2107 56.6587H44.271C43.2574 56.6805 42.2637 58.1211 41.209 57.4418L39.0158 56.1755C37.9002 55.6014 38.651 54.0212 38.163 53.1321L35.6933 48.8542C35.1676 47.9873 33.423 47.847 33.484 46.5939V44.0615C33.4233 42.8083 35.1673 42.6684 35.6933 41.8012L38.163 37.5233C38.6509 36.6345 37.9003 35.0536 39.0158 34.4799L41.209 33.2136C42.2639 32.5344 43.2572 33.9748 44.271 33.9967H49.2107C50.2244 33.9749 51.2181 32.5342 52.2728 33.2136L54.466 34.4799C55.5816 35.054 54.8308 36.6342 55.3187 37.5233L57.7885 41.8012C57.8995 41.9935 58.0577 42.1544 58.2479 42.2688Z" fill="#EACB14"/>
<path d="M59.363 42.939C58.9883 42.6771 57.9898 42.2382 57.7887 41.8011L55.3189 37.5232C54.8311 36.6345 55.5817 35.0535 54.4661 34.4798L52.2729 33.2135C51.6081 32.7701 50.8289 33.2654 50.2461 33.6106L51.7513 34.4797C52.867 35.0538 52.1161 36.634 52.6041 37.5231L55.0739 41.801C55.5996 42.6679 57.3441 42.8082 57.2831 44.0613V46.5937C57.3438 47.8469 55.5998 47.9868 55.0739 48.854L52.6041 53.1319C52.3266 53.5196 52.4448 54.6144 52.4059 55.0643C52.4871 56.0903 50.9035 56.5901 50.2461 57.0444C50.8298 57.39 51.6074 57.8847 52.2729 57.4415L54.4661 56.1752C55.5817 55.6011 54.8309 54.0209 55.3189 53.1318L57.7887 48.8539C58.3144 47.987 60.0589 47.8466 59.998 46.5936V44.0614C59.998 43.6018 59.757 43.1758 59.363 42.939Z" fill="#EACB14"/>
<path d="M46.7406 52.8104C50.8733 52.8104 54.2235 49.4602 54.2235 45.3276C54.2235 41.195 50.8733 37.8448 46.7406 37.8448C42.608 37.8448 39.2578 41.195 39.2578 45.3276C39.2578 49.4602 42.608 52.8104 46.7406 52.8104Z" fill="#F4F4F4"/>
<path d="M46.7421 37.8448C46.2783 37.8448 45.8251 37.8892 45.3848 37.9699C48.869 38.6088 51.5102 41.6588 51.5102 45.3276C51.5102 48.9964 48.869 52.0465 45.3848 52.6853C45.8251 52.766 46.2784 52.8104 46.7421 52.8104C50.8747 52.8104 54.2249 49.4602 54.2249 45.3276C54.2249 41.195 50.8747 37.8448 46.7421 37.8448Z" fill="#F4F4F4"/>
<path d="M15 54.0001H2.03389C0.910568 54.0001 0 53.0013 0 51.7691V9.00006H15V54.0001Z" fill="#BFBFBF"/>
<path d="M0 9.742V2.9678C0 2.43384 0.433783 2.00006 0.967742 2.00006H59.0323C59.5662 2.00006 60 2.43384 60 2.9678V9.742H0Z" fill="#989898"/>
<path d="M49.3555 5.00006H55.1619V6.93554H49.3555V5.00006Z" fill="#FBF2FF"/>
<path d="M4.83789 5.00006H6.77337V6.93554H4.83789V5.00006Z" fill="#FBF2FF"/>
<path d="M8.70898 5.00006H10.6445V6.93554H8.70898V5.00006Z" fill="#FBF2FF"/>
<path d="M12.5801 5.00006H14.5156V6.93554H12.5801V5.00006Z" fill="#FBF2FF"/>
<path d="M9.5124 16.1578H5.12607C4.62593 16.1578 4.2207 15.7525 4.2207 15.2525C4.2207 14.7523 4.62604 14.3471 5.12607 14.3471H9.5124C10.0125 14.3471 10.4178 14.7524 10.4178 15.2525C10.4178 15.7525 10.0124 16.1578 9.5124 16.1578Z" fill="#FBF2FF"/>
<path d="M9.5124 21.7177H5.12607C4.62593 21.7177 4.2207 21.3123 4.2207 20.8123C4.2207 20.3123 4.62604 19.9069 5.12607 19.9069H9.5124C10.0125 19.9069 10.4178 20.3123 10.4178 20.8123C10.4178 21.3123 10.0124 21.7177 9.5124 21.7177Z" fill="#FBF2FF"/>
<path d="M9.5124 27.2777H5.12607C4.62593 27.2777 4.2207 26.8724 4.2207 26.3723C4.2207 25.8722 4.62604 25.467 5.12607 25.467H9.5124C10.0125 25.467 10.4178 25.8723 10.4178 26.3723C10.4178 26.8724 10.0124 27.2777 9.5124 27.2777Z" fill="#FBF2FF"/>
<path d="M9.5124 32.8377H5.12607C4.62593 32.8377 4.2207 32.4323 4.2207 31.9323C4.2207 31.4323 4.62604 31.0269 5.12607 31.0269H9.5124C10.0125 31.0269 10.4178 31.4323 10.4178 31.9323C10.4178 32.4323 10.0124 32.8377 9.5124 32.8377Z" fill="#FBF2FF"/>
<path d="M9.5124 38.3975H5.12607C4.62593 38.3975 4.2207 37.9921 4.2207 37.4921C4.2207 36.992 4.62604 36.5867 5.12607 36.5867H9.5124C10.0125 36.5867 10.4178 36.9921 10.4178 37.4921C10.4178 37.9922 10.0124 38.3975 9.5124 38.3975Z" fill="#FBF2FF"/>
</g>
<defs>
<clipPath id="clip0_1919_1587">
<rect width="60" height="60" fill="white"/>
</clipPath>
</defs>
</svg>
