<svg width="126" height="63" fill="none" xmlns="http://www.w3.org/2000/svg"><path d="M28.424 25.271C25.187 11.088 18.44 7.312 16.718 4.643a30.283 30.283 0 0 1-1.88-3.658c-.091 1.26-.258 2.054-1.337 3.01-2.165 1.916-11.36 9.359-12.133 25.474-.721 15.026 11.12 24.291 12.685 25.249 1.203.588 2.668.012 3.383-.528 5.708-3.89 13.508-14.265 10.994-28.919" fill="#10AA50"/><path d="M15.328 46.717c-.298 3.719-.511 5.88-1.268 8.005 0 0 .496 3.54.845 7.29h1.235a67.781 67.781 0 0 1 1.347-7.85c-1.599-.782-2.098-4.182-2.159-7.445Z" fill="#B8C4C2"/><path d="M17.485 54.163c-1.616-.741-2.083-4.212-2.155-7.446.4-5.335.516-10.687.35-16.034-.085-2.805.04-25.985-.697-29.379a28.134 28.134 0 0 0 1.736 3.337c1.721 2.671 8.47 6.447 11.705 20.63 2.52 14.629-5.237 24.976-10.94 28.892Z" fill="#12924F"/><path d="M44.79 50.822c.652.514 1.956.726 3.107.726 1.49 0 2.951-.272 4.379-1.543 1.454-1.302 2.454-3.294 2.454-6.475 0-3.056-1.18-5.537-3.603-6.99-1.367-.846-3.137-1.18-5.157-1.18-.581 0-1.18.03-1.52.182a.786.786 0 0 0-.281.43c-.061.544-.061 4.69-.061 7.14 0 2.512 0 6.015.06 6.445.033.364.219 1.002.621 1.27M38.59 34c.529 0 2.535.09 3.468.09 1.745 0 2.95-.09 6.212-.09 2.733 0 5.033.726 6.678 2.117C56.936 37.813 58 40.172 58 43.046c0 4.085-1.89 6.445-3.79 7.776C52.32 52.214 49.86 53 46.358 53c-1.864 0-5.064-.06-7.735-.09h-.055c-.125-.242.228-1.186.446-1.21.727-.08.92-.11 1.254-.245.564-.228.696-.512.759-1.51.093-1.876.062-4.115.062-6.657 0-1.815.03-5.355-.03-6.475-.095-.937-.496-1.179-1.309-1.36a17.116 17.116 0 0 0-1.745-.273c-.06-.182.416-1.002.572-1.18m26.78 1.48c-.128.03-.289.333-.289.483a267.356 267.356 0 0 0-.065 5.89.192.192 0 0 0 .057.1.209.209 0 0 0 .105.052c.417.03 1.447.061 2.316.061 1.223 0 1.93-.151 2.316-.333 1.03-.483 1.506-1.541 1.506-2.688 0-2.628-1.93-3.625-4.794-3.625a9.087 9.087 0 0 0-1.158.06m7.304 12.083c0-2.658-2.06-4.168-5.825-4.168-.16 0-1.355-.03-1.64.03-.096.03-.193.09-.193.152 0 1.903-.033 4.953.065 6.161.065.514.452 1.239.932 1.45.515.272 1.673.332 2.478.332 2.22 0 4.183-1.177 4.183-3.957ZM59.545 34c.29 0 1.145.09 3.333.09 2.06 0 3.732-.06 5.723-.06 2.478 0 5.887.847 5.887 4.35 0 1.716-1.286 3.112-2.96 3.776-.096.03-.096.09 0 .12C73.91 42.85 76 44.24 76 46.899c0 2.599-1.705 4.23-4.182 5.257-1.506.635-3.378.845-5.271.845-1.447 0-5.327-.143-7.483-.12-.226-.09.206-1.058.399-1.208a6.226 6.226 0 0 0 1.46-.218c.77-.18.862-.416.958-1.504.065-.937.065-4.29.065-6.677 0-3.263.033-5.466 0-6.555-.031-.845-.354-1.118-.965-1.268-.482-.092-1.286-.182-1.93-.272-.16-.151.335-1.058.495-1.178M38.288 26a1.202 1.202 0 0 1-.094-.582.708.708 0 0 1 .094-.388c.397-.054.79-.13 1.178-.228.544-.128.748-.409.78-1.065.088-1.552.094-4.464.062-6.51v-.06c0-.221 0-.52-.287-.732a6.346 6.346 0 0 0-1.628-.681c-.258-.073-.4-.2-.393-.35.007-.15.17-.328.505-.39.89-.086 3.22-.613 4.136-1.014a.554.554 0 0 1 .122.409c0 .09-.014.185-.024.283-.026.289-.055.617-.055.944.006.04.023.078.05.109a.227.227 0 0 0 .102.067.24.24 0 0 0 .233-.052c1.744-1.295 3.306-1.757 4.106-1.757 1.318 0 2.345.597 3.14 1.825a.2.2 0 0 0 .075.072.22.22 0 0 0 .103.028.214.214 0 0 0 .094-.023.201.201 0 0 0 .072-.061c1.603-1.153 3.19-1.841 4.254-1.841 2.513 0 4.015 1.783 4.015 4.769 0 .858-.009 1.947-.018 2.962-.007.891-.014 1.726-.014 2.304 0 .136.198.529.496.606.368.17.898.258 1.57.367h.025c.05.172-.056.838-.158.974-.167 0-.397-.014-.684-.027a41.74 41.74 0 0 0-2.07-.059c-1.67 0-2.542.03-3.376.082-.063-.198-.084-.835-.008-.969a9.27 9.27 0 0 0 1.023-.211c.532-.166.686-.395.719-1.064.013-.476.109-4.666-.062-5.66-.158-1.032-.977-2.239-2.77-2.239-.665 0-1.739.263-2.762.999a.371.371 0 0 0-.1.247v.02c.12.537.12 1.163.12 2.11 0 .546 0 1.114-.007 1.682-.007 1.155-.013 2.245.007 3.07 0 .561.358.696.647.804.157.032.28.06.405.088.24.056.49.113.862.17.055.239.05.487-.014.724a.564.564 0 0 1-.108.247 93.193 93.193 0 0 0-3.257-.056c-.416 0-1.096.016-1.697.031-.487.012-.947.025-1.209.026a1.07 1.07 0 0 1-.091-.501.83.83 0 0 1 .096-.47l.37-.063c.321-.055.6-.101.861-.164.455-.136.626-.37.659-.92.089-1.28.158-4.971-.033-5.895-.325-1.483-1.215-2.235-2.646-2.235-.838 0-1.897.383-2.763.998a.798.798 0 0 0-.192.27.762.762 0 0 0-.062.322v1.525c0 1.853-.013 4.16.035 5.157.028.308.143.673.751.807.134.037.364.072.631.114.154.025.322.05.496.08a1.97 1.97 0 0 1-.082.975c-.267 0-.596-.016-.973-.031a47.784 47.784 0 0 0-2.105-.055c-.96 0-1.629.03-2.165.055-.36.016-.672.03-.984.031M69.4 15.199a2.466 2.466 0 0 0-1.373.383c-.998.602-1.507 1.805-1.507 3.572 0 3.308 1.67 5.62 4.06 5.62.642.02 1.267-.2 1.752-.616.735-.594 1.125-1.81 1.125-3.51 0-3.258-1.632-5.45-4.06-5.45M69.857 26C65.537 26 64 22.856 64 19.915c0-2.054.846-3.66 2.516-4.775A7.727 7.727 0 0 1 70.403 14C73.698 14 76 16.35 76 19.719c0 2.288-.919 4.096-2.659 5.225-.835.507-2.287 1.056-3.484 1.056Zm46.989-10.801a2.829 2.829 0 0 0-1.489.383c-1.082.602-1.633 1.805-1.633 3.572 0 3.308 1.809 5.62 4.399 5.62a2.932 2.932 0 0 0 1.904-.616c.796-.594 1.217-1.81 1.217-3.51 0-3.258-1.767-5.45-4.398-5.45ZM117.345 26c-4.679 0-6.345-3.144-6.345-6.083 0-2.058.917-3.662 2.727-4.777a8.873 8.873 0 0 1 4.21-1.14c3.569 0 6.063 2.352 6.063 5.718 0 2.29-.996 4.097-2.88 5.225-.905.508-2.478 1.057-3.775 1.057Zm-16.624-10.831c-1.536 0-2.53 1.11-2.53 2.829s.856 3.762 3.262 3.762c.413 0 1.162-.168 1.533-.542.56-.47.932-1.443.932-2.47 0-2.241-1.193-3.58-3.189-3.58m-.199 11.864a2.717 2.717 0 0 0-1.242.284c-1.217.711-1.78 1.422-1.78 2.248 0 .773.327 1.39 1.032 1.935.855.663 2.007.985 3.522.985 2.981 0 4.317-1.467 4.317-2.92 0-1.012-.554-1.69-1.696-2.074-.88-.295-2.349-.457-4.148-.457m.199 6.967c-1.79 0-3.08-.346-4.18-1.122-1.072-.756-1.554-1.88-1.554-2.656.012-.5.22-.98.587-1.35.31-.325 1.033-.932 2.703-1.982a.14.14 0 0 0 .064-.049.123.123 0 0 0-.006-.152.14.14 0 0 0-.076-.045c-1.375-.482-1.79-1.28-1.916-1.706 0-.016 0-.04-.014-.067-.039-.168-.076-.327.174-.49.193-.126.5-.294.83-.471.465-.236.91-.501 1.334-.795a.197.197 0 0 0 .05-.079.184.184 0 0 0-.032-.174.213.213 0 0 0-.074-.06c-2.035-.625-3.06-2.009-3.06-4.123a3.82 3.82 0 0 1 .489-1.897 4.226 4.226 0 0 1 1.39-1.477c.82-.593 2.875-1.305 4.206-1.305h.078c1.368.03 2.14.293 3.209.654a5.531 5.531 0 0 0 1.898.276c1.133 0 1.628-.329 2.054-.711.069.172.106.354.109.537.026.438-.104.87-.37 1.235-.231.294-.777.507-1.275.507-.052 0-.101 0-.156-.007a4.533 4.533 0 0 1-.776-.118l-.128.041c-.04.054-.014.114.019.19a.215.215 0 0 1 .018.048c.091.38.153.764.185 1.151 0 2.211-.952 3.174-1.982 3.887a7.142 7.142 0 0 1-3.418 1.212c-.026 0-.155.01-.397.03-.156.012-.358.03-.387.03h-.03c-.223.056-.807.31-.807.784 0 .393.264.88 1.527.968l.817.053c1.665.107 3.745.239 4.724.542.649.209 1.21.6 1.602 1.117.393.518.597 1.135.584 1.765 0 1.983-1.541 3.848-4.122 4.989a9.653 9.653 0 0 1-3.897.8m-6.796-9.113c-.662-.085-1.145-.17-1.715-.426a.74.74 0 0 1-.212-.403c-.06-.88-.06-3.432-.06-5.102 0-1.363-.24-2.551-.845-3.404-.723-.965-1.745-1.532-3.07-1.532-1.173 0-2.738.765-4.03 1.815-.032.029-.23.208-.226-.07.004-.28.049-.847.077-1.21a.594.594 0 0 0-.033-.285.62.62 0 0 0-.164-.24c-.845.402-3.216.94-4.093 1.021-.64.118-.802.705-.119.908h.01a5.99 5.99 0 0 1 1.55.65c.27.199.24.482.24.709.03 1.9.03 4.822-.06 6.41-.03.624-.211.851-.693.965l.045-.014a9.777 9.777 0 0 1-1.114.198c-.15.141-.15.964 0 1.135.301 0 1.831-.085 3.099-.085 1.743 0 2.646.085 3.099.085.181-.199.24-.964.12-1.135a6.62 6.62 0 0 1-1.235-.17c-.48-.113-.601-.341-.63-.85-.06-1.335-.06-4.17-.06-6.1 0-.537.15-.794.33-.94.601-.51 1.596-.85 2.468-.85.845 0 1.408.255 1.83.595.493.41.802.983.863 1.603.12 1.074.088 3.235.088 5.102 0 1.022-.088 1.279-.48 1.392-.18.084-.662.17-1.234.226-.18.17-.12.965 0 1.135.782 0 1.69-.085 3.009-.085 1.655 0 2.709.085 3.13.085.18-.199.24-.94.12-1.135" fill="#21313C"/></svg>