<svg width="64" height="64" fill="none" xmlns="http://www.w3.org/2000/svg"><path d="M4.549 32c0 10.865 6.315 20.255 15.472 24.705L6.926 20.827A27.347 27.347 0 0 0 4.549 32Zm45.984-1.386c0-3.393-1.218-5.742-2.264-7.571-1.391-2.261-2.695-4.176-2.695-6.438 0-2.523 1.913-4.872 4.61-4.872.121 0 .237.015.355.022a27.352 27.352 0 0 0-18.538-7.206c-9.59 0-18.028 4.92-22.937 12.373.644.02 1.251.033 1.767.033 2.871 0 7.316-.348 7.316-.348 1.48-.088 1.654 2.086.176 2.26 0 0-1.487.176-3.142.262l9.997 29.735 6.008-18.017-4.277-11.719a50.013 50.013 0 0 1-2.88-.261c-1.479-.087-1.305-2.349.174-2.262 0 0 4.534.349 7.231.349 2.871 0 7.317-.349 7.317-.349 1.48-.087 1.654 2.087.175 2.262 0 0-1.49.175-3.142.261l9.921 29.51 2.739-9.15c1.186-3.797 2.09-6.524 2.09-8.874Z" fill="#464342"/><path d="m32.483 34.4-8.237 23.934a27.453 27.453 0 0 0 16.871-.438 2.415 2.415 0 0 1-.195-.378l-8.44-23.117ZM56.09 18.829c.117.874.184 1.813.184 2.822 0 2.786-.52 5.918-2.087 9.833L45.8 55.728C53.963 50.968 59.452 42.127 59.452 32c0-4.773-1.218-9.261-3.363-13.171Z" fill="#464342"/><path d="M32.001 0C14.356 0 0 14.355 0 32c0 17.646 14.356 32 32.001 32 17.644 0 32.003-14.354 32.003-32S49.645 0 32 0Zm0 62.533C15.165 62.533 1.467 48.836 1.467 32c0-16.835 13.698-30.532 30.534-30.532 16.835 0 30.532 13.697 30.532 30.532 0 16.837-13.697 30.534-30.532 30.534Z" fill="#464342"/></svg>