<svg width="145" height="85" viewBox="0 0 145 85" fill="none" xmlns="http://www.w3.org/2000/svg">
<path fill-rule="evenodd" clip-rule="evenodd" d="M110.359 31.5115V27.9981C110.713 27.9981 122.878 28.0353 129.23 27.9981V31.5131C128.671 32.1068 115.762 45.3641 115.519 45.6063H129.23V49.1015H110.321C110.321 48.0043 110.303 46.8516 110.359 45.6245C110.359 45.6245 123.921 31.7173 124.145 31.5123C124.033 31.4941 115.556 31.5123 110.359 31.5123V31.5115ZM85.2839 49.1007V35.5466C85.3029 29.0573 89.8859 24.4838 96.3681 24.4648H99.3307V28.0163C98.2317 28.0163 97.1319 27.9981 96.0147 28.0353C92.8105 28.1097 90.2583 29.8759 89.271 32.6649C89.2148 32.8138 89.1775 33.037 89.1031 33.3157H95.9212V36.8299H88.8606V49.1007H85.2839V49.1007ZM69.3379 49.1007V35.5466C69.3561 29.0573 73.9391 24.4838 80.4221 24.4648H83.3839V28.0163C82.2849 28.0163 81.1859 27.9981 80.0679 28.0353C76.8636 28.1097 74.3115 29.8759 73.325 32.6649C73.2687 32.8138 73.2315 33.037 73.157 33.3157H79.9752V36.8299H72.9146V49.1007H69.3379Z" fill="#F57825"/>
<path d="M19.4118 27.8301C17.4182 25.5247 14.6418 24.186 11.5873 24.0182C11.4011 24 11.2149 24 11.0097 24C8.12238 24 5.365 25.1527 3.27874 27.2538C1.17347 29.3548 0.0190164 32.1249 0 35.0438V49.6025H4.45301V44.1178C4.45301 41.1428 4.43399 38.075 4.47123 35.0445C4.50847 32.4788 5.64391 30.5637 7.84268 29.3548C10.0407 28.146 12.2957 28.1832 14.4746 29.4475C16.9705 30.9168 18.182 33.8175 17.4737 36.6991C16.7843 39.4882 14.3629 41.4776 11.4566 41.6447C10.7863 41.6819 10.2459 41.6819 9.55653 41.6819C9.1659 41.6819 8.73724 41.6819 8.21508 41.7009H7.13511L7.11609 42.1284C7.07885 42.909 7.07885 43.9318 7.07885 44.824V46.0701L7.52653 46.0883C8.1406 46.1255 8.71822 46.1437 9.31486 46.1437C10.0597 46.1437 10.7308 46.1255 11.5128 46.0883C17.1013 45.8468 21.5353 41.6447 22.0566 36.0666C22.3363 33.0361 21.4045 30.1172 19.4118 27.8301V27.8301ZM55.2347 27.5704H55.142C49.0884 27.5704 44.1141 32.4597 44.0768 38.4843C44.0578 41.4404 45.194 44.2295 47.2993 46.3488C48.3239 47.3868 49.545 48.2108 50.8914 48.7727C52.2379 49.3345 53.6828 49.6231 55.142 49.6215H55.161C61.2146 49.6215 66.1707 44.676 66.1889 38.577C66.208 32.5524 61.2898 27.6068 55.2355 27.5696L55.2347 27.5704ZM55.1983 45.1589H55.1792C54.2948 45.16 53.419 44.9846 52.6033 44.643C51.7876 44.3013 51.0484 43.8003 50.4291 43.1694C49.1811 41.9051 48.4918 40.2323 48.51 38.4843C48.5473 34.9693 51.6026 32.014 55.1792 32.014H55.1983C56.9303 32.014 58.5697 32.7012 59.7994 33.9473C61.0474 35.1934 61.7185 36.848 61.7185 38.6142C61.6995 42.2028 58.7749 45.1589 55.1975 45.1589H55.1983ZM43.6482 30.6563C43.5881 30.6115 43.532 30.5617 43.4802 30.5075C43.3631 30.4134 43.245 30.3205 43.126 30.2288C40.8916 28.4254 38.5066 27.496 36.0107 27.496C34.4823 27.496 32.8992 27.8491 31.3343 28.537C27.2172 30.3587 24.963 33.762 24.8132 38.3909C24.7395 40.5854 24.7578 42.8163 24.7768 44.9538C24.7768 45.9213 24.795 46.9069 24.795 47.8735V49.5099H29.2662V45.8286C29.2662 43.4489 29.248 40.9757 29.2852 38.5587C29.3225 35.8995 30.5142 33.9291 32.8429 32.7202C35.1534 31.5121 37.4821 31.6792 39.7546 33.2031C39.9598 33.3338 40.1642 33.4826 40.3504 33.6124C40.4249 33.6678 40.5184 33.724 40.5929 33.7803L40.9098 34.0035L44.076 30.935L43.6482 30.6563V30.6563Z" fill="#F57825"/>
<path fill-rule="evenodd" clip-rule="evenodd" d="M106.391 49.1203H103.001V31.6055H106.391V49.1203ZM106.391 27.9986H103.001V24.5391H106.391V27.9986V27.9986Z" fill="#F57825"/>
<path fill-rule="evenodd" clip-rule="evenodd" d="M134.521 55.7018H135.601V57.1521C136.123 56.1293 136.588 55.6274 137.874 55.7018V56.7056C136.458 56.7056 135.769 57.7094 135.694 59.3086C135.657 60.2008 135.694 60.9078 135.694 61.8372H134.521V55.7018ZM124.852 61.8H123.53C123.287 61.0376 123.026 60.2934 122.784 59.5501C122.542 58.8059 122.3 58.0815 122.057 57.2819C121.61 58.6761 121.015 60.4423 120.642 61.8H119.319C118.741 59.9222 117.903 57.5424 117.289 55.6828H118.537C118.909 56.9471 119.58 59.197 119.99 60.5539C120.363 59.364 121.369 55.9622 121.424 55.6828H122.672C123.101 57.1331 123.659 59.0482 124.125 60.5729C124.629 58.8993 125.094 57.3192 125.579 55.701H126.827C126.156 57.7657 125.504 59.7733 124.852 61.8V61.8ZM143.406 56.4079V53.2468H144.524V61.819H143.388V61.0004C142.773 61.6884 142.103 62.0232 141.246 61.967C140.352 61.9116 139.644 61.5585 139.215 60.7954C138.47 59.4947 138.47 58.1559 139.14 56.8172C139.867 55.4413 142.084 54.9576 143.406 56.4079V56.4079ZM143.406 58.7877C143.406 58.6389 143.425 58.49 143.406 58.342C143.295 57.3746 142.68 56.6494 141.916 56.575C141.04 56.4824 140.315 56.9471 140.035 57.8021C139.812 58.4718 139.83 59.1408 140.072 59.8105C140.37 60.6283 140.985 61.0004 141.842 60.945C142.792 60.8706 143.406 60.0338 143.406 58.7877V58.7877ZM74.0687 53.2468H75.2057V56.8354C75.8951 55.887 76.7143 55.4785 77.7571 55.5339C78.8569 55.6084 79.5834 56.2591 79.6207 57.3746C79.6579 58.8439 79.6389 60.3124 79.6389 61.819H78.4845V58.7133C78.4845 58.323 78.4845 57.9137 78.41 57.5234C78.2792 56.8354 77.8133 56.5378 77.124 56.613C76.1367 56.7238 75.3547 57.5052 75.2984 58.49C75.2429 59.364 75.2612 60.238 75.2429 61.112V61.8182H74.0877C74.0695 58.9737 74.0695 56.1293 74.0695 53.2468H74.0687ZM93.2016 58.9919V61.8H92.0281V53.2286H93.1825V57.8583H94.1516C94.7094 57.1387 95.2683 56.4198 95.8282 55.7018H97.0761C96.4985 56.4824 95.9027 57.2447 95.3251 57.9881C95.1943 58.1559 95.0271 58.3602 95.0271 58.3602C95.0271 58.3602 96.6847 60.7962 97.3368 61.7818H96.0144C95.642 61.2047 94.4867 59.5873 94.1698 58.9737C94.1516 58.9927 93.7419 58.9927 93.2016 58.9927V58.9919ZM108.682 55.5339C110.564 55.5529 111.979 56.9289 111.979 58.7323C111.998 60.5729 110.526 61.986 108.589 61.967C106.707 61.9488 105.254 60.5175 105.273 58.6951C105.31 56.8917 106.763 55.5157 108.682 55.5339V55.5339ZM106.521 58.7505C106.521 60.052 107.434 60.9632 108.682 60.945C109.893 60.926 110.769 59.9966 110.769 58.7133C110.769 57.468 109.837 56.5378 108.626 56.5378C107.416 56.5568 106.521 57.4862 106.521 58.7505V58.7505ZM132.639 61.8372H131.596V60.8152C130.776 61.9678 129.807 62.2283 128.652 61.819C127.964 61.5585 127.535 61.0566 127.479 60.2752C127.423 59.4757 127.851 58.6397 128.634 58.3048C129.416 57.9699 131.074 57.9517 131.409 57.9327C131.558 56.4642 130.497 56.1855 128.354 57.0587C128.205 56.799 128.056 56.5568 127.889 56.2591C129.063 55.5347 130.236 55.2933 131.503 55.8134C132.23 56.1111 132.583 56.7428 132.62 57.468C132.676 58.9001 132.639 60.3314 132.639 61.838V61.8372ZM131.447 58.8067C130.776 58.8067 130.161 58.8067 129.547 58.9555C128.802 59.1416 128.522 59.7923 128.746 60.3687C128.951 60.9268 129.621 61.1864 130.273 60.964C131.037 60.6845 131.521 59.8667 131.447 58.8067ZM89.01 61.8182V59.5699C89.01 59.0862 89.0282 58.6214 89.01 58.1377C88.991 57.5614 88.991 56.9479 88.3389 56.6874C87.6686 56.4277 87.0165 56.5948 86.5506 57.0785C86.1964 57.4506 85.8985 57.9889 85.824 58.4908C85.694 59.3648 85.7685 60.276 85.7495 61.1682V61.8008H84.576V55.6828H85.6568V56.8172C85.843 56.6122 85.9357 56.5196 86.0102 56.4079C86.7558 55.5339 87.7431 55.3479 88.8048 55.5902C89.6241 55.7762 90.0718 56.4262 90.109 57.2075C90.1835 58.7133 90.1272 60.238 90.1272 61.7818C89.7739 61.8182 89.4379 61.8182 89.01 61.8182V61.8182ZM104.546 56.6866H103.093V61.8008H101.957V56.6866H101.211V55.6828H101.957C102.012 54.865 101.975 54.0836 102.739 53.5635C103.298 53.1914 103.839 53.1914 104.695 53.1914V54.1208C103.336 54.0836 103.075 54.5483 103.093 55.6646H104.546V56.6866V56.6866ZM69.9334 56.6684H69.1514V55.6828H69.9334V54.01H71.1259V55.6836H72.5973V56.6684H71.1077C71.1077 57.7847 71.0696 58.8067 71.1814 59.9039C71.2368 60.5547 71.6663 60.8706 72.6908 60.8334V61.819C71.1069 61.9116 70.1569 61.4287 69.9889 60.071C69.8962 59.2342 69.9334 58.361 69.9152 57.506C69.9152 57.2637 69.9334 56.9661 69.9334 56.6684V56.6684ZM113.451 55.7018H114.532V57.1521C115.053 56.1293 115.519 55.6274 116.804 55.7018V56.7056C115.389 56.7056 114.7 57.7094 114.625 59.3086C114.588 60.2008 114.625 60.9078 114.625 61.8372H113.451V55.7018ZM81.4835 61.8182V55.72H82.6197V61.8182H81.4835ZM82.6387 53.2468V54.4003H81.5025V53.2468H82.6387Z" fill="black"/>
</svg>
