<svg width="145" height="85" viewBox="0 0 145 85" fill="none" xmlns="http://www.w3.org/2000/svg">
<path d="M36.4434 43.984V55.7736L41.3667 55.7592L41.4453 43.984C41.46 42.9486 41.7521 41.9364 42.2905 41.0548C42.8289 40.1731 43.5936 39.4548 44.5037 38.976V33.6699C42.2232 34.2561 40.1978 35.5842 38.7408 37.4486C37.2837 39.3131 36.4763 41.61 36.4434 43.984V43.984Z" fill="black"/>
<path d="M57.7034 43.9849C57.6684 41.6294 56.8719 39.3499 55.435 37.4929C53.9982 35.636 51.9996 34.3032 49.7432 33.6973V38.9985C50.6439 39.4795 51.3997 40.1964 51.9312 41.0738C52.4626 41.9512 52.7501 42.9568 52.7634 43.9849C52.7634 55.7601 52.8015 55.7601 52.8015 55.7601H57.8035L57.7034 43.9849Z" fill="black"/>
<path d="M17.3303 38.2168H10.4229V42.5424H17.3303V38.2168Z" fill="black"/>
<path d="M85.9385 51.1934H80.8008V55.6151H85.9385V51.1934Z" fill="black"/>
<path d="M141.739 37.0981C139.444 34.8761 136.527 33.765 132.986 33.765C132.063 33.7566 131.142 33.8371 130.234 34.0053V38.3309C130.981 38.1416 131.747 38.04 132.516 38.0281C134.874 38.0281 136.726 38.7074 138.071 40.066C139.267 41.2963 139.864 42.9048 139.864 44.8914C139.884 45.7877 139.714 46.6778 139.366 47.5028C139.018 48.3277 138.5 49.0685 137.847 49.676C136.443 51.0329 134.592 51.7122 132.292 51.7138C130.142 51.7138 128.35 50.9929 126.916 49.551C125.573 48.2165 124.901 46.7129 124.901 45.0404V25.0586H119.764V45.372C119.764 48.2749 120.985 50.7718 123.427 52.8625C125.869 54.9532 128.817 55.9993 132.271 56.0009C135.904 56.0009 138.934 54.8963 141.36 52.687C143.787 50.4778 145 47.7375 145 44.466C145 41.6192 143.913 39.1632 141.739 37.0981Z" fill="black"/>
<path d="M29.4615 34.8359H24.3262V55.779H29.4615V34.8359Z" fill="black"/>
<path d="M29.3809 25.0586H24.2217V30.2637H29.3809V25.0586Z" fill="black"/>
<path d="M10.5254 39.2249C11.3956 39.1248 12.2207 38.781 12.9073 38.2324H10.5254V39.2249Z" fill="black"/>
<path d="M74.9795 39.2391C76.4106 39.3399 77.7747 39.8894 78.8811 40.8108C79.908 41.8003 80.5408 43.1344 80.6604 44.562L85.9291 44.6413C85.7671 38.6792 80.9271 34.0484 74.9724 33.897C72.9033 33.8477 70.8818 34.5275 69.2559 35.8195V44.6413L69.7322 44.7062C69.5679 41.164 71.7545 39.0757 74.9795 39.2391Z" fill="black"/>
<path d="M69.7324 25H64.7305V55.7597H69.7324V25Z" fill="black"/>
<path d="M85.9286 44.4648H80.6885V46.147H85.9286V44.4648Z" fill="black"/>
<path d="M80.6602 44.4355V46.1778H85.9289V44.4355H80.6602ZM80.6887 46.1466L80.7197 44.4956H85.9003V46.1177L80.6887 46.1466Z" fill="black"/>
<path d="M9.47266 25.0892V30.2871H17.5711V25.0892H9.47266Z" fill="black"/>
<path d="M9.12026 25.0802C4.46128 25.0586 0.319173 28.161 0 32.8566V33.0561L5.18299 34.1327C5.25683 32.0324 7.24333 30.2877 9.97298 30.2877C10.0278 30.2877 10.0778 30.2877 10.1302 30.2877H17.5688C16.7775 28.7149 15.5683 27.3949 14.0764 26.4753C12.5845 25.5558 10.8686 25.0727 9.12026 25.0802V25.0802Z" fill="black"/>
<path d="M0.00238189 32.9297V35.8134H0V55.776H5.19967V32.9297H0.00238189Z" fill="black"/>
<path d="M113.543 45.1859L113.498 33.3867L108.574 33.4107L108.543 45.1859C108.533 46.2216 108.245 47.2353 107.71 48.1192C107.175 49.0031 106.413 49.7242 105.504 50.206L105.518 55.5193C107.795 54.9255 109.815 53.5916 111.265 51.7239C112.716 49.8562 113.516 47.5585 113.543 45.1859V45.1859Z" fill="black"/>
<path d="M92.2862 45.2608C92.327 47.616 93.1299 49.8933 94.5726 51.7454C96.0154 53.5975 98.0188 54.9229 100.277 55.5196L100.258 50.2184C99.356 49.7407 98.5976 49.0267 98.0629 48.1515C97.5281 47.2763 97.2367 46.272 97.2191 45.2439C97.1739 33.4687 97.1358 33.4688 97.1358 33.4688L92.1338 33.488L92.2862 45.2608Z" fill="black"/>
</svg>
